<svg xmlns="http://www.w3.org/2000/svg" xmlns:xlink="http://www.w3.org/1999/xlink" width="1920" height="1080" fill="none" xmlns:v="https://vecta.io/nano"><mask id="A" mask-type="alpha" maskUnits="userSpaceOnUse" x="0" y="0" width="1920" height="1080"><path fill="#c4c4c4" d="M0 0h1920v1080H0z"/></mask><g mask="url(#A)"><path fill="url(#B)" d="M0 0h1920v950H0z"/><path d="M34.251-12.715a1 1 0 0 1 .819-.574l87.013-7.613a1 1 0 0 1 .906.423l50.1 71.549a1 1 0 0 1 .087.996l-36.914 79.162a1 1 0 0 1-.819.573l-87.013 7.613a1 1 0 0 1-.906-.423l-50.1-71.548a1 1 0 0 1-.087-.996l36.914-79.162zm1563.999-38c.15-.324.46-.543.82-.574l87.01-7.613c.36-.031.7.13.91.423l50.1 71.549c.2.293.24.672.09.996l-36.92 79.162c-.15.324-.46.542-.82.573l-87.01 7.613c-.36.031-.7-.13-.91-.423l-50.1-71.549c-.2-.293-.23-.672-.08-.996l36.91-79.162zM247.887 136.757a1 1 0 0 1 .819-.573l65.958-5.771a1 1 0 0 1 .907.423l37.976 54.236a1 1 0 0 1 .087.996l-27.981 60.007a1 1 0 0 1-.819.573l-65.958 5.771a1 1 0 0 1-.907-.423l-37.976-54.236a1 1 0 0 1-.087-.996l27.981-60.007zm499.059-73.405a1 1 0 0 1 .64.769l8.689 50.604c.061.352-.071.71-.346.938l-39.48 32.828a1 1 0 0 1-.986.169l-48.17-17.777a1 1 0 0 1-.639-.769l-8.689-50.604a1 1 0 0 1 .346-.938l39.48-32.828a1 1 0 0 1 .985-.169l48.17 17.777zm581.814-81.715c.15-.324.46-.543.82-.574l51.15-4.475c.36-.031.7.13.91.423l29.45 42.06a.99.99 0 0 1 .08.996l-21.69 46.535c-.16.324-.47.542-.82.574l-51.15 4.475c-.36.031-.71-.13-.91-.423l-29.45-42.06a.99.99 0 0 1-.09-.996l21.7-46.535zm526 146c.15-.324.46-.542.82-.574l51.15-4.475c.36-.031.7.13.91.423l29.45 42.06a.99.99 0 0 1 .08.996l-21.69 46.535c-.16.323-.47.542-.82.573l-51.15 4.475a1 1 0 0 1-.91-.422l-29.45-42.06a.99.99 0 0 1-.09-.996l21.7-46.535zM494.483-20.663a1 1 0 0 1 .819-.573l35.001-3.062a1 1 0 0 1 .906.423l20.152 28.781a1 1 0 0 1 .088.996L536.6 37.744a1 1 0 0 1-.819.574L500.78 41.38a1 1 0 0 1-.906-.423l-20.153-28.781a1 1 0 0 1-.087-.996l14.849-31.843z" fill="#fff" fill-opacity=".02"/><path d="M1397.5 88.289a1 1 0 0 1 1 0l5.06 2.923a1 1 0 0 1 .5.866v5.845a1 1 0 0 1-.5.866l-5.06 2.922a1 1 0 0 1-1 0l-5.06-2.922a1 1 0 0 1-.5-.866v-5.845a1 1 0 0 1 .5-.866l5.06-2.923z" fill="#fff" fill-opacity=".19"/><use xlink:href="#C" fill="#fff" fill-opacity=".19"/><use xlink:href="#C" x="586" y="-43" fill="#fff" fill-opacity=".19"/><path d="M1640.5 201.289a1 1 0 0 1 1 0l5.06 2.922a1 1 0 0 1 .5.866v5.846a1 1 0 0 1-.5.866l-5.06 2.922a1 1 0 0 1-1 0l-5.06-2.922a1 1 0 0 1-.5-.866v-5.846a1 1 0 0 1 .5-.866l5.06-2.922z" fill="#fff" fill-opacity=".19"/><path d="M644 102l1.909 7.091L653 111l-7.091 1.909L644 120l-1.909-7.091L635 111l7.091-1.909L644 102zm966-61l1.91 7.091L1619 50l-7.09 1.909L1610 59l-1.91-7.091L1601 50l7.09-1.909L1610 41zM78 84l3.182 11.818L93 99l-11.818 3.182L78 114l-3.182-11.818L63 99l11.818-3.182L78 84zm1278 240l3.18 11.818L1371 339l-11.82 3.182L1356 354l-3.18-11.818L1341 339l11.82-3.182L1356 324zm473-210l3.18 11.818L1844 129l-11.82 3.182L1829 144l-3.18-11.818L1814 129l11.82-3.182L1829 114zM965 39l2.121 7.879L975 49l-7.879 2.121L965 59l-2.121-7.879L955 49l7.879-2.121L965 39zm10.5 90l1.167 4.333L981 134.5l-4.333 1.167L975.5 140l-1.167-4.333L970 134.5l4.333-1.167L975.5 129zm-303 109l.742 2.758 2.758.742-2.758.742L672.5 245l-.742-2.758L669 241.5l2.758-.742.742-2.758zm-206-124l.742 2.758 2.758.742-2.758.742L466.5 121l-.742-2.758L463 117.5l2.758-.742.742-2.758zm78 78l1.167 4.727L550 198l-4.333 1.273L544.5 204l-1.167-4.727L539 198l4.333-1.273L544.5 192zm-6-133l.742 2.758L542 62.5l-2.758.742L538.5 66l-.742-2.758L535 62.5l2.758-.742L538.5 59zM369 59l1.273 5.121L375 65.5l-4.727 1.379L369 72l-1.273-5.121L363 65.5l4.727-1.379L369 59zm15.5 104l.742 2.758 2.758.742-2.758.742L384.5 170l-.742-2.758L381 166.5l2.758-.742.742-2.758zm928 169l.74 2.758 2.76.742-2.76.742-.74 2.758-.74-2.758-2.76-.742 2.76-.742.74-2.758z" fill="#fff" fill-opacity=".17"/></g><defs><radialGradient id="B" cx="0" cy="0" r="1" gradientUnits="userSpaceOnUse" gradientTransform="translate(960 -1014.59) rotate(90) scale(1964.59 3970.55)"><stop offset=".333" stop-color="#2d325a"/><stop offset=".412" stop-color="#2f345c"/><stop offset=".521" stop-color="#32375f"/><stop offset=".588" stop-color="#3a4572"/><stop offset=".663" stop-color="#6e4f6e"/><stop offset=".736" stop-color="#90566f"/><stop offset=".792" stop-color="#aa5c6a"/><stop offset=".845" stop-color="#bd625e"/><stop offset=".905" stop-color="#d86b4a"/><stop offset="1" stop-color="#e6713b"/></radialGradient><path id="C" d="M283.5 237.289a1 1 0 0 1 1 0l5.062 2.922a1 1 0 0 1 .5.866v5.846a1 1 0 0 1-.5.866l-5.062 2.922a1 1 0 0 1-1 0l-5.062-2.922a1 1 0 0 1-.5-.866v-5.846a1 1 0 0 1 .5-.866l5.062-2.922z"/></defs></svg>