<svg xmlns="http://www.w3.org/2000/svg" xmlns:xlink="http://www.w3.org/1999/xlink" width="1920" height="1080" fill="none" xmlns:v="https://vecta.io/nano"><style><![CDATA[.B{fill:#0b053e}.C{fill:#7f4051}.D{fill:#6b3249}.E{fill:#602a40}.F{fill:#f9f9f9}.G{fill-opacity:.44}.H{fill:#f9dfce}.I{fill-rule:evenodd}]]></style><mask id="A" mask-type="alpha" maskUnits="userSpaceOnUse" x="0" y="0" width="1920" height="1080"><path fill="#c4c4c4" d="M0 0h1920v1080H0z"/></mask><g mask="url(#A)"><path d="M0 646v166h1920V672h-250v-2h-2v-2h-2v-2h-2v-2h-2v-2h-2v-2h-2v-2h-2v-2h-2v-2h-2v-2h-2v-2h-2v-2h-2v-2H0z" class="C"/><path d="M723 638h396v8H723z" class="C"/><use xlink:href="#I" class="B"/><use xlink:href="#I" fill="url(#B)"/><use xlink:href="#J" class="B"/><use xlink:href="#J" fill="url(#B)"/><use xlink:href="#K" class="B"/><use xlink:href="#K" fill="url(#B)"/><use xlink:href="#L" class="B"/><use xlink:href="#L" fill="url(#B)"/><use xlink:href="#M" class="B"/><use xlink:href="#M" fill="url(#B)"/><use xlink:href="#N" class="B"/><use xlink:href="#N" fill="url(#B)"/><use xlink:href="#O" class="B"/><use xlink:href="#O" fill="url(#B)"/><use xlink:href="#P" class="B"/><use xlink:href="#P" fill="url(#B)"/><use xlink:href="#Q" class="B"/><use xlink:href="#Q" fill="url(#B)"/><use xlink:href="#R" class="B"/><use xlink:href="#R" fill="url(#B)"/><use xlink:href="#S" class="B"/><use xlink:href="#S" fill="url(#B)"/><use xlink:href="#T" class="B"/><use xlink:href="#T" fill="url(#B)"/><use xlink:href="#U" class="B"/><use xlink:href="#U" fill="url(#B)"/><use xlink:href="#V" class="B"/><use xlink:href="#V" fill="url(#B)"/><use xlink:href="#I" x="-40" class="B"/><use xlink:href="#I" x="-40" fill="url(#B)"/><use xlink:href="#J" x="-40" class="B"/><use xlink:href="#J" x="-40" fill="url(#B)"/><use xlink:href="#K" x="-40" class="B"/><use xlink:href="#K" x="-40" fill="url(#B)"/><use xlink:href="#L" x="-40" class="B"/><use xlink:href="#L" x="-40" fill="url(#B)"/><use xlink:href="#M" x="-40" class="B"/><use xlink:href="#M" x="-40" fill="url(#B)"/><use xlink:href="#N" x="-40" class="B"/><use xlink:href="#N" x="-40" fill="url(#B)"/><use xlink:href="#O" x="-40" class="B"/><use xlink:href="#O" x="-40" fill="url(#B)"/><use xlink:href="#P" x="-40" class="B"/><use xlink:href="#P" x="-40" fill="url(#B)"/><use xlink:href="#Q" x="-40" class="B"/><use xlink:href="#Q" x="-40" fill="url(#B)"/><use xlink:href="#R" x="-40" class="B"/><use xlink:href="#R" x="-40" fill="url(#B)"/><use xlink:href="#S" x="-40" class="B"/><use xlink:href="#S" x="-40" fill="url(#B)"/><use xlink:href="#T" x="-40" class="B"/><use xlink:href="#T" x="-40" fill="url(#B)"/><use xlink:href="#U" x="-40" class="B"/><use xlink:href="#U" x="-40" fill="url(#B)"/><use xlink:href="#V" x="-40" class="B"/><use xlink:href="#V" x="-40" fill="url(#B)"/><use xlink:href="#W" class="B"/><use xlink:href="#W" fill="url(#C)"/><use xlink:href="#X" class="B"/><use xlink:href="#X" fill="url(#C)"/><use xlink:href="#Y" class="B"/><use xlink:href="#Y" fill="url(#C)"/><use xlink:href="#Z" class="B"/><use xlink:href="#Z" fill="url(#C)"/><use xlink:href="#a" class="B"/><use xlink:href="#a" fill="url(#C)"/><use xlink:href="#N" x="-80" class="B"/><use xlink:href="#N" x="-80" fill="url(#B)"/><use xlink:href="#O" x="-80" class="B"/><use xlink:href="#O" x="-80" fill="url(#B)"/><path d="M1004.22 606.526l-5.66-3.67-1.637 10.282 5.257 1.073 2.04-3.642v-4.043z" class="B"/><path d="M1004.22 606.526l-5.66-3.67-1.637 10.282 5.257 1.073 2.04-3.642v-4.043z" fill="url(#C)"/><use xlink:href="#b" class="B"/><use xlink:href="#b" fill="url(#C)"/><use xlink:href="#c" class="B"/><use xlink:href="#c" fill="url(#C)"/><use xlink:href="#S" x="-80" class="B"/><use xlink:href="#S" x="-80" fill="url(#B)"/><use xlink:href="#T" x="-80" class="B"/><use xlink:href="#T" x="-80" fill="url(#B)"/><use xlink:href="#d" class="B"/><use xlink:href="#d" fill="url(#C)"/><path d="M998.041 632.842h1.275v5.982L998.059 640l-.018-7.158z" class="B"/><path d="M998.041 632.842h1.275v5.982L998.059 640l-.018-7.158z" fill="url(#C)"/><use xlink:href="#e" class="B"/><use xlink:href="#e" fill="url(#D)"/><use xlink:href="#X" x="-40" class="B"/><use xlink:href="#X" x="-40" fill="url(#C)"/><use xlink:href="#Y" x="-40" class="B"/><use xlink:href="#Y" x="-40" fill="url(#C)"/><use xlink:href="#Z" x="-40" class="B"/><use xlink:href="#Z" x="-40" fill="url(#C)"/><use xlink:href="#a" x="-40" class="B"/><use xlink:href="#a" x="-40" fill="url(#C)"/><use xlink:href="#f" class="B"/><use xlink:href="#f" fill="url(#D)"/><use xlink:href="#g" class="B"/><use xlink:href="#g" fill="url(#D)"/><use xlink:href="#h" class="B"/><use xlink:href="#h" fill="url(#D)"/><use xlink:href="#i" class="B"/><use xlink:href="#i" fill="url(#D)"/><use xlink:href="#j" class="B"/><use xlink:href="#j" fill="url(#D)"/><use xlink:href="#k" class="B"/><use xlink:href="#k" fill="url(#D)"/><use xlink:href="#l" class="B"/><use xlink:href="#l" fill="url(#D)"/><use xlink:href="#m" class="B"/><use xlink:href="#m" fill="url(#D)"/><path d="M958.041 632.842h1.275v5.982L958.059 640l-.018-7.158z" class="B"/><path d="M958.041 632.842h1.275v5.982L958.059 640l-.018-7.158z" fill="url(#D)"/><use xlink:href="#e" x="-80" class="B"/><use xlink:href="#e" x="-80" fill="url(#D)"/><use xlink:href="#X" x="-120" class="B"/><use xlink:href="#X" x="-120" fill="url(#C)"/><use xlink:href="#Y" x="-120" class="B"/><use xlink:href="#Y" x="-120" fill="url(#C)"/><use xlink:href="#Z" x="-120" class="B"/><use xlink:href="#Z" x="-120" fill="url(#C)"/><use xlink:href="#a" x="-120" class="B"/><use xlink:href="#a" x="-120" fill="url(#C)"/><use xlink:href="#f" x="-80" class="B"/><use xlink:href="#f" x="-80" fill="url(#D)"/><use xlink:href="#g" x="-80" class="B"/><use xlink:href="#g" x="-80" fill="url(#D)"/><use xlink:href="#h" x="-80" class="B"/><use xlink:href="#h" x="-80" fill="url(#D)"/><use xlink:href="#i" x="-80" class="B"/><use xlink:href="#i" x="-80" fill="url(#D)"/><use xlink:href="#j" x="-80" class="B"/><use xlink:href="#j" x="-80" fill="url(#D)"/><use xlink:href="#k" x="-80" class="B"/><use xlink:href="#k" x="-80" fill="url(#D)"/><use xlink:href="#l" x="-80" class="B"/><use xlink:href="#l" x="-80" fill="url(#D)"/><use xlink:href="#m" x="-80" class="B"/><use xlink:href="#m" x="-80" fill="url(#D)"/><path d="M878.041 632.842h1.275v5.982L878.059 640l-.018-7.158z" class="B"/><path d="M878.041 632.842h1.275v5.982L878.059 640l-.018-7.158z" fill="url(#E)"/><use xlink:href="#e" x="-120" class="B"/><use xlink:href="#e" x="-120" fill="url(#D)"/><use xlink:href="#X" x="-160" class="B"/><use xlink:href="#X" x="-160" fill="url(#C)"/><use xlink:href="#Y" x="-160" class="B"/><use xlink:href="#Y" x="-160" fill="url(#C)"/><use xlink:href="#Z" x="-160" class="B"/><use xlink:href="#Z" x="-160" fill="url(#C)"/><use xlink:href="#a" x="-160" class="B"/><use xlink:href="#a" x="-160" fill="url(#C)"/><use xlink:href="#f" x="-120" class="B"/><use xlink:href="#f" x="-120" fill="url(#D)"/><use xlink:href="#g" x="-120" class="B"/><use xlink:href="#g" x="-120" fill="url(#D)"/><use xlink:href="#h" x="-120" class="B"/><use xlink:href="#h" x="-120" fill="url(#D)"/><use xlink:href="#i" x="-120" class="B"/><use xlink:href="#i" x="-120" fill="url(#D)"/><use xlink:href="#j" x="-120" class="B"/><use xlink:href="#j" x="-120" fill="url(#D)"/><use xlink:href="#k" x="-120" class="B"/><use xlink:href="#k" x="-120" fill="url(#D)"/><use xlink:href="#l" x="-120" class="B"/><use xlink:href="#l" x="-120" fill="url(#D)"/><use xlink:href="#m" x="-120" class="B"/><use xlink:href="#m" x="-120" fill="url(#D)"/><path d="M838.041 632.842h1.275v5.982L838.059 640l-.018-7.158z" class="B"/><path d="M838.041 632.842h1.275v5.982L838.059 640l-.018-7.158z" fill="url(#F)"/><use xlink:href="#e" x="-160" class="B"/><use xlink:href="#e" x="-160" fill="url(#D)"/><use xlink:href="#X" x="-200" class="B"/><use xlink:href="#X" x="-200" fill="url(#C)"/><use xlink:href="#Y" x="-200" class="B"/><use xlink:href="#Y" x="-200" fill="url(#C)"/><use xlink:href="#Z" x="-200" class="B"/><use xlink:href="#Z" x="-200" fill="url(#C)"/><use xlink:href="#a" x="-200" class="B"/><use xlink:href="#a" x="-200" fill="url(#C)"/><use xlink:href="#f" x="-160" class="B"/><use xlink:href="#f" x="-160" fill="url(#D)"/><use xlink:href="#g" x="-160" class="B"/><use xlink:href="#g" x="-160" fill="url(#D)"/><use xlink:href="#h" x="-160" class="B"/><use xlink:href="#h" x="-160" fill="url(#D)"/><use xlink:href="#i" x="-160" class="B"/><use xlink:href="#i" x="-160" fill="url(#D)"/><use xlink:href="#j" x="-160" class="B"/><use xlink:href="#j" x="-160" fill="url(#D)"/><use xlink:href="#k" x="-160" class="B"/><use xlink:href="#k" x="-160" fill="url(#D)"/><use xlink:href="#l" x="-160" class="B"/><use xlink:href="#l" x="-160" fill="url(#D)"/><use xlink:href="#m" x="-160" class="B"/><use xlink:href="#m" x="-160" fill="url(#D)"/><path d="M798.041 632.842h1.275v5.982L798.059 640l-.018-7.158z" class="B"/><path d="M798.041 632.842h1.275v5.982L798.059 640l-.018-7.158z" fill="url(#G)"/><use xlink:href="#e" x="-200" class="B"/><use xlink:href="#e" x="-200" fill="url(#D)"/><use xlink:href="#X" x="-240" class="B"/><use xlink:href="#X" x="-240" fill="url(#C)"/><use xlink:href="#Y" x="-240" class="B"/><use xlink:href="#Y" x="-240" fill="url(#C)"/><use xlink:href="#Z" x="-240" class="B"/><use xlink:href="#Z" x="-240" fill="url(#C)"/><use xlink:href="#a" x="-240" class="B"/><use xlink:href="#a" x="-240" fill="url(#C)"/><use xlink:href="#f" x="-200" class="B"/><use xlink:href="#f" x="-200" fill="url(#D)"/><use xlink:href="#g" x="-200" class="B"/><use xlink:href="#g" x="-200" fill="url(#D)"/><use xlink:href="#h" x="-200" class="B"/><use xlink:href="#h" x="-200" fill="url(#D)"/><use xlink:href="#i" x="-200" class="B"/><use xlink:href="#i" x="-200" fill="url(#D)"/><use xlink:href="#j" x="-200" class="B"/><use xlink:href="#j" x="-200" fill="url(#D)"/><use xlink:href="#k" x="-200" class="B"/><use xlink:href="#k" x="-200" fill="url(#D)"/><use xlink:href="#l" x="-200" class="B"/><use xlink:href="#l" x="-200" fill="url(#D)"/><use xlink:href="#m" x="-200" class="B"/><use xlink:href="#m" x="-200" fill="url(#D)"/><path d="M758.041 632.842h1.275v5.982L758.059 640l-.018-7.158z" class="B"/><path d="M758.041 632.842h1.275v5.982L758.059 640l-.018-7.158z" fill="url(#H)"/><path d="M901 629h39v9h-39z" class="C"/><path d="M903 621a3 3 0 0 1 3-3h29a3 3 0 0 1 3 3v8h-35v-8z" class="F G"/><path d="M908.832 615.25a5 5 0 0 1 5-5h13.542a5 5 0 0 1 5 5v4.375h-23.542v-4.375z" class="F G"/><path d="M911 609a5 5 0 0 1 5-5h9a5 5 0 0 1 5 5v2h-19v-2z" class="F G"/><path d="M906.125 618.168h29.167s-1.253 3.287-3.021 4.375c-4.063 2.5-7.007 2.517-11.667 2.5-4.58-.017-7.604 0-11.458-2.5-1.742-1.13-3.021-4.375-3.021-4.375zm5.832-7.293h17.292s-.743 1.991-1.791 2.651c-2.409 1.514-4.154 1.525-6.917 1.514-2.715-.01-4.508 0-6.793-1.514-1.033-.685-1.791-2.651-1.791-2.651zm2.711-6.041h11.875s-.51 1.394-1.23 1.855c-1.654 1.061-2.853 1.068-4.75 1.061-1.865-.008-3.096 0-4.665-1.061-.709-.479-1.23-1.855-1.23-1.855z" class="C"/><path d="M919.668 607.75h2.083V629h-2.083z" class="C"/><path d="M1316.36 587.131h251.087v15.217H1316.36zm-34.24 19.021h320.516v39.946H1282.12z" class="H"/><path d="M1416.19 648v-1.194h-141.67v-35.824l-9.52-2.389v-2.388l32.14-7.165h5.96v-8.359l-7.15-3.582v-1.194l40.48-9.553h77.38v-5.971h8.33v-3.583h-8.33v-2.388l11.9-3.582h-8.33v-2.389l11.91-4.776h-7.15v-3.583l17.86-9.553 17.86 9.553v3.583h-7.15l11.91 4.776v2.389h-8.33l11.9 3.582v2.388h-8.33v3.583h8.33v5.971h77.38l40.48 9.553v1.194l-7.15 3.582v8.359h5.96l32.14 7.165v2.388l-9.52 2.389v35.824h-141.67V648h-47.62zm4.76-7.165v-15.524h39.29v15.524h-39.29zm60.72-31.047v6.567h8.33v-6.567h-8.33zm0 29.256v-14.33s.59-2.388 4.16-2.388 4.17 2.388 4.17 2.388v14.33h-8.33zm-90.48-30.451v6.568h8.33v-6.568h-8.33zm8.33 29.257h-8.33v-14.33s.6-2.388 4.17-2.388 4.16 2.388 4.16 2.388v14.33zm-26.19-29.257v6.568h8.34v-6.568h-8.34zm8.34 29.257h-8.34v-14.33s.6-2.388 4.17-2.388 4.17 2.388 4.17 2.388v14.33zm-26.19-29.257v6.568h8.33v-6.568h-8.33zm8.33 29.257h-8.33v-14.33s.59-2.388 4.16-2.388 4.17 2.388 4.17 2.388v14.33zm-26.19-29.257v6.568h8.33v-6.568h-8.33zm8.33 29.257h-8.33v-14.33s.59-2.388 4.17-2.388c3.57 0 4.16 2.388 4.16 2.388v14.33zm-26.19-29.257v6.568h8.34v-6.568h-8.34zm8.34 29.257h-8.34v-14.33s.6-2.388 4.17-2.388 4.17 2.388 4.17 2.388v14.33zm-26.2-29.257v6.568h8.34v-6.568h-8.34zm8.34 29.257h-8.34v-14.33s.6-2.388 4.17-2.388 4.17 2.388 4.17 2.388v14.33zm-26.19-29.257v6.568h8.33v-6.568h-8.33zm141.66-10.15v-6.568h8.34v6.568h-8.34zm-17.85-6.568v6.568h8.33v-6.568h-8.33zm-17.86 6.568v-6.568h8.33v6.568H1390zm-17.86-6.568v6.568h8.34v-6.568h-8.34zm-17.85 6.568v-6.568h8.33v6.568h-8.33zm-17.86-6.568v6.568h8.33v-6.568h-8.33zm-17.86 6.568v-6.568h8.33v6.568h-8.33zm234.53-6.568v6.568h8.33v-6.568h-8.33zm-17.86 6.568v-6.568h8.33v6.568h-8.33zm-17.86-6.568v6.568h8.33v-6.568h-8.33zm-17.86 6.568v-6.568h8.34v6.568h-8.34zm-17.85-6.568v6.568h8.33v-6.568h-8.33zm-17.86 6.568v-6.568h8.33v6.568h-8.33zm-17.86-6.568v6.568h8.34v-6.568h-8.34zm-153.57 45.975h-8.33v-14.33s.59-2.388 4.16-2.388c3.58 0 4.17 2.388 4.17 2.388v14.33zm207.14-28.062v6.567h8.34v-6.567h-8.34zm0 29.256v-14.33s.6-2.388 4.17-2.388 4.17 2.388 4.17 2.388v14.33h-8.34zm17.86-29.256v6.567h8.33v-6.567h-8.33zm0 29.256v-14.33s.6-2.388 4.17-2.388 4.16 2.388 4.16 2.388v14.33h-8.33zm17.86-29.256v6.567h8.33v-6.567h-8.33zm0 29.256v-14.33s.59-2.388 4.16-2.388c3.58 0 4.17 2.388 4.17 2.388v14.33h-8.33zm17.86-29.256v6.567h8.33v-6.567h-8.33zm0 29.256v-14.33s.59-2.388 4.16-2.388 4.17 2.388 4.17 2.388v14.33h-8.33zm17.85-29.256v6.567h8.34v-6.567h-8.34zm0 29.256v-14.33s.6-2.388 4.17-2.388 4.17 2.388 4.17 2.388v14.33h-8.34zm17.86-29.256v6.567h8.33v-6.567h-8.33zm0 29.256v-14.33s.59-2.388 4.17-2.388c3.57 0 4.16 2.388 4.16 2.388v14.33h-8.33zm-127.38 6.568v-2.388h-42.86v2.388h42.86z" class="D I"/><path d="M1717.76 628.698l4.18-5.698 4.18 5.698h-1.52l4.94 7.027h-1.14l4.37 6.647h-1.14l3.99 6.647h-1.71l5.31 7.692h-1.8l4.46 7.692H1702l4.46-7.692h-1.42l5.13-7.692h-1.9l3.99-6.647h-1.14l4.36-6.647h-1.14l4.94-7.027h-1.52z" class="C"/><path d="M1719.85 664.402h4.558v7.597h-4.558zm52.8-35.704l4.17-5.698 4.18 5.698h-1.52l4.94 7.027h-1.14l4.37 6.647h-1.14l3.99 6.647h-1.71l5.32 7.692h-1.81l4.47 7.692h-39.89l4.47-7.692h-1.43l5.13-7.692h-1.9l3.99-6.647H1766l4.37-6.647h-1.14l4.94-7.027h-1.52z" class="C"/><path d="M1774.73 664.402h4.558v7.597h-4.558zm52.8-35.704l4.18-5.698 4.18 5.698h-1.52l4.93 7.027h-1.14l4.37 6.647h-1.14l3.99 6.647h-1.71l5.32 7.692h-1.8l4.46 7.692h-39.88l4.46-7.692h-1.43l5.13-7.692h-1.9l3.99-6.647h-1.14l4.37-6.647h-1.14l4.94-7.027h-1.52z" class="C"/><path d="M1829.62 664.402h4.558v7.597h-4.558zm52.79-35.704l4.18-5.698 4.18 5.698h-1.52l4.94 7.027h-1.14l4.37 6.647h-1.14l3.98 6.647h-1.7l5.31 7.692h-1.8l4.46 7.692h-39.88l4.46-7.692h-1.42l5.13-7.692h-1.9l3.98-6.647h-1.14l4.37-6.647h-1.14l4.94-7.027h-1.52z" class="C"/><path d="M1884.5 664.402h4.558v7.597h-4.558z" class="C"/><path d="M1171.28 500.758h18.207v145.241h-18.207z" class="D"/><path d="M1189.48 500.758h3.31v145.241h-3.31zm-21.52 0h3.31v145.241h-3.31z" class="C"/><path d="M1168.79 474.275h22.759v21.931h-22.759z" class="D"/><path d="M1165.89 474.275h2.897v21.931h-2.897zm25.66 0h2.897v21.931h-2.897z" class="C"/><path fill="#4f2941" d="M1165.9 496.207h28.552v2.483H1165.9zm0-24.414h28.552v2.483H1165.9z"/><path d="M1165.9 498.689h28.55l-1.66 2.069h-24.82l-2.07-2.069z" fill="#4f2941"/><path d="M1197.55 471.793H1163L1180.38 454l17.17 17.793z" class="E"/><circle cx="1180.38" cy="485.449" r="7.034" fill="#efeeee"/><path d="M1180.38 478.828h.414v1.241h-.414zm0 12h.414v1.241h-.414z" class="E"/><path transform="rotate(90 1187 485.449)" d="M1187 485.449h.414v1.241H1187z" class="E"/><path transform="rotate(90 1175 485.449)" d="M1175 485.449h.414v1.241H1175z" class="E"/><path d="M1180.59 480.689v5.173h3.51" stroke="#4f2941"/><path d="M1176.66 534.07a3.93 3.93 0 1 1 7.86 0v13.862h-7.86V534.07z" class="H"/><path transform="matrix(-1 0 0 1 132 602)" d="M0 0h4v44H0z" class="C"/><path transform="matrix(-1 0 0 1 128 602)" d="M0 0h10v2.933H0z" class="C"/><path d="M111 646l10-44h-3l-10 44h3zm290-44h4v44h-4z" class="C"/><path d="M405 602h10v2.933h-10z" class="C"/><path d="M422 646l-10-44h3l10 44h-3z" class="C"/><path d="M523 595h36v40h-36zm39-10h55v62h-55zm57 10h36v40h-36z" class="H"/><path d="M519.452 646.692v-53.077L516 591.308v-3.462h42.579v-4.615l-5.754-3.462v-4.615h17.262L589.075 559l17.838 16.154h18.412v4.615l-5.754 3.462v4.615H661v3.462l-3.452 2.307v53.077h-39.127V649H559.73v-2.308h-40.278zm55.238-9.23v-24.231h28.77v24.231h-28.77zm-12.658-50.77v21.923h11.508v-21.923h-11.508zm17.262 21.923v-21.923h19.563v21.923h-19.563zm36.825-21.923h-11.508v21.923h11.508v-21.923zm-10.357 53.077v2.308h-33.373v-2.308h33.373zm2.301 6.923v-2.307h-37.976v2.307h37.976zm-82.857-28.846h8.056V634h-8.056v-16.154zm20.715 0h-8.056V634h8.056v-16.154zm4.603 0h8.055V634h-8.055v-16.154zm77.103 0h-8.056V634h8.056v-16.154zm4.603 0h8.056V634h-8.056v-16.154zm20.714 0h-8.055V634h8.055v-16.154zm-33.373-21.923h8.056v16.154h-8.056v-16.154zm20.715 0h-8.056v16.154h8.056v-16.154zm4.603 0h8.055v16.154h-8.055v-16.154zm-111.627 0h-8.056v16.154h8.056v-16.154zm4.603 0h8.056v16.154h-8.056v-16.154zm20.714 0h-8.055v16.154h8.055v-16.154z" class="D I"/></g><defs><linearGradient id="B" x1="1079" y1="600" x2="1079" y2="638.824" xlink:href="#n"><stop stop-color="#092158"/><stop offset="1" stop-color="#0b053e"/></linearGradient><linearGradient id="C" x1="999" y1="600" x2="999" y2="638.824" xlink:href="#n"><stop stop-color="#092158"/><stop offset="1" stop-color="#0b053e"/></linearGradient><linearGradient id="D" x1="959" y1="600" x2="959" y2="638.824" xlink:href="#n"><stop stop-color="#092158"/><stop offset="1" stop-color="#0b053e"/></linearGradient><linearGradient id="E" x1="879" y1="600" x2="879" y2="638.824" xlink:href="#n"><stop stop-color="#092158"/><stop offset="1" stop-color="#0b053e"/></linearGradient><linearGradient id="F" x1="839" y1="600" x2="839" y2="638.824" xlink:href="#n"><stop stop-color="#092158"/><stop offset="1" stop-color="#0b053e"/></linearGradient><linearGradient id="G" x1="799" y1="600" x2="799" y2="638.824" xlink:href="#n"><stop stop-color="#092158"/><stop offset="1" stop-color="#0b053e"/></linearGradient><linearGradient id="H" x1="759" y1="600" x2="759" y2="638.824" xlink:href="#n"><stop stop-color="#092158"/><stop offset="1" stop-color="#0b053e"/></linearGradient><path id="I" d="M1085.71 619.305c0 8.128-3.14 14.718-7.01 14.718s-7.83-6.59-7.83-14.718 3.96-14.717 7.83-14.717 7.01 6.589 7.01 14.717z"/><path id="J" d="M1069.24 618.383c-.06-.255.02-.522.23-.711l2.77-2.499c.46-.419 1.27-.276 1.51.267l2.33 5.358c.18.41-.06.867-.54 1.017l-4.06 1.275c-.51.163-1.08-.107-1.2-.572l-1.04-4.135z"/><path id="K" d="M1069.64 610.569c-.03-.29.13-.57.42-.727l3.62-1.998c.56-.308 1.3-.013 1.39.555l1.35 8.382c.07.392-.22.764-.66.868l-4.29 1.012c-.55.13-1.1-.204-1.14-.696l-.69-7.396z"/><path id="L" d="M1069.21 625.195a.71.71 0 0 1-.06-.943l2.11-2.732c.37-.48 1.19-.464 1.53.03l4.19 6.009c.25.358.13.823-.27 1.058l-1.98 1.153c-.38.225-.9.162-1.2-.146l-4.32-4.429z"/><path id="M" d="M1071.73 630.281c-.4-.247-.5-.722-.23-1.075l1.03-1.331c.33-.43 1.04-.472 1.44-.084l3.67 3.606c.3.289.31.719.03 1.018l-.39.405c-.3.322-.84.384-1.24.141l-4.31-2.68z"/><path id="N" d="M1088.97 617.745c.12-.371-.09-.764-.5-.929l-3.58-1.469c-.49-.199-1.06.008-1.24.445l-2.09 5.112c-.17.4.07.843.52 1.001l4.06 1.405c.5.173 1.06-.067 1.21-.517l1.62-5.048z"/><path id="O" d="M1088.39 611.374c.03-.274-.11-.541-.36-.706l-4.02-2.605c-.56-.36-1.35-.074-1.45.519l-1.3 8.226c-.07.414.25.802.72.884l4.66.811c.52.092 1.03-.232 1.08-.697l.67-6.432z"/><path id="P" d="M1084.22 606.526l-5.66-3.67-1.64 10.282 5.26 1.073 2.04-3.642v-4.043z"/><path id="Q" d="M1084.26 606.892c-.02-.232-.16-.444-.38-.579l-2.35-1.453a.8.8 0 0 1-.29-.291l-1.25-2.165c-.41-.703-1.62-.52-1.72.259l-1.26 9.778c-.05.397.25.766.7.858l3.82.779c.38.079.78-.067.99-.362l1.95-2.852a.72.72 0 0 0 .13-.467l-.34-3.505z"/><path id="R" d="M1072.99 606.876c0-.253.14-.489.38-.636l2.59-1.615c.13-.076.22-.177.29-.295l.99-1.769c.39-.709 1.62-.525 1.73.26l1.25 9.607c.05.397-.25.763-.7.851l-3.76.737c-.41.081-.84-.096-1.02-.426l-1.65-2.921a.7.7 0 0 1-.09-.343l-.01-3.45z"/><path id="S" d="M1088.37 625.271c.25-.267.28-.649.05-.94l-2.06-2.716c-.37-.487-1.2-.474-1.54.024l-4.12 6c-.25.358-.13.823.27 1.059l1.93 1.144a1.01 1.01 0 0 0 1.21-.143l4.26-4.428z"/><path id="T" d="M1085.88 630.358c.4-.247.49-.719.22-1.072l-1-1.318c-.33-.436-1.05-.481-1.44-.089l-3.62 3.599a.71.71 0 0 0-.02 1.016l.37.395a1.01 1.01 0 0 0 1.24.145l4.25-2.676z"/><path id="U" d="M1078.54 600.091c.06-.121.26-.121.33-.001l3.86 7.041c.04.075 0 .164-.08.205l-4.37 2.137c-.07.036-.16.023-.22-.032l-2.92-2.808c-.05-.047-.06-.115-.03-.172l3.43-6.37z"/><path id="V" d="M1078.04 632.842h1.28v5.982l-1.26 1.176-.02-7.158z"/><path id="W" d="M1005.71 619.305c0 8.128-3.14 14.718-7.01 14.718s-7.831-6.59-7.831-14.718 3.959-14.717 7.831-14.717 7.01 6.589 7.01 14.717z"/><path id="X" d="M989.241 618.383c-.064-.255.023-.522.232-.711l2.763-2.499c.463-.419 1.274-.276 1.511.267l2.333 5.358c.179.41-.064.867-.541 1.017l-4.055 1.275c-.518.163-1.084-.107-1.201-.572l-1.042-4.135z"/><path id="Y" d="M989.638 610.569c-.027-.29.133-.57.418-.727l3.624-1.998c.559-.308 1.3-.013 1.391.555l1.352 8.382c.063.392-.22.764-.662.868l-4.288 1.012c-.55.13-1.102-.204-1.148-.696l-.687-7.396z"/><path id="Z" d="M989.214 625.195c-.261-.268-.286-.652-.061-.943l2.103-2.732c.37-.48 1.194-.464 1.538.03l4.186 6.009c.25.358.131.823-.271 1.058l-1.974 1.153c-.386.225-.907.162-1.207-.146l-4.314-4.429z"/><path id="a" d="M991.73 630.281c-.398-.247-.499-.722-.227-1.075l1.025-1.331c.332-.43 1.046-.472 1.441-.084l3.674 3.606c.295.289.304.719.022 1.018l-.384.405c-.304.322-.845.384-1.236.141l-4.315-2.68z"/><path id="b" d="M1004.26 606.892c-.02-.232-.16-.444-.38-.579l-2.35-1.453a.8.8 0 0 1-.29-.291l-1.253-2.165c-.407-.703-1.617-.52-1.717.259l-1.257 9.778c-.051.397.25.766.7.858l3.817.779c.38.079.78-.067.99-.362l1.95-2.852a.72.72 0 0 0 .13-.467l-.34-3.505z"/><path id="c" d="M992.989 606.876c-.001-.253.139-.489.376-.636l2.599-1.615c.122-.076.221-.177.286-.295l.987-1.769c.396-.709 1.626-.525 1.728.26l1.255 9.607c.05.397-.246.763-.697.851l-3.76.737c-.414.081-.839-.096-1.026-.426l-1.648-2.921a.7.7 0 0 1-.092-.343l-.008-3.45z"/><path id="d" d="M998.537 600.091c.065-.121.263-.121.33-.001l3.863 7.041c.04.075 0 .164-.08.205l-4.366 2.137c-.074.036-.168.023-.225-.032l-2.921-2.808c-.049-.047-.06-.115-.03-.172l3.429-6.37z"/><path id="e" d="M965.713 619.305c0 8.128-3.14 14.718-7.013 14.718s-7.831-6.59-7.831-14.718 3.959-14.717 7.831-14.717 7.013 6.589 7.013 14.717z"/><path id="f" d="M968.967 617.745c.119-.371-.09-.764-.492-.929l-3.587-1.469c-.486-.199-1.06.008-1.239.445l-2.09 5.112c-.164.4.068.843.524 1.001l4.058 1.405c.502.173 1.063-.067 1.207-.517l1.619-5.048z"/><path id="g" d="M968.392 611.374c.029-.274-.109-.541-.363-.706l-4.021-2.605c-.555-.36-1.349-.074-1.443.519l-1.31 8.226c-.066.414.253.802.726.884l4.655.811c.529.092 1.031-.232 1.08-.697l.676-6.432z"/><path id="h" d="M964.224 606.526l-5.664-3.67-1.637 10.282 5.253 1.073 2.048-3.642v-4.043z"/><path id="i" d="M964.259 606.892c-.022-.232-.162-.444-.381-.579l-2.351-1.453c-.122-.075-.221-.175-.288-.291l-1.252-2.165c-.407-.703-1.617-.52-1.717.259l-1.257 9.778c-.051.397.25.766.7.858l3.815.779c.386.079.785-.067.987-.362l1.957-2.852a.71.71 0 0 0 .124-.467l-.337-3.505z"/><path id="j" d="M952.989 606.876c-.001-.253.139-.489.376-.636l2.599-1.615c.122-.076.221-.177.286-.295l.987-1.769c.396-.709 1.626-.525 1.728.26l1.258 9.607c.052.397-.249.763-.7.851l-3.76.737c-.414.081-.839-.096-1.026-.426l-1.648-2.921a.7.7 0 0 1-.092-.343l-.008-3.45z"/><path id="k" d="M968.366 625.271c.257-.267.28-.649.059-.94l-2.065-2.716c-.37-.487-1.195-.474-1.537.024l-4.127 6c-.246.358-.126.823.273 1.059l1.933 1.144c.387.229.909.167 1.207-.143l4.257-4.428z"/><path id="l" d="M965.884 630.358c.392-.247.489-.719.221-1.072l-1.002-1.318c-.332-.436-1.049-.481-1.443-.089l-3.62 3.599a.71.71 0 0 0-.019 1.016l.369.395c.305.327.85.39 1.24.145l4.254-2.676z"/><path id="m" d="M958.537 600.091c.065-.121.263-.121.33-.001l3.859 7.041c.041.075.008.164-.075.205l-4.367 2.137c-.074.036-.168.023-.225-.032l-2.921-2.808c-.049-.047-.06-.115-.03-.172l3.429-6.37z"/><linearGradient id="n" gradientUnits="userSpaceOnUse"/></defs></svg>