<svg width="1920" height="1080" viewBox="0 0 1920 1080" fill="none" xmlns="http://www.w3.org/2000/svg">
<mask id="mask0" mask-type="alpha" maskUnits="userSpaceOnUse" x="0" y="0" width="1920" height="1080">
<rect width="1920" height="1080" fill="#C4C4C4"/>
</mask>
<g mask="url(#mask0)">
<path d="M0 646V812H1920V672H1670V670H1668V668H1666V666H1664V664H1662V662H1660V660H1658V658H1656V656H1654V654H1652V652H1650V650H1648V648H1646V646H0Z" fill="#7F4051"/>
<rect x="723" y="638" width="396" height="8" fill="#7F4051"/>
<path d="M1085.71 619.305C1085.71 627.433 1082.57 634.023 1078.7 634.023C1074.83 634.023 1070.87 627.433 1070.87 619.305C1070.87 611.177 1074.83 604.588 1078.7 604.588C1082.57 604.588 1085.71 611.177 1085.71 619.305Z" fill="#0B053E"/>
<path d="M1085.71 619.305C1085.71 627.433 1082.57 634.023 1078.7 634.023C1074.83 634.023 1070.87 627.433 1070.87 619.305C1070.87 611.177 1074.83 604.588 1078.7 604.588C1082.57 604.588 1085.71 611.177 1085.71 619.305Z" fill="url(#paint0_linear)"/>
<path d="M1069.24 618.383C1069.18 618.128 1069.26 617.861 1069.47 617.672L1072.24 615.173C1072.7 614.754 1073.51 614.897 1073.75 615.44L1076.08 620.798C1076.26 621.208 1076.02 621.665 1075.54 621.815L1071.48 623.09C1070.97 623.253 1070.4 622.983 1070.28 622.518L1069.24 618.383Z" fill="#0B053E"/>
<path d="M1069.24 618.383C1069.18 618.128 1069.26 617.861 1069.47 617.672L1072.24 615.173C1072.7 614.754 1073.51 614.897 1073.75 615.44L1076.08 620.798C1076.26 621.208 1076.02 621.665 1075.54 621.815L1071.48 623.09C1070.97 623.253 1070.4 622.983 1070.28 622.518L1069.24 618.383Z" fill="url(#paint1_linear)"/>
<path d="M1069.64 610.569C1069.61 610.279 1069.77 609.999 1070.06 609.842L1073.68 607.844C1074.24 607.536 1074.98 607.831 1075.07 608.399L1076.42 616.781C1076.49 617.173 1076.2 617.545 1075.76 617.649L1071.47 618.661C1070.92 618.791 1070.37 618.457 1070.33 617.965L1069.64 610.569Z" fill="#0B053E"/>
<path d="M1069.64 610.569C1069.61 610.279 1069.77 609.999 1070.06 609.842L1073.68 607.844C1074.24 607.536 1074.98 607.831 1075.07 608.399L1076.42 616.781C1076.49 617.173 1076.2 617.545 1075.76 617.649L1071.47 618.661C1070.92 618.791 1070.37 618.457 1070.33 617.965L1069.64 610.569Z" fill="url(#paint2_linear)"/>
<path d="M1069.21 625.195C1068.95 624.927 1068.93 624.543 1069.15 624.252L1071.26 621.52C1071.63 621.04 1072.45 621.056 1072.79 621.55L1076.98 627.559C1077.23 627.917 1077.11 628.382 1076.71 628.617L1074.73 629.77C1074.35 629.995 1073.83 629.932 1073.53 629.624L1069.21 625.195Z" fill="#0B053E"/>
<path d="M1069.21 625.195C1068.95 624.927 1068.93 624.543 1069.15 624.252L1071.26 621.52C1071.63 621.04 1072.45 621.056 1072.79 621.55L1076.98 627.559C1077.23 627.917 1077.11 628.382 1076.71 628.617L1074.73 629.77C1074.35 629.995 1073.83 629.932 1073.53 629.624L1069.21 625.195Z" fill="url(#paint3_linear)"/>
<path d="M1071.73 630.281C1071.33 630.034 1071.23 629.559 1071.5 629.206L1072.53 627.875C1072.86 627.445 1073.57 627.403 1073.97 627.791L1077.64 631.397C1077.94 631.686 1077.95 632.116 1077.67 632.415L1077.28 632.82C1076.98 633.142 1076.44 633.204 1076.04 632.961L1071.73 630.281Z" fill="#0B053E"/>
<path d="M1071.73 630.281C1071.33 630.034 1071.23 629.559 1071.5 629.206L1072.53 627.875C1072.86 627.445 1073.57 627.403 1073.97 627.791L1077.64 631.397C1077.94 631.686 1077.95 632.116 1077.67 632.415L1077.28 632.82C1076.98 633.142 1076.44 633.204 1076.04 632.961L1071.73 630.281Z" fill="url(#paint4_linear)"/>
<path d="M1088.97 617.745C1089.09 617.374 1088.88 616.981 1088.47 616.816L1084.89 615.347C1084.4 615.148 1083.83 615.355 1083.65 615.792L1081.56 620.904C1081.39 621.304 1081.63 621.747 1082.08 621.905L1086.14 623.31C1086.64 623.483 1087.2 623.243 1087.35 622.793L1088.97 617.745Z" fill="#0B053E"/>
<path d="M1088.97 617.745C1089.09 617.374 1088.88 616.981 1088.47 616.816L1084.89 615.347C1084.4 615.148 1083.83 615.355 1083.65 615.792L1081.56 620.904C1081.39 621.304 1081.63 621.747 1082.08 621.905L1086.14 623.31C1086.64 623.483 1087.2 623.243 1087.35 622.793L1088.97 617.745Z" fill="url(#paint5_linear)"/>
<path d="M1088.39 611.374C1088.42 611.1 1088.28 610.833 1088.03 610.668L1084.01 608.063C1083.45 607.703 1082.66 607.989 1082.56 608.582L1081.26 616.808C1081.19 617.222 1081.51 617.61 1081.98 617.692L1086.64 618.503C1087.16 618.595 1087.67 618.271 1087.72 617.806L1088.39 611.374Z" fill="#0B053E"/>
<path d="M1088.39 611.374C1088.42 611.1 1088.28 610.833 1088.03 610.668L1084.01 608.063C1083.45 607.703 1082.66 607.989 1082.56 608.582L1081.26 616.808C1081.19 617.222 1081.51 617.61 1081.98 617.692L1086.64 618.503C1087.16 618.595 1087.67 618.271 1087.72 617.806L1088.39 611.374Z" fill="url(#paint6_linear)"/>
<path d="M1084.22 606.526L1078.56 602.856L1076.92 613.138L1082.18 614.211L1084.22 610.569L1084.22 606.526Z" fill="#0B053E"/>
<path d="M1084.22 606.526L1078.56 602.856L1076.92 613.138L1082.18 614.211L1084.22 610.569L1084.22 606.526Z" fill="url(#paint7_linear)"/>
<path d="M1084.26 606.892C1084.24 606.66 1084.1 606.448 1083.88 606.313L1081.53 604.86C1081.4 604.785 1081.31 604.685 1081.24 604.569L1079.99 602.404C1079.58 601.701 1078.37 601.884 1078.27 602.663L1077.01 612.441C1076.96 612.838 1077.26 613.207 1077.71 613.299L1081.53 614.078C1081.91 614.157 1082.31 614.011 1082.52 613.716L1084.47 610.864C1084.57 610.723 1084.61 610.56 1084.6 610.397L1084.26 606.892Z" fill="#0B053E"/>
<path d="M1084.26 606.892C1084.24 606.66 1084.1 606.448 1083.88 606.313L1081.53 604.86C1081.4 604.785 1081.31 604.685 1081.24 604.569L1079.99 602.404C1079.58 601.701 1078.37 601.884 1078.27 602.663L1077.01 612.441C1076.96 612.838 1077.26 613.207 1077.71 613.299L1081.53 614.078C1081.91 614.157 1082.31 614.011 1082.52 613.716L1084.47 610.864C1084.57 610.723 1084.61 610.56 1084.6 610.397L1084.26 606.892Z" fill="url(#paint8_linear)"/>
<path d="M1072.99 606.876C1072.99 606.623 1073.13 606.387 1073.37 606.24L1075.96 604.625C1076.09 604.549 1076.18 604.448 1076.25 604.33L1077.24 602.561C1077.63 601.852 1078.86 602.036 1078.97 602.821L1080.22 612.428C1080.27 612.825 1079.97 613.191 1079.52 613.279L1075.76 614.016C1075.35 614.097 1074.92 613.92 1074.74 613.59L1073.09 610.669C1073.03 610.562 1073 610.445 1073 610.326L1072.99 606.876Z" fill="#0B053E"/>
<path d="M1072.99 606.876C1072.99 606.623 1073.13 606.387 1073.37 606.24L1075.96 604.625C1076.09 604.549 1076.18 604.448 1076.25 604.33L1077.24 602.561C1077.63 601.852 1078.86 602.036 1078.97 602.821L1080.22 612.428C1080.27 612.825 1079.97 613.191 1079.52 613.279L1075.76 614.016C1075.35 614.097 1074.92 613.92 1074.74 613.59L1073.09 610.669C1073.03 610.562 1073 610.445 1073 610.326L1072.99 606.876Z" fill="url(#paint9_linear)"/>
<path d="M1088.37 625.271C1088.62 625.004 1088.65 624.622 1088.42 624.331L1086.36 621.615C1085.99 621.128 1085.16 621.141 1084.82 621.639L1080.7 627.639C1080.45 627.997 1080.57 628.462 1080.97 628.698L1082.9 629.842C1083.29 630.071 1083.81 630.009 1084.11 629.699L1088.37 625.271Z" fill="#0B053E"/>
<path d="M1088.37 625.271C1088.62 625.004 1088.65 624.622 1088.42 624.331L1086.36 621.615C1085.99 621.128 1085.16 621.141 1084.82 621.639L1080.7 627.639C1080.45 627.997 1080.57 628.462 1080.97 628.698L1082.9 629.842C1083.29 630.071 1083.81 630.009 1084.11 629.699L1088.37 625.271Z" fill="url(#paint10_linear)"/>
<path d="M1085.88 630.358C1086.28 630.111 1086.37 629.639 1086.1 629.286L1085.1 627.968C1084.77 627.532 1084.05 627.487 1083.66 627.879L1080.04 631.478C1079.75 631.766 1079.74 632.195 1080.02 632.494L1080.39 632.889C1080.7 633.216 1081.24 633.279 1081.63 633.034L1085.88 630.358Z" fill="#0B053E"/>
<path d="M1085.88 630.358C1086.28 630.111 1086.37 629.639 1086.1 629.286L1085.1 627.968C1084.77 627.532 1084.05 627.487 1083.66 627.879L1080.04 631.478C1079.75 631.766 1079.74 632.195 1080.02 632.494L1080.39 632.889C1080.7 633.216 1081.24 633.279 1081.63 633.034L1085.88 630.358Z" fill="url(#paint11_linear)"/>
<path d="M1078.54 600.091C1078.6 599.97 1078.8 599.97 1078.87 600.09L1082.73 607.131C1082.77 607.206 1082.73 607.295 1082.65 607.336L1078.28 609.473C1078.21 609.509 1078.12 609.496 1078.06 609.441L1075.14 606.633C1075.09 606.586 1075.08 606.518 1075.11 606.461L1078.54 600.091Z" fill="#0B053E"/>
<path d="M1078.54 600.091C1078.6 599.97 1078.8 599.97 1078.87 600.09L1082.73 607.131C1082.77 607.206 1082.73 607.295 1082.65 607.336L1078.28 609.473C1078.21 609.509 1078.12 609.496 1078.06 609.441L1075.14 606.633C1075.09 606.586 1075.08 606.518 1075.11 606.461L1078.54 600.091Z" fill="url(#paint12_linear)"/>
<path d="M1078.04 632.842H1079.32V638.824L1078.06 640L1078.04 632.842Z" fill="#0B053E"/>
<path d="M1078.04 632.842H1079.32V638.824L1078.06 640L1078.04 632.842Z" fill="url(#paint13_linear)"/>
<path d="M1045.71 619.305C1045.71 627.433 1042.57 634.023 1038.7 634.023C1034.83 634.023 1030.87 627.433 1030.87 619.305C1030.87 611.177 1034.83 604.588 1038.7 604.588C1042.57 604.588 1045.71 611.177 1045.71 619.305Z" fill="#0B053E"/>
<path d="M1045.71 619.305C1045.71 627.433 1042.57 634.023 1038.7 634.023C1034.83 634.023 1030.87 627.433 1030.87 619.305C1030.87 611.177 1034.83 604.588 1038.7 604.588C1042.57 604.588 1045.71 611.177 1045.71 619.305Z" fill="url(#paint14_linear)"/>
<path d="M1029.24 618.383C1029.18 618.128 1029.26 617.861 1029.47 617.672L1032.24 615.173C1032.7 614.754 1033.51 614.897 1033.75 615.44L1036.08 620.798C1036.26 621.208 1036.02 621.665 1035.54 621.815L1031.48 623.09C1030.97 623.253 1030.4 622.983 1030.28 622.518L1029.24 618.383Z" fill="#0B053E"/>
<path d="M1029.24 618.383C1029.18 618.128 1029.26 617.861 1029.47 617.672L1032.24 615.173C1032.7 614.754 1033.51 614.897 1033.75 615.44L1036.08 620.798C1036.26 621.208 1036.02 621.665 1035.54 621.815L1031.48 623.09C1030.97 623.253 1030.4 622.983 1030.28 622.518L1029.24 618.383Z" fill="url(#paint15_linear)"/>
<path d="M1029.64 610.569C1029.61 610.279 1029.77 609.999 1030.06 609.842L1033.68 607.844C1034.24 607.536 1034.98 607.831 1035.07 608.399L1036.42 616.781C1036.49 617.173 1036.2 617.545 1035.76 617.649L1031.47 618.661C1030.92 618.791 1030.37 618.457 1030.33 617.965L1029.64 610.569Z" fill="#0B053E"/>
<path d="M1029.64 610.569C1029.61 610.279 1029.77 609.999 1030.06 609.842L1033.68 607.844C1034.24 607.536 1034.98 607.831 1035.07 608.399L1036.42 616.781C1036.49 617.173 1036.2 617.545 1035.76 617.649L1031.47 618.661C1030.92 618.791 1030.37 618.457 1030.33 617.965L1029.64 610.569Z" fill="url(#paint16_linear)"/>
<path d="M1029.21 625.195C1028.95 624.927 1028.93 624.543 1029.15 624.252L1031.26 621.52C1031.63 621.04 1032.45 621.056 1032.79 621.55L1036.98 627.559C1037.23 627.917 1037.11 628.382 1036.71 628.617L1034.73 629.77C1034.35 629.995 1033.83 629.932 1033.53 629.624L1029.21 625.195Z" fill="#0B053E"/>
<path d="M1029.21 625.195C1028.95 624.927 1028.93 624.543 1029.15 624.252L1031.26 621.52C1031.63 621.04 1032.45 621.056 1032.79 621.55L1036.98 627.559C1037.23 627.917 1037.11 628.382 1036.71 628.617L1034.73 629.77C1034.35 629.995 1033.83 629.932 1033.53 629.624L1029.21 625.195Z" fill="url(#paint17_linear)"/>
<path d="M1031.73 630.281C1031.33 630.034 1031.23 629.559 1031.5 629.206L1032.53 627.875C1032.86 627.445 1033.57 627.403 1033.97 627.791L1037.64 631.397C1037.94 631.686 1037.95 632.116 1037.67 632.415L1037.28 632.82C1036.98 633.142 1036.44 633.204 1036.04 632.961L1031.73 630.281Z" fill="#0B053E"/>
<path d="M1031.73 630.281C1031.33 630.034 1031.23 629.559 1031.5 629.206L1032.53 627.875C1032.86 627.445 1033.57 627.403 1033.97 627.791L1037.64 631.397C1037.94 631.686 1037.95 632.116 1037.67 632.415L1037.28 632.82C1036.98 633.142 1036.44 633.204 1036.04 632.961L1031.73 630.281Z" fill="url(#paint18_linear)"/>
<path d="M1048.97 617.745C1049.09 617.374 1048.88 616.981 1048.47 616.816L1044.89 615.347C1044.4 615.148 1043.83 615.355 1043.65 615.792L1041.56 620.904C1041.39 621.304 1041.63 621.747 1042.08 621.905L1046.14 623.31C1046.64 623.483 1047.2 623.243 1047.35 622.793L1048.97 617.745Z" fill="#0B053E"/>
<path d="M1048.97 617.745C1049.09 617.374 1048.88 616.981 1048.47 616.816L1044.89 615.347C1044.4 615.148 1043.83 615.355 1043.65 615.792L1041.56 620.904C1041.39 621.304 1041.63 621.747 1042.08 621.905L1046.14 623.31C1046.64 623.483 1047.2 623.243 1047.35 622.793L1048.97 617.745Z" fill="url(#paint19_linear)"/>
<path d="M1048.39 611.374C1048.42 611.1 1048.28 610.833 1048.03 610.668L1044.01 608.063C1043.45 607.703 1042.66 607.989 1042.56 608.582L1041.26 616.808C1041.19 617.222 1041.51 617.61 1041.98 617.692L1046.64 618.503C1047.16 618.595 1047.67 618.271 1047.72 617.806L1048.39 611.374Z" fill="#0B053E"/>
<path d="M1048.39 611.374C1048.42 611.1 1048.28 610.833 1048.03 610.668L1044.01 608.063C1043.45 607.703 1042.66 607.989 1042.56 608.582L1041.26 616.808C1041.19 617.222 1041.51 617.61 1041.98 617.692L1046.64 618.503C1047.16 618.595 1047.67 618.271 1047.72 617.806L1048.39 611.374Z" fill="url(#paint20_linear)"/>
<path d="M1044.22 606.526L1038.56 602.856L1036.92 613.138L1042.18 614.211L1044.22 610.569L1044.22 606.526Z" fill="#0B053E"/>
<path d="M1044.22 606.526L1038.56 602.856L1036.92 613.138L1042.18 614.211L1044.22 610.569L1044.22 606.526Z" fill="url(#paint21_linear)"/>
<path d="M1044.26 606.892C1044.24 606.66 1044.1 606.448 1043.88 606.313L1041.53 604.86C1041.4 604.785 1041.31 604.685 1041.24 604.569L1039.99 602.404C1039.58 601.701 1038.37 601.884 1038.27 602.663L1037.01 612.441C1036.96 612.838 1037.26 613.207 1037.71 613.299L1041.53 614.078C1041.91 614.157 1042.31 614.011 1042.52 613.716L1044.47 610.864C1044.57 610.723 1044.61 610.56 1044.6 610.397L1044.26 606.892Z" fill="#0B053E"/>
<path d="M1044.26 606.892C1044.24 606.66 1044.1 606.448 1043.88 606.313L1041.53 604.86C1041.4 604.785 1041.31 604.685 1041.24 604.569L1039.99 602.404C1039.58 601.701 1038.37 601.884 1038.27 602.663L1037.01 612.441C1036.96 612.838 1037.26 613.207 1037.71 613.299L1041.53 614.078C1041.91 614.157 1042.31 614.011 1042.52 613.716L1044.47 610.864C1044.57 610.723 1044.61 610.56 1044.6 610.397L1044.26 606.892Z" fill="url(#paint22_linear)"/>
<path d="M1032.99 606.876C1032.99 606.623 1033.13 606.387 1033.37 606.24L1035.96 604.625C1036.09 604.549 1036.18 604.448 1036.25 604.33L1037.24 602.561C1037.63 601.852 1038.86 602.036 1038.97 602.821L1040.22 612.428C1040.27 612.825 1039.97 613.191 1039.52 613.279L1035.76 614.016C1035.35 614.097 1034.92 613.92 1034.74 613.59L1033.09 610.669C1033.03 610.562 1033 610.445 1033 610.326L1032.99 606.876Z" fill="#0B053E"/>
<path d="M1032.99 606.876C1032.99 606.623 1033.13 606.387 1033.37 606.24L1035.96 604.625C1036.09 604.549 1036.18 604.448 1036.25 604.33L1037.24 602.561C1037.63 601.852 1038.86 602.036 1038.97 602.821L1040.22 612.428C1040.27 612.825 1039.97 613.191 1039.52 613.279L1035.76 614.016C1035.35 614.097 1034.92 613.92 1034.74 613.59L1033.09 610.669C1033.03 610.562 1033 610.445 1033 610.326L1032.99 606.876Z" fill="url(#paint23_linear)"/>
<path d="M1048.37 625.271C1048.62 625.004 1048.65 624.622 1048.42 624.331L1046.36 621.615C1045.99 621.128 1045.16 621.141 1044.82 621.639L1040.7 627.639C1040.45 627.997 1040.57 628.462 1040.97 628.698L1042.9 629.842C1043.29 630.071 1043.81 630.009 1044.11 629.699L1048.37 625.271Z" fill="#0B053E"/>
<path d="M1048.37 625.271C1048.62 625.004 1048.65 624.622 1048.42 624.331L1046.36 621.615C1045.99 621.128 1045.16 621.141 1044.82 621.639L1040.7 627.639C1040.45 627.997 1040.57 628.462 1040.97 628.698L1042.9 629.842C1043.29 630.071 1043.81 630.009 1044.11 629.699L1048.37 625.271Z" fill="url(#paint24_linear)"/>
<path d="M1045.88 630.358C1046.28 630.111 1046.37 629.639 1046.1 629.286L1045.1 627.968C1044.77 627.532 1044.05 627.487 1043.66 627.879L1040.04 631.478C1039.75 631.766 1039.74 632.195 1040.02 632.494L1040.39 632.889C1040.7 633.216 1041.24 633.279 1041.63 633.034L1045.88 630.358Z" fill="#0B053E"/>
<path d="M1045.88 630.358C1046.28 630.111 1046.37 629.639 1046.1 629.286L1045.1 627.968C1044.77 627.532 1044.05 627.487 1043.66 627.879L1040.04 631.478C1039.75 631.766 1039.74 632.195 1040.02 632.494L1040.39 632.889C1040.7 633.216 1041.24 633.279 1041.63 633.034L1045.88 630.358Z" fill="url(#paint25_linear)"/>
<path d="M1038.54 600.091C1038.6 599.97 1038.8 599.97 1038.87 600.09L1042.73 607.131C1042.77 607.206 1042.73 607.295 1042.65 607.336L1038.28 609.473C1038.21 609.509 1038.12 609.496 1038.06 609.441L1035.14 606.633C1035.09 606.586 1035.08 606.518 1035.11 606.461L1038.54 600.091Z" fill="#0B053E"/>
<path d="M1038.54 600.091C1038.6 599.97 1038.8 599.97 1038.87 600.09L1042.73 607.131C1042.77 607.206 1042.73 607.295 1042.65 607.336L1038.28 609.473C1038.21 609.509 1038.12 609.496 1038.06 609.441L1035.14 606.633C1035.09 606.586 1035.08 606.518 1035.11 606.461L1038.54 600.091Z" fill="url(#paint26_linear)"/>
<path d="M1038.04 632.842H1039.32V638.824L1038.06 640L1038.04 632.842Z" fill="#0B053E"/>
<path d="M1038.04 632.842H1039.32V638.824L1038.06 640L1038.04 632.842Z" fill="url(#paint27_linear)"/>
<path d="M1005.71 619.305C1005.71 627.433 1002.57 634.023 998.7 634.023C994.828 634.023 990.869 627.433 990.869 619.305C990.869 611.177 994.828 604.588 998.7 604.588C1002.57 604.588 1005.71 611.177 1005.71 619.305Z" fill="#0B053E"/>
<path d="M1005.71 619.305C1005.71 627.433 1002.57 634.023 998.7 634.023C994.828 634.023 990.869 627.433 990.869 619.305C990.869 611.177 994.828 604.588 998.7 604.588C1002.57 604.588 1005.71 611.177 1005.71 619.305Z" fill="url(#paint28_linear)"/>
<path d="M989.241 618.383C989.177 618.128 989.264 617.861 989.473 617.672L992.236 615.173C992.699 614.754 993.51 614.897 993.747 615.44L996.08 620.798C996.259 621.208 996.016 621.665 995.539 621.815L991.484 623.09C990.966 623.253 990.4 622.983 990.283 622.518L989.241 618.383Z" fill="#0B053E"/>
<path d="M989.241 618.383C989.177 618.128 989.264 617.861 989.473 617.672L992.236 615.173C992.699 614.754 993.51 614.897 993.747 615.44L996.08 620.798C996.259 621.208 996.016 621.665 995.539 621.815L991.484 623.09C990.966 623.253 990.4 622.983 990.283 622.518L989.241 618.383Z" fill="url(#paint29_linear)"/>
<path d="M989.638 610.569C989.611 610.279 989.771 609.999 990.056 609.842L993.68 607.844C994.239 607.536 994.98 607.831 995.071 608.399L996.423 616.781C996.486 617.173 996.203 617.545 995.761 617.649L991.473 618.661C990.923 618.791 990.371 618.457 990.325 617.965L989.638 610.569Z" fill="#0B053E"/>
<path d="M989.638 610.569C989.611 610.279 989.771 609.999 990.056 609.842L993.68 607.844C994.239 607.536 994.98 607.831 995.071 608.399L996.423 616.781C996.486 617.173 996.203 617.545 995.761 617.649L991.473 618.661C990.923 618.791 990.371 618.457 990.325 617.965L989.638 610.569Z" fill="url(#paint30_linear)"/>
<path d="M989.214 625.195C988.953 624.927 988.928 624.543 989.153 624.252L991.256 621.52C991.626 621.04 992.45 621.056 992.794 621.55L996.98 627.559C997.23 627.917 997.111 628.382 996.709 628.617L994.735 629.77C994.349 629.995 993.828 629.932 993.528 629.624L989.214 625.195Z" fill="#0B053E"/>
<path d="M989.214 625.195C988.953 624.927 988.928 624.543 989.153 624.252L991.256 621.52C991.626 621.04 992.45 621.056 992.794 621.55L996.98 627.559C997.23 627.917 997.111 628.382 996.709 628.617L994.735 629.77C994.349 629.995 993.828 629.932 993.528 629.624L989.214 625.195Z" fill="url(#paint31_linear)"/>
<path d="M991.73 630.281C991.332 630.034 991.231 629.559 991.503 629.206L992.528 627.875C992.86 627.445 993.574 627.403 993.969 627.791L997.643 631.397C997.938 631.686 997.947 632.116 997.665 632.415L997.281 632.82C996.977 633.142 996.436 633.204 996.045 632.961L991.73 630.281Z" fill="#0B053E"/>
<path d="M991.73 630.281C991.332 630.034 991.231 629.559 991.503 629.206L992.528 627.875C992.86 627.445 993.574 627.403 993.969 627.791L997.643 631.397C997.938 631.686 997.947 632.116 997.665 632.415L997.281 632.82C996.977 633.142 996.436 633.204 996.045 632.961L991.73 630.281Z" fill="url(#paint32_linear)"/>
<path d="M1008.97 617.745C1009.09 617.374 1008.88 616.981 1008.47 616.816L1004.89 615.347C1004.4 615.148 1003.83 615.355 1003.65 615.792L1001.56 620.904C1001.39 621.304 1001.63 621.747 1002.08 621.905L1006.14 623.31C1006.64 623.483 1007.2 623.243 1007.35 622.793L1008.97 617.745Z" fill="#0B053E"/>
<path d="M1008.97 617.745C1009.09 617.374 1008.88 616.981 1008.47 616.816L1004.89 615.347C1004.4 615.148 1003.83 615.355 1003.65 615.792L1001.56 620.904C1001.39 621.304 1001.63 621.747 1002.08 621.905L1006.14 623.31C1006.64 623.483 1007.2 623.243 1007.35 622.793L1008.97 617.745Z" fill="url(#paint33_linear)"/>
<path d="M1008.39 611.374C1008.42 611.1 1008.28 610.833 1008.03 610.668L1004.01 608.063C1003.45 607.703 1002.66 607.989 1002.56 608.582L1001.26 616.808C1001.19 617.222 1001.51 617.61 1001.98 617.692L1006.64 618.503C1007.16 618.595 1007.67 618.271 1007.72 617.806L1008.39 611.374Z" fill="#0B053E"/>
<path d="M1008.39 611.374C1008.42 611.1 1008.28 610.833 1008.03 610.668L1004.01 608.063C1003.45 607.703 1002.66 607.989 1002.56 608.582L1001.26 616.808C1001.19 617.222 1001.51 617.61 1001.98 617.692L1006.64 618.503C1007.16 618.595 1007.67 618.271 1007.72 617.806L1008.39 611.374Z" fill="url(#paint34_linear)"/>
<path d="M1004.22 606.526L998.56 602.856L996.923 613.138L1002.18 614.211L1004.22 610.569L1004.22 606.526Z" fill="#0B053E"/>
<path d="M1004.22 606.526L998.56 602.856L996.923 613.138L1002.18 614.211L1004.22 610.569L1004.22 606.526Z" fill="url(#paint35_linear)"/>
<path d="M1004.26 606.892C1004.24 606.66 1004.1 606.448 1003.88 606.313L1001.53 604.86C1001.4 604.785 1001.31 604.685 1001.24 604.569L999.987 602.404C999.58 601.701 998.37 601.884 998.27 602.663L997.013 612.441C996.962 612.838 997.263 613.207 997.713 613.299L1001.53 614.078C1001.91 614.157 1002.31 614.011 1002.52 613.716L1004.47 610.864C1004.57 610.723 1004.61 610.56 1004.6 610.397L1004.26 606.892Z" fill="#0B053E"/>
<path d="M1004.26 606.892C1004.24 606.66 1004.1 606.448 1003.88 606.313L1001.53 604.86C1001.4 604.785 1001.31 604.685 1001.24 604.569L999.987 602.404C999.58 601.701 998.37 601.884 998.27 602.663L997.013 612.441C996.962 612.838 997.263 613.207 997.713 613.299L1001.53 614.078C1001.91 614.157 1002.31 614.011 1002.52 613.716L1004.47 610.864C1004.57 610.723 1004.61 610.56 1004.6 610.397L1004.26 606.892Z" fill="url(#paint36_linear)"/>
<path d="M992.989 606.876C992.988 606.623 993.128 606.387 993.365 606.24L995.964 604.625C996.086 604.549 996.185 604.448 996.25 604.33L997.237 602.561C997.633 601.852 998.863 602.036 998.965 602.821L1000.22 612.428C1000.27 612.825 999.974 613.191 999.523 613.279L995.763 614.016C995.349 614.097 994.924 613.92 994.737 613.59L993.089 610.669C993.029 610.562 992.997 610.445 992.997 610.326L992.989 606.876Z" fill="#0B053E"/>
<path d="M992.989 606.876C992.988 606.623 993.128 606.387 993.365 606.24L995.964 604.625C996.086 604.549 996.185 604.448 996.25 604.33L997.237 602.561C997.633 601.852 998.863 602.036 998.965 602.821L1000.22 612.428C1000.27 612.825 999.974 613.191 999.523 613.279L995.763 614.016C995.349 614.097 994.924 613.92 994.737 613.59L993.089 610.669C993.029 610.562 992.997 610.445 992.997 610.326L992.989 606.876Z" fill="url(#paint37_linear)"/>
<path d="M1008.37 625.271C1008.62 625.004 1008.65 624.622 1008.42 624.331L1006.36 621.615C1005.99 621.128 1005.16 621.141 1004.82 621.639L1000.7 627.639C1000.45 627.997 1000.57 628.462 1000.97 628.698L1002.9 629.842C1003.29 630.071 1003.81 630.009 1004.11 629.699L1008.37 625.271Z" fill="#0B053E"/>
<path d="M1008.37 625.271C1008.62 625.004 1008.65 624.622 1008.42 624.331L1006.36 621.615C1005.99 621.128 1005.16 621.141 1004.82 621.639L1000.7 627.639C1000.45 627.997 1000.57 628.462 1000.97 628.698L1002.9 629.842C1003.29 630.071 1003.81 630.009 1004.11 629.699L1008.37 625.271Z" fill="url(#paint38_linear)"/>
<path d="M1005.88 630.358C1006.28 630.111 1006.37 629.639 1006.1 629.286L1005.1 627.968C1004.77 627.532 1004.05 627.487 1003.66 627.879L1000.04 631.478C999.75 631.766 999.742 632.195 1000.02 632.494L1000.39 632.889C1000.7 633.216 1001.24 633.279 1001.63 633.034L1005.88 630.358Z" fill="#0B053E"/>
<path d="M1005.88 630.358C1006.28 630.111 1006.37 629.639 1006.1 629.286L1005.1 627.968C1004.77 627.532 1004.05 627.487 1003.66 627.879L1000.04 631.478C999.75 631.766 999.742 632.195 1000.02 632.494L1000.39 632.889C1000.7 633.216 1001.24 633.279 1001.63 633.034L1005.88 630.358Z" fill="url(#paint39_linear)"/>
<path d="M998.537 600.091C998.602 599.97 998.8 599.97 998.867 600.09L1002.73 607.131C1002.77 607.206 1002.73 607.295 1002.65 607.336L998.284 609.473C998.21 609.509 998.116 609.496 998.059 609.441L995.138 606.633C995.089 606.586 995.078 606.518 995.108 606.461L998.537 600.091Z" fill="#0B053E"/>
<path d="M998.537 600.091C998.602 599.97 998.8 599.97 998.867 600.09L1002.73 607.131C1002.77 607.206 1002.73 607.295 1002.65 607.336L998.284 609.473C998.21 609.509 998.116 609.496 998.059 609.441L995.138 606.633C995.089 606.586 995.078 606.518 995.108 606.461L998.537 600.091Z" fill="url(#paint40_linear)"/>
<path d="M998.041 632.842H999.316V638.824L998.059 640L998.041 632.842Z" fill="#0B053E"/>
<path d="M998.041 632.842H999.316V638.824L998.059 640L998.041 632.842Z" fill="url(#paint41_linear)"/>
<path d="M965.713 619.305C965.713 627.433 962.573 634.023 958.7 634.023C954.828 634.023 950.869 627.433 950.869 619.305C950.869 611.177 954.828 604.588 958.7 604.588C962.573 604.588 965.713 611.177 965.713 619.305Z" fill="#0B053E"/>
<path d="M965.713 619.305C965.713 627.433 962.573 634.023 958.7 634.023C954.828 634.023 950.869 627.433 950.869 619.305C950.869 611.177 954.828 604.588 958.7 604.588C962.573 604.588 965.713 611.177 965.713 619.305Z" fill="url(#paint42_linear)"/>
<path d="M949.241 618.383C949.177 618.128 949.264 617.861 949.473 617.672L952.236 615.173C952.699 614.754 953.51 614.897 953.747 615.44L956.08 620.798C956.259 621.208 956.016 621.665 955.539 621.815L951.484 623.09C950.966 623.253 950.4 622.983 950.283 622.518L949.241 618.383Z" fill="#0B053E"/>
<path d="M949.241 618.383C949.177 618.128 949.264 617.861 949.473 617.672L952.236 615.173C952.699 614.754 953.51 614.897 953.747 615.44L956.08 620.798C956.259 621.208 956.016 621.665 955.539 621.815L951.484 623.09C950.966 623.253 950.4 622.983 950.283 622.518L949.241 618.383Z" fill="url(#paint43_linear)"/>
<path d="M949.638 610.569C949.611 610.279 949.771 609.999 950.056 609.842L953.68 607.844C954.239 607.536 954.98 607.831 955.071 608.399L956.423 616.781C956.486 617.173 956.203 617.545 955.761 617.649L951.473 618.661C950.923 618.791 950.371 618.457 950.325 617.965L949.638 610.569Z" fill="#0B053E"/>
<path d="M949.638 610.569C949.611 610.279 949.771 609.999 950.056 609.842L953.68 607.844C954.239 607.536 954.98 607.831 955.071 608.399L956.423 616.781C956.486 617.173 956.203 617.545 955.761 617.649L951.473 618.661C950.923 618.791 950.371 618.457 950.325 617.965L949.638 610.569Z" fill="url(#paint44_linear)"/>
<path d="M949.214 625.195C948.953 624.927 948.928 624.543 949.153 624.252L951.256 621.52C951.626 621.04 952.45 621.056 952.794 621.55L956.98 627.559C957.23 627.917 957.111 628.382 956.709 628.617L954.735 629.77C954.349 629.995 953.828 629.932 953.528 629.624L949.214 625.195Z" fill="#0B053E"/>
<path d="M949.214 625.195C948.953 624.927 948.928 624.543 949.153 624.252L951.256 621.52C951.626 621.04 952.45 621.056 952.794 621.55L956.98 627.559C957.23 627.917 957.111 628.382 956.709 628.617L954.735 629.77C954.349 629.995 953.828 629.932 953.528 629.624L949.214 625.195Z" fill="url(#paint45_linear)"/>
<path d="M951.73 630.281C951.332 630.034 951.231 629.559 951.503 629.206L952.528 627.875C952.86 627.445 953.574 627.403 953.969 627.791L957.643 631.397C957.938 631.686 957.947 632.116 957.665 632.415L957.281 632.82C956.977 633.142 956.436 633.204 956.045 632.961L951.73 630.281Z" fill="#0B053E"/>
<path d="M951.73 630.281C951.332 630.034 951.231 629.559 951.503 629.206L952.528 627.875C952.86 627.445 953.574 627.403 953.969 627.791L957.643 631.397C957.938 631.686 957.947 632.116 957.665 632.415L957.281 632.82C956.977 633.142 956.436 633.204 956.045 632.961L951.73 630.281Z" fill="url(#paint46_linear)"/>
<path d="M968.967 617.745C969.086 617.374 968.877 616.981 968.475 616.816L964.888 615.347C964.402 615.148 963.828 615.355 963.649 615.792L961.559 620.904C961.395 621.304 961.627 621.747 962.083 621.905L966.141 623.31C966.643 623.483 967.204 623.243 967.348 622.793L968.967 617.745Z" fill="#0B053E"/>
<path d="M968.967 617.745C969.086 617.374 968.877 616.981 968.475 616.816L964.888 615.347C964.402 615.148 963.828 615.355 963.649 615.792L961.559 620.904C961.395 621.304 961.627 621.747 962.083 621.905L966.141 623.31C966.643 623.483 967.204 623.243 967.348 622.793L968.967 617.745Z" fill="url(#paint47_linear)"/>
<path d="M968.392 611.374C968.421 611.1 968.283 610.833 968.029 610.668L964.008 608.063C963.453 607.703 962.659 607.989 962.565 608.582L961.255 616.808C961.189 617.222 961.508 617.61 961.981 617.692L966.636 618.503C967.165 618.595 967.667 618.271 967.716 617.806L968.392 611.374Z" fill="#0B053E"/>
<path d="M968.392 611.374C968.421 611.1 968.283 610.833 968.029 610.668L964.008 608.063C963.453 607.703 962.659 607.989 962.565 608.582L961.255 616.808C961.189 617.222 961.508 617.61 961.981 617.692L966.636 618.503C967.165 618.595 967.667 618.271 967.716 617.806L968.392 611.374Z" fill="url(#paint48_linear)"/>
<path d="M964.224 606.526L958.56 602.856L956.923 613.138L962.176 614.211L964.224 610.569L964.224 606.526Z" fill="#0B053E"/>
<path d="M964.224 606.526L958.56 602.856L956.923 613.138L962.176 614.211L964.224 610.569L964.224 606.526Z" fill="url(#paint49_linear)"/>
<path d="M964.259 606.892C964.237 606.66 964.097 606.448 963.878 606.313L961.527 604.86C961.405 604.785 961.306 604.685 961.239 604.569L959.987 602.404C959.58 601.701 958.37 601.884 958.27 602.663L957.013 612.441C956.962 612.838 957.263 613.207 957.713 613.299L961.528 614.078C961.914 614.157 962.313 614.011 962.515 613.716L964.472 610.864C964.568 610.723 964.611 610.56 964.596 610.397L964.259 606.892Z" fill="#0B053E"/>
<path d="M964.259 606.892C964.237 606.66 964.097 606.448 963.878 606.313L961.527 604.86C961.405 604.785 961.306 604.685 961.239 604.569L959.987 602.404C959.58 601.701 958.37 601.884 958.27 602.663L957.013 612.441C956.962 612.838 957.263 613.207 957.713 613.299L961.528 614.078C961.914 614.157 962.313 614.011 962.515 613.716L964.472 610.864C964.568 610.723 964.611 610.56 964.596 610.397L964.259 606.892Z" fill="url(#paint50_linear)"/>
<path d="M952.989 606.876C952.988 606.623 953.128 606.387 953.365 606.24L955.964 604.625C956.086 604.549 956.185 604.448 956.25 604.33L957.237 602.561C957.633 601.852 958.863 602.036 958.965 602.821L960.223 612.428C960.275 612.825 959.974 613.191 959.523 613.279L955.763 614.016C955.349 614.097 954.924 613.92 954.737 613.59L953.089 610.669C953.029 610.562 952.997 610.445 952.997 610.326L952.989 606.876Z" fill="#0B053E"/>
<path d="M952.989 606.876C952.988 606.623 953.128 606.387 953.365 606.24L955.964 604.625C956.086 604.549 956.185 604.448 956.25 604.33L957.237 602.561C957.633 601.852 958.863 602.036 958.965 602.821L960.223 612.428C960.275 612.825 959.974 613.191 959.523 613.279L955.763 614.016C955.349 614.097 954.924 613.92 954.737 613.59L953.089 610.669C953.029 610.562 952.997 610.445 952.997 610.326L952.989 606.876Z" fill="url(#paint51_linear)"/>
<path d="M968.366 625.271C968.623 625.004 968.646 624.622 968.425 624.331L966.36 621.615C965.99 621.128 965.165 621.141 964.823 621.639L960.696 627.639C960.45 627.997 960.57 628.462 960.969 628.698L962.902 629.842C963.289 630.071 963.811 630.009 964.109 629.699L968.366 625.271Z" fill="#0B053E"/>
<path d="M968.366 625.271C968.623 625.004 968.646 624.622 968.425 624.331L966.36 621.615C965.99 621.128 965.165 621.141 964.823 621.639L960.696 627.639C960.45 627.997 960.57 628.462 960.969 628.698L962.902 629.842C963.289 630.071 963.811 630.009 964.109 629.699L968.366 625.271Z" fill="url(#paint52_linear)"/>
<path d="M965.884 630.358C966.276 630.111 966.373 629.639 966.105 629.286L965.103 627.968C964.771 627.532 964.054 627.487 963.66 627.879L960.04 631.478C959.75 631.766 959.742 632.195 960.021 632.494L960.39 632.889C960.695 633.216 961.24 633.279 961.63 633.034L965.884 630.358Z" fill="#0B053E"/>
<path d="M965.884 630.358C966.276 630.111 966.373 629.639 966.105 629.286L965.103 627.968C964.771 627.532 964.054 627.487 963.66 627.879L960.04 631.478C959.75 631.766 959.742 632.195 960.021 632.494L960.39 632.889C960.695 633.216 961.24 633.279 961.63 633.034L965.884 630.358Z" fill="url(#paint53_linear)"/>
<path d="M958.537 600.091C958.602 599.97 958.8 599.97 958.867 600.09L962.726 607.131C962.767 607.206 962.734 607.295 962.651 607.336L958.284 609.473C958.21 609.509 958.116 609.496 958.059 609.441L955.138 606.633C955.089 606.586 955.078 606.518 955.108 606.461L958.537 600.091Z" fill="#0B053E"/>
<path d="M958.537 600.091C958.602 599.97 958.8 599.97 958.867 600.09L962.726 607.131C962.767 607.206 962.734 607.295 962.651 607.336L958.284 609.473C958.21 609.509 958.116 609.496 958.059 609.441L955.138 606.633C955.089 606.586 955.078 606.518 955.108 606.461L958.537 600.091Z" fill="url(#paint54_linear)"/>
<path d="M958.041 632.842H959.316V638.824L958.059 640L958.041 632.842Z" fill="#0B053E"/>
<path d="M958.041 632.842H959.316V638.824L958.059 640L958.041 632.842Z" fill="url(#paint55_linear)"/>
<path d="M885.713 619.305C885.713 627.433 882.573 634.023 878.7 634.023C874.828 634.023 870.869 627.433 870.869 619.305C870.869 611.177 874.828 604.588 878.7 604.588C882.573 604.588 885.713 611.177 885.713 619.305Z" fill="#0B053E"/>
<path d="M885.713 619.305C885.713 627.433 882.573 634.023 878.7 634.023C874.828 634.023 870.869 627.433 870.869 619.305C870.869 611.177 874.828 604.588 878.7 604.588C882.573 604.588 885.713 611.177 885.713 619.305Z" fill="url(#paint56_linear)"/>
<path d="M869.241 618.383C869.177 618.128 869.264 617.861 869.473 617.672L872.236 615.173C872.699 614.754 873.51 614.897 873.747 615.44L876.08 620.798C876.259 621.208 876.016 621.665 875.539 621.815L871.484 623.09C870.966 623.253 870.4 622.983 870.283 622.518L869.241 618.383Z" fill="#0B053E"/>
<path d="M869.241 618.383C869.177 618.128 869.264 617.861 869.473 617.672L872.236 615.173C872.699 614.754 873.51 614.897 873.747 615.44L876.08 620.798C876.259 621.208 876.016 621.665 875.539 621.815L871.484 623.09C870.966 623.253 870.4 622.983 870.283 622.518L869.241 618.383Z" fill="url(#paint57_linear)"/>
<path d="M869.638 610.569C869.611 610.279 869.771 609.999 870.056 609.842L873.68 607.844C874.239 607.536 874.98 607.831 875.071 608.399L876.423 616.781C876.486 617.173 876.203 617.545 875.761 617.649L871.473 618.661C870.923 618.791 870.371 618.457 870.325 617.965L869.638 610.569Z" fill="#0B053E"/>
<path d="M869.638 610.569C869.611 610.279 869.771 609.999 870.056 609.842L873.68 607.844C874.239 607.536 874.98 607.831 875.071 608.399L876.423 616.781C876.486 617.173 876.203 617.545 875.761 617.649L871.473 618.661C870.923 618.791 870.371 618.457 870.325 617.965L869.638 610.569Z" fill="url(#paint58_linear)"/>
<path d="M869.214 625.195C868.953 624.927 868.928 624.543 869.153 624.252L871.256 621.52C871.626 621.04 872.45 621.056 872.794 621.55L876.98 627.559C877.23 627.917 877.111 628.382 876.709 628.617L874.735 629.77C874.349 629.995 873.828 629.932 873.528 629.624L869.214 625.195Z" fill="#0B053E"/>
<path d="M869.214 625.195C868.953 624.927 868.928 624.543 869.153 624.252L871.256 621.52C871.626 621.04 872.45 621.056 872.794 621.55L876.98 627.559C877.23 627.917 877.111 628.382 876.709 628.617L874.735 629.77C874.349 629.995 873.828 629.932 873.528 629.624L869.214 625.195Z" fill="url(#paint59_linear)"/>
<path d="M871.73 630.281C871.332 630.034 871.231 629.559 871.503 629.206L872.528 627.875C872.86 627.445 873.574 627.403 873.969 627.791L877.643 631.397C877.938 631.686 877.947 632.116 877.665 632.415L877.281 632.82C876.977 633.142 876.436 633.204 876.045 632.961L871.73 630.281Z" fill="#0B053E"/>
<path d="M871.73 630.281C871.332 630.034 871.231 629.559 871.503 629.206L872.528 627.875C872.86 627.445 873.574 627.403 873.969 627.791L877.643 631.397C877.938 631.686 877.947 632.116 877.665 632.415L877.281 632.82C876.977 633.142 876.436 633.204 876.045 632.961L871.73 630.281Z" fill="url(#paint60_linear)"/>
<path d="M888.967 617.745C889.086 617.374 888.877 616.981 888.475 616.816L884.888 615.347C884.402 615.148 883.828 615.355 883.649 615.792L881.559 620.904C881.395 621.304 881.627 621.747 882.083 621.905L886.141 623.31C886.643 623.483 887.204 623.243 887.348 622.793L888.967 617.745Z" fill="#0B053E"/>
<path d="M888.967 617.745C889.086 617.374 888.877 616.981 888.475 616.816L884.888 615.347C884.402 615.148 883.828 615.355 883.649 615.792L881.559 620.904C881.395 621.304 881.627 621.747 882.083 621.905L886.141 623.31C886.643 623.483 887.204 623.243 887.348 622.793L888.967 617.745Z" fill="url(#paint61_linear)"/>
<path d="M888.392 611.374C888.421 611.1 888.283 610.833 888.029 610.668L884.008 608.063C883.453 607.703 882.659 607.989 882.565 608.582L881.255 616.808C881.189 617.222 881.508 617.61 881.981 617.692L886.636 618.503C887.165 618.595 887.667 618.271 887.716 617.806L888.392 611.374Z" fill="#0B053E"/>
<path d="M888.392 611.374C888.421 611.1 888.283 610.833 888.029 610.668L884.008 608.063C883.453 607.703 882.659 607.989 882.565 608.582L881.255 616.808C881.189 617.222 881.508 617.61 881.981 617.692L886.636 618.503C887.165 618.595 887.667 618.271 887.716 617.806L888.392 611.374Z" fill="url(#paint62_linear)"/>
<path d="M884.224 606.526L878.56 602.856L876.923 613.138L882.176 614.211L884.224 610.569L884.224 606.526Z" fill="#0B053E"/>
<path d="M884.224 606.526L878.56 602.856L876.923 613.138L882.176 614.211L884.224 610.569L884.224 606.526Z" fill="url(#paint63_linear)"/>
<path d="M884.259 606.892C884.237 606.66 884.097 606.448 883.878 606.313L881.527 604.86C881.405 604.785 881.306 604.685 881.239 604.569L879.987 602.404C879.58 601.701 878.37 601.884 878.27 602.663L877.013 612.441C876.962 612.838 877.263 613.207 877.713 613.299L881.528 614.078C881.914 614.157 882.313 614.011 882.515 613.716L884.472 610.864C884.568 610.723 884.611 610.56 884.596 610.397L884.259 606.892Z" fill="#0B053E"/>
<path d="M884.259 606.892C884.237 606.66 884.097 606.448 883.878 606.313L881.527 604.86C881.405 604.785 881.306 604.685 881.239 604.569L879.987 602.404C879.58 601.701 878.37 601.884 878.27 602.663L877.013 612.441C876.962 612.838 877.263 613.207 877.713 613.299L881.528 614.078C881.914 614.157 882.313 614.011 882.515 613.716L884.472 610.864C884.568 610.723 884.611 610.56 884.596 610.397L884.259 606.892Z" fill="url(#paint64_linear)"/>
<path d="M872.989 606.876C872.988 606.623 873.128 606.387 873.365 606.24L875.964 604.625C876.086 604.549 876.185 604.448 876.25 604.33L877.237 602.561C877.633 601.852 878.863 602.036 878.965 602.821L880.223 612.428C880.275 612.825 879.974 613.191 879.523 613.279L875.763 614.016C875.349 614.097 874.924 613.92 874.737 613.59L873.089 610.669C873.029 610.562 872.997 610.445 872.997 610.326L872.989 606.876Z" fill="#0B053E"/>
<path d="M872.989 606.876C872.988 606.623 873.128 606.387 873.365 606.24L875.964 604.625C876.086 604.549 876.185 604.448 876.25 604.33L877.237 602.561C877.633 601.852 878.863 602.036 878.965 602.821L880.223 612.428C880.275 612.825 879.974 613.191 879.523 613.279L875.763 614.016C875.349 614.097 874.924 613.92 874.737 613.59L873.089 610.669C873.029 610.562 872.997 610.445 872.997 610.326L872.989 606.876Z" fill="url(#paint65_linear)"/>
<path d="M888.366 625.271C888.623 625.004 888.646 624.622 888.425 624.331L886.36 621.615C885.99 621.128 885.165 621.141 884.823 621.639L880.696 627.639C880.45 627.997 880.57 628.462 880.969 628.698L882.902 629.842C883.289 630.071 883.811 630.009 884.109 629.699L888.366 625.271Z" fill="#0B053E"/>
<path d="M888.366 625.271C888.623 625.004 888.646 624.622 888.425 624.331L886.36 621.615C885.99 621.128 885.165 621.141 884.823 621.639L880.696 627.639C880.45 627.997 880.57 628.462 880.969 628.698L882.902 629.842C883.289 630.071 883.811 630.009 884.109 629.699L888.366 625.271Z" fill="url(#paint66_linear)"/>
<path d="M885.884 630.358C886.276 630.111 886.373 629.639 886.105 629.286L885.103 627.968C884.771 627.532 884.054 627.487 883.66 627.879L880.04 631.478C879.75 631.766 879.742 632.195 880.021 632.494L880.39 632.889C880.695 633.216 881.24 633.279 881.63 633.034L885.884 630.358Z" fill="#0B053E"/>
<path d="M885.884 630.358C886.276 630.111 886.373 629.639 886.105 629.286L885.103 627.968C884.771 627.532 884.054 627.487 883.66 627.879L880.04 631.478C879.75 631.766 879.742 632.195 880.021 632.494L880.39 632.889C880.695 633.216 881.24 633.279 881.63 633.034L885.884 630.358Z" fill="url(#paint67_linear)"/>
<path d="M878.537 600.091C878.602 599.97 878.8 599.97 878.867 600.09L882.726 607.131C882.767 607.206 882.734 607.295 882.651 607.336L878.284 609.473C878.21 609.509 878.116 609.496 878.059 609.441L875.138 606.633C875.089 606.586 875.078 606.518 875.108 606.461L878.537 600.091Z" fill="#0B053E"/>
<path d="M878.537 600.091C878.602 599.97 878.8 599.97 878.867 600.09L882.726 607.131C882.767 607.206 882.734 607.295 882.651 607.336L878.284 609.473C878.21 609.509 878.116 609.496 878.059 609.441L875.138 606.633C875.089 606.586 875.078 606.518 875.108 606.461L878.537 600.091Z" fill="url(#paint68_linear)"/>
<path d="M878.041 632.842H879.316V638.824L878.059 640L878.041 632.842Z" fill="#0B053E"/>
<path d="M878.041 632.842H879.316V638.824L878.059 640L878.041 632.842Z" fill="url(#paint69_linear)"/>
<path d="M845.713 619.305C845.713 627.433 842.573 634.023 838.7 634.023C834.828 634.023 830.869 627.433 830.869 619.305C830.869 611.177 834.828 604.588 838.7 604.588C842.573 604.588 845.713 611.177 845.713 619.305Z" fill="#0B053E"/>
<path d="M845.713 619.305C845.713 627.433 842.573 634.023 838.7 634.023C834.828 634.023 830.869 627.433 830.869 619.305C830.869 611.177 834.828 604.588 838.7 604.588C842.573 604.588 845.713 611.177 845.713 619.305Z" fill="url(#paint70_linear)"/>
<path d="M829.241 618.383C829.177 618.128 829.264 617.861 829.473 617.672L832.236 615.173C832.699 614.754 833.51 614.897 833.747 615.44L836.08 620.798C836.259 621.208 836.016 621.665 835.539 621.815L831.484 623.09C830.966 623.253 830.4 622.983 830.283 622.518L829.241 618.383Z" fill="#0B053E"/>
<path d="M829.241 618.383C829.177 618.128 829.264 617.861 829.473 617.672L832.236 615.173C832.699 614.754 833.51 614.897 833.747 615.44L836.08 620.798C836.259 621.208 836.016 621.665 835.539 621.815L831.484 623.09C830.966 623.253 830.4 622.983 830.283 622.518L829.241 618.383Z" fill="url(#paint71_linear)"/>
<path d="M829.638 610.569C829.611 610.279 829.771 609.999 830.056 609.842L833.68 607.844C834.239 607.536 834.98 607.831 835.071 608.399L836.423 616.781C836.486 617.173 836.203 617.545 835.761 617.649L831.473 618.661C830.923 618.791 830.371 618.457 830.325 617.965L829.638 610.569Z" fill="#0B053E"/>
<path d="M829.638 610.569C829.611 610.279 829.771 609.999 830.056 609.842L833.68 607.844C834.239 607.536 834.98 607.831 835.071 608.399L836.423 616.781C836.486 617.173 836.203 617.545 835.761 617.649L831.473 618.661C830.923 618.791 830.371 618.457 830.325 617.965L829.638 610.569Z" fill="url(#paint72_linear)"/>
<path d="M829.214 625.195C828.953 624.927 828.928 624.543 829.153 624.252L831.256 621.52C831.626 621.04 832.45 621.056 832.794 621.55L836.98 627.559C837.23 627.917 837.111 628.382 836.709 628.617L834.735 629.77C834.349 629.995 833.828 629.932 833.528 629.624L829.214 625.195Z" fill="#0B053E"/>
<path d="M829.214 625.195C828.953 624.927 828.928 624.543 829.153 624.252L831.256 621.52C831.626 621.04 832.45 621.056 832.794 621.55L836.98 627.559C837.23 627.917 837.111 628.382 836.709 628.617L834.735 629.77C834.349 629.995 833.828 629.932 833.528 629.624L829.214 625.195Z" fill="url(#paint73_linear)"/>
<path d="M831.73 630.281C831.332 630.034 831.231 629.559 831.503 629.206L832.528 627.875C832.86 627.445 833.574 627.403 833.969 627.791L837.643 631.397C837.938 631.686 837.947 632.116 837.665 632.415L837.281 632.82C836.977 633.142 836.436 633.204 836.045 632.961L831.73 630.281Z" fill="#0B053E"/>
<path d="M831.73 630.281C831.332 630.034 831.231 629.559 831.503 629.206L832.528 627.875C832.86 627.445 833.574 627.403 833.969 627.791L837.643 631.397C837.938 631.686 837.947 632.116 837.665 632.415L837.281 632.82C836.977 633.142 836.436 633.204 836.045 632.961L831.73 630.281Z" fill="url(#paint74_linear)"/>
<path d="M848.967 617.745C849.086 617.374 848.877 616.981 848.475 616.816L844.888 615.347C844.402 615.148 843.828 615.355 843.649 615.792L841.559 620.904C841.395 621.304 841.627 621.747 842.083 621.905L846.141 623.31C846.643 623.483 847.204 623.243 847.348 622.793L848.967 617.745Z" fill="#0B053E"/>
<path d="M848.967 617.745C849.086 617.374 848.877 616.981 848.475 616.816L844.888 615.347C844.402 615.148 843.828 615.355 843.649 615.792L841.559 620.904C841.395 621.304 841.627 621.747 842.083 621.905L846.141 623.31C846.643 623.483 847.204 623.243 847.348 622.793L848.967 617.745Z" fill="url(#paint75_linear)"/>
<path d="M848.392 611.374C848.421 611.1 848.283 610.833 848.029 610.668L844.008 608.063C843.453 607.703 842.659 607.989 842.565 608.582L841.255 616.808C841.189 617.222 841.508 617.61 841.981 617.692L846.636 618.503C847.165 618.595 847.667 618.271 847.716 617.806L848.392 611.374Z" fill="#0B053E"/>
<path d="M848.392 611.374C848.421 611.1 848.283 610.833 848.029 610.668L844.008 608.063C843.453 607.703 842.659 607.989 842.565 608.582L841.255 616.808C841.189 617.222 841.508 617.61 841.981 617.692L846.636 618.503C847.165 618.595 847.667 618.271 847.716 617.806L848.392 611.374Z" fill="url(#paint76_linear)"/>
<path d="M844.224 606.526L838.56 602.856L836.923 613.138L842.176 614.211L844.224 610.569L844.224 606.526Z" fill="#0B053E"/>
<path d="M844.224 606.526L838.56 602.856L836.923 613.138L842.176 614.211L844.224 610.569L844.224 606.526Z" fill="url(#paint77_linear)"/>
<path d="M844.259 606.892C844.237 606.66 844.097 606.448 843.878 606.313L841.527 604.86C841.405 604.785 841.306 604.685 841.239 604.569L839.987 602.404C839.58 601.701 838.37 601.884 838.27 602.663L837.013 612.441C836.962 612.838 837.263 613.207 837.713 613.299L841.528 614.078C841.914 614.157 842.313 614.011 842.515 613.716L844.472 610.864C844.568 610.723 844.611 610.56 844.596 610.397L844.259 606.892Z" fill="#0B053E"/>
<path d="M844.259 606.892C844.237 606.66 844.097 606.448 843.878 606.313L841.527 604.86C841.405 604.785 841.306 604.685 841.239 604.569L839.987 602.404C839.58 601.701 838.37 601.884 838.27 602.663L837.013 612.441C836.962 612.838 837.263 613.207 837.713 613.299L841.528 614.078C841.914 614.157 842.313 614.011 842.515 613.716L844.472 610.864C844.568 610.723 844.611 610.56 844.596 610.397L844.259 606.892Z" fill="url(#paint78_linear)"/>
<path d="M832.989 606.876C832.988 606.623 833.128 606.387 833.365 606.24L835.964 604.625C836.086 604.549 836.185 604.448 836.25 604.33L837.237 602.561C837.633 601.852 838.863 602.036 838.965 602.821L840.223 612.428C840.275 612.825 839.974 613.191 839.523 613.279L835.763 614.016C835.349 614.097 834.924 613.92 834.737 613.59L833.089 610.669C833.029 610.562 832.997 610.445 832.997 610.326L832.989 606.876Z" fill="#0B053E"/>
<path d="M832.989 606.876C832.988 606.623 833.128 606.387 833.365 606.24L835.964 604.625C836.086 604.549 836.185 604.448 836.25 604.33L837.237 602.561C837.633 601.852 838.863 602.036 838.965 602.821L840.223 612.428C840.275 612.825 839.974 613.191 839.523 613.279L835.763 614.016C835.349 614.097 834.924 613.92 834.737 613.59L833.089 610.669C833.029 610.562 832.997 610.445 832.997 610.326L832.989 606.876Z" fill="url(#paint79_linear)"/>
<path d="M848.366 625.271C848.623 625.004 848.646 624.622 848.425 624.331L846.36 621.615C845.99 621.128 845.165 621.141 844.823 621.639L840.696 627.639C840.45 627.997 840.57 628.462 840.969 628.698L842.902 629.842C843.289 630.071 843.811 630.009 844.109 629.699L848.366 625.271Z" fill="#0B053E"/>
<path d="M848.366 625.271C848.623 625.004 848.646 624.622 848.425 624.331L846.36 621.615C845.99 621.128 845.165 621.141 844.823 621.639L840.696 627.639C840.45 627.997 840.57 628.462 840.969 628.698L842.902 629.842C843.289 630.071 843.811 630.009 844.109 629.699L848.366 625.271Z" fill="url(#paint80_linear)"/>
<path d="M845.884 630.358C846.276 630.111 846.373 629.639 846.105 629.286L845.103 627.968C844.771 627.532 844.054 627.487 843.66 627.879L840.04 631.478C839.75 631.766 839.742 632.195 840.021 632.494L840.39 632.889C840.695 633.216 841.24 633.279 841.63 633.034L845.884 630.358Z" fill="#0B053E"/>
<path d="M845.884 630.358C846.276 630.111 846.373 629.639 846.105 629.286L845.103 627.968C844.771 627.532 844.054 627.487 843.66 627.879L840.04 631.478C839.75 631.766 839.742 632.195 840.021 632.494L840.39 632.889C840.695 633.216 841.24 633.279 841.63 633.034L845.884 630.358Z" fill="url(#paint81_linear)"/>
<path d="M838.537 600.091C838.602 599.97 838.8 599.97 838.867 600.09L842.726 607.131C842.767 607.206 842.734 607.295 842.651 607.336L838.284 609.473C838.21 609.509 838.116 609.496 838.059 609.441L835.138 606.633C835.089 606.586 835.078 606.518 835.108 606.461L838.537 600.091Z" fill="#0B053E"/>
<path d="M838.537 600.091C838.602 599.97 838.8 599.97 838.867 600.09L842.726 607.131C842.767 607.206 842.734 607.295 842.651 607.336L838.284 609.473C838.21 609.509 838.116 609.496 838.059 609.441L835.138 606.633C835.089 606.586 835.078 606.518 835.108 606.461L838.537 600.091Z" fill="url(#paint82_linear)"/>
<path d="M838.041 632.842H839.316V638.824L838.059 640L838.041 632.842Z" fill="#0B053E"/>
<path d="M838.041 632.842H839.316V638.824L838.059 640L838.041 632.842Z" fill="url(#paint83_linear)"/>
<path d="M805.713 619.305C805.713 627.433 802.573 634.023 798.7 634.023C794.828 634.023 790.869 627.433 790.869 619.305C790.869 611.177 794.828 604.588 798.7 604.588C802.573 604.588 805.713 611.177 805.713 619.305Z" fill="#0B053E"/>
<path d="M805.713 619.305C805.713 627.433 802.573 634.023 798.7 634.023C794.828 634.023 790.869 627.433 790.869 619.305C790.869 611.177 794.828 604.588 798.7 604.588C802.573 604.588 805.713 611.177 805.713 619.305Z" fill="url(#paint84_linear)"/>
<path d="M789.241 618.383C789.177 618.128 789.264 617.861 789.473 617.672L792.236 615.173C792.699 614.754 793.51 614.897 793.747 615.44L796.08 620.798C796.259 621.208 796.016 621.665 795.539 621.815L791.484 623.09C790.966 623.253 790.4 622.983 790.283 622.518L789.241 618.383Z" fill="#0B053E"/>
<path d="M789.241 618.383C789.177 618.128 789.264 617.861 789.473 617.672L792.236 615.173C792.699 614.754 793.51 614.897 793.747 615.44L796.08 620.798C796.259 621.208 796.016 621.665 795.539 621.815L791.484 623.09C790.966 623.253 790.4 622.983 790.283 622.518L789.241 618.383Z" fill="url(#paint85_linear)"/>
<path d="M789.638 610.569C789.611 610.279 789.771 609.999 790.056 609.842L793.68 607.844C794.239 607.536 794.98 607.831 795.071 608.399L796.423 616.781C796.486 617.173 796.203 617.545 795.761 617.649L791.473 618.661C790.923 618.791 790.371 618.457 790.325 617.965L789.638 610.569Z" fill="#0B053E"/>
<path d="M789.638 610.569C789.611 610.279 789.771 609.999 790.056 609.842L793.68 607.844C794.239 607.536 794.98 607.831 795.071 608.399L796.423 616.781C796.486 617.173 796.203 617.545 795.761 617.649L791.473 618.661C790.923 618.791 790.371 618.457 790.325 617.965L789.638 610.569Z" fill="url(#paint86_linear)"/>
<path d="M789.214 625.195C788.953 624.927 788.928 624.543 789.153 624.252L791.256 621.52C791.626 621.04 792.45 621.056 792.794 621.55L796.98 627.559C797.23 627.917 797.111 628.382 796.709 628.617L794.735 629.77C794.349 629.995 793.828 629.932 793.528 629.624L789.214 625.195Z" fill="#0B053E"/>
<path d="M789.214 625.195C788.953 624.927 788.928 624.543 789.153 624.252L791.256 621.52C791.626 621.04 792.45 621.056 792.794 621.55L796.98 627.559C797.23 627.917 797.111 628.382 796.709 628.617L794.735 629.77C794.349 629.995 793.828 629.932 793.528 629.624L789.214 625.195Z" fill="url(#paint87_linear)"/>
<path d="M791.73 630.281C791.332 630.034 791.231 629.559 791.503 629.206L792.528 627.875C792.86 627.445 793.574 627.403 793.969 627.791L797.643 631.397C797.938 631.686 797.947 632.116 797.665 632.415L797.281 632.82C796.977 633.142 796.436 633.204 796.045 632.961L791.73 630.281Z" fill="#0B053E"/>
<path d="M791.73 630.281C791.332 630.034 791.231 629.559 791.503 629.206L792.528 627.875C792.86 627.445 793.574 627.403 793.969 627.791L797.643 631.397C797.938 631.686 797.947 632.116 797.665 632.415L797.281 632.82C796.977 633.142 796.436 633.204 796.045 632.961L791.73 630.281Z" fill="url(#paint88_linear)"/>
<path d="M808.967 617.745C809.086 617.374 808.877 616.981 808.475 616.816L804.888 615.347C804.402 615.148 803.828 615.355 803.649 615.792L801.559 620.904C801.395 621.304 801.627 621.747 802.083 621.905L806.141 623.31C806.643 623.483 807.204 623.243 807.348 622.793L808.967 617.745Z" fill="#0B053E"/>
<path d="M808.967 617.745C809.086 617.374 808.877 616.981 808.475 616.816L804.888 615.347C804.402 615.148 803.828 615.355 803.649 615.792L801.559 620.904C801.395 621.304 801.627 621.747 802.083 621.905L806.141 623.31C806.643 623.483 807.204 623.243 807.348 622.793L808.967 617.745Z" fill="url(#paint89_linear)"/>
<path d="M808.392 611.374C808.421 611.1 808.283 610.833 808.029 610.668L804.008 608.063C803.453 607.703 802.659 607.989 802.565 608.582L801.255 616.808C801.189 617.222 801.508 617.61 801.981 617.692L806.636 618.503C807.165 618.595 807.667 618.271 807.716 617.806L808.392 611.374Z" fill="#0B053E"/>
<path d="M808.392 611.374C808.421 611.1 808.283 610.833 808.029 610.668L804.008 608.063C803.453 607.703 802.659 607.989 802.565 608.582L801.255 616.808C801.189 617.222 801.508 617.61 801.981 617.692L806.636 618.503C807.165 618.595 807.667 618.271 807.716 617.806L808.392 611.374Z" fill="url(#paint90_linear)"/>
<path d="M804.224 606.526L798.56 602.856L796.923 613.138L802.176 614.211L804.224 610.569L804.224 606.526Z" fill="#0B053E"/>
<path d="M804.224 606.526L798.56 602.856L796.923 613.138L802.176 614.211L804.224 610.569L804.224 606.526Z" fill="url(#paint91_linear)"/>
<path d="M804.259 606.892C804.237 606.66 804.097 606.448 803.878 606.313L801.527 604.86C801.405 604.785 801.306 604.685 801.239 604.569L799.987 602.404C799.58 601.701 798.37 601.884 798.27 602.663L797.013 612.441C796.962 612.838 797.263 613.207 797.713 613.299L801.528 614.078C801.914 614.157 802.313 614.011 802.515 613.716L804.472 610.864C804.568 610.723 804.611 610.56 804.596 610.397L804.259 606.892Z" fill="#0B053E"/>
<path d="M804.259 606.892C804.237 606.66 804.097 606.448 803.878 606.313L801.527 604.86C801.405 604.785 801.306 604.685 801.239 604.569L799.987 602.404C799.58 601.701 798.37 601.884 798.27 602.663L797.013 612.441C796.962 612.838 797.263 613.207 797.713 613.299L801.528 614.078C801.914 614.157 802.313 614.011 802.515 613.716L804.472 610.864C804.568 610.723 804.611 610.56 804.596 610.397L804.259 606.892Z" fill="url(#paint92_linear)"/>
<path d="M792.989 606.876C792.988 606.623 793.128 606.387 793.365 606.24L795.964 604.625C796.086 604.549 796.185 604.448 796.25 604.33L797.237 602.561C797.633 601.852 798.863 602.036 798.965 602.821L800.223 612.428C800.275 612.825 799.974 613.191 799.523 613.279L795.763 614.016C795.349 614.097 794.924 613.92 794.737 613.59L793.089 610.669C793.029 610.562 792.997 610.445 792.997 610.326L792.989 606.876Z" fill="#0B053E"/>
<path d="M792.989 606.876C792.988 606.623 793.128 606.387 793.365 606.24L795.964 604.625C796.086 604.549 796.185 604.448 796.25 604.33L797.237 602.561C797.633 601.852 798.863 602.036 798.965 602.821L800.223 612.428C800.275 612.825 799.974 613.191 799.523 613.279L795.763 614.016C795.349 614.097 794.924 613.92 794.737 613.59L793.089 610.669C793.029 610.562 792.997 610.445 792.997 610.326L792.989 606.876Z" fill="url(#paint93_linear)"/>
<path d="M808.366 625.271C808.623 625.004 808.646 624.622 808.425 624.331L806.36 621.615C805.99 621.128 805.165 621.141 804.823 621.639L800.696 627.639C800.45 627.997 800.57 628.462 800.969 628.698L802.902 629.842C803.289 630.071 803.811 630.009 804.109 629.699L808.366 625.271Z" fill="#0B053E"/>
<path d="M808.366 625.271C808.623 625.004 808.646 624.622 808.425 624.331L806.36 621.615C805.99 621.128 805.165 621.141 804.823 621.639L800.696 627.639C800.45 627.997 800.57 628.462 800.969 628.698L802.902 629.842C803.289 630.071 803.811 630.009 804.109 629.699L808.366 625.271Z" fill="url(#paint94_linear)"/>
<path d="M805.884 630.358C806.276 630.111 806.373 629.639 806.105 629.286L805.103 627.968C804.771 627.532 804.054 627.487 803.66 627.879L800.04 631.478C799.75 631.766 799.742 632.195 800.021 632.494L800.39 632.889C800.695 633.216 801.24 633.279 801.63 633.034L805.884 630.358Z" fill="#0B053E"/>
<path d="M805.884 630.358C806.276 630.111 806.373 629.639 806.105 629.286L805.103 627.968C804.771 627.532 804.054 627.487 803.66 627.879L800.04 631.478C799.75 631.766 799.742 632.195 800.021 632.494L800.39 632.889C800.695 633.216 801.24 633.279 801.63 633.034L805.884 630.358Z" fill="url(#paint95_linear)"/>
<path d="M798.537 600.091C798.602 599.97 798.8 599.97 798.867 600.09L802.726 607.131C802.767 607.206 802.734 607.295 802.651 607.336L798.284 609.473C798.21 609.509 798.116 609.496 798.059 609.441L795.138 606.633C795.089 606.586 795.078 606.518 795.108 606.461L798.537 600.091Z" fill="#0B053E"/>
<path d="M798.537 600.091C798.602 599.97 798.8 599.97 798.867 600.09L802.726 607.131C802.767 607.206 802.734 607.295 802.651 607.336L798.284 609.473C798.21 609.509 798.116 609.496 798.059 609.441L795.138 606.633C795.089 606.586 795.078 606.518 795.108 606.461L798.537 600.091Z" fill="url(#paint96_linear)"/>
<path d="M798.041 632.842H799.316V638.824L798.059 640L798.041 632.842Z" fill="#0B053E"/>
<path d="M798.041 632.842H799.316V638.824L798.059 640L798.041 632.842Z" fill="url(#paint97_linear)"/>
<path d="M765.713 619.305C765.713 627.433 762.573 634.023 758.7 634.023C754.828 634.023 750.869 627.433 750.869 619.305C750.869 611.177 754.828 604.588 758.7 604.588C762.573 604.588 765.713 611.177 765.713 619.305Z" fill="#0B053E"/>
<path d="M765.713 619.305C765.713 627.433 762.573 634.023 758.7 634.023C754.828 634.023 750.869 627.433 750.869 619.305C750.869 611.177 754.828 604.588 758.7 604.588C762.573 604.588 765.713 611.177 765.713 619.305Z" fill="url(#paint98_linear)"/>
<path d="M749.241 618.383C749.177 618.128 749.264 617.861 749.473 617.672L752.236 615.173C752.699 614.754 753.51 614.897 753.747 615.44L756.08 620.798C756.259 621.208 756.016 621.665 755.539 621.815L751.484 623.09C750.966 623.253 750.4 622.983 750.283 622.518L749.241 618.383Z" fill="#0B053E"/>
<path d="M749.241 618.383C749.177 618.128 749.264 617.861 749.473 617.672L752.236 615.173C752.699 614.754 753.51 614.897 753.747 615.44L756.08 620.798C756.259 621.208 756.016 621.665 755.539 621.815L751.484 623.09C750.966 623.253 750.4 622.983 750.283 622.518L749.241 618.383Z" fill="url(#paint99_linear)"/>
<path d="M749.638 610.569C749.611 610.279 749.771 609.999 750.056 609.842L753.68 607.844C754.239 607.536 754.98 607.831 755.071 608.399L756.423 616.781C756.486 617.173 756.203 617.545 755.761 617.649L751.473 618.661C750.923 618.791 750.371 618.457 750.325 617.965L749.638 610.569Z" fill="#0B053E"/>
<path d="M749.638 610.569C749.611 610.279 749.771 609.999 750.056 609.842L753.68 607.844C754.239 607.536 754.98 607.831 755.071 608.399L756.423 616.781C756.486 617.173 756.203 617.545 755.761 617.649L751.473 618.661C750.923 618.791 750.371 618.457 750.325 617.965L749.638 610.569Z" fill="url(#paint100_linear)"/>
<path d="M749.214 625.195C748.953 624.927 748.928 624.543 749.153 624.252L751.256 621.52C751.626 621.04 752.45 621.056 752.794 621.55L756.98 627.559C757.23 627.917 757.111 628.382 756.709 628.617L754.735 629.77C754.349 629.995 753.828 629.932 753.528 629.624L749.214 625.195Z" fill="#0B053E"/>
<path d="M749.214 625.195C748.953 624.927 748.928 624.543 749.153 624.252L751.256 621.52C751.626 621.04 752.45 621.056 752.794 621.55L756.98 627.559C757.23 627.917 757.111 628.382 756.709 628.617L754.735 629.77C754.349 629.995 753.828 629.932 753.528 629.624L749.214 625.195Z" fill="url(#paint101_linear)"/>
<path d="M751.73 630.281C751.332 630.034 751.231 629.559 751.503 629.206L752.528 627.875C752.86 627.445 753.574 627.403 753.969 627.791L757.643 631.397C757.938 631.686 757.947 632.116 757.665 632.415L757.281 632.82C756.977 633.142 756.436 633.204 756.045 632.961L751.73 630.281Z" fill="#0B053E"/>
<path d="M751.73 630.281C751.332 630.034 751.231 629.559 751.503 629.206L752.528 627.875C752.86 627.445 753.574 627.403 753.969 627.791L757.643 631.397C757.938 631.686 757.947 632.116 757.665 632.415L757.281 632.82C756.977 633.142 756.436 633.204 756.045 632.961L751.73 630.281Z" fill="url(#paint102_linear)"/>
<path d="M768.967 617.745C769.086 617.374 768.877 616.981 768.475 616.816L764.888 615.347C764.402 615.148 763.828 615.355 763.649 615.792L761.559 620.904C761.395 621.304 761.627 621.747 762.083 621.905L766.141 623.31C766.643 623.483 767.204 623.243 767.348 622.793L768.967 617.745Z" fill="#0B053E"/>
<path d="M768.967 617.745C769.086 617.374 768.877 616.981 768.475 616.816L764.888 615.347C764.402 615.148 763.828 615.355 763.649 615.792L761.559 620.904C761.395 621.304 761.627 621.747 762.083 621.905L766.141 623.31C766.643 623.483 767.204 623.243 767.348 622.793L768.967 617.745Z" fill="url(#paint103_linear)"/>
<path d="M768.392 611.374C768.421 611.1 768.283 610.833 768.029 610.668L764.008 608.063C763.453 607.703 762.659 607.989 762.565 608.582L761.255 616.808C761.189 617.222 761.508 617.61 761.981 617.692L766.636 618.503C767.165 618.595 767.667 618.271 767.716 617.806L768.392 611.374Z" fill="#0B053E"/>
<path d="M768.392 611.374C768.421 611.1 768.283 610.833 768.029 610.668L764.008 608.063C763.453 607.703 762.659 607.989 762.565 608.582L761.255 616.808C761.189 617.222 761.508 617.61 761.981 617.692L766.636 618.503C767.165 618.595 767.667 618.271 767.716 617.806L768.392 611.374Z" fill="url(#paint104_linear)"/>
<path d="M764.224 606.526L758.56 602.856L756.923 613.138L762.176 614.211L764.224 610.569L764.224 606.526Z" fill="#0B053E"/>
<path d="M764.224 606.526L758.56 602.856L756.923 613.138L762.176 614.211L764.224 610.569L764.224 606.526Z" fill="url(#paint105_linear)"/>
<path d="M764.259 606.892C764.237 606.66 764.097 606.448 763.878 606.313L761.527 604.86C761.405 604.785 761.306 604.685 761.239 604.569L759.987 602.404C759.58 601.701 758.37 601.884 758.27 602.663L757.013 612.441C756.962 612.838 757.263 613.207 757.713 613.299L761.528 614.078C761.914 614.157 762.313 614.011 762.515 613.716L764.472 610.864C764.568 610.723 764.611 610.56 764.596 610.397L764.259 606.892Z" fill="#0B053E"/>
<path d="M764.259 606.892C764.237 606.66 764.097 606.448 763.878 606.313L761.527 604.86C761.405 604.785 761.306 604.685 761.239 604.569L759.987 602.404C759.58 601.701 758.37 601.884 758.27 602.663L757.013 612.441C756.962 612.838 757.263 613.207 757.713 613.299L761.528 614.078C761.914 614.157 762.313 614.011 762.515 613.716L764.472 610.864C764.568 610.723 764.611 610.56 764.596 610.397L764.259 606.892Z" fill="url(#paint106_linear)"/>
<path d="M752.989 606.876C752.988 606.623 753.128 606.387 753.365 606.24L755.964 604.625C756.086 604.549 756.185 604.448 756.25 604.33L757.237 602.561C757.633 601.852 758.863 602.036 758.965 602.821L760.223 612.428C760.275 612.825 759.974 613.191 759.523 613.279L755.763 614.016C755.349 614.097 754.924 613.92 754.737 613.59L753.089 610.669C753.029 610.562 752.997 610.445 752.997 610.326L752.989 606.876Z" fill="#0B053E"/>
<path d="M752.989 606.876C752.988 606.623 753.128 606.387 753.365 606.24L755.964 604.625C756.086 604.549 756.185 604.448 756.25 604.33L757.237 602.561C757.633 601.852 758.863 602.036 758.965 602.821L760.223 612.428C760.275 612.825 759.974 613.191 759.523 613.279L755.763 614.016C755.349 614.097 754.924 613.92 754.737 613.59L753.089 610.669C753.029 610.562 752.997 610.445 752.997 610.326L752.989 606.876Z" fill="url(#paint107_linear)"/>
<path d="M768.366 625.271C768.623 625.004 768.646 624.622 768.425 624.331L766.36 621.615C765.99 621.128 765.165 621.141 764.823 621.639L760.696 627.639C760.45 627.997 760.57 628.462 760.969 628.698L762.902 629.842C763.289 630.071 763.811 630.009 764.109 629.699L768.366 625.271Z" fill="#0B053E"/>
<path d="M768.366 625.271C768.623 625.004 768.646 624.622 768.425 624.331L766.36 621.615C765.99 621.128 765.165 621.141 764.823 621.639L760.696 627.639C760.45 627.997 760.57 628.462 760.969 628.698L762.902 629.842C763.289 630.071 763.811 630.009 764.109 629.699L768.366 625.271Z" fill="url(#paint108_linear)"/>
<path d="M765.884 630.358C766.276 630.111 766.373 629.639 766.105 629.286L765.103 627.968C764.771 627.532 764.054 627.487 763.66 627.879L760.04 631.478C759.75 631.766 759.742 632.195 760.021 632.494L760.39 632.889C760.695 633.216 761.24 633.279 761.63 633.034L765.884 630.358Z" fill="#0B053E"/>
<path d="M765.884 630.358C766.276 630.111 766.373 629.639 766.105 629.286L765.103 627.968C764.771 627.532 764.054 627.487 763.66 627.879L760.04 631.478C759.75 631.766 759.742 632.195 760.021 632.494L760.39 632.889C760.695 633.216 761.24 633.279 761.63 633.034L765.884 630.358Z" fill="url(#paint109_linear)"/>
<path d="M758.537 600.091C758.602 599.97 758.8 599.97 758.867 600.09L762.726 607.131C762.767 607.206 762.734 607.295 762.651 607.336L758.284 609.473C758.21 609.509 758.116 609.496 758.059 609.441L755.138 606.633C755.089 606.586 755.078 606.518 755.108 606.461L758.537 600.091Z" fill="#0B053E"/>
<path d="M758.537 600.091C758.602 599.97 758.8 599.97 758.867 600.09L762.726 607.131C762.767 607.206 762.734 607.295 762.651 607.336L758.284 609.473C758.21 609.509 758.116 609.496 758.059 609.441L755.138 606.633C755.089 606.586 755.078 606.518 755.108 606.461L758.537 600.091Z" fill="url(#paint110_linear)"/>
<path d="M758.041 632.842H759.316V638.824L758.059 640L758.041 632.842Z" fill="#0B053E"/>
<path d="M758.041 632.842H759.316V638.824L758.059 640L758.041 632.842Z" fill="url(#paint111_linear)"/>
<rect x="901" y="629" width="39" height="9" fill="#7F4051"/>
<path d="M903 621C903 619.343 904.343 618 906 618H935C936.657 618 938 619.343 938 621V629H903V621Z" fill="#F9F9F9" fill-opacity="0.44"/>
<path d="M908.832 615.25C908.832 612.489 911.071 610.25 913.832 610.25H927.374C930.135 610.25 932.374 612.489 932.374 615.25V619.625H908.832V615.25Z" fill="#F9F9F9" fill-opacity="0.44"/>
<path d="M911 609C911 606.239 913.239 604 916 604H925C927.761 604 930 606.239 930 609V611H911V609Z" fill="#F9F9F9" fill-opacity="0.44"/>
<path d="M906.125 618.168H935.292C935.292 618.168 934.039 621.455 932.271 622.543C928.208 625.043 925.264 625.06 920.604 625.043C916.024 625.026 913 625.043 909.146 622.543C907.404 621.413 906.125 618.168 906.125 618.168Z" fill="#7F4051"/>
<path d="M911.957 610.875H929.249C929.249 610.875 928.506 612.866 927.458 613.526C925.049 615.04 923.304 615.051 920.541 615.04C917.826 615.03 916.033 615.04 913.748 613.526C912.715 612.841 911.957 610.875 911.957 610.875Z" fill="#7F4051"/>
<path d="M914.668 604.834H926.543C926.543 604.834 926.033 606.228 925.313 606.689C923.659 607.75 922.46 607.757 920.563 607.75C918.698 607.742 917.467 607.75 915.898 606.689C915.189 606.21 914.668 604.834 914.668 604.834Z" fill="#7F4051"/>
<rect x="919.668" y="607.75" width="2.08334" height="21.2501" fill="#7F4051"/>
<rect x="1316.36" y="587.131" width="251.087" height="15.2174" fill="#F9DFCE"/>
<rect x="1282.12" y="606.152" width="320.516" height="39.9457" fill="#F9DFCE"/>
<path fill-rule="evenodd" clip-rule="evenodd" d="M1416.19 648V646.806H1274.52V610.982L1265 608.593V606.205L1297.14 599.04H1303.1V590.681L1295.95 587.099V585.905L1336.43 576.352H1413.81V570.381H1422.14V566.798H1413.81V564.41L1425.71 560.828H1417.38V558.439L1429.29 553.663H1422.14V550.08L1440 540.527L1457.86 550.08V553.663H1450.71L1462.62 558.439V560.828H1454.29L1466.19 564.41V566.798H1457.86V570.381H1466.19V576.352H1543.57L1584.05 585.905V587.099L1576.9 590.681V599.04H1582.86L1615 606.205V608.593L1605.48 610.982V646.806H1463.81V648H1416.19ZM1420.95 640.835V625.311H1460.24V640.835H1420.95ZM1481.67 609.788V616.355H1490V609.788H1481.67ZM1481.67 639.044V624.714C1481.67 624.714 1482.26 622.326 1485.83 622.326C1489.4 622.326 1490 624.714 1490 624.714V639.044H1481.67ZM1391.19 608.593V615.161H1399.52V608.593H1391.19ZM1399.52 637.85H1391.19V623.52C1391.19 623.52 1391.79 621.132 1395.36 621.132C1398.93 621.132 1399.52 623.52 1399.52 623.52V637.85ZM1373.33 608.593V615.161H1381.67V608.593H1373.33ZM1381.67 637.85H1373.33V623.52C1373.33 623.52 1373.93 621.132 1377.5 621.132C1381.07 621.132 1381.67 623.52 1381.67 623.52V637.85ZM1355.48 608.593V615.161H1363.81V608.593H1355.48ZM1363.81 637.85H1355.48V623.52C1355.48 623.52 1356.07 621.132 1359.64 621.132C1363.21 621.132 1363.81 623.52 1363.81 623.52V637.85ZM1337.62 608.593V615.161H1345.95V608.593H1337.62ZM1345.95 637.85H1337.62V623.52C1337.62 623.52 1338.21 621.132 1341.79 621.132C1345.36 621.132 1345.95 623.52 1345.95 623.52V637.85ZM1319.76 608.593V615.161H1328.1V608.593H1319.76ZM1328.1 637.85H1319.76V623.52C1319.76 623.52 1320.36 621.132 1323.93 621.132C1327.5 621.132 1328.1 623.52 1328.1 623.52V637.85ZM1301.9 608.593V615.161H1310.24V608.593H1301.9ZM1310.24 637.85H1301.9V623.52C1301.9 623.52 1302.5 621.132 1306.07 621.132C1309.64 621.132 1310.24 623.52 1310.24 623.52V637.85ZM1284.05 608.593V615.161H1292.38V608.593H1284.05ZM1425.71 598.443V591.875H1434.05V598.443H1425.71ZM1407.86 591.875V598.443H1416.19V591.875H1407.86ZM1390 598.443V591.875H1398.33V598.443H1390ZM1372.14 591.875V598.443H1380.48V591.875H1372.14ZM1354.29 598.443V591.875H1362.62V598.443H1354.29ZM1336.43 591.875V598.443H1344.76V591.875H1336.43ZM1318.57 598.443V591.875H1326.9V598.443H1318.57ZM1553.1 591.875V598.443H1561.43V591.875H1553.1ZM1535.24 598.443V591.875H1543.57V598.443H1535.24ZM1517.38 591.875V598.443H1525.71V591.875H1517.38ZM1499.52 598.443V591.875H1507.86V598.443H1499.52ZM1481.67 591.875V598.443H1490V591.875H1481.67ZM1463.81 598.443V591.875H1472.14V598.443H1463.81ZM1445.95 591.875V598.443H1454.29V591.875H1445.95ZM1292.38 637.85H1284.05V623.52C1284.05 623.52 1284.64 621.132 1288.21 621.132C1291.79 621.132 1292.38 623.52 1292.38 623.52V637.85ZM1499.52 609.788V616.355H1507.86V609.788H1499.52ZM1499.52 639.044V624.714C1499.52 624.714 1500.12 622.326 1503.69 622.326C1507.26 622.326 1507.86 624.714 1507.86 624.714V639.044H1499.52ZM1517.38 609.788V616.355H1525.71V609.788H1517.38ZM1517.38 639.044V624.714C1517.38 624.714 1517.98 622.326 1521.55 622.326C1525.12 622.326 1525.71 624.714 1525.71 624.714V639.044H1517.38ZM1535.24 609.788V616.355H1543.57V609.788H1535.24ZM1535.24 639.044V624.714C1535.24 624.714 1535.83 622.326 1539.4 622.326C1542.98 622.326 1543.57 624.714 1543.57 624.714V639.044H1535.24ZM1553.1 609.788V616.355H1561.43V609.788H1553.1ZM1553.1 639.044V624.714C1553.1 624.714 1553.69 622.326 1557.26 622.326C1560.83 622.326 1561.43 624.714 1561.43 624.714V639.044H1553.1ZM1570.95 609.788V616.355H1579.29V609.788H1570.95ZM1570.95 639.044V624.714C1570.95 624.714 1571.55 622.326 1575.12 622.326C1578.69 622.326 1579.29 624.714 1579.29 624.714V639.044H1570.95ZM1588.81 609.788V616.355H1597.14V609.788H1588.81ZM1588.81 639.044V624.714C1588.81 624.714 1589.4 622.326 1592.98 622.326C1596.55 622.326 1597.14 624.714 1597.14 624.714V639.044H1588.81ZM1461.43 645.612V643.224H1418.57V645.612H1461.43Z" fill="#6B3249"/>
<path d="M1717.76 628.698L1721.94 623L1726.12 628.698H1724.6L1729.54 635.725H1728.4L1732.77 642.372H1731.63L1735.62 649.019H1733.91L1739.22 656.711H1737.42L1741.88 664.403H1702L1706.46 656.711H1705.04L1710.17 649.019H1708.27L1712.26 642.372H1711.12L1715.48 635.725H1714.34L1719.28 628.698H1717.76Z" fill="#7F4051"/>
<rect x="1719.85" y="664.402" width="4.55814" height="7.5969" fill="#7F4051"/>
<path d="M1772.65 628.698L1776.82 623L1781 628.698H1779.48L1784.42 635.725H1783.28L1787.65 642.372H1786.51L1790.5 649.019H1788.79L1794.11 656.711H1792.3L1796.77 664.403H1756.88L1761.35 656.711H1759.92L1765.05 649.019H1763.15L1767.14 642.372H1766L1770.37 635.725H1769.23L1774.17 628.698H1772.65Z" fill="#7F4051"/>
<rect x="1774.73" y="664.402" width="4.55814" height="7.5969" fill="#7F4051"/>
<path d="M1827.53 628.698L1831.71 623L1835.89 628.698H1834.37L1839.3 635.725H1838.16L1842.53 642.372H1841.39L1845.38 649.019H1843.67L1848.99 656.711H1847.19L1851.65 664.403H1811.77L1816.23 656.711H1814.8L1819.93 649.019H1818.03L1822.02 642.372H1820.88L1825.25 635.725H1824.11L1829.05 628.698H1827.53Z" fill="#7F4051"/>
<rect x="1829.62" y="664.402" width="4.55814" height="7.5969" fill="#7F4051"/>
<path d="M1882.41 628.698L1886.59 623L1890.77 628.698H1889.25L1894.19 635.725H1893.05L1897.42 642.372H1896.28L1900.26 649.019H1898.56L1903.87 656.711H1902.07L1906.53 664.403H1866.65L1871.11 656.711H1869.69L1874.82 649.019H1872.92L1876.9 642.372H1875.76L1880.13 635.725H1878.99L1883.93 628.698H1882.41Z" fill="#7F4051"/>
<rect x="1884.5" y="664.402" width="4.55814" height="7.5969" fill="#7F4051"/>
<rect x="1171.28" y="500.758" width="18.2069" height="145.241" fill="#6B3249"/>
<rect x="1189.48" y="500.758" width="3.31034" height="145.241" fill="#7F4051"/>
<rect x="1167.96" y="500.758" width="3.31034" height="145.241" fill="#7F4051"/>
<rect x="1168.79" y="474.275" width="22.7586" height="21.931" fill="#6B3249"/>
<rect x="1165.89" y="474.275" width="2.89655" height="21.931" fill="#7F4051"/>
<rect x="1191.55" y="474.275" width="2.89655" height="21.931" fill="#7F4051"/>
<rect x="1165.9" y="496.207" width="28.5517" height="2.48276" fill="#4F2941"/>
<rect x="1165.9" y="471.793" width="28.5517" height="2.48276" fill="#4F2941"/>
<path d="M1165.9 498.689H1194.45L1192.79 500.758H1167.97L1165.9 498.689Z" fill="#4F2941"/>
<path d="M1197.55 471.793H1163L1180.38 454L1197.55 471.793Z" fill="#602A40"/>
<circle cx="1180.38" cy="485.449" r="7.03448" fill="#EFEEEE"/>
<rect x="1180.38" y="478.828" width="0.413793" height="1.24138" fill="#602A40"/>
<rect x="1180.38" y="490.828" width="0.413793" height="1.24138" fill="#602A40"/>
<rect x="1187" y="485.449" width="0.413793" height="1.24138" transform="rotate(90 1187 485.449)" fill="#602A40"/>
<rect x="1175" y="485.449" width="0.413793" height="1.24138" transform="rotate(90 1175 485.449)" fill="#602A40"/>
<path d="M1180.59 480.689V485.862H1184.1" stroke="#4F2941"/>
<path d="M1176.66 534.07C1176.66 531.899 1178.42 530.139 1180.59 530.139C1182.76 530.139 1184.52 531.899 1184.52 534.07V547.932H1176.66V534.07Z" fill="#F9DFCE"/>
<rect width="4" height="44" transform="matrix(-1 0 0 1 132 602)" fill="#7F4051"/>
<rect width="10" height="2.93333" transform="matrix(-1 0 0 1 128 602)" fill="#7F4051"/>
<path d="M111 646L121 602H118L108 646H111Z" fill="#7F4051"/>
<rect x="401" y="602" width="4" height="44" fill="#7F4051"/>
<rect x="405" y="602" width="10" height="2.93333" fill="#7F4051"/>
<path d="M422 646L412 602H415L425 646H422Z" fill="#7F4051"/>
<rect x="523" y="595" width="36" height="40" fill="#F9DFCE"/>
<rect x="562" y="585" width="55" height="62" fill="#F9DFCE"/>
<rect x="619" y="595" width="36" height="40" fill="#F9DFCE"/>
<path fill-rule="evenodd" clip-rule="evenodd" d="M519.452 646.692V593.615L516 591.308V587.846H558.579V583.231L552.825 579.769V575.154H570.087L589.075 559L606.913 575.154H625.325V579.769L619.571 583.231V587.846H661V591.308L657.548 593.615V646.692H618.421V649H559.73V646.692H519.452ZM574.69 637.462V613.231H603.46V637.462H574.69ZM562.032 586.692V608.615H573.54V586.692H562.032ZM579.294 608.615V586.692H598.857V608.615H579.294ZM616.119 586.692H604.611V608.615H616.119V586.692ZM605.762 639.769V642.077H572.389V639.769H605.762ZM608.063 646.692V644.385H570.087V646.692H608.063ZM525.206 617.846H533.262V634H525.206V617.846ZM545.921 617.846H537.865V634H545.921V617.846ZM550.524 617.846H558.579V634H550.524V617.846ZM627.627 617.846H619.571V634H627.627V617.846ZM632.23 617.846H640.286V634H632.23V617.846ZM652.944 617.846H644.889V634H652.944V617.846ZM619.571 595.923H627.627V612.077H619.571V595.923ZM640.286 595.923H632.23V612.077H640.286V595.923ZM644.889 595.923H652.944V612.077H644.889V595.923ZM533.262 595.923H525.206V612.077H533.262V595.923ZM537.865 595.923H545.921V612.077H537.865V595.923ZM558.579 595.923H550.524V612.077H558.579V595.923Z" fill="#6B3249"/>
</g>
<defs>
<linearGradient id="paint0_linear" x1="1079" y1="600" x2="1079" y2="638.824" gradientUnits="userSpaceOnUse">
<stop stop-color="#092158"/>
<stop offset="1" stop-color="#0B053E"/>
</linearGradient>
<linearGradient id="paint1_linear" x1="1079" y1="600" x2="1079" y2="638.824" gradientUnits="userSpaceOnUse">
<stop stop-color="#092158"/>
<stop offset="1" stop-color="#0B053E"/>
</linearGradient>
<linearGradient id="paint2_linear" x1="1079" y1="600" x2="1079" y2="638.824" gradientUnits="userSpaceOnUse">
<stop stop-color="#092158"/>
<stop offset="1" stop-color="#0B053E"/>
</linearGradient>
<linearGradient id="paint3_linear" x1="1079" y1="600" x2="1079" y2="638.824" gradientUnits="userSpaceOnUse">
<stop stop-color="#092158"/>
<stop offset="1" stop-color="#0B053E"/>
</linearGradient>
<linearGradient id="paint4_linear" x1="1079" y1="600" x2="1079" y2="638.824" gradientUnits="userSpaceOnUse">
<stop stop-color="#092158"/>
<stop offset="1" stop-color="#0B053E"/>
</linearGradient>
<linearGradient id="paint5_linear" x1="1079" y1="600" x2="1079" y2="638.824" gradientUnits="userSpaceOnUse">
<stop stop-color="#092158"/>
<stop offset="1" stop-color="#0B053E"/>
</linearGradient>
<linearGradient id="paint6_linear" x1="1079" y1="600" x2="1079" y2="638.824" gradientUnits="userSpaceOnUse">
<stop stop-color="#092158"/>
<stop offset="1" stop-color="#0B053E"/>
</linearGradient>
<linearGradient id="paint7_linear" x1="1079" y1="600" x2="1079" y2="638.824" gradientUnits="userSpaceOnUse">
<stop stop-color="#092158"/>
<stop offset="1" stop-color="#0B053E"/>
</linearGradient>
<linearGradient id="paint8_linear" x1="1079" y1="600" x2="1079" y2="638.824" gradientUnits="userSpaceOnUse">
<stop stop-color="#092158"/>
<stop offset="1" stop-color="#0B053E"/>
</linearGradient>
<linearGradient id="paint9_linear" x1="1079" y1="600" x2="1079" y2="638.824" gradientUnits="userSpaceOnUse">
<stop stop-color="#092158"/>
<stop offset="1" stop-color="#0B053E"/>
</linearGradient>
<linearGradient id="paint10_linear" x1="1079" y1="600" x2="1079" y2="638.824" gradientUnits="userSpaceOnUse">
<stop stop-color="#092158"/>
<stop offset="1" stop-color="#0B053E"/>
</linearGradient>
<linearGradient id="paint11_linear" x1="1079" y1="600" x2="1079" y2="638.824" gradientUnits="userSpaceOnUse">
<stop stop-color="#092158"/>
<stop offset="1" stop-color="#0B053E"/>
</linearGradient>
<linearGradient id="paint12_linear" x1="1079" y1="600" x2="1079" y2="638.824" gradientUnits="userSpaceOnUse">
<stop stop-color="#092158"/>
<stop offset="1" stop-color="#0B053E"/>
</linearGradient>
<linearGradient id="paint13_linear" x1="1079" y1="600" x2="1079" y2="638.824" gradientUnits="userSpaceOnUse">
<stop stop-color="#092158"/>
<stop offset="1" stop-color="#0B053E"/>
</linearGradient>
<linearGradient id="paint14_linear" x1="1039" y1="600" x2="1039" y2="638.824" gradientUnits="userSpaceOnUse">
<stop stop-color="#092158"/>
<stop offset="1" stop-color="#0B053E"/>
</linearGradient>
<linearGradient id="paint15_linear" x1="1039" y1="600" x2="1039" y2="638.824" gradientUnits="userSpaceOnUse">
<stop stop-color="#092158"/>
<stop offset="1" stop-color="#0B053E"/>
</linearGradient>
<linearGradient id="paint16_linear" x1="1039" y1="600" x2="1039" y2="638.824" gradientUnits="userSpaceOnUse">
<stop stop-color="#092158"/>
<stop offset="1" stop-color="#0B053E"/>
</linearGradient>
<linearGradient id="paint17_linear" x1="1039" y1="600" x2="1039" y2="638.824" gradientUnits="userSpaceOnUse">
<stop stop-color="#092158"/>
<stop offset="1" stop-color="#0B053E"/>
</linearGradient>
<linearGradient id="paint18_linear" x1="1039" y1="600" x2="1039" y2="638.824" gradientUnits="userSpaceOnUse">
<stop stop-color="#092158"/>
<stop offset="1" stop-color="#0B053E"/>
</linearGradient>
<linearGradient id="paint19_linear" x1="1039" y1="600" x2="1039" y2="638.824" gradientUnits="userSpaceOnUse">
<stop stop-color="#092158"/>
<stop offset="1" stop-color="#0B053E"/>
</linearGradient>
<linearGradient id="paint20_linear" x1="1039" y1="600" x2="1039" y2="638.824" gradientUnits="userSpaceOnUse">
<stop stop-color="#092158"/>
<stop offset="1" stop-color="#0B053E"/>
</linearGradient>
<linearGradient id="paint21_linear" x1="1039" y1="600" x2="1039" y2="638.824" gradientUnits="userSpaceOnUse">
<stop stop-color="#092158"/>
<stop offset="1" stop-color="#0B053E"/>
</linearGradient>
<linearGradient id="paint22_linear" x1="1039" y1="600" x2="1039" y2="638.824" gradientUnits="userSpaceOnUse">
<stop stop-color="#092158"/>
<stop offset="1" stop-color="#0B053E"/>
</linearGradient>
<linearGradient id="paint23_linear" x1="1039" y1="600" x2="1039" y2="638.824" gradientUnits="userSpaceOnUse">
<stop stop-color="#092158"/>
<stop offset="1" stop-color="#0B053E"/>
</linearGradient>
<linearGradient id="paint24_linear" x1="1039" y1="600" x2="1039" y2="638.824" gradientUnits="userSpaceOnUse">
<stop stop-color="#092158"/>
<stop offset="1" stop-color="#0B053E"/>
</linearGradient>
<linearGradient id="paint25_linear" x1="1039" y1="600" x2="1039" y2="638.824" gradientUnits="userSpaceOnUse">
<stop stop-color="#092158"/>
<stop offset="1" stop-color="#0B053E"/>
</linearGradient>
<linearGradient id="paint26_linear" x1="1039" y1="600" x2="1039" y2="638.824" gradientUnits="userSpaceOnUse">
<stop stop-color="#092158"/>
<stop offset="1" stop-color="#0B053E"/>
</linearGradient>
<linearGradient id="paint27_linear" x1="1039" y1="600" x2="1039" y2="638.824" gradientUnits="userSpaceOnUse">
<stop stop-color="#092158"/>
<stop offset="1" stop-color="#0B053E"/>
</linearGradient>
<linearGradient id="paint28_linear" x1="999" y1="600" x2="999" y2="638.824" gradientUnits="userSpaceOnUse">
<stop stop-color="#092158"/>
<stop offset="1" stop-color="#0B053E"/>
</linearGradient>
<linearGradient id="paint29_linear" x1="999" y1="600" x2="999" y2="638.824" gradientUnits="userSpaceOnUse">
<stop stop-color="#092158"/>
<stop offset="1" stop-color="#0B053E"/>
</linearGradient>
<linearGradient id="paint30_linear" x1="999" y1="600" x2="999" y2="638.824" gradientUnits="userSpaceOnUse">
<stop stop-color="#092158"/>
<stop offset="1" stop-color="#0B053E"/>
</linearGradient>
<linearGradient id="paint31_linear" x1="999" y1="600" x2="999" y2="638.824" gradientUnits="userSpaceOnUse">
<stop stop-color="#092158"/>
<stop offset="1" stop-color="#0B053E"/>
</linearGradient>
<linearGradient id="paint32_linear" x1="999" y1="600" x2="999" y2="638.824" gradientUnits="userSpaceOnUse">
<stop stop-color="#092158"/>
<stop offset="1" stop-color="#0B053E"/>
</linearGradient>
<linearGradient id="paint33_linear" x1="999" y1="600" x2="999" y2="638.824" gradientUnits="userSpaceOnUse">
<stop stop-color="#092158"/>
<stop offset="1" stop-color="#0B053E"/>
</linearGradient>
<linearGradient id="paint34_linear" x1="999" y1="600" x2="999" y2="638.824" gradientUnits="userSpaceOnUse">
<stop stop-color="#092158"/>
<stop offset="1" stop-color="#0B053E"/>
</linearGradient>
<linearGradient id="paint35_linear" x1="999" y1="600" x2="999" y2="638.824" gradientUnits="userSpaceOnUse">
<stop stop-color="#092158"/>
<stop offset="1" stop-color="#0B053E"/>
</linearGradient>
<linearGradient id="paint36_linear" x1="999" y1="600" x2="999" y2="638.824" gradientUnits="userSpaceOnUse">
<stop stop-color="#092158"/>
<stop offset="1" stop-color="#0B053E"/>
</linearGradient>
<linearGradient id="paint37_linear" x1="999" y1="600" x2="999" y2="638.824" gradientUnits="userSpaceOnUse">
<stop stop-color="#092158"/>
<stop offset="1" stop-color="#0B053E"/>
</linearGradient>
<linearGradient id="paint38_linear" x1="999" y1="600" x2="999" y2="638.824" gradientUnits="userSpaceOnUse">
<stop stop-color="#092158"/>
<stop offset="1" stop-color="#0B053E"/>
</linearGradient>
<linearGradient id="paint39_linear" x1="999" y1="600" x2="999" y2="638.824" gradientUnits="userSpaceOnUse">
<stop stop-color="#092158"/>
<stop offset="1" stop-color="#0B053E"/>
</linearGradient>
<linearGradient id="paint40_linear" x1="999" y1="600" x2="999" y2="638.824" gradientUnits="userSpaceOnUse">
<stop stop-color="#092158"/>
<stop offset="1" stop-color="#0B053E"/>
</linearGradient>
<linearGradient id="paint41_linear" x1="999" y1="600" x2="999" y2="638.824" gradientUnits="userSpaceOnUse">
<stop stop-color="#092158"/>
<stop offset="1" stop-color="#0B053E"/>
</linearGradient>
<linearGradient id="paint42_linear" x1="959" y1="600" x2="959" y2="638.824" gradientUnits="userSpaceOnUse">
<stop stop-color="#092158"/>
<stop offset="1" stop-color="#0B053E"/>
</linearGradient>
<linearGradient id="paint43_linear" x1="959" y1="600" x2="959" y2="638.824" gradientUnits="userSpaceOnUse">
<stop stop-color="#092158"/>
<stop offset="1" stop-color="#0B053E"/>
</linearGradient>
<linearGradient id="paint44_linear" x1="959" y1="600" x2="959" y2="638.824" gradientUnits="userSpaceOnUse">
<stop stop-color="#092158"/>
<stop offset="1" stop-color="#0B053E"/>
</linearGradient>
<linearGradient id="paint45_linear" x1="959" y1="600" x2="959" y2="638.824" gradientUnits="userSpaceOnUse">
<stop stop-color="#092158"/>
<stop offset="1" stop-color="#0B053E"/>
</linearGradient>
<linearGradient id="paint46_linear" x1="959" y1="600" x2="959" y2="638.824" gradientUnits="userSpaceOnUse">
<stop stop-color="#092158"/>
<stop offset="1" stop-color="#0B053E"/>
</linearGradient>
<linearGradient id="paint47_linear" x1="959" y1="600" x2="959" y2="638.824" gradientUnits="userSpaceOnUse">
<stop stop-color="#092158"/>
<stop offset="1" stop-color="#0B053E"/>
</linearGradient>
<linearGradient id="paint48_linear" x1="959" y1="600" x2="959" y2="638.824" gradientUnits="userSpaceOnUse">
<stop stop-color="#092158"/>
<stop offset="1" stop-color="#0B053E"/>
</linearGradient>
<linearGradient id="paint49_linear" x1="959" y1="600" x2="959" y2="638.824" gradientUnits="userSpaceOnUse">
<stop stop-color="#092158"/>
<stop offset="1" stop-color="#0B053E"/>
</linearGradient>
<linearGradient id="paint50_linear" x1="959" y1="600" x2="959" y2="638.824" gradientUnits="userSpaceOnUse">
<stop stop-color="#092158"/>
<stop offset="1" stop-color="#0B053E"/>
</linearGradient>
<linearGradient id="paint51_linear" x1="959" y1="600" x2="959" y2="638.824" gradientUnits="userSpaceOnUse">
<stop stop-color="#092158"/>
<stop offset="1" stop-color="#0B053E"/>
</linearGradient>
<linearGradient id="paint52_linear" x1="959" y1="600" x2="959" y2="638.824" gradientUnits="userSpaceOnUse">
<stop stop-color="#092158"/>
<stop offset="1" stop-color="#0B053E"/>
</linearGradient>
<linearGradient id="paint53_linear" x1="959" y1="600" x2="959" y2="638.824" gradientUnits="userSpaceOnUse">
<stop stop-color="#092158"/>
<stop offset="1" stop-color="#0B053E"/>
</linearGradient>
<linearGradient id="paint54_linear" x1="959" y1="600" x2="959" y2="638.824" gradientUnits="userSpaceOnUse">
<stop stop-color="#092158"/>
<stop offset="1" stop-color="#0B053E"/>
</linearGradient>
<linearGradient id="paint55_linear" x1="959" y1="600" x2="959" y2="638.824" gradientUnits="userSpaceOnUse">
<stop stop-color="#092158"/>
<stop offset="1" stop-color="#0B053E"/>
</linearGradient>
<linearGradient id="paint56_linear" x1="879" y1="600" x2="879" y2="638.824" gradientUnits="userSpaceOnUse">
<stop stop-color="#092158"/>
<stop offset="1" stop-color="#0B053E"/>
</linearGradient>
<linearGradient id="paint57_linear" x1="879" y1="600" x2="879" y2="638.824" gradientUnits="userSpaceOnUse">
<stop stop-color="#092158"/>
<stop offset="1" stop-color="#0B053E"/>
</linearGradient>
<linearGradient id="paint58_linear" x1="879" y1="600" x2="879" y2="638.824" gradientUnits="userSpaceOnUse">
<stop stop-color="#092158"/>
<stop offset="1" stop-color="#0B053E"/>
</linearGradient>
<linearGradient id="paint59_linear" x1="879" y1="600" x2="879" y2="638.824" gradientUnits="userSpaceOnUse">
<stop stop-color="#092158"/>
<stop offset="1" stop-color="#0B053E"/>
</linearGradient>
<linearGradient id="paint60_linear" x1="879" y1="600" x2="879" y2="638.824" gradientUnits="userSpaceOnUse">
<stop stop-color="#092158"/>
<stop offset="1" stop-color="#0B053E"/>
</linearGradient>
<linearGradient id="paint61_linear" x1="879" y1="600" x2="879" y2="638.824" gradientUnits="userSpaceOnUse">
<stop stop-color="#092158"/>
<stop offset="1" stop-color="#0B053E"/>
</linearGradient>
<linearGradient id="paint62_linear" x1="879" y1="600" x2="879" y2="638.824" gradientUnits="userSpaceOnUse">
<stop stop-color="#092158"/>
<stop offset="1" stop-color="#0B053E"/>
</linearGradient>
<linearGradient id="paint63_linear" x1="879" y1="600" x2="879" y2="638.824" gradientUnits="userSpaceOnUse">
<stop stop-color="#092158"/>
<stop offset="1" stop-color="#0B053E"/>
</linearGradient>
<linearGradient id="paint64_linear" x1="879" y1="600" x2="879" y2="638.824" gradientUnits="userSpaceOnUse">
<stop stop-color="#092158"/>
<stop offset="1" stop-color="#0B053E"/>
</linearGradient>
<linearGradient id="paint65_linear" x1="879" y1="600" x2="879" y2="638.824" gradientUnits="userSpaceOnUse">
<stop stop-color="#092158"/>
<stop offset="1" stop-color="#0B053E"/>
</linearGradient>
<linearGradient id="paint66_linear" x1="879" y1="600" x2="879" y2="638.824" gradientUnits="userSpaceOnUse">
<stop stop-color="#092158"/>
<stop offset="1" stop-color="#0B053E"/>
</linearGradient>
<linearGradient id="paint67_linear" x1="879" y1="600" x2="879" y2="638.824" gradientUnits="userSpaceOnUse">
<stop stop-color="#092158"/>
<stop offset="1" stop-color="#0B053E"/>
</linearGradient>
<linearGradient id="paint68_linear" x1="879" y1="600" x2="879" y2="638.824" gradientUnits="userSpaceOnUse">
<stop stop-color="#092158"/>
<stop offset="1" stop-color="#0B053E"/>
</linearGradient>
<linearGradient id="paint69_linear" x1="879" y1="600" x2="879" y2="638.824" gradientUnits="userSpaceOnUse">
<stop stop-color="#092158"/>
<stop offset="1" stop-color="#0B053E"/>
</linearGradient>
<linearGradient id="paint70_linear" x1="839" y1="600" x2="839" y2="638.824" gradientUnits="userSpaceOnUse">
<stop stop-color="#092158"/>
<stop offset="1" stop-color="#0B053E"/>
</linearGradient>
<linearGradient id="paint71_linear" x1="839" y1="600" x2="839" y2="638.824" gradientUnits="userSpaceOnUse">
<stop stop-color="#092158"/>
<stop offset="1" stop-color="#0B053E"/>
</linearGradient>
<linearGradient id="paint72_linear" x1="839" y1="600" x2="839" y2="638.824" gradientUnits="userSpaceOnUse">
<stop stop-color="#092158"/>
<stop offset="1" stop-color="#0B053E"/>
</linearGradient>
<linearGradient id="paint73_linear" x1="839" y1="600" x2="839" y2="638.824" gradientUnits="userSpaceOnUse">
<stop stop-color="#092158"/>
<stop offset="1" stop-color="#0B053E"/>
</linearGradient>
<linearGradient id="paint74_linear" x1="839" y1="600" x2="839" y2="638.824" gradientUnits="userSpaceOnUse">
<stop stop-color="#092158"/>
<stop offset="1" stop-color="#0B053E"/>
</linearGradient>
<linearGradient id="paint75_linear" x1="839" y1="600" x2="839" y2="638.824" gradientUnits="userSpaceOnUse">
<stop stop-color="#092158"/>
<stop offset="1" stop-color="#0B053E"/>
</linearGradient>
<linearGradient id="paint76_linear" x1="839" y1="600" x2="839" y2="638.824" gradientUnits="userSpaceOnUse">
<stop stop-color="#092158"/>
<stop offset="1" stop-color="#0B053E"/>
</linearGradient>
<linearGradient id="paint77_linear" x1="839" y1="600" x2="839" y2="638.824" gradientUnits="userSpaceOnUse">
<stop stop-color="#092158"/>
<stop offset="1" stop-color="#0B053E"/>
</linearGradient>
<linearGradient id="paint78_linear" x1="839" y1="600" x2="839" y2="638.824" gradientUnits="userSpaceOnUse">
<stop stop-color="#092158"/>
<stop offset="1" stop-color="#0B053E"/>
</linearGradient>
<linearGradient id="paint79_linear" x1="839" y1="600" x2="839" y2="638.824" gradientUnits="userSpaceOnUse">
<stop stop-color="#092158"/>
<stop offset="1" stop-color="#0B053E"/>
</linearGradient>
<linearGradient id="paint80_linear" x1="839" y1="600" x2="839" y2="638.824" gradientUnits="userSpaceOnUse">
<stop stop-color="#092158"/>
<stop offset="1" stop-color="#0B053E"/>
</linearGradient>
<linearGradient id="paint81_linear" x1="839" y1="600" x2="839" y2="638.824" gradientUnits="userSpaceOnUse">
<stop stop-color="#092158"/>
<stop offset="1" stop-color="#0B053E"/>
</linearGradient>
<linearGradient id="paint82_linear" x1="839" y1="600" x2="839" y2="638.824" gradientUnits="userSpaceOnUse">
<stop stop-color="#092158"/>
<stop offset="1" stop-color="#0B053E"/>
</linearGradient>
<linearGradient id="paint83_linear" x1="839" y1="600" x2="839" y2="638.824" gradientUnits="userSpaceOnUse">
<stop stop-color="#092158"/>
<stop offset="1" stop-color="#0B053E"/>
</linearGradient>
<linearGradient id="paint84_linear" x1="799" y1="600" x2="799" y2="638.824" gradientUnits="userSpaceOnUse">
<stop stop-color="#092158"/>
<stop offset="1" stop-color="#0B053E"/>
</linearGradient>
<linearGradient id="paint85_linear" x1="799" y1="600" x2="799" y2="638.824" gradientUnits="userSpaceOnUse">
<stop stop-color="#092158"/>
<stop offset="1" stop-color="#0B053E"/>
</linearGradient>
<linearGradient id="paint86_linear" x1="799" y1="600" x2="799" y2="638.824" gradientUnits="userSpaceOnUse">
<stop stop-color="#092158"/>
<stop offset="1" stop-color="#0B053E"/>
</linearGradient>
<linearGradient id="paint87_linear" x1="799" y1="600" x2="799" y2="638.824" gradientUnits="userSpaceOnUse">
<stop stop-color="#092158"/>
<stop offset="1" stop-color="#0B053E"/>
</linearGradient>
<linearGradient id="paint88_linear" x1="799" y1="600" x2="799" y2="638.824" gradientUnits="userSpaceOnUse">
<stop stop-color="#092158"/>
<stop offset="1" stop-color="#0B053E"/>
</linearGradient>
<linearGradient id="paint89_linear" x1="799" y1="600" x2="799" y2="638.824" gradientUnits="userSpaceOnUse">
<stop stop-color="#092158"/>
<stop offset="1" stop-color="#0B053E"/>
</linearGradient>
<linearGradient id="paint90_linear" x1="799" y1="600" x2="799" y2="638.824" gradientUnits="userSpaceOnUse">
<stop stop-color="#092158"/>
<stop offset="1" stop-color="#0B053E"/>
</linearGradient>
<linearGradient id="paint91_linear" x1="799" y1="600" x2="799" y2="638.824" gradientUnits="userSpaceOnUse">
<stop stop-color="#092158"/>
<stop offset="1" stop-color="#0B053E"/>
</linearGradient>
<linearGradient id="paint92_linear" x1="799" y1="600" x2="799" y2="638.824" gradientUnits="userSpaceOnUse">
<stop stop-color="#092158"/>
<stop offset="1" stop-color="#0B053E"/>
</linearGradient>
<linearGradient id="paint93_linear" x1="799" y1="600" x2="799" y2="638.824" gradientUnits="userSpaceOnUse">
<stop stop-color="#092158"/>
<stop offset="1" stop-color="#0B053E"/>
</linearGradient>
<linearGradient id="paint94_linear" x1="799" y1="600" x2="799" y2="638.824" gradientUnits="userSpaceOnUse">
<stop stop-color="#092158"/>
<stop offset="1" stop-color="#0B053E"/>
</linearGradient>
<linearGradient id="paint95_linear" x1="799" y1="600" x2="799" y2="638.824" gradientUnits="userSpaceOnUse">
<stop stop-color="#092158"/>
<stop offset="1" stop-color="#0B053E"/>
</linearGradient>
<linearGradient id="paint96_linear" x1="799" y1="600" x2="799" y2="638.824" gradientUnits="userSpaceOnUse">
<stop stop-color="#092158"/>
<stop offset="1" stop-color="#0B053E"/>
</linearGradient>
<linearGradient id="paint97_linear" x1="799" y1="600" x2="799" y2="638.824" gradientUnits="userSpaceOnUse">
<stop stop-color="#092158"/>
<stop offset="1" stop-color="#0B053E"/>
</linearGradient>
<linearGradient id="paint98_linear" x1="759" y1="600" x2="759" y2="638.824" gradientUnits="userSpaceOnUse">
<stop stop-color="#092158"/>
<stop offset="1" stop-color="#0B053E"/>
</linearGradient>
<linearGradient id="paint99_linear" x1="759" y1="600" x2="759" y2="638.824" gradientUnits="userSpaceOnUse">
<stop stop-color="#092158"/>
<stop offset="1" stop-color="#0B053E"/>
</linearGradient>
<linearGradient id="paint100_linear" x1="759" y1="600" x2="759" y2="638.824" gradientUnits="userSpaceOnUse">
<stop stop-color="#092158"/>
<stop offset="1" stop-color="#0B053E"/>
</linearGradient>
<linearGradient id="paint101_linear" x1="759" y1="600" x2="759" y2="638.824" gradientUnits="userSpaceOnUse">
<stop stop-color="#092158"/>
<stop offset="1" stop-color="#0B053E"/>
</linearGradient>
<linearGradient id="paint102_linear" x1="759" y1="600" x2="759" y2="638.824" gradientUnits="userSpaceOnUse">
<stop stop-color="#092158"/>
<stop offset="1" stop-color="#0B053E"/>
</linearGradient>
<linearGradient id="paint103_linear" x1="759" y1="600" x2="759" y2="638.824" gradientUnits="userSpaceOnUse">
<stop stop-color="#092158"/>
<stop offset="1" stop-color="#0B053E"/>
</linearGradient>
<linearGradient id="paint104_linear" x1="759" y1="600" x2="759" y2="638.824" gradientUnits="userSpaceOnUse">
<stop stop-color="#092158"/>
<stop offset="1" stop-color="#0B053E"/>
</linearGradient>
<linearGradient id="paint105_linear" x1="759" y1="600" x2="759" y2="638.824" gradientUnits="userSpaceOnUse">
<stop stop-color="#092158"/>
<stop offset="1" stop-color="#0B053E"/>
</linearGradient>
<linearGradient id="paint106_linear" x1="759" y1="600" x2="759" y2="638.824" gradientUnits="userSpaceOnUse">
<stop stop-color="#092158"/>
<stop offset="1" stop-color="#0B053E"/>
</linearGradient>
<linearGradient id="paint107_linear" x1="759" y1="600" x2="759" y2="638.824" gradientUnits="userSpaceOnUse">
<stop stop-color="#092158"/>
<stop offset="1" stop-color="#0B053E"/>
</linearGradient>
<linearGradient id="paint108_linear" x1="759" y1="600" x2="759" y2="638.824" gradientUnits="userSpaceOnUse">
<stop stop-color="#092158"/>
<stop offset="1" stop-color="#0B053E"/>
</linearGradient>
<linearGradient id="paint109_linear" x1="759" y1="600" x2="759" y2="638.824" gradientUnits="userSpaceOnUse">
<stop stop-color="#092158"/>
<stop offset="1" stop-color="#0B053E"/>
</linearGradient>
<linearGradient id="paint110_linear" x1="759" y1="600" x2="759" y2="638.824" gradientUnits="userSpaceOnUse">
<stop stop-color="#092158"/>
<stop offset="1" stop-color="#0B053E"/>
</linearGradient>
<linearGradient id="paint111_linear" x1="759" y1="600" x2="759" y2="638.824" gradientUnits="userSpaceOnUse">
<stop stop-color="#092158"/>
<stop offset="1" stop-color="#0B053E"/>
</linearGradient>
</defs>
</svg>
