<svg xmlns="http://www.w3.org/2000/svg" xmlns:xlink="http://www.w3.org/1999/xlink" width="1920" height="1080" fill="none" xmlns:v="https://vecta.io/nano"><style><![CDATA[.B{fill:#6b3249}.C{fill:#0b053e}.D{fill-rule:evenodd}.E{fill:#f9dfce}.F{fill:#efefef}.G{fill-opacity:.3}]]></style><mask id="A" mask-type="alpha" maskUnits="userSpaceOnUse" x="0" y="0" width="1920" height="1080"><path fill="#c4c4c4" d="M0 0h1920v1080H0z"/></mask><g mask="url(#A)"><path d="M790 681h219v57H790z" class="E"/><path d="M846 663h105v22H846z" class="E"/><path d="M864 654h72v9h-72z" class="E"/><path d="M853.458 675.4l45.594-43.4 45.594 43.4h-91.188z" fill="#602a40"/><path d="M872.734 654.4l-24.888 23.8h102.412l-24.871-23.8h23.468l4.209 15.4h58.926l7.01 21h-5.61V737h-99.607v-1.4h-30.864v1.4H781.91v-46.2H777l7.716-21h57.519l4.208-15.4h26.291zm-8.053 29.4h-9.82v14h9.82v-14zm21.044 0h9.82v14h-9.82v-14zm25.252 0h-9.82v14h9.82v-14zm5.611 0h9.821v14h-9.821v-14zm25.253 0h-9.821v14h9.821v-14zm-25.253 40.6v-14h9.821v14h-9.821zm15.432-14v14h9.821v-14h-9.821zm-61.727-26.6h9.82v14h-9.82v-14zm-77.16 14v14h9.821v-14h-9.821zm30.864 14v-14h9.82v14h-9.82zm-15.432-14v14h9.821v-14h-9.821zm-15.432 30.8v-14h9.821v14h-9.821zm30.864-14v14h9.82v-14h-9.82zm-15.432 14v-14h9.821v14h-9.821zm152.916-30.8v14h9.82v-14h-9.82zm30.864 14v-14h9.825v14h-9.825zm-15.432-14v14h9.82v-14h-9.82zm-15.432 30.8v-14h9.82v14h-9.82zm30.864-14v14h9.825v-14h-9.825zm-15.432 14v-14h9.82v14h-9.82zm-122.052-18.2v14h9.82v-14h-9.82zm15.432 14v-14h9.82v14h-9.82zm40.684-14h-25.252v21h25.252v-21zm1.403 22.4h-28.058v1.4h28.058v-1.4z" fill="#602a40" class="D"/><path d="M263 679h1v59h-1z" class="B"/><path d="M264 679h6v1h-6z" class="B"/><path d="M270 679h1v1h-1zm41 0h1v59h-1z" class="B"/><path d="M312 679h6v1h-6z" class="B"/><path d="M318 679h1v1h-1zm41 0h1v59h-1z" class="B"/><path d="M360 679h6v1h-6z" class="B"/><path d="M366 679h1v1h-1zm41 0h1v59h-1z" class="B"/><path d="M408 679h6v1h-6z" class="B"/><path d="M414 679h1v1h-1zm39 0h1v59h-1z" class="B"/><path d="M454 679h6v1h-6z" class="B"/><path d="M460 679h1v1h-1zm41 0h1v59h-1z" class="B"/><path d="M502 679h6v1h-6z" class="B"/><path d="M508 679h1v1h-1zm41 0h1v59h-1z" class="B"/><path d="M550 679h6v1h-6z" class="B"/><path d="M556 679h1v1h-1zm41 0h1v59h-1z" class="B"/><path d="M598 679h6v1h-6z" class="B"/><path d="M604 679h1v1h-1zm41 0h1v59h-1z" class="B"/><path d="M646 679h6v1h-6z" class="B"/><path d="M652 679h1v1h-1zm41 0h1v59h-1z" class="B"/><path d="M694 679h6v1h-6z" class="B"/><path d="M700 679h1v1h-1zm41 0h1v59h-1z" class="B"/><path d="M742 679h6v1h-6z" class="B"/><path d="M748 679h1v1h-1z" class="B"/><path d="M745 709l3-29h1l3 29h-7z" fill="url(#B)"/><path d="M649 709l3-29h1l3 29h-7z" fill="url(#C)"/><path d="M697 709l3-29h1l3 29h-7z" fill="url(#D)"/><path d="M601 709l3-29h1l3 29h-7z" fill="url(#E)"/><path d="M553 709l3-29h1l3 29h-7z" fill="url(#F)"/><path d="M411 709l3-29h1l3 29h-7z" fill="url(#G)"/><path d="M315 709l3-29h1l3 29h-7z" fill="url(#H)"/><path d="M363 709l3-29h1l3 29h-7z" fill="url(#I)"/><path d="M267 709l3-29h1l3 29h-7z" fill="url(#J)"/><path d="M303 729h396v8H303z" class="B"/><use xlink:href="#S" class="C"/><use xlink:href="#S" fill="url(#K)"/><use xlink:href="#T" class="C"/><use xlink:href="#T" fill="url(#K)"/><use xlink:href="#U" class="C"/><use xlink:href="#U" fill="url(#K)"/><use xlink:href="#V" class="C"/><use xlink:href="#V" fill="url(#K)"/><use xlink:href="#W" class="C"/><use xlink:href="#W" fill="url(#K)"/><use xlink:href="#X" class="C"/><use xlink:href="#X" fill="url(#K)"/><use xlink:href="#Y" class="C"/><use xlink:href="#Y" fill="url(#K)"/><use xlink:href="#Z" class="C"/><use xlink:href="#Z" fill="url(#K)"/><use xlink:href="#a" class="C"/><use xlink:href="#a" fill="url(#K)"/><use xlink:href="#b" class="C"/><use xlink:href="#b" fill="url(#K)"/><use xlink:href="#c" class="C"/><use xlink:href="#c" fill="url(#K)"/><use xlink:href="#d" class="C"/><use xlink:href="#d" fill="url(#K)"/><use xlink:href="#e" class="C"/><use xlink:href="#e" fill="url(#K)"/><path d="M658.041 723.842h1.275v5.982L658.059 731l-.018-7.158z" class="C"/><path d="M658.041 723.842h1.275v5.982L658.059 731l-.018-7.158z" fill="url(#K)"/><use xlink:href="#S" x="-40" class="C"/><use xlink:href="#S" x="-40" fill="url(#K)"/><use xlink:href="#T" x="-40" class="C"/><use xlink:href="#T" x="-40" fill="url(#K)"/><use xlink:href="#U" x="-40" class="C"/><use xlink:href="#U" x="-40" fill="url(#K)"/><use xlink:href="#V" x="-40" class="C"/><use xlink:href="#V" x="-40" fill="url(#K)"/><use xlink:href="#W" x="-40" class="C"/><use xlink:href="#W" x="-40" fill="url(#K)"/><use xlink:href="#X" x="-40" class="C"/><use xlink:href="#X" x="-40" fill="url(#K)"/><use xlink:href="#Y" x="-40" class="C"/><use xlink:href="#Y" x="-40" fill="url(#K)"/><use xlink:href="#Z" x="-40" class="C"/><use xlink:href="#Z" x="-40" fill="url(#K)"/><use xlink:href="#a" x="-40" class="C"/><use xlink:href="#a" x="-40" fill="url(#K)"/><use xlink:href="#b" x="-40" class="C"/><use xlink:href="#b" x="-40" fill="url(#K)"/><use xlink:href="#c" x="-40" class="C"/><use xlink:href="#c" x="-40" fill="url(#K)"/><use xlink:href="#d" x="-40" class="C"/><use xlink:href="#d" x="-40" fill="url(#K)"/><use xlink:href="#e" x="-40" class="C"/><use xlink:href="#e" x="-40" fill="url(#K)"/><path d="M618.041 723.842h1.275v5.982L618.059 731l-.018-7.158z" class="C"/><path d="M618.041 723.842h1.275v5.982L618.059 731l-.018-7.158z" fill="url(#L)"/><use xlink:href="#S" x="-80" class="C"/><use xlink:href="#S" x="-80" fill="url(#K)"/><use xlink:href="#T" x="-80" class="C"/><use xlink:href="#T" x="-80" fill="url(#K)"/><use xlink:href="#U" x="-80" class="C"/><use xlink:href="#U" x="-80" fill="url(#K)"/><use xlink:href="#V" x="-80" class="C"/><use xlink:href="#V" x="-80" fill="url(#K)"/><use xlink:href="#W" x="-80" class="C"/><use xlink:href="#W" x="-80" fill="url(#K)"/><use xlink:href="#X" x="-80" class="C"/><use xlink:href="#X" x="-80" fill="url(#K)"/><use xlink:href="#Y" x="-80" class="C"/><use xlink:href="#Y" x="-80" fill="url(#K)"/><use xlink:href="#Z" x="-80" class="C"/><use xlink:href="#Z" x="-80" fill="url(#K)"/><use xlink:href="#a" x="-80" class="C"/><use xlink:href="#a" x="-80" fill="url(#K)"/><use xlink:href="#b" x="-80" class="C"/><use xlink:href="#b" x="-80" fill="url(#K)"/><use xlink:href="#c" x="-80" class="C"/><use xlink:href="#c" x="-80" fill="url(#K)"/><use xlink:href="#d" x="-80" class="C"/><use xlink:href="#d" x="-80" fill="url(#K)"/><use xlink:href="#e" x="-80" class="C"/><use xlink:href="#e" x="-80" fill="url(#K)"/><path d="M578.041 723.842h1.275v5.982L578.059 731l-.018-7.158z" class="C"/><path d="M578.041 723.842h1.275v5.982L578.059 731l-.018-7.158z" fill="url(#M)"/><use xlink:href="#S" x="-120" class="C"/><use xlink:href="#S" x="-120" fill="url(#K)"/><use xlink:href="#T" x="-120" class="C"/><use xlink:href="#T" x="-120" fill="url(#K)"/><use xlink:href="#U" x="-120" class="C"/><use xlink:href="#U" x="-120" fill="url(#K)"/><use xlink:href="#V" x="-120" class="C"/><use xlink:href="#V" x="-120" fill="url(#K)"/><use xlink:href="#W" x="-120" class="C"/><use xlink:href="#W" x="-120" fill="url(#K)"/><use xlink:href="#X" x="-120" class="C"/><use xlink:href="#X" x="-120" fill="url(#K)"/><use xlink:href="#Y" x="-120" class="C"/><use xlink:href="#Y" x="-120" fill="url(#K)"/><use xlink:href="#Z" x="-120" class="C"/><use xlink:href="#Z" x="-120" fill="url(#K)"/><use xlink:href="#a" x="-120" class="C"/><use xlink:href="#a" x="-120" fill="url(#K)"/><use xlink:href="#b" x="-120" class="C"/><use xlink:href="#b" x="-120" fill="url(#K)"/><use xlink:href="#c" x="-120" class="C"/><use xlink:href="#c" x="-120" fill="url(#K)"/><use xlink:href="#d" x="-120" class="C"/><use xlink:href="#d" x="-120" fill="url(#K)"/><use xlink:href="#e" x="-120" class="C"/><use xlink:href="#e" x="-120" fill="url(#K)"/><path d="M538.041 723.842h1.275v5.982L538.059 731l-.018-7.158z" class="C"/><path d="M538.041 723.842h1.275v5.982L538.059 731l-.018-7.158z" fill="url(#N)"/><use xlink:href="#S" x="-200" class="C"/><use xlink:href="#S" x="-200" fill="url(#K)"/><use xlink:href="#T" x="-200" class="C"/><use xlink:href="#T" x="-200" fill="url(#K)"/><use xlink:href="#U" x="-200" class="C"/><use xlink:href="#U" x="-200" fill="url(#K)"/><use xlink:href="#V" x="-200" class="C"/><use xlink:href="#V" x="-200" fill="url(#K)"/><use xlink:href="#W" x="-200" class="C"/><use xlink:href="#W" x="-200" fill="url(#K)"/><use xlink:href="#X" x="-200" class="C"/><use xlink:href="#X" x="-200" fill="url(#K)"/><use xlink:href="#Y" x="-200" class="C"/><use xlink:href="#Y" x="-200" fill="url(#K)"/><use xlink:href="#Z" x="-200" class="C"/><use xlink:href="#Z" x="-200" fill="url(#K)"/><use xlink:href="#a" x="-200" class="C"/><use xlink:href="#a" x="-200" fill="url(#K)"/><use xlink:href="#b" x="-200" class="C"/><use xlink:href="#b" x="-200" fill="url(#K)"/><use xlink:href="#c" x="-200" class="C"/><use xlink:href="#c" x="-200" fill="url(#K)"/><use xlink:href="#d" x="-200" class="C"/><use xlink:href="#d" x="-200" fill="url(#K)"/><use xlink:href="#e" x="-200" class="C"/><use xlink:href="#e" x="-200" fill="url(#K)"/><path d="M458.041 723.842h1.275v5.982L458.059 731l-.018-7.158z" class="C"/><path d="M458.041 723.842h1.275v5.982L458.059 731l-.018-7.158z" fill="url(#O)"/><use xlink:href="#S" x="-240" class="C"/><use xlink:href="#S" x="-240" fill="url(#K)"/><use xlink:href="#T" x="-240" class="C"/><use xlink:href="#T" x="-240" fill="url(#K)"/><use xlink:href="#U" x="-240" class="C"/><use xlink:href="#U" x="-240" fill="url(#K)"/><use xlink:href="#V" x="-240" class="C"/><use xlink:href="#V" x="-240" fill="url(#K)"/><use xlink:href="#W" x="-240" class="C"/><use xlink:href="#W" x="-240" fill="url(#K)"/><use xlink:href="#X" x="-240" class="C"/><use xlink:href="#X" x="-240" fill="url(#K)"/><use xlink:href="#Y" x="-240" class="C"/><use xlink:href="#Y" x="-240" fill="url(#K)"/><use xlink:href="#Z" x="-240" class="C"/><use xlink:href="#Z" x="-240" fill="url(#K)"/><use xlink:href="#a" x="-240" class="C"/><use xlink:href="#a" x="-240" fill="url(#K)"/><use xlink:href="#b" x="-240" class="C"/><use xlink:href="#b" x="-240" fill="url(#K)"/><use xlink:href="#c" x="-240" class="C"/><use xlink:href="#c" x="-240" fill="url(#K)"/><use xlink:href="#d" x="-240" class="C"/><use xlink:href="#d" x="-240" fill="url(#K)"/><use xlink:href="#e" x="-240" class="C"/><use xlink:href="#e" x="-240" fill="url(#K)"/><path d="M418.041 723.842h1.275v5.982L418.059 731l-.018-7.158z" class="C"/><path d="M418.041 723.842h1.275v5.982L418.059 731l-.018-7.158z" fill="url(#P)"/><use xlink:href="#S" x="-280" class="C"/><use xlink:href="#S" x="-280" fill="url(#K)"/><use xlink:href="#T" x="-280" class="C"/><use xlink:href="#T" x="-280" fill="url(#K)"/><use xlink:href="#U" x="-280" class="C"/><use xlink:href="#U" x="-280" fill="url(#K)"/><use xlink:href="#V" x="-280" class="C"/><use xlink:href="#V" x="-280" fill="url(#K)"/><use xlink:href="#W" x="-280" class="C"/><use xlink:href="#W" x="-280" fill="url(#K)"/><use xlink:href="#X" x="-280" class="C"/><use xlink:href="#X" x="-280" fill="url(#K)"/><use xlink:href="#Y" x="-280" class="C"/><use xlink:href="#Y" x="-280" fill="url(#K)"/><use xlink:href="#Z" x="-280" class="C"/><use xlink:href="#Z" x="-280" fill="url(#K)"/><use xlink:href="#a" x="-280" class="C"/><use xlink:href="#a" x="-280" fill="url(#K)"/><use xlink:href="#b" x="-280" class="C"/><use xlink:href="#b" x="-280" fill="url(#K)"/><use xlink:href="#c" x="-280" class="C"/><use xlink:href="#c" x="-280" fill="url(#K)"/><use xlink:href="#d" x="-280" class="C"/><use xlink:href="#d" x="-280" fill="url(#K)"/><use xlink:href="#e" x="-280" class="C"/><use xlink:href="#e" x="-280" fill="url(#K)"/><path d="M378.041 723.842h1.275v5.982L378.059 731l-.018-7.158z" class="C"/><path d="M378.041 723.842h1.275v5.982L378.059 731l-.018-7.158z" fill="url(#Q)"/><use xlink:href="#S" x="-320" class="C"/><use xlink:href="#S" x="-320" fill="url(#K)"/><use xlink:href="#T" x="-320" class="C"/><use xlink:href="#T" x="-320" fill="url(#K)"/><use xlink:href="#U" x="-320" class="C"/><use xlink:href="#U" x="-320" fill="url(#K)"/><use xlink:href="#V" x="-320" class="C"/><use xlink:href="#V" x="-320" fill="url(#K)"/><use xlink:href="#W" x="-320" class="C"/><use xlink:href="#W" x="-320" fill="url(#K)"/><use xlink:href="#X" x="-320" class="C"/><use xlink:href="#X" x="-320" fill="url(#K)"/><use xlink:href="#Y" x="-320" class="C"/><use xlink:href="#Y" x="-320" fill="url(#K)"/><use xlink:href="#Z" x="-320" class="C"/><use xlink:href="#Z" x="-320" fill="url(#K)"/><use xlink:href="#a" x="-320" class="C"/><use xlink:href="#a" x="-320" fill="url(#K)"/><use xlink:href="#b" x="-320" class="C"/><use xlink:href="#b" x="-320" fill="url(#K)"/><use xlink:href="#c" x="-320" class="C"/><use xlink:href="#c" x="-320" fill="url(#K)"/><use xlink:href="#d" x="-320" class="C"/><use xlink:href="#d" x="-320" fill="url(#K)"/><use xlink:href="#e" x="-320" class="C"/><use xlink:href="#e" x="-320" fill="url(#K)"/><path d="M338.041 723.842h1.275v5.982L338.059 731l-.018-7.158z" class="C"/><path d="M338.041 723.842h1.275v5.982L338.059 731l-.018-7.158z" fill="url(#R)"/><path d="M481 720h39v9h-39z" class="B"/><path d="M483 712a3 3 0 0 1 3-3h29a3 3 0 0 1 3 3v8h-35v-8z" class="F G"/><path d="M488.832 706.25a5 5 0 0 1 5-5h13.542a5 5 0 0 1 5 5v4.375h-23.542v-4.375z" class="F G"/><path d="M491.332 700a5 5 0 0 1 5-5h8.75a5 5 0 0 1 5 5v4.375h-18.75V700z" class="F G"/><path d="M486.125 709.168h29.167s-1.253 3.287-3.021 4.375c-4.063 2.5-7.007 2.517-11.667 2.5-4.58-.017-7.604 0-11.458-2.5-1.742-1.13-3.021-4.375-3.021-4.375zm5.832-7.293h17.292s-.743 1.991-1.791 2.651c-2.409 1.514-4.154 1.525-6.917 1.514-2.715-.01-4.508 0-6.793-1.514-1.033-.685-1.791-2.651-1.791-2.651zm2.711-6.041h11.875s-.51 1.394-1.23 1.855c-1.654 1.061-2.853 1.068-4.75 1.061-1.865-.008-3.096 0-4.665-1.061-.709-.479-1.23-1.855-1.23-1.855z" class="B"/><path d="M499.668 698.75h2.083V720h-2.083zM0 737h1920v120H0z" class="B"/><path d="M1749 654h102v19h-102zm42-24h21v19h-21zm-88 52h53v49h-53zm144 0h53v49h-53zm-88-8h85v76h-85z" class="E"/><path d="M1841.86 657.923h-79.72v10.154h79.72v-10.154z" class="B"/><path d="M1699.39 732.385v-54.154H1696v-1.693l16.96-25.384h42.4L1801.15 619l45.79 32.154h44.1l16.96 25.384v1.693h-4.24v54.154h2.54v8.461h-57.66V751h-93.28v-10.154h-57.66v-8.461h1.69zm145.86-77.847h-86.5v16.924h86.5v-16.924zm-59.36 55.847v30.461h32.22v-30.461h-32.22zm-13.57 33.846v3.384h59.36v-3.384h-59.36zm-64.45-42.308v-18.615h16.96v18.615h-16.96zm27.14-18.615v18.615h16.96v-18.615h-16.96zm0 44v-18.616h16.96v18.616h-16.96zm-27.14-18.616v18.616h16.96v-18.616h-16.96zm144.16-6.769v-18.615h16.96v18.615h-16.96zm27.14-18.615v18.615h16.96v-18.615h-16.96zm0 44v-18.616h16.96v18.616h-16.96zm-27.14-18.616v18.616h16.96v-18.616h-16.96zm-57.66-30.461h15.26v20.307h-15.26v-20.307zm-20.35-3.385h-10.18v1.692h1.7v60.924h-1.7v1.692h10.18v-1.692h-1.7v-60.924h1.7v-1.692zm55.96 0h10.18v1.692h-1.7v60.924h1.7v1.692h-10.18v-1.692h1.7v-60.924h-1.7v-1.692zm-28.83-27.077c4.69 0 8.48-3.788 8.48-8.461a8.47 8.47 0 0 0-8.48-8.462c-4.68 0-8.48 3.789-8.48 8.462s3.8 8.461 8.48 8.461z" class="B D"/><path d="M1064 697h584v4h-584z" class="B"/><path d="M1083 701h6v36h-6z" class="B"/><path d="M1081 701h10v2h-10zm0 34h10v2h-10zm62-34h6v36h-6z" class="B"/><path d="M1141 701h10v2h-10zm0 34h10v2h-10zm62-34h6v36h-6z" class="B"/><path d="M1201 701h10v2h-10zm0 34h10v2h-10zm62-34h6v36h-6z" class="B"/><path d="M1261 701h10v2h-10zm0 34h10v2h-10zm62-34h6v36h-6z" class="B"/><path d="M1321 701h10v2h-10zm0 34h10v2h-10zm62-34h6v36h-6z" class="B"/><path d="M1381 701h10v2h-10zm0 34h10v2h-10zm62-34h6v36h-6z" class="B"/><path d="M1441 701h10v2h-10zm0 34h10v2h-10zm62-34h6v36h-6z" class="B"/><path d="M1501 701h10v2h-10zm0 34h10v2h-10zm62-34h6v36h-6z" class="B"/><path d="M1561 701h10v2h-10zm0 34h10v2h-10zm62-34h6v36h-6z" class="B"/><path d="M1621 701h10v2h-10zm0 34h10v2h-10zm-519-1h28v3h-28z" class="B"/><use xlink:href="#f" class="B D"/><use xlink:href="#g" class="B D"/><use xlink:href="#h" class="B D"/><use xlink:href="#i" class="B D"/><use xlink:href="#j" class="B"/><use xlink:href="#f" x="15" class="B D"/><use xlink:href="#g" x="15" class="B D"/><use xlink:href="#h" x="15" class="B D"/><use xlink:href="#i" x="15" class="B D"/><use xlink:href="#j" x="15" class="B"/><path d="M1163 734h28v3h-28z" class="B"/><use xlink:href="#f" x="61" class="B D"/><use xlink:href="#g" x="61" class="B D"/><use xlink:href="#h" x="61" class="B D"/><use xlink:href="#i" x="61" class="B D"/><use xlink:href="#j" x="61" class="B"/><use xlink:href="#f" x="76" class="B D"/><use xlink:href="#g" x="76" class="B D"/><use xlink:href="#h" x="76" class="B D"/><use xlink:href="#i" x="76" class="B D"/><use xlink:href="#j" x="76" class="B"/><path d="M1223 734h28v3h-28z" class="B"/><use xlink:href="#f" x="121" class="B D"/><use xlink:href="#g" x="121" class="B D"/><use xlink:href="#h" x="121" class="B D"/><use xlink:href="#i" x="121" class="B D"/><use xlink:href="#j" x="121" class="B"/><use xlink:href="#f" x="136" class="B D"/><use xlink:href="#g" x="136" class="B D"/><use xlink:href="#h" x="136" class="B D"/><use xlink:href="#i" x="136" class="B D"/><use xlink:href="#j" x="136" class="B"/><path d="M1283 734h28v3h-28z" class="B"/><use xlink:href="#f" x="181" class="B D"/><use xlink:href="#g" x="181" class="B D"/><use xlink:href="#h" x="181" class="B D"/><use xlink:href="#i" x="181" class="B D"/><use xlink:href="#j" x="181" class="B"/><use xlink:href="#f" x="196" class="B D"/><use xlink:href="#g" x="196" class="B D"/><use xlink:href="#h" x="196" class="B D"/><use xlink:href="#i" x="196" class="B D"/><use xlink:href="#j" x="196" class="B"/><path d="M1343 734h28v3h-28z" class="B"/><use xlink:href="#f" x="241" class="B D"/><use xlink:href="#g" x="241" class="B D"/><use xlink:href="#h" x="241" class="B D"/><use xlink:href="#i" x="241" class="B D"/><use xlink:href="#j" x="241" class="B"/><use xlink:href="#f" x="256" class="B D"/><use xlink:href="#g" x="256" class="B D"/><use xlink:href="#h" x="256" class="B D"/><use xlink:href="#i" x="256" class="B D"/><use xlink:href="#j" x="256" class="B"/><path d="M1403 734h28v3h-28z" class="B"/><use xlink:href="#f" x="301" class="B D"/><use xlink:href="#g" x="301" class="B D"/><use xlink:href="#h" x="301" class="B D"/><use xlink:href="#i" x="301" class="B D"/><use xlink:href="#j" x="301" class="B"/><use xlink:href="#f" x="316" class="B D"/><use xlink:href="#g" x="316" class="B D"/><use xlink:href="#h" x="316" class="B D"/><use xlink:href="#i" x="316" class="B D"/><use xlink:href="#j" x="316" class="B"/><path d="M1464 734h28v3h-28z" class="B"/><use xlink:href="#f" x="362" class="B D"/><use xlink:href="#g" x="362" class="B D"/><use xlink:href="#h" x="362" class="B D"/><use xlink:href="#i" x="362" class="B D"/><use xlink:href="#j" x="362" class="B"/><use xlink:href="#f" x="377" class="B D"/><use xlink:href="#g" x="377" class="B D"/><use xlink:href="#h" x="377" class="B D"/><use xlink:href="#i" x="377" class="B D"/><use xlink:href="#j" x="377" class="B"/><path d="M1524 734h28v3h-28z" class="B"/><use xlink:href="#f" x="422" class="B D"/><use xlink:href="#g" x="422" class="B D"/><use xlink:href="#h" x="422" class="B D"/><use xlink:href="#i" x="422" class="B D"/><use xlink:href="#j" x="422" class="B"/><use xlink:href="#f" x="437" class="B D"/><use xlink:href="#g" x="437" class="B D"/><use xlink:href="#h" x="437" class="B D"/><use xlink:href="#i" x="437" class="B D"/><use xlink:href="#j" x="437" class="B"/><path d="M1584 734h28v3h-28z" class="B"/><use xlink:href="#f" x="482" class="B D"/><use xlink:href="#g" x="482" class="B D"/><use xlink:href="#h" x="482" class="B D"/><use xlink:href="#i" x="482" class="B D"/><use xlink:href="#j" x="482" class="B"/><use xlink:href="#f" x="497" class="B D"/><use xlink:href="#g" x="497" class="B D"/><use xlink:href="#h" x="497" class="B D"/><use xlink:href="#i" x="497" class="B D"/><use xlink:href="#j" x="497" class="B"/><path d="M210 678h4v59h-4z" class="B"/><path d="M149 651l65 27h-4l-65-27h4z" class="B"/><path d="M196.031 719v1.233l.08.16.869 2.036h-7.33l-.263.375-2.294 3.294a5.36 5.36 0 0 0-1.609-.241 5.45 5.45 0 0 0-3.876 1.634c-1.028 1.044-1.606 2.46-1.608 3.938 0 3.073 2.459 5.571 5.484 5.571 2.881 0 5.238-2.273 5.459-5.143h2.9l.264-.375 4.113-6.161.553 1.286c-.832.49-1.523 1.193-2.004 2.039s-.736 1.805-.738 2.783c0 3.06 2.472 5.571 5.485 5.571s5.484-2.511 5.484-5.571-2.472-5.572-5.484-5.572c-.405 0-.804.047-1.187.134l-2.268-5.277h2.611c.24 0 .422.185.422.429s-.182.428-.422.428v1.715c1.153 0 2.109-.971 2.109-2.143s-.956-2.143-2.109-2.143h-4.641zm-9.281.857v1.714h5.062l-.843-1.714h-4.219zm4.614 4.286h5.616l-3.401 5.09-2.215-5.09zm-1.476.857l2.215 5.143h-7.041v1.714h4.167c-.214 1.922-1.797 3.429-3.745 3.429-2.092 0-3.796-1.732-3.796-3.857s1.704-3.858 3.796-3.858c.626.001 1.241.157 1.793.456s1.023.731 1.371 1.259h1.899a5.55 5.55 0 0 0-1.925-2.438l1.266-1.848zm11.628 2.571c2.092 0 3.796 1.732 3.796 3.858s-1.704 3.857-3.796 3.857-3.797-1.732-3.797-3.857c0-1.35.702-2.525 1.74-3.215l1.713 3.991 1.53-.696-1.661-3.884c.158-.02.313-.054.475-.054z" fill="#000"/><path d="M132 718h2v19h-2z" class="B"/><path d="M134 718h4v2h-4z" class="B"/><path transform="matrix(-1 0 0 1 148 718)" d="M0 0h2v19H0z" class="B"/><path transform="matrix(-1 0 0 1 146 718)" d="M0 0h4v2H0z" class="B"/><path d="M154 718h2v19h-2zm8 0h2v19h-2zm8 0h2v19h-2zm8 0h2v19h-2zm8 0h2v19h-2zm8 0h2v19h-2zm8 0h2v19h-2z" class="B"/><path d="M154 718h50v2h-50zm-27 0h2v19h-2zm-21 18h4l2 1h-8l2-1zm-18 0h4l2 1h-8l2-1zm-18 0h4l2 1h-8l2-1z" class="B"/></g><defs><linearGradient id="B" x1="748.5" y1="680" x2="748.5" y2="709" xlink:href="#k"><stop stop-color="#fff"/><stop offset=".031" stop-color="#fff" stop-opacity=".839"/><stop offset=".156" stop-color="#fff" stop-opacity=".627"/><stop offset="1" stop-color="#fff" stop-opacity="0"/></linearGradient><linearGradient id="C" x1="652.5" y1="680" x2="652.5" y2="709" xlink:href="#k"><stop stop-color="#fff"/><stop offset=".031" stop-color="#fff" stop-opacity=".839"/><stop offset=".156" stop-color="#fff" stop-opacity=".627"/><stop offset="1" stop-color="#fff" stop-opacity="0"/></linearGradient><linearGradient id="D" x1="700.5" y1="680" x2="700.5" y2="709" xlink:href="#k"><stop stop-color="#fff"/><stop offset=".031" stop-color="#fff" stop-opacity=".839"/><stop offset=".156" stop-color="#fff" stop-opacity=".627"/><stop offset="1" stop-color="#fff" stop-opacity="0"/></linearGradient><linearGradient id="E" x1="604.5" y1="680" x2="604.5" y2="709" xlink:href="#k"><stop stop-color="#fff"/><stop offset=".031" stop-color="#fff" stop-opacity=".839"/><stop offset=".156" stop-color="#fff" stop-opacity=".627"/><stop offset="1" stop-color="#fff" stop-opacity="0"/></linearGradient><linearGradient id="F" x1="556.5" y1="680" x2="556.5" y2="709" xlink:href="#k"><stop stop-color="#fff"/><stop offset=".031" stop-color="#fff" stop-opacity=".839"/><stop offset=".156" stop-color="#fff" stop-opacity=".627"/><stop offset="1" stop-color="#fff" stop-opacity="0"/></linearGradient><linearGradient id="G" x1="414.5" y1="680" x2="414.5" y2="709" xlink:href="#k"><stop stop-color="#fff"/><stop offset=".031" stop-color="#fff" stop-opacity=".839"/><stop offset=".156" stop-color="#fff" stop-opacity=".627"/><stop offset="1" stop-color="#fff" stop-opacity="0"/></linearGradient><linearGradient id="H" x1="318.5" y1="680" x2="318.5" y2="709" xlink:href="#k"><stop stop-color="#fff"/><stop offset=".031" stop-color="#fff" stop-opacity=".839"/><stop offset=".156" stop-color="#fff" stop-opacity=".627"/><stop offset="1" stop-color="#fff" stop-opacity="0"/></linearGradient><linearGradient id="I" x1="366.5" y1="680" x2="366.5" y2="709" xlink:href="#k"><stop stop-color="#fff"/><stop offset=".031" stop-color="#fff" stop-opacity=".839"/><stop offset=".156" stop-color="#fff" stop-opacity=".627"/><stop offset="1" stop-color="#fff" stop-opacity="0"/></linearGradient><linearGradient id="J" x1="270.5" y1="680" x2="270.5" y2="709" xlink:href="#k"><stop stop-color="#fff"/><stop offset=".031" stop-color="#fff" stop-opacity=".839"/><stop offset=".156" stop-color="#fff" stop-opacity=".627"/><stop offset="1" stop-color="#fff" stop-opacity="0"/></linearGradient><linearGradient id="K" x1="659" y1="691" x2="659" y2="729.824" xlink:href="#k"><stop stop-color="#092158"/><stop offset="1" stop-color="#0b053e"/></linearGradient><linearGradient id="L" x1="619" y1="691" x2="619" y2="729.824" xlink:href="#k"><stop stop-color="#092158"/><stop offset="1" stop-color="#0b053e"/></linearGradient><linearGradient id="M" x1="579" y1="691" x2="579" y2="729.824" xlink:href="#k"><stop stop-color="#092158"/><stop offset="1" stop-color="#0b053e"/></linearGradient><linearGradient id="N" x1="539" y1="691" x2="539" y2="729.824" xlink:href="#k"><stop stop-color="#092158"/><stop offset="1" stop-color="#0b053e"/></linearGradient><linearGradient id="O" x1="459" y1="691" x2="459" y2="729.824" xlink:href="#k"><stop stop-color="#092158"/><stop offset="1" stop-color="#0b053e"/></linearGradient><linearGradient id="P" x1="419" y1="691" x2="419" y2="729.824" xlink:href="#k"><stop stop-color="#092158"/><stop offset="1" stop-color="#0b053e"/></linearGradient><linearGradient id="Q" x1="379" y1="691" x2="379" y2="729.824" xlink:href="#k"><stop stop-color="#092158"/><stop offset="1" stop-color="#0b053e"/></linearGradient><linearGradient id="R" x1="339" y1="691" x2="339" y2="729.824" xlink:href="#k"><stop stop-color="#092158"/><stop offset="1" stop-color="#0b053e"/></linearGradient><path id="S" d="M665.713 710.305c0 8.128-3.14 14.718-7.013 14.718s-7.831-6.59-7.831-14.718 3.959-14.717 7.831-14.717 7.013 6.589 7.013 14.717z"/><path id="T" d="M649.241 709.383c-.064-.255.023-.522.232-.711l2.763-2.499c.463-.419 1.274-.276 1.511.267l2.333 5.358c.179.41-.064.867-.541 1.017l-4.055 1.275c-.518.163-1.084-.107-1.201-.572l-1.042-4.135z"/><path id="U" d="M649.638 701.569c-.027-.29.133-.57.418-.727l3.624-1.998c.559-.308 1.3-.013 1.391.555l1.352 8.382c.063.392-.22.764-.662.868l-4.288 1.012c-.55.13-1.102-.204-1.148-.696l-.687-7.396z"/><path id="V" d="M649.214 716.195c-.261-.268-.286-.652-.061-.943l2.103-2.732c.37-.48 1.194-.464 1.538.03l4.186 6.009c.25.358.131.823-.271 1.058l-1.974 1.153c-.386.225-.907.162-1.207-.146l-4.314-4.429z"/><path id="W" d="M651.73 721.281c-.398-.247-.499-.722-.227-1.075l1.025-1.331c.332-.43 1.046-.472 1.441-.084l3.674 3.606c.295.289.304.719.022 1.018l-.384.405c-.304.322-.845.384-1.236.141l-4.315-2.68z"/><path id="X" d="M668.967 708.745c.119-.371-.09-.764-.492-.929l-3.587-1.469c-.486-.199-1.06.008-1.239.445l-2.09 5.112c-.164.4.068.843.524 1.001l4.058 1.405c.502.173 1.063-.067 1.207-.517l1.619-5.048z"/><path id="Y" d="M668.392 702.374c.029-.274-.109-.541-.363-.706l-4.021-2.605c-.555-.36-1.349-.074-1.443.519l-1.31 8.226c-.066.414.253.802.726.884l4.655.811c.529.092 1.031-.232 1.08-.697l.676-6.432z"/><path id="Z" d="M664.224 697.526l-5.664-3.67-1.637 10.282 5.253 1.073 2.048-3.642v-4.043z"/><path id="a" d="M664.259 697.892c-.022-.232-.162-.444-.381-.579l-2.351-1.453c-.122-.075-.221-.175-.288-.291l-1.252-2.165c-.407-.703-1.617-.52-1.717.259l-1.257 9.778c-.051.397.25.766.7.858l3.815.779c.386.079.785-.067.987-.362l1.957-2.852a.71.71 0 0 0 .124-.467l-.337-3.505z"/><path id="b" d="M652.989 697.876c-.001-.253.139-.489.376-.636l2.599-1.615c.122-.076.221-.177.286-.295l.987-1.769c.396-.709 1.626-.525 1.728.26l1.258 9.607c.052.397-.249.763-.7.851l-3.76.737c-.414.081-.839-.096-1.026-.426l-1.648-2.921a.7.7 0 0 1-.092-.343l-.008-3.45z"/><path id="c" d="M668.366 716.271c.257-.267.28-.649.059-.94l-2.065-2.716c-.37-.487-1.195-.474-1.537.024l-4.127 6c-.246.358-.126.823.273 1.059l1.933 1.144c.387.229.909.167 1.207-.143l4.257-4.428z"/><path id="d" d="M665.884 721.358c.392-.247.489-.719.221-1.072l-1.002-1.318c-.332-.436-1.049-.481-1.443-.089l-3.62 3.599a.71.71 0 0 0-.019 1.016l.369.395c.305.327.85.39 1.24.145l4.254-2.676z"/><path id="e" d="M658.537 691.091c.065-.121.263-.121.33-.001l3.859 7.041c.041.075.008.164-.075.205l-4.367 2.137c-.074.036-.168.023-.225-.032l-2.921-2.808c-.049-.047-.06-.115-.03-.172l3.429-6.37z"/><path id="f" d="M1106.35 728.755c.21-.413.33-.9.7-1.181.38-.291.89-.466 1.37-.394.47.071.77.524 1.17.78.37.239.87.32 1.12.688.24.368.05.884.21 1.299.2.534.83.897.83 1.471 0 .549-.32 1.196-.82 1.409-.59.243-1.21-.363-1.84-.297-.39.042-.63.54-1.02.6-.41.061-.8-.143-1.19-.266-.46-.144-.97-.209-1.33-.521-.4-.334-.9-.782-.82-1.298.08-.581.86-.787 1.2-1.267.21-.305.25-.69.42-1.023z"/><path id="g" d="M1107.58 727.465c.46-.046.93-.04 1.35.16.49.231 1.06.519 1.18 1.044s-.36.973-.62 1.447c-.2.378-.39.751-.71 1.037-.35.315-.74.56-1.2.675-.58.145-1.31.478-1.74.065-.45-.43.04-1.202-.08-1.811-.08-.483-.64-.873-.5-1.345.13-.471.71-.628 1.14-.864.38-.204.76-.367 1.18-.408z"/><path id="h" d="M1109.85 727.324c.35.105.36.704.7.848.32.137.82-.384 1.04-.11.24.303-.38.795-.21 1.143.18.352.93.149 1.06.523.11.319-.36.572-.6.807-.19.188-.46.264-.67.431-.16.13-.3.278-.43.447-.18.257-.16.725-.47.811-.29.082-.46-.452-.76-.461-.37-.011-.67.529-1.03.409-.3-.106-.22-.601-.37-.891-.12-.245-.4-.425-.42-.699-.03-.281.19-.522.29-.787.08-.216.1-.456.23-.642.13-.18.43-.204.53-.401.17-.32.01-.763.23-1.048.2-.254.57-.472.88-.38z"/><path id="i" d="M1110.78 728.331c0 .39-.06 1.071-.44 1.073-.65.002-.96-1.072-1.61-1.066-.38.003-.14.802-.4 1.083-.32.333-.76.651-1.2.605-.4-.042-.68-.456-.85-.819-.18-.353-.31-.82-.12-1.169.22-.414.99-.3 1.16-.737.16-.374-.49-.712-.41-1.107.07-.324.46-.477.76-.604s.64-.227.94-.121c.31.107.53.391.67.689.12.263-.16.655.03.864.25.268.77.044 1.04.287s.43.643.43 1.022z"/><path id="j" d="M1108.74 732.064c-.23.599-.09 2.099 0 2.773l-.7-.047c-.03-.457.26-1.933.41-2.614-.18-.128-.56-.41-.61-.515-.06-.105-.13-.381-.15-.506.05.065.16.23.22.365.05.135.39.388.55.497.02-.031.06-.135.06-.3s-.05-.443-.07-.562l-.61-.487.07-.375.14-.281c-.03.168-.09.521-.06.581s.36.268.53.365l-.07-.759.07-.187.22 1.508c.23-.271.23-1.293.28-1.143s0 .937-.28 1.687z"/><linearGradient id="k" gradientUnits="userSpaceOnUse"/></defs></svg>