<svg width="1920" height="1080" viewBox="0 0 1920 1080" fill="none" xmlns="http://www.w3.org/2000/svg">
<mask id="mask0" mask-type="alpha" maskUnits="userSpaceOnUse" x="0" y="0" width="1920" height="1080">
<rect width="1920" height="1080" fill="#C4C4C4"/>
</mask>
<g mask="url(#mask0)">
<rect y="833" width="1920" height="221" fill="#562E4A"/>
<rect x="889" y="780" width="132" height="53" fill="#562E4A"/>
<path d="M884 773H1026L1021 781H889L884 773Z" fill="#562E4A"/>
<path d="M897 826H898V827H906V826H907V833H897V826Z" fill="#4F2941"/>
<path d="M909 826H910V827H918V826H919V833H909V826Z" fill="#4F2941"/>
<path d="M921 826H922V827H930V826H931V833H921V826Z" fill="#4F2941"/>
<path d="M933 826H934V827H942V826H943V833H933V826Z" fill="#4F2941"/>
<path d="M945 826H946V827H954V826H955V833H945V826Z" fill="#4F2941"/>
<path d="M957 826H958V827H966V826H967V833H957V826Z" fill="#4F2941"/>
<path d="M969 826H970V827H978V826H979V833H969V826Z" fill="#4F2941"/>
<path d="M981 826H982V827H990V826H991V833H981V826Z" fill="#4F2941"/>
<path d="M993 826H994V827H1002V826H1003V833H993V826Z" fill="#4F2941"/>
<path d="M1005 826H1006V827H1014V826H1015V833H1005V826Z" fill="#4F2941"/>
<rect x="954" y="773" width="4" height="2" fill="#C4C4C4"/>
<rect x="455" y="825" width="396" height="8" fill="#562E4A"/>
<path d="M817.713 806.305C817.713 814.433 814.573 821.023 810.7 821.023C806.828 821.023 802.869 814.433 802.869 806.305C802.869 798.177 806.828 791.588 810.7 791.588C814.573 791.588 817.713 798.177 817.713 806.305Z" fill="#562E4A"/>
<path d="M817.713 806.305C817.713 814.433 814.573 821.023 810.7 821.023C806.828 821.023 802.869 814.433 802.869 806.305C802.869 798.177 806.828 791.588 810.7 791.588C814.573 791.588 817.713 798.177 817.713 806.305Z" fill="url(#paint0_linear)"/>
<path d="M801.241 805.383C801.177 805.128 801.264 804.861 801.473 804.672L804.236 802.173C804.699 801.754 805.51 801.897 805.747 802.44L808.08 807.798C808.259 808.208 808.016 808.665 807.539 808.815L803.484 810.09C802.966 810.253 802.4 809.983 802.283 809.518L801.241 805.383Z" fill="#562E4A"/>
<path d="M801.241 805.383C801.177 805.128 801.264 804.861 801.473 804.672L804.236 802.173C804.699 801.754 805.51 801.897 805.747 802.44L808.08 807.798C808.259 808.208 808.016 808.665 807.539 808.815L803.484 810.09C802.966 810.253 802.4 809.983 802.283 809.518L801.241 805.383Z" fill="url(#paint1_linear)"/>
<path d="M801.638 797.569C801.611 797.279 801.771 796.999 802.056 796.842L805.68 794.844C806.239 794.536 806.98 794.831 807.071 795.399L808.423 803.781C808.486 804.173 808.203 804.545 807.761 804.649L803.473 805.661C802.923 805.791 802.371 805.457 802.325 804.965L801.638 797.569Z" fill="#562E4A"/>
<path d="M801.638 797.569C801.611 797.279 801.771 796.999 802.056 796.842L805.68 794.844C806.239 794.536 806.98 794.831 807.071 795.399L808.423 803.781C808.486 804.173 808.203 804.545 807.761 804.649L803.473 805.661C802.923 805.791 802.371 805.457 802.325 804.965L801.638 797.569Z" fill="url(#paint2_linear)"/>
<path d="M801.214 812.195C800.953 811.927 800.928 811.543 801.153 811.252L803.256 808.52C803.626 808.04 804.45 808.056 804.794 808.55L808.98 814.559C809.23 814.917 809.111 815.382 808.709 815.617L806.735 816.77C806.349 816.995 805.828 816.932 805.528 816.624L801.214 812.195Z" fill="#562E4A"/>
<path d="M801.214 812.195C800.953 811.927 800.928 811.543 801.153 811.252L803.256 808.52C803.626 808.04 804.45 808.056 804.794 808.55L808.98 814.559C809.23 814.917 809.111 815.382 808.709 815.617L806.735 816.77C806.349 816.995 805.828 816.932 805.528 816.624L801.214 812.195Z" fill="url(#paint3_linear)"/>
<path d="M803.73 817.281C803.332 817.034 803.231 816.559 803.503 816.206L804.528 814.875C804.86 814.445 805.574 814.403 805.969 814.791L809.643 818.397C809.938 818.686 809.947 819.116 809.665 819.415L809.281 819.82C808.977 820.142 808.436 820.204 808.045 819.961L803.73 817.281Z" fill="#562E4A"/>
<path d="M803.73 817.281C803.332 817.034 803.231 816.559 803.503 816.206L804.528 814.875C804.86 814.445 805.574 814.403 805.969 814.791L809.643 818.397C809.938 818.686 809.947 819.116 809.665 819.415L809.281 819.82C808.977 820.142 808.436 820.204 808.045 819.961L803.73 817.281Z" fill="url(#paint4_linear)"/>
<path d="M820.967 804.745C821.086 804.374 820.877 803.981 820.475 803.816L816.888 802.347C816.402 802.148 815.828 802.355 815.649 802.792L813.559 807.904C813.395 808.304 813.627 808.747 814.083 808.905L818.141 810.31C818.643 810.483 819.204 810.243 819.348 809.793L820.967 804.745Z" fill="#562E4A"/>
<path d="M820.967 804.745C821.086 804.374 820.877 803.981 820.475 803.816L816.888 802.347C816.402 802.148 815.828 802.355 815.649 802.792L813.559 807.904C813.395 808.304 813.627 808.747 814.083 808.905L818.141 810.31C818.643 810.483 819.204 810.243 819.348 809.793L820.967 804.745Z" fill="url(#paint5_linear)"/>
<path d="M820.392 798.374C820.421 798.1 820.283 797.833 820.029 797.668L816.008 795.063C815.453 794.703 814.659 794.989 814.565 795.582L813.255 803.808C813.189 804.222 813.508 804.61 813.981 804.692L818.636 805.503C819.165 805.595 819.667 805.271 819.716 804.806L820.392 798.374Z" fill="#562E4A"/>
<path d="M820.392 798.374C820.421 798.1 820.283 797.833 820.029 797.668L816.008 795.063C815.453 794.703 814.659 794.989 814.565 795.582L813.255 803.808C813.189 804.222 813.508 804.61 813.981 804.692L818.636 805.503C819.165 805.595 819.667 805.271 819.716 804.806L820.392 798.374Z" fill="url(#paint6_linear)"/>
<path d="M816.224 793.526L810.56 789.856L808.923 800.138L814.176 801.211L816.224 797.569L816.224 793.526Z" fill="#562E4A"/>
<path d="M816.224 793.526L810.56 789.856L808.923 800.138L814.176 801.211L816.224 797.569L816.224 793.526Z" fill="url(#paint7_linear)"/>
<path d="M816.259 793.892C816.237 793.66 816.097 793.448 815.878 793.313L813.527 791.86C813.405 791.785 813.306 791.685 813.239 791.569L811.987 789.404C811.58 788.701 810.37 788.884 810.27 789.663L809.013 799.441C808.962 799.838 809.263 800.207 809.713 800.299L813.528 801.078C813.914 801.157 814.313 801.011 814.515 800.716L816.472 797.864C816.568 797.723 816.611 797.56 816.596 797.397L816.259 793.892Z" fill="#562E4A"/>
<path d="M816.259 793.892C816.237 793.66 816.097 793.448 815.878 793.313L813.527 791.86C813.405 791.785 813.306 791.685 813.239 791.569L811.987 789.404C811.58 788.701 810.37 788.884 810.27 789.663L809.013 799.441C808.962 799.838 809.263 800.207 809.713 800.299L813.528 801.078C813.914 801.157 814.313 801.011 814.515 800.716L816.472 797.864C816.568 797.723 816.611 797.56 816.596 797.397L816.259 793.892Z" fill="url(#paint8_linear)"/>
<path d="M804.989 793.876C804.988 793.623 805.128 793.387 805.365 793.24L807.964 791.625C808.086 791.549 808.185 791.448 808.25 791.33L809.237 789.561C809.633 788.852 810.863 789.036 810.965 789.821L812.223 799.428C812.275 799.825 811.974 800.191 811.523 800.279L807.763 801.016C807.349 801.097 806.924 800.92 806.737 800.59L805.089 797.669C805.029 797.562 804.997 797.445 804.997 797.326L804.989 793.876Z" fill="#562E4A"/>
<path d="M804.989 793.876C804.988 793.623 805.128 793.387 805.365 793.24L807.964 791.625C808.086 791.549 808.185 791.448 808.25 791.33L809.237 789.561C809.633 788.852 810.863 789.036 810.965 789.821L812.223 799.428C812.275 799.825 811.974 800.191 811.523 800.279L807.763 801.016C807.349 801.097 806.924 800.92 806.737 800.59L805.089 797.669C805.029 797.562 804.997 797.445 804.997 797.326L804.989 793.876Z" fill="url(#paint9_linear)"/>
<path d="M820.366 812.271C820.623 812.004 820.646 811.622 820.425 811.331L818.36 808.615C817.99 808.128 817.165 808.141 816.823 808.639L812.696 814.639C812.45 814.997 812.57 815.462 812.969 815.698L814.902 816.842C815.289 817.071 815.811 817.009 816.109 816.699L820.366 812.271Z" fill="#562E4A"/>
<path d="M820.366 812.271C820.623 812.004 820.646 811.622 820.425 811.331L818.36 808.615C817.99 808.128 817.165 808.141 816.823 808.639L812.696 814.639C812.45 814.997 812.57 815.462 812.969 815.698L814.902 816.842C815.289 817.071 815.811 817.009 816.109 816.699L820.366 812.271Z" fill="url(#paint10_linear)"/>
<path d="M817.884 817.358C818.276 817.111 818.373 816.639 818.105 816.286L817.103 814.968C816.771 814.532 816.054 814.487 815.66 814.879L812.04 818.478C811.75 818.766 811.742 819.195 812.021 819.494L812.39 819.889C812.695 820.216 813.24 820.279 813.63 820.034L817.884 817.358Z" fill="#562E4A"/>
<path d="M817.884 817.358C818.276 817.111 818.373 816.639 818.105 816.286L817.103 814.968C816.771 814.532 816.054 814.487 815.66 814.879L812.04 818.478C811.75 818.766 811.742 819.195 812.021 819.494L812.39 819.889C812.695 820.216 813.24 820.279 813.63 820.034L817.884 817.358Z" fill="url(#paint11_linear)"/>
<path d="M810.537 787.091C810.602 786.97 810.8 786.97 810.867 787.09L814.726 794.131C814.767 794.206 814.734 794.295 814.651 794.336L810.284 796.473C810.21 796.509 810.116 796.496 810.059 796.441L807.138 793.633C807.089 793.586 807.078 793.518 807.108 793.461L810.537 787.091Z" fill="#562E4A"/>
<path d="M810.537 787.091C810.602 786.97 810.8 786.97 810.867 787.09L814.726 794.131C814.767 794.206 814.734 794.295 814.651 794.336L810.284 796.473C810.21 796.509 810.116 796.496 810.059 796.441L807.138 793.633C807.089 793.586 807.078 793.518 807.108 793.461L810.537 787.091Z" fill="url(#paint12_linear)"/>
<path d="M810.041 819.842H811.316V825.824L810.059 827L810.041 819.842Z" fill="#562E4A"/>
<path d="M810.041 819.842H811.316V825.824L810.059 827L810.041 819.842Z" fill="url(#paint13_linear)"/>
<path d="M777.713 806.305C777.713 814.433 774.573 821.023 770.7 821.023C766.828 821.023 762.869 814.433 762.869 806.305C762.869 798.177 766.828 791.588 770.7 791.588C774.573 791.588 777.713 798.177 777.713 806.305Z" fill="#562E4A"/>
<path d="M777.713 806.305C777.713 814.433 774.573 821.023 770.7 821.023C766.828 821.023 762.869 814.433 762.869 806.305C762.869 798.177 766.828 791.588 770.7 791.588C774.573 791.588 777.713 798.177 777.713 806.305Z" fill="url(#paint14_linear)"/>
<path d="M761.241 805.383C761.177 805.128 761.264 804.861 761.473 804.672L764.236 802.173C764.699 801.754 765.51 801.897 765.747 802.44L768.08 807.798C768.259 808.208 768.016 808.665 767.539 808.815L763.484 810.09C762.966 810.253 762.4 809.983 762.283 809.518L761.241 805.383Z" fill="#562E4A"/>
<path d="M761.241 805.383C761.177 805.128 761.264 804.861 761.473 804.672L764.236 802.173C764.699 801.754 765.51 801.897 765.747 802.44L768.08 807.798C768.259 808.208 768.016 808.665 767.539 808.815L763.484 810.09C762.966 810.253 762.4 809.983 762.283 809.518L761.241 805.383Z" fill="url(#paint15_linear)"/>
<path d="M761.638 797.569C761.611 797.279 761.771 796.999 762.056 796.842L765.68 794.844C766.239 794.536 766.98 794.831 767.071 795.399L768.423 803.781C768.486 804.173 768.203 804.545 767.761 804.649L763.473 805.661C762.923 805.791 762.371 805.457 762.325 804.965L761.638 797.569Z" fill="#562E4A"/>
<path d="M761.638 797.569C761.611 797.279 761.771 796.999 762.056 796.842L765.68 794.844C766.239 794.536 766.98 794.831 767.071 795.399L768.423 803.781C768.486 804.173 768.203 804.545 767.761 804.649L763.473 805.661C762.923 805.791 762.371 805.457 762.325 804.965L761.638 797.569Z" fill="url(#paint16_linear)"/>
<path d="M761.214 812.195C760.953 811.927 760.928 811.543 761.153 811.252L763.256 808.52C763.626 808.04 764.45 808.056 764.794 808.55L768.98 814.559C769.23 814.917 769.111 815.382 768.709 815.617L766.735 816.77C766.349 816.995 765.828 816.932 765.528 816.624L761.214 812.195Z" fill="#562E4A"/>
<path d="M761.214 812.195C760.953 811.927 760.928 811.543 761.153 811.252L763.256 808.52C763.626 808.04 764.45 808.056 764.794 808.55L768.98 814.559C769.23 814.917 769.111 815.382 768.709 815.617L766.735 816.77C766.349 816.995 765.828 816.932 765.528 816.624L761.214 812.195Z" fill="url(#paint17_linear)"/>
<path d="M763.73 817.281C763.332 817.034 763.231 816.559 763.503 816.206L764.528 814.875C764.86 814.445 765.574 814.403 765.969 814.791L769.643 818.397C769.938 818.686 769.947 819.116 769.665 819.415L769.281 819.82C768.977 820.142 768.436 820.204 768.045 819.961L763.73 817.281Z" fill="#562E4A"/>
<path d="M763.73 817.281C763.332 817.034 763.231 816.559 763.503 816.206L764.528 814.875C764.86 814.445 765.574 814.403 765.969 814.791L769.643 818.397C769.938 818.686 769.947 819.116 769.665 819.415L769.281 819.82C768.977 820.142 768.436 820.204 768.045 819.961L763.73 817.281Z" fill="url(#paint18_linear)"/>
<path d="M780.967 804.745C781.086 804.374 780.877 803.981 780.475 803.816L776.888 802.347C776.402 802.148 775.828 802.355 775.649 802.792L773.559 807.904C773.395 808.304 773.627 808.747 774.083 808.905L778.141 810.31C778.643 810.483 779.204 810.243 779.348 809.793L780.967 804.745Z" fill="#562E4A"/>
<path d="M780.967 804.745C781.086 804.374 780.877 803.981 780.475 803.816L776.888 802.347C776.402 802.148 775.828 802.355 775.649 802.792L773.559 807.904C773.395 808.304 773.627 808.747 774.083 808.905L778.141 810.31C778.643 810.483 779.204 810.243 779.348 809.793L780.967 804.745Z" fill="url(#paint19_linear)"/>
<path d="M780.392 798.374C780.421 798.1 780.283 797.833 780.029 797.668L776.008 795.063C775.453 794.703 774.659 794.989 774.565 795.582L773.255 803.808C773.189 804.222 773.508 804.61 773.981 804.692L778.636 805.503C779.165 805.595 779.667 805.271 779.716 804.806L780.392 798.374Z" fill="#562E4A"/>
<path d="M780.392 798.374C780.421 798.1 780.283 797.833 780.029 797.668L776.008 795.063C775.453 794.703 774.659 794.989 774.565 795.582L773.255 803.808C773.189 804.222 773.508 804.61 773.981 804.692L778.636 805.503C779.165 805.595 779.667 805.271 779.716 804.806L780.392 798.374Z" fill="url(#paint20_linear)"/>
<path d="M776.224 793.526L770.56 789.856L768.923 800.138L774.176 801.211L776.224 797.569L776.224 793.526Z" fill="#562E4A"/>
<path d="M776.224 793.526L770.56 789.856L768.923 800.138L774.176 801.211L776.224 797.569L776.224 793.526Z" fill="url(#paint21_linear)"/>
<path d="M776.259 793.892C776.237 793.66 776.097 793.448 775.878 793.313L773.527 791.86C773.405 791.785 773.306 791.685 773.239 791.569L771.987 789.404C771.58 788.701 770.37 788.884 770.27 789.663L769.013 799.441C768.962 799.838 769.263 800.207 769.713 800.299L773.528 801.078C773.914 801.157 774.313 801.011 774.515 800.716L776.472 797.864C776.568 797.723 776.611 797.56 776.596 797.397L776.259 793.892Z" fill="#562E4A"/>
<path d="M776.259 793.892C776.237 793.66 776.097 793.448 775.878 793.313L773.527 791.86C773.405 791.785 773.306 791.685 773.239 791.569L771.987 789.404C771.58 788.701 770.37 788.884 770.27 789.663L769.013 799.441C768.962 799.838 769.263 800.207 769.713 800.299L773.528 801.078C773.914 801.157 774.313 801.011 774.515 800.716L776.472 797.864C776.568 797.723 776.611 797.56 776.596 797.397L776.259 793.892Z" fill="url(#paint22_linear)"/>
<path d="M764.989 793.876C764.988 793.623 765.128 793.387 765.365 793.24L767.964 791.625C768.086 791.549 768.185 791.448 768.25 791.33L769.237 789.561C769.633 788.852 770.863 789.036 770.965 789.821L772.223 799.428C772.275 799.825 771.974 800.191 771.523 800.279L767.763 801.016C767.349 801.097 766.924 800.92 766.737 800.59L765.089 797.669C765.029 797.562 764.997 797.445 764.997 797.326L764.989 793.876Z" fill="#562E4A"/>
<path d="M764.989 793.876C764.988 793.623 765.128 793.387 765.365 793.24L767.964 791.625C768.086 791.549 768.185 791.448 768.25 791.33L769.237 789.561C769.633 788.852 770.863 789.036 770.965 789.821L772.223 799.428C772.275 799.825 771.974 800.191 771.523 800.279L767.763 801.016C767.349 801.097 766.924 800.92 766.737 800.59L765.089 797.669C765.029 797.562 764.997 797.445 764.997 797.326L764.989 793.876Z" fill="url(#paint23_linear)"/>
<path d="M780.366 812.271C780.623 812.004 780.646 811.622 780.425 811.331L778.36 808.615C777.99 808.128 777.165 808.141 776.823 808.639L772.696 814.639C772.45 814.997 772.57 815.462 772.969 815.698L774.902 816.842C775.289 817.071 775.811 817.009 776.109 816.699L780.366 812.271Z" fill="#562E4A"/>
<path d="M780.366 812.271C780.623 812.004 780.646 811.622 780.425 811.331L778.36 808.615C777.99 808.128 777.165 808.141 776.823 808.639L772.696 814.639C772.45 814.997 772.57 815.462 772.969 815.698L774.902 816.842C775.289 817.071 775.811 817.009 776.109 816.699L780.366 812.271Z" fill="url(#paint24_linear)"/>
<path d="M777.884 817.358C778.276 817.111 778.373 816.639 778.105 816.286L777.103 814.968C776.771 814.532 776.054 814.487 775.66 814.879L772.04 818.478C771.75 818.766 771.742 819.195 772.021 819.494L772.39 819.889C772.695 820.216 773.24 820.279 773.63 820.034L777.884 817.358Z" fill="#562E4A"/>
<path d="M777.884 817.358C778.276 817.111 778.373 816.639 778.105 816.286L777.103 814.968C776.771 814.532 776.054 814.487 775.66 814.879L772.04 818.478C771.75 818.766 771.742 819.195 772.021 819.494L772.39 819.889C772.695 820.216 773.24 820.279 773.63 820.034L777.884 817.358Z" fill="url(#paint25_linear)"/>
<path d="M770.537 787.091C770.602 786.97 770.8 786.97 770.867 787.09L774.726 794.131C774.767 794.206 774.734 794.295 774.651 794.336L770.284 796.473C770.21 796.509 770.116 796.496 770.059 796.441L767.138 793.633C767.089 793.586 767.078 793.518 767.108 793.461L770.537 787.091Z" fill="#562E4A"/>
<path d="M770.537 787.091C770.602 786.97 770.8 786.97 770.867 787.09L774.726 794.131C774.767 794.206 774.734 794.295 774.651 794.336L770.284 796.473C770.21 796.509 770.116 796.496 770.059 796.441L767.138 793.633C767.089 793.586 767.078 793.518 767.108 793.461L770.537 787.091Z" fill="url(#paint26_linear)"/>
<path d="M770.041 819.842H771.316V825.824L770.059 827L770.041 819.842Z" fill="#562E4A"/>
<path d="M770.041 819.842H771.316V825.824L770.059 827L770.041 819.842Z" fill="url(#paint27_linear)"/>
<path d="M737.713 806.305C737.713 814.433 734.573 821.023 730.7 821.023C726.828 821.023 722.869 814.433 722.869 806.305C722.869 798.177 726.828 791.588 730.7 791.588C734.573 791.588 737.713 798.177 737.713 806.305Z" fill="#562E4A"/>
<path d="M737.713 806.305C737.713 814.433 734.573 821.023 730.7 821.023C726.828 821.023 722.869 814.433 722.869 806.305C722.869 798.177 726.828 791.588 730.7 791.588C734.573 791.588 737.713 798.177 737.713 806.305Z" fill="url(#paint28_linear)"/>
<path d="M721.241 805.383C721.177 805.128 721.264 804.861 721.473 804.672L724.236 802.173C724.699 801.754 725.51 801.897 725.747 802.44L728.08 807.798C728.259 808.208 728.016 808.665 727.539 808.815L723.484 810.09C722.966 810.253 722.4 809.983 722.283 809.518L721.241 805.383Z" fill="#562E4A"/>
<path d="M721.241 805.383C721.177 805.128 721.264 804.861 721.473 804.672L724.236 802.173C724.699 801.754 725.51 801.897 725.747 802.44L728.08 807.798C728.259 808.208 728.016 808.665 727.539 808.815L723.484 810.09C722.966 810.253 722.4 809.983 722.283 809.518L721.241 805.383Z" fill="url(#paint29_linear)"/>
<path d="M721.638 797.569C721.611 797.279 721.771 796.999 722.056 796.842L725.68 794.844C726.239 794.536 726.98 794.831 727.071 795.399L728.423 803.781C728.486 804.173 728.203 804.545 727.761 804.649L723.473 805.661C722.923 805.791 722.371 805.457 722.325 804.965L721.638 797.569Z" fill="#562E4A"/>
<path d="M721.638 797.569C721.611 797.279 721.771 796.999 722.056 796.842L725.68 794.844C726.239 794.536 726.98 794.831 727.071 795.399L728.423 803.781C728.486 804.173 728.203 804.545 727.761 804.649L723.473 805.661C722.923 805.791 722.371 805.457 722.325 804.965L721.638 797.569Z" fill="url(#paint30_linear)"/>
<path d="M721.214 812.195C720.953 811.927 720.928 811.543 721.153 811.252L723.256 808.52C723.626 808.04 724.45 808.056 724.794 808.55L728.98 814.559C729.23 814.917 729.111 815.382 728.709 815.617L726.735 816.77C726.349 816.995 725.828 816.932 725.528 816.624L721.214 812.195Z" fill="#562E4A"/>
<path d="M721.214 812.195C720.953 811.927 720.928 811.543 721.153 811.252L723.256 808.52C723.626 808.04 724.45 808.056 724.794 808.55L728.98 814.559C729.23 814.917 729.111 815.382 728.709 815.617L726.735 816.77C726.349 816.995 725.828 816.932 725.528 816.624L721.214 812.195Z" fill="url(#paint31_linear)"/>
<path d="M723.73 817.281C723.332 817.034 723.231 816.559 723.503 816.206L724.528 814.875C724.86 814.445 725.574 814.403 725.969 814.791L729.643 818.397C729.938 818.686 729.947 819.116 729.665 819.415L729.281 819.82C728.977 820.142 728.436 820.204 728.045 819.961L723.73 817.281Z" fill="#562E4A"/>
<path d="M723.73 817.281C723.332 817.034 723.231 816.559 723.503 816.206L724.528 814.875C724.86 814.445 725.574 814.403 725.969 814.791L729.643 818.397C729.938 818.686 729.947 819.116 729.665 819.415L729.281 819.82C728.977 820.142 728.436 820.204 728.045 819.961L723.73 817.281Z" fill="url(#paint32_linear)"/>
<path d="M740.967 804.745C741.086 804.374 740.877 803.981 740.475 803.816L736.888 802.347C736.402 802.148 735.828 802.355 735.649 802.792L733.559 807.904C733.395 808.304 733.627 808.747 734.083 808.905L738.141 810.31C738.643 810.483 739.204 810.243 739.348 809.793L740.967 804.745Z" fill="#562E4A"/>
<path d="M740.967 804.745C741.086 804.374 740.877 803.981 740.475 803.816L736.888 802.347C736.402 802.148 735.828 802.355 735.649 802.792L733.559 807.904C733.395 808.304 733.627 808.747 734.083 808.905L738.141 810.31C738.643 810.483 739.204 810.243 739.348 809.793L740.967 804.745Z" fill="url(#paint33_linear)"/>
<path d="M740.392 798.374C740.421 798.1 740.283 797.833 740.029 797.668L736.008 795.063C735.453 794.703 734.659 794.989 734.565 795.582L733.255 803.808C733.189 804.222 733.508 804.61 733.981 804.692L738.636 805.503C739.165 805.595 739.667 805.271 739.716 804.806L740.392 798.374Z" fill="#562E4A"/>
<path d="M740.392 798.374C740.421 798.1 740.283 797.833 740.029 797.668L736.008 795.063C735.453 794.703 734.659 794.989 734.565 795.582L733.255 803.808C733.189 804.222 733.508 804.61 733.981 804.692L738.636 805.503C739.165 805.595 739.667 805.271 739.716 804.806L740.392 798.374Z" fill="url(#paint34_linear)"/>
<path d="M736.224 793.526L730.56 789.856L728.923 800.138L734.176 801.211L736.224 797.569L736.224 793.526Z" fill="#562E4A"/>
<path d="M736.224 793.526L730.56 789.856L728.923 800.138L734.176 801.211L736.224 797.569L736.224 793.526Z" fill="url(#paint35_linear)"/>
<path d="M736.259 793.892C736.237 793.66 736.097 793.448 735.878 793.313L733.527 791.86C733.405 791.785 733.306 791.685 733.239 791.569L731.987 789.404C731.58 788.701 730.37 788.884 730.27 789.663L729.013 799.441C728.962 799.838 729.263 800.207 729.713 800.299L733.528 801.078C733.914 801.157 734.313 801.011 734.515 800.716L736.472 797.864C736.568 797.723 736.611 797.56 736.596 797.397L736.259 793.892Z" fill="#562E4A"/>
<path d="M736.259 793.892C736.237 793.66 736.097 793.448 735.878 793.313L733.527 791.86C733.405 791.785 733.306 791.685 733.239 791.569L731.987 789.404C731.58 788.701 730.37 788.884 730.27 789.663L729.013 799.441C728.962 799.838 729.263 800.207 729.713 800.299L733.528 801.078C733.914 801.157 734.313 801.011 734.515 800.716L736.472 797.864C736.568 797.723 736.611 797.56 736.596 797.397L736.259 793.892Z" fill="url(#paint36_linear)"/>
<path d="M724.989 793.876C724.988 793.623 725.128 793.387 725.365 793.24L727.964 791.625C728.086 791.549 728.185 791.448 728.25 791.33L729.237 789.561C729.633 788.852 730.863 789.036 730.965 789.821L732.223 799.428C732.275 799.825 731.974 800.191 731.523 800.279L727.763 801.016C727.349 801.097 726.924 800.92 726.737 800.59L725.089 797.669C725.029 797.562 724.997 797.445 724.997 797.326L724.989 793.876Z" fill="#562E4A"/>
<path d="M724.989 793.876C724.988 793.623 725.128 793.387 725.365 793.24L727.964 791.625C728.086 791.549 728.185 791.448 728.25 791.33L729.237 789.561C729.633 788.852 730.863 789.036 730.965 789.821L732.223 799.428C732.275 799.825 731.974 800.191 731.523 800.279L727.763 801.016C727.349 801.097 726.924 800.92 726.737 800.59L725.089 797.669C725.029 797.562 724.997 797.445 724.997 797.326L724.989 793.876Z" fill="url(#paint37_linear)"/>
<path d="M740.366 812.271C740.623 812.004 740.646 811.622 740.425 811.331L738.36 808.615C737.99 808.128 737.165 808.141 736.823 808.639L732.696 814.639C732.45 814.997 732.57 815.462 732.969 815.698L734.902 816.842C735.289 817.071 735.811 817.009 736.109 816.699L740.366 812.271Z" fill="#562E4A"/>
<path d="M740.366 812.271C740.623 812.004 740.646 811.622 740.425 811.331L738.36 808.615C737.99 808.128 737.165 808.141 736.823 808.639L732.696 814.639C732.45 814.997 732.57 815.462 732.969 815.698L734.902 816.842C735.289 817.071 735.811 817.009 736.109 816.699L740.366 812.271Z" fill="url(#paint38_linear)"/>
<path d="M737.884 817.358C738.276 817.111 738.373 816.639 738.105 816.286L737.103 814.968C736.771 814.532 736.054 814.487 735.66 814.879L732.04 818.478C731.75 818.766 731.742 819.195 732.021 819.494L732.39 819.889C732.695 820.216 733.24 820.279 733.63 820.034L737.884 817.358Z" fill="#562E4A"/>
<path d="M737.884 817.358C738.276 817.111 738.373 816.639 738.105 816.286L737.103 814.968C736.771 814.532 736.054 814.487 735.66 814.879L732.04 818.478C731.75 818.766 731.742 819.195 732.021 819.494L732.39 819.889C732.695 820.216 733.24 820.279 733.63 820.034L737.884 817.358Z" fill="url(#paint39_linear)"/>
<path d="M730.537 787.091C730.602 786.97 730.8 786.97 730.867 787.09L734.726 794.131C734.767 794.206 734.734 794.295 734.651 794.336L730.284 796.473C730.21 796.509 730.116 796.496 730.059 796.441L727.138 793.633C727.089 793.586 727.078 793.518 727.108 793.461L730.537 787.091Z" fill="#562E4A"/>
<path d="M730.537 787.091C730.602 786.97 730.8 786.97 730.867 787.09L734.726 794.131C734.767 794.206 734.734 794.295 734.651 794.336L730.284 796.473C730.21 796.509 730.116 796.496 730.059 796.441L727.138 793.633C727.089 793.586 727.078 793.518 727.108 793.461L730.537 787.091Z" fill="url(#paint40_linear)"/>
<path d="M730.041 819.842H731.316V825.824L730.059 827L730.041 819.842Z" fill="#562E4A"/>
<path d="M730.041 819.842H731.316V825.824L730.059 827L730.041 819.842Z" fill="url(#paint41_linear)"/>
<path d="M697.713 806.305C697.713 814.433 694.573 821.023 690.7 821.023C686.828 821.023 682.869 814.433 682.869 806.305C682.869 798.177 686.828 791.588 690.7 791.588C694.573 791.588 697.713 798.177 697.713 806.305Z" fill="#562E4A"/>
<path d="M697.713 806.305C697.713 814.433 694.573 821.023 690.7 821.023C686.828 821.023 682.869 814.433 682.869 806.305C682.869 798.177 686.828 791.588 690.7 791.588C694.573 791.588 697.713 798.177 697.713 806.305Z" fill="url(#paint42_linear)"/>
<path d="M681.241 805.383C681.177 805.128 681.264 804.861 681.473 804.672L684.236 802.173C684.699 801.754 685.51 801.897 685.747 802.44L688.08 807.798C688.259 808.208 688.016 808.665 687.539 808.815L683.484 810.09C682.966 810.253 682.4 809.983 682.283 809.518L681.241 805.383Z" fill="#562E4A"/>
<path d="M681.241 805.383C681.177 805.128 681.264 804.861 681.473 804.672L684.236 802.173C684.699 801.754 685.51 801.897 685.747 802.44L688.08 807.798C688.259 808.208 688.016 808.665 687.539 808.815L683.484 810.09C682.966 810.253 682.4 809.983 682.283 809.518L681.241 805.383Z" fill="url(#paint43_linear)"/>
<path d="M681.638 797.569C681.611 797.279 681.771 796.999 682.056 796.842L685.68 794.844C686.239 794.536 686.98 794.831 687.071 795.399L688.423 803.781C688.486 804.173 688.203 804.545 687.761 804.649L683.473 805.661C682.923 805.791 682.371 805.457 682.325 804.965L681.638 797.569Z" fill="#562E4A"/>
<path d="M681.638 797.569C681.611 797.279 681.771 796.999 682.056 796.842L685.68 794.844C686.239 794.536 686.98 794.831 687.071 795.399L688.423 803.781C688.486 804.173 688.203 804.545 687.761 804.649L683.473 805.661C682.923 805.791 682.371 805.457 682.325 804.965L681.638 797.569Z" fill="url(#paint44_linear)"/>
<path d="M681.214 812.195C680.953 811.927 680.928 811.543 681.153 811.252L683.256 808.52C683.626 808.04 684.45 808.056 684.794 808.55L688.98 814.559C689.23 814.917 689.111 815.382 688.709 815.617L686.735 816.77C686.349 816.995 685.828 816.932 685.528 816.624L681.214 812.195Z" fill="#562E4A"/>
<path d="M681.214 812.195C680.953 811.927 680.928 811.543 681.153 811.252L683.256 808.52C683.626 808.04 684.45 808.056 684.794 808.55L688.98 814.559C689.23 814.917 689.111 815.382 688.709 815.617L686.735 816.77C686.349 816.995 685.828 816.932 685.528 816.624L681.214 812.195Z" fill="url(#paint45_linear)"/>
<path d="M683.73 817.281C683.332 817.034 683.231 816.559 683.503 816.206L684.528 814.875C684.86 814.445 685.574 814.403 685.969 814.791L689.643 818.397C689.938 818.686 689.947 819.116 689.665 819.415L689.281 819.82C688.977 820.142 688.436 820.204 688.045 819.961L683.73 817.281Z" fill="#562E4A"/>
<path d="M683.73 817.281C683.332 817.034 683.231 816.559 683.503 816.206L684.528 814.875C684.86 814.445 685.574 814.403 685.969 814.791L689.643 818.397C689.938 818.686 689.947 819.116 689.665 819.415L689.281 819.82C688.977 820.142 688.436 820.204 688.045 819.961L683.73 817.281Z" fill="url(#paint46_linear)"/>
<path d="M700.967 804.745C701.086 804.374 700.877 803.981 700.475 803.816L696.888 802.347C696.402 802.148 695.828 802.355 695.649 802.792L693.559 807.904C693.395 808.304 693.627 808.747 694.083 808.905L698.141 810.31C698.643 810.483 699.204 810.243 699.348 809.793L700.967 804.745Z" fill="#562E4A"/>
<path d="M700.967 804.745C701.086 804.374 700.877 803.981 700.475 803.816L696.888 802.347C696.402 802.148 695.828 802.355 695.649 802.792L693.559 807.904C693.395 808.304 693.627 808.747 694.083 808.905L698.141 810.31C698.643 810.483 699.204 810.243 699.348 809.793L700.967 804.745Z" fill="url(#paint47_linear)"/>
<path d="M700.392 798.374C700.421 798.1 700.283 797.833 700.029 797.668L696.008 795.063C695.453 794.703 694.659 794.989 694.565 795.582L693.255 803.808C693.189 804.222 693.508 804.61 693.981 804.692L698.636 805.503C699.165 805.595 699.667 805.271 699.716 804.806L700.392 798.374Z" fill="#562E4A"/>
<path d="M700.392 798.374C700.421 798.1 700.283 797.833 700.029 797.668L696.008 795.063C695.453 794.703 694.659 794.989 694.565 795.582L693.255 803.808C693.189 804.222 693.508 804.61 693.981 804.692L698.636 805.503C699.165 805.595 699.667 805.271 699.716 804.806L700.392 798.374Z" fill="url(#paint48_linear)"/>
<path d="M696.224 793.526L690.56 789.856L688.923 800.138L694.176 801.211L696.224 797.569L696.224 793.526Z" fill="#562E4A"/>
<path d="M696.224 793.526L690.56 789.856L688.923 800.138L694.176 801.211L696.224 797.569L696.224 793.526Z" fill="url(#paint49_linear)"/>
<path d="M696.259 793.892C696.237 793.66 696.097 793.448 695.878 793.313L693.527 791.86C693.405 791.785 693.306 791.685 693.239 791.569L691.987 789.404C691.58 788.701 690.37 788.884 690.27 789.663L689.013 799.441C688.962 799.838 689.263 800.207 689.713 800.299L693.528 801.078C693.914 801.157 694.313 801.011 694.515 800.716L696.472 797.864C696.568 797.723 696.611 797.56 696.596 797.397L696.259 793.892Z" fill="#562E4A"/>
<path d="M696.259 793.892C696.237 793.66 696.097 793.448 695.878 793.313L693.527 791.86C693.405 791.785 693.306 791.685 693.239 791.569L691.987 789.404C691.58 788.701 690.37 788.884 690.27 789.663L689.013 799.441C688.962 799.838 689.263 800.207 689.713 800.299L693.528 801.078C693.914 801.157 694.313 801.011 694.515 800.716L696.472 797.864C696.568 797.723 696.611 797.56 696.596 797.397L696.259 793.892Z" fill="url(#paint50_linear)"/>
<path d="M684.989 793.876C684.988 793.623 685.128 793.387 685.365 793.24L687.964 791.625C688.086 791.549 688.185 791.448 688.25 791.33L689.237 789.561C689.633 788.852 690.863 789.036 690.965 789.821L692.223 799.428C692.275 799.825 691.974 800.191 691.523 800.279L687.763 801.016C687.349 801.097 686.924 800.92 686.737 800.59L685.089 797.669C685.029 797.562 684.997 797.445 684.997 797.326L684.989 793.876Z" fill="#562E4A"/>
<path d="M684.989 793.876C684.988 793.623 685.128 793.387 685.365 793.24L687.964 791.625C688.086 791.549 688.185 791.448 688.25 791.33L689.237 789.561C689.633 788.852 690.863 789.036 690.965 789.821L692.223 799.428C692.275 799.825 691.974 800.191 691.523 800.279L687.763 801.016C687.349 801.097 686.924 800.92 686.737 800.59L685.089 797.669C685.029 797.562 684.997 797.445 684.997 797.326L684.989 793.876Z" fill="url(#paint51_linear)"/>
<path d="M700.366 812.271C700.623 812.004 700.646 811.622 700.425 811.331L698.36 808.615C697.99 808.128 697.165 808.141 696.823 808.639L692.696 814.639C692.45 814.997 692.57 815.462 692.969 815.698L694.902 816.842C695.289 817.071 695.811 817.009 696.109 816.699L700.366 812.271Z" fill="#562E4A"/>
<path d="M700.366 812.271C700.623 812.004 700.646 811.622 700.425 811.331L698.36 808.615C697.99 808.128 697.165 808.141 696.823 808.639L692.696 814.639C692.45 814.997 692.57 815.462 692.969 815.698L694.902 816.842C695.289 817.071 695.811 817.009 696.109 816.699L700.366 812.271Z" fill="url(#paint52_linear)"/>
<path d="M697.884 817.358C698.276 817.111 698.373 816.639 698.105 816.286L697.103 814.968C696.771 814.532 696.054 814.487 695.66 814.879L692.04 818.478C691.75 818.766 691.742 819.195 692.021 819.494L692.39 819.889C692.695 820.216 693.24 820.279 693.63 820.034L697.884 817.358Z" fill="#562E4A"/>
<path d="M697.884 817.358C698.276 817.111 698.373 816.639 698.105 816.286L697.103 814.968C696.771 814.532 696.054 814.487 695.66 814.879L692.04 818.478C691.75 818.766 691.742 819.195 692.021 819.494L692.39 819.889C692.695 820.216 693.24 820.279 693.63 820.034L697.884 817.358Z" fill="url(#paint53_linear)"/>
<path d="M690.537 787.091C690.602 786.97 690.8 786.97 690.867 787.09L694.726 794.131C694.767 794.206 694.734 794.295 694.651 794.336L690.284 796.473C690.21 796.509 690.116 796.496 690.059 796.441L687.138 793.633C687.089 793.586 687.078 793.518 687.108 793.461L690.537 787.091Z" fill="#562E4A"/>
<path d="M690.537 787.091C690.602 786.97 690.8 786.97 690.867 787.09L694.726 794.131C694.767 794.206 694.734 794.295 694.651 794.336L690.284 796.473C690.21 796.509 690.116 796.496 690.059 796.441L687.138 793.633C687.089 793.586 687.078 793.518 687.108 793.461L690.537 787.091Z" fill="url(#paint54_linear)"/>
<path d="M690.041 819.842H691.316V825.824L690.059 827L690.041 819.842Z" fill="#562E4A"/>
<path d="M690.041 819.842H691.316V825.824L690.059 827L690.041 819.842Z" fill="url(#paint55_linear)"/>
<path d="M617.713 806.305C617.713 814.433 614.573 821.023 610.7 821.023C606.828 821.023 602.869 814.433 602.869 806.305C602.869 798.177 606.828 791.588 610.7 791.588C614.573 791.588 617.713 798.177 617.713 806.305Z" fill="#562E4A"/>
<path d="M617.713 806.305C617.713 814.433 614.573 821.023 610.7 821.023C606.828 821.023 602.869 814.433 602.869 806.305C602.869 798.177 606.828 791.588 610.7 791.588C614.573 791.588 617.713 798.177 617.713 806.305Z" fill="url(#paint56_linear)"/>
<path d="M601.241 805.383C601.177 805.128 601.264 804.861 601.473 804.672L604.236 802.173C604.699 801.754 605.51 801.897 605.747 802.44L608.08 807.798C608.259 808.208 608.016 808.665 607.539 808.815L603.484 810.09C602.966 810.253 602.4 809.983 602.283 809.518L601.241 805.383Z" fill="#562E4A"/>
<path d="M601.241 805.383C601.177 805.128 601.264 804.861 601.473 804.672L604.236 802.173C604.699 801.754 605.51 801.897 605.747 802.44L608.08 807.798C608.259 808.208 608.016 808.665 607.539 808.815L603.484 810.09C602.966 810.253 602.4 809.983 602.283 809.518L601.241 805.383Z" fill="url(#paint57_linear)"/>
<path d="M601.638 797.569C601.611 797.279 601.771 796.999 602.056 796.842L605.68 794.844C606.239 794.536 606.98 794.831 607.071 795.399L608.423 803.781C608.486 804.173 608.203 804.545 607.761 804.649L603.473 805.661C602.923 805.791 602.371 805.457 602.325 804.965L601.638 797.569Z" fill="#562E4A"/>
<path d="M601.638 797.569C601.611 797.279 601.771 796.999 602.056 796.842L605.68 794.844C606.239 794.536 606.98 794.831 607.071 795.399L608.423 803.781C608.486 804.173 608.203 804.545 607.761 804.649L603.473 805.661C602.923 805.791 602.371 805.457 602.325 804.965L601.638 797.569Z" fill="url(#paint58_linear)"/>
<path d="M601.214 812.195C600.953 811.927 600.928 811.543 601.153 811.252L603.256 808.52C603.626 808.04 604.45 808.056 604.794 808.55L608.98 814.559C609.23 814.917 609.111 815.382 608.709 815.617L606.735 816.77C606.349 816.995 605.828 816.932 605.528 816.624L601.214 812.195Z" fill="#562E4A"/>
<path d="M601.214 812.195C600.953 811.927 600.928 811.543 601.153 811.252L603.256 808.52C603.626 808.04 604.45 808.056 604.794 808.55L608.98 814.559C609.23 814.917 609.111 815.382 608.709 815.617L606.735 816.77C606.349 816.995 605.828 816.932 605.528 816.624L601.214 812.195Z" fill="url(#paint59_linear)"/>
<path d="M603.73 817.281C603.332 817.034 603.231 816.559 603.503 816.206L604.528 814.875C604.86 814.445 605.574 814.403 605.969 814.791L609.643 818.397C609.938 818.686 609.947 819.116 609.665 819.415L609.281 819.82C608.977 820.142 608.436 820.204 608.045 819.961L603.73 817.281Z" fill="#562E4A"/>
<path d="M603.73 817.281C603.332 817.034 603.231 816.559 603.503 816.206L604.528 814.875C604.86 814.445 605.574 814.403 605.969 814.791L609.643 818.397C609.938 818.686 609.947 819.116 609.665 819.415L609.281 819.82C608.977 820.142 608.436 820.204 608.045 819.961L603.73 817.281Z" fill="url(#paint60_linear)"/>
<path d="M620.967 804.745C621.086 804.374 620.877 803.981 620.475 803.816L616.888 802.347C616.402 802.148 615.828 802.355 615.649 802.792L613.559 807.904C613.395 808.304 613.627 808.747 614.083 808.905L618.141 810.31C618.643 810.483 619.204 810.243 619.348 809.793L620.967 804.745Z" fill="#562E4A"/>
<path d="M620.967 804.745C621.086 804.374 620.877 803.981 620.475 803.816L616.888 802.347C616.402 802.148 615.828 802.355 615.649 802.792L613.559 807.904C613.395 808.304 613.627 808.747 614.083 808.905L618.141 810.31C618.643 810.483 619.204 810.243 619.348 809.793L620.967 804.745Z" fill="url(#paint61_linear)"/>
<path d="M620.392 798.374C620.421 798.1 620.283 797.833 620.029 797.668L616.008 795.063C615.453 794.703 614.659 794.989 614.565 795.582L613.255 803.808C613.189 804.222 613.508 804.61 613.981 804.692L618.636 805.503C619.165 805.595 619.667 805.271 619.716 804.806L620.392 798.374Z" fill="#562E4A"/>
<path d="M620.392 798.374C620.421 798.1 620.283 797.833 620.029 797.668L616.008 795.063C615.453 794.703 614.659 794.989 614.565 795.582L613.255 803.808C613.189 804.222 613.508 804.61 613.981 804.692L618.636 805.503C619.165 805.595 619.667 805.271 619.716 804.806L620.392 798.374Z" fill="url(#paint62_linear)"/>
<path d="M616.224 793.526L610.56 789.856L608.923 800.138L614.176 801.211L616.224 797.569L616.224 793.526Z" fill="#562E4A"/>
<path d="M616.224 793.526L610.56 789.856L608.923 800.138L614.176 801.211L616.224 797.569L616.224 793.526Z" fill="url(#paint63_linear)"/>
<path d="M616.259 793.892C616.237 793.66 616.097 793.448 615.878 793.313L613.527 791.86C613.405 791.785 613.306 791.685 613.239 791.569L611.987 789.404C611.58 788.701 610.37 788.884 610.27 789.663L609.013 799.441C608.962 799.838 609.263 800.207 609.713 800.299L613.528 801.078C613.914 801.157 614.313 801.011 614.515 800.716L616.472 797.864C616.568 797.723 616.611 797.56 616.596 797.397L616.259 793.892Z" fill="#562E4A"/>
<path d="M616.259 793.892C616.237 793.66 616.097 793.448 615.878 793.313L613.527 791.86C613.405 791.785 613.306 791.685 613.239 791.569L611.987 789.404C611.58 788.701 610.37 788.884 610.27 789.663L609.013 799.441C608.962 799.838 609.263 800.207 609.713 800.299L613.528 801.078C613.914 801.157 614.313 801.011 614.515 800.716L616.472 797.864C616.568 797.723 616.611 797.56 616.596 797.397L616.259 793.892Z" fill="url(#paint64_linear)"/>
<path d="M604.989 793.876C604.988 793.623 605.128 793.387 605.365 793.24L607.964 791.625C608.086 791.549 608.185 791.448 608.25 791.33L609.237 789.561C609.633 788.852 610.863 789.036 610.965 789.821L612.223 799.428C612.275 799.825 611.974 800.191 611.523 800.279L607.763 801.016C607.349 801.097 606.924 800.92 606.737 800.59L605.089 797.669C605.029 797.562 604.997 797.445 604.997 797.326L604.989 793.876Z" fill="#562E4A"/>
<path d="M604.989 793.876C604.988 793.623 605.128 793.387 605.365 793.24L607.964 791.625C608.086 791.549 608.185 791.448 608.25 791.33L609.237 789.561C609.633 788.852 610.863 789.036 610.965 789.821L612.223 799.428C612.275 799.825 611.974 800.191 611.523 800.279L607.763 801.016C607.349 801.097 606.924 800.92 606.737 800.59L605.089 797.669C605.029 797.562 604.997 797.445 604.997 797.326L604.989 793.876Z" fill="url(#paint65_linear)"/>
<path d="M620.366 812.271C620.623 812.004 620.646 811.622 620.425 811.331L618.36 808.615C617.99 808.128 617.165 808.141 616.823 808.639L612.696 814.639C612.45 814.997 612.57 815.462 612.969 815.698L614.902 816.842C615.289 817.071 615.811 817.009 616.109 816.699L620.366 812.271Z" fill="#562E4A"/>
<path d="M620.366 812.271C620.623 812.004 620.646 811.622 620.425 811.331L618.36 808.615C617.99 808.128 617.165 808.141 616.823 808.639L612.696 814.639C612.45 814.997 612.57 815.462 612.969 815.698L614.902 816.842C615.289 817.071 615.811 817.009 616.109 816.699L620.366 812.271Z" fill="url(#paint66_linear)"/>
<path d="M617.884 817.358C618.276 817.111 618.373 816.639 618.105 816.286L617.103 814.968C616.771 814.532 616.054 814.487 615.66 814.879L612.04 818.478C611.75 818.766 611.742 819.195 612.021 819.494L612.39 819.889C612.695 820.216 613.24 820.279 613.63 820.034L617.884 817.358Z" fill="#562E4A"/>
<path d="M617.884 817.358C618.276 817.111 618.373 816.639 618.105 816.286L617.103 814.968C616.771 814.532 616.054 814.487 615.66 814.879L612.04 818.478C611.75 818.766 611.742 819.195 612.021 819.494L612.39 819.889C612.695 820.216 613.24 820.279 613.63 820.034L617.884 817.358Z" fill="url(#paint67_linear)"/>
<path d="M610.537 787.091C610.602 786.97 610.8 786.97 610.867 787.09L614.726 794.131C614.767 794.206 614.734 794.295 614.651 794.336L610.284 796.473C610.21 796.509 610.116 796.496 610.059 796.441L607.138 793.633C607.089 793.586 607.078 793.518 607.108 793.461L610.537 787.091Z" fill="#562E4A"/>
<path d="M610.537 787.091C610.602 786.97 610.8 786.97 610.867 787.09L614.726 794.131C614.767 794.206 614.734 794.295 614.651 794.336L610.284 796.473C610.21 796.509 610.116 796.496 610.059 796.441L607.138 793.633C607.089 793.586 607.078 793.518 607.108 793.461L610.537 787.091Z" fill="url(#paint68_linear)"/>
<path d="M610.041 819.842H611.316V825.824L610.059 827L610.041 819.842Z" fill="#562E4A"/>
<path d="M610.041 819.842H611.316V825.824L610.059 827L610.041 819.842Z" fill="url(#paint69_linear)"/>
<path d="M577.713 806.305C577.713 814.433 574.573 821.023 570.7 821.023C566.828 821.023 562.869 814.433 562.869 806.305C562.869 798.177 566.828 791.588 570.7 791.588C574.573 791.588 577.713 798.177 577.713 806.305Z" fill="#562E4A"/>
<path d="M577.713 806.305C577.713 814.433 574.573 821.023 570.7 821.023C566.828 821.023 562.869 814.433 562.869 806.305C562.869 798.177 566.828 791.588 570.7 791.588C574.573 791.588 577.713 798.177 577.713 806.305Z" fill="url(#paint70_linear)"/>
<path d="M561.241 805.383C561.177 805.128 561.264 804.861 561.473 804.672L564.236 802.173C564.699 801.754 565.51 801.897 565.747 802.44L568.08 807.798C568.259 808.208 568.016 808.665 567.539 808.815L563.484 810.09C562.966 810.253 562.4 809.983 562.283 809.518L561.241 805.383Z" fill="#562E4A"/>
<path d="M561.241 805.383C561.177 805.128 561.264 804.861 561.473 804.672L564.236 802.173C564.699 801.754 565.51 801.897 565.747 802.44L568.08 807.798C568.259 808.208 568.016 808.665 567.539 808.815L563.484 810.09C562.966 810.253 562.4 809.983 562.283 809.518L561.241 805.383Z" fill="url(#paint71_linear)"/>
<path d="M561.638 797.569C561.611 797.279 561.771 796.999 562.056 796.842L565.68 794.844C566.239 794.536 566.98 794.831 567.071 795.399L568.423 803.781C568.486 804.173 568.203 804.545 567.761 804.649L563.473 805.661C562.923 805.791 562.371 805.457 562.325 804.965L561.638 797.569Z" fill="#562E4A"/>
<path d="M561.638 797.569C561.611 797.279 561.771 796.999 562.056 796.842L565.68 794.844C566.239 794.536 566.98 794.831 567.071 795.399L568.423 803.781C568.486 804.173 568.203 804.545 567.761 804.649L563.473 805.661C562.923 805.791 562.371 805.457 562.325 804.965L561.638 797.569Z" fill="url(#paint72_linear)"/>
<path d="M561.214 812.195C560.953 811.927 560.928 811.543 561.153 811.252L563.256 808.52C563.626 808.04 564.45 808.056 564.794 808.55L568.98 814.559C569.23 814.917 569.111 815.382 568.709 815.617L566.735 816.77C566.349 816.995 565.828 816.932 565.528 816.624L561.214 812.195Z" fill="#562E4A"/>
<path d="M561.214 812.195C560.953 811.927 560.928 811.543 561.153 811.252L563.256 808.52C563.626 808.04 564.45 808.056 564.794 808.55L568.98 814.559C569.23 814.917 569.111 815.382 568.709 815.617L566.735 816.77C566.349 816.995 565.828 816.932 565.528 816.624L561.214 812.195Z" fill="url(#paint73_linear)"/>
<path d="M563.73 817.281C563.332 817.034 563.231 816.559 563.503 816.206L564.528 814.875C564.86 814.445 565.574 814.403 565.969 814.791L569.643 818.397C569.938 818.686 569.947 819.116 569.665 819.415L569.281 819.82C568.977 820.142 568.436 820.204 568.045 819.961L563.73 817.281Z" fill="#562E4A"/>
<path d="M563.73 817.281C563.332 817.034 563.231 816.559 563.503 816.206L564.528 814.875C564.86 814.445 565.574 814.403 565.969 814.791L569.643 818.397C569.938 818.686 569.947 819.116 569.665 819.415L569.281 819.82C568.977 820.142 568.436 820.204 568.045 819.961L563.73 817.281Z" fill="url(#paint74_linear)"/>
<path d="M580.967 804.745C581.086 804.374 580.877 803.981 580.475 803.816L576.888 802.347C576.402 802.148 575.828 802.355 575.649 802.792L573.559 807.904C573.395 808.304 573.627 808.747 574.083 808.905L578.141 810.31C578.643 810.483 579.204 810.243 579.348 809.793L580.967 804.745Z" fill="#562E4A"/>
<path d="M580.967 804.745C581.086 804.374 580.877 803.981 580.475 803.816L576.888 802.347C576.402 802.148 575.828 802.355 575.649 802.792L573.559 807.904C573.395 808.304 573.627 808.747 574.083 808.905L578.141 810.31C578.643 810.483 579.204 810.243 579.348 809.793L580.967 804.745Z" fill="url(#paint75_linear)"/>
<path d="M580.392 798.374C580.421 798.1 580.283 797.833 580.029 797.668L576.008 795.063C575.453 794.703 574.659 794.989 574.565 795.582L573.255 803.808C573.189 804.222 573.508 804.61 573.981 804.692L578.636 805.503C579.165 805.595 579.667 805.271 579.716 804.806L580.392 798.374Z" fill="#562E4A"/>
<path d="M580.392 798.374C580.421 798.1 580.283 797.833 580.029 797.668L576.008 795.063C575.453 794.703 574.659 794.989 574.565 795.582L573.255 803.808C573.189 804.222 573.508 804.61 573.981 804.692L578.636 805.503C579.165 805.595 579.667 805.271 579.716 804.806L580.392 798.374Z" fill="url(#paint76_linear)"/>
<path d="M576.224 793.526L570.56 789.856L568.923 800.138L574.176 801.211L576.224 797.569L576.224 793.526Z" fill="#562E4A"/>
<path d="M576.224 793.526L570.56 789.856L568.923 800.138L574.176 801.211L576.224 797.569L576.224 793.526Z" fill="url(#paint77_linear)"/>
<path d="M576.259 793.892C576.237 793.66 576.097 793.448 575.878 793.313L573.527 791.86C573.405 791.785 573.306 791.685 573.239 791.569L571.987 789.404C571.58 788.701 570.37 788.884 570.27 789.663L569.013 799.441C568.962 799.838 569.263 800.207 569.713 800.299L573.528 801.078C573.914 801.157 574.313 801.011 574.515 800.716L576.472 797.864C576.568 797.723 576.611 797.56 576.596 797.397L576.259 793.892Z" fill="#562E4A"/>
<path d="M576.259 793.892C576.237 793.66 576.097 793.448 575.878 793.313L573.527 791.86C573.405 791.785 573.306 791.685 573.239 791.569L571.987 789.404C571.58 788.701 570.37 788.884 570.27 789.663L569.013 799.441C568.962 799.838 569.263 800.207 569.713 800.299L573.528 801.078C573.914 801.157 574.313 801.011 574.515 800.716L576.472 797.864C576.568 797.723 576.611 797.56 576.596 797.397L576.259 793.892Z" fill="url(#paint78_linear)"/>
<path d="M564.989 793.876C564.988 793.623 565.128 793.387 565.365 793.24L567.964 791.625C568.086 791.549 568.185 791.448 568.25 791.33L569.237 789.561C569.633 788.852 570.863 789.036 570.965 789.821L572.223 799.428C572.275 799.825 571.974 800.191 571.523 800.279L567.763 801.016C567.349 801.097 566.924 800.92 566.737 800.59L565.089 797.669C565.029 797.562 564.997 797.445 564.997 797.326L564.989 793.876Z" fill="#562E4A"/>
<path d="M564.989 793.876C564.988 793.623 565.128 793.387 565.365 793.24L567.964 791.625C568.086 791.549 568.185 791.448 568.25 791.33L569.237 789.561C569.633 788.852 570.863 789.036 570.965 789.821L572.223 799.428C572.275 799.825 571.974 800.191 571.523 800.279L567.763 801.016C567.349 801.097 566.924 800.92 566.737 800.59L565.089 797.669C565.029 797.562 564.997 797.445 564.997 797.326L564.989 793.876Z" fill="url(#paint79_linear)"/>
<path d="M580.366 812.271C580.623 812.004 580.646 811.622 580.425 811.331L578.36 808.615C577.99 808.128 577.165 808.141 576.823 808.639L572.696 814.639C572.45 814.997 572.57 815.462 572.969 815.698L574.902 816.842C575.289 817.071 575.811 817.009 576.109 816.699L580.366 812.271Z" fill="#562E4A"/>
<path d="M580.366 812.271C580.623 812.004 580.646 811.622 580.425 811.331L578.36 808.615C577.99 808.128 577.165 808.141 576.823 808.639L572.696 814.639C572.45 814.997 572.57 815.462 572.969 815.698L574.902 816.842C575.289 817.071 575.811 817.009 576.109 816.699L580.366 812.271Z" fill="url(#paint80_linear)"/>
<path d="M577.884 817.358C578.276 817.111 578.373 816.639 578.105 816.286L577.103 814.968C576.771 814.532 576.054 814.487 575.66 814.879L572.04 818.478C571.75 818.766 571.742 819.195 572.021 819.494L572.39 819.889C572.695 820.216 573.24 820.279 573.63 820.034L577.884 817.358Z" fill="#562E4A"/>
<path d="M577.884 817.358C578.276 817.111 578.373 816.639 578.105 816.286L577.103 814.968C576.771 814.532 576.054 814.487 575.66 814.879L572.04 818.478C571.75 818.766 571.742 819.195 572.021 819.494L572.39 819.889C572.695 820.216 573.24 820.279 573.63 820.034L577.884 817.358Z" fill="url(#paint81_linear)"/>
<path d="M570.537 787.091C570.602 786.97 570.8 786.97 570.867 787.09L574.726 794.131C574.767 794.206 574.734 794.295 574.651 794.336L570.284 796.473C570.21 796.509 570.116 796.496 570.059 796.441L567.138 793.633C567.089 793.586 567.078 793.518 567.108 793.461L570.537 787.091Z" fill="#562E4A"/>
<path d="M570.537 787.091C570.602 786.97 570.8 786.97 570.867 787.09L574.726 794.131C574.767 794.206 574.734 794.295 574.651 794.336L570.284 796.473C570.21 796.509 570.116 796.496 570.059 796.441L567.138 793.633C567.089 793.586 567.078 793.518 567.108 793.461L570.537 787.091Z" fill="url(#paint82_linear)"/>
<path d="M570.041 819.842H571.316V825.824L570.059 827L570.041 819.842Z" fill="#562E4A"/>
<path d="M570.041 819.842H571.316V825.824L570.059 827L570.041 819.842Z" fill="url(#paint83_linear)"/>
<path d="M537.713 806.305C537.713 814.433 534.573 821.023 530.7 821.023C526.828 821.023 522.869 814.433 522.869 806.305C522.869 798.177 526.828 791.588 530.7 791.588C534.573 791.588 537.713 798.177 537.713 806.305Z" fill="#562E4A"/>
<path d="M537.713 806.305C537.713 814.433 534.573 821.023 530.7 821.023C526.828 821.023 522.869 814.433 522.869 806.305C522.869 798.177 526.828 791.588 530.7 791.588C534.573 791.588 537.713 798.177 537.713 806.305Z" fill="url(#paint84_linear)"/>
<path d="M521.241 805.383C521.177 805.128 521.264 804.861 521.473 804.672L524.236 802.173C524.699 801.754 525.51 801.897 525.747 802.44L528.08 807.798C528.259 808.208 528.016 808.665 527.539 808.815L523.484 810.09C522.966 810.253 522.4 809.983 522.283 809.518L521.241 805.383Z" fill="#562E4A"/>
<path d="M521.241 805.383C521.177 805.128 521.264 804.861 521.473 804.672L524.236 802.173C524.699 801.754 525.51 801.897 525.747 802.44L528.08 807.798C528.259 808.208 528.016 808.665 527.539 808.815L523.484 810.09C522.966 810.253 522.4 809.983 522.283 809.518L521.241 805.383Z" fill="url(#paint85_linear)"/>
<path d="M521.638 797.569C521.611 797.279 521.771 796.999 522.056 796.842L525.68 794.844C526.239 794.536 526.98 794.831 527.071 795.399L528.423 803.781C528.486 804.173 528.203 804.545 527.761 804.649L523.473 805.661C522.923 805.791 522.371 805.457 522.325 804.965L521.638 797.569Z" fill="#562E4A"/>
<path d="M521.638 797.569C521.611 797.279 521.771 796.999 522.056 796.842L525.68 794.844C526.239 794.536 526.98 794.831 527.071 795.399L528.423 803.781C528.486 804.173 528.203 804.545 527.761 804.649L523.473 805.661C522.923 805.791 522.371 805.457 522.325 804.965L521.638 797.569Z" fill="url(#paint86_linear)"/>
<path d="M521.214 812.195C520.953 811.927 520.928 811.543 521.153 811.252L523.256 808.52C523.626 808.04 524.45 808.056 524.794 808.55L528.98 814.559C529.23 814.917 529.111 815.382 528.709 815.617L526.735 816.77C526.349 816.995 525.828 816.932 525.528 816.624L521.214 812.195Z" fill="#562E4A"/>
<path d="M521.214 812.195C520.953 811.927 520.928 811.543 521.153 811.252L523.256 808.52C523.626 808.04 524.45 808.056 524.794 808.55L528.98 814.559C529.23 814.917 529.111 815.382 528.709 815.617L526.735 816.77C526.349 816.995 525.828 816.932 525.528 816.624L521.214 812.195Z" fill="url(#paint87_linear)"/>
<path d="M523.73 817.281C523.332 817.034 523.231 816.559 523.503 816.206L524.528 814.875C524.86 814.445 525.574 814.403 525.969 814.791L529.643 818.397C529.938 818.686 529.947 819.116 529.665 819.415L529.281 819.82C528.977 820.142 528.436 820.204 528.045 819.961L523.73 817.281Z" fill="#562E4A"/>
<path d="M523.73 817.281C523.332 817.034 523.231 816.559 523.503 816.206L524.528 814.875C524.86 814.445 525.574 814.403 525.969 814.791L529.643 818.397C529.938 818.686 529.947 819.116 529.665 819.415L529.281 819.82C528.977 820.142 528.436 820.204 528.045 819.961L523.73 817.281Z" fill="url(#paint88_linear)"/>
<path d="M540.967 804.745C541.086 804.374 540.877 803.981 540.475 803.816L536.888 802.347C536.402 802.148 535.828 802.355 535.649 802.792L533.559 807.904C533.395 808.304 533.627 808.747 534.083 808.905L538.141 810.31C538.643 810.483 539.204 810.243 539.348 809.793L540.967 804.745Z" fill="#562E4A"/>
<path d="M540.967 804.745C541.086 804.374 540.877 803.981 540.475 803.816L536.888 802.347C536.402 802.148 535.828 802.355 535.649 802.792L533.559 807.904C533.395 808.304 533.627 808.747 534.083 808.905L538.141 810.31C538.643 810.483 539.204 810.243 539.348 809.793L540.967 804.745Z" fill="url(#paint89_linear)"/>
<path d="M540.392 798.374C540.421 798.1 540.283 797.833 540.029 797.668L536.008 795.063C535.453 794.703 534.659 794.989 534.565 795.582L533.255 803.808C533.189 804.222 533.508 804.61 533.981 804.692L538.636 805.503C539.165 805.595 539.667 805.271 539.716 804.806L540.392 798.374Z" fill="#562E4A"/>
<path d="M540.392 798.374C540.421 798.1 540.283 797.833 540.029 797.668L536.008 795.063C535.453 794.703 534.659 794.989 534.565 795.582L533.255 803.808C533.189 804.222 533.508 804.61 533.981 804.692L538.636 805.503C539.165 805.595 539.667 805.271 539.716 804.806L540.392 798.374Z" fill="url(#paint90_linear)"/>
<path d="M536.224 793.526L530.56 789.856L528.923 800.138L534.176 801.211L536.224 797.569L536.224 793.526Z" fill="#562E4A"/>
<path d="M536.224 793.526L530.56 789.856L528.923 800.138L534.176 801.211L536.224 797.569L536.224 793.526Z" fill="url(#paint91_linear)"/>
<path d="M536.259 793.892C536.237 793.66 536.097 793.448 535.878 793.313L533.527 791.86C533.405 791.785 533.306 791.685 533.239 791.569L531.987 789.404C531.58 788.701 530.37 788.884 530.27 789.663L529.013 799.441C528.962 799.838 529.263 800.207 529.713 800.299L533.528 801.078C533.914 801.157 534.313 801.011 534.515 800.716L536.472 797.864C536.568 797.723 536.611 797.56 536.596 797.397L536.259 793.892Z" fill="#562E4A"/>
<path d="M536.259 793.892C536.237 793.66 536.097 793.448 535.878 793.313L533.527 791.86C533.405 791.785 533.306 791.685 533.239 791.569L531.987 789.404C531.58 788.701 530.37 788.884 530.27 789.663L529.013 799.441C528.962 799.838 529.263 800.207 529.713 800.299L533.528 801.078C533.914 801.157 534.313 801.011 534.515 800.716L536.472 797.864C536.568 797.723 536.611 797.56 536.596 797.397L536.259 793.892Z" fill="url(#paint92_linear)"/>
<path d="M524.989 793.876C524.988 793.623 525.128 793.387 525.365 793.24L527.964 791.625C528.086 791.549 528.185 791.448 528.25 791.33L529.237 789.561C529.633 788.852 530.863 789.036 530.965 789.821L532.223 799.428C532.275 799.825 531.974 800.191 531.523 800.279L527.763 801.016C527.349 801.097 526.924 800.92 526.737 800.59L525.089 797.669C525.029 797.562 524.997 797.445 524.997 797.326L524.989 793.876Z" fill="#562E4A"/>
<path d="M524.989 793.876C524.988 793.623 525.128 793.387 525.365 793.24L527.964 791.625C528.086 791.549 528.185 791.448 528.25 791.33L529.237 789.561C529.633 788.852 530.863 789.036 530.965 789.821L532.223 799.428C532.275 799.825 531.974 800.191 531.523 800.279L527.763 801.016C527.349 801.097 526.924 800.92 526.737 800.59L525.089 797.669C525.029 797.562 524.997 797.445 524.997 797.326L524.989 793.876Z" fill="url(#paint93_linear)"/>
<path d="M540.366 812.271C540.623 812.004 540.646 811.622 540.425 811.331L538.36 808.615C537.99 808.128 537.165 808.141 536.823 808.639L532.696 814.639C532.45 814.997 532.57 815.462 532.969 815.698L534.902 816.842C535.289 817.071 535.811 817.009 536.109 816.699L540.366 812.271Z" fill="#562E4A"/>
<path d="M540.366 812.271C540.623 812.004 540.646 811.622 540.425 811.331L538.36 808.615C537.99 808.128 537.165 808.141 536.823 808.639L532.696 814.639C532.45 814.997 532.57 815.462 532.969 815.698L534.902 816.842C535.289 817.071 535.811 817.009 536.109 816.699L540.366 812.271Z" fill="url(#paint94_linear)"/>
<path d="M537.884 817.358C538.276 817.111 538.373 816.639 538.105 816.286L537.103 814.968C536.771 814.532 536.054 814.487 535.66 814.879L532.04 818.478C531.75 818.766 531.742 819.195 532.021 819.494L532.39 819.889C532.695 820.216 533.24 820.279 533.63 820.034L537.884 817.358Z" fill="#562E4A"/>
<path d="M537.884 817.358C538.276 817.111 538.373 816.639 538.105 816.286L537.103 814.968C536.771 814.532 536.054 814.487 535.66 814.879L532.04 818.478C531.75 818.766 531.742 819.195 532.021 819.494L532.39 819.889C532.695 820.216 533.24 820.279 533.63 820.034L537.884 817.358Z" fill="url(#paint95_linear)"/>
<path d="M530.537 787.091C530.602 786.97 530.8 786.97 530.867 787.09L534.726 794.131C534.767 794.206 534.734 794.295 534.651 794.336L530.284 796.473C530.21 796.509 530.116 796.496 530.059 796.441L527.138 793.633C527.089 793.586 527.078 793.518 527.108 793.461L530.537 787.091Z" fill="#562E4A"/>
<path d="M530.537 787.091C530.602 786.97 530.8 786.97 530.867 787.09L534.726 794.131C534.767 794.206 534.734 794.295 534.651 794.336L530.284 796.473C530.21 796.509 530.116 796.496 530.059 796.441L527.138 793.633C527.089 793.586 527.078 793.518 527.108 793.461L530.537 787.091Z" fill="url(#paint96_linear)"/>
<path d="M530.041 819.842H531.316V825.824L530.059 827L530.041 819.842Z" fill="#562E4A"/>
<path d="M530.041 819.842H531.316V825.824L530.059 827L530.041 819.842Z" fill="url(#paint97_linear)"/>
<path d="M497.713 806.305C497.713 814.433 494.573 821.023 490.7 821.023C486.828 821.023 482.869 814.433 482.869 806.305C482.869 798.177 486.828 791.588 490.7 791.588C494.573 791.588 497.713 798.177 497.713 806.305Z" fill="#562E4A"/>
<path d="M497.713 806.305C497.713 814.433 494.573 821.023 490.7 821.023C486.828 821.023 482.869 814.433 482.869 806.305C482.869 798.177 486.828 791.588 490.7 791.588C494.573 791.588 497.713 798.177 497.713 806.305Z" fill="url(#paint98_linear)"/>
<path d="M481.241 805.383C481.177 805.128 481.264 804.861 481.473 804.672L484.236 802.173C484.699 801.754 485.51 801.897 485.747 802.44L488.08 807.798C488.259 808.208 488.016 808.665 487.539 808.815L483.484 810.09C482.966 810.253 482.4 809.983 482.283 809.518L481.241 805.383Z" fill="#562E4A"/>
<path d="M481.241 805.383C481.177 805.128 481.264 804.861 481.473 804.672L484.236 802.173C484.699 801.754 485.51 801.897 485.747 802.44L488.08 807.798C488.259 808.208 488.016 808.665 487.539 808.815L483.484 810.09C482.966 810.253 482.4 809.983 482.283 809.518L481.241 805.383Z" fill="url(#paint99_linear)"/>
<path d="M481.638 797.569C481.611 797.279 481.771 796.999 482.056 796.842L485.68 794.844C486.239 794.536 486.98 794.831 487.071 795.399L488.423 803.781C488.486 804.173 488.203 804.545 487.761 804.649L483.473 805.661C482.923 805.791 482.371 805.457 482.325 804.965L481.638 797.569Z" fill="#562E4A"/>
<path d="M481.638 797.569C481.611 797.279 481.771 796.999 482.056 796.842L485.68 794.844C486.239 794.536 486.98 794.831 487.071 795.399L488.423 803.781C488.486 804.173 488.203 804.545 487.761 804.649L483.473 805.661C482.923 805.791 482.371 805.457 482.325 804.965L481.638 797.569Z" fill="url(#paint100_linear)"/>
<path d="M481.214 812.195C480.953 811.927 480.928 811.543 481.153 811.252L483.256 808.52C483.626 808.04 484.45 808.056 484.794 808.55L488.98 814.559C489.23 814.917 489.111 815.382 488.709 815.617L486.735 816.77C486.349 816.995 485.828 816.932 485.528 816.624L481.214 812.195Z" fill="#562E4A"/>
<path d="M481.214 812.195C480.953 811.927 480.928 811.543 481.153 811.252L483.256 808.52C483.626 808.04 484.45 808.056 484.794 808.55L488.98 814.559C489.23 814.917 489.111 815.382 488.709 815.617L486.735 816.77C486.349 816.995 485.828 816.932 485.528 816.624L481.214 812.195Z" fill="url(#paint101_linear)"/>
<path d="M483.73 817.281C483.332 817.034 483.231 816.559 483.503 816.206L484.528 814.875C484.86 814.445 485.574 814.403 485.969 814.791L489.643 818.397C489.938 818.686 489.947 819.116 489.665 819.415L489.281 819.82C488.977 820.142 488.436 820.204 488.045 819.961L483.73 817.281Z" fill="#562E4A"/>
<path d="M483.73 817.281C483.332 817.034 483.231 816.559 483.503 816.206L484.528 814.875C484.86 814.445 485.574 814.403 485.969 814.791L489.643 818.397C489.938 818.686 489.947 819.116 489.665 819.415L489.281 819.82C488.977 820.142 488.436 820.204 488.045 819.961L483.73 817.281Z" fill="url(#paint102_linear)"/>
<path d="M500.967 804.745C501.086 804.374 500.877 803.981 500.475 803.816L496.888 802.347C496.402 802.148 495.828 802.355 495.649 802.792L493.559 807.904C493.395 808.304 493.627 808.747 494.083 808.905L498.141 810.31C498.643 810.483 499.204 810.243 499.348 809.793L500.967 804.745Z" fill="#562E4A"/>
<path d="M500.967 804.745C501.086 804.374 500.877 803.981 500.475 803.816L496.888 802.347C496.402 802.148 495.828 802.355 495.649 802.792L493.559 807.904C493.395 808.304 493.627 808.747 494.083 808.905L498.141 810.31C498.643 810.483 499.204 810.243 499.348 809.793L500.967 804.745Z" fill="url(#paint103_linear)"/>
<path d="M500.392 798.374C500.421 798.1 500.283 797.833 500.029 797.668L496.008 795.063C495.453 794.703 494.659 794.989 494.565 795.582L493.255 803.808C493.189 804.222 493.508 804.61 493.981 804.692L498.636 805.503C499.165 805.595 499.667 805.271 499.716 804.806L500.392 798.374Z" fill="#562E4A"/>
<path d="M500.392 798.374C500.421 798.1 500.283 797.833 500.029 797.668L496.008 795.063C495.453 794.703 494.659 794.989 494.565 795.582L493.255 803.808C493.189 804.222 493.508 804.61 493.981 804.692L498.636 805.503C499.165 805.595 499.667 805.271 499.716 804.806L500.392 798.374Z" fill="url(#paint104_linear)"/>
<path d="M496.224 793.526L490.56 789.856L488.923 800.138L494.176 801.211L496.224 797.569L496.224 793.526Z" fill="#562E4A"/>
<path d="M496.224 793.526L490.56 789.856L488.923 800.138L494.176 801.211L496.224 797.569L496.224 793.526Z" fill="url(#paint105_linear)"/>
<path d="M496.259 793.892C496.237 793.66 496.097 793.448 495.878 793.313L493.527 791.86C493.405 791.785 493.306 791.685 493.239 791.569L491.987 789.404C491.58 788.701 490.37 788.884 490.27 789.663L489.013 799.441C488.962 799.838 489.263 800.207 489.713 800.299L493.528 801.078C493.914 801.157 494.313 801.011 494.515 800.716L496.472 797.864C496.568 797.723 496.611 797.56 496.596 797.397L496.259 793.892Z" fill="#562E4A"/>
<path d="M496.259 793.892C496.237 793.66 496.097 793.448 495.878 793.313L493.527 791.86C493.405 791.785 493.306 791.685 493.239 791.569L491.987 789.404C491.58 788.701 490.37 788.884 490.27 789.663L489.013 799.441C488.962 799.838 489.263 800.207 489.713 800.299L493.528 801.078C493.914 801.157 494.313 801.011 494.515 800.716L496.472 797.864C496.568 797.723 496.611 797.56 496.596 797.397L496.259 793.892Z" fill="url(#paint106_linear)"/>
<path d="M484.989 793.876C484.988 793.623 485.128 793.387 485.365 793.24L487.964 791.625C488.086 791.549 488.185 791.448 488.25 791.33L489.237 789.561C489.633 788.852 490.863 789.036 490.965 789.821L492.223 799.428C492.275 799.825 491.974 800.191 491.523 800.279L487.763 801.016C487.349 801.097 486.924 800.92 486.737 800.59L485.089 797.669C485.029 797.562 484.997 797.445 484.997 797.326L484.989 793.876Z" fill="#562E4A"/>
<path d="M484.989 793.876C484.988 793.623 485.128 793.387 485.365 793.24L487.964 791.625C488.086 791.549 488.185 791.448 488.25 791.33L489.237 789.561C489.633 788.852 490.863 789.036 490.965 789.821L492.223 799.428C492.275 799.825 491.974 800.191 491.523 800.279L487.763 801.016C487.349 801.097 486.924 800.92 486.737 800.59L485.089 797.669C485.029 797.562 484.997 797.445 484.997 797.326L484.989 793.876Z" fill="url(#paint107_linear)"/>
<path d="M500.366 812.271C500.623 812.004 500.646 811.622 500.425 811.331L498.36 808.615C497.99 808.128 497.165 808.141 496.823 808.639L492.696 814.639C492.45 814.997 492.57 815.462 492.969 815.698L494.902 816.842C495.289 817.071 495.811 817.009 496.109 816.699L500.366 812.271Z" fill="#562E4A"/>
<path d="M500.366 812.271C500.623 812.004 500.646 811.622 500.425 811.331L498.36 808.615C497.99 808.128 497.165 808.141 496.823 808.639L492.696 814.639C492.45 814.997 492.57 815.462 492.969 815.698L494.902 816.842C495.289 817.071 495.811 817.009 496.109 816.699L500.366 812.271Z" fill="url(#paint108_linear)"/>
<path d="M497.884 817.358C498.276 817.111 498.373 816.639 498.105 816.286L497.103 814.968C496.771 814.532 496.054 814.487 495.66 814.879L492.04 818.478C491.75 818.766 491.742 819.195 492.021 819.494L492.39 819.889C492.695 820.216 493.24 820.279 493.63 820.034L497.884 817.358Z" fill="#562E4A"/>
<path d="M497.884 817.358C498.276 817.111 498.373 816.639 498.105 816.286L497.103 814.968C496.771 814.532 496.054 814.487 495.66 814.879L492.04 818.478C491.75 818.766 491.742 819.195 492.021 819.494L492.39 819.889C492.695 820.216 493.24 820.279 493.63 820.034L497.884 817.358Z" fill="url(#paint109_linear)"/>
<path d="M490.537 787.091C490.602 786.97 490.8 786.97 490.867 787.09L494.726 794.131C494.767 794.206 494.734 794.295 494.651 794.336L490.284 796.473C490.21 796.509 490.116 796.496 490.059 796.441L487.138 793.633C487.089 793.586 487.078 793.518 487.108 793.461L490.537 787.091Z" fill="#562E4A"/>
<path d="M490.537 787.091C490.602 786.97 490.8 786.97 490.867 787.09L494.726 794.131C494.767 794.206 494.734 794.295 494.651 794.336L490.284 796.473C490.21 796.509 490.116 796.496 490.059 796.441L487.138 793.633C487.089 793.586 487.078 793.518 487.108 793.461L490.537 787.091Z" fill="url(#paint110_linear)"/>
<path d="M490.041 819.842H491.316V825.824L490.059 827L490.041 819.842Z" fill="#562E4A"/>
<path d="M490.041 819.842H491.316V825.824L490.059 827L490.041 819.842Z" fill="url(#paint111_linear)"/>
<rect x="633" y="816" width="39" height="9" fill="#562E4A"/>
<path d="M635 808C635 806.343 636.343 805 638 805H667C668.657 805 670 806.343 670 808V816H635V808Z" fill="white" fill-opacity="0.15"/>
<path d="M640.832 802.25C640.832 799.489 643.071 797.25 645.832 797.25H659.374C662.135 797.25 664.374 799.489 664.374 802.25V806.625H640.832V802.25Z" fill="white" fill-opacity="0.15"/>
<path d="M644 796C644 793.239 646.239 791 649 791H656C658.761 791 661 793.239 661 796V798H644V796Z" fill="white" fill-opacity="0.15"/>
<path d="M638.125 805.168H667.292C667.292 805.168 666.039 808.455 664.271 809.543C660.208 812.043 657.264 812.06 652.604 812.043C648.024 812.026 645 812.043 641.146 809.543C639.404 808.413 638.125 805.168 638.125 805.168Z" fill="#562E4A"/>
<path d="M643.957 797.875H661.249C661.249 797.875 660.506 799.866 659.458 800.526C657.049 802.04 655.304 802.051 652.541 802.04C649.826 802.03 648.033 802.04 645.748 800.526C644.715 799.841 643.957 797.875 643.957 797.875Z" fill="#562E4A"/>
<path d="M646.668 791.834H658.543C658.543 791.834 658.033 793.228 657.313 793.689C655.659 794.75 654.46 794.757 652.563 794.75C650.698 794.742 649.467 794.75 647.898 793.689C647.189 793.21 646.668 791.834 646.668 791.834Z" fill="#562E4A"/>
<rect x="651.668" y="794.75" width="2.08334" height="21.2501" fill="#562E4A"/>
<rect x="1477.1" y="662.277" width="86.8947" height="109.485" fill="#4F2941"/>
<rect x="1405" y="771.764" width="158.999" height="50.1035" fill="#562E4A"/>
<rect x="1723" y="771.764" width="158.999" height="50.1035" fill="#562E4A"/>
<rect x="1564" y="717.947" width="158.999" height="103.918" fill="#562E4A"/>
<rect x="1405" y="821.865" width="476.997" height="11.1341" fill="#4F2941"/>
<rect x="1525.17" y="732.795" width="22.1859" height="24.1239" fill="#F9DFCE"/>
<rect x="1580.64" y="736.506" width="40.6741" height="20.4125" fill="#F9DFCE"/>
<rect x="1730.39" y="788.465" width="31.43" height="20.4125" fill="#F9DFCE"/>
<rect x="1421.64" y="788.465" width="31.43" height="20.4125" fill="#F9DFCE"/>
<rect x="1613.92" y="795.887" width="57.3135" height="33.4023" fill="#F9DFCE"/>
<rect x="1630.56" y="795.887" width="25.8835" height="33.4023" fill="#0B0A0A"/>
<rect x="1623.16" y="736.506" width="40.6741" height="20.4125" fill="#F9DFCE"/>
<rect x="1763.67" y="788.465" width="33.2788" height="20.4125" fill="#F9DFCE"/>
<rect x="1454.92" y="788.465" width="33.2788" height="20.4125" fill="#F9DFCE"/>
<rect x="1665.68" y="736.506" width="40.6741" height="20.4125" fill="#F9DFCE"/>
<rect x="1798.8" y="788.465" width="31.43" height="20.4125" fill="#F9DFCE"/>
<rect x="1490.05" y="788.465" width="31.43" height="20.4125" fill="#F9DFCE"/>
<rect x="1832.08" y="788.465" width="31.43" height="20.4125" fill="#F9DFCE"/>
<rect x="1523.32" y="788.465" width="31.43" height="20.4125" fill="#F9DFCE"/>
<rect x="1493.74" y="732.795" width="22.1859" height="24.1239" fill="#F9DFCE"/>
<rect x="1493.74" y="677.123" width="22.1859" height="24.1239" fill="#F9DFCE"/>
<rect x="1525.17" y="677.123" width="22.1859" height="24.1239" fill="#F9DFCE"/>
<rect x="1490.05" y="653" width="49.9183" height="7.42274" fill="#F9DFCE"/>
<rect x="1656.44" y="708.67" width="49.9183" height="7.42274" fill="#F9DFCE"/>
<rect x="1822.83" y="764.34" width="49.9183" height="7.42274" fill="#F9DFCE"/>
<rect x="1132" y="773" width="4" height="59" fill="#562E4A"/>
<path d="M1071 746L1136 773H1132L1067 746H1071Z" fill="#562E4A"/>
<path d="M1118.03 814V815.233L1118.11 815.393L1118.98 817.429H1111.65L1111.39 817.804L1109.09 821.098C1108.57 820.936 1108.03 820.855 1107.48 820.857C1106.03 820.859 1104.64 821.447 1103.61 822.491C1102.58 823.535 1102 824.951 1102 826.429C1102 829.502 1104.46 832 1107.48 832C1110.36 832 1112.72 829.727 1112.94 826.857H1115.84L1116.11 826.482L1120.22 820.321L1120.77 821.607C1119.94 822.097 1119.25 822.8 1118.77 823.646C1118.29 824.492 1118.03 825.451 1118.03 826.429C1118.03 829.489 1120.5 832 1123.52 832C1126.53 832 1129 829.489 1129 826.429C1129 823.369 1126.53 820.857 1123.52 820.857C1123.11 820.857 1122.71 820.904 1122.33 820.991L1120.06 815.714H1122.67C1122.91 815.714 1123.09 815.899 1123.09 816.143C1123.09 816.387 1122.91 816.571 1122.67 816.571V818.286C1123.83 818.286 1124.78 817.315 1124.78 816.143C1124.78 814.971 1123.83 814 1122.67 814H1118.03ZM1108.75 814.857V816.571H1113.81L1112.97 814.857H1108.75ZM1113.36 819.143H1118.98L1115.58 824.233L1113.36 819.143ZM1111.89 820L1114.1 825.143H1107.06V826.857H1111.23C1111.01 828.779 1109.43 830.286 1107.48 830.286C1105.39 830.286 1103.69 828.554 1103.69 826.429C1103.69 824.303 1105.39 822.571 1107.48 822.571C1108.11 822.572 1108.73 822.728 1109.28 823.027C1109.83 823.326 1110.3 823.758 1110.65 824.286H1112.55C1112.15 823.303 1111.48 822.457 1110.62 821.848L1111.89 820ZM1123.52 822.571C1125.61 822.571 1127.31 824.303 1127.31 826.429C1127.31 828.554 1125.61 830.286 1123.52 830.286C1121.42 830.286 1119.72 828.554 1119.72 826.429C1119.72 825.079 1120.42 823.904 1121.46 823.214L1123.17 827.205L1124.7 826.509L1123.04 822.625C1123.2 822.605 1123.35 822.571 1123.52 822.571Z" fill="#0A184F"/>
<rect x="1143" y="831" width="240" height="2" fill="#562E4A"/>
<path d="M1391.84 742.881C1389.91 746.532 1377.25 745.834 1371.16 745.029V758.722C1373.1 756.574 1385.75 757.827 1391.84 758.722V742.881Z" fill="#7D5163"/>
<rect x="1369.66" y="744.76" width="1.61099" height="84.3087" fill="#0A134B"/>
<ellipse cx="1370.21" cy="743.148" rx="1.87949" ry="2.14799" fill="#0A134B"/>
<rect x="1364" y="829" width="15" height="1" fill="#562E4A"/>
<rect x="1360" y="830" width="23" height="1" fill="#562E4A"/>
<path d="M9.16279 769.372L15.3023 761L21.4419 769.372H19.2093L26.4651 779.698H24.7907L31.2093 789.465H29.5349L35.3954 799.233H32.8837L40.6977 810.535H38.0465L44.6047 821.837H-14L-7.44186 810.535H-9.53488L-2 799.233H-4.7907L1.06977 789.465H-0.60465L5.81396 779.698H4.13954L11.3953 769.372H9.16279Z" fill="#562E4A"/>
<rect x="12.2305" y="821.838" width="6.69767" height="11.1628" fill="#562E4A"/>
<path d="M87.7683 769.372L93.9078 761L100.047 769.372H97.8148L105.071 779.698H103.396L109.815 789.465H108.14L114.001 799.233H111.489L119.303 810.535H116.652L123.21 821.837H64.6055L71.1636 810.535H69.0706L76.6055 799.233H73.8148L79.6752 789.465H78.0008L84.4194 779.698H82.745L90.0008 769.372H87.7683Z" fill="#562E4A"/>
<rect x="90.8359" y="821.838" width="6.69767" height="11.1628" fill="#562E4A"/>
<path d="M166.374 769.372L172.513 761L178.653 769.372H176.42L183.676 779.698H182.002L188.42 789.465H186.746L192.606 799.233H190.095L197.909 810.535H195.257L201.816 821.837H143.211L149.769 810.535H147.676L155.211 799.233H152.42L158.281 789.465H156.606L163.025 779.698H161.35L168.606 769.372H166.374Z" fill="#562E4A"/>
<rect x="169.441" y="821.838" width="6.69767" height="11.1628" fill="#562E4A"/>
<path d="M245.163 769.372L251.302 761L257.442 769.372H255.209L262.465 779.698H260.791L267.209 789.465H265.535L271.395 799.233H268.884L276.698 810.535H274.047L280.605 821.837H222L228.558 810.535H226.465L234 799.233H231.209L237.07 789.465H235.395L241.814 779.698H240.14L247.395 769.372H245.163Z" fill="#562E4A"/>
<rect x="248.23" y="821.838" width="6.69767" height="11.1628" fill="#562E4A"/>
</g>
<defs>
<linearGradient id="paint0_linear" x1="811" y1="787" x2="811" y2="825.824" gradientUnits="userSpaceOnUse">
<stop stop-color="#092158"/>
<stop offset="1" stop-color="#0B053E"/>
</linearGradient>
<linearGradient id="paint1_linear" x1="811" y1="787" x2="811" y2="825.824" gradientUnits="userSpaceOnUse">
<stop stop-color="#092158"/>
<stop offset="1" stop-color="#0B053E"/>
</linearGradient>
<linearGradient id="paint2_linear" x1="811" y1="787" x2="811" y2="825.824" gradientUnits="userSpaceOnUse">
<stop stop-color="#092158"/>
<stop offset="1" stop-color="#0B053E"/>
</linearGradient>
<linearGradient id="paint3_linear" x1="811" y1="787" x2="811" y2="825.824" gradientUnits="userSpaceOnUse">
<stop stop-color="#092158"/>
<stop offset="1" stop-color="#0B053E"/>
</linearGradient>
<linearGradient id="paint4_linear" x1="811" y1="787" x2="811" y2="825.824" gradientUnits="userSpaceOnUse">
<stop stop-color="#092158"/>
<stop offset="1" stop-color="#0B053E"/>
</linearGradient>
<linearGradient id="paint5_linear" x1="811" y1="787" x2="811" y2="825.824" gradientUnits="userSpaceOnUse">
<stop stop-color="#092158"/>
<stop offset="1" stop-color="#0B053E"/>
</linearGradient>
<linearGradient id="paint6_linear" x1="811" y1="787" x2="811" y2="825.824" gradientUnits="userSpaceOnUse">
<stop stop-color="#092158"/>
<stop offset="1" stop-color="#0B053E"/>
</linearGradient>
<linearGradient id="paint7_linear" x1="811" y1="787" x2="811" y2="825.824" gradientUnits="userSpaceOnUse">
<stop stop-color="#092158"/>
<stop offset="1" stop-color="#0B053E"/>
</linearGradient>
<linearGradient id="paint8_linear" x1="811" y1="787" x2="811" y2="825.824" gradientUnits="userSpaceOnUse">
<stop stop-color="#092158"/>
<stop offset="1" stop-color="#0B053E"/>
</linearGradient>
<linearGradient id="paint9_linear" x1="811" y1="787" x2="811" y2="825.824" gradientUnits="userSpaceOnUse">
<stop stop-color="#092158"/>
<stop offset="1" stop-color="#0B053E"/>
</linearGradient>
<linearGradient id="paint10_linear" x1="811" y1="787" x2="811" y2="825.824" gradientUnits="userSpaceOnUse">
<stop stop-color="#092158"/>
<stop offset="1" stop-color="#0B053E"/>
</linearGradient>
<linearGradient id="paint11_linear" x1="811" y1="787" x2="811" y2="825.824" gradientUnits="userSpaceOnUse">
<stop stop-color="#092158"/>
<stop offset="1" stop-color="#0B053E"/>
</linearGradient>
<linearGradient id="paint12_linear" x1="811" y1="787" x2="811" y2="825.824" gradientUnits="userSpaceOnUse">
<stop stop-color="#092158"/>
<stop offset="1" stop-color="#0B053E"/>
</linearGradient>
<linearGradient id="paint13_linear" x1="811" y1="787" x2="811" y2="825.824" gradientUnits="userSpaceOnUse">
<stop stop-color="#092158"/>
<stop offset="1" stop-color="#0B053E"/>
</linearGradient>
<linearGradient id="paint14_linear" x1="771" y1="787" x2="771" y2="825.824" gradientUnits="userSpaceOnUse">
<stop stop-color="#092158"/>
<stop offset="1" stop-color="#0B053E"/>
</linearGradient>
<linearGradient id="paint15_linear" x1="771" y1="787" x2="771" y2="825.824" gradientUnits="userSpaceOnUse">
<stop stop-color="#092158"/>
<stop offset="1" stop-color="#0B053E"/>
</linearGradient>
<linearGradient id="paint16_linear" x1="771" y1="787" x2="771" y2="825.824" gradientUnits="userSpaceOnUse">
<stop stop-color="#092158"/>
<stop offset="1" stop-color="#0B053E"/>
</linearGradient>
<linearGradient id="paint17_linear" x1="771" y1="787" x2="771" y2="825.824" gradientUnits="userSpaceOnUse">
<stop stop-color="#092158"/>
<stop offset="1" stop-color="#0B053E"/>
</linearGradient>
<linearGradient id="paint18_linear" x1="771" y1="787" x2="771" y2="825.824" gradientUnits="userSpaceOnUse">
<stop stop-color="#092158"/>
<stop offset="1" stop-color="#0B053E"/>
</linearGradient>
<linearGradient id="paint19_linear" x1="771" y1="787" x2="771" y2="825.824" gradientUnits="userSpaceOnUse">
<stop stop-color="#092158"/>
<stop offset="1" stop-color="#0B053E"/>
</linearGradient>
<linearGradient id="paint20_linear" x1="771" y1="787" x2="771" y2="825.824" gradientUnits="userSpaceOnUse">
<stop stop-color="#092158"/>
<stop offset="1" stop-color="#0B053E"/>
</linearGradient>
<linearGradient id="paint21_linear" x1="771" y1="787" x2="771" y2="825.824" gradientUnits="userSpaceOnUse">
<stop stop-color="#092158"/>
<stop offset="1" stop-color="#0B053E"/>
</linearGradient>
<linearGradient id="paint22_linear" x1="771" y1="787" x2="771" y2="825.824" gradientUnits="userSpaceOnUse">
<stop stop-color="#092158"/>
<stop offset="1" stop-color="#0B053E"/>
</linearGradient>
<linearGradient id="paint23_linear" x1="771" y1="787" x2="771" y2="825.824" gradientUnits="userSpaceOnUse">
<stop stop-color="#092158"/>
<stop offset="1" stop-color="#0B053E"/>
</linearGradient>
<linearGradient id="paint24_linear" x1="771" y1="787" x2="771" y2="825.824" gradientUnits="userSpaceOnUse">
<stop stop-color="#092158"/>
<stop offset="1" stop-color="#0B053E"/>
</linearGradient>
<linearGradient id="paint25_linear" x1="771" y1="787" x2="771" y2="825.824" gradientUnits="userSpaceOnUse">
<stop stop-color="#092158"/>
<stop offset="1" stop-color="#0B053E"/>
</linearGradient>
<linearGradient id="paint26_linear" x1="771" y1="787" x2="771" y2="825.824" gradientUnits="userSpaceOnUse">
<stop stop-color="#092158"/>
<stop offset="1" stop-color="#0B053E"/>
</linearGradient>
<linearGradient id="paint27_linear" x1="771" y1="787" x2="771" y2="825.824" gradientUnits="userSpaceOnUse">
<stop stop-color="#092158"/>
<stop offset="1" stop-color="#0B053E"/>
</linearGradient>
<linearGradient id="paint28_linear" x1="731" y1="787" x2="731" y2="825.824" gradientUnits="userSpaceOnUse">
<stop stop-color="#092158"/>
<stop offset="1" stop-color="#0B053E"/>
</linearGradient>
<linearGradient id="paint29_linear" x1="731" y1="787" x2="731" y2="825.824" gradientUnits="userSpaceOnUse">
<stop stop-color="#092158"/>
<stop offset="1" stop-color="#0B053E"/>
</linearGradient>
<linearGradient id="paint30_linear" x1="731" y1="787" x2="731" y2="825.824" gradientUnits="userSpaceOnUse">
<stop stop-color="#092158"/>
<stop offset="1" stop-color="#0B053E"/>
</linearGradient>
<linearGradient id="paint31_linear" x1="731" y1="787" x2="731" y2="825.824" gradientUnits="userSpaceOnUse">
<stop stop-color="#092158"/>
<stop offset="1" stop-color="#0B053E"/>
</linearGradient>
<linearGradient id="paint32_linear" x1="731" y1="787" x2="731" y2="825.824" gradientUnits="userSpaceOnUse">
<stop stop-color="#092158"/>
<stop offset="1" stop-color="#0B053E"/>
</linearGradient>
<linearGradient id="paint33_linear" x1="731" y1="787" x2="731" y2="825.824" gradientUnits="userSpaceOnUse">
<stop stop-color="#092158"/>
<stop offset="1" stop-color="#0B053E"/>
</linearGradient>
<linearGradient id="paint34_linear" x1="731" y1="787" x2="731" y2="825.824" gradientUnits="userSpaceOnUse">
<stop stop-color="#092158"/>
<stop offset="1" stop-color="#0B053E"/>
</linearGradient>
<linearGradient id="paint35_linear" x1="731" y1="787" x2="731" y2="825.824" gradientUnits="userSpaceOnUse">
<stop stop-color="#092158"/>
<stop offset="1" stop-color="#0B053E"/>
</linearGradient>
<linearGradient id="paint36_linear" x1="731" y1="787" x2="731" y2="825.824" gradientUnits="userSpaceOnUse">
<stop stop-color="#092158"/>
<stop offset="1" stop-color="#0B053E"/>
</linearGradient>
<linearGradient id="paint37_linear" x1="731" y1="787" x2="731" y2="825.824" gradientUnits="userSpaceOnUse">
<stop stop-color="#092158"/>
<stop offset="1" stop-color="#0B053E"/>
</linearGradient>
<linearGradient id="paint38_linear" x1="731" y1="787" x2="731" y2="825.824" gradientUnits="userSpaceOnUse">
<stop stop-color="#092158"/>
<stop offset="1" stop-color="#0B053E"/>
</linearGradient>
<linearGradient id="paint39_linear" x1="731" y1="787" x2="731" y2="825.824" gradientUnits="userSpaceOnUse">
<stop stop-color="#092158"/>
<stop offset="1" stop-color="#0B053E"/>
</linearGradient>
<linearGradient id="paint40_linear" x1="731" y1="787" x2="731" y2="825.824" gradientUnits="userSpaceOnUse">
<stop stop-color="#092158"/>
<stop offset="1" stop-color="#0B053E"/>
</linearGradient>
<linearGradient id="paint41_linear" x1="731" y1="787" x2="731" y2="825.824" gradientUnits="userSpaceOnUse">
<stop stop-color="#092158"/>
<stop offset="1" stop-color="#0B053E"/>
</linearGradient>
<linearGradient id="paint42_linear" x1="691" y1="787" x2="691" y2="825.824" gradientUnits="userSpaceOnUse">
<stop stop-color="#092158"/>
<stop offset="1" stop-color="#0B053E"/>
</linearGradient>
<linearGradient id="paint43_linear" x1="691" y1="787" x2="691" y2="825.824" gradientUnits="userSpaceOnUse">
<stop stop-color="#092158"/>
<stop offset="1" stop-color="#0B053E"/>
</linearGradient>
<linearGradient id="paint44_linear" x1="691" y1="787" x2="691" y2="825.824" gradientUnits="userSpaceOnUse">
<stop stop-color="#092158"/>
<stop offset="1" stop-color="#0B053E"/>
</linearGradient>
<linearGradient id="paint45_linear" x1="691" y1="787" x2="691" y2="825.824" gradientUnits="userSpaceOnUse">
<stop stop-color="#092158"/>
<stop offset="1" stop-color="#0B053E"/>
</linearGradient>
<linearGradient id="paint46_linear" x1="691" y1="787" x2="691" y2="825.824" gradientUnits="userSpaceOnUse">
<stop stop-color="#092158"/>
<stop offset="1" stop-color="#0B053E"/>
</linearGradient>
<linearGradient id="paint47_linear" x1="691" y1="787" x2="691" y2="825.824" gradientUnits="userSpaceOnUse">
<stop stop-color="#092158"/>
<stop offset="1" stop-color="#0B053E"/>
</linearGradient>
<linearGradient id="paint48_linear" x1="691" y1="787" x2="691" y2="825.824" gradientUnits="userSpaceOnUse">
<stop stop-color="#092158"/>
<stop offset="1" stop-color="#0B053E"/>
</linearGradient>
<linearGradient id="paint49_linear" x1="691" y1="787" x2="691" y2="825.824" gradientUnits="userSpaceOnUse">
<stop stop-color="#092158"/>
<stop offset="1" stop-color="#0B053E"/>
</linearGradient>
<linearGradient id="paint50_linear" x1="691" y1="787" x2="691" y2="825.824" gradientUnits="userSpaceOnUse">
<stop stop-color="#092158"/>
<stop offset="1" stop-color="#0B053E"/>
</linearGradient>
<linearGradient id="paint51_linear" x1="691" y1="787" x2="691" y2="825.824" gradientUnits="userSpaceOnUse">
<stop stop-color="#092158"/>
<stop offset="1" stop-color="#0B053E"/>
</linearGradient>
<linearGradient id="paint52_linear" x1="691" y1="787" x2="691" y2="825.824" gradientUnits="userSpaceOnUse">
<stop stop-color="#092158"/>
<stop offset="1" stop-color="#0B053E"/>
</linearGradient>
<linearGradient id="paint53_linear" x1="691" y1="787" x2="691" y2="825.824" gradientUnits="userSpaceOnUse">
<stop stop-color="#092158"/>
<stop offset="1" stop-color="#0B053E"/>
</linearGradient>
<linearGradient id="paint54_linear" x1="691" y1="787" x2="691" y2="825.824" gradientUnits="userSpaceOnUse">
<stop stop-color="#092158"/>
<stop offset="1" stop-color="#0B053E"/>
</linearGradient>
<linearGradient id="paint55_linear" x1="691" y1="787" x2="691" y2="825.824" gradientUnits="userSpaceOnUse">
<stop stop-color="#092158"/>
<stop offset="1" stop-color="#0B053E"/>
</linearGradient>
<linearGradient id="paint56_linear" x1="611" y1="787" x2="611" y2="825.824" gradientUnits="userSpaceOnUse">
<stop stop-color="#092158"/>
<stop offset="1" stop-color="#0B053E"/>
</linearGradient>
<linearGradient id="paint57_linear" x1="611" y1="787" x2="611" y2="825.824" gradientUnits="userSpaceOnUse">
<stop stop-color="#092158"/>
<stop offset="1" stop-color="#0B053E"/>
</linearGradient>
<linearGradient id="paint58_linear" x1="611" y1="787" x2="611" y2="825.824" gradientUnits="userSpaceOnUse">
<stop stop-color="#092158"/>
<stop offset="1" stop-color="#0B053E"/>
</linearGradient>
<linearGradient id="paint59_linear" x1="611" y1="787" x2="611" y2="825.824" gradientUnits="userSpaceOnUse">
<stop stop-color="#092158"/>
<stop offset="1" stop-color="#0B053E"/>
</linearGradient>
<linearGradient id="paint60_linear" x1="611" y1="787" x2="611" y2="825.824" gradientUnits="userSpaceOnUse">
<stop stop-color="#092158"/>
<stop offset="1" stop-color="#0B053E"/>
</linearGradient>
<linearGradient id="paint61_linear" x1="611" y1="787" x2="611" y2="825.824" gradientUnits="userSpaceOnUse">
<stop stop-color="#092158"/>
<stop offset="1" stop-color="#0B053E"/>
</linearGradient>
<linearGradient id="paint62_linear" x1="611" y1="787" x2="611" y2="825.824" gradientUnits="userSpaceOnUse">
<stop stop-color="#092158"/>
<stop offset="1" stop-color="#0B053E"/>
</linearGradient>
<linearGradient id="paint63_linear" x1="611" y1="787" x2="611" y2="825.824" gradientUnits="userSpaceOnUse">
<stop stop-color="#092158"/>
<stop offset="1" stop-color="#0B053E"/>
</linearGradient>
<linearGradient id="paint64_linear" x1="611" y1="787" x2="611" y2="825.824" gradientUnits="userSpaceOnUse">
<stop stop-color="#092158"/>
<stop offset="1" stop-color="#0B053E"/>
</linearGradient>
<linearGradient id="paint65_linear" x1="611" y1="787" x2="611" y2="825.824" gradientUnits="userSpaceOnUse">
<stop stop-color="#092158"/>
<stop offset="1" stop-color="#0B053E"/>
</linearGradient>
<linearGradient id="paint66_linear" x1="611" y1="787" x2="611" y2="825.824" gradientUnits="userSpaceOnUse">
<stop stop-color="#092158"/>
<stop offset="1" stop-color="#0B053E"/>
</linearGradient>
<linearGradient id="paint67_linear" x1="611" y1="787" x2="611" y2="825.824" gradientUnits="userSpaceOnUse">
<stop stop-color="#092158"/>
<stop offset="1" stop-color="#0B053E"/>
</linearGradient>
<linearGradient id="paint68_linear" x1="611" y1="787" x2="611" y2="825.824" gradientUnits="userSpaceOnUse">
<stop stop-color="#092158"/>
<stop offset="1" stop-color="#0B053E"/>
</linearGradient>
<linearGradient id="paint69_linear" x1="611" y1="787" x2="611" y2="825.824" gradientUnits="userSpaceOnUse">
<stop stop-color="#092158"/>
<stop offset="1" stop-color="#0B053E"/>
</linearGradient>
<linearGradient id="paint70_linear" x1="571" y1="787" x2="571" y2="825.824" gradientUnits="userSpaceOnUse">
<stop stop-color="#092158"/>
<stop offset="1" stop-color="#0B053E"/>
</linearGradient>
<linearGradient id="paint71_linear" x1="571" y1="787" x2="571" y2="825.824" gradientUnits="userSpaceOnUse">
<stop stop-color="#092158"/>
<stop offset="1" stop-color="#0B053E"/>
</linearGradient>
<linearGradient id="paint72_linear" x1="571" y1="787" x2="571" y2="825.824" gradientUnits="userSpaceOnUse">
<stop stop-color="#092158"/>
<stop offset="1" stop-color="#0B053E"/>
</linearGradient>
<linearGradient id="paint73_linear" x1="571" y1="787" x2="571" y2="825.824" gradientUnits="userSpaceOnUse">
<stop stop-color="#092158"/>
<stop offset="1" stop-color="#0B053E"/>
</linearGradient>
<linearGradient id="paint74_linear" x1="571" y1="787" x2="571" y2="825.824" gradientUnits="userSpaceOnUse">
<stop stop-color="#092158"/>
<stop offset="1" stop-color="#0B053E"/>
</linearGradient>
<linearGradient id="paint75_linear" x1="571" y1="787" x2="571" y2="825.824" gradientUnits="userSpaceOnUse">
<stop stop-color="#092158"/>
<stop offset="1" stop-color="#0B053E"/>
</linearGradient>
<linearGradient id="paint76_linear" x1="571" y1="787" x2="571" y2="825.824" gradientUnits="userSpaceOnUse">
<stop stop-color="#092158"/>
<stop offset="1" stop-color="#0B053E"/>
</linearGradient>
<linearGradient id="paint77_linear" x1="571" y1="787" x2="571" y2="825.824" gradientUnits="userSpaceOnUse">
<stop stop-color="#092158"/>
<stop offset="1" stop-color="#0B053E"/>
</linearGradient>
<linearGradient id="paint78_linear" x1="571" y1="787" x2="571" y2="825.824" gradientUnits="userSpaceOnUse">
<stop stop-color="#092158"/>
<stop offset="1" stop-color="#0B053E"/>
</linearGradient>
<linearGradient id="paint79_linear" x1="571" y1="787" x2="571" y2="825.824" gradientUnits="userSpaceOnUse">
<stop stop-color="#092158"/>
<stop offset="1" stop-color="#0B053E"/>
</linearGradient>
<linearGradient id="paint80_linear" x1="571" y1="787" x2="571" y2="825.824" gradientUnits="userSpaceOnUse">
<stop stop-color="#092158"/>
<stop offset="1" stop-color="#0B053E"/>
</linearGradient>
<linearGradient id="paint81_linear" x1="571" y1="787" x2="571" y2="825.824" gradientUnits="userSpaceOnUse">
<stop stop-color="#092158"/>
<stop offset="1" stop-color="#0B053E"/>
</linearGradient>
<linearGradient id="paint82_linear" x1="571" y1="787" x2="571" y2="825.824" gradientUnits="userSpaceOnUse">
<stop stop-color="#092158"/>
<stop offset="1" stop-color="#0B053E"/>
</linearGradient>
<linearGradient id="paint83_linear" x1="571" y1="787" x2="571" y2="825.824" gradientUnits="userSpaceOnUse">
<stop stop-color="#092158"/>
<stop offset="1" stop-color="#0B053E"/>
</linearGradient>
<linearGradient id="paint84_linear" x1="531" y1="787" x2="531" y2="825.824" gradientUnits="userSpaceOnUse">
<stop stop-color="#092158"/>
<stop offset="1" stop-color="#0B053E"/>
</linearGradient>
<linearGradient id="paint85_linear" x1="531" y1="787" x2="531" y2="825.824" gradientUnits="userSpaceOnUse">
<stop stop-color="#092158"/>
<stop offset="1" stop-color="#0B053E"/>
</linearGradient>
<linearGradient id="paint86_linear" x1="531" y1="787" x2="531" y2="825.824" gradientUnits="userSpaceOnUse">
<stop stop-color="#092158"/>
<stop offset="1" stop-color="#0B053E"/>
</linearGradient>
<linearGradient id="paint87_linear" x1="531" y1="787" x2="531" y2="825.824" gradientUnits="userSpaceOnUse">
<stop stop-color="#092158"/>
<stop offset="1" stop-color="#0B053E"/>
</linearGradient>
<linearGradient id="paint88_linear" x1="531" y1="787" x2="531" y2="825.824" gradientUnits="userSpaceOnUse">
<stop stop-color="#092158"/>
<stop offset="1" stop-color="#0B053E"/>
</linearGradient>
<linearGradient id="paint89_linear" x1="531" y1="787" x2="531" y2="825.824" gradientUnits="userSpaceOnUse">
<stop stop-color="#092158"/>
<stop offset="1" stop-color="#0B053E"/>
</linearGradient>
<linearGradient id="paint90_linear" x1="531" y1="787" x2="531" y2="825.824" gradientUnits="userSpaceOnUse">
<stop stop-color="#092158"/>
<stop offset="1" stop-color="#0B053E"/>
</linearGradient>
<linearGradient id="paint91_linear" x1="531" y1="787" x2="531" y2="825.824" gradientUnits="userSpaceOnUse">
<stop stop-color="#092158"/>
<stop offset="1" stop-color="#0B053E"/>
</linearGradient>
<linearGradient id="paint92_linear" x1="531" y1="787" x2="531" y2="825.824" gradientUnits="userSpaceOnUse">
<stop stop-color="#092158"/>
<stop offset="1" stop-color="#0B053E"/>
</linearGradient>
<linearGradient id="paint93_linear" x1="531" y1="787" x2="531" y2="825.824" gradientUnits="userSpaceOnUse">
<stop stop-color="#092158"/>
<stop offset="1" stop-color="#0B053E"/>
</linearGradient>
<linearGradient id="paint94_linear" x1="531" y1="787" x2="531" y2="825.824" gradientUnits="userSpaceOnUse">
<stop stop-color="#092158"/>
<stop offset="1" stop-color="#0B053E"/>
</linearGradient>
<linearGradient id="paint95_linear" x1="531" y1="787" x2="531" y2="825.824" gradientUnits="userSpaceOnUse">
<stop stop-color="#092158"/>
<stop offset="1" stop-color="#0B053E"/>
</linearGradient>
<linearGradient id="paint96_linear" x1="531" y1="787" x2="531" y2="825.824" gradientUnits="userSpaceOnUse">
<stop stop-color="#092158"/>
<stop offset="1" stop-color="#0B053E"/>
</linearGradient>
<linearGradient id="paint97_linear" x1="531" y1="787" x2="531" y2="825.824" gradientUnits="userSpaceOnUse">
<stop stop-color="#092158"/>
<stop offset="1" stop-color="#0B053E"/>
</linearGradient>
<linearGradient id="paint98_linear" x1="491" y1="787" x2="491" y2="825.824" gradientUnits="userSpaceOnUse">
<stop stop-color="#092158"/>
<stop offset="1" stop-color="#0B053E"/>
</linearGradient>
<linearGradient id="paint99_linear" x1="491" y1="787" x2="491" y2="825.824" gradientUnits="userSpaceOnUse">
<stop stop-color="#092158"/>
<stop offset="1" stop-color="#0B053E"/>
</linearGradient>
<linearGradient id="paint100_linear" x1="491" y1="787" x2="491" y2="825.824" gradientUnits="userSpaceOnUse">
<stop stop-color="#092158"/>
<stop offset="1" stop-color="#0B053E"/>
</linearGradient>
<linearGradient id="paint101_linear" x1="491" y1="787" x2="491" y2="825.824" gradientUnits="userSpaceOnUse">
<stop stop-color="#092158"/>
<stop offset="1" stop-color="#0B053E"/>
</linearGradient>
<linearGradient id="paint102_linear" x1="491" y1="787" x2="491" y2="825.824" gradientUnits="userSpaceOnUse">
<stop stop-color="#092158"/>
<stop offset="1" stop-color="#0B053E"/>
</linearGradient>
<linearGradient id="paint103_linear" x1="491" y1="787" x2="491" y2="825.824" gradientUnits="userSpaceOnUse">
<stop stop-color="#092158"/>
<stop offset="1" stop-color="#0B053E"/>
</linearGradient>
<linearGradient id="paint104_linear" x1="491" y1="787" x2="491" y2="825.824" gradientUnits="userSpaceOnUse">
<stop stop-color="#092158"/>
<stop offset="1" stop-color="#0B053E"/>
</linearGradient>
<linearGradient id="paint105_linear" x1="491" y1="787" x2="491" y2="825.824" gradientUnits="userSpaceOnUse">
<stop stop-color="#092158"/>
<stop offset="1" stop-color="#0B053E"/>
</linearGradient>
<linearGradient id="paint106_linear" x1="491" y1="787" x2="491" y2="825.824" gradientUnits="userSpaceOnUse">
<stop stop-color="#092158"/>
<stop offset="1" stop-color="#0B053E"/>
</linearGradient>
<linearGradient id="paint107_linear" x1="491" y1="787" x2="491" y2="825.824" gradientUnits="userSpaceOnUse">
<stop stop-color="#092158"/>
<stop offset="1" stop-color="#0B053E"/>
</linearGradient>
<linearGradient id="paint108_linear" x1="491" y1="787" x2="491" y2="825.824" gradientUnits="userSpaceOnUse">
<stop stop-color="#092158"/>
<stop offset="1" stop-color="#0B053E"/>
</linearGradient>
<linearGradient id="paint109_linear" x1="491" y1="787" x2="491" y2="825.824" gradientUnits="userSpaceOnUse">
<stop stop-color="#092158"/>
<stop offset="1" stop-color="#0B053E"/>
</linearGradient>
<linearGradient id="paint110_linear" x1="491" y1="787" x2="491" y2="825.824" gradientUnits="userSpaceOnUse">
<stop stop-color="#092158"/>
<stop offset="1" stop-color="#0B053E"/>
</linearGradient>
<linearGradient id="paint111_linear" x1="491" y1="787" x2="491" y2="825.824" gradientUnits="userSpaceOnUse">
<stop stop-color="#092158"/>
<stop offset="1" stop-color="#0B053E"/>
</linearGradient>
</defs>
</svg>
