<svg xmlns="http://www.w3.org/2000/svg" xmlns:xlink="http://www.w3.org/1999/xlink" width="1920" height="1080" fill="none" xmlns:v="https://vecta.io/nano"><style><![CDATA[.B{fill:#562e4a}.C{fill:#4f2941}.D{fill:#f9dfce}.E{fill-opacity:.15}]]></style><mask id="A" mask-type="alpha" maskUnits="userSpaceOnUse" x="0" y="0" width="1920" height="1080"><path fill="#c4c4c4" d="M0 0h1920v1080H0z"/></mask><g mask="url(#A)"><path d="M0 833h1920v221H0z" class="B"/><path d="M889 780h132v53H889z" class="B"/><path d="M884 773h142l-5 8H889l-5-8z" class="B"/><use xlink:href="#J" class="C"/><use xlink:href="#J" x="12" class="C"/><use xlink:href="#J" x="24" class="C"/><use xlink:href="#J" x="36" class="C"/><use xlink:href="#J" x="48" class="C"/><use xlink:href="#J" x="60" class="C"/><use xlink:href="#J" x="72" class="C"/><use xlink:href="#J" x="84" class="C"/><use xlink:href="#J" x="96" class="C"/><use xlink:href="#J" x="108" class="C"/><path fill="#c4c4c4" d="M954 773h4v2h-4z"/><path d="M455 825h396v8H455z" class="B"/><use xlink:href="#K" class="B"/><use xlink:href="#K" fill="url(#B)"/><use xlink:href="#L" class="B"/><use xlink:href="#L" fill="url(#B)"/><use xlink:href="#M" class="B"/><use xlink:href="#M" fill="url(#B)"/><use xlink:href="#N" class="B"/><use xlink:href="#N" fill="url(#B)"/><use xlink:href="#O" class="B"/><use xlink:href="#O" fill="url(#B)"/><use xlink:href="#P" class="B"/><use xlink:href="#P" fill="url(#B)"/><use xlink:href="#Q" class="B"/><use xlink:href="#Q" fill="url(#B)"/><use xlink:href="#R" class="B"/><use xlink:href="#R" fill="url(#B)"/><use xlink:href="#S" class="B"/><use xlink:href="#S" fill="url(#B)"/><use xlink:href="#T" class="B"/><use xlink:href="#T" fill="url(#B)"/><use xlink:href="#U" class="B"/><use xlink:href="#U" fill="url(#B)"/><use xlink:href="#V" class="B"/><use xlink:href="#V" fill="url(#B)"/><use xlink:href="#W" class="B"/><use xlink:href="#W" fill="url(#B)"/><path d="M810.041 819.842h1.275v5.982L810.059 827l-.018-7.158z" class="B"/><path d="M810.041 819.842h1.275v5.982L810.059 827l-.018-7.158z" fill="url(#B)"/><use xlink:href="#K" x="-40" class="B"/><use xlink:href="#K" x="-40" fill="url(#B)"/><use xlink:href="#L" x="-40" class="B"/><use xlink:href="#L" x="-40" fill="url(#B)"/><use xlink:href="#M" x="-40" class="B"/><use xlink:href="#M" x="-40" fill="url(#B)"/><use xlink:href="#N" x="-40" class="B"/><use xlink:href="#N" x="-40" fill="url(#B)"/><use xlink:href="#O" x="-40" class="B"/><use xlink:href="#O" x="-40" fill="url(#B)"/><use xlink:href="#P" x="-40" class="B"/><use xlink:href="#P" x="-40" fill="url(#B)"/><use xlink:href="#Q" x="-40" class="B"/><use xlink:href="#Q" x="-40" fill="url(#B)"/><use xlink:href="#R" x="-40" class="B"/><use xlink:href="#R" x="-40" fill="url(#B)"/><use xlink:href="#S" x="-40" class="B"/><use xlink:href="#S" x="-40" fill="url(#B)"/><use xlink:href="#T" x="-40" class="B"/><use xlink:href="#T" x="-40" fill="url(#B)"/><use xlink:href="#U" x="-40" class="B"/><use xlink:href="#U" x="-40" fill="url(#B)"/><use xlink:href="#V" x="-40" class="B"/><use xlink:href="#V" x="-40" fill="url(#B)"/><use xlink:href="#W" x="-40" class="B"/><use xlink:href="#W" x="-40" fill="url(#B)"/><path d="M770.041 819.842h1.275v5.982L770.059 827l-.018-7.158z" class="B"/><path d="M770.041 819.842h1.275v5.982L770.059 827l-.018-7.158z" fill="url(#C)"/><use xlink:href="#K" x="-80" class="B"/><use xlink:href="#K" x="-80" fill="url(#B)"/><use xlink:href="#L" x="-80" class="B"/><use xlink:href="#L" x="-80" fill="url(#B)"/><use xlink:href="#M" x="-80" class="B"/><use xlink:href="#M" x="-80" fill="url(#B)"/><use xlink:href="#N" x="-80" class="B"/><use xlink:href="#N" x="-80" fill="url(#B)"/><use xlink:href="#O" x="-80" class="B"/><use xlink:href="#O" x="-80" fill="url(#B)"/><use xlink:href="#P" x="-80" class="B"/><use xlink:href="#P" x="-80" fill="url(#B)"/><use xlink:href="#Q" x="-80" class="B"/><use xlink:href="#Q" x="-80" fill="url(#B)"/><use xlink:href="#R" x="-80" class="B"/><use xlink:href="#R" x="-80" fill="url(#B)"/><use xlink:href="#S" x="-80" class="B"/><use xlink:href="#S" x="-80" fill="url(#B)"/><use xlink:href="#T" x="-80" class="B"/><use xlink:href="#T" x="-80" fill="url(#B)"/><use xlink:href="#U" x="-80" class="B"/><use xlink:href="#U" x="-80" fill="url(#B)"/><use xlink:href="#V" x="-80" class="B"/><use xlink:href="#V" x="-80" fill="url(#B)"/><use xlink:href="#W" x="-80" class="B"/><use xlink:href="#W" x="-80" fill="url(#B)"/><path d="M730.041 819.842h1.275v5.982L730.059 827l-.018-7.158z" class="B"/><path d="M730.041 819.842h1.275v5.982L730.059 827l-.018-7.158z" fill="url(#D)"/><use xlink:href="#K" x="-120" class="B"/><use xlink:href="#K" x="-120" fill="url(#B)"/><use xlink:href="#L" x="-120" class="B"/><use xlink:href="#L" x="-120" fill="url(#B)"/><use xlink:href="#M" x="-120" class="B"/><use xlink:href="#M" x="-120" fill="url(#B)"/><use xlink:href="#N" x="-120" class="B"/><use xlink:href="#N" x="-120" fill="url(#B)"/><use xlink:href="#O" x="-120" class="B"/><use xlink:href="#O" x="-120" fill="url(#B)"/><use xlink:href="#P" x="-120" class="B"/><use xlink:href="#P" x="-120" fill="url(#B)"/><use xlink:href="#Q" x="-120" class="B"/><use xlink:href="#Q" x="-120" fill="url(#B)"/><use xlink:href="#R" x="-120" class="B"/><use xlink:href="#R" x="-120" fill="url(#B)"/><use xlink:href="#S" x="-120" class="B"/><use xlink:href="#S" x="-120" fill="url(#B)"/><use xlink:href="#T" x="-120" class="B"/><use xlink:href="#T" x="-120" fill="url(#B)"/><use xlink:href="#U" x="-120" class="B"/><use xlink:href="#U" x="-120" fill="url(#B)"/><use xlink:href="#V" x="-120" class="B"/><use xlink:href="#V" x="-120" fill="url(#B)"/><use xlink:href="#W" x="-120" class="B"/><use xlink:href="#W" x="-120" fill="url(#B)"/><path d="M690.041 819.842h1.275v5.982L690.059 827l-.018-7.158z" class="B"/><path d="M690.041 819.842h1.275v5.982L690.059 827l-.018-7.158z" fill="url(#E)"/><use xlink:href="#K" x="-200" class="B"/><use xlink:href="#K" x="-200" fill="url(#B)"/><use xlink:href="#L" x="-200" class="B"/><use xlink:href="#L" x="-200" fill="url(#B)"/><use xlink:href="#M" x="-200" class="B"/><use xlink:href="#M" x="-200" fill="url(#B)"/><use xlink:href="#N" x="-200" class="B"/><use xlink:href="#N" x="-200" fill="url(#B)"/><use xlink:href="#O" x="-200" class="B"/><use xlink:href="#O" x="-200" fill="url(#B)"/><use xlink:href="#P" x="-200" class="B"/><use xlink:href="#P" x="-200" fill="url(#B)"/><use xlink:href="#Q" x="-200" class="B"/><use xlink:href="#Q" x="-200" fill="url(#B)"/><use xlink:href="#R" x="-200" class="B"/><use xlink:href="#R" x="-200" fill="url(#B)"/><use xlink:href="#S" x="-200" class="B"/><use xlink:href="#S" x="-200" fill="url(#B)"/><use xlink:href="#T" x="-200" class="B"/><use xlink:href="#T" x="-200" fill="url(#B)"/><use xlink:href="#U" x="-200" class="B"/><use xlink:href="#U" x="-200" fill="url(#B)"/><use xlink:href="#V" x="-200" class="B"/><use xlink:href="#V" x="-200" fill="url(#B)"/><use xlink:href="#W" x="-200" class="B"/><use xlink:href="#W" x="-200" fill="url(#B)"/><path d="M610.041 819.842h1.275v5.982L610.059 827l-.018-7.158z" class="B"/><path d="M610.041 819.842h1.275v5.982L610.059 827l-.018-7.158z" fill="url(#F)"/><use xlink:href="#K" x="-240" class="B"/><use xlink:href="#K" x="-240" fill="url(#B)"/><use xlink:href="#L" x="-240" class="B"/><use xlink:href="#L" x="-240" fill="url(#B)"/><use xlink:href="#M" x="-240" class="B"/><use xlink:href="#M" x="-240" fill="url(#B)"/><use xlink:href="#N" x="-240" class="B"/><use xlink:href="#N" x="-240" fill="url(#B)"/><use xlink:href="#O" x="-240" class="B"/><use xlink:href="#O" x="-240" fill="url(#B)"/><use xlink:href="#P" x="-240" class="B"/><use xlink:href="#P" x="-240" fill="url(#B)"/><use xlink:href="#Q" x="-240" class="B"/><use xlink:href="#Q" x="-240" fill="url(#B)"/><use xlink:href="#R" x="-240" class="B"/><use xlink:href="#R" x="-240" fill="url(#B)"/><use xlink:href="#S" x="-240" class="B"/><use xlink:href="#S" x="-240" fill="url(#B)"/><use xlink:href="#T" x="-240" class="B"/><use xlink:href="#T" x="-240" fill="url(#B)"/><use xlink:href="#U" x="-240" class="B"/><use xlink:href="#U" x="-240" fill="url(#B)"/><use xlink:href="#V" x="-240" class="B"/><use xlink:href="#V" x="-240" fill="url(#B)"/><use xlink:href="#W" x="-240" class="B"/><use xlink:href="#W" x="-240" fill="url(#B)"/><path d="M570.041 819.842h1.275v5.982L570.059 827l-.018-7.158z" class="B"/><path d="M570.041 819.842h1.275v5.982L570.059 827l-.018-7.158z" fill="url(#G)"/><use xlink:href="#K" x="-280" class="B"/><use xlink:href="#K" x="-280" fill="url(#B)"/><use xlink:href="#L" x="-280" class="B"/><use xlink:href="#L" x="-280" fill="url(#B)"/><use xlink:href="#M" x="-280" class="B"/><use xlink:href="#M" x="-280" fill="url(#B)"/><use xlink:href="#N" x="-280" class="B"/><use xlink:href="#N" x="-280" fill="url(#B)"/><use xlink:href="#O" x="-280" class="B"/><use xlink:href="#O" x="-280" fill="url(#B)"/><use xlink:href="#P" x="-280" class="B"/><use xlink:href="#P" x="-280" fill="url(#B)"/><use xlink:href="#Q" x="-280" class="B"/><use xlink:href="#Q" x="-280" fill="url(#B)"/><use xlink:href="#R" x="-280" class="B"/><use xlink:href="#R" x="-280" fill="url(#B)"/><use xlink:href="#S" x="-280" class="B"/><use xlink:href="#S" x="-280" fill="url(#B)"/><use xlink:href="#T" x="-280" class="B"/><use xlink:href="#T" x="-280" fill="url(#B)"/><use xlink:href="#U" x="-280" class="B"/><use xlink:href="#U" x="-280" fill="url(#B)"/><use xlink:href="#V" x="-280" class="B"/><use xlink:href="#V" x="-280" fill="url(#B)"/><use xlink:href="#W" x="-280" class="B"/><use xlink:href="#W" x="-280" fill="url(#B)"/><path d="M530.041 819.842h1.275v5.982L530.059 827l-.018-7.158z" class="B"/><path d="M530.041 819.842h1.275v5.982L530.059 827l-.018-7.158z" fill="url(#H)"/><use xlink:href="#K" x="-320" class="B"/><use xlink:href="#K" x="-320" fill="url(#B)"/><use xlink:href="#L" x="-320" class="B"/><use xlink:href="#L" x="-320" fill="url(#B)"/><use xlink:href="#M" x="-320" class="B"/><use xlink:href="#M" x="-320" fill="url(#B)"/><use xlink:href="#N" x="-320" class="B"/><use xlink:href="#N" x="-320" fill="url(#B)"/><use xlink:href="#O" x="-320" class="B"/><use xlink:href="#O" x="-320" fill="url(#B)"/><use xlink:href="#P" x="-320" class="B"/><use xlink:href="#P" x="-320" fill="url(#B)"/><use xlink:href="#Q" x="-320" class="B"/><use xlink:href="#Q" x="-320" fill="url(#B)"/><use xlink:href="#R" x="-320" class="B"/><use xlink:href="#R" x="-320" fill="url(#B)"/><use xlink:href="#S" x="-320" class="B"/><use xlink:href="#S" x="-320" fill="url(#B)"/><use xlink:href="#T" x="-320" class="B"/><use xlink:href="#T" x="-320" fill="url(#B)"/><use xlink:href="#U" x="-320" class="B"/><use xlink:href="#U" x="-320" fill="url(#B)"/><use xlink:href="#V" x="-320" class="B"/><use xlink:href="#V" x="-320" fill="url(#B)"/><use xlink:href="#W" x="-320" class="B"/><use xlink:href="#W" x="-320" fill="url(#B)"/><path d="M490.041 819.842h1.275v5.982L490.059 827l-.018-7.158z" class="B"/><path d="M490.041 819.842h1.275v5.982L490.059 827l-.018-7.158z" fill="url(#I)"/><path d="M633 816h39v9h-39z" class="B"/><path d="M635 808a3 3 0 0 1 3-3h29a3 3 0 0 1 3 3v8h-35v-8z" fill="#fff" class="E"/><path d="M640.832 802.25a5 5 0 0 1 5-5h13.542a5 5 0 0 1 5 5v4.375h-23.542v-4.375z" fill="#fff" class="E"/><path d="M644 796a5 5 0 0 1 5-5h7a5 5 0 0 1 5 5v2h-17v-2z" fill="#fff" class="E"/><path d="M638.125 805.168h29.167s-1.253 3.287-3.021 4.375c-4.063 2.5-7.007 2.517-11.667 2.5-4.58-.017-7.604 0-11.458-2.5-1.742-1.13-3.021-4.375-3.021-4.375zm5.832-7.293h17.292s-.743 1.991-1.791 2.651c-2.409 1.514-4.154 1.525-6.917 1.514-2.715-.01-4.508 0-6.793-1.514-1.033-.685-1.791-2.651-1.791-2.651zm2.711-6.041h11.875s-.51 1.394-1.23 1.855c-1.654 1.061-2.853 1.068-4.75 1.061-1.865-.008-3.096 0-4.665-1.061-.709-.479-1.23-1.855-1.23-1.855z" class="B"/><path d="M651.668 794.75h2.083V816h-2.083z" class="B"/><path d="M1477.1 662.277h86.895v109.485H1477.1z" class="C"/><path d="M1405 771.764h158.999v50.104H1405zm318 0h158.999v50.104H1723z" class="B"/><path d="M1564 717.947h158.999v103.918H1564z" class="B"/><path d="M1405 821.865h476.997v11.134H1405z" class="C"/><path d="M1525.17 732.795h22.186v24.124h-22.186zm55.47 3.711h40.674v20.413h-40.674z" class="D"/><use xlink:href="#X" class="D"/><use xlink:href="#X" x="-308.75" class="D"/><path d="M1613.92 795.887h57.313v33.402h-57.313z" class="D"/><path fill="#0b0a0a" d="M1630.56 795.887h25.883v33.402h-25.883z"/><path d="M1623.16 736.506h40.674v20.413h-40.674zm140.51 51.959h33.279v20.413h-33.279zm-308.75 0h33.279v20.413h-33.279zm210.76-51.959h40.674v20.413h-40.674z" class="D"/><use xlink:href="#X" x="68.41" class="D"/><use xlink:href="#X" x="-240.34" class="D"/><use xlink:href="#X" x="101.69" class="D"/><use xlink:href="#X" x="-207.07" class="D"/><path d="M1493.74 732.795h22.186v24.124h-22.186zm0-55.672h22.186v24.124h-22.186zm31.43 0h22.186v24.124h-22.186zM1490.05 653h49.918v7.423h-49.918zm166.39 55.67h49.918v7.423h-49.918zm166.39 55.67h49.918v7.423h-49.918z" class="D"/><path d="M1132 773h4v59h-4z" class="B"/><path d="M1071 746l65 27h-4l-65-27h4z" class="B"/><path d="M1118.03 814v1.233l.08.16.87 2.036h-7.33l-.26.375-2.3 3.294c-.52-.162-1.06-.243-1.61-.241-1.45.002-2.84.59-3.87 1.634s-1.61 2.46-1.61 3.938c0 3.073 2.46 5.571 5.48 5.571 2.88 0 5.24-2.273 5.46-5.143h2.9l.27-.375 4.11-6.161.55 1.286a5.54 5.54 0 0 0-2 2.039c-.48.846-.74 1.805-.74 2.783 0 3.06 2.47 5.571 5.49 5.571 3.01 0 5.48-2.511 5.48-5.571s-2.47-5.572-5.48-5.572a5.34 5.34 0 0 0-1.19.134l-2.27-5.277h2.61c.24 0 .42.185.42.429s-.18.428-.42.428v1.715c1.16 0 2.11-.971 2.11-2.143s-.95-2.143-2.11-2.143h-4.64zm-9.28.857v1.714h5.06l-.84-1.714h-4.22zm4.61 4.286h5.62l-3.4 5.09-2.22-5.09zm-1.47.857l2.21 5.143h-7.04v1.714h4.17c-.22 1.922-1.8 3.429-3.75 3.429-2.09 0-3.79-1.732-3.79-3.857s1.7-3.858 3.79-3.858c.63.001 1.25.157 1.8.456s1.02.731 1.37 1.259h1.9a5.55 5.55 0 0 0-1.93-2.438l1.27-1.848zm11.63 2.571c2.09 0 3.79 1.732 3.79 3.858s-1.7 3.857-3.79 3.857c-2.1 0-3.8-1.732-3.8-3.857 0-1.35.7-2.525 1.74-3.215l1.71 3.991 1.53-.696-1.66-3.884c.16-.02.31-.054.48-.054z" fill="#0a184f"/><path d="M1143 831h240v2h-240z" class="B"/><path d="M1391.84 742.881c-1.93 3.651-14.59 2.953-20.68 2.148v13.693c1.94-2.148 14.59-.895 20.68 0v-15.841z" fill="#7d5163"/><path fill="#0a134b" d="M1369.66 744.76h1.611v84.309h-1.611z"/><ellipse cx="1370.21" cy="743.148" rx="1.879" ry="2.148" fill="#0a134b"/><path d="M1364 829h15v1h-15z" class="B"/><path d="M1360 830h23v1h-23zM9.163 769.372l6.14-8.372 6.14 8.372H19.21l7.256 10.326h-1.674l6.419 9.767h-1.674l5.861 9.768h-2.512l7.814 11.302h-2.651l6.558 11.302H-14l6.558-11.302h-2.093L-2 799.233h-2.791l5.86-9.768H-.605l6.419-9.767H4.14l7.256-10.326H9.163z" class="B"/><path d="M12.231 821.838h6.698v11.163h-6.698zm75.537-52.466l6.14-8.372 6.139 8.372h-2.232l7.256 10.326h-1.675l6.419 9.767h-1.675l5.861 9.768h-2.512l7.814 11.302h-2.651l6.558 11.302H64.606l6.558-11.302h-2.093l7.535-11.302h-2.791l5.86-9.768h-1.674l6.419-9.767h-1.674l7.256-10.326h-2.233z" class="B"/><path d="M90.836 821.838h6.698v11.163h-6.698zm75.538-52.466l6.139-8.372 6.14 8.372h-2.233l7.256 10.326h-1.674l6.418 9.767h-1.674l5.86 9.768h-2.511l7.814 11.302h-2.652l6.559 11.302h-58.605l6.558-11.302h-2.093l7.535-11.302h-2.791l5.861-9.768h-1.675l6.419-9.767h-1.675l7.256-10.326h-2.232z" class="B"/><path d="M169.441 821.838h6.698v11.163h-6.698zm75.722-52.466l6.139-8.372 6.14 8.372h-2.233l7.256 10.326h-1.674l6.418 9.767h-1.674l5.86 9.768h-2.511l7.814 11.302h-2.651l6.558 11.302H222l6.558-11.302h-2.093L234 799.233h-2.791l5.861-9.768h-1.675l6.419-9.767h-1.674l7.255-10.326h-2.232z" class="B"/><path d="M248.23 821.838h6.698v11.163h-6.698z" class="B"/></g><defs><linearGradient id="B" x1="811" y1="787" x2="811" y2="825.824" xlink:href="#Y"><stop stop-color="#092158"/><stop offset="1" stop-color="#0b053e"/></linearGradient><linearGradient id="C" x1="771" y1="787" x2="771" y2="825.824" xlink:href="#Y"><stop stop-color="#092158"/><stop offset="1" stop-color="#0b053e"/></linearGradient><linearGradient id="D" x1="731" y1="787" x2="731" y2="825.824" xlink:href="#Y"><stop stop-color="#092158"/><stop offset="1" stop-color="#0b053e"/></linearGradient><linearGradient id="E" x1="691" y1="787" x2="691" y2="825.824" xlink:href="#Y"><stop stop-color="#092158"/><stop offset="1" stop-color="#0b053e"/></linearGradient><linearGradient id="F" x1="611" y1="787" x2="611" y2="825.824" xlink:href="#Y"><stop stop-color="#092158"/><stop offset="1" stop-color="#0b053e"/></linearGradient><linearGradient id="G" x1="571" y1="787" x2="571" y2="825.824" xlink:href="#Y"><stop stop-color="#092158"/><stop offset="1" stop-color="#0b053e"/></linearGradient><linearGradient id="H" x1="531" y1="787" x2="531" y2="825.824" xlink:href="#Y"><stop stop-color="#092158"/><stop offset="1" stop-color="#0b053e"/></linearGradient><linearGradient id="I" x1="491" y1="787" x2="491" y2="825.824" xlink:href="#Y"><stop stop-color="#092158"/><stop offset="1" stop-color="#0b053e"/></linearGradient><path id="J" d="M897 826h1v1h8v-1h1v7h-10v-7z"/><path id="K" d="M817.713 806.305c0 8.128-3.14 14.718-7.013 14.718s-7.831-6.59-7.831-14.718 3.959-14.717 7.831-14.717 7.013 6.589 7.013 14.717z"/><path id="L" d="M801.241 805.383c-.064-.255.023-.522.232-.711l2.763-2.499c.463-.419 1.274-.276 1.511.267l2.333 5.358c.179.41-.064.867-.541 1.017l-4.055 1.275c-.518.163-1.084-.107-1.201-.572l-1.042-4.135z"/><path id="M" d="M801.638 797.569c-.027-.29.133-.57.418-.727l3.624-1.998c.559-.308 1.3-.013 1.391.555l1.352 8.382c.063.392-.22.764-.662.868l-4.288 1.012c-.55.13-1.102-.204-1.148-.696l-.687-7.396z"/><path id="N" d="M801.214 812.195c-.261-.268-.286-.652-.061-.943l2.103-2.732c.37-.48 1.194-.464 1.538.03l4.186 6.009c.25.358.131.823-.271 1.058l-1.974 1.153c-.386.225-.907.162-1.207-.146l-4.314-4.429z"/><path id="O" d="M803.73 817.281c-.398-.247-.499-.722-.227-1.075l1.025-1.331c.332-.43 1.046-.472 1.441-.084l3.674 3.606c.295.289.304.719.022 1.018l-.384.405c-.304.322-.845.384-1.236.141l-4.315-2.68z"/><path id="P" d="M820.967 804.745c.119-.371-.09-.764-.492-.929l-3.587-1.469c-.486-.199-1.06.008-1.239.445l-2.09 5.112c-.164.4.068.843.524 1.001l4.058 1.405c.502.173 1.063-.067 1.207-.517l1.619-5.048z"/><path id="Q" d="M820.392 798.374c.029-.274-.109-.541-.363-.706l-4.021-2.605c-.555-.36-1.349-.074-1.443.519l-1.31 8.226c-.066.414.253.802.726.884l4.655.811c.529.092 1.031-.232 1.08-.697l.676-6.432z"/><path id="R" d="M816.224 793.526l-5.664-3.67-1.637 10.282 5.253 1.073 2.048-3.642v-4.043z"/><path id="S" d="M816.259 793.892c-.022-.232-.162-.444-.381-.579l-2.351-1.453c-.122-.075-.221-.175-.288-.291l-1.252-2.165c-.407-.703-1.617-.52-1.717.259l-1.257 9.778c-.051.397.25.766.7.858l3.815.779c.386.079.785-.067.987-.362l1.957-2.852a.71.71 0 0 0 .124-.467l-.337-3.505z"/><path id="T" d="M804.989 793.876c-.001-.253.139-.489.376-.636l2.599-1.615c.122-.076.221-.177.286-.295l.987-1.769c.396-.709 1.626-.525 1.728.26l1.258 9.607c.052.397-.249.763-.7.851l-3.76.737c-.414.081-.839-.096-1.026-.426l-1.648-2.921a.7.7 0 0 1-.092-.343l-.008-3.45z"/><path id="U" d="M820.366 812.271c.257-.267.28-.649.059-.94l-2.065-2.716c-.37-.487-1.195-.474-1.537.024l-4.127 6c-.246.358-.126.823.273 1.059l1.933 1.144c.387.229.909.167 1.207-.143l4.257-4.428z"/><path id="V" d="M817.884 817.358c.392-.247.489-.719.221-1.072l-1.002-1.318c-.332-.436-1.049-.481-1.443-.089l-3.62 3.599a.71.71 0 0 0-.019 1.016l.369.395c.305.327.85.39 1.24.145l4.254-2.676z"/><path id="W" d="M810.537 787.091c.065-.121.263-.121.33-.001l3.859 7.041c.041.075.008.164-.075.205l-4.367 2.137c-.074.036-.168.023-.225-.032l-2.921-2.808c-.049-.047-.06-.115-.03-.172l3.429-6.37z"/><path id="X" d="M1730.39 788.465h31.43v20.413h-31.43z"/><linearGradient id="Y" gradientUnits="userSpaceOnUse"/></defs></svg>