<svg xmlns="http://www.w3.org/2000/svg" xmlns:xlink="http://www.w3.org/1999/xlink" width="1920" height="1080" fill="none" xmlns:v="https://vecta.io/nano"><style><![CDATA[.B{fill:#2c2443}.C{fill:#f9dfce}.D{fill:#2b243e}.E{fill:#2d2443}.F{fill:#2e2443}.G{fill:#4f2941}.H{fill-rule:evenodd}]]></style><mask id="A" mask-type="alpha" maskUnits="userSpaceOnUse" x="0" y="0" width="1920" height="1080"><path fill="#c4c4c4" d="M0 0h1920v1080H0z"/></mask><g mask="url(#A)"><path d="M0 920v160h1920V977H879v-3h-10v-6h-10v-6h-10v-6h-10v-6h-10v-6h-10v-6h-10v-6h-10v-6h-9.921l-.079-.049V920H0z" fill="url(#B)"/><path d="M566.715 775.285h137.907v128.396H566.715z" class="G"/><path d="M563.148 771.082h152.173v4.755H563.148zm-2.378 130.773h146.229v4.755H560.77z" class="B"/><path d="M560.77 906.611h146.229v14.266H560.77z" class="D"/><path d="M560.77 711.639h117.101l37.449 59.442H560.77v-59.442z" class="B"/><path transform="matrix(-1 0 0 1 626.156 829.334)" d="M0 0h48.743v3.567H0z" class="B"/><path transform="matrix(-1 0 0 1 623.777 786.535)" d="M0 0h43.987v42.799H0z" class="B"/><path transform="matrix(-1 0 0 1 621.398 788.912)" d="M0 0h39.232v10.7H0z" class="C"/><use xlink:href="#C" transform="matrix(-1 0 0 1 621.398 801.99)" class="C"/><use xlink:href="#C" transform="matrix(-1 0 0 1 594.055 801.99)" class="C"/><path transform="matrix(-1 0 0 1 607.133 801.99)" d="M0 0h10.7v24.966H0z" class="C"/><path transform="matrix(-1 0 0 1 691.543 829.334)" d="M0 0h48.743v3.567H0z" class="B"/><path transform="matrix(-1 0 0 1 689.164 786.535)" d="M0 0h43.987v42.799H0z" class="B"/><path transform="matrix(-1 0 0 1 686.785 788.912)" d="M0 0h39.232v10.7H0z" class="C"/><use xlink:href="#C" transform="matrix(-1 0 0 1 686.785 801.99)" class="C"/><use xlink:href="#C" transform="matrix(-1 0 0 1 659.441 801.99)" class="C"/><path transform="matrix(-1 0 0 1 672.52 801.99)" d="M0 0h10.7v24.966H0z" class="C"/><path transform="matrix(-1 0 0 1 691.543 886.398)" d="M0 0h48.743v3.567H0z" class="B"/><path transform="matrix(-1 0 0 1 689.164 843.6)" d="M0 0h43.987v42.799H0z" class="B"/><path transform="matrix(-1 0 0 1 686.785 845.977)" d="M0 0h39.232v10.7H0z" class="C"/><use xlink:href="#C" transform="matrix(-1 0 0 1 686.785 859.055)" class="C"/><use xlink:href="#C" transform="matrix(-1 0 0 1 659.441 859.055)" class="C"/><path transform="matrix(-1 0 0 1 672.52 859.055)" d="M0 0h10.7v24.966H0z" class="C"/><path transform="matrix(-1 0 0 1 626.156 886.398)" d="M0 0h48.743v3.567H0z" class="B"/><path transform="matrix(-1 0 0 1 623.777 843.6)" d="M0 0h43.987v42.799H0z" class="B"/><path transform="matrix(-1 0 0 1 621.398 845.977)" d="M0 0h39.232v10.7H0z" class="C"/><use xlink:href="#C" transform="matrix(-1 0 0 1 621.398 859.055)" class="C"/><use xlink:href="#C" transform="matrix(-1 0 0 1 594.055 859.055)" class="C"/><path transform="matrix(-1 0 0 1 607.133 859.055)" d="M0 0h10.7v24.966H0z" class="C"/><path d="M467.756 641.496l98.958 71.331H368.176l99.58-71.331z" class="G"/><path transform="matrix(-1 0 0 1 364.605 777.023)" d="M0 0h137.907v124.829H0z" class="G"/><path transform="matrix(-1 0 0 1 368.172 772.27)" d="M0 0h152.173v4.755H0z" class="F"/><path transform="matrix(-1 0 0 1 370.551 901.854)" d="M0 0h146.229v4.755H0z" class="B"/><path transform="matrix(-1 0 0 1 370.551 906.609)" d="M0 0h146.229v14.266H0z" class="D"/><path d="M370.551 712.826H253.449L216 772.269H370.551V712.826Z" class="F"/><path d="M467.23 635l107.805 76.638-4.428 5.937-103.37-73.485-104.145 74.036-4.428-5.937 107.805-76.638.175.235.586-.786z" class="B H"/><path d="M368.176 765.137H560.77V928.01H368.176z" class="G"/><path d="M358.664 928.01h215.182v15.455H358.664z" class="D"/><path fill="#6b334a" d="M363.418 718.77h203.294v40.421H363.418z"/><path d="M357.473 712.826h216.371v5.944H357.473z" class="B"/><path d="M357.473 759.191h216.371v5.944H357.473z" class="D"/><path d="M368.172 723.525h194.972v32.099H368.172z" class="B"/><circle cx="468.038" cy="687.861" r="16.644" class="B"/><path d="M401.461 765.137h24.966v3.567h-24.966z" class="D"/><path d="M405.027 768.703h17.833v3.567h-17.833z" class="D"/><path d="M406.215 772.27h14.266v3.567h-14.266z" class="D"/><path transform="rotate(180 426.426 928.006)" d="M426.426 928.006h24.966v3.567h-24.966z" class="D"/><path transform="rotate(180 422.859 924.439)" d="M422.859 924.439h17.833v3.567h-17.833z" class="D"/><path transform="rotate(180 420.484 920.877)" d="M420.484 920.877h14.266v3.567h-14.266z" class="D"/><path d="M406.215 775.836h14.266v141.473h-14.266zm-47.551-10.699h24.966v3.567h-24.966z" class="D"/><path d="M362.23 768.703h17.833v3.567H362.23z" class="D"/><path d="M363.422 772.27h14.266v3.567h-14.266z" class="D"/><path transform="rotate(180 383.633 928.006)" d="M383.633 928.006h24.966v3.567h-24.966z" class="D"/><path transform="rotate(180 380.062 924.439)" d="M380.062 924.439h17.833v3.567h-17.833z" class="D"/><path transform="rotate(180 377.688 920.875)" d="M377.688 920.875h14.266v3.567h-14.266z" class="D"/><path d="M363.422 775.836h14.266v141.473h-14.266zm142.66-10.699h24.966v3.567h-24.966z" class="D"/><path d="M509.648 768.703h17.833v3.567h-17.833z" class="D"/><path d="M510.836 772.27h14.266v3.567h-14.266z" class="D"/><path transform="rotate(180 531.047 928.006)" d="M531.047 928.006h24.966v3.567h-24.966z" class="D"/><path transform="rotate(180 527.48 924.439)" d="M527.48 924.439h17.833v3.567H527.48z" class="D"/><path transform="rotate(180 525.105 920.877)" d="M525.105 920.877h14.266v3.567h-14.266z" class="D"/><path d="M510.836 775.836h14.266v141.473h-14.266zm38.043-10.699h24.966v3.567h-24.966z" class="D"/><path d="M552.445 768.703h17.833v3.567h-17.833z" class="D"/><path d="M553.633 772.27h14.266v3.567h-14.266z" class="D"/><path transform="rotate(180 573.844 928.006)" d="M573.844 928.006h24.966v3.567h-24.966z" class="D"/><path transform="rotate(180 570.277 924.439)" d="M570.277 924.439h17.833v3.567h-17.833z" class="D"/><path transform="rotate(180 567.902 920.877)" d="M567.902 920.877h14.266v3.567h-14.266z" class="D"/><path d="M553.633 775.836h14.266v141.473h-14.266z" class="D"/><path d="M433.567 853.111h65.382v74.898h-65.387l.005-74.898z" class="B"/><path d="M438.32 857.867h23.777v65.387H438.32zm33.289 0h23.777v65.387h-23.777z" class="C"/><path d="M305.164 830.523h48.743v3.567h-48.743z" class="B"/><path d="M307.543 787.725h43.987v42.799h-43.987z" class="B"/><path d="M309.918 790.102h39.232v10.7h-39.232z" class="C"/><use xlink:href="#D" class="C"/><use xlink:href="#D" x="27.344" class="C"/><path d="M324.184 803.178h10.7v24.966h-10.7z" class="C"/><path d="M239.777 830.523h48.743v3.567h-48.743z" class="B"/><path d="M242.156 787.725h43.987v42.799h-43.987z" class="B"/><path d="M244.531 790.102h39.232v10.7h-39.232z" class="C"/><use xlink:href="#D" x="-65.387" class="C"/><use xlink:href="#D" x="-38.043" class="C"/><path d="M258.797 803.178h10.7v24.966h-10.7z" class="C"/><path d="M239.777 887.588h48.743v3.567h-48.743z" class="B"/><path d="M242.156 844.789h43.987v42.799h-43.987z" class="B"/><path d="M244.531 847.166h39.232v10.7h-39.232z" class="C"/><use xlink:href="#D" x="-65.387" y="57.066" class="C"/><use xlink:href="#D" x="-38.043" y="57.066" class="C"/><path d="M258.797 860.244h10.7v24.966h-10.7z" class="C"/><path d="M305.164 887.588h48.743v3.567h-48.743z" class="B"/><path d="M307.543 844.789h43.987v42.799h-43.987z" class="B"/><path d="M309.918 847.166h39.232v10.7h-39.232z" class="C"/><use xlink:href="#D" y="57.066" class="C"/><use xlink:href="#D" x="27.344" y="57.066" class="C"/><path d="M324.184 860.244h10.7v24.966h-10.7z" class="C"/><path d="M444.262 823.391h43.987v3.567h-43.987z" class="B"/><path d="M449.016 773.459h35.666v49.932h-35.666z" class="B"/><path d="M451.395 775.836h30.91v13.077h-30.91zm0 15.455h14.266v29.721h-14.266zm16.644 0h14.266v29.721h-14.266z" class="C"/><path d="M980 829h6v150h-6z" class="E"/><path d="M986 848.5h15v3h-15z" class="E"/><path transform="rotate(0.042 1001.03 829)" d="M1001.03 829h3v40.5h-3z" class="E"/><path d="M1004 859h12v3h-12z" class="E"/><path d="M1004 862l1.5 10.5h9l1.5-10.5h-12zm1.5 1.5l1.12 7.5h6.76l1.12-7.5h-9z" class="E H"/><path d="M1005.5 872.5h1.5v1.5h-1.5zm1.5-9h1.5v7.5h-1.5z" class="E"/><path d="M1005.5 866.5h9v1.5h-9z" class="E"/><path d="M1011.5 863.5h1.5v7.5h-1.5zm-3 9h3v1.5h-3zm4.5 0h1.5v1.5h-1.5z" class="E"/><path transform="matrix(-1 0 0 1 1369 828)" d="M0 0h6v150H0z" class="B"/><path transform="matrix(-1 0 0 1 1363 847.5)" d="M0 0h15v3H0z" class="B"/><path transform="matrix(-1 .000729 .000729 1 1347.97 828)" d="M0 0h3v40.5H0z" class="B"/><path transform="matrix(-1 0 0 1 1345 858)" d="M0 0h12v3H0z" class="B"/><path d="M1345 861l-1.5 10.5h-9L1333 861h12zm-1.5 1.5l-1.12 7.5h-6.76l-1.12-7.5h9z" class="B H"/><path transform="matrix(-1 0 0 1 1343.5 871.5)" d="M0 0h1.5v1.5H0z" class="B"/><path transform="matrix(-1 0 0 1 1342 862.5)" d="M0 0h1.5v7.5H0z" class="B"/><path transform="matrix(-1 0 0 1 1343.5 865.5)" d="M0 0h9v1.5H0z" class="B"/><path transform="matrix(-1 0 0 1 1337.5 862.5)" d="M0 0h1.5v7.5H0z" class="B"/><path transform="matrix(-1 0 0 1 1340.5 871.5)" d="M0 0h3v1.5H0z" class="B"/><path transform="matrix(-1 0 0 1 1336 871.5)" d="M0 0h1.5v1.5H0z" class="B"/><path d="M1427.5 863l11-15 11 15h-4l13 18.5h-3L1467 899h-3l10.5 17.5h-4.5l14 20.25h-4.75L1491 957h-105l11.75-20.25H1394l13.5-20.25h-5L1413 899h-3l11.5-17.5h-3l13-18.5h-4z" fill="#2b2443"/><path fill="#2b2443" d="M1433 957h12v20h-12z"/><path d="M1547.5 863l11-15 11 15h-4l13 18.5h-3L1587 899h-3l10.5 17.5h-4.5l14 20.25h-4.75L1611 957h-105l11.75-20.25H1514l13.5-20.25h-5L1533 899h-3l11.5-17.5h-3l13-18.5h-4z" class="B"/><path d="M1553 957h12v20h-12zm114.5-93l11-15 11 15h-4l13 18.5h-3L1707 900h-3l10.5 17.5h-4.5l14 20.25h-4.75L1731 958h-105l11.75-20.25H1634l13.5-20.25h-5L1653 900h-3l11.5-17.5h-3l13-18.5h-4z" class="B"/><path d="M1673 958h12v20h-12zm114.5-94l11-15 11 15h-4l13 18.5h-3L1827 900h-3l10.5 17.5h-4.5l14 20.25h-4.75L1851 958h-105l11.75-20.25H1754l13.5-20.25h-5L1773 900h-3l11.5-17.5h-3l13-18.5h-4z" class="B"/><path d="M1793 958h12v20h-12zm114.5-94l11-15 11 15h-4l13 18.5h-3L1947 900h-3l10.5 17.5h-4.5l14 20.25h-4.75L1971 958h-105l11.75-20.25H1874l13.5-20.25h-5L1893 900h-3l11.5-17.5h-3l13-18.5h-4z" class="B"/><path d="M1913 958h12v20h-12z" class="B"/><path d="M785 904h-2v16h2v-14l48 27.918V950h2v-14.918L883 963v14h2v-16h-2l-98-57z" class="E"/><path d="M735.5 900h5v20h-5z" class="F"/><path d="M718 895h40v5h-40zm-5 13.75h10V920h-10zm40 0h10V920h-10z" class="F"/><path d="M930.5 957h5v20h-5z" class="E"/><path d="M913 952h40v5h-40zm-5 13.75h10V977h-10zm40 0h10V977h-10z" class="E"/><path d="M181.5 900h5v20h-5z" class="F"/><path d="M164 895h40v5h-40zm-5 13.75h10V920h-10zm40 0h10V920h-10zM102.5 900h5v20h-5z" class="F"/><path d="M85 895h40v5H85zm-5 13.75h10V920H80zm40 0h10V920h-10z" class="F"/></g><defs><linearGradient id="B" x1="960" y1="920" x2="960" y2="1080" gradientUnits="userSpaceOnUse"><stop stop-color="#2e2443"/><stop offset="1" stop-color="#2a2342"/></linearGradient><path id="C" d="M0 0h11.889v24.966H0z"/><path id="D" d="M309.918 803.178h11.889v24.966h-11.889z"/></defs></svg>