<svg width="1920" height="1080" viewBox="0 0 1920 1080" fill="none" xmlns="http://www.w3.org/2000/svg">
<mask id="mask0" mask-type="alpha" maskUnits="userSpaceOnUse" x="0" y="0" width="1920" height="1080">
<rect width="1920" height="1080" fill="#C4C4C4"/>
</mask>
<g mask="url(#mask0)">
<path d="M0 920V1080H1920V977H879V974H869V968H859V962H849V956H839V950H829V944H819V938H809V932H799V926H789.079L789 925.951V920H0Z" fill="url(#paint0_linear)"/>
<rect x="566.715" y="775.285" width="137.907" height="128.396" fill="#4F2941"/>
<rect x="563.148" y="771.082" width="152.173" height="4.7554" fill="#2C2443"/>
<rect x="560.77" y="901.855" width="146.229" height="4.7554" fill="#2C2443"/>
<rect x="560.77" y="906.611" width="146.229" height="14.2662" fill="#2B243E"/>
<path d="M560.77 711.639H677.871L715.32 771.081H560.77V711.639Z" fill="#2C2443"/>
<rect width="48.7429" height="3.56655" transform="matrix(-1 0 0 1 626.156 829.334)" fill="#2C2443"/>
<rect width="43.9875" height="42.7986" transform="matrix(-1 0 0 1 623.777 786.535)" fill="#2C2443"/>
<rect width="39.2321" height="10.6997" transform="matrix(-1 0 0 1 621.398 788.912)" fill="#F9DFCE"/>
<rect width="11.8885" height="24.9659" transform="matrix(-1 0 0 1 621.398 801.99)" fill="#F9DFCE"/>
<rect width="11.8885" height="24.9659" transform="matrix(-1 0 0 1 594.055 801.99)" fill="#F9DFCE"/>
<rect width="10.6997" height="24.9659" transform="matrix(-1 0 0 1 607.133 801.99)" fill="#F9DFCE"/>
<rect width="48.7429" height="3.56655" transform="matrix(-1 0 0 1 691.543 829.334)" fill="#2C2443"/>
<rect width="43.9875" height="42.7986" transform="matrix(-1 0 0 1 689.164 786.535)" fill="#2C2443"/>
<rect width="39.2321" height="10.6997" transform="matrix(-1 0 0 1 686.785 788.912)" fill="#F9DFCE"/>
<rect width="11.8885" height="24.9659" transform="matrix(-1 0 0 1 686.785 801.99)" fill="#F9DFCE"/>
<rect width="11.8885" height="24.9659" transform="matrix(-1 0 0 1 659.441 801.99)" fill="#F9DFCE"/>
<rect width="10.6997" height="24.9659" transform="matrix(-1 0 0 1 672.52 801.99)" fill="#F9DFCE"/>
<rect width="48.7429" height="3.56655" transform="matrix(-1 0 0 1 691.543 886.398)" fill="#2C2443"/>
<rect width="43.9875" height="42.7986" transform="matrix(-1 0 0 1 689.164 843.6)" fill="#2C2443"/>
<rect width="39.2321" height="10.6997" transform="matrix(-1 0 0 1 686.785 845.977)" fill="#F9DFCE"/>
<rect width="11.8885" height="24.9659" transform="matrix(-1 0 0 1 686.785 859.055)" fill="#F9DFCE"/>
<rect width="11.8885" height="24.9659" transform="matrix(-1 0 0 1 659.441 859.055)" fill="#F9DFCE"/>
<rect width="10.6997" height="24.9659" transform="matrix(-1 0 0 1 672.52 859.055)" fill="#F9DFCE"/>
<rect width="48.7429" height="3.56655" transform="matrix(-1 0 0 1 626.156 886.398)" fill="#2C2443"/>
<rect width="43.9875" height="42.7986" transform="matrix(-1 0 0 1 623.777 843.6)" fill="#2C2443"/>
<rect width="39.2321" height="10.6997" transform="matrix(-1 0 0 1 621.398 845.977)" fill="#F9DFCE"/>
<rect width="11.8885" height="24.9659" transform="matrix(-1 0 0 1 621.398 859.055)" fill="#F9DFCE"/>
<rect width="11.8885" height="24.9659" transform="matrix(-1 0 0 1 594.055 859.055)" fill="#F9DFCE"/>
<rect width="10.6997" height="24.9659" transform="matrix(-1 0 0 1 607.133 859.055)" fill="#F9DFCE"/>
<path d="M467.756 641.496L566.714 712.827H368.176L467.756 641.496Z" fill="#4F2941"/>
<rect width="137.907" height="124.829" transform="matrix(-1 0 0 1 364.605 777.023)" fill="#4F2941"/>
<rect width="152.173" height="4.7554" transform="matrix(-1 0 0 1 368.172 772.27)" fill="#2E2443"/>
<rect width="146.229" height="4.7554" transform="matrix(-1 0 0 1 370.551 901.854)" fill="#2C2443"/>
<rect width="146.229" height="14.2662" transform="matrix(-1 0 0 1 370.551 906.609)" fill="#2B243E"/>
<path d="M370.551 712.826H253.449L216 772.269H370.551V712.826Z" fill="#2E2443"/>
<path fill-rule="evenodd" clip-rule="evenodd" d="M467.23 635L575.035 711.638L570.607 717.575L467.237 644.09L363.092 718.126L358.664 712.189L466.469 635.551L466.644 635.786L467.23 635Z" fill="#2C2443"/>
<rect x="368.176" y="765.137" width="192.594" height="162.873" fill="#4F2941"/>
<rect x="358.664" y="928.01" width="215.182" height="15.4551" fill="#2B243E"/>
<rect x="363.418" y="718.77" width="203.294" height="40.4209" fill="#6B334A"/>
<rect x="357.473" y="712.826" width="216.371" height="5.94425" fill="#2C2443"/>
<rect x="357.473" y="759.191" width="216.371" height="5.94425" fill="#2B243E"/>
<rect x="368.172" y="723.525" width="194.972" height="32.099" fill="#2C2443"/>
<circle cx="468.038" cy="687.861" r="16.6439" fill="#2C2443"/>
<rect x="401.461" y="765.137" width="24.9659" height="3.56655" fill="#2B243E"/>
<rect x="405.027" y="768.703" width="17.8328" height="3.56655" fill="#2B243E"/>
<rect x="406.215" y="772.27" width="14.2662" height="3.56655" fill="#2B243E"/>
<rect x="426.426" y="928.006" width="24.9659" height="3.56655" transform="rotate(180 426.426 928.006)" fill="#2B243E"/>
<rect x="422.859" y="924.439" width="17.8328" height="3.56655" transform="rotate(180 422.859 924.439)" fill="#2B243E"/>
<rect x="420.484" y="920.877" width="14.2662" height="3.56655" transform="rotate(180 420.484 920.877)" fill="#2B243E"/>
<rect x="406.215" y="775.836" width="14.2662" height="141.473" fill="#2B243E"/>
<rect x="358.664" y="765.137" width="24.9659" height="3.56655" fill="#2B243E"/>
<rect x="362.23" y="768.703" width="17.8328" height="3.56655" fill="#2B243E"/>
<rect x="363.422" y="772.27" width="14.2662" height="3.56655" fill="#2B243E"/>
<rect x="383.633" y="928.006" width="24.9659" height="3.56655" transform="rotate(180 383.633 928.006)" fill="#2B243E"/>
<rect x="380.062" y="924.439" width="17.8328" height="3.56655" transform="rotate(180 380.062 924.439)" fill="#2B243E"/>
<rect x="377.688" y="920.875" width="14.2662" height="3.56655" transform="rotate(180 377.688 920.875)" fill="#2B243E"/>
<rect x="363.422" y="775.836" width="14.2662" height="141.473" fill="#2B243E"/>
<rect x="506.082" y="765.137" width="24.9659" height="3.56655" fill="#2B243E"/>
<rect x="509.648" y="768.703" width="17.8328" height="3.56655" fill="#2B243E"/>
<rect x="510.836" y="772.27" width="14.2662" height="3.56655" fill="#2B243E"/>
<rect x="531.047" y="928.006" width="24.9659" height="3.56655" transform="rotate(180 531.047 928.006)" fill="#2B243E"/>
<rect x="527.48" y="924.439" width="17.8328" height="3.56655" transform="rotate(180 527.48 924.439)" fill="#2B243E"/>
<rect x="525.105" y="920.877" width="14.2662" height="3.56655" transform="rotate(180 525.105 920.877)" fill="#2B243E"/>
<rect x="510.836" y="775.836" width="14.2662" height="141.473" fill="#2B243E"/>
<rect x="548.879" y="765.137" width="24.9659" height="3.56655" fill="#2B243E"/>
<rect x="552.445" y="768.703" width="17.8328" height="3.56655" fill="#2B243E"/>
<rect x="553.633" y="772.27" width="14.2662" height="3.56655" fill="#2B243E"/>
<rect x="573.844" y="928.006" width="24.9659" height="3.56655" transform="rotate(180 573.844 928.006)" fill="#2B243E"/>
<rect x="570.277" y="924.439" width="17.8328" height="3.56655" transform="rotate(180 570.277 924.439)" fill="#2B243E"/>
<rect x="567.902" y="920.877" width="14.2662" height="3.56655" transform="rotate(180 567.902 920.877)" fill="#2B243E"/>
<rect x="553.633" y="775.836" width="14.2662" height="141.473" fill="#2B243E"/>
<path d="M433.567 853.111H498.949V928.009H433.562L433.567 853.111Z" fill="#2C2443"/>
<rect x="438.32" y="857.867" width="23.777" height="65.3868" fill="#F9DFCE"/>
<rect x="471.609" y="857.867" width="23.777" height="65.3868" fill="#F9DFCE"/>
<rect x="305.164" y="830.523" width="48.7429" height="3.56655" fill="#2C2443"/>
<rect x="307.543" y="787.725" width="43.9875" height="42.7986" fill="#2C2443"/>
<rect x="309.918" y="790.102" width="39.2321" height="10.6997" fill="#F9DFCE"/>
<rect x="309.918" y="803.178" width="11.8885" height="24.9659" fill="#F9DFCE"/>
<rect x="337.262" y="803.178" width="11.8885" height="24.9659" fill="#F9DFCE"/>
<rect x="324.184" y="803.178" width="10.6997" height="24.9659" fill="#F9DFCE"/>
<rect x="239.777" y="830.523" width="48.7429" height="3.56655" fill="#2C2443"/>
<rect x="242.156" y="787.725" width="43.9875" height="42.7986" fill="#2C2443"/>
<rect x="244.531" y="790.102" width="39.2321" height="10.6997" fill="#F9DFCE"/>
<rect x="244.531" y="803.178" width="11.8885" height="24.9659" fill="#F9DFCE"/>
<rect x="271.875" y="803.178" width="11.8885" height="24.9659" fill="#F9DFCE"/>
<rect x="258.797" y="803.178" width="10.6997" height="24.9659" fill="#F9DFCE"/>
<rect x="239.777" y="887.588" width="48.7429" height="3.56655" fill="#2C2443"/>
<rect x="242.156" y="844.789" width="43.9875" height="42.7986" fill="#2C2443"/>
<rect x="244.531" y="847.166" width="39.2321" height="10.6997" fill="#F9DFCE"/>
<rect x="244.531" y="860.244" width="11.8885" height="24.9659" fill="#F9DFCE"/>
<rect x="271.875" y="860.244" width="11.8885" height="24.9659" fill="#F9DFCE"/>
<rect x="258.797" y="860.244" width="10.6997" height="24.9659" fill="#F9DFCE"/>
<rect x="305.164" y="887.588" width="48.7429" height="3.56655" fill="#2C2443"/>
<rect x="307.543" y="844.789" width="43.9875" height="42.7986" fill="#2C2443"/>
<rect x="309.918" y="847.166" width="39.2321" height="10.6997" fill="#F9DFCE"/>
<rect x="309.918" y="860.244" width="11.8885" height="24.9659" fill="#F9DFCE"/>
<rect x="337.262" y="860.244" width="11.8885" height="24.9659" fill="#F9DFCE"/>
<rect x="324.184" y="860.244" width="10.6997" height="24.9659" fill="#F9DFCE"/>
<rect x="444.262" y="823.391" width="43.9875" height="3.56655" fill="#2C2443"/>
<rect x="449.016" y="773.459" width="35.6655" height="49.9317" fill="#2C2443"/>
<rect x="451.395" y="775.836" width="30.9101" height="13.0774" fill="#F9DFCE"/>
<rect x="451.395" y="791.291" width="14.2662" height="29.7213" fill="#F9DFCE"/>
<rect x="468.039" y="791.291" width="14.2662" height="29.7213" fill="#F9DFCE"/>
<rect x="980" y="829" width="6" height="150" fill="#2D2443"/>
<rect x="986" y="848.5" width="15" height="3" fill="#2D2443"/>
<rect x="1001.03" y="829" width="3" height="40.5" transform="rotate(0.0417591 1001.03 829)" fill="#2D2443"/>
<rect x="1004" y="859" width="12" height="3" fill="#2D2443"/>
<path fill-rule="evenodd" clip-rule="evenodd" d="M1004 862L1005.5 872.5H1014.5L1016 862H1004ZM1005.5 863.5L1006.62 871H1013.38L1014.5 863.5H1005.5Z" fill="#2D2443"/>
<rect x="1005.5" y="872.5" width="1.5" height="1.5" fill="#2D2443"/>
<rect x="1007" y="863.5" width="1.5" height="7.5" fill="#2D2443"/>
<rect x="1005.5" y="866.5" width="9" height="1.5" fill="#2D2443"/>
<rect x="1011.5" y="863.5" width="1.5" height="7.5" fill="#2D2443"/>
<rect x="1008.5" y="872.5" width="3" height="1.5" fill="#2D2443"/>
<rect x="1013" y="872.5" width="1.5" height="1.5" fill="#2D2443"/>
<rect width="6" height="150" transform="matrix(-1 0 0 1 1369 828)" fill="#2C2443"/>
<rect width="15" height="3" transform="matrix(-1 0 0 1 1363 847.5)" fill="#2C2443"/>
<rect width="3" height="40.5" transform="matrix(-1 0.000728835 0.000728835 1 1347.97 828)" fill="#2C2443"/>
<rect width="12" height="3" transform="matrix(-1 0 0 1 1345 858)" fill="#2C2443"/>
<path fill-rule="evenodd" clip-rule="evenodd" d="M1345 861L1343.5 871.5H1334.5L1333 861H1345ZM1343.5 862.5L1342.38 870H1335.62L1334.5 862.5H1343.5Z" fill="#2C2443"/>
<rect width="1.5" height="1.5" transform="matrix(-1 0 0 1 1343.5 871.5)" fill="#2C2443"/>
<rect width="1.5" height="7.5" transform="matrix(-1 0 0 1 1342 862.5)" fill="#2C2443"/>
<rect width="9" height="1.5" transform="matrix(-1 0 0 1 1343.5 865.5)" fill="#2C2443"/>
<rect width="1.5" height="7.5" transform="matrix(-1 0 0 1 1337.5 862.5)" fill="#2C2443"/>
<rect width="3" height="1.5" transform="matrix(-1 0 0 1 1340.5 871.5)" fill="#2C2443"/>
<rect width="1.5" height="1.5" transform="matrix(-1 0 0 1 1336 871.5)" fill="#2C2443"/>
<path d="M1427.5 863L1438.5 848L1449.5 863H1445.5L1458.5 881.5H1455.5L1467 899H1464L1474.5 916.5H1470L1484 936.75H1479.25L1491 957H1386L1397.75 936.75H1394L1407.5 916.5H1402.5L1413 899H1410L1421.5 881.5H1418.5L1431.5 863H1427.5Z" fill="#2B2443"/>
<rect x="1433" y="957" width="12" height="20" fill="#2B2443"/>
<path d="M1547.5 863L1558.5 848L1569.5 863H1565.5L1578.5 881.5H1575.5L1587 899H1584L1594.5 916.5H1590L1604 936.75H1599.25L1611 957H1506L1517.75 936.75H1514L1527.5 916.5H1522.5L1533 899H1530L1541.5 881.5H1538.5L1551.5 863H1547.5Z" fill="#2C2443"/>
<rect x="1553" y="957" width="12" height="20" fill="#2C2443"/>
<path d="M1667.5 864L1678.5 849L1689.5 864H1685.5L1698.5 882.5H1695.5L1707 900H1704L1714.5 917.5H1710L1724 937.75H1719.25L1731 958H1626L1637.75 937.75H1634L1647.5 917.5H1642.5L1653 900H1650L1661.5 882.5H1658.5L1671.5 864H1667.5Z" fill="#2C2443"/>
<rect x="1673" y="958" width="12" height="20" fill="#2C2443"/>
<path d="M1787.5 864L1798.5 849L1809.5 864H1805.5L1818.5 882.5H1815.5L1827 900H1824L1834.5 917.5H1830L1844 937.75H1839.25L1851 958H1746L1757.75 937.75H1754L1767.5 917.5H1762.5L1773 900H1770L1781.5 882.5H1778.5L1791.5 864H1787.5Z" fill="#2C2443"/>
<rect x="1793" y="958" width="12" height="20" fill="#2C2443"/>
<path d="M1907.5 864L1918.5 849L1929.5 864H1925.5L1938.5 882.5H1935.5L1947 900H1944L1954.5 917.5H1950L1964 937.75H1959.25L1971 958H1866L1877.75 937.75H1874L1887.5 917.5H1882.5L1893 900H1890L1901.5 882.5H1898.5L1911.5 864H1907.5Z" fill="#2C2443"/>
<rect x="1913" y="958" width="12" height="20" fill="#2C2443"/>
<path d="M785 904H783V920H785V906L833 933.918V950H835V935.082L883 963V977H885V961H883L785 904Z" fill="#2D2443"/>
<rect x="735.5" y="900" width="5" height="20" fill="#2E2443"/>
<rect x="718" y="895" width="40" height="5" fill="#2E2443"/>
<rect x="713" y="908.75" width="10" height="11.25" fill="#2E2443"/>
<rect x="753" y="908.75" width="10" height="11.25" fill="#2E2443"/>
<rect x="930.5" y="957" width="5" height="20" fill="#2D2443"/>
<rect x="913" y="952" width="40" height="5" fill="#2D2443"/>
<rect x="908" y="965.75" width="10" height="11.25" fill="#2D2443"/>
<rect x="948" y="965.75" width="10" height="11.25" fill="#2D2443"/>
<rect x="181.5" y="900" width="5" height="20" fill="#2E2443"/>
<rect x="164" y="895" width="40" height="5" fill="#2E2443"/>
<rect x="159" y="908.75" width="10" height="11.25" fill="#2E2443"/>
<rect x="199" y="908.75" width="10" height="11.25" fill="#2E2443"/>
<rect x="102.5" y="900" width="5" height="20" fill="#2E2443"/>
<rect x="85" y="895" width="40" height="5" fill="#2E2443"/>
<rect x="80" y="908.75" width="10" height="11.25" fill="#2E2443"/>
<rect x="120" y="908.75" width="10" height="11.25" fill="#2E2443"/>
</g>
<defs>
<linearGradient id="paint0_linear" x1="960" y1="920" x2="960" y2="1080" gradientUnits="userSpaceOnUse">
<stop stop-color="#2E2443"/>
<stop offset="1" stop-color="#2A2342"/>
</linearGradient>
</defs>
</svg>
