<svg width="1920" height="1080" viewBox="0 0 1920 1080" fill="none" xmlns="http://www.w3.org/2000/svg">
<path d="M1570.89 284.661C1563.73 284.451 1550.02 285.569 1550.02 285.569L1550.03 298.649C1556.77 300.466 1562.21 299.924 1570.89 299.923C1577.71 299.923 1590.79 297.375 1590.79 297.375L1590.79 286.477C1590.79 286.477 1577.71 284.86 1570.89 284.661Z" fill="#2A2342"/>
<path d="M1578.05 276.991L1667.23 261.702H1681.25L1619.98 276.991H1578.05Z" fill="#562E4A"/>
<path fill-rule="evenodd" clip-rule="evenodd" d="M1679.97 251.51L1675.1 252.729C1663.09 251.975 1654.49 251.51 1654.49 251.51C1654.49 251.51 1560.21 248.965 1483.77 255.332C1483.77 255.332 1473.11 256.22 1464.4 261.702H1471.03V266.799H1455.12C1450.21 268.465 1443 271.798 1443 276.991C1443 282.087 1444.69 283.5 1448.1 284.635C1460.84 288.882 1488.87 289.731 1488.87 289.731C1488.87 289.731 1514.21 289.731 1546.2 289.603V283.361C1546.2 283.361 1560.94 281.793 1570.4 282.087C1579.41 282.366 1593.34 284.635 1593.34 284.635V289.328C1616.69 289.139 1639.08 288.863 1654.49 288.457C1690.17 283.361 1748.77 273.232 1748.77 260.428C1748.77 259.051 1736.53 257.509 1720.88 256.099C1720.88 256.099 1734.76 201.821 1736.03 198C1730.93 198 1728.39 198 1720.74 200.548C1713.1 205.644 1679.97 251.51 1679.97 251.51ZM1542.38 279.539L1668.8 259.154H1697.81L1624.35 279.539H1542.38Z" fill="#562E4A"/>
<path d="M133.861 172.489C123.355 170.577 119.576 176.7 119 180H288C283.576 167.163 272.563 169.644 267.609 172.489C264.292 166.48 257.472 165.206 254.476 165.319C250.329 158.605 236.782 144.425 215.769 141.421C194.756 138.416 179.365 152.232 174.297 159.515C152.178 147.498 138.123 163.157 133.861 172.489Z" fill="#A45A68"/>
<path d="M1444 180.269C1435.6 179.069 1429.17 183.769 1427 186.269H1646.5C1640.9 164.269 1622.17 166.769 1613.5 170.769C1606.3 160.769 1594.83 163.268 1590 165.768C1571.01 111.302 1535.04 116.263 1506.05 120.261L1506 120.269C1482.8 123.469 1466 151.935 1460.5 165.768C1446.1 162.568 1443.5 174.102 1444 180.269Z" fill="#BF635E"/>
<path d="M493 264.094C483.4 262.494 479 269.761 478 273.594H722C716.4 257.594 701.667 258.594 695 261.094C691 247.894 676.667 244.927 670 245.094C664.4 225.094 649 226.427 642 229.594C635.333 219.76 612.6 200.494 575 202.094C537.4 203.694 520 238.761 516 256.094C502.8 249.694 495.167 258.761 493 264.094Z" fill="#BF635E"/>
<path d="M1348.87 285.967C1356.99 284.208 1361.67 287.923 1363 290H1204C1208.64 282.375 1218.73 282.424 1223.2 283.401C1233.34 258.473 1256.64 264.461 1267.02 270.57C1270.88 265.683 1283.17 256.64 1301.43 259.573C1319.68 262.505 1329.56 276.68 1332.21 283.401C1338.3 281.348 1345.86 284.257 1348.87 285.967Z" fill="#A55B69"/>
</svg>
