<svg width="1920" height="1080" viewBox="0 0 1920 1080" fill="none" xmlns="http://www.w3.org/2000/svg">
<mask id="mask0" mask-type="alpha" maskUnits="userSpaceOnUse" x="0" y="316" width="1920" height="412">
<rect y="316" width="1920" height="412" fill="#C4C4C4"/>
</mask>
<g mask="url(#mask0)">
<g filter="url(#filter0_d)">
<circle cx="953.5" cy="723.5" r="62.5" fill="white" fill-opacity="0.89" shape-rendering="crispEdges"/>
</g>
<circle cx="954" cy="724" r="235" fill="#FFFEFF" fill-opacity="0.06"/>
<circle cx="954" cy="724" r="200" fill="#FFFEFF" fill-opacity="0.09"/>
<circle cx="954" cy="724" r="165" fill="#FFFEFF" fill-opacity="0.04"/>
<circle cx="954" cy="724" r="131" fill="#FFFEFF" fill-opacity="0.12"/>
<circle cx="954" cy="724" r="96" fill="#FFFEFF" fill-opacity="0.24"/>
<path fill-rule="evenodd" clip-rule="evenodd" d="M106.394 374L109.727 383.293L109 382.81L111.788 394.457L110.939 393.793L111.686 397.4L113.547 389.365L112.887 390.162L113.925 385.878L113.264 386.277L115.34 380L116.66 383.786H116.189L118.285 390.715L119.701 384.926L119.052 385.451L120.74 380L121.455 382.89H121.13L123.338 391.559L122.494 390.64L123.559 394.831L125 388.81L124.273 389.293L127.606 380L128.394 382.052H127.909L128.487 385.888L129.701 380.926L129.052 381.451L130.74 376L131.455 378.89H131.13L133.338 387.559L132.493 386.64L133.559 390.831L135 384.81L134.273 385.293L137.606 376L138.394 378.052H137.909L139 385.293L138.394 384.81L139 395.793L138.394 394.948L138.721 396.713L142.811 400.954L145 391.81L144.273 392.293L147.606 383L148.394 385.052H147.909L149 392.293L148.394 391.81L149 402.793L148.394 401.948L149.492 407.881L157.837 416.532L157.925 416.541L158.364 413.477L157.714 414.199L160.052 401.852L159.078 403.559L160.701 396.926L160.052 397.451L161.74 392L162.455 394.89H162.13L164.338 403.559L163.493 402.64L164.234 405.553L164.606 398.81L164 399.293L165.091 392.052H164.606L165.394 390L168.727 399.293L168 398.81L170.066 407.442L170.547 405.365L169.887 406.162L170.925 401.878L170.264 402.277L172.34 396L173.66 399.786H173.189L175.149 406.268L176.701 399.926L176.052 400.451L177.74 395L178.455 397.89H178.13L180.252 406.224L180.606 399.81L180 400.293L181.091 393.052H180.606L181.394 391L184.727 400.293L184 399.81L186.237 409.156L187.052 404.852L186.078 406.559L187.701 399.926L187.052 400.451L188.74 395L189.455 397.89H189.13L191.338 406.559L190.493 405.64L191.28 408.734L192.701 402.926L192.052 403.451L193.74 398L194.455 400.89H194.13L196.338 409.559L195.493 408.64L197.01 414.606L197.606 403.81L197 404.293L198.091 397.052H197.606L198.394 395L201.727 404.293L201 403.81L203.207 413.031L204.701 406.926L204.052 407.451L205.74 402L206.455 404.89H206.13L208.338 413.559L207.493 412.64L209.016 418.629L209.925 414.878L209.264 415.277L211.34 409L212.66 412.786H212.189L214.358 419.959L213.509 419.162L214.839 423.258L216.052 416.852L215.078 418.559L216.701 411.926L216.052 412.451L217.74 407L218.455 409.89H218.13L220.338 418.559L219.493 417.64L221.448 425.326L223.052 416.852L222.078 418.559L223.701 411.926L223.052 412.451L224.74 407L225.455 409.89H225.13L227.338 418.559L226.493 417.64L227.782 422.709L229.34 418L230.66 421.786H230.189L230.647 423.301L230.74 423L231.455 425.89H231.43L232.358 428.959L231.771 428.408L232.433 431.008L232.48 431.153L234.052 422.852L233.078 424.559L234.701 417.926L234.052 418.451L235.74 413L236.455 415.89H236.13L238.338 424.559L237.493 423.64L239.831 432.835L239.117 432.506L239.62 435.58L240.207 438.031L241.701 431.926L241.052 432.451L242.74 427L243.455 429.89H243.13L245.338 438.559L244.493 437.64L246.016 443.629L246.925 439.878L246.264 440.277L248.34 434L249.66 437.786H249.189L251.358 444.959L250.509 444.162L251.839 448.258L253.052 441.852L252.078 443.559L253.701 436.926L253.052 437.451L254.74 432L255.455 434.89H255.13L257.338 443.559L256.493 442.64L258.448 450.326L260.052 441.852L259.078 443.559L260.701 436.926L260.052 437.451L261.74 432L262.455 434.89H262.13L264.338 443.559L263.493 442.64L264.782 447.709L266.34 443L267.66 446.786H267.189L269.285 453.715L270.47 448.873L270.078 449.559L270.422 448.151L270.052 448.451L271.468 443.879L271.701 442.926L271.052 443.451L272.74 438L273.455 440.89H273.13L275.252 449.224L275.606 442.81L275 443.293L276.091 436.052H275.606L276.394 434L279.727 443.293L279 442.81L281.131 451.714L282.052 446.852L281.078 448.559L282.701 441.926L282.052 442.451L283.74 437L284.455 439.89H284.13L286.338 448.559L285.493 447.64L287.101 453.963L287.606 444.81L287 445.293L288.091 438.052H287.606L288.394 436L291.727 445.293L291 444.81L292.126 449.513L292.606 440.81L292 441.293L293.091 434.052H292.606L293.394 432L296.727 441.293L296 440.81L297.35 446.449L298.701 440.926L298.052 441.451L299.74 436L300.455 438.89H300.13L301.695 445.037L302.701 440.926L302.052 441.451L303.74 436L304.455 438.89H304.13L306.338 447.559L305.493 446.64L306.642 451.156L307.606 445.948L307 446.793L307.606 435.81L307 436.293L308.091 429.052H307.606L308.394 427L311.727 436.293L311 435.81L313.131 444.714L314.052 439.852L313.078 441.559L314.701 434.926L314.052 435.451L315.74 430L316.455 432.89H316.13L318.338 441.559L317.493 440.64L319.101 446.963L319.606 437.81L319 438.293L320.091 431.052H319.606L320.394 429L323.727 438.293L323 437.81L324.126 442.513L324.606 433.81L324 434.293L325.091 427.052H324.606L325.394 425L328.727 434.293L328 433.81L329.35 439.449L330.701 433.926L330.052 434.451L331.74 429L332.455 431.89H332.13L334.338 440.559L333.493 439.64L334.34 442.97L334.87 440.89H334.545L335.26 438L336.948 443.451L336.299 442.926L337.65 448.449L339 442.81L338.273 443.293L341.606 434L342.394 436.052H341.909L343 443.293L342.394 442.81L342.874 451.513L344 446.81L343.273 447.293L346.606 438L347.394 440.052H346.909L348 447.293L347.394 446.81L347.899 455.963L349.507 449.64L348.662 450.559L350.87 441.89H350.545L351.26 439L352.948 444.451L352.299 443.926L353.922 450.559L352.948 448.852L353.869 453.714L356 444.81L355.273 445.293L358.606 436L359.394 438.052H358.909L360 445.293L359.394 444.81L360 455.793L359.394 454.948L360.358 460.156L361.507 455.64L360.662 456.559L362.87 447.89H362.545L363.26 445L364.948 450.451L364.299 449.926L365.305 454.037L366.87 447.89H366.545L367.26 445L368.948 450.451L368.299 449.926L369.65 455.449L371 449.81L370.273 450.293L373.606 441L374.394 443.052H373.909L375 450.293L374.394 449.81L374.874 458.513L376 453.81L375.273 454.293L378.606 445L379.394 447.052H378.909L380 454.293L379.394 453.81L379.899 462.963L381.507 456.64L380.662 457.559L382.87 448.89H382.545L383.26 446L384.948 451.451L384.299 450.926L385.922 457.559L384.948 455.852L385.869 460.714L388 451.81L387.273 452.293L390.606 443L391.394 445.052H390.909L392 452.293L391.394 451.81L392 462.793L391.394 461.948L392.358 467.156L393.507 462.64L392.662 463.559L394.87 454.89H394.545L395.26 452L396.948 457.451L396.299 456.926L397.922 463.559L396.948 461.852L399.133 473.39L399.606 464.81L399 465.293L400.091 458.052H399.606L400.394 456L403.727 465.293L403 464.81L405.788 476.457L404.939 475.793L405.686 479.4L407.547 471.365L406.887 472.162L407.925 467.878L407.264 468.277L409.34 462L410.66 465.786H410.189L412.285 472.715L413.701 466.926L413.052 467.451L414.74 462L415.455 464.89H415.13L416.696 471.039L417.547 467.365L416.887 468.162L417.925 463.878L417.264 464.277L419.34 458L420.66 461.786H420.189L422.285 468.715L423.701 462.926L423.052 463.451L424.74 458L425.455 460.89H425.13L427.338 469.559L426.493 468.64L427.559 472.831L429 466.81L428.273 467.293L431.606 458L431.635 458.076L432.091 455.052H431.606L432.394 453L435.727 462.293L435 461.81L436.814 469.389L438.052 462.852L437.078 464.559L438.701 457.926L438.052 458.451L439.74 453L440.455 455.89H440.13L441.188 460.045L442.091 454.052H441.606L442.394 452L445.727 461.293L445 460.81L446.814 468.389L448.052 461.852L447.078 463.559L448.701 456.926L448.052 457.451L449.74 452L450.455 454.89H450.13L452.338 463.559L451.493 462.64L452.963 468.421L453.606 464.948L453 465.793L453.606 454.81L453 455.293L454.091 448.052H453.606L454.394 446L457.727 455.293L457 454.81L459.788 466.457L458.939 465.793L459.686 469.4L461.547 461.365L460.887 462.162L461.925 457.878L461.264 458.277L463.34 452L464.66 455.786H464.189L466.285 462.715L467.701 456.926L467.052 457.451L468.74 452L469.455 454.89H469.13L470.696 461.039L471.547 457.365L470.887 458.162L471.925 453.878L471.264 454.277L473.34 448L474.66 451.786H474.189L476.285 458.715L477.701 452.926L477.052 453.451L478.74 448L479.455 450.89H479.13L481.338 459.559L480.493 458.64L481.559 462.831L483 456.81L482.273 457.293L485.606 448L485.635 448.076L486.091 445.052H485.606L486.394 443L489.727 452.293L489 451.81L490.814 459.389L492.052 452.852L491.078 454.559L492.701 447.926L492.052 448.451L493.74 443L494.455 445.89H494.13L496.338 454.559L495.493 453.64L496.963 459.421L497.606 455.948L497 456.793L497.606 445.81L497 446.293L498.091 439.052H497.606L498.394 437L501.727 446.293L501 445.81L503.788 457.457L502.939 456.793L503.686 460.4L505.547 452.365L504.887 453.162L505.925 448.878L505.264 449.277L507.34 443L508.66 446.786H508.189L510.285 453.715L511.701 447.926L511.052 448.451L512.74 443L513.455 445.89H513.13L515.338 454.559L514.494 453.64L515.559 457.831L517 451.81L516.273 452.293L519.606 443L520.394 445.052H519.909L520.487 448.888L521.701 443.926L521.052 444.451L522.74 439L523.455 441.89H523.13L525.338 450.559L524.494 449.64L525.559 453.831L527 447.81L526.273 448.293L529.606 439L530.394 441.052H529.909L531 448.293L530.394 447.81L531 458.793L530.394 457.948L532.07 466.999L575.309 526.057L577.052 516.852L576.078 518.559L577.701 511.926L577.052 512.451L578.74 507L579.455 509.89H579.13L581.338 518.559L580.494 517.64L582.01 523.606L582.606 512.81L582 513.293L583.091 506.052H582.606L583.394 504L586.727 513.293L586 512.81L588.207 522.031L589.701 515.926L589.052 516.451L590.74 511L591.455 513.89H591.13L593.338 522.559L592.494 521.64L594.016 527.629L594.924 523.878L594.264 524.277L596.34 518L597.66 521.786H597.189L599.359 528.959L598.509 528.162L599.839 532.258L601.052 525.852L600.078 527.559L601.701 520.926L601.052 521.451L602.74 516L603.455 518.89H603.13L605.338 527.559L604.494 526.64L606.448 534.326L608.052 525.852L607.078 527.559L608.701 520.926L608.052 521.451L609.74 516L610.455 518.89H610.13L612.338 527.559L611.494 526.64L612.782 531.709L614.34 527L615.66 530.786H615.189L617.359 537.959L616.509 537.162L617.48 540.153L619.052 531.852L618.078 533.559L619.701 526.926L619.052 527.451L620.74 522L621.455 524.89H621.13L623.338 533.559L622.494 532.64L623.693 537.357L625.774 531L627.226 535.207H626.708L629.094 543.177L628.16 542.292L629.423 546.22L630 543.81L629.273 544.293L632.606 535L633.394 537.052H632.909L634 544.293L633.394 543.81L633.955 553.973L634.642 554.463L635.802 549.406L635.075 550.292L636.217 545.531L635.491 545.974L637.774 539L639.226 543.207H638.708L641.094 551.177L640.16 550.292L641.689 555.049L643.052 547.852L642.078 549.559L643.701 542.926L643.052 543.451L644.74 538L645.455 540.89H645.13L647.022 548.319L647.74 546L648.216 547.923L649.74 543L650.455 545.89H650.13L652.338 554.559L651.494 553.64L652.252 556.622L653.091 551.052H652.606L653.394 549L656.727 558.293L656 557.81L658.203 567.015L658.802 564.406L658.075 565.292L659.217 560.531L658.491 560.974L660.774 554L662.226 558.207H661.708L664.094 566.177L663.16 565.292L664.274 568.757L665.701 562.926L665.052 563.451L666.74 558L667.455 560.89H667.13L669.338 569.559L668.494 568.64L670.192 575.319L670.606 567.81L670 568.293L671.091 561.052H670.606L671.394 559L674.727 568.293L674 567.81L676.598 578.665L678 572.81L677.273 573.293L680.606 564L681.394 566.052H680.909L682 573.293L681.394 572.81L682 583.793L681.394 582.948L681.967 586.045L682.802 582.406L682.075 583.292L683.217 578.531L682.491 578.974L684.774 572L686.226 576.207H685.708L688.094 584.177L687.16 583.292L688.423 587.22L689 584.81L688.273 585.293L691.606 576L692.394 578.052H691.909L693 585.293L692.394 584.81L693 595.793L692.394 594.948L692.546 595.769L693.427 596.398L694.802 590.406L694.075 591.292L695.217 586.531L694.491 586.974L696.774 580L698.226 584.207H697.708L700.094 592.177L699.16 591.292L700.689 596.049L702.052 588.852L701.078 590.559L702.701 583.926L702.052 584.451L703.74 579L704.455 581.89H704.13L706.022 589.319L706.74 587L707.216 588.923L708.74 584L709.455 586.89H709.13L711.338 595.559L710.494 594.64L711.252 597.622L712.091 592.052H711.606L712.394 590L715.727 599.293L715 598.81L717.203 608.015L717.802 605.406L717.075 606.292L718.217 601.531L717.491 601.974L719.774 595L721.226 599.207H720.708L723.094 607.177L722.16 606.292L723.274 609.757L724.701 603.926L724.052 604.451L725.74 599L726.455 601.89H726.13L728.338 610.559L727.494 609.64L729.192 616.319L729.606 608.81L729 609.293L730.091 602.052H729.606L730.394 600L733.727 609.293L733 608.81L735.598 619.665L737 613.81L736.273 614.293L739.606 605L740.394 607.052H739.909L741 614.293L740.394 613.81L740.738 620.044L741.802 615.406L741.076 616.292L742.217 611.531L741.491 611.974L743.774 605L745.226 609.207H744.708L747.094 617.177L746.16 616.292L747.423 620.22L748 617.81L747.273 618.293L750.606 609L751.394 611.052H750.909L752 618.293L751.394 617.81L752 628.793L751.394 627.948L752.004 631.244L753.802 623.406L753.076 624.292L754.217 619.531L753.491 619.974L755.774 613L757.226 617.207H756.708L759.094 625.177L758.16 624.292L759.689 629.049L761.052 621.852L760.078 623.559L761.701 616.926L761.052 617.451L762.74 612L763.455 614.89H763.13L765.022 622.319L765.74 620L766.216 621.923L767.74 617L768.455 619.89H768.13L770.338 628.559L769.494 627.64L770.252 630.622L771.091 625.052H770.606L771.394 623L774.727 632.293L774 631.81L776.203 641.015L776.802 638.406L776.075 639.292L777.217 634.531L776.491 634.974L778.774 628L780.226 632.207H779.708L782.094 640.177L781.16 639.292L782.274 642.757L783.701 636.926L783.052 637.451L784.74 632L785.455 634.89H785.13L787.338 643.559L786.494 642.64L788.192 649.319L788.606 641.81L788 642.293L789.091 635.052H788.606L789.394 633L792.727 642.293L792 641.81L794.598 652.665L796 646.81L795.273 647.293L798.606 638L799.394 640.052H798.909L800 647.293L799.394 646.81L800 657.793L799.394 656.948L800.838 664.745L801.349 660.926L800.415 661.812L802.802 651.406L802.075 652.292L803.217 647.531L802.491 647.974L804.774 641L806.226 645.207H805.708L808.094 653.177L807.16 652.292L808.423 656.22L809 653.81L808.273 654.293L811.606 645L812.394 647.052H811.909L813 654.293L812.394 653.81L813 664.793L812.394 663.948L813.004 667.244L814.802 659.406L814.075 660.292L815.217 655.531L814.491 655.974L816.774 649L818.226 653.207H817.708L820.094 661.177L819.16 660.292L820.689 665.049L822.052 657.852L821.078 659.559L822.701 652.926L822.052 653.451L823.74 648L824.455 650.89H824.13L826.022 658.319L826.74 656L827.216 657.923L828.74 653L829.455 655.89H829.13L831.338 664.559L830.494 663.64L831.252 666.622L832.091 661.052H831.606L832.394 659L835.727 668.293L835 667.81L837.203 677.015L837.802 674.406L837.075 675.292L838.217 670.531L837.491 670.974L839.774 664L841.226 668.207H840.708L843.094 676.177L842.16 675.292L843.274 678.757L844.701 672.926L844.052 673.451L845.74 668L846.455 670.89H846.13L848.338 679.559L847.494 678.64L849.192 685.319L849.606 677.81L849 678.293L850.091 671.052H849.606L850.394 669L853.727 678.293L853 677.81L855.598 688.665L857 682.81L856.273 683.293L859.606 674L860.394 676.052H859.909L861 683.293L860.394 682.81L861 693.793L860.394 692.948L861.637 699.662L916.5 728H0V449.081L6.23039 444.574H39.4502L41.0606 436.793L40.2121 437.457L43 425.81L42.2727 426.293L45.6061 417L46.3939 419.052H45.9091L47 426.293L46.3939 425.81L46.6851 431.086L47.5472 427.365L46.8868 428.162L47.9245 423.878L47.2642 424.277L49.3396 418L50.6604 421.786H50.1887L52.2634 428.645L53.0606 424.793L52.2121 425.457L55 413.81L54.2727 414.293L57.6061 405L58.3939 407.052H57.9091L59 414.293L58.3939 413.81L58.8907 422.812L59.6061 418.948L59 419.793L59.6061 408.81L59 409.293L60.0909 402.052H59.6061L60.3939 400L63.7273 409.293L63 408.81L64.9484 416.95L65.5472 414.365L64.8868 415.162L65.9245 410.878L65.2642 411.277L67.3396 405L68.2576 407.631L68.9245 404.878L68.2642 405.277L70.3396 399L71.6604 402.786H71.1887L73.3585 409.959L72.5094 409.162L73.5999 412.521L75.0519 404.852L74.0779 406.559L75.7013 399.926L75.0519 400.451L76.7403 395L77.4545 397.89H77.1299L79.1578 405.853L80.217 401.878L79.4906 402.277L81.7736 396L83.2264 399.786H82.7076L83.6064 402.487L85.0519 394.852L84.0779 396.559L85.7013 389.926L85.0519 390.451L86.7403 385L87.4545 387.89H87.1299L89.3377 396.559L88.4935 395.64L89.5589 399.831L91 393.81L90.2727 394.293L93.6061 385L93.6353 385.076L94.0909 382.052H93.6061L94.3939 380L97.7273 389.293L97 388.81L98.8142 396.389L100.052 389.852L99.0779 391.559L100.701 384.926L100.052 385.451L101.74 380L102.455 382.89H102.13L104.338 391.559L103.494 390.64L104.963 396.421L105.606 392.948L105 393.793L105.606 382.81L105 383.293L106.091 376.052H105.606L106.394 374ZM86.9233 416L86.1302 416.332L86.037 416H86.9233ZM823.042 679.726L823.146 679H821.636L823.042 679.726ZM762.111 643.241L762.146 643H761.75L762.111 643.241ZM225.833 438.84L225.947 438H224.23L225.833 438.84ZM68.4497 408.786L68.3365 409.275L68.1913 408.795L68.1986 408.786H68.4497ZM68.5338 408.423L68.5236 408.394L68.5472 408.365L68.5338 408.423ZM128.734 387.529L128.601 386.643L129.052 385.852L128.734 387.529ZM128.394 388.81L128.479 388.878L128.416 389.211L128.394 388.81ZM112.056 399.19L112.226 397.934L111.866 398.272L112.056 399.19ZM58.6215 424.266L58.3939 423.948L58.5371 424.722L58.6215 424.266ZM52.2244 428.834L51.5094 428.162L52.0309 429.769L52.2244 428.834ZM117.509 390.162L118.25 390.857L118.078 391.559L119.052 389.852L118.447 393.049L117.509 390.162ZM79.2014 406.024L79.8019 405.365L79.112 408.072L78.4935 405.64L79.3377 406.559L79.2014 406.024ZM269.447 456.049L270.052 452.852L269.078 454.559L269.25 453.857L268.509 453.162L269.447 456.049ZM274.493 448.64L275.24 449.452L275.143 451.196L274.493 448.64ZM275.599 452.987L275.593 452.966L275.606 452.948L275.599 452.987ZM240.396 440.315L240.365 440.126L240.423 440.172L240.396 440.315ZM240.258 438.244L240.554 439.481L241.052 436.852L240.258 438.244ZM246.262 444.596L246.09 443.918L246.547 443.365L246.262 444.596ZM251.358 450.638L251.387 450.648L251.376 450.706L251.358 450.638ZM197.285 415.685L197.043 414.734L197.606 413.948L197.285 415.685ZM203.554 414.481L203.258 413.244L204.052 411.852L203.554 414.481ZM202.939 414.793L203.423 415.172L203.23 416.195L202.939 414.793ZM191.627 410.097L192.052 407.852L191.363 409.06L191.627 410.097ZM179.493 405.64L180.24 406.452L180.143 408.196L179.493 405.64ZM180.599 409.987L180.593 409.966L180.606 409.948L180.599 409.987ZM176.052 404.852L175.327 408.681L174.509 406.162L175.358 406.959L175.182 406.377L176.052 404.852ZM209.262 419.596L209.09 418.918L209.547 418.365L209.262 419.596ZM214.358 425.638L214.387 425.648L214.376 425.706L214.358 425.638ZM221.215 426.552L221.167 426.81L221.117 426.506L221.215 426.552ZM258.216 451.552L258.167 451.81L258.117 451.506L258.216 451.552ZM398.636 473.477L399.099 473.992L399 475.793L399.606 474.948L399.178 477.26L398.636 473.477ZM406.056 481.19L405.866 480.272L406.226 479.934L406.056 481.19ZM368.948 454.852L369.543 455.895L369.321 456.823L368.948 454.852ZM374.394 459.948L374.497 460.091L374.454 460.271L374.394 459.948ZM365.272 456.562L365.473 455.772L365.439 455.713L365.167 456.009L365.272 456.562ZM365.012 455.188L365.051 455.032L364.948 454.852L365.012 455.188ZM336.948 447.852L337.543 448.895L337.321 449.823L336.948 447.852ZM342.394 452.948L342.497 453.091L342.454 453.271L342.394 452.948ZM298.052 445.852L297.679 447.823L297.457 446.895L298.052 445.852ZM292.606 450.948L292.546 451.271L292.503 451.091L292.606 450.948ZM301.527 446.772L301.561 446.713L301.833 447.009L301.728 447.562L301.527 446.772ZM301.988 446.188L301.949 446.032L302.052 445.852L301.988 446.188ZM324.503 444.091L324.546 444.271L324.606 443.948L324.503 444.091ZM329.679 440.823L330.052 438.852L329.457 439.895L329.679 440.823ZM319.499 448.527L319.418 448.21L319.606 447.948L319.499 448.527ZM319.117 449.506L319.302 449.591L319.211 450.081L319.117 449.506ZM441.606 460.81L441.566 461.53L441.421 460.958L441.606 460.81ZM459.866 470.272L460.056 471.19L460.226 469.934L459.866 470.272ZM467.052 461.852L466.447 465.049L465.509 462.162L466.25 462.857L466.078 463.559L467.052 461.852ZM476.25 458.857L475.509 458.162L476.447 461.049L477.052 457.852L476.078 459.559L476.25 458.857ZM520.416 452.211L520.479 451.878L520.394 451.81L520.416 452.211ZM520.734 450.529L521.052 448.852L520.601 449.643L520.734 450.529ZM504.056 462.19L504.226 460.934L503.866 461.272L504.056 462.19ZM510.447 456.049L511.052 452.852L510.078 454.559L510.25 453.857L509.509 453.162L510.447 456.049ZM287.211 457.081L287.302 456.591L287.117 456.506L287.211 457.081ZM287.499 455.527L287.606 454.948L287.418 455.21L287.499 455.527ZM347.582 457.21L347.394 456.948L347.501 457.527L347.582 457.21ZM379.582 464.21L379.394 463.948L379.501 464.527L379.582 464.21ZM379.698 465.591L379.789 466.081L379.883 465.506L379.698 465.591ZM412.447 475.049L413.052 471.852L412.078 473.559L412.25 472.857L411.509 472.162L412.447 475.049ZM421.509 468.162L422.447 471.049L423.052 467.852L422.078 469.559L422.25 468.857L421.509 468.162ZM752.335 633.031L752.349 632.926L752.321 632.953L752.335 633.031ZM793.939 652.793L794.469 653.207L794.231 654.201L793.939 652.793ZM788.385 653.142L788.606 651.948L788.267 652.421L788.385 653.142ZM770.597 631.979L770.563 631.845L770.606 631.81L770.597 631.979ZM759.219 631.532L759.094 631.487L759.171 631.789L759.219 631.532ZM766.301 623.562L766.701 621.926L766.297 622.253L766.455 622.89H766.13L766.301 623.562ZM764.494 622.64L764.814 622.989L764.687 623.401L764.494 622.64ZM813.349 668.926L813.335 669.031L813.321 668.953L813.349 668.926ZM855.469 689.207L854.939 688.793L855.231 690.201L855.469 689.207ZM849.606 687.948L849.385 689.142L849.267 688.421L849.606 687.948ZM831.563 667.845L831.597 667.979L831.606 667.81L831.563 667.845ZM820.094 667.487L820.219 667.532L820.171 667.789L820.094 667.487ZM827.701 657.926L827.301 659.562L827.13 658.89H827.455L827.297 658.253L827.701 657.926ZM825.814 658.989L825.494 658.64L825.687 659.401L825.814 658.989ZM843.656 679.944L843.368 679.05L844.052 677.852L843.656 679.944ZM843.094 682.487L843.169 682.514L843.14 682.668L843.094 682.487ZM782.368 643.05L782.656 643.944L783.052 641.852L782.368 643.05ZM782.14 646.668L782.169 646.514L782.094 646.487L782.14 646.668ZM623.802 537.785L623.984 538.503L624.217 537.531L623.802 537.785ZM582.285 524.685L582.043 523.734L582.606 522.948L582.285 524.685ZM588.423 524.172L588.23 525.195L587.939 523.793L588.423 524.172ZM589.052 520.852L588.554 523.481L588.258 522.244L589.052 520.852ZM594.262 528.596L594.09 527.918L594.547 527.365L594.262 528.596ZM599.359 534.638L599.387 534.648L599.376 534.706L599.359 534.638ZM606.216 535.552L606.167 535.81L606.117 535.506L606.216 535.552ZM676.469 579.207L675.939 578.793L676.231 580.201L676.469 579.207ZM735.469 620.207L735.231 621.201L734.939 619.793L735.469 620.207ZM729.267 619.421L729.385 620.142L729.606 618.948L729.267 619.421ZM711.606 598.81L711.597 598.979L711.563 598.845L711.606 598.81ZM700.171 598.789L700.219 598.532L700.094 598.487L700.171 598.789ZM707.297 589.253L707.455 589.89H707.13L707.301 590.562L707.701 588.926L707.297 589.253ZM705.494 589.64L705.814 589.989L705.687 590.401L705.494 589.64ZM723.368 610.05L723.656 610.944L724.052 608.852L723.368 610.05ZM723.169 613.514L723.094 613.487L723.14 613.668L723.169 613.514ZM670.385 579.142L670.267 578.421L670.606 577.948L670.385 579.142ZM652.597 557.979L652.606 557.81L652.563 557.845L652.597 557.979ZM641.219 557.532L641.171 557.789L641.094 557.487L641.219 557.532ZM648.455 548.89L648.297 548.253L648.701 547.926L648.301 549.562L648.13 548.89H648.455ZM646.814 548.989L646.494 548.64L646.687 549.401L646.814 548.989ZM664.656 569.944L664.368 569.05L665.052 567.852L664.656 569.944ZM664.094 572.487L664.169 572.514L664.14 572.668L664.094 572.487Z" fill="url(#paint0_linear)"/>
<path fill-rule="evenodd" clip-rule="evenodd" d="M993 728L1040.36 683.604L1042.64 674.638L1041.23 675.137L1043.49 668.162L1042.64 668.959L1044.81 661.786H1044.34L1045.66 658L1047.74 664.277L1047.08 663.878L1048.11 668.162L1047.45 667.365L1048.82 673.27L1050.51 666.64L1049.66 667.559L1051.87 658.89H1051.55L1052.26 656L1053.95 661.451L1053.3 660.926L1054.24 664.793L1054.61 658.062L1054 658.559L1055.09 651.11H1054.61L1055.39 649L1058.73 658.559L1058 658.062L1059.21 663.275L1061 655.81L1060.27 656.293L1063.61 647L1064.39 649.052H1063.91L1065 656.293L1064.39 655.81L1064.75 662.224L1066.87 653.89H1066.55L1067.26 651L1068.95 656.451L1068.3 655.926L1069.47 660.714L1070.51 656.64L1069.66 657.559L1071.87 648.89H1071.55L1072.26 646L1073.26 649.235L1074 646.062L1073.27 646.559L1076.61 637L1077.39 639.11H1076.91L1078 646.559L1077.39 646.062L1077.69 651.506L1078.81 647.786H1078.34L1079.66 644L1081.74 650.277L1081.08 649.878L1082.11 654.162L1081.45 653.365L1082.27 656.885L1083.62 656.13L1084.51 652.64L1083.66 653.559L1085.87 644.89H1085.55L1086.26 642L1087.95 647.451L1087.3 646.926L1088.24 650.793L1088.61 644.062L1088 644.559L1089.09 637.11H1088.61L1089.39 635L1092.73 644.559L1092 644.062L1093.21 649.275L1095 641.81L1094.27 642.293L1097.61 633L1097.74 633.34L1098.81 629.786H1098.34L1099.66 626L1101.74 632.277L1101.08 631.878L1102.11 636.162L1101.45 635.365L1102.82 641.27L1104.51 634.64L1103.66 635.559L1105.87 626.89H1105.55L1106.26 624L1107.95 629.451L1107.3 628.926L1108.24 632.793L1108.61 626.062L1108 626.559L1109.09 619.11H1108.61L1109.39 617L1112.73 626.559L1112 626.062L1113.21 631.275L1115 623.81L1114.27 624.293L1117.61 615L1118.39 617.052H1117.91L1119 624.293L1118.39 623.81L1118.75 630.224L1120.87 621.89H1120.55L1121.26 619L1122.95 624.451L1122.3 623.926L1123.47 628.714L1124.51 624.64L1123.66 625.559L1125.87 616.89H1125.55L1126.26 614L1127.26 617.235L1128 614.062L1127.27 614.559L1130.61 605L1131.39 607.11H1130.91L1132 614.559L1131.39 614.062L1131.69 619.506L1132.81 615.786H1132.34L1133.66 612L1135.74 618.277L1135.08 617.878L1136.11 622.162L1135.45 621.365L1136.63 626.44L1137.1 626.173L1138.51 620.64L1137.66 621.559L1139.87 612.89H1139.55L1140.26 610L1141.95 615.451L1141.3 614.926L1142.24 618.793L1142.61 612.062L1142 612.559L1143.09 605.11H1142.61L1143.39 603L1146.73 612.559L1146 612.062L1147.21 617.275L1149 609.81L1148.27 610.293L1151.61 601L1152.39 603.052H1151.91L1153 610.293L1152.39 609.81L1152.75 616.224L1154.87 607.89H1154.55L1155.26 605L1156.95 610.451L1156.3 609.926L1157.45 614.622L1157.5 614.592L1158.51 610.64L1157.66 611.559L1159.87 602.89H1159.55L1160.26 600L1161.95 605.451L1161.3 604.926L1162.42 609.526L1164.49 603.162L1163.64 603.959L1165.81 596.786H1165.34L1166.66 593L1168.74 599.277L1168.08 598.878L1169.11 603.162L1168.45 602.365L1169.68 607.677L1170.02 607.486L1171.51 601.64L1170.66 602.559L1172.87 593.89H1172.55L1173.26 591L1174.95 596.451L1174.3 595.926L1175.24 599.793L1175.61 593.062L1175 593.559L1176.09 586.11H1175.61L1176.39 584L1179.73 593.559L1179 593.062L1180.21 598.275L1182 590.81L1181.27 591.293L1184.61 582L1185.39 584.052H1184.91L1186 591.293L1185.39 590.81L1185.75 597.224L1187.87 588.89H1187.55L1188.26 586L1189.95 591.451L1189.3 590.926L1190.47 595.714L1191.51 591.64L1190.66 592.559L1192.87 583.89H1192.55L1193.26 581L1194.26 584.235L1195 581.062L1194.27 581.559L1197.61 572L1198.39 574.11H1197.91L1199 581.559L1198.39 581.062L1198.69 586.506L1199.81 582.786H1199.34L1200.66 579L1202.74 585.277L1202.08 584.878L1203.01 588.756L1204.88 587.697L1206.87 579.89H1206.55L1207.26 577L1208.95 582.451L1208.3 581.926L1209.12 585.29L1209.28 585.202L1209.61 579.062L1209 579.559L1210.09 572.11H1209.61L1210.39 570L1213.73 579.559L1213 579.062L1213.83 582.619L1214.73 582.105L1216 576.81L1215.27 577.293L1218.61 568L1219.39 570.052H1218.91L1219.75 575.612L1221.81 568.786H1221.34L1222.66 565L1224.74 571.277L1224.08 570.878L1225.11 575.162L1224.45 574.365L1224.91 576.329L1225.28 576.115L1226.87 569.89H1226.55L1227.26 567L1227.99 569.352L1228.87 565.89H1228.55L1229.26 563L1230.95 568.451L1230.3 567.926L1231.24 571.793L1231.61 565.062L1231 565.559L1232.09 558.11H1231.61L1232.39 556L1235.73 565.559L1235 565.062L1236.14 569.954L1236.31 569.855L1238 562.81L1237.27 563.293L1240.61 554L1241.39 556.052H1240.91L1242 563.293L1241.39 562.81L1241.63 567.167L1242.29 567.086L1243.87 560.89H1243.55L1244.26 558L1245.95 563.451L1245.3 562.926L1246.2 566.606L1246.77 566.535L1247.51 563.64L1246.66 564.559L1248.87 555.89H1248.55L1249.26 553L1250.26 556.235L1251 553.062L1250.27 553.559L1253.61 544L1254.39 546.11H1253.91L1255 553.559L1254.39 553.062L1254.69 558.506L1255.81 554.786H1255.34L1256.66 551L1258.74 557.277L1258.08 556.878L1259.11 561.162L1258.45 560.365L1259.52 564.968L1260.17 564.888L1261.51 559.64L1260.66 560.559L1262.87 551.89H1262.55L1263.26 549L1264.95 554.451L1264.3 553.926L1265.24 557.793L1265.61 551.062L1265 551.559L1266.09 544.11H1265.61L1266.39 542L1269.73 551.559L1269 551.062L1270.21 556.275L1272 548.81L1271.27 549.293L1274.61 540L1275.39 542.052H1274.91L1276 549.293L1275.39 548.81L1275.75 555.224L1277.87 546.89H1277.55L1278.26 544L1279.95 549.451L1279.3 548.926L1280.47 553.714L1281.51 549.64L1280.66 550.559L1282.87 541.89H1282.55L1283.26 539L1284.95 544.451L1284.3 543.926L1285.88 550.381L1286.39 549L1289.73 558.559L1289 558.062L1289.74 561.253L1290.73 561.132L1292 555.81L1291.27 556.293L1294.61 547L1295.39 549.052H1294.91L1296 556.293L1295.39 555.81L1295.64 560.255L1296.3 560.074L1297.87 553.89H1297.55L1298.26 551L1299.95 556.451L1299.3 555.926L1300.06 559.036L1300.96 558.788L1301.51 556.64L1300.66 557.559L1302.87 548.89H1302.55L1303.26 546L1304.26 549.235L1305 546.062L1304.27 546.559L1307.61 537L1308.39 539.11H1307.91L1309 546.559L1308.39 546.062L1308.69 551.506L1309.81 547.786H1309.34L1310.66 544L1312.74 550.277L1312.08 549.878L1313.11 554.162L1312.45 553.365L1312.94 555.486L1314.92 554.941L1315.51 552.64L1314.66 553.559L1316.87 544.89H1316.55L1317.26 542L1318.95 547.451L1318.3 546.926L1319.24 550.793L1319.61 544.062L1319 544.559L1320.09 537.11H1319.61L1320.39 535L1323.73 544.559L1323 544.062L1324.21 549.275L1326 541.81L1325.27 542.293L1328.61 533L1329.39 535.052H1328.91L1330 542.293L1329.39 541.81L1329.58 545.109L1330.66 542L1331.04 543.149L1331.87 539.89H1331.55L1332.26 537L1333.95 542.451L1333.3 541.926L1334.47 546.714L1335.51 542.64L1334.66 543.559L1336.87 534.89H1336.55L1337.26 532L1338.95 537.451L1338.3 536.926L1339.25 540.828L1340.09 535.11H1339.61L1340.39 533L1343.73 542.559L1343 542.062L1344.12 546.894L1344.32 546.841L1346 539.81L1345.27 540.293L1348.61 531L1349.39 533.052H1348.91L1350 540.293L1349.39 539.81L1349.7 545.357L1349.99 545.278L1351.87 537.89H1351.55L1352.26 535L1353.95 540.451L1353.3 539.926L1354.32 544.085L1354.65 543.992L1355.51 540.64L1354.66 541.559L1356.87 532.89H1356.55L1357.26 530L1358.26 533.235L1359 530.062L1358.27 530.559L1361.61 521L1362.39 523.11H1361.91L1363 530.559L1362.39 530.062L1362.69 535.506L1363.81 531.786H1363.34L1364.66 528L1366.74 534.277L1366.08 533.878L1367.11 538.162L1366.45 537.365L1367.19 540.538L1368.62 540.145L1369.51 536.64L1368.66 537.559L1370.87 528.89H1370.55L1371.26 526L1372.95 531.451L1372.3 530.926L1373.24 534.793L1373.61 528.062L1373 528.559L1374.09 521.11H1373.61L1374.39 519L1377.73 528.559L1377 528.062L1378.21 533.275L1380 525.81L1379.27 526.293L1382.61 517L1383.39 519.052H1382.91L1384 526.293L1383.39 525.81L1383.75 532.224L1385.87 523.89H1385.55L1386.26 521L1387.95 526.451L1387.3 525.926L1388.39 530.369L1388.98 527.209L1388.66 527.559L1388.67 527.515L1388.08 528.559L1389.7 521.926L1389.05 522.451L1390.74 517L1390.88 517.551L1391.26 516L1392.95 521.451L1392.3 520.926L1393.92 527.559L1392.95 525.852L1393.83 530.497L1394.7 526.926L1394.05 527.451L1395.74 522L1396.45 524.89H1396.13L1398.25 533.224L1398.61 526.81L1398 527.293L1399.09 520.052H1398.61L1399.39 518L1402.73 527.293L1402 526.81L1403.79 534.275L1405 529.062L1404.27 529.559L1407.61 520L1408.39 522.11H1407.91L1409 529.559L1408.39 529.062L1408.76 535.793L1409.7 531.926L1409.05 532.451L1410.74 527L1411.45 529.89H1411.13L1413.34 538.559L1412.49 537.64L1413.87 543.071L1415.05 536.852L1414.08 538.559L1415.7 531.926L1415.05 532.451L1416.74 527L1417.28 529.182L1417.34 529L1418.66 532.786H1418.19L1419.73 537.886L1420.55 534.365L1419.89 535.162L1420.92 530.878L1420.26 531.277L1422.34 525L1423.66 528.786H1423.19L1424.29 532.441L1424.74 531L1425.3 533.281L1425.61 527.81L1425 528.293L1426.09 521.052H1425.61L1426.39 519L1429.73 528.293L1429 527.81L1430.71 534.966L1431.55 531.365L1430.89 532.162L1431.92 527.878L1431.26 528.277L1433.34 522L1434.66 525.786H1434.19L1435.96 531.633L1437.05 525.852L1436.08 527.559L1437.7 520.926L1437.05 521.451L1438.74 516L1439.45 518.89H1439.13L1440.54 524.422L1441.34 522L1442.66 525.786H1442.19L1443.85 531.288L1446 522.062L1445.27 522.559L1448.61 513L1449.39 515.11H1448.91L1450 522.559L1449.39 522.062L1449.71 527.974L1450.55 524.365L1449.89 525.162L1450.92 520.878L1450.26 521.277L1452.34 515L1453.66 518.786H1453.19L1455.36 525.959L1454.51 525.162L1455.11 527.008L1456.41 526.424L1456.61 522.81L1456 523.293L1457.09 516.052H1456.61L1457.39 514L1460.73 523.293L1460 522.81L1460.43 524.614L1461.36 524.195L1461.92 521.878L1461.26 522.277L1463.34 516L1464.66 519.786H1464.19L1465.02 522.548L1465.89 522.162L1465.89 522.16L1465.89 522.16L1466.42 521.922L1466.55 521.365L1465.89 522.16L1466.92 517.878L1466.26 518.277L1468.34 512L1469.66 515.786H1469.19L1469.55 516.968L1470.81 512.786H1470.34L1471.66 509L1473.74 515.277L1473.08 514.878L1473.96 518.53L1475.89 517.661L1477.87 509.89H1477.55L1478.26 507L1479.95 512.451L1479.3 511.926L1480.23 515.712L1480.25 515.701L1480.61 509.062L1480 509.559L1481.09 502.11H1480.61L1481.39 500L1484.73 509.559L1484 509.062L1485.04 513.545L1485.43 513.372L1487 506.81L1486.27 507.293L1489.61 498L1490.39 500.052H1489.91L1491 507.293L1490.39 506.81L1490.63 511.034L1491.39 510.69L1492.87 504.89H1492.55L1493.26 502L1494.95 507.451L1494.3 506.926L1494.84 509.139L1496.29 508.487L1496.51 507.64L1495.66 508.559L1497.87 499.89H1497.55L1498.26 497L1499.95 502.451L1499.3 501.926L1500.45 506.618L1502.56 505.666L1502.75 505.595L1504.81 498.786H1504.34L1505.66 495L1507.74 501.277L1507.08 500.878L1507.76 503.699L1510.11 502.81L1511.87 495.89H1511.55L1512.26 493L1513.95 498.451L1513.3 497.926L1514.12 501.29L1514.28 501.232L1514.61 495.062L1514 495.559L1515.09 488.11H1514.61L1515.39 486L1518.63 495.289L1519.7 490.926L1519.05 491.451L1520.74 486L1521.45 488.89H1521.13L1521.43 490.067L1523.61 484L1524.39 486.052H1523.91L1524.46 489.692L1526.34 484L1527.66 487.786H1527.19L1527.26 488.012L1527.26 488L1528.95 493.451L1528.89 493.402L1529.19 494.394L1529.61 486.81L1529 487.293L1530.09 480.052H1529.61L1530.39 478L1532.23 483.119L1532.26 483L1532.72 484.477L1533.73 487.293L1533.55 487.178L1533.95 488.451L1533.3 487.926L1534.67 493.513L1534.83 493.45L1535.55 490.365L1534.89 491.162L1535.92 486.878L1535.26 487.277L1537.34 481L1538.66 484.786H1538.19L1539.96 490.633L1541.05 484.852L1540.08 486.559L1541.7 479.926L1541.05 480.451L1542.74 475L1543.45 477.89H1543.13L1544.54 483.422L1545.34 481L1546.66 484.786H1546.19L1547.37 488.702L1548.3 488.35L1550 481.062L1549.27 481.559L1552.61 472L1553.39 474.11H1552.91L1554 481.559L1553.39 481.062L1553.68 486.316L1553.88 486.238L1554.55 483.365L1553.89 484.162L1554.92 479.878L1554.26 480.277L1556.34 474L1557.66 477.786H1557.19L1559.14 484.247L1559.49 484.116L1560.65 477.96L1560.94 476.046L1560.08 477.559L1560.69 475.052H1560.61L1560.84 474.438L1561.7 470.926L1561.05 471.451L1562.74 466L1563.45 468.89H1563.13L1565.34 477.559L1564.49 476.64L1565.17 479.305L1566.55 473.365L1565.89 474.162L1566.92 469.878L1566.26 470.277L1568.34 464L1569.66 467.786H1569.19L1571.19 474.394L1571.61 466.81L1571 467.293L1572.09 460.052H1571.61L1572.39 458L1575.73 467.293L1575 466.81L1576.71 473.966L1577.55 470.365L1576.89 471.162L1577.92 466.878L1577.26 467.277L1579.34 461L1580.66 464.786H1580.19L1581.96 470.633L1583.05 464.852L1582.08 466.559L1583.7 459.926L1583.05 460.451L1584.74 455L1585.45 457.89H1585.13L1586.54 463.422L1587.34 461L1588.66 464.786H1588.19L1589.85 470.288L1592 461.062L1591.27 461.559L1594.61 452L1595.39 454.11H1594.91L1596 461.559L1595.39 461.062L1595.71 466.974L1596.55 463.365L1595.89 464.162L1596.92 459.878L1596.26 460.277L1598.34 454L1599.66 457.786H1599.19L1601.36 464.959L1600.51 464.162L1601.79 468.102L1602.27 467.92L1602.61 461.81L1602 462.293L1603.09 455.052H1602.61L1603.39 453L1606.73 462.293L1606 461.81L1607.03 466.117L1607.15 466.071L1607.55 464.365L1606.89 465.162L1607.92 460.878L1607.26 461.277L1609.34 455L1610.66 458.786H1610.19L1611.73 463.886L1612.55 460.365L1611.89 461.162L1612.92 456.878L1612.26 457.277L1614.34 451L1615.66 454.786H1615.19L1616.46 458.993L1617.7 453.926L1617.05 454.451L1618.74 449L1619.45 451.89H1619.13L1621.34 460.559L1620.49 459.64L1621.53 463.714L1622.7 458.926L1622.05 459.451L1623.74 454L1624.45 456.89H1624.13L1626.25 465.224L1626.61 458.81L1626 459.293L1627.09 452.052H1626.61L1627.39 450L1630.73 459.293L1630 458.81L1631.79 466.275L1633 461.062L1632.27 461.559L1635.61 452L1636.39 454.11H1635.91L1637 461.559L1636.39 461.062L1636.76 467.793L1637.7 463.926L1637.05 464.451L1638.74 459L1639.45 461.89H1639.13L1641.34 470.559L1640.49 469.64L1641.5 473.612L1642.7 474.041L1643.55 470.365L1642.89 471.162L1643.92 466.878L1643.26 467.277L1645.34 461L1646.66 464.786H1646.19L1648.36 471.959L1647.51 471.162L1649.2 476.381L1650.31 476.779L1651.05 472.852L1650.08 474.559L1651.7 467.926L1651.05 468.451L1652.74 463L1653.45 465.89H1653.13L1655.34 474.559L1654.49 473.64L1655.53 477.714L1656.7 472.926L1656.05 473.451L1657.74 468L1658.45 470.89H1658.13L1660.25 479.224L1660.61 472.81L1660 473.293L1661.09 466.052H1660.61L1661.39 464L1664.73 473.293L1664 472.81L1665.79 480.275L1667 475.062L1666.27 475.559L1669.61 466L1670.39 468.11H1669.91L1671 475.559L1670.39 475.062L1670.76 481.793L1671.7 477.926L1671.05 478.451L1672.74 473L1673.45 475.89H1673.13L1675.34 484.559L1674.49 483.64L1675 485.642L1677.2 485.849L1677.55 484.365L1676.89 485.162L1677.92 480.878L1677.26 481.277L1679.34 475L1680.66 478.786H1680.19L1682.36 485.959L1681.51 485.162L1681.88 486.289L1717.51 489.642L1819.28 440.568L1846.27 443.072L1864.96 437.564L1885.73 415.531L1920 422.541V728H993ZM1152.8 617.258L1153.14 617.065L1153.51 615.64L1152.76 616.452L1152.8 617.258ZM1156.96 614.901L1156.97 614.893L1156.95 614.852L1156.96 614.901ZM1163.64 609.638L1163.2 611.355L1162.91 611.52L1162.55 610.024L1163.64 609.638ZM1162.33 611.853L1162.9 611.526L1161.95 609.852L1162.33 611.853ZM1185.82 598.517L1186.06 598.378L1186.51 596.64L1185.76 597.452L1185.82 598.517ZM1190 596.143L1190.09 596.095L1189.95 595.852L1190 596.143ZM1202.85 588.848L1202.6 588.993L1202.45 588.365L1202.85 588.848ZM1230.96 572.896L1230.97 572.888L1230.95 572.852L1230.96 572.896ZM1373.51 538.797L1373.55 538.784L1373.61 538.49L1373.48 538.668L1373.51 538.797ZM1443.53 532.216L1443.55 532.204L1443.51 532.162L1443.53 532.216ZM1473.69 518.651L1473.54 518.721L1473.45 518.365L1473.69 518.651ZM1503.49 505.162L1503.43 505.337L1503.22 505.418L1503.49 505.162ZM1529 495.66L1529.12 495.612L1529.17 494.779L1528.63 494.274L1528.88 495.312L1529 495.66ZM1539.66 491.623L1539.78 491.577L1539.8 491.44L1539.51 491.162L1539.66 491.623ZM1558.6 484.451L1558.76 484.393L1558.51 484.162L1558.6 484.451ZM1589.97 472.577L1590.02 472.557L1590.06 472.359L1589.93 472.462L1589.97 472.577ZM1636.45 471.794L1636.49 471.81L1636.52 471.668L1636.39 471.49L1636.45 471.794ZM1655.79 478.751L1655.88 478.781L1656.05 477.852L1655.71 478.443L1655.79 478.751ZM1659.9 480.227L1660.19 480.333L1660.24 479.452L1659.49 478.64L1659.9 480.227ZM1625.49 464.64L1626.24 465.452L1626.14 467.196L1625.49 464.64ZM1621.84 464.951L1622.05 463.852L1621.71 464.443L1621.84 464.951ZM1616.6 461.246L1616.58 461.367L1616.51 461.162L1616.6 461.246ZM1617.05 458.852L1616.81 460.14L1616.64 459.577L1617.05 458.852ZM1589.62 471.27L1589.51 471.162L1589.59 471.414L1589.62 471.27ZM1581.8 471.44L1581.73 471.839L1581.51 471.162L1581.8 471.44ZM1636.86 469.84L1637.05 468.852L1636.83 469.236L1636.86 469.84ZM1670.86 483.84L1671.05 482.852L1670.83 483.236L1670.86 483.84ZM1383.41 535.966L1383.4 535.987L1383.39 535.948L1383.41 535.966ZM1384.51 531.64L1383.86 534.196L1383.76 532.452L1384.51 531.64ZM1388.21 531.308L1387.95 530.852L1388.12 531.767L1388.21 531.308ZM1524.52 490.121L1524.65 490.996L1524.92 489.878L1524.52 490.121ZM1524.43 493.504L1524.45 493.793L1524.55 493.365L1524.43 493.504ZM1519.05 495.852L1518.66 497.909L1518.44 496.933L1519.05 495.852ZM1518.59 495.465L1518.34 496.505L1518 495.062L1518.59 495.465ZM1570.51 474.162L1571.11 474.724L1570.9 475.36L1570.51 474.162ZM1425.25 534.344L1425.27 533.89H1425.13L1425.25 534.344ZM1398.24 533.452L1397.49 532.64L1398.14 535.196L1398.24 533.452ZM1398.59 536.966L1398.6 536.987L1398.61 536.948L1398.59 536.966ZM1408.52 539.668L1408.47 539.919L1408.39 539.49L1408.52 539.668ZM1409.05 536.852L1408.86 537.84L1408.83 537.236L1409.05 536.852ZM1435.73 532.839L1435.8 532.44L1435.51 532.162L1435.73 532.839ZM1108.17 634.236L1107.95 633.852L1108.14 634.84L1108.17 634.236ZM1108.48 636.668L1108.53 636.919L1108.61 636.49L1108.48 636.668ZM1118.76 630.452L1118.86 632.196L1119.51 629.64L1118.76 630.452ZM1118.41 633.966L1118.39 633.948L1118.4 633.987L1118.41 633.966ZM1123.29 629.443L1122.95 628.852L1123.16 629.951L1123.29 629.443ZM1175.17 601.236L1174.95 600.852L1175.14 601.84L1175.17 601.236ZM1175.48 603.668L1175.53 603.919L1175.61 603.49L1175.48 603.668ZM1142.61 622.49L1142.53 622.919L1142.48 622.668L1142.61 622.49ZM1142.17 620.236L1142.14 620.84L1141.95 619.852L1142.17 620.236ZM1064.41 665.966L1064.4 665.987L1064.39 665.948L1064.41 665.966ZM1065.51 661.64L1064.86 664.196L1064.76 662.452L1065.51 661.64ZM1069.29 661.443L1068.95 660.852L1069.16 661.951L1069.29 661.443ZM1088.17 652.236L1087.95 651.852L1088.14 652.84L1088.17 652.236ZM1102.8 643.99L1102.79 643.954L1102.81 643.966L1102.8 643.99ZM1054.53 668.919L1054.61 668.49L1054.48 668.668L1054.53 668.919ZM1054.14 666.84L1054.17 666.236L1053.95 665.852L1054.14 666.84ZM1275.76 555.452L1275.86 557.196L1276.51 554.64L1275.76 555.452ZM1275.41 558.966L1275.39 558.948L1275.4 558.987L1275.41 558.966ZM1265.61 561.49L1265.53 561.919L1265.48 561.668L1265.61 561.49ZM1265.17 559.236L1265.14 559.84L1264.95 558.852L1265.17 559.236ZM1280.29 554.443L1279.95 553.852L1280.16 554.951L1280.29 554.443ZM1286.09 551.11L1285.78 553.24L1284.95 548.852L1285.86 550.442L1285.61 551.11H1286.09ZM1329.61 545.786H1329.81L1329.64 546.34L1329.61 545.786ZM1319.17 552.236L1318.95 551.852L1319.14 552.84L1319.17 552.236ZM1334.29 547.443L1333.95 546.852L1334.16 547.951L1334.29 547.443ZM1339.56 542.924L1339.47 544.606L1339.07 542.501L1339.24 542.362L1339.56 542.924ZM1339.07 542.069L1339.04 542.315L1338.95 541.852L1339.07 542.069ZM1339.6 542.231L1339.56 542.096L1339.61 542.062L1339.6 542.231ZM1373.17 536.236L1372.95 535.852L1373.14 536.84L1373.17 536.236ZM1219.84 577.166L1219.48 578.289L1219.39 576.81L1219.84 577.166ZM1220.49 575.162L1219.94 576.87L1219.78 575.83L1220.49 575.162Z" fill="url(#paint1_linear)"/>
<path d="M1116.33 574.73C1116.48 574.406 1116.79 574.188 1117.15 574.156L1145.89 571.642C1146.24 571.611 1146.59 571.772 1146.79 572.065L1163.34 595.694C1163.54 595.986 1163.57 596.366 1163.42 596.69L1151.23 622.833C1151.08 623.156 1150.77 623.375 1150.41 623.406L1121.68 625.92C1121.32 625.951 1120.98 625.79 1120.77 625.498L1104.23 601.869C1104.02 601.576 1103.99 601.197 1104.14 600.873L1116.33 574.73Z" fill="white" fill-opacity="0.15"/>
<path d="M1041.49 638.294C1041.64 637.97 1041.95 637.751 1042.3 637.72L1051.77 636.892C1052.13 636.861 1052.47 637.022 1052.68 637.315L1058.13 645.098C1058.33 645.391 1058.36 645.77 1058.21 646.094L1054.2 654.706C1054.05 655.03 1053.73 655.248 1053.38 655.279L1043.91 656.108C1043.56 656.139 1043.21 655.978 1043.01 655.685L1037.56 647.902C1037.35 647.609 1037.32 647.229 1037.47 646.905L1041.49 638.294Z" fill="white" fill-opacity="0.15"/>
<path d="M1207.16 427.283C1207.31 426.959 1207.62 426.741 1207.98 426.71L1294.99 419.097C1295.35 419.066 1295.69 419.227 1295.9 419.52L1345.99 491.069C1346.2 491.361 1346.23 491.741 1346.08 492.065L1309.17 571.227C1309.02 571.55 1308.7 571.769 1308.35 571.8L1221.34 579.413C1220.98 579.444 1220.63 579.283 1220.43 578.99L1170.33 507.441C1170.13 507.148 1170.09 506.769 1170.24 506.445L1207.16 427.283Z" fill="white" fill-opacity="0.15"/>
<path d="M1405.76 346.635C1405.91 346.311 1406.22 346.093 1406.58 346.062L1457.73 341.586C1458.09 341.555 1458.43 341.716 1458.64 342.009L1488.09 384.069C1488.29 384.361 1488.33 384.741 1488.17 385.065L1466.48 431.6C1466.32 431.923 1466.01 432.142 1465.66 432.173L1414.51 436.648C1414.15 436.679 1413.8 436.518 1413.6 436.226L1384.15 394.166C1383.94 393.873 1383.91 393.494 1384.06 393.17L1405.76 346.635Z" fill="white" fill-opacity="0.15"/>
</g>
<defs>
<filter id="filter0_d" x="871" y="641" width="165" height="165" filterUnits="userSpaceOnUse" color-interpolation-filters="sRGB">
<feFlood flood-opacity="0" result="BackgroundImageFix"/>
<feColorMatrix in="SourceAlpha" type="matrix" values="0 0 0 0 0 0 0 0 0 0 0 0 0 0 0 0 0 0 127 0" result="hardAlpha"/>
<feOffset/>
<feGaussianBlur stdDeviation="10"/>
<feComposite in2="hardAlpha" operator="out"/>
<feColorMatrix type="matrix" values="0 0 0 0 0.9625 0 0 0 0 0.750363 0 0 0 0 0.252656 0 0 0 1 0"/>
<feBlend mode="normal" in2="BackgroundImageFix" result="effect1_dropShadow"/>
<feBlend mode="normal" in="SourceGraphic" in2="effect1_dropShadow" result="shape"/>
</filter>
<linearGradient id="paint0_linear" x1="960" y1="374" x2="960" y2="728" gradientUnits="userSpaceOnUse">
<stop stop-color="#A25254"/>
<stop offset="0.3125" stop-color="#994E53"/>
<stop offset="0.447917" stop-color="#914953"/>
<stop offset="0.552083" stop-color="#8C4752"/>
<stop offset="1" stop-color="#703850"/>
</linearGradient>
<linearGradient id="paint1_linear" x1="960" y1="374" x2="960" y2="728" gradientUnits="userSpaceOnUse">
<stop stop-color="#A25254"/>
<stop offset="0.3125" stop-color="#994E53"/>
<stop offset="0.447917" stop-color="#914953"/>
<stop offset="0.552083" stop-color="#8C4752"/>
<stop offset="1" stop-color="#703850"/>
</linearGradient>
</defs>
</svg>
