<svg width="1920" height="1080" viewBox="0 0 1920 1080" fill="none" xmlns="http://www.w3.org/2000/svg">
<rect x="1920" y="1080" width="1920" height="352" transform="rotate(-180 1920 1080)" fill="#DAC3B5"/>
<rect x="1920" y="1080" width="1920" height="352" transform="rotate(-180 1920 1080)" fill="url(#paint0_linear)"/>
<rect x="1920" y="1080" width="1920" height="352" transform="rotate(-180 1920 1080)" fill="url(#paint1_linear)"/>
<rect x="1920" y="1080" width="1920" height="352" transform="rotate(-180 1920 1080)" fill="url(#paint2_radial)"/>
<rect x="1920" y="1080" width="1920" height="352" transform="rotate(-180 1920 1080)" fill="url(#paint3_linear)"/>
<path d="M1174 746.1H1158.9V752.14H1038.1V746.1H1023V760.143C1023 761.653 1029.04 768.448 1032.36 769.958C1035.44 771.354 1051.09 776.3 1057.13 776.3H1174V746.1Z" fill="#552E4B"/>
<rect width="15.1" height="6.04" transform="matrix(-1 0 0 1 1133.23 743.08)" fill="#673148"/>
<rect width="15.1" height="6.04" transform="matrix(-1 0 0 1 1115.11 743.08)" fill="#673148"/>
<rect width="15.1" height="6.04" transform="matrix(-1 0 0 1 1096.99 743.08)" fill="#673148"/>
<rect width="15.1" height="6.04" transform="matrix(-1 0 0 1 1078.87 743.08)" fill="#673148"/>
<rect width="15.1" height="6.04" transform="matrix(-1 0 0 1 1060.75 743.08)" fill="#673148"/>
<rect width="15.1" height="6.04" transform="matrix(-1 0 0 1 1133.23 734.02)" fill="#673148"/>
<rect width="15.1" height="6.04" transform="matrix(-1 0 0 1 1115.11 734.02)" fill="#673148"/>
<rect width="15.1" height="6.04" transform="matrix(-1 0 0 1 1096.99 734.02)" fill="#673148"/>
<rect width="15.1" height="6.04" transform="matrix(-1 0 0 1 1078.87 734.02)" fill="#673148"/>
<rect width="15.1" height="6.04" transform="matrix(-1 0 0 1 1060.75 734.02)" fill="#673148"/>
<rect width="22.65" height="21.14" transform="matrix(-1 0 0 1 1167.96 731)" fill="#552E4B"/>
<rect x="928" y="728" width="50" height="6.57692" rx="3.28846" fill="url(#paint4_diamond)"/>
<rect x="907" y="752.992" width="100" height="6.57692" rx="3.28846" fill="url(#paint5_diamond)"/>
<rect x="910" y="777.984" width="54" height="7.89231" rx="3.94615" fill="url(#paint6_diamond)"/>
<rect x="937" y="804.293" width="52" height="9.20769" rx="4.60385" fill="url(#paint7_diamond)"/>
<rect x="898" y="831.916" width="116" height="9.20769" rx="4.60385" fill="url(#paint8_diamond)"/>
<rect x="828" y="859.539" width="218" height="10.5231" rx="5.26154" fill="url(#paint9_diamond)"/>
<rect x="876" y="888.477" width="138" height="10.5231" rx="5.26154" fill="url(#paint10_diamond)"/>
<path d="M682.5 1062L683.667 1066.33L688 1067.5L683.667 1068.67L682.5 1073L681.333 1068.67L677 1067.5L681.333 1066.33L682.5 1062Z" fill="white" fill-opacity="0.17"/>
<path d="M1647.5 804L1648.67 808.333L1653 809.5L1648.67 810.667L1647.5 815L1646.33 810.667L1642 809.5L1646.33 808.333L1647.5 804Z" fill="white" fill-opacity="0.17"/>
<path d="M1111.5 965L1112.67 969.333L1117 970.5L1112.67 971.667L1111.5 976L1110.33 971.667L1106 970.5L1110.33 969.333L1111.5 965Z" fill="white" fill-opacity="0.17"/>
<path d="M1104.5 832L1105.67 836.333L1110 837.5L1105.67 838.667L1104.5 843L1103.33 838.667L1099 837.5L1103.33 836.333L1104.5 832Z" fill="white" fill-opacity="0.17"/>
<path d="M521.5 965L522.667 969.333L527 970.5L522.667 971.667L521.5 976L520.333 971.667L516 970.5L520.333 969.333L521.5 965Z" fill="white" fill-opacity="0.17"/>
<path d="M1454.5 985L1455.67 989.333L1460 990.5L1455.67 991.667L1454.5 996L1453.33 991.667L1449 990.5L1453.33 989.333L1454.5 985Z" fill="white" fill-opacity="0.17"/>
<path d="M71.5 994L72.6667 998.333L77 999.5L72.6667 1000.67L71.5 1005L70.3333 1000.67L66 999.5L70.3333 998.333L71.5 994Z" fill="white" fill-opacity="0.17"/>
<defs>
<linearGradient id="paint0_linear" x1="2880" y1="1080" x2="2880" y2="1432" gradientUnits="userSpaceOnUse">
<stop offset="0.0833333" stop-color="white" stop-opacity="0.5"/>
<stop offset="1" stop-color="white" stop-opacity="0"/>
</linearGradient>
<linearGradient id="paint1_linear" x1="2880" y1="1080" x2="2880" y2="1432" gradientUnits="userSpaceOnUse">
<stop offset="0.0729167" stop-color="#12567B"/>
<stop offset="0.234375" stop-color="#286182"/>
<stop offset="0.5" stop-color="#416F8A"/>
<stop offset="0.791667" stop-color="#80929D"/>
<stop offset="1" stop-color="#A2A9AC"/>
</linearGradient>
<radialGradient id="paint2_radial" cx="0" cy="0" r="1" gradientUnits="userSpaceOnUse" gradientTransform="translate(2880 638.066) rotate(90) scale(2103.93 11476)">
<stop offset="0.216707" stop-color="#4B768B"/>
<stop offset="0.236197" stop-color="#4E768A"/>
<stop offset="0.250788" stop-color="#567889"/>
<stop offset="0.267196" stop-color="#5C7A87"/>
<stop offset="0.321551" stop-color="#D7986A"/>
<stop offset="0.351617" stop-color="#FFA261"/>
<stop offset="0.376054" stop-color="#FFC69E"/>
</radialGradient>
<linearGradient id="paint3_linear" x1="2880" y1="1080" x2="2880" y2="1418" gradientUnits="userSpaceOnUse">
<stop stop-color="#2D325A"/>
<stop offset="0.0385537" stop-color="#2F345C"/>
<stop offset="0.0743646" stop-color="#32375F"/>
<stop offset="0.30069" stop-color="#3A4572"/>
<stop offset="0.485474" stop-color="#6E4F6E"/>
<stop offset="0.597204" stop-color="#90566F"/>
<stop offset="0.681718" stop-color="#AA5C6A"/>
<stop offset="0.922054" stop-color="#BD625E"/>
</linearGradient>
<radialGradient id="paint4_diamond" cx="0" cy="0" r="1" gradientUnits="userSpaceOnUse" gradientTransform="translate(953 731.288) rotate(90) scale(3.28846 25)">
<stop stop-color="#CB7A59"/>
<stop offset="1" stop-color="#E26F3F" stop-opacity="0"/>
</radialGradient>
<radialGradient id="paint5_diamond" cx="0" cy="0" r="1" gradientUnits="userSpaceOnUse" gradientTransform="translate(957 756.281) rotate(90) scale(3.28846 50)">
<stop stop-color="#CB7A59"/>
<stop offset="1" stop-color="#E26F3F" stop-opacity="0"/>
</radialGradient>
<radialGradient id="paint6_diamond" cx="0" cy="0" r="1" gradientUnits="userSpaceOnUse" gradientTransform="translate(937 781.931) rotate(90) scale(3.94615 27)">
<stop stop-color="#CB7A59"/>
<stop offset="1" stop-color="#E26F3F" stop-opacity="0"/>
</radialGradient>
<radialGradient id="paint7_diamond" cx="0" cy="0" r="1" gradientUnits="userSpaceOnUse" gradientTransform="translate(963 808.897) rotate(90) scale(4.60385 26)">
<stop stop-color="#CB7A59"/>
<stop offset="1" stop-color="#E26F3F" stop-opacity="0"/>
</radialGradient>
<radialGradient id="paint8_diamond" cx="0" cy="0" r="1" gradientUnits="userSpaceOnUse" gradientTransform="translate(956 836.52) rotate(90) scale(4.60385 58)">
<stop stop-color="#CB7A59"/>
<stop offset="1" stop-color="#E26F3F" stop-opacity="0"/>
</radialGradient>
<radialGradient id="paint9_diamond" cx="0" cy="0" r="1" gradientUnits="userSpaceOnUse" gradientTransform="translate(937 864.801) rotate(90) scale(5.26154 109)">
<stop stop-color="#CB7A59"/>
<stop offset="1" stop-color="#E26F3F" stop-opacity="0"/>
</radialGradient>
<radialGradient id="paint10_diamond" cx="0" cy="0" r="1" gradientUnits="userSpaceOnUse" gradientTransform="translate(945 893.738) rotate(90) scale(5.26154 69)">
<stop stop-color="#CB7A59"/>
<stop offset="1" stop-color="#E26F3F" stop-opacity="0"/>
</radialGradient>
</defs>
</svg>
