<svg width="1920" height="1080" viewBox="0 0 1920 1080" fill="none" xmlns="http://www.w3.org/2000/svg">
<mask id="mask0" mask-type="alpha" maskUnits="userSpaceOnUse" x="0" y="299" width="1920" height="582">
<rect y="299" width="1920" height="582" fill="#C4C4C4"/>
</mask>
<g mask="url(#mask0)">
<ellipse cx="1207.66" cy="683.673" rx="4.20155" ry="4.32695" fill="#5D2F4A"/>
<ellipse cx="1172.08" cy="683.385" rx="4.48166" ry="4.61541" fill="#5D2F4A"/>
<path fill-rule="evenodd" clip-rule="evenodd" d="M1165.36 677.039L1173.77 676.462C1173.77 676.462 1183.53 672.941 1190.01 673.001C1193.54 673.033 1198.97 674.155 1198.97 674.155L1205.14 677.616C1205.14 677.616 1208.26 677.683 1210.18 678.193C1213.02 678.948 1216.9 681.655 1216.9 681.655C1216.9 681.655 1217.74 682.816 1217.74 683.674C1217.74 684.532 1216.9 685.693 1216.9 685.693C1216.9 685.693 1218.02 686.084 1218.02 686.27C1218.02 686.456 1216.9 686.847 1216.9 686.847H1211.58C1214.1 683.385 1211.86 678.769 1207.66 678.769C1203.46 678.769 1201.5 683.096 1203.74 686.847H1176.29C1178.53 682.809 1176.29 678.193 1172.08 678.193C1167.88 678.193 1165.36 682.809 1168.16 686.847H1164.8C1164.8 686.847 1164.05 686.847 1163.68 685.693L1163.12 683.962C1163.12 683.962 1163.68 683.704 1163.68 683.385C1163.68 682.809 1163.12 682.232 1163.12 682.232C1163.12 682.232 1163.43 681.166 1163.68 680.501C1164.21 679.09 1165.36 677.039 1165.36 677.039ZM1179.93 680.5C1179.93 680.5 1181.05 684.539 1184.41 685.115L1195.61 685.692C1195.61 685.692 1196.73 685.176 1196.73 684.539C1196.73 683.962 1193.46 682.971 1190.57 682.231C1186.91 681.291 1179.93 680.5 1179.93 680.5ZM1184.97 674.732L1192.81 674.463C1193.93 675.327 1196.17 677.636 1196.17 677.636L1187.21 677.04C1185.81 676.463 1185.49 675.89 1184.97 674.732ZM1194.49 674.443L1197.85 677.616H1204.02L1198.41 674.443H1194.49Z" fill="#5D2F4A"/>
<path d="M1162 675.307H1166.48L1167.6 676.46H1163.12L1162 675.307Z" fill="#5D2F4A"/>
<path d="M1215 680.5L1216 681L1217 681.5V682H1215V680.5Z" fill="white"/>
<path d="M1215 681.946V680.757L1245 676V687L1215 681.946Z" fill="url(#paint0_linear)" fill-opacity="0.8"/>
<path d="M794 680.946V679.757L764 675V686L794 680.946Z" fill="url(#paint1_linear)" fill-opacity="0.8"/>
<rect x="670" y="313" width="26" height="375" fill="#592E4A"/>
<rect x="652.5" y="778.771" width="59.3759" height="9.23625" rx="4.61813" fill="#444444" fill-opacity="0.29"/>
<path d="M669.25 703H695.75L709 783H656L669.25 703Z" fill="#592E4A"/>
<rect x="758.059" y="778.771" width="59.3759" height="9.23625" rx="4.61813" fill="#444444" fill-opacity="0.29"/>
<path d="M775.25 703H801.75L815 783H762L775.25 703Z" fill="#592E4A"/>
<rect x="775" y="313" width="27" height="375" fill="#592E4A"/>
<rect x="696" y="347" width="80" height="14" fill="#592E4A"/>
<rect x="696" y="498" width="80" height="13" fill="#592E4A"/>
<rect x="1101" y="313" width="27" height="375" fill="#592E4A"/>
<rect x="1084.09" y="778.771" width="59.3759" height="9.23625" rx="4.61813" fill="#444444" fill-opacity="0.29"/>
<rect x="1189.64" y="778.771" width="59.3759" height="9.23625" rx="4.61813" fill="#444444" fill-opacity="0.29"/>
<path d="M1101.25 703H1127.75L1141 783H1088L1101.25 703Z" fill="#592E4A"/>
<path d="M1207 703H1233L1246 783H1194L1207 703Z" fill="#592E4A"/>
<rect x="1207" y="313" width="26" height="375" fill="#592E4A"/>
<rect x="1127" y="347" width="81" height="14" fill="#592E4A"/>
<rect x="1127" y="498" width="81" height="13" fill="#592E4A"/>
<rect x="288" y="688" width="1240" height="16" fill="#592E4A"/>
<path fill-rule="evenodd" clip-rule="evenodd" d="M1266 847L1244 848.5L1301 863.5L1336.5 868H2101V255L2035.5 275.5L1982 281L1932.5 322.5L1923.41 349.045L1922.34 344.907L1923.94 346.627L1919.75 330.407H1920.36L1919.01 325L1915.8 335.199L1917.03 334.216L1913.95 346.627L1915.8 343.432L1911.57 365.427L1908.34 352.907L1909.94 354.627L1905.75 338.407H1906.36L1905.01 333L1901.8 343.199L1903.03 342.216L1900.39 352.853L1898.34 344.907L1899.94 346.627L1895.75 330.407H1896.36L1895.01 325L1891.8 335.199L1893.03 334.216L1889.95 346.627L1891.8 343.432L1889.55 355.12L1885.75 340.407H1886.36L1885.01 335L1881.8 345.199L1883.03 344.216L1879.95 356.627L1881.8 353.432L1879.72 364.254L1878.34 358.907L1879.94 360.627L1875.75 344.407H1876.36L1875.01 339L1871.8 349.199L1873.03 348.216L1869.95 360.627L1871.8 357.432L1870.6 363.668L1868.34 354.907L1869.94 356.627L1865.75 340.407H1866.36L1865.01 335L1861.8 345.199L1863.03 344.216L1859.95 356.627L1861.8 353.432L1858.38 371.188L1854.2 353.852L1855.44 354.666L1849.77 339L1848.43 342.459H1849.25L1847.4 354.666L1848.43 353.852L1847.8 365.147L1843.77 354L1842.43 357.459H1843.25L1841.4 369.666L1842.43 368.852L1841.46 386.343L1838.2 372.852L1839.44 373.666L1833.77 358L1832.43 361.459H1833.25L1831.4 373.666L1832.43 372.852L1831.4 391.366L1832.43 389.941L1829.96 403.182L1828.34 396.907L1829.94 398.627L1825.75 382.407H1826.36L1825.01 377L1821.8 387.199L1823.03 386.216L1819.95 398.627L1821.8 395.432L1820.42 402.607L1816.75 388.407H1817.36L1816.01 383L1812.8 393.199L1814.03 392.216L1810.95 404.627L1812.8 401.432L1810.82 411.734L1809.07 406.561L1810.51 407.86L1806.82 396.17H1807.62L1805.38 390L1803.33 395.921L1801.75 385.459H1802.57L1801.23 382L1795.56 397.666L1796.8 396.852L1794.48 406.443L1792.82 401.17H1793.62L1791.38 395L1787.85 405.229L1788.97 404.579L1787.75 409.395L1786.34 403.907L1787.94 405.627L1783.75 389.407H1784.36L1783.01 384L1779.8 394.199L1781.03 393.216L1777.95 405.627L1779.8 402.432L1778.16 410.961L1776.34 403.907L1777.94 405.627L1773.75 389.407H1774.36L1773.01 384L1769.8 394.199L1771.03 393.216L1767.95 405.627L1769.8 402.432L1767.46 414.618L1765.07 407.561L1766.51 408.86L1762.82 397.17H1763.62L1761.38 391L1757.85 401.229L1758.97 400.579L1757.21 407.561L1758.33 406.262L1757.16 411.109L1754.2 398.852L1755.44 399.666L1749.77 384L1748.43 387.459H1749.25L1747.4 399.666L1748.43 398.852L1747.4 417.366L1748.43 415.941L1747.35 421.744L1745.2 412.852L1746.44 413.666L1740.77 398L1739.43 401.459H1740.25L1738.4 413.666L1739.43 412.852L1739.16 417.623L1735.75 404.407H1736.36L1735.01 399L1731.8 409.199L1733.03 408.216L1729.95 420.627L1731.8 417.432L1727.76 438.449L1725.2 427.852L1726.44 428.666L1720.77 413L1719.43 416.459H1720.25L1718.4 428.666L1719.43 427.852L1718.58 443.165L1714.9 431.572H1715.89L1713.11 424L1708.75 436.554L1710.14 435.756L1707.96 444.325L1709.35 442.731L1707.37 450.853L1705.2 441.852L1706.44 442.666L1700.77 427L1699.43 430.459H1700.25L1698.4 442.666L1699.43 441.852L1698.4 460.366L1699.43 458.941L1697.92 467.006L1694.82 457.17H1695.62L1693.38 451L1689.85 461.229L1690.97 460.579L1689.21 467.561L1690.33 466.262L1688.47 473.972L1687.57 457.852L1688.6 458.666L1686.75 446.459H1687.57L1686.23 443L1680.56 458.666L1681.8 457.852L1677.06 477.484L1678.5 476.366L1677.72 480.127L1675.34 470.907L1676.94 472.627L1672.75 456.407H1673.36L1672.01 451L1668.8 461.199L1670.03 460.216L1666.95 472.627L1668.8 469.432L1665.37 487.255L1662.82 479.17H1663.62L1661.38 473L1657.85 483.229L1658.97 482.579L1657.21 489.561L1658.33 488.262L1656.68 495.107L1654.2 484.852L1655.44 485.666L1649.77 470L1648.43 473.459H1649.25L1647.4 485.666L1648.43 484.852L1647.4 503.366L1648.43 501.941L1647.24 508.292L1645.34 500.907L1646.94 502.627L1642.75 486.407H1643.36L1642.01 481L1638.8 491.199L1640.03 490.216L1636.95 502.627L1638.8 499.432L1636.33 512.284L1632.82 501.17H1633.62L1631.38 495L1627.85 505.229L1628.97 504.579L1627.21 511.561L1628.33 510.262L1624.64 525.524L1626.08 524.225L1625.47 528.571L1622.82 520.17H1623.62L1621.38 514L1617.85 524.229L1618.97 523.579L1617.21 530.561L1618.33 529.262L1615.48 541.035L1610.77 528L1609.43 531.459H1610.25L1608.4 543.666L1609.43 542.852L1608.4 561.366L1609.43 559.941L1608.83 563.179L1604.75 547.407H1605.36L1604.01 542L1600.8 552.199L1602.03 551.216L1598.95 563.627L1600.8 560.432L1596.36 583.534L1597.59 582.182L1596.9 586.93L1594.07 578.561L1595.51 579.86L1591.82 568.17H1592.62L1590.38 562L1586.85 572.229L1587.97 571.579L1586.21 578.561L1587.33 577.262L1583.77 591.978L1579.75 576.407H1580.36L1579.01 571L1575.8 581.199L1577.03 580.216L1573.95 592.627L1575.8 589.432L1572.49 606.631L1568.2 588.852L1569.44 589.666L1563.77 574L1562.43 577.459H1563.25L1561.4 589.666L1562.43 588.852L1561.4 607.366L1562.43 605.941L1559.25 622.962L1555.75 609.407H1556.36L1555.01 604L1551.8 614.199L1553.03 613.216L1551.78 618.26L1550.75 611.459H1551.57L1550.23 608L1544.56 623.666L1545.8 622.852L1543 634.456L1541.38 630L1537.85 640.229L1538.97 639.579L1537.21 646.561L1538.33 645.262L1537.4 649.109L1534.2 635.852L1535.44 636.666L1529.77 621L1528.43 624.459H1529.25L1527.4 636.666L1528.43 635.852L1527.4 654.366L1528.43 652.941L1525.98 666.066L1524.99 660.203L1526.13 660.712L1522.39 646.475L1523.74 647.898L1520.21 634.475H1520.73L1519.58 630L1516.88 638.441L1517.92 637.627L1515.32 647.898L1516.88 645.254L1514.04 659.771L1510.2 643.852L1511.44 644.666L1505.77 629L1504.43 632.459H1505.25L1503.4 644.666L1504.43 643.852L1503.4 662.366L1504.43 660.941L1502.38 671.928L1500.04 662.847L1501.47 664.39L1497.72 649.847H1498.27L1497.06 645L1494.19 654.144L1495.29 653.263L1492.53 664.39L1494.19 661.525L1492.22 671.777L1489.82 664.17H1490.62L1488.38 658L1485.54 666.239L1483.75 654.459H1484.57L1483.23 651L1477.56 666.666L1478.8 665.852L1475.5 679.522L1472.2 665.852L1473.44 666.666L1467.77 651L1466.43 654.459H1467.25L1465.4 666.666L1466.43 665.852L1465.4 684.366L1466.43 682.941L1463.82 696.897L1462.8 690.72L1464.01 691.271L1460.04 675.847L1461.47 677.39L1457.72 662.847H1458.27L1457.06 658L1454.19 667.144L1455.29 666.263L1452.53 677.39L1454.19 674.525L1450.21 695.237L1451.32 694.025L1450.45 700.011L1448.38 700.453L1447.07 696.561L1448.51 697.86L1444.82 686.17H1445.62L1443.38 680L1439.85 690.229L1440.97 689.579L1439.21 696.561L1440.33 695.262L1437.95 705.106L1436.2 697.852L1437.44 698.666L1431.77 683L1430.43 686.459H1431.25L1429.4 698.666L1430.43 697.852L1429.4 716.366L1430.43 714.941L1429.78 718.409L1428.2 711.852L1429.44 712.666L1423.77 697L1422.43 700.459H1423.25L1421.4 712.666L1422.43 711.852L1421.43 729.844L1420.47 731.072L1419.57 714.852L1420.6 715.666L1418.75 703.459H1419.57L1418.23 700L1412.56 715.666L1413.8 714.852L1409.06 734.484L1410.5 733.366L1409.04 740.373L1405.82 730.17H1406.62L1404.38 724L1400.85 734.229L1401.97 733.579L1400.21 740.561L1401.33 739.262L1398.7 750.16L1396.04 739.847L1397.47 741.39L1393.72 726.847H1394.27L1393.06 722L1390.19 731.144L1391.29 730.263L1388.53 741.39L1390.19 738.525L1387.6 751.992L1384.82 743.17H1385.62L1383.38 737L1379.85 747.229L1380.97 746.579L1380.26 749.391L1378.2 740.852L1379.44 741.666L1373.77 726L1372.43 729.459H1373.25L1371.4 741.666L1372.43 740.852L1371.4 759.366L1372.43 757.941L1370.91 766.098L1369.04 758.847L1370.47 760.39L1366.72 745.847H1367.27L1366.06 741L1363.19 750.144L1364.29 749.263L1361.53 760.39L1363.19 757.525L1360.86 769.67L1357.04 754.847L1358.47 756.39L1354.72 741.847H1355.27L1354.06 737L1351.19 746.144L1352.29 745.263L1349.53 756.39L1351.19 753.525L1347.48 772.839L1346.8 768.72L1348.01 769.271L1344.04 753.847L1345.47 755.39L1341.72 740.847H1342.27L1341.06 736L1338.19 745.144L1339.29 744.263L1336.53 755.39L1338.19 752.525L1334.21 773.237L1335.32 772.025L1334.77 775.819L1301 802.5L1294 831L1271 832.5L1266 847ZM1841.96 388.442L1842.43 385.941L1841.63 387.051L1841.96 388.442ZM1858.38 376.611L1858.59 375.182L1858.18 375.633L1858.38 376.611ZM1857.84 374.015L1858.07 372.812L1857.5 372.366L1857.84 374.015ZM1718.47 445.043L1718.4 446.366L1719.01 445.523L1719.28 445.762L1718.88 447.88L1717.67 444.325L1718.47 445.043ZM1728.34 440.877L1728.59 439.182L1728.07 439.75L1728.34 440.877ZM1719.32 445.512L1719.23 445.218L1719.43 444.941L1719.32 445.512ZM1739.05 419.672L1738.96 421.315L1738.34 418.907L1739.05 419.672ZM1697.71 468.142L1697.07 467.561L1697.55 468.997L1697.71 468.142ZM1608.78 563.449L1607.34 561.907L1608.34 565.785L1608.78 563.449ZM1615.79 545.303L1616.06 543.416L1615.95 543.346L1615.43 543.813L1615.79 545.303ZM1571.5 607.366L1572.24 607.942L1571.94 609.495L1571.5 607.366ZM1572.47 612.022L1572.35 611.447L1572.59 611.182L1572.47 612.022ZM1559.69 625.36L1559.24 627.402L1558.34 623.907L1559.69 625.36ZM1560.16 623.234L1559.78 624.986L1559.47 623.796L1560.16 623.234ZM1513.5 662.366L1513.53 662.392L1513.52 662.461L1513.5 662.366ZM1513.97 664.654L1513.77 663.693L1514.18 663.254L1513.97 664.654ZM1475.5 684.38L1475.5 684.37L1475.5 684.368L1475.5 684.37L1475.5 684.38ZM1802.77 400.391L1802.97 399.579L1802.73 399.72L1802.77 400.391ZM1802.63 397.961L1802.92 397.127L1802.57 396.852L1802.63 397.961ZM1687.57 474.941L1688.07 475.628L1687.86 476.488L1687.57 474.941ZM1551.6 623.45L1551.7 622.953L1551.57 622.852L1551.6 623.45ZM1484.57 665.852L1485.43 666.534L1484.85 668.229L1485.97 667.579L1484.9 671.814L1484.57 665.852ZM1485.05 674.433L1485 673.64L1485.33 673.262L1485.05 674.433ZM1408.85 741.269L1408.07 740.561L1408.64 742.27L1408.85 741.269ZM1419.61 732.175L1419.68 732.092L1419.57 731.941L1419.61 732.175ZM1788.06 410.575L1788.16 410.966L1788.33 410.262L1788.06 410.575ZM1766.51 418.114L1766.77 418.201L1766.67 418.713L1766.51 418.114ZM1635.07 511.561L1636.26 512.636L1635.96 514.199L1635.07 511.561ZM1625.18 530.661L1625.15 530.821L1625.07 530.561L1625.18 530.661ZM1595.51 589.114L1596.53 589.46L1596.2 591.724L1595.51 589.114ZM1585.08 591.225L1584.14 597.9L1582.34 590.907L1583.68 592.35L1583.64 592.524L1583.75 592.424L1583.94 592.627L1583.86 592.324L1585.08 591.225ZM1398.87 754.752L1398.84 754.965L1398.8 754.72L1398.87 754.752ZM1387.22 754.008L1387.27 753.743L1387.07 753.561L1387.22 754.008ZM1888.34 354.907L1889.38 356.023L1889.06 357.693L1888.34 354.907ZM1901.04 355.376L1901.8 351.432L1900.57 353.553L1901.04 355.376ZM1912.2 367.868L1911.75 366.108L1912.59 365.182L1912.2 367.868ZM1911.42 369.496L1911.93 369.726L1911.71 371.233L1911.42 369.496ZM1820.19 403.817L1819.92 405.18L1819.34 402.907L1820.19 403.817ZM1360.76 770.158L1360.29 772.653L1359.8 769.72L1360.76 770.158ZM1347.64 773.773L1347.83 774.931L1348.02 775.065L1348.32 773.025L1347.64 773.773Z" fill="#683249"/>
<path fill-rule="evenodd" clip-rule="evenodd" d="M1266 847L1244 848.5L1301 863.5L1336.5 868H2101V255L2035.5 275.5L1982 281L1932.5 322.5L1923.41 349.045L1922.34 344.907L1923.94 346.627L1919.75 330.407H1920.36L1919.01 325L1915.8 335.199L1917.03 334.216L1913.95 346.627L1915.8 343.432L1911.57 365.427L1908.34 352.907L1909.94 354.627L1905.75 338.407H1906.36L1905.01 333L1901.8 343.199L1903.03 342.216L1900.39 352.853L1898.34 344.907L1899.94 346.627L1895.75 330.407H1896.36L1895.01 325L1891.8 335.199L1893.03 334.216L1889.95 346.627L1891.8 343.432L1889.55 355.12L1885.75 340.407H1886.36L1885.01 335L1881.8 345.199L1883.03 344.216L1879.95 356.627L1881.8 353.432L1879.72 364.254L1878.34 358.907L1879.94 360.627L1875.75 344.407H1876.36L1875.01 339L1871.8 349.199L1873.03 348.216L1869.95 360.627L1871.8 357.432L1870.6 363.668L1868.34 354.907L1869.94 356.627L1865.75 340.407H1866.36L1865.01 335L1861.8 345.199L1863.03 344.216L1859.95 356.627L1861.8 353.432L1858.38 371.188L1854.2 353.852L1855.44 354.666L1849.77 339L1848.43 342.459H1849.25L1847.4 354.666L1848.43 353.852L1847.8 365.147L1843.77 354L1842.43 357.459H1843.25L1841.4 369.666L1842.43 368.852L1841.46 386.343L1838.2 372.852L1839.44 373.666L1833.77 358L1832.43 361.459H1833.25L1831.4 373.666L1832.43 372.852L1831.4 391.366L1832.43 389.941L1829.96 403.182L1828.34 396.907L1829.94 398.627L1825.75 382.407H1826.36L1825.01 377L1821.8 387.199L1823.03 386.216L1819.95 398.627L1821.8 395.432L1820.42 402.607L1816.75 388.407H1817.36L1816.01 383L1812.8 393.199L1814.03 392.216L1810.95 404.627L1812.8 401.432L1810.82 411.734L1809.07 406.561L1810.51 407.86L1806.82 396.17H1807.62L1805.38 390L1803.33 395.921L1801.75 385.459H1802.57L1801.23 382L1795.56 397.666L1796.8 396.852L1794.48 406.443L1792.82 401.17H1793.62L1791.38 395L1787.85 405.229L1788.97 404.579L1787.75 409.395L1786.34 403.907L1787.94 405.627L1783.75 389.407H1784.36L1783.01 384L1779.8 394.199L1781.03 393.216L1777.95 405.627L1779.8 402.432L1778.16 410.961L1776.34 403.907L1777.94 405.627L1773.75 389.407H1774.36L1773.01 384L1769.8 394.199L1771.03 393.216L1767.95 405.627L1769.8 402.432L1767.46 414.618L1765.07 407.561L1766.51 408.86L1762.82 397.17H1763.62L1761.38 391L1757.85 401.229L1758.97 400.579L1757.21 407.561L1758.33 406.262L1757.16 411.109L1754.2 398.852L1755.44 399.666L1749.77 384L1748.43 387.459H1749.25L1747.4 399.666L1748.43 398.852L1747.4 417.366L1748.43 415.941L1747.35 421.744L1745.2 412.852L1746.44 413.666L1740.77 398L1739.43 401.459H1740.25L1738.4 413.666L1739.43 412.852L1739.16 417.623L1735.75 404.407H1736.36L1735.01 399L1731.8 409.199L1733.03 408.216L1729.95 420.627L1731.8 417.432L1727.76 438.449L1725.2 427.852L1726.44 428.666L1720.77 413L1719.43 416.459H1720.25L1718.4 428.666L1719.43 427.852L1718.58 443.165L1714.9 431.572H1715.89L1713.11 424L1708.75 436.554L1710.14 435.756L1707.96 444.325L1709.35 442.731L1707.37 450.853L1705.2 441.852L1706.44 442.666L1700.77 427L1699.43 430.459H1700.25L1698.4 442.666L1699.43 441.852L1698.4 460.366L1699.43 458.941L1697.92 467.006L1694.82 457.17H1695.62L1693.38 451L1689.85 461.229L1690.97 460.579L1689.21 467.561L1690.33 466.262L1688.47 473.972L1687.57 457.852L1688.6 458.666L1686.75 446.459H1687.57L1686.23 443L1680.56 458.666L1681.8 457.852L1677.06 477.484L1678.5 476.366L1677.72 480.127L1675.34 470.907L1676.94 472.627L1672.75 456.407H1673.36L1672.01 451L1668.8 461.199L1670.03 460.216L1666.95 472.627L1668.8 469.432L1665.37 487.255L1662.82 479.17H1663.62L1661.38 473L1657.85 483.229L1658.97 482.579L1657.21 489.561L1658.33 488.262L1656.68 495.107L1654.2 484.852L1655.44 485.666L1649.77 470L1648.43 473.459H1649.25L1647.4 485.666L1648.43 484.852L1647.4 503.366L1648.43 501.941L1647.24 508.292L1645.34 500.907L1646.94 502.627L1642.75 486.407H1643.36L1642.01 481L1638.8 491.199L1640.03 490.216L1636.95 502.627L1638.8 499.432L1636.33 512.284L1632.82 501.17H1633.62L1631.38 495L1627.85 505.229L1628.97 504.579L1627.21 511.561L1628.33 510.262L1624.64 525.524L1626.08 524.225L1625.47 528.571L1622.82 520.17H1623.62L1621.38 514L1617.85 524.229L1618.97 523.579L1617.21 530.561L1618.33 529.262L1615.48 541.035L1610.77 528L1609.43 531.459H1610.25L1608.4 543.666L1609.43 542.852L1608.4 561.366L1609.43 559.941L1608.83 563.179L1604.75 547.407H1605.36L1604.01 542L1600.8 552.199L1602.03 551.216L1598.95 563.627L1600.8 560.432L1596.36 583.534L1597.59 582.182L1596.9 586.93L1594.07 578.561L1595.51 579.86L1591.82 568.17H1592.62L1590.38 562L1586.85 572.229L1587.97 571.579L1586.21 578.561L1587.33 577.262L1583.77 591.978L1579.75 576.407H1580.36L1579.01 571L1575.8 581.199L1577.03 580.216L1573.95 592.627L1575.8 589.432L1572.49 606.631L1568.2 588.852L1569.44 589.666L1563.77 574L1562.43 577.459H1563.25L1561.4 589.666L1562.43 588.852L1561.4 607.366L1562.43 605.941L1559.25 622.962L1555.75 609.407H1556.36L1555.01 604L1551.8 614.199L1553.03 613.216L1551.78 618.26L1550.75 611.459H1551.57L1550.23 608L1544.56 623.666L1545.8 622.852L1543 634.456L1541.38 630L1537.85 640.229L1538.97 639.579L1537.21 646.561L1538.33 645.262L1537.4 649.109L1534.2 635.852L1535.44 636.666L1529.77 621L1528.43 624.459H1529.25L1527.4 636.666L1528.43 635.852L1527.4 654.366L1528.43 652.941L1525.98 666.066L1524.99 660.203L1526.13 660.712L1522.39 646.475L1523.74 647.898L1520.21 634.475H1520.73L1519.58 630L1516.88 638.441L1517.92 637.627L1515.32 647.898L1516.88 645.254L1514.04 659.771L1510.2 643.852L1511.44 644.666L1505.77 629L1504.43 632.459H1505.25L1503.4 644.666L1504.43 643.852L1503.4 662.366L1504.43 660.941L1502.38 671.928L1500.04 662.847L1501.47 664.39L1497.72 649.847H1498.27L1497.06 645L1494.19 654.144L1495.29 653.263L1492.53 664.39L1494.19 661.525L1492.22 671.777L1489.82 664.17H1490.62L1488.38 658L1485.54 666.239L1483.75 654.459H1484.57L1483.23 651L1477.56 666.666L1478.8 665.852L1475.5 679.522L1472.2 665.852L1473.44 666.666L1467.77 651L1466.43 654.459H1467.25L1465.4 666.666L1466.43 665.852L1465.4 684.366L1466.43 682.941L1463.82 696.897L1462.8 690.72L1464.01 691.271L1460.04 675.847L1461.47 677.39L1457.72 662.847H1458.27L1457.06 658L1454.19 667.144L1455.29 666.263L1452.53 677.39L1454.19 674.525L1450.21 695.237L1451.32 694.025L1450.45 700.011L1448.38 700.453L1447.07 696.561L1448.51 697.86L1444.82 686.17H1445.62L1443.38 680L1439.85 690.229L1440.97 689.579L1439.21 696.561L1440.33 695.262L1437.95 705.106L1436.2 697.852L1437.44 698.666L1431.77 683L1430.43 686.459H1431.25L1429.4 698.666L1430.43 697.852L1429.4 716.366L1430.43 714.941L1429.78 718.409L1428.2 711.852L1429.44 712.666L1423.77 697L1422.43 700.459H1423.25L1421.4 712.666L1422.43 711.852L1421.43 729.844L1420.47 731.072L1419.57 714.852L1420.6 715.666L1418.75 703.459H1419.57L1418.23 700L1412.56 715.666L1413.8 714.852L1409.06 734.484L1410.5 733.366L1409.04 740.373L1405.82 730.17H1406.62L1404.38 724L1400.85 734.229L1401.97 733.579L1400.21 740.561L1401.33 739.262L1398.7 750.16L1396.04 739.847L1397.47 741.39L1393.72 726.847H1394.27L1393.06 722L1390.19 731.144L1391.29 730.263L1388.53 741.39L1390.19 738.525L1387.6 751.992L1384.82 743.17H1385.62L1383.38 737L1379.85 747.229L1380.97 746.579L1380.26 749.391L1378.2 740.852L1379.44 741.666L1373.77 726L1372.43 729.459H1373.25L1371.4 741.666L1372.43 740.852L1371.4 759.366L1372.43 757.941L1370.91 766.098L1369.04 758.847L1370.47 760.39L1366.72 745.847H1367.27L1366.06 741L1363.19 750.144L1364.29 749.263L1361.53 760.39L1363.19 757.525L1360.86 769.67L1357.04 754.847L1358.47 756.39L1354.72 741.847H1355.27L1354.06 737L1351.19 746.144L1352.29 745.263L1349.53 756.39L1351.19 753.525L1347.48 772.839L1346.8 768.72L1348.01 769.271L1344.04 753.847L1345.47 755.39L1341.72 740.847H1342.27L1341.06 736L1338.19 745.144L1339.29 744.263L1336.53 755.39L1338.19 752.525L1334.21 773.237L1335.32 772.025L1334.77 775.819L1301 802.5L1294 831L1271 832.5L1266 847ZM1841.96 388.442L1842.43 385.941L1841.63 387.051L1841.96 388.442ZM1858.38 376.611L1858.59 375.182L1858.18 375.633L1858.38 376.611ZM1857.84 374.015L1858.07 372.812L1857.5 372.366L1857.84 374.015ZM1718.47 445.043L1718.4 446.366L1719.01 445.523L1719.28 445.762L1718.88 447.88L1717.67 444.325L1718.47 445.043ZM1728.34 440.877L1728.59 439.182L1728.07 439.75L1728.34 440.877ZM1719.32 445.512L1719.23 445.218L1719.43 444.941L1719.32 445.512ZM1739.05 419.672L1738.96 421.315L1738.34 418.907L1739.05 419.672ZM1697.71 468.142L1697.07 467.561L1697.55 468.997L1697.71 468.142ZM1608.78 563.449L1607.34 561.907L1608.34 565.785L1608.78 563.449ZM1615.79 545.303L1616.06 543.416L1615.95 543.346L1615.43 543.813L1615.79 545.303ZM1571.5 607.366L1572.24 607.942L1571.94 609.495L1571.5 607.366ZM1572.47 612.022L1572.35 611.447L1572.59 611.182L1572.47 612.022ZM1559.69 625.36L1559.24 627.402L1558.34 623.907L1559.69 625.36ZM1560.16 623.234L1559.78 624.986L1559.47 623.796L1560.16 623.234ZM1513.5 662.366L1513.53 662.392L1513.52 662.461L1513.5 662.366ZM1513.97 664.654L1513.77 663.693L1514.18 663.254L1513.97 664.654ZM1475.5 684.38L1475.5 684.37L1475.5 684.368L1475.5 684.37L1475.5 684.38ZM1802.77 400.391L1802.97 399.579L1802.73 399.72L1802.77 400.391ZM1802.63 397.961L1802.92 397.127L1802.57 396.852L1802.63 397.961ZM1687.57 474.941L1688.07 475.628L1687.86 476.488L1687.57 474.941ZM1551.6 623.45L1551.7 622.953L1551.57 622.852L1551.6 623.45ZM1484.57 665.852L1485.43 666.534L1484.85 668.229L1485.97 667.579L1484.9 671.814L1484.57 665.852ZM1485.05 674.433L1485 673.64L1485.33 673.262L1485.05 674.433ZM1408.85 741.269L1408.07 740.561L1408.64 742.27L1408.85 741.269ZM1419.61 732.175L1419.68 732.092L1419.57 731.941L1419.61 732.175ZM1788.06 410.575L1788.16 410.966L1788.33 410.262L1788.06 410.575ZM1766.51 418.114L1766.77 418.201L1766.67 418.713L1766.51 418.114ZM1635.07 511.561L1636.26 512.636L1635.96 514.199L1635.07 511.561ZM1625.18 530.661L1625.15 530.821L1625.07 530.561L1625.18 530.661ZM1595.51 589.114L1596.53 589.46L1596.2 591.724L1595.51 589.114ZM1585.08 591.225L1584.14 597.9L1582.34 590.907L1583.68 592.35L1583.64 592.524L1583.75 592.424L1583.94 592.627L1583.86 592.324L1585.08 591.225ZM1398.87 754.752L1398.84 754.965L1398.8 754.72L1398.87 754.752ZM1387.22 754.008L1387.27 753.743L1387.07 753.561L1387.22 754.008ZM1888.34 354.907L1889.38 356.023L1889.06 357.693L1888.34 354.907ZM1901.04 355.376L1901.8 351.432L1900.57 353.553L1901.04 355.376ZM1912.2 367.868L1911.75 366.108L1912.59 365.182L1912.2 367.868ZM1911.42 369.496L1911.93 369.726L1911.71 371.233L1911.42 369.496ZM1820.19 403.817L1819.92 405.18L1819.34 402.907L1820.19 403.817ZM1360.76 770.158L1360.29 772.653L1359.8 769.72L1360.76 770.158ZM1347.64 773.773L1347.83 774.931L1348.02 775.065L1348.32 773.025L1347.64 773.773Z" fill="url(#paint2_linear)"/>
<path fill-rule="evenodd" clip-rule="evenodd" d="M-294 185L-165.867 271.905L-142.986 249.035L-1.86356 404.513L2.84906 391L6.15094 399.974H4.97171L7.37579 407.51L9.79999 397.383L8.20001 398.445L15.5333 378L17.2667 382.514H16.2L18.6 398.445L17.2667 397.383L18.1631 413.628L19.2642 409.232L18.0755 409.926L21.8113 399L24.1887 405.59H23.3396L27.2453 418.077L25.717 416.69L28.5424 425.107L30.2642 418.232L29.0755 418.926L32.8113 408L35.1887 414.59H34.3396L38.2453 427.077L36.717 425.69L40.7924 437.83L38.2453 436.963L40.8544 446.861L42.2642 441.232L41.0755 441.926L44.8113 431L47.1887 437.59H46.3396L50.2453 450.077L48.717 448.69L51.2468 456.226L54.513 443.123L53.0195 444.309L56.9026 432L58.5455 438.525H57.7987L62.8766 458.102L60.9351 456.025L65.2358 472.634L67 465.369L65.5455 466.321L72.2121 448L73.7879 452.045H72.8182L75 466.321L73.7879 465.369L74.1922 472.592L76.9026 464L78.5455 470.525H77.7987L82.8766 490.102L80.9351 488.025L86.3117 508.788L84.6688 508.047L86.0422 516.276L88.8 504.852L87.5636 505.666L93.2303 490L94.5697 493.459H93.7455L95.6 505.666L94.5697 504.852L95.1058 514.485L98.3773 505L100.623 511.17H99.8207L103.509 522.86L102.066 521.561L104.371 528.367L106.33 520.262L105.208 521.561L106.972 514.579L105.849 515.229L109.377 505L111.623 511.17H110.821L114.509 522.86L113.066 521.561L116.915 532.926L114.509 532.114L118.426 546.843L119.115 547.289L120.33 542.262L119.208 543.561L120.972 536.579L119.849 537.229L123.377 527L125.623 533.17H124.821L128.509 544.86L127.066 543.561L129.961 552.108L133.019 536.246L130.779 540.102L134.513 525.123L133.019 526.309L136.903 514L138.545 520.525H137.799L142.877 540.102L140.935 538.025L145.898 557.189L147.33 551.262L146.208 552.561L147.972 545.579L146.849 546.229L150.377 536L152.623 542.17H151.821L155.509 553.86L154.066 552.561L155.743 557.514L158.8 544.852L157.564 545.666L163.23 530L164.57 533.459H163.745L165.6 545.666L164.57 544.852L165.6 563.366L164.57 561.941L166.631 572.98L169.8 559.852L168.564 560.666L174.23 545L175.57 548.459H174.745L175.877 555.91L176.972 551.579L175.849 552.229L179.377 542L181.623 548.17H180.821L183.578 556.909L184.255 552.459H183.43L184.77 549L190.436 564.666L189.2 563.852L193.939 583.484L192.497 582.366L194.234 590.689L197.019 576.246L194.779 580.102L198.513 565.123L197.019 566.309L200.903 554L202.545 560.525H201.799L206.877 580.102L204.935 578.025L209.323 594.97L210.8 588.852L209.564 589.666L215.23 574L216.57 577.459H215.745L217.6 589.666L216.57 588.852L217.414 604.021L221.8 585.852L220.564 586.666L226.23 571L227.57 574.459H226.745L228.6 586.666L227.57 585.852L228.6 604.366L227.57 602.941L228.347 607.104L231.019 593.246L228.779 597.102L232.513 582.123L231.019 583.309L234.903 571L236.545 577.525H235.799L240.877 597.102L238.935 595.025L244.312 615.788L242.669 615.047L245.12 629.735L248.513 616.123L247.019 617.309L250.903 605L252.545 611.525H251.799L256.877 631.102L254.935 629.025L259.466 646.521L261.8 636.852L260.564 637.666L266.23 622L267.57 625.459H266.745L268.6 637.666L267.57 636.852L268.22 648.534L271.032 637.216L269.799 638.199L273.006 628L274.364 633.407H273.747L277.942 649.627L276.338 647.907L278.513 656.331L280.032 650.216L278.799 651.199L282.006 641L283.364 646.407H282.747L286.942 662.627L285.338 660.907L287.159 667.961L288.799 659.432L286.948 662.627L290.032 650.216L288.799 651.199L292.006 641L293.364 646.407H292.747L296.815 662.138L299.032 653.216L297.799 654.199L301.006 644L302.364 649.407H301.747L305.942 665.627L304.338 663.907L308.779 681.11L307.422 680.496L310.428 698.562L311.799 691.432L309.948 694.627L313.032 682.216L311.799 683.199L315.006 673L316.364 678.407H315.747L319.942 694.627L318.338 692.907L321.402 704.776L323.032 698.216L321.799 699.199L325.006 689L326.364 694.407H325.747L329.492 708.889L332.877 710.413L335.33 700.262L334.208 701.561L335.972 694.579L334.849 695.229L338.377 685L340.623 691.17H339.821L343.509 702.86L342.066 701.561L344.451 708.603L347.032 698.216L345.799 699.199L349.006 689L350.364 694.407H349.747L353.942 710.627L352.338 708.907L355.338 720.528L356.017 720.834L358.33 711.262L357.208 712.561L358.972 705.579L357.849 706.229L361.377 696L363.623 702.17H362.821L366.302 713.203L369.032 702.216L367.799 703.199L371.006 693L372.364 698.407H371.747L375.942 714.627L374.338 712.907L378.744 729.973L380.43 720.941L379.4 722.365L380.43 703.852L379.4 704.666L381.255 692.459H380.43L381.77 689L387.436 704.666L386.2 703.852L390.939 723.484L389.497 722.365L390.509 727.213L392.222 725.816L396.8 706.852L395.564 707.666L401.23 692L402.57 695.459H401.745L403.6 707.666L402.57 706.852L403.13 716.921L407.404 713.436L408.43 707.941L407.4 709.365L408.43 690.852L407.4 691.666L409.255 679.459H408.43L409.77 676L415.436 691.666L414.2 690.852L418.939 710.484L417.497 709.365L419.442 718.683L421.819 721.73L423.799 711.432L421.948 714.627L425.032 702.216L423.799 703.199L427.006 693L428.364 698.407H427.747L431.942 714.627L430.338 712.907L434.42 728.719L435.972 722.579L434.849 723.229L438.377 713L440.623 719.17H439.821L443.509 730.86L442.066 729.561L445.318 739.164L445.972 736.579L444.849 737.229L448.377 727L450.623 733.17H449.821L453.509 744.86L452.066 743.561L454.456 750.618L456.799 738.432L454.948 741.627L458.032 729.216L456.799 730.199L460.006 720L461.364 725.407H460.747L464.942 741.627L463.338 739.907L464.866 745.828L470.23 731L471.57 734.459H470.745L472.6 746.666L471.57 745.852L472.6 764.365L471.57 762.941L474.26 777.352L475.972 770.579L474.849 771.229L478.377 761L480.623 767.17H479.821L483.509 778.86L482.066 777.561L485.538 787.814L488.33 776.262L487.208 777.561L488.972 770.579L487.849 771.229L491.377 761L493.623 767.17H492.821L496.509 778.86L495.066 777.561L498.825 788.66L499.112 788.608L502.799 769.432L500.948 772.627L504.032 760.216L502.799 761.199L506.006 751L507.364 756.407H506.747L510.942 772.627L509.338 770.907L513.251 786.065L515.224 785.71L593.782 832.211L617.425 861.18L712 881H-294V185ZM51.3123 463.099L50.9734 462.725L50.2453 459.963L51.814 460.497L51.3123 463.099ZM-0.862915 405.616L-1.21078 405.232L-0.68869 404.934L-0.862915 405.616ZM496.754 789.033L498.369 788.742L496.509 788.114L496.754 789.033ZM485.98 790.971L486.085 790.225L485.075 791.134L485.98 790.971ZM484.72 791.198L484.347 791.265L483.509 788.114L485.318 788.725L484.72 791.198ZM378.555 730.983L378.723 730.085L377.422 729.496L377.598 730.552L378.555 730.983ZM344.814 712.555L344.316 715.146L343.509 712.114L344.814 712.555ZM345.799 707.432L345.167 710.717L344.698 709.332L345.799 707.432ZM74.3416 475.259L74.3668 475.709L74.513 475.123L74.3416 475.259ZM18.2755 415.664L18.3172 416.42L18.5849 415.303L18.2755 415.664ZM17.4676 419.966L17.2667 419.686L17.3835 420.317L17.4676 419.966ZM53.0195 454.246L52.1302 458.857L51.4746 456.905L53.0195 454.246ZM41.1154 447.851L41.2926 448.523L41.5849 447.303L41.1154 447.851ZM28.5977 428.423L28.0115 430.87L27.2453 427.963L28.5977 428.423ZM29.5849 424.303L29.0384 426.584L28.642 425.403L29.5849 424.303ZM95.2664 517.371L95.1379 515.062L95.9717 514.579L95.2664 517.371ZM94.5697 521.941L94.8355 522.309L94.7242 522.769L94.5697 521.941ZM474.612 779.234L474.283 777.473L475.33 776.262L474.612 779.234ZM473.836 780.234L474.283 780.595L474.092 781.387L473.836 780.234ZM465.352 747.708L465.007 746.374L465.8 745.852L465.352 747.708ZM444.955 740.602L443.509 740.114L444.314 743.14L444.955 740.602ZM444.375 743.368L444.735 744.724L445.33 742.262L444.375 743.368ZM434.539 729.178L434.779 730.11L433.422 729.496L434.078 733.441L435.33 728.262L434.539 729.178ZM453.509 754.114L453.767 754.201L453.669 754.713L453.509 754.114ZM366.509 713.86L366.433 713.791L365.948 714.627L366.207 713.587L365.066 712.561L366.671 717.299L367.799 711.432L366.468 713.729L366.509 713.86ZM176.178 557.89L176.12 557.505L176.33 557.262L176.178 557.89ZM175.57 559.852L175.683 559.941L175.595 560.304L175.57 559.852ZM183.246 559.094L183.296 558.768L183.066 558.561L183.246 559.094ZM217.6 607.366L217.477 605.161L218.503 604.366L217.327 609.999L216.57 605.941L217.6 607.366ZM268.484 653.273L268.251 649.103L269.799 646.432L268.484 653.273ZM267.57 653.941L268.19 654.799L267.957 656.013L267.57 653.941ZM258.669 649.047L258.838 649.123L258.745 649.505L258.669 649.047ZM296.746 662.417L295.338 660.907L296.246 664.427L296.746 662.417ZM296.369 664.901L296.916 667.021L297.799 662.432L296.369 664.901ZM245.779 633.681L247.019 627.246L245.221 630.341L245.779 633.681ZM144.669 558.047L145.086 560.547L145.59 558.462L144.669 558.047ZM104.085 534.225L104.08 534.26L104.073 534.235L104.085 534.225Z" fill="#5E304A"/>
<ellipse cx="422.659" cy="683.673" rx="4.20155" ry="4.32695" fill="#592E4A"/>
<ellipse cx="387.083" cy="683.385" rx="4.48166" ry="4.61541" fill="#592E4A"/>
<path fill-rule="evenodd" clip-rule="evenodd" d="M380.362 677.039L388.765 676.462C388.765 676.462 398.532 672.941 405.011 673.001C408.539 673.033 413.974 674.155 413.974 674.155L420.137 677.616C420.137 677.616 423.26 677.683 425.178 678.193C428.021 678.948 431.901 681.655 431.901 681.655C431.901 681.655 432.741 682.816 432.741 683.674C432.741 684.532 431.901 685.693 431.901 685.693C431.901 685.693 433.021 686.084 433.021 686.27C433.021 686.456 431.901 686.847 431.901 686.847H426.579C429.1 683.385 426.859 678.769 422.658 678.769C418.456 678.769 416.495 683.096 418.736 686.847H391.286C393.527 682.809 391.286 678.193 387.084 678.193C382.883 678.193 380.362 682.809 383.163 686.847H379.802C379.802 686.847 379.055 686.847 378.681 685.693L378.121 683.962C378.121 683.962 378.681 683.704 378.681 683.385C378.681 682.809 378.121 682.232 378.121 682.232C378.121 682.232 378.433 681.166 378.681 680.501C379.208 679.09 380.362 677.039 380.362 677.039ZM394.927 680.5C394.927 680.5 396.048 684.539 399.409 685.115L410.613 685.692C410.613 685.692 411.734 685.176 411.734 684.539C411.734 683.962 408.459 682.971 405.571 682.231C401.906 681.291 394.927 680.5 394.927 680.5ZM399.969 674.732L407.812 674.463C408.932 675.327 411.173 677.636 411.173 677.636L402.21 677.04C400.809 676.463 400.486 675.89 399.969 674.732ZM409.493 674.443L412.854 677.616H419.016L413.414 674.443H409.493Z" fill="#592E4A"/>
<path d="M377 675.307H381.482L382.602 676.46H378.12L377 675.307Z" fill="#592E4A"/>
<path d="M428 679.5L429 680L430 680.5V681H428V679.5Z" fill="white"/>
<path d="M428 680.946V679.757L458 675V686L428 680.946Z" fill="url(#paint3_linear)" fill-opacity="0.8"/>
<path d="M469 681.946V680.757L499 676V687L469 681.946Z" fill="url(#paint4_linear)" fill-opacity="0.8"/>
<path d="M662 680.946V679.757L692 675V686L662 680.946Z" fill="url(#paint5_linear)" fill-opacity="0.8"/>
<path d="M510 679.946V678.757L480 674V685L510 679.946Z" fill="url(#paint6_linear)" fill-opacity="0.8"/>
<path d="M553 678.946V677.757L523 673V684L553 678.946Z" fill="url(#paint7_linear)" fill-opacity="0.8"/>
<ellipse cx="888.659" cy="683.673" rx="4.20155" ry="4.32695" fill="#5D2F4A"/>
<ellipse cx="853.083" cy="683.385" rx="4.48166" ry="4.61541" fill="#5D2F4A"/>
<path fill-rule="evenodd" clip-rule="evenodd" d="M846.362 677.039L854.765 676.462C854.765 676.462 864.532 672.941 871.011 673.001C874.539 673.033 879.974 674.155 879.974 674.155L886.137 677.616C886.137 677.616 889.26 677.683 891.178 678.193C894.021 678.948 897.901 681.655 897.901 681.655C897.901 681.655 898.741 682.816 898.741 683.674C898.741 684.532 897.901 685.693 897.901 685.693C897.901 685.693 899.021 686.084 899.021 686.27C899.021 686.456 897.901 686.847 897.901 686.847H892.579C895.1 683.385 892.859 678.769 888.658 678.769C884.456 678.769 882.495 683.096 884.736 686.847H857.286C859.527 682.809 857.286 678.193 853.084 678.193C848.883 678.193 846.362 682.809 849.163 686.847H845.802C845.802 686.847 845.055 686.847 844.681 685.693L844.121 683.962C844.121 683.962 844.681 683.704 844.681 683.385C844.681 682.809 844.121 682.232 844.121 682.232C844.121 682.232 844.433 681.166 844.681 680.501C845.208 679.09 846.362 677.039 846.362 677.039ZM860.927 680.5C860.927 680.5 862.048 684.539 865.409 685.115L876.613 685.692C876.613 685.692 877.734 685.176 877.734 684.539C877.734 683.962 874.459 682.971 871.571 682.231C867.906 681.291 860.927 680.5 860.927 680.5ZM865.969 674.732L873.812 674.463C874.932 675.327 877.173 677.636 877.173 677.636L868.21 677.04C866.809 676.463 866.486 675.89 865.969 674.732ZM875.493 674.443L878.854 677.616H885.016L879.414 674.443H875.493Z" fill="#5D2F4A"/>
<path d="M843 675.307H847.482L848.602 676.46H844.12L843 675.307Z" fill="#5D2F4A"/>
<path fill-rule="evenodd" clip-rule="evenodd" d="M471 686.4H464.28C464.76 684.48 463.8 681.6 460.44 681.6C457.08 681.6 456.12 684.48 456.6 686.4H432.6C433.08 684.48 432.12 681.6 428.76 681.6C425.4 681.6 424.44 684.48 424.92 686.4H423C423 682.56 425.4 679.68 428.76 679.68C428.76 676.32 431.16 672 435 672H454.2L459 678.72H465.24C468.12 678.72 471 681.12 471 683.52V686.4ZM444.688 673.404C444.763 673.404 452.501 673.44 452.501 673.44L456.12 678.72L444.688 678.684C444.538 678.684 444.393 678.569 444.286 678.472C444.18 678.375 444.12 678.244 444.12 678.107V673.92C444.12 673.852 444.135 673.785 444.163 673.722C444.192 673.66 444.234 673.603 444.286 673.555C444.339 673.507 444.402 673.469 444.471 673.443C444.54 673.417 444.614 673.404 444.688 673.404ZM435.571 673.44H442.049C442.216 673.44 442.377 673.504 442.495 673.617C442.613 673.73 442.68 673.883 442.68 674.043V678.117C442.68 678.277 442.613 678.43 442.495 678.543C442.377 678.656 442.216 678.72 442.049 678.72L431.311 678.72C431.143 678.72 430.983 678.656 430.865 678.543C430.746 678.43 430.68 678.277 430.68 678.117C430.68 676.877 431.195 675.687 432.113 674.81C433.03 673.933 434.274 673.44 435.571 673.44Z" fill="#592E4A"/>
<circle r="3.36001" transform="matrix(-1 0 0 1 460.441 685.44)" fill="#592E4A"/>
<circle r="3.36001" transform="matrix(-1 0 0 1 428.761 685.44)" fill="#592E4A"/>
<path d="M581.742 688.001C579.733 688.001 578.104 686.44 578.104 684.516C578.104 682.591 579.733 681.031 581.742 681.031C583.75 681.031 585.379 682.591 585.379 684.516C585.379 686.44 583.75 688.001 581.742 688.001Z" fill="#592E4A"/>
<path d="M554.524 687.976C552.522 687.976 550.9 686.421 550.9 684.504C550.9 682.586 552.522 681.031 554.524 681.031C556.526 681.031 558.148 682.586 558.148 684.504C558.148 686.421 556.526 687.976 554.524 687.976Z" fill="#592E4A"/>
<path d="M562.102 680.149C562.102 681.355 563.122 682.333 564.381 682.333C565.64 682.333 566.661 681.355 566.661 680.149C566.661 678.943 565.64 677.965 564.381 677.965C563.122 677.965 562.102 678.943 562.102 680.149Z" fill="#592E4A"/>
<path fill-rule="evenodd" clip-rule="evenodd" d="M563.46 667H587.224V677.535C587.224 678.648 586.934 679.732 586.394 680.694C587.419 681.774 587.992 683.18 588 684.642C588 684.74 587.997 684.837 587.992 684.935H586.584C586.59 684.838 586.593 684.74 586.593 684.642C586.594 684.616 586.594 684.589 586.593 684.563H586.642C586.63 683.351 586.124 682.193 585.234 681.341C584.344 680.488 583.142 680.01 581.889 680.01C580.636 680.01 579.434 680.488 578.544 681.341C577.746 682.106 577.256 683.116 577.155 684.191H577.099C577.085 684.341 577.078 684.491 577.08 684.642C577.08 684.74 577.083 684.838 577.09 684.935H559.334C559.341 684.829 559.345 684.722 559.345 684.614L559.345 684.6C559.346 684.588 559.346 684.575 559.346 684.563H559.386C559.374 683.351 558.868 682.193 557.978 681.341C557.088 680.488 555.886 680.01 554.633 680.01C553.38 680.01 552.178 680.488 551.288 681.341C550.489 682.106 550 683.116 549.899 684.191H549.848C549.836 684.332 549.83 684.473 549.832 684.614C549.832 684.722 549.835 684.829 549.843 684.935H548.434C548.428 684.829 548.425 684.722 548.425 684.614C548.425 684.264 548.458 683.914 548.522 683.57V681.719C548.522 681.094 548.65 680.476 548.899 679.899C549.148 679.322 549.512 678.798 549.972 678.357C550.432 677.915 550.977 677.565 551.578 677.326C552.178 677.087 552.822 676.965 553.472 676.965H561.883C561.883 676.713 561.988 676.471 562.173 676.292C562.359 676.114 562.61 676.014 562.873 676.014L563.492 676.014V668.328H562.102C562.102 668.319 562.102 668.31 562.102 668.301H562.102C562.102 667.582 562.71 667 563.46 667ZM564.43 683.355C562.555 683.355 561.035 681.899 561.035 680.102C561.035 678.306 562.555 676.85 564.43 676.85C566.305 676.85 567.825 678.306 567.825 680.102C567.825 681.899 566.305 683.355 564.43 683.355ZM573.59 670.012H564.856V675.032H573.59V670.012ZM582.585 670.012C584.032 670.012 585.205 671.136 585.205 672.522C585.205 673.908 584.032 675.032 582.585 675.032H576.472V670.012H582.585Z" fill="#592E4A"/>
<path fill-rule="evenodd" clip-rule="evenodd" d="M550.023 679.498L546.968 678.383V681.914L550.023 680.799V679.498ZM545.997 679.4C545.997 678.864 546.432 678.43 546.967 678.43V681.868C546.432 681.868 545.997 681.434 545.997 680.898V679.4Z" fill="#592E4A"/>
<circle cx="517.263" cy="684.62" r="3.58308" fill="#592E4A"/>
<circle cx="546.72" cy="684.62" r="3.58308" fill="#592E4A"/>
<path fill-rule="evenodd" clip-rule="evenodd" d="M509.961 681.302C509.961 681.302 509.43 680.108 509.696 678.383C511.819 676.525 522.966 676.259 522.966 676.259C522.966 676.259 526.152 673.207 528.54 671.747C534.114 670.818 538.228 670.686 545.261 671.747C548.579 673.473 550.57 674.667 553.489 676.525C555.878 677.056 557.47 678.383 557.47 678.383V682.098H558.001V682.895H557.205L556.674 683.691L551.499 684.62C551.499 684.62 550.436 680.506 546.588 680.506C542.74 680.506 542.076 685.549 542.076 685.549H522.17C522.17 685.549 522.171 679.975 517.128 679.975C512.882 679.975 512.615 684.222 512.615 684.222C512.615 684.222 511.554 684.078 511.023 683.691C510.419 683.251 509.961 682.098 509.961 682.098H509.165C508.945 681.879 508.945 681.522 509.165 681.302H509.961ZM535.432 672.259C531.717 672.273 529.86 672.545 529.86 672.545L525.364 676.941L534.919 676.906L535.432 672.259ZM536.237 676.923L536.503 672.278C536.503 672.278 540.351 672.278 542.607 672.543L542.602 672.6L542.613 672.544C542.613 672.544 543.587 672.844 544.077 673.181C544.55 673.507 545.24 674.095 545.24 674.095C545.24 674.095 546.403 675.01 546.383 675.592C546.358 676.303 546.383 676.657 546.383 676.657L542.209 676.923H536.237Z" fill="#592E4A"/>
<path fill-rule="evenodd" clip-rule="evenodd" d="M786 685.4H792.72C792.24 683.48 793.2 680.6 796.56 680.6C799.92 680.6 800.88 683.48 800.4 685.4H824.4C823.92 683.48 824.88 680.6 828.24 680.6C831.6 680.6 832.56 683.48 832.08 685.4H834C834 681.56 831.6 678.68 828.24 678.68C828.24 675.32 825.84 671 822 671H802.8L798 677.72H791.76C788.88 677.72 786 680.12 786 682.52V685.4ZM812.312 672.404C812.237 672.404 804.499 672.44 804.499 672.44L800.88 677.72L812.312 677.684C812.462 677.684 812.607 677.569 812.714 677.472C812.82 677.375 812.88 677.244 812.88 677.107V672.92C812.88 672.852 812.865 672.785 812.837 672.722C812.808 672.66 812.766 672.603 812.714 672.555C812.661 672.507 812.598 672.469 812.529 672.443C812.46 672.417 812.386 672.404 812.312 672.404ZM821.429 672.44H814.951C814.784 672.44 814.623 672.504 814.505 672.617C814.387 672.73 814.32 672.883 814.32 673.043V677.117C814.32 677.277 814.387 677.43 814.505 677.543C814.623 677.656 814.784 677.72 814.951 677.72L825.689 677.72C825.857 677.72 826.017 677.656 826.135 677.543C826.254 677.43 826.32 677.277 826.32 677.117C826.32 675.877 825.805 674.687 824.887 673.81C823.97 672.933 822.726 672.44 821.429 672.44Z" fill="#592E4A"/>
<circle cx="796.559" cy="684.44" r="3.36001" fill="#592E4A"/>
<circle cx="828.239" cy="684.44" r="3.36001" fill="#592E4A"/>
<path d="M1361 680.108V678.486L1391 672V687L1361 680.108Z" fill="url(#paint8_linear)" fill-opacity="0.8"/>
<path d="M627.258 688.001C629.267 688.001 630.896 686.44 630.896 684.516C630.896 682.591 629.267 681.031 627.258 681.031C625.25 681.031 623.621 682.591 623.621 684.516C623.621 686.44 625.25 688.001 627.258 688.001Z" fill="#592E4A"/>
<path d="M654.476 687.976C656.478 687.976 658.1 686.421 658.1 684.504C658.1 682.586 656.478 681.031 654.476 681.031C652.474 681.031 650.852 682.586 650.852 684.504C650.852 686.421 652.474 687.976 654.476 687.976Z" fill="#592E4A"/>
<path d="M646.898 680.149C646.898 681.355 645.878 682.333 644.619 682.333C643.36 682.333 642.339 681.355 642.339 680.149C642.339 678.943 643.36 677.965 644.619 677.965C645.878 677.965 646.898 678.943 646.898 680.149Z" fill="#592E4A"/>
<path fill-rule="evenodd" clip-rule="evenodd" d="M645.54 667H621.776V677.535C621.776 678.648 622.066 679.732 622.606 680.694C621.581 681.774 621.008 683.18 621 684.642C621 684.74 621.003 684.837 621.008 684.935H622.416C622.41 684.838 622.407 684.74 622.407 684.642C622.406 684.616 622.406 684.589 622.407 684.563H622.358C622.37 683.351 622.876 682.193 623.766 681.341C624.656 680.488 625.858 680.01 627.111 680.01C628.364 680.01 629.566 680.488 630.456 681.341C631.254 682.106 631.744 683.116 631.845 684.191H631.901C631.915 684.341 631.922 684.491 631.92 684.642C631.92 684.74 631.917 684.838 631.91 684.935H649.666C649.659 684.829 649.655 684.722 649.655 684.614L649.655 684.6C649.654 684.588 649.654 684.575 649.654 684.563H649.614C649.626 683.351 650.132 682.193 651.022 681.341C651.912 680.488 653.114 680.01 654.367 680.01C655.62 680.01 656.822 680.488 657.712 681.341C658.511 682.106 659 683.116 659.101 684.191H659.152C659.164 684.332 659.17 684.473 659.168 684.614C659.168 684.722 659.165 684.829 659.157 684.935H660.566C660.572 684.829 660.575 684.722 660.575 684.614C660.575 684.264 660.542 683.914 660.478 683.57V681.719C660.478 681.094 660.35 680.476 660.101 679.899C659.852 679.322 659.488 678.798 659.028 678.357C658.568 677.915 658.023 677.565 657.422 677.326C656.822 677.087 656.178 676.965 655.528 676.965H647.117C647.117 676.713 647.012 676.471 646.827 676.292C646.641 676.114 646.39 676.014 646.127 676.014L645.508 676.014V668.328H646.898C646.898 668.319 646.898 668.31 646.898 668.301H646.898C646.898 667.582 646.29 667 645.54 667ZM644.57 683.355C646.445 683.355 647.965 681.899 647.965 680.102C647.965 678.306 646.445 676.85 644.57 676.85C642.695 676.85 641.175 678.306 641.175 680.102C641.175 681.899 642.695 683.355 644.57 683.355ZM635.41 670.012H644.144V675.032H635.41V670.012ZM626.415 670.012C624.968 670.012 623.795 671.136 623.795 672.522C623.795 673.908 624.968 675.032 626.415 675.032H632.528V670.012H626.415Z" fill="#592E4A"/>
<path fill-rule="evenodd" clip-rule="evenodd" d="M658.977 679.498L662.032 678.383V681.914L658.977 680.799V679.498ZM663.003 679.4C663.003 678.864 662.568 678.43 662.033 678.43V681.868C662.568 681.868 663.003 681.434 663.003 680.898V679.4Z" fill="#592E4A"/>
<path d="M966.258 688.001C968.267 688.001 969.896 686.44 969.896 684.516C969.896 682.591 968.267 681.031 966.258 681.031C964.25 681.031 962.621 682.591 962.621 684.516C962.621 686.44 964.25 688.001 966.258 688.001Z" fill="#592E4A"/>
<path d="M993.476 687.976C995.478 687.976 997.1 686.421 997.1 684.504C997.1 682.586 995.478 681.031 993.476 681.031C991.474 681.031 989.852 682.586 989.852 684.504C989.852 686.421 991.474 687.976 993.476 687.976Z" fill="#592E4A"/>
<path d="M985.898 680.149C985.898 681.355 984.878 682.333 983.619 682.333C982.36 682.333 981.339 681.355 981.339 680.149C981.339 678.943 982.36 677.965 983.619 677.965C984.878 677.965 985.898 678.943 985.898 680.149Z" fill="#592E4A"/>
<path fill-rule="evenodd" clip-rule="evenodd" d="M984.54 667H960.776V677.535C960.776 678.648 961.066 679.732 961.606 680.694C960.581 681.774 960.008 683.18 960 684.642C960 684.74 960.003 684.837 960.008 684.935H961.416C961.41 684.838 961.407 684.74 961.407 684.642C961.406 684.616 961.406 684.589 961.407 684.563H961.358C961.37 683.351 961.876 682.193 962.766 681.341C963.656 680.488 964.858 680.01 966.111 680.01C967.364 680.01 968.566 680.488 969.456 681.341C970.254 682.106 970.744 683.116 970.845 684.191H970.901C970.915 684.341 970.922 684.491 970.92 684.642C970.92 684.74 970.917 684.838 970.91 684.935H988.666C988.659 684.829 988.655 684.722 988.655 684.614L988.655 684.6C988.654 684.588 988.654 684.575 988.654 684.563H988.614C988.626 683.351 989.132 682.193 990.022 681.341C990.912 680.488 992.114 680.01 993.367 680.01C994.62 680.01 995.822 680.488 996.712 681.341C997.511 682.106 998 683.116 998.101 684.191H998.152C998.164 684.332 998.17 684.473 998.168 684.614C998.168 684.722 998.165 684.829 998.157 684.935H999.566C999.572 684.829 999.575 684.722 999.575 684.614C999.575 684.264 999.542 683.914 999.478 683.57V681.719C999.478 681.094 999.35 680.476 999.101 679.899C998.852 679.322 998.488 678.798 998.028 678.357C997.568 677.915 997.023 677.565 996.422 677.326C995.822 677.087 995.178 676.965 994.528 676.965H986.117C986.117 676.713 986.012 676.471 985.827 676.292C985.641 676.114 985.39 676.014 985.127 676.014L984.508 676.014V668.328H985.898C985.898 668.319 985.898 668.31 985.898 668.301H985.898C985.898 667.582 985.29 667 984.54 667ZM983.57 683.355C985.445 683.355 986.965 681.899 986.965 680.102C986.965 678.306 985.445 676.85 983.57 676.85C981.695 676.85 980.175 678.306 980.175 680.102C980.175 681.899 981.695 683.355 983.57 683.355ZM974.41 670.012H983.144V675.032H974.41V670.012ZM965.415 670.012C963.968 670.012 962.795 671.136 962.795 672.522C962.795 673.908 963.968 675.032 965.415 675.032H971.528V670.012H965.415Z" fill="#592E4A"/>
<path fill-rule="evenodd" clip-rule="evenodd" d="M997.977 679.498L1001.03 678.383V681.914L997.977 680.799V679.498ZM1002 679.4C1002 678.864 1001.57 678.43 1001.03 678.43V681.868C1001.57 681.868 1002 681.434 1002 680.898V679.4Z" fill="#592E4A"/>
<path d="M1255 680.946V679.757L1225 675V686L1255 680.946Z" fill="url(#paint9_linear)" fill-opacity="0.8"/>
<path d="M1442 679.946V678.757L1412 674V685L1442 679.946Z" fill="url(#paint10_linear)" fill-opacity="0.8"/>
<path d="M1289.74 688.001C1287.73 688.001 1286.1 686.44 1286.1 684.516C1286.1 682.591 1287.73 681.031 1289.74 681.031C1291.75 681.031 1293.38 682.591 1293.38 684.516C1293.38 686.44 1291.75 688.001 1289.74 688.001Z" fill="#592E4A"/>
<path d="M1262.52 687.976C1260.52 687.976 1258.9 686.421 1258.9 684.504C1258.9 682.586 1260.52 681.031 1262.52 681.031C1264.53 681.031 1266.15 682.586 1266.15 684.504C1266.15 686.421 1264.53 687.976 1262.52 687.976Z" fill="#592E4A"/>
<path d="M1270.1 680.149C1270.1 681.355 1271.12 682.333 1272.38 682.333C1273.64 682.333 1274.66 681.355 1274.66 680.149C1274.66 678.943 1273.64 677.965 1272.38 677.965C1271.12 677.965 1270.1 678.943 1270.1 680.149Z" fill="#592E4A"/>
<path fill-rule="evenodd" clip-rule="evenodd" d="M1271.46 667H1295.22V677.535C1295.22 678.648 1294.93 679.732 1294.39 680.694C1295.42 681.774 1295.99 683.18 1296 684.642C1296 684.74 1296 684.837 1295.99 684.935H1294.58C1294.59 684.838 1294.59 684.74 1294.59 684.642C1294.59 684.616 1294.59 684.589 1294.59 684.563H1294.64C1294.63 683.351 1294.12 682.193 1293.23 681.341C1292.34 680.488 1291.14 680.01 1289.89 680.01C1288.64 680.01 1287.43 680.488 1286.54 681.341C1285.75 682.106 1285.26 683.116 1285.16 684.191H1285.1C1285.08 684.341 1285.08 684.491 1285.08 684.642C1285.08 684.74 1285.08 684.838 1285.09 684.935H1267.33C1267.34 684.829 1267.35 684.722 1267.35 684.614L1267.35 684.6C1267.35 684.588 1267.35 684.575 1267.35 684.563H1267.39C1267.37 683.351 1266.87 682.193 1265.98 681.341C1265.09 680.488 1263.89 680.01 1262.63 680.01C1261.38 680.01 1260.18 680.488 1259.29 681.341C1258.49 682.106 1258 683.116 1257.9 684.191H1257.85C1257.84 684.332 1257.83 684.473 1257.83 684.614C1257.83 684.722 1257.84 684.829 1257.84 684.935H1256.43C1256.43 684.829 1256.43 684.722 1256.43 684.614C1256.43 684.264 1256.46 683.914 1256.52 683.57V681.719C1256.52 681.094 1256.65 680.476 1256.9 679.899C1257.15 679.322 1257.51 678.798 1257.97 678.357C1258.43 677.915 1258.98 677.565 1259.58 677.326C1260.18 677.087 1260.82 676.965 1261.47 676.965H1269.88C1269.88 676.713 1269.99 676.471 1270.17 676.292C1270.36 676.114 1270.61 676.014 1270.87 676.014L1271.49 676.014V668.328H1270.1C1270.1 668.319 1270.1 668.31 1270.1 668.301H1270.1C1270.1 667.582 1270.71 667 1271.46 667ZM1272.43 683.355C1270.55 683.355 1269.03 681.899 1269.03 680.102C1269.03 678.306 1270.55 676.85 1272.43 676.85C1274.3 676.85 1275.82 678.306 1275.82 680.102C1275.82 681.899 1274.3 683.355 1272.43 683.355ZM1281.59 670.012H1272.86V675.032H1281.59V670.012ZM1290.59 670.012C1292.03 670.012 1293.21 671.136 1293.21 672.522C1293.21 673.908 1292.03 675.032 1290.59 675.032H1284.47V670.012H1290.59Z" fill="#592E4A"/>
<path fill-rule="evenodd" clip-rule="evenodd" d="M1258.02 679.498L1254.97 678.383V681.914L1258.02 680.799V679.498ZM1254 679.4C1254 678.864 1254.43 678.43 1254.97 678.43V681.868C1254.43 681.868 1254 681.434 1254 680.898V679.4Z" fill="#592E4A"/>
<path d="M1333.26 688.001C1335.27 688.001 1336.9 686.44 1336.9 684.516C1336.9 682.591 1335.27 681.031 1333.26 681.031C1331.25 681.031 1329.62 682.591 1329.62 684.516C1329.62 686.44 1331.25 688.001 1333.26 688.001Z" fill="#592E4A"/>
<path d="M1360.48 687.976C1362.48 687.976 1364.1 686.421 1364.1 684.504C1364.1 682.586 1362.48 681.031 1360.48 681.031C1358.47 681.031 1356.85 682.586 1356.85 684.504C1356.85 686.421 1358.47 687.976 1360.48 687.976Z" fill="#592E4A"/>
<path d="M1352.9 680.149C1352.9 681.355 1351.88 682.333 1350.62 682.333C1349.36 682.333 1348.34 681.355 1348.34 680.149C1348.34 678.943 1349.36 677.965 1350.62 677.965C1351.88 677.965 1352.9 678.943 1352.9 680.149Z" fill="#592E4A"/>
<path fill-rule="evenodd" clip-rule="evenodd" d="M1351.54 667H1327.78V677.535C1327.78 678.648 1328.07 679.732 1328.61 680.694C1327.58 681.774 1327.01 683.18 1327 684.642C1327 684.74 1327 684.837 1327.01 684.935H1328.42C1328.41 684.838 1328.41 684.74 1328.41 684.642C1328.41 684.616 1328.41 684.589 1328.41 684.563H1328.36C1328.37 683.351 1328.88 682.193 1329.77 681.341C1330.66 680.488 1331.86 680.01 1333.11 680.01C1334.36 680.01 1335.57 680.488 1336.46 681.341C1337.25 682.106 1337.74 683.116 1337.84 684.191H1337.9C1337.92 684.341 1337.92 684.491 1337.92 684.642C1337.92 684.74 1337.92 684.838 1337.91 684.935H1355.67C1355.66 684.829 1355.65 684.722 1355.65 684.614L1355.65 684.6C1355.65 684.588 1355.65 684.575 1355.65 684.563H1355.61C1355.63 683.351 1356.13 682.193 1357.02 681.341C1357.91 680.488 1359.11 680.01 1360.37 680.01C1361.62 680.01 1362.82 680.488 1363.71 681.341C1364.51 682.106 1365 683.116 1365.1 684.191H1365.15C1365.16 684.332 1365.17 684.473 1365.17 684.614C1365.17 684.722 1365.16 684.829 1365.16 684.935H1366.57C1366.57 684.829 1366.57 684.722 1366.57 684.614C1366.57 684.264 1366.54 683.914 1366.48 683.57V681.719C1366.48 681.094 1366.35 680.476 1366.1 679.899C1365.85 679.322 1365.49 678.798 1365.03 678.357C1364.57 677.915 1364.02 677.565 1363.42 677.326C1362.82 677.087 1362.18 676.965 1361.53 676.965H1353.12C1353.12 676.713 1353.01 676.471 1352.83 676.292C1352.64 676.114 1352.39 676.014 1352.13 676.014L1351.51 676.014V668.328H1352.9C1352.9 668.319 1352.9 668.31 1352.9 668.301H1352.9C1352.9 667.582 1352.29 667 1351.54 667ZM1350.57 683.355C1352.45 683.355 1353.97 681.899 1353.97 680.102C1353.97 678.306 1352.45 676.85 1350.57 676.85C1348.7 676.85 1347.18 678.306 1347.18 680.102C1347.18 681.899 1348.7 683.355 1350.57 683.355ZM1341.41 670.012H1350.14V675.032H1341.41V670.012ZM1332.41 670.012C1330.97 670.012 1329.79 671.136 1329.79 672.522C1329.79 673.908 1330.97 675.032 1332.41 675.032H1338.53V670.012H1332.41Z" fill="#592E4A"/>
<path fill-rule="evenodd" clip-rule="evenodd" d="M1364.98 679.498L1368.03 678.383V681.914L1364.98 680.799V679.498ZM1369 679.4C1369 678.864 1368.57 678.43 1368.03 678.43V681.868C1368.57 681.868 1369 681.434 1369 680.898V679.4Z" fill="#592E4A"/>
<path fill-rule="evenodd" clip-rule="evenodd" d="M1347 685.4H1353.72C1353.24 683.48 1354.2 680.6 1357.56 680.6C1360.92 680.6 1361.88 683.48 1361.4 685.4H1385.4C1384.92 683.48 1385.88 680.6 1389.24 680.6C1392.6 680.6 1393.56 683.48 1393.08 685.4H1395C1395 681.56 1392.6 678.68 1389.24 678.68C1389.24 675.32 1386.84 671 1383 671H1363.8L1359 677.72H1352.76C1349.88 677.72 1347 680.12 1347 682.52V685.4ZM1373.31 672.404C1373.24 672.404 1365.5 672.44 1365.5 672.44L1361.88 677.72L1373.31 677.684C1373.46 677.684 1373.61 677.569 1373.71 677.472C1373.82 677.375 1373.88 677.244 1373.88 677.107V672.92C1373.88 672.852 1373.87 672.785 1373.84 672.722C1373.81 672.66 1373.77 672.603 1373.71 672.555C1373.66 672.507 1373.6 672.469 1373.53 672.443C1373.46 672.417 1373.39 672.404 1373.31 672.404ZM1382.43 672.44H1375.95C1375.78 672.44 1375.62 672.504 1375.5 672.617C1375.39 672.73 1375.32 672.883 1375.32 673.043V677.117C1375.32 677.277 1375.39 677.43 1375.5 677.543C1375.62 677.656 1375.78 677.72 1375.95 677.72L1386.69 677.72C1386.86 677.72 1387.02 677.656 1387.14 677.543C1387.25 677.43 1387.32 677.277 1387.32 677.117C1387.32 675.877 1386.8 674.687 1385.89 673.81C1384.97 672.933 1383.73 672.44 1382.43 672.44Z" fill="#592E4A"/>
<circle cx="1357.56" cy="684.44" r="3.36001" fill="#592E4A"/>
<circle cx="1389.24" cy="684.44" r="3.36001" fill="#592E4A"/>
<path d="M1350 680.108V678.486L1320 672V687L1350 680.108Z" fill="url(#paint11_linear)" fill-opacity="0.8"/>
<path d="M1034 679.946V678.757L1004 674V685L1034 679.946Z" fill="url(#paint12_linear)" fill-opacity="0.8"/>
<circle cx="1041.26" cy="684.62" r="3.58308" fill="#592E4A"/>
<circle cx="1070.72" cy="684.62" r="3.58308" fill="#592E4A"/>
<path fill-rule="evenodd" clip-rule="evenodd" d="M1033.96 681.302C1033.96 681.302 1033.43 680.108 1033.7 678.383C1035.82 676.525 1046.97 676.259 1046.97 676.259C1046.97 676.259 1050.15 673.207 1052.54 671.747C1058.11 670.818 1062.23 670.686 1069.26 671.747C1072.58 673.473 1074.57 674.667 1077.49 676.525C1079.88 677.056 1081.47 678.383 1081.47 678.383V682.098H1082V682.895H1081.2L1080.67 683.691L1075.5 684.62C1075.5 684.62 1074.44 680.506 1070.59 680.506C1066.74 680.506 1066.08 685.549 1066.08 685.549H1046.17C1046.17 685.549 1046.17 679.975 1041.13 679.975C1036.88 679.975 1036.62 684.222 1036.62 684.222C1036.62 684.222 1035.55 684.078 1035.02 683.691C1034.42 683.251 1033.96 682.098 1033.96 682.098H1033.16C1032.95 681.879 1032.95 681.522 1033.16 681.302H1033.96ZM1059.43 672.259C1055.72 672.273 1053.86 672.545 1053.86 672.545L1049.36 676.941L1058.92 676.906L1059.43 672.259ZM1060.24 676.923L1060.5 672.278C1060.5 672.278 1064.35 672.278 1066.61 672.543L1066.6 672.6L1066.61 672.544C1066.61 672.544 1067.59 672.844 1068.08 673.181C1068.55 673.507 1069.24 674.095 1069.24 674.095C1069.24 674.095 1070.4 675.01 1070.38 675.592C1070.36 676.303 1070.38 676.657 1070.38 676.657L1066.21 676.923H1060.24Z" fill="#592E4A"/>
<circle cx="1448.26" cy="684.62" r="3.58308" fill="#592E4A"/>
<circle cx="1477.72" cy="684.62" r="3.58308" fill="#592E4A"/>
<path fill-rule="evenodd" clip-rule="evenodd" d="M1440.96 681.302C1440.96 681.302 1440.43 680.108 1440.7 678.383C1442.82 676.525 1453.97 676.259 1453.97 676.259C1453.97 676.259 1457.15 673.207 1459.54 671.747C1465.11 670.818 1469.23 670.686 1476.26 671.747C1479.58 673.473 1481.57 674.667 1484.49 676.525C1486.88 677.056 1488.47 678.383 1488.47 678.383V682.098H1489V682.895H1488.2L1487.67 683.691L1482.5 684.62C1482.5 684.62 1481.44 680.506 1477.59 680.506C1473.74 680.506 1473.08 685.549 1473.08 685.549H1453.17C1453.17 685.549 1453.17 679.975 1448.13 679.975C1443.88 679.975 1443.62 684.222 1443.62 684.222C1443.62 684.222 1442.55 684.078 1442.02 683.691C1441.42 683.251 1440.96 682.098 1440.96 682.098H1440.16C1439.95 681.879 1439.95 681.522 1440.16 681.302H1440.96ZM1466.43 672.259C1462.72 672.273 1460.86 672.545 1460.86 672.545L1456.36 676.941L1465.92 676.906L1466.43 672.259ZM1467.24 676.923L1467.5 672.278C1467.5 672.278 1471.35 672.278 1473.61 672.543L1473.6 672.6L1473.61 672.544C1473.61 672.544 1474.59 672.844 1475.08 673.181C1475.55 673.507 1476.24 674.095 1476.24 674.095C1476.24 674.095 1477.4 675.01 1477.38 675.592C1477.36 676.303 1477.38 676.657 1477.38 676.657L1473.21 676.923H1467.24Z" fill="#592E4A"/>
<rect x="716" y="509" width="4" height="2" fill="white"/>
<rect x="751" y="509" width="4" height="2" fill="white"/>
<path d="M716 511H720L736 541H699L716 511Z" fill="url(#paint13_linear)"/>
<path d="M751 511H755L771 541H734L751 511Z" fill="url(#paint14_linear)"/>
<rect x="1149" y="509" width="4" height="2" fill="white"/>
<rect x="1184" y="509" width="4" height="2" fill="white"/>
<path d="M1149 511H1153L1169 541H1132L1149 511Z" fill="url(#paint15_linear)"/>
<path d="M1184 511H1188L1204 541H1167L1184 511Z" fill="url(#paint16_linear)"/>
<path d="M896 680.5L897 681L898 681.5V682H896V680.5Z" fill="white"/>
<path d="M896 681.946V680.757L926 676V687L896 681.946Z" fill="url(#paint17_linear)" fill-opacity="0.8"/>
<path d="M1002 681.108V679.486L1032 673V688L1002 681.108Z" fill="url(#paint18_linear)" fill-opacity="0.8"/>
<path d="M494 642H496L503 688H487L494 642Z" fill="url(#paint19_linear)"/>
<rect x="483" y="638" width="2" height="50" fill="#592E4A"/>
<rect x="485" y="640" width="12" height="2" fill="#592E4A"/>
<rect x="494" y="641" width="2" height="1" fill="white"/>
<path d="M594 642H596L603 688H587L594 642Z" fill="url(#paint20_linear)"/>
<rect x="583" y="638" width="2" height="50" fill="#592E4A"/>
<rect x="585" y="640" width="12" height="2" fill="#592E4A"/>
<rect x="594" y="641" width="2" height="1" fill="white"/>
<rect x="583" y="638" width="2" height="50" fill="#592E4A"/>
<rect x="585" y="640" width="12" height="2" fill="#592E4A"/>
<rect x="594" y="641" width="2" height="1" fill="white"/>
<path d="M616 642H614L607 688H623L616 642Z" fill="url(#paint21_linear)"/>
<rect width="2" height="50" transform="matrix(-1 0 0 1 627 638)" fill="#592E4A"/>
<rect width="12" height="2" transform="matrix(-1 0 0 1 625 640)" fill="#592E4A"/>
<rect width="2" height="1" transform="matrix(-1 0 0 1 616 641)" fill="white"/>
<path d="M516 642H514L507 688H523L516 642Z" fill="url(#paint22_linear)"/>
<rect width="2" height="50" transform="matrix(-1 0 0 1 527 638)" fill="#592E4A"/>
<rect width="12" height="2" transform="matrix(-1 0 0 1 525 640)" fill="#592E4A"/>
<rect width="2" height="1" transform="matrix(-1 0 0 1 516 641)" fill="white"/>
<path d="M375 643H377L384 689H368L375 643Z" fill="url(#paint23_linear)"/>
<rect x="364" y="639" width="2" height="50" fill="#592E4A"/>
<rect x="366" y="641" width="12" height="2" fill="#592E4A"/>
<rect x="375" y="642" width="2" height="1" fill="white"/>
<path d="M397 643H395L388 689H404L397 643Z" fill="url(#paint24_linear)"/>
<rect width="2" height="50" transform="matrix(-1 0 0 1 408 639)" fill="#592E4A"/>
<rect width="12" height="2" transform="matrix(-1 0 0 1 406 641)" fill="#592E4A"/>
<rect width="2" height="1" transform="matrix(-1 0 0 1 397 642)" fill="white"/>
<path d="M884 643H886L893 689H877L884 643Z" fill="url(#paint25_linear)"/>
<rect x="873" y="639" width="2" height="50" fill="#592E4A"/>
<rect x="875" y="641" width="12" height="2" fill="#592E4A"/>
<rect x="884" y="642" width="2" height="1" fill="white"/>
<path d="M984 643H986L993 689H977L984 643Z" fill="url(#paint26_linear)"/>
<rect x="973" y="639" width="2" height="50" fill="#592E4A"/>
<rect x="975" y="641" width="12" height="2" fill="#592E4A"/>
<rect x="984" y="642" width="2" height="1" fill="white"/>
<path d="M1006 643H1004L997 689H1013L1006 643Z" fill="url(#paint27_linear)"/>
<rect width="2" height="50" transform="matrix(-1 0 0 1 1017 639)" fill="#592E4A"/>
<rect width="12" height="2" transform="matrix(-1 0 0 1 1015 641)" fill="#592E4A"/>
<rect width="2" height="1" transform="matrix(-1 0 0 1 1006 642)" fill="white"/>
<path d="M906 643H904L897 689H913L906 643Z" fill="url(#paint28_linear)"/>
<rect width="2" height="50" transform="matrix(-1 0 0 1 917 639)" fill="#592E4A"/>
<rect width="12" height="2" transform="matrix(-1 0 0 1 915 641)" fill="#592E4A"/>
<rect width="2" height="1" transform="matrix(-1 0 0 1 906 642)" fill="white"/>
<path d="M721 642H723L730 688H714L721 642Z" fill="url(#paint29_linear)"/>
<rect x="710" y="638" width="2" height="50" fill="#592E4A"/>
<rect x="712" y="640" width="12" height="2" fill="#592E4A"/>
<rect x="721" y="641" width="2" height="1" fill="white"/>
<path d="M752 642H750L743 688H759L752 642Z" fill="url(#paint30_linear)"/>
<rect width="2" height="50" transform="matrix(-1 0 0 1 763 638)" fill="#592E4A"/>
<rect width="12" height="2" transform="matrix(-1 0 0 1 761 640)" fill="#592E4A"/>
<rect width="2" height="1" transform="matrix(-1 0 0 1 752 641)" fill="white"/>
<path d="M1410 642H1408L1401 688H1417L1410 642Z" fill="url(#paint31_linear)"/>
<rect width="2" height="50" transform="matrix(-1 0 0 1 1421 638)" fill="#592E4A"/>
<rect width="12" height="2" transform="matrix(-1 0 0 1 1419 640)" fill="#592E4A"/>
<rect width="2" height="1" transform="matrix(-1 0 0 1 1410 641)" fill="white"/>
<rect width="2" height="50" transform="matrix(-1 0 0 1 1321 638)" fill="#592E4A"/>
<path d="M1308 642H1310L1317 688H1301L1308 642Z" fill="url(#paint32_linear)"/>
<rect width="12" height="2" transform="matrix(-1 0 0 1 1319 640)" fill="#592E4A"/>
<rect width="2" height="1" transform="matrix(-1 0 0 1 1310 641)" fill="white"/>
<path d="M1288 642H1290L1297 688H1281L1288 642Z" fill="url(#paint33_linear)"/>
<rect x="1277" y="638" width="2" height="50" fill="#592E4A"/>
<rect x="1279" y="640" width="12" height="2" fill="#592E4A"/>
<rect x="1288" y="641" width="2" height="1" fill="white"/>
<path d="M1388 642H1390L1397 688H1381L1388 642Z" fill="url(#paint34_linear)"/>
<rect x="1377" y="638" width="2" height="50" fill="#592E4A"/>
<rect x="1379" y="640" width="12" height="2" fill="#592E4A"/>
<rect x="1388" y="641" width="2" height="1" fill="white"/>
<path d="M1183 642H1181L1174 688H1190L1183 642Z" fill="url(#paint35_linear)"/>
<rect width="2" height="50" transform="matrix(-1 0 0 1 1194 638)" fill="#592E4A"/>
<rect width="12" height="2" transform="matrix(-1 0 0 1 1192 640)" fill="#592E4A"/>
<rect width="2" height="1" transform="matrix(-1 0 0 1 1183 641)" fill="white"/>
<path d="M1152 642H1154L1161 688H1145L1152 642Z" fill="url(#paint36_linear)"/>
<rect x="1141" y="638" width="2" height="50" fill="#592E4A"/>
<rect x="1143" y="640" width="12" height="2" fill="#592E4A"/>
<rect x="1152" y="641" width="2" height="1" fill="white"/>
</g>
<defs>
<linearGradient id="paint0_linear" x1="1215" y1="681.5" x2="1245" y2="681.5" gradientUnits="userSpaceOnUse">
<stop stop-color="#FFE600"/>
<stop offset="0.125" stop-color="#FFEF5B" stop-opacity="0.643836"/>
<stop offset="0.21875" stop-color="#FFF491" stop-opacity="0.432742"/>
<stop offset="0.390625" stop-color="#FFF8B9" stop-opacity="0.274625"/>
<stop offset="0.572917" stop-color="#FFFDE6" stop-opacity="0.0969264"/>
<stop offset="0.760417" stop-color="white" stop-opacity="0"/>
</linearGradient>
<linearGradient id="paint1_linear" x1="794" y1="680.5" x2="764" y2="680.5" gradientUnits="userSpaceOnUse">
<stop stop-color="#FFE600"/>
<stop offset="0.125" stop-color="#FFEF5B" stop-opacity="0.643836"/>
<stop offset="0.21875" stop-color="#FFF491" stop-opacity="0.432742"/>
<stop offset="0.390625" stop-color="#FFF8B9" stop-opacity="0.274625"/>
<stop offset="0.572917" stop-color="#FFFDE6" stop-opacity="0.0969264"/>
<stop offset="0.760417" stop-color="white" stop-opacity="0"/>
</linearGradient>
<linearGradient id="paint2_linear" x1="1672.5" y1="255" x2="1672.5" y2="868" gradientUnits="userSpaceOnUse">
<stop stop-color="#7C3649"/>
<stop offset="1" stop-color="#562E4A"/>
</linearGradient>
<linearGradient id="paint3_linear" x1="428" y1="680.5" x2="458" y2="680.5" gradientUnits="userSpaceOnUse">
<stop stop-color="#FFE600"/>
<stop offset="0.125" stop-color="#FFEF5B" stop-opacity="0.643836"/>
<stop offset="0.21875" stop-color="#FFF491" stop-opacity="0.432742"/>
<stop offset="0.390625" stop-color="#FFF8B9" stop-opacity="0.274625"/>
<stop offset="0.572917" stop-color="#FFFDE6" stop-opacity="0.0969264"/>
<stop offset="0.760417" stop-color="white" stop-opacity="0"/>
</linearGradient>
<linearGradient id="paint4_linear" x1="469" y1="681.5" x2="499" y2="681.5" gradientUnits="userSpaceOnUse">
<stop stop-color="#FFE600"/>
<stop offset="0.125" stop-color="#FFEF5B" stop-opacity="0.643836"/>
<stop offset="0.21875" stop-color="#FFF491" stop-opacity="0.432742"/>
<stop offset="0.390625" stop-color="#FFF8B9" stop-opacity="0.274625"/>
<stop offset="0.572917" stop-color="#FFFDE6" stop-opacity="0.0969264"/>
<stop offset="0.760417" stop-color="white" stop-opacity="0"/>
</linearGradient>
<linearGradient id="paint5_linear" x1="662" y1="680.5" x2="692" y2="680.5" gradientUnits="userSpaceOnUse">
<stop stop-color="#FFE600"/>
<stop offset="0.125" stop-color="#FFEF5B" stop-opacity="0.643836"/>
<stop offset="0.21875" stop-color="#FFF491" stop-opacity="0.432742"/>
<stop offset="0.390625" stop-color="#FFF8B9" stop-opacity="0.274625"/>
<stop offset="0.572917" stop-color="#FFFDE6" stop-opacity="0.0969264"/>
<stop offset="0.760417" stop-color="white" stop-opacity="0"/>
</linearGradient>
<linearGradient id="paint6_linear" x1="510" y1="679.5" x2="480" y2="679.5" gradientUnits="userSpaceOnUse">
<stop stop-color="#FFE600"/>
<stop offset="0.125" stop-color="#FFEF5B" stop-opacity="0.643836"/>
<stop offset="0.21875" stop-color="#FFF491" stop-opacity="0.432742"/>
<stop offset="0.390625" stop-color="#FFF8B9" stop-opacity="0.274625"/>
<stop offset="0.572917" stop-color="#FFFDE6" stop-opacity="0.0969264"/>
<stop offset="0.760417" stop-color="white" stop-opacity="0"/>
</linearGradient>
<linearGradient id="paint7_linear" x1="553" y1="678.5" x2="523" y2="678.5" gradientUnits="userSpaceOnUse">
<stop stop-color="#FFE600"/>
<stop offset="0.125" stop-color="#FFEF5B" stop-opacity="0.643836"/>
<stop offset="0.21875" stop-color="#FFF491" stop-opacity="0.432742"/>
<stop offset="0.390625" stop-color="#FFF8B9" stop-opacity="0.274625"/>
<stop offset="0.572917" stop-color="#FFFDE6" stop-opacity="0.0969264"/>
<stop offset="0.760417" stop-color="white" stop-opacity="0"/>
</linearGradient>
<linearGradient id="paint8_linear" x1="1361" y1="679.5" x2="1391" y2="679.5" gradientUnits="userSpaceOnUse">
<stop stop-color="#FFE600"/>
<stop offset="0.125" stop-color="#FFEF5B" stop-opacity="0.643836"/>
<stop offset="0.21875" stop-color="#FFF491" stop-opacity="0.432742"/>
<stop offset="0.390625" stop-color="#FFF8B9" stop-opacity="0.274625"/>
<stop offset="0.572917" stop-color="#FFFDE6" stop-opacity="0.0969264"/>
<stop offset="0.760417" stop-color="white" stop-opacity="0"/>
</linearGradient>
<linearGradient id="paint9_linear" x1="1255" y1="680.5" x2="1225" y2="680.5" gradientUnits="userSpaceOnUse">
<stop stop-color="#FFE600"/>
<stop offset="0.125" stop-color="#FFEF5B" stop-opacity="0.643836"/>
<stop offset="0.21875" stop-color="#FFF491" stop-opacity="0.432742"/>
<stop offset="0.390625" stop-color="#FFF8B9" stop-opacity="0.274625"/>
<stop offset="0.572917" stop-color="#FFFDE6" stop-opacity="0.0969264"/>
<stop offset="0.760417" stop-color="white" stop-opacity="0"/>
</linearGradient>
<linearGradient id="paint10_linear" x1="1442" y1="679.5" x2="1412" y2="679.5" gradientUnits="userSpaceOnUse">
<stop stop-color="#FFE600"/>
<stop offset="0.125" stop-color="#FFEF5B" stop-opacity="0.643836"/>
<stop offset="0.21875" stop-color="#FFF491" stop-opacity="0.432742"/>
<stop offset="0.390625" stop-color="#FFF8B9" stop-opacity="0.274625"/>
<stop offset="0.572917" stop-color="#FFFDE6" stop-opacity="0.0969264"/>
<stop offset="0.760417" stop-color="white" stop-opacity="0"/>
</linearGradient>
<linearGradient id="paint11_linear" x1="1350" y1="679.5" x2="1320" y2="679.5" gradientUnits="userSpaceOnUse">
<stop stop-color="#FFE600"/>
<stop offset="0.125" stop-color="#FFEF5B" stop-opacity="0.643836"/>
<stop offset="0.21875" stop-color="#FFF491" stop-opacity="0.432742"/>
<stop offset="0.390625" stop-color="#FFF8B9" stop-opacity="0.274625"/>
<stop offset="0.572917" stop-color="#FFFDE6" stop-opacity="0.0969264"/>
<stop offset="0.760417" stop-color="white" stop-opacity="0"/>
</linearGradient>
<linearGradient id="paint12_linear" x1="1034" y1="679.5" x2="1004" y2="679.5" gradientUnits="userSpaceOnUse">
<stop stop-color="#FFE600"/>
<stop offset="0.125" stop-color="#FFEF5B" stop-opacity="0.643836"/>
<stop offset="0.21875" stop-color="#FFF491" stop-opacity="0.432742"/>
<stop offset="0.390625" stop-color="#FFF8B9" stop-opacity="0.274625"/>
<stop offset="0.572917" stop-color="#FFFDE6" stop-opacity="0.0969264"/>
<stop offset="0.760417" stop-color="white" stop-opacity="0"/>
</linearGradient>
<linearGradient id="paint13_linear" x1="717.5" y1="511" x2="717.5" y2="541" gradientUnits="userSpaceOnUse">
<stop stop-color="white"/>
<stop offset="0.0625" stop-color="white" stop-opacity="0.765625"/>
<stop offset="0.145833" stop-color="white" stop-opacity="0.600927"/>
<stop offset="0.234375" stop-color="white" stop-opacity="0.380587"/>
<stop offset="0.354167" stop-color="white" stop-opacity="0.198029"/>
<stop offset="0.484375" stop-color="white" stop-opacity="0.0796199"/>
<stop offset="0.71875" stop-color="white" stop-opacity="0.0453391"/>
<stop offset="1" stop-color="white" stop-opacity="0"/>
</linearGradient>
<linearGradient id="paint14_linear" x1="752.5" y1="511" x2="752.5" y2="541" gradientUnits="userSpaceOnUse">
<stop stop-color="white"/>
<stop offset="0.0625" stop-color="white" stop-opacity="0.765625"/>
<stop offset="0.145833" stop-color="white" stop-opacity="0.600927"/>
<stop offset="0.234375" stop-color="white" stop-opacity="0.380587"/>
<stop offset="0.354167" stop-color="white" stop-opacity="0.198029"/>
<stop offset="0.484375" stop-color="white" stop-opacity="0.0796199"/>
<stop offset="0.71875" stop-color="white" stop-opacity="0.0453391"/>
<stop offset="1" stop-color="white" stop-opacity="0"/>
</linearGradient>
<linearGradient id="paint15_linear" x1="1150.5" y1="511" x2="1150.5" y2="541" gradientUnits="userSpaceOnUse">
<stop stop-color="white"/>
<stop offset="0.0625" stop-color="white" stop-opacity="0.765625"/>
<stop offset="0.145833" stop-color="white" stop-opacity="0.600927"/>
<stop offset="0.234375" stop-color="white" stop-opacity="0.380587"/>
<stop offset="0.354167" stop-color="white" stop-opacity="0.198029"/>
<stop offset="0.484375" stop-color="white" stop-opacity="0.0796199"/>
<stop offset="0.71875" stop-color="white" stop-opacity="0.0453391"/>
<stop offset="1" stop-color="white" stop-opacity="0"/>
</linearGradient>
<linearGradient id="paint16_linear" x1="1185.5" y1="511" x2="1185.5" y2="541" gradientUnits="userSpaceOnUse">
<stop stop-color="white"/>
<stop offset="0.0625" stop-color="white" stop-opacity="0.765625"/>
<stop offset="0.145833" stop-color="white" stop-opacity="0.600927"/>
<stop offset="0.234375" stop-color="white" stop-opacity="0.380587"/>
<stop offset="0.354167" stop-color="white" stop-opacity="0.198029"/>
<stop offset="0.484375" stop-color="white" stop-opacity="0.0796199"/>
<stop offset="0.71875" stop-color="white" stop-opacity="0.0453391"/>
<stop offset="1" stop-color="white" stop-opacity="0"/>
</linearGradient>
<linearGradient id="paint17_linear" x1="896" y1="681.5" x2="926" y2="681.5" gradientUnits="userSpaceOnUse">
<stop stop-color="#FFE600"/>
<stop offset="0.125" stop-color="#FFEF5B" stop-opacity="0.643836"/>
<stop offset="0.21875" stop-color="#FFF491" stop-opacity="0.432742"/>
<stop offset="0.390625" stop-color="#FFF8B9" stop-opacity="0.274625"/>
<stop offset="0.572917" stop-color="#FFFDE6" stop-opacity="0.0969264"/>
<stop offset="0.760417" stop-color="white" stop-opacity="0"/>
</linearGradient>
<linearGradient id="paint18_linear" x1="1002" y1="680.5" x2="1032" y2="680.5" gradientUnits="userSpaceOnUse">
<stop stop-color="#FFE600"/>
<stop offset="0.125" stop-color="#FFEF5B" stop-opacity="0.643836"/>
<stop offset="0.21875" stop-color="#FFF491" stop-opacity="0.432742"/>
<stop offset="0.390625" stop-color="#FFF8B9" stop-opacity="0.274625"/>
<stop offset="0.572917" stop-color="#FFFDE6" stop-opacity="0.0969264"/>
<stop offset="0.760417" stop-color="white" stop-opacity="0"/>
</linearGradient>
<linearGradient id="paint19_linear" x1="495" y1="642" x2="495" y2="688" gradientUnits="userSpaceOnUse">
<stop stop-color="white"/>
<stop offset="0.0296074" stop-color="white" stop-opacity="0.765625"/>
<stop offset="0.114856" stop-color="white" stop-opacity="0.600927"/>
<stop offset="0.20183" stop-color="white" stop-opacity="0.380587"/>
<stop offset="0.319951" stop-color="white" stop-opacity="0.198029"/>
<stop offset="0.524271" stop-color="white" stop-opacity="0.0796199"/>
<stop offset="0.838048" stop-color="white" stop-opacity="0.0453391"/>
<stop offset="1" stop-color="white" stop-opacity="0"/>
</linearGradient>
<linearGradient id="paint20_linear" x1="595" y1="642" x2="595" y2="688" gradientUnits="userSpaceOnUse">
<stop stop-color="white"/>
<stop offset="0.0296074" stop-color="white" stop-opacity="0.765625"/>
<stop offset="0.114856" stop-color="white" stop-opacity="0.600927"/>
<stop offset="0.20183" stop-color="white" stop-opacity="0.380587"/>
<stop offset="0.319951" stop-color="white" stop-opacity="0.198029"/>
<stop offset="0.524271" stop-color="white" stop-opacity="0.0796199"/>
<stop offset="0.838048" stop-color="white" stop-opacity="0.0453391"/>
<stop offset="1" stop-color="white" stop-opacity="0"/>
</linearGradient>
<linearGradient id="paint21_linear" x1="615" y1="642" x2="615" y2="688" gradientUnits="userSpaceOnUse">
<stop stop-color="white"/>
<stop offset="0.0296074" stop-color="white" stop-opacity="0.765625"/>
<stop offset="0.114856" stop-color="white" stop-opacity="0.600927"/>
<stop offset="0.20183" stop-color="white" stop-opacity="0.380587"/>
<stop offset="0.319951" stop-color="white" stop-opacity="0.198029"/>
<stop offset="0.524271" stop-color="white" stop-opacity="0.0796199"/>
<stop offset="0.838048" stop-color="white" stop-opacity="0.0453391"/>
<stop offset="1" stop-color="white" stop-opacity="0"/>
</linearGradient>
<linearGradient id="paint22_linear" x1="515" y1="642" x2="515" y2="688" gradientUnits="userSpaceOnUse">
<stop stop-color="white"/>
<stop offset="0.0296074" stop-color="white" stop-opacity="0.765625"/>
<stop offset="0.114856" stop-color="white" stop-opacity="0.600927"/>
<stop offset="0.20183" stop-color="white" stop-opacity="0.380587"/>
<stop offset="0.319951" stop-color="white" stop-opacity="0.198029"/>
<stop offset="0.524271" stop-color="white" stop-opacity="0.0796199"/>
<stop offset="0.838048" stop-color="white" stop-opacity="0.0453391"/>
<stop offset="1" stop-color="white" stop-opacity="0"/>
</linearGradient>
<linearGradient id="paint23_linear" x1="376" y1="643" x2="376" y2="689" gradientUnits="userSpaceOnUse">
<stop stop-color="white"/>
<stop offset="0.0296074" stop-color="white" stop-opacity="0.765625"/>
<stop offset="0.114856" stop-color="white" stop-opacity="0.600927"/>
<stop offset="0.20183" stop-color="white" stop-opacity="0.380587"/>
<stop offset="0.319951" stop-color="white" stop-opacity="0.198029"/>
<stop offset="0.524271" stop-color="white" stop-opacity="0.0796199"/>
<stop offset="0.838048" stop-color="white" stop-opacity="0.0453391"/>
<stop offset="1" stop-color="white" stop-opacity="0"/>
</linearGradient>
<linearGradient id="paint24_linear" x1="396" y1="643" x2="396" y2="689" gradientUnits="userSpaceOnUse">
<stop stop-color="white"/>
<stop offset="0.0296074" stop-color="white" stop-opacity="0.765625"/>
<stop offset="0.114856" stop-color="white" stop-opacity="0.600927"/>
<stop offset="0.20183" stop-color="white" stop-opacity="0.380587"/>
<stop offset="0.319951" stop-color="white" stop-opacity="0.198029"/>
<stop offset="0.524271" stop-color="white" stop-opacity="0.0796199"/>
<stop offset="0.838048" stop-color="white" stop-opacity="0.0453391"/>
<stop offset="1" stop-color="white" stop-opacity="0"/>
</linearGradient>
<linearGradient id="paint25_linear" x1="885" y1="643" x2="885" y2="689" gradientUnits="userSpaceOnUse">
<stop stop-color="white"/>
<stop offset="0.0296074" stop-color="white" stop-opacity="0.765625"/>
<stop offset="0.114856" stop-color="white" stop-opacity="0.600927"/>
<stop offset="0.20183" stop-color="white" stop-opacity="0.380587"/>
<stop offset="0.319951" stop-color="white" stop-opacity="0.198029"/>
<stop offset="0.524271" stop-color="white" stop-opacity="0.0796199"/>
<stop offset="0.838048" stop-color="white" stop-opacity="0.0453391"/>
<stop offset="1" stop-color="white" stop-opacity="0"/>
</linearGradient>
<linearGradient id="paint26_linear" x1="985" y1="643" x2="985" y2="689" gradientUnits="userSpaceOnUse">
<stop stop-color="white"/>
<stop offset="0.0296074" stop-color="white" stop-opacity="0.765625"/>
<stop offset="0.114856" stop-color="white" stop-opacity="0.600927"/>
<stop offset="0.20183" stop-color="white" stop-opacity="0.380587"/>
<stop offset="0.319951" stop-color="white" stop-opacity="0.198029"/>
<stop offset="0.524271" stop-color="white" stop-opacity="0.0796199"/>
<stop offset="0.838048" stop-color="white" stop-opacity="0.0453391"/>
<stop offset="1" stop-color="white" stop-opacity="0"/>
</linearGradient>
<linearGradient id="paint27_linear" x1="1005" y1="643" x2="1005" y2="689" gradientUnits="userSpaceOnUse">
<stop stop-color="white"/>
<stop offset="0.0296074" stop-color="white" stop-opacity="0.765625"/>
<stop offset="0.114856" stop-color="white" stop-opacity="0.600927"/>
<stop offset="0.20183" stop-color="white" stop-opacity="0.380587"/>
<stop offset="0.319951" stop-color="white" stop-opacity="0.198029"/>
<stop offset="0.524271" stop-color="white" stop-opacity="0.0796199"/>
<stop offset="0.838048" stop-color="white" stop-opacity="0.0453391"/>
<stop offset="1" stop-color="white" stop-opacity="0"/>
</linearGradient>
<linearGradient id="paint28_linear" x1="905" y1="643" x2="905" y2="689" gradientUnits="userSpaceOnUse">
<stop stop-color="white"/>
<stop offset="0.0296074" stop-color="white" stop-opacity="0.765625"/>
<stop offset="0.114856" stop-color="white" stop-opacity="0.600927"/>
<stop offset="0.20183" stop-color="white" stop-opacity="0.380587"/>
<stop offset="0.319951" stop-color="white" stop-opacity="0.198029"/>
<stop offset="0.524271" stop-color="white" stop-opacity="0.0796199"/>
<stop offset="0.838048" stop-color="white" stop-opacity="0.0453391"/>
<stop offset="1" stop-color="white" stop-opacity="0"/>
</linearGradient>
<linearGradient id="paint29_linear" x1="722" y1="642" x2="722" y2="688" gradientUnits="userSpaceOnUse">
<stop stop-color="white"/>
<stop offset="0.0296074" stop-color="white" stop-opacity="0.765625"/>
<stop offset="0.114856" stop-color="white" stop-opacity="0.600927"/>
<stop offset="0.20183" stop-color="white" stop-opacity="0.380587"/>
<stop offset="0.319951" stop-color="white" stop-opacity="0.198029"/>
<stop offset="0.524271" stop-color="white" stop-opacity="0.0796199"/>
<stop offset="0.838048" stop-color="white" stop-opacity="0.0453391"/>
<stop offset="1" stop-color="white" stop-opacity="0"/>
</linearGradient>
<linearGradient id="paint30_linear" x1="751" y1="642" x2="751" y2="688" gradientUnits="userSpaceOnUse">
<stop stop-color="white"/>
<stop offset="0.0296074" stop-color="white" stop-opacity="0.765625"/>
<stop offset="0.114856" stop-color="white" stop-opacity="0.600927"/>
<stop offset="0.20183" stop-color="white" stop-opacity="0.380587"/>
<stop offset="0.319951" stop-color="white" stop-opacity="0.198029"/>
<stop offset="0.524271" stop-color="white" stop-opacity="0.0796199"/>
<stop offset="0.838048" stop-color="white" stop-opacity="0.0453391"/>
<stop offset="1" stop-color="white" stop-opacity="0"/>
</linearGradient>
<linearGradient id="paint31_linear" x1="1409" y1="642" x2="1409" y2="688" gradientUnits="userSpaceOnUse">
<stop stop-color="white"/>
<stop offset="0.0296074" stop-color="white" stop-opacity="0.765625"/>
<stop offset="0.114856" stop-color="white" stop-opacity="0.600927"/>
<stop offset="0.20183" stop-color="white" stop-opacity="0.380587"/>
<stop offset="0.319951" stop-color="white" stop-opacity="0.198029"/>
<stop offset="0.524271" stop-color="white" stop-opacity="0.0796199"/>
<stop offset="0.838048" stop-color="white" stop-opacity="0.0453391"/>
<stop offset="1" stop-color="white" stop-opacity="0"/>
</linearGradient>
<linearGradient id="paint32_linear" x1="1309" y1="642" x2="1309" y2="688" gradientUnits="userSpaceOnUse">
<stop stop-color="white"/>
<stop offset="0.0296074" stop-color="white" stop-opacity="0.765625"/>
<stop offset="0.114856" stop-color="white" stop-opacity="0.600927"/>
<stop offset="0.20183" stop-color="white" stop-opacity="0.380587"/>
<stop offset="0.319951" stop-color="white" stop-opacity="0.198029"/>
<stop offset="0.524271" stop-color="white" stop-opacity="0.0796199"/>
<stop offset="0.838048" stop-color="white" stop-opacity="0.0453391"/>
<stop offset="1" stop-color="white" stop-opacity="0"/>
</linearGradient>
<linearGradient id="paint33_linear" x1="1289" y1="642" x2="1289" y2="688" gradientUnits="userSpaceOnUse">
<stop stop-color="white"/>
<stop offset="0.0296074" stop-color="white" stop-opacity="0.765625"/>
<stop offset="0.114856" stop-color="white" stop-opacity="0.600927"/>
<stop offset="0.20183" stop-color="white" stop-opacity="0.380587"/>
<stop offset="0.319951" stop-color="white" stop-opacity="0.198029"/>
<stop offset="0.524271" stop-color="white" stop-opacity="0.0796199"/>
<stop offset="0.838048" stop-color="white" stop-opacity="0.0453391"/>
<stop offset="1" stop-color="white" stop-opacity="0"/>
</linearGradient>
<linearGradient id="paint34_linear" x1="1389" y1="642" x2="1389" y2="688" gradientUnits="userSpaceOnUse">
<stop stop-color="white"/>
<stop offset="0.0296074" stop-color="white" stop-opacity="0.765625"/>
<stop offset="0.114856" stop-color="white" stop-opacity="0.600927"/>
<stop offset="0.20183" stop-color="white" stop-opacity="0.380587"/>
<stop offset="0.319951" stop-color="white" stop-opacity="0.198029"/>
<stop offset="0.524271" stop-color="white" stop-opacity="0.0796199"/>
<stop offset="0.838048" stop-color="white" stop-opacity="0.0453391"/>
<stop offset="1" stop-color="white" stop-opacity="0"/>
</linearGradient>
<linearGradient id="paint35_linear" x1="1182" y1="642" x2="1182" y2="688" gradientUnits="userSpaceOnUse">
<stop stop-color="white"/>
<stop offset="0.0296074" stop-color="white" stop-opacity="0.765625"/>
<stop offset="0.114856" stop-color="white" stop-opacity="0.600927"/>
<stop offset="0.20183" stop-color="white" stop-opacity="0.380587"/>
<stop offset="0.319951" stop-color="white" stop-opacity="0.198029"/>
<stop offset="0.524271" stop-color="white" stop-opacity="0.0796199"/>
<stop offset="0.838048" stop-color="white" stop-opacity="0.0453391"/>
<stop offset="1" stop-color="white" stop-opacity="0"/>
</linearGradient>
<linearGradient id="paint36_linear" x1="1153" y1="642" x2="1153" y2="688" gradientUnits="userSpaceOnUse">
<stop stop-color="white"/>
<stop offset="0.0296074" stop-color="white" stop-opacity="0.765625"/>
<stop offset="0.114856" stop-color="white" stop-opacity="0.600927"/>
<stop offset="0.20183" stop-color="white" stop-opacity="0.380587"/>
<stop offset="0.319951" stop-color="white" stop-opacity="0.198029"/>
<stop offset="0.524271" stop-color="white" stop-opacity="0.0796199"/>
<stop offset="0.838048" stop-color="white" stop-opacity="0.0453391"/>
<stop offset="1" stop-color="white" stop-opacity="0"/>
</linearGradient>
</defs>
</svg>
