<svg width="1920" height="1080" viewBox="0 0 1920 1080" fill="none" xmlns="http://www.w3.org/2000/svg">
<path d="M501.5 808.584L500.5 812.516L402.5 828.084V792.084L501.5 808.584Z" fill="url(#paint0_linear)" fill-opacity="0.8"/>
<rect x="517" y="970" width="38.592" height="16.884" rx="8.44199" fill="#444444" fill-opacity="0.29"/>
<rect x="561" y="970" width="35" height="17" rx="8.5" fill="#444444" fill-opacity="0.29"/>
<circle cx="1392.7" cy="865.983" r="10.9908" fill="#2E2443"/>
<circle cx="1496.44" cy="865.983" r="10.9908" fill="#2E2443"/>
<path d="M1370.27 814C1366.39 814 1363.24 817.149 1363.24 821.035V868.515H1525.9V821.035C1525.9 817.149 1522.75 814 1518.87 814H1370.27Z" fill="#2E2443"/>
<rect x="1426.63" y="825.352" width="13.2544" height="28.6016" fill="#B25F65"/>
<rect x="1450.35" y="825.352" width="13.2544" height="28.6016" fill="#B25F65"/>
<rect x="1372.04" y="825.432" width="42.2047" height="11.4304" fill="#B25F65"/>
<rect x="1475.79" y="825.432" width="42.2047" height="11.4304" fill="#B25F65"/>
<rect x="1353" y="821.725" width="5.27559" height="38.6877" rx="2.6378" fill="#2E2443"/>
<circle cx="1213.7" cy="865.983" r="10.9908" fill="#2E2443"/>
<circle cx="1317.45" cy="865.983" r="10.9908" fill="#2E2443"/>
<path d="M1191.27 814C1187.39 814 1184.24 817.149 1184.24 821.035V868.515H1346.9V821.035C1346.9 817.149 1343.75 814 1339.87 814H1191.27Z" fill="#2E2443"/>
<rect x="1247.63" y="825.352" width="13.2544" height="28.6016" fill="#B25F65"/>
<rect x="1271.35" y="825.352" width="13.2544" height="28.6016" fill="#B25F65"/>
<rect x="1193.04" y="825.432" width="42.2047" height="11.4304" fill="#B25F65"/>
<rect x="1296.79" y="825.432" width="42.2047" height="11.4304" fill="#B25F65"/>
<rect x="1174" y="821.725" width="5.27559" height="38.6877" rx="2.6378" fill="#2E2443"/>
<circle cx="1036.7" cy="865.983" r="10.9908" fill="#2E2443"/>
<circle cx="1140.45" cy="865.983" r="10.9908" fill="#2E2443"/>
<path d="M1014.28 814C1010.39 814 1007.24 817.149 1007.24 821.035V868.515H1169.91V821.035C1169.91 817.149 1166.76 814 1162.87 814H1014.28Z" fill="#2E2443"/>
<rect x="1070.63" y="825.352" width="13.2544" height="28.6016" fill="#B25F65"/>
<rect x="1094.35" y="825.352" width="13.2544" height="28.6016" fill="#B25F65"/>
<rect x="1016.04" y="825.432" width="42.2047" height="11.4304" fill="#B25F65"/>
<rect x="1119.79" y="825.432" width="42.2047" height="11.4304" fill="#B25F65"/>
<rect x="997" y="821.725" width="5.27559" height="38.6877" rx="2.6378" fill="#2E2443"/>
<circle cx="859.792" cy="865.516" r="10.9908" fill="#2E2443"/>
<circle cx="963.542" cy="865.516" r="10.9908" fill="#2E2443"/>
<path d="M837.371 813.533C833.485 813.533 830.336 816.682 830.336 820.568V868.048H993V820.568C993 816.682 989.85 813.533 985.966 813.533H837.371Z" fill="#2E2443"/>
<rect x="893.723" y="824.885" width="13.2544" height="28.6016" fill="#B25F65"/>
<rect x="917.441" y="824.885" width="13.2544" height="28.6016" fill="#B25F65"/>
<rect x="839.129" y="824.965" width="42.2047" height="11.4304" fill="#B25F65"/>
<rect x="942.883" y="824.965" width="42.2047" height="11.4304" fill="#B25F65"/>
<rect x="820.09" y="821.258" width="5.27559" height="38.6877" rx="2.6378" fill="#2E2443"/>
<circle cx="682.092" cy="865.327" r="10.9908" fill="#2E2443"/>
<circle cx="785.846" cy="865.327" r="10.9908" fill="#2E2443"/>
<path d="M659.671 813.344C655.785 813.344 652.637 816.492 652.637 820.378V867.859H815.301V820.378C815.301 816.492 812.151 813.344 808.267 813.344H659.671Z" fill="#2E2443"/>
<rect x="661.43" y="824.775" width="42.2047" height="11.4304" fill="#B25F65"/>
<rect x="716.023" y="824.695" width="13.2544" height="28.6016" fill="#B25F65"/>
<rect x="739.742" y="824.695" width="13.2544" height="28.6016" fill="#B25F65"/>
<rect x="765.184" y="824.775" width="42.2047" height="11.4304" fill="#B25F65"/>
<rect x="644.875" y="821.258" width="5.27559" height="38.6877" rx="2.6378" fill="#2E2443"/>
<circle cx="533.3" cy="863.411" r="12.9056" fill="#2E2443"/>
<circle cx="623.988" cy="863.411" r="12.9056" fill="#2E2443"/>
<circle cx="566.085" cy="863.411" r="12.9056" fill="#2E2443"/>
<path fill-rule="evenodd" clip-rule="evenodd" d="M529.417 794H515.349V824.775H505.677V817.415C507.214 816.63 508.315 814.514 508.315 812.024C508.315 808.868 506.544 806.309 504.358 806.309C502.173 806.309 500.401 808.868 500.401 812.024C500.401 814.514 501.502 816.63 503.039 817.415V824.795C502.893 824.782 502.746 824.775 502.599 824.775C497.501 824.775 493.367 833.239 493.367 843.679C493.367 846.192 493.605 848.59 494.04 850.782C494.092 851.042 494.146 851.3 494.203 851.555C494.458 852.691 494.765 853.766 495.12 854.766L489 874.014H514.499L512.318 866.099H518.539C518.46 865.661 518.4 865.214 518.359 864.761C518.344 864.592 518.332 864.422 518.322 864.25C518.307 863.972 518.299 863.693 518.299 863.411C518.299 855.127 525.014 848.413 533.298 848.413C541.582 848.413 548.296 855.127 548.296 863.411C548.296 864.329 548.214 865.227 548.056 866.099H551.326C551.168 865.227 551.086 864.329 551.086 863.411C551.086 855.127 557.801 848.413 566.085 848.413C574.369 848.413 581.083 855.127 581.083 863.411C581.083 864.002 581.049 864.586 580.982 865.159C580.945 865.475 580.899 865.789 580.843 866.099H609.227C609.182 865.853 609.144 865.605 609.111 865.354C609.078 865.098 609.052 864.84 609.032 864.58C609.016 864.368 609.003 864.154 608.995 863.937C608.99 863.763 608.987 863.587 608.987 863.411C608.987 855.127 615.701 848.413 623.985 848.413C632.269 848.413 638.984 855.127 638.984 863.411C638.984 864.144 638.932 864.864 638.83 865.568C638.804 865.746 638.775 865.924 638.744 866.099H641.083V806.309H582.173V814.224H529.417V794ZM633.403 813.533H590.152V834.461H633.403V813.533ZM590.086 838.661H633.17V844.816H590.086V838.661ZM558.062 823.299H529.461V825.392H558.062V823.299Z" fill="#2E2443"/>
<rect x="529.461" y="855.389" width="41.8559" height="4.18559" rx="2.0928" fill="#B25F65"/>
<rect x="530.855" y="856.783" width="39.0655" height="1.3952" rx="0.697599" fill="#2E2443"/>
<rect x="1328" y="970" width="38.592" height="16.884" rx="8.44199" fill="#444444" fill-opacity="0.29"/>
<rect x="1370" y="970" width="35" height="17" rx="8.5" fill="#444444" fill-opacity="0.29"/>
<path fill-rule="evenodd" clip-rule="evenodd" d="M963.5 777C841.499 777 754.5 801.966 676.268 844.331C658.27 854.077 641.95 864.679 627.733 876H0V882H620.476C587.011 910.744 567 943.779 567 979H591.47C591.47 943.476 612.9 910.38 648.348 882H713V882.005H723V882H1113V882.005H1123V882H1278.65C1314.1 910.38 1335.53 943.476 1335.53 979L1360 978.997C1360 943.777 1339.99 910.743 1306.52 882H1920V876H1299.27C1285.05 864.679 1268.73 854.077 1250.73 844.331C1178.57 805.253 1085.5 777 963.5 777ZM793 876H723V837.655C744.765 827.749 768.073 818.961 793 811.642V876ZM713 876V842.336C711.627 842.996 710.26 843.661 708.9 844.331C689.361 853.947 671.601 864.557 656.144 876H713ZM1203 876H1270.86C1255.4 864.557 1237.64 853.947 1218.1 844.331C1213.18 841.91 1208.15 839.537 1203 837.219V876ZM1193 876V832.843C1171.47 823.699 1148.1 815.526 1123 808.749V876H1193ZM1113 806.146C1090.92 800.612 1067.56 796.164 1043 793.076V876H1113V806.146ZM953 876H883V793.067C905.289 790.277 928.61 788.614 953 788.242V876ZM873 794.404V876H803V808.81C825.081 802.781 848.397 797.902 873 794.404ZM963 876H1033V791.902C1010.77 789.474 987.581 788.163 963.5 788.163L963 788.163V876ZM522 882.005H551V979H522V882.005ZM1402 882.005H1373V979H1402V882.005Z" fill="#332544"/>
<defs>
<linearGradient id="paint0_linear" x1="500" y1="810" x2="402" y2="810" gradientUnits="userSpaceOnUse">
<stop stop-color="#FFE600"/>
<stop offset="0.125" stop-color="#FFEF5B" stop-opacity="0.643836"/>
<stop offset="0.21875" stop-color="#FFF491" stop-opacity="0.432742"/>
<stop offset="0.390625" stop-color="#FFF8B9" stop-opacity="0.274625"/>
<stop offset="0.572917" stop-color="#FFFDE6" stop-opacity="0.0969264"/>
<stop offset="0.760417" stop-color="white" stop-opacity="0"/>
</linearGradient>
</defs>
</svg>
