<svg width="1920" height="1080" viewBox="0 0 1920 1080" fill="none" xmlns="http://www.w3.org/2000/svg">
<mask id="mask0" mask-type="alpha" maskUnits="userSpaceOnUse" x="0" y="583" width="1920" height="497">
<rect y="583" width="1920" height="497" fill="#C4C4C4"/>
</mask>
<g mask="url(#mask0)">
<path fill-rule="evenodd" clip-rule="evenodd" d="M660.524 1030.6H483V1081.18H660.524V1080.54L677 1030.6H660.524H660.524Z" fill="#2A2342"/>
<path d="M483 1026.81H673.219C675.307 1026.81 677 1028.51 677 1030.6H483V1026.81Z" fill="#2A2342"/>
<path fill-rule="evenodd" clip-rule="evenodd" d="M604.715 1001.7C607.873 1000.35 616.331 998.457 624.898 1001.7H629.635C624.486 998.907 611.429 995 600.391 1001.7H604.715ZM600.391 1001.7H604.715V1026.81H600.391V1001.7ZM625.105 1001.7H629.43V1026.81H625.105V1001.7Z" fill="#211B37"/>
<path fill-rule="evenodd" clip-rule="evenodd" d="M600.389 1001.7H483V1026.81H600.389V1001.7ZM592.973 1008.72H575.673V1020.06H592.973V1008.72ZM550.963 1008.72H568.262V1020.06H550.963V1008.72ZM543.548 1008.72H526.248V1020.06H543.548V1008.72ZM501.534 1008.72H518.833V1020.06H501.534V1008.72ZM494.034 1008.81H483.183V1020.09H494.034V1008.81Z" fill="#211B37"/>
<rect x="604.508" y="1014.39" width="32.1274" height="12.4233" fill="#211B37"/>
<path fill-rule="evenodd" clip-rule="evenodd" d="M1909.5 596L1902.88 620.074L1906.93 617.111L1898.83 649.333L1902.88 646.37L1895.52 666.37L1899.56 665.63L1894.41 686H1896.99L1893.11 707.452L1887.95 699.112H1892.41L1881.63 686.879H1884.98L1875.68 675.759L1878.65 674.276L1870.1 664.267H1872.33L1864.52 655L1860.05 662.784H1861.54L1857.45 672.052L1860.05 670.569L1854.85 683.172H1857.45L1853.27 694.046L1848.86 680.444L1851.8 681.185L1845.55 660.444H1847.75L1841.13 644.148H1844.07L1837.45 628.593H1838.92L1834.5 616L1827.88 640.074L1831.93 637.111L1823.83 669.333L1827.88 666.37L1820.52 686.37L1824.56 685.63L1821.32 698.456L1817.13 688.148H1820.07L1813.45 672.593H1814.92L1810.5 660L1803.88 684.074L1807.93 681.111L1799.83 713.333L1803.88 710.37L1796.52 730.37L1800.56 729.63L1797.68 741.015L1789.63 731.879H1792.98L1783.68 720.759L1786.65 719.276L1778.1 709.267H1780.33L1772.52 700L1768.05 707.784H1769.54L1765.45 717.052L1768.05 715.569L1762.85 728.172H1765.45L1758.76 745.595H1760.24L1753.55 760.422H1756.15L1752.04 773.316L1747.86 760.444L1750.8 761.185L1744.55 740.444H1746.75L1740.13 724.148H1743.07L1736.45 708.593H1737.92L1733.5 696L1726.88 720.074L1730.93 717.111L1722.83 749.333L1726.88 746.37L1719.52 766.37L1723.56 765.63L1718.41 786H1720.99L1717.64 804.519L1716.07 791.852L1719.75 792.593L1713.86 774.444L1716.8 775.185L1710.55 754.444H1712.75L1706.13 738.148H1709.07L1702.45 722.593H1703.92L1699.5 710L1692.88 734.074L1696.93 731.111L1688.83 763.333L1692.88 760.37L1685.52 780.37L1689.56 779.63L1687.25 788.79L1682.25 775.559H1685.21L1678.56 762.935H1680.41L1675.23 751.797H1678.56L1673.39 744L1664.15 754.396H1667.11L1655.28 769.618H1658.61L1650.09 780.081L1649.07 771.852L1652.75 772.593L1646.86 754.444L1649.8 755.185L1643.55 734.444H1645.75L1639.13 718.148H1642.07L1635.45 702.593H1636.92L1632.5 690L1625.88 714.074L1629.93 711.111L1621.83 743.333L1625.88 740.37L1618.52 760.37L1622.56 759.63L1617.41 780H1619.99L1615.07 807.213L1610.23 796.797H1613.56L1608.39 789L1599.15 799.396H1602.11L1590.28 814.618H1593.61L1583.63 826.87H1587.33L1574.03 842.093H1577.72L1572.55 850.632H1574.03L1569.34 857.104L1566.86 849.444L1569.8 850.185L1563.55 829.444H1565.75L1559.13 813.148H1562.07L1555.45 797.593H1556.92L1552.5 785L1545.88 809.074L1549.93 806.111L1541.83 838.333L1545.88 835.37L1538.52 855.37L1542.56 854.63L1537.41 875H1539.99L1538.84 881.358L1535.55 870.444H1537.75L1531.13 854.148H1534.07L1527.45 838.593H1528.92L1524.5 826L1517.88 850.074L1521.93 847.111L1513.83 879.333L1517.88 876.37L1510.52 896.37L1514.56 895.63L1509.41 916H1511.99L1508.41 935.786L1499.95 922.112H1504.41L1493.63 909.879H1496.98L1487.68 898.759L1490.65 897.276L1482.1 887.267H1484.33L1476.52 878L1472.05 885.784H1473.54L1469.45 895.052L1472.05 893.569L1466.85 906.172H1469.45L1462.76 923.595H1464.24L1457.55 938.422H1460.15L1454.95 954.733H1456.8L1447.88 977.716H1450.48L1448.12 990.658L1442.86 974.444L1445.8 975.185L1439.55 954.444H1441.75L1435.13 938.148H1438.07L1431.45 922.593H1432.92L1428.5 910L1421.88 934.074L1425.93 931.111L1417.83 963.333L1421.88 960.37L1414.52 980.37L1418.56 979.63L1413.41 1000H1415.99L1410.83 1028.52L1413.41 1027.41L1407.52 1055.56L1410.83 1054.07L1407.52 1081.85H1410.83L1403.47 1111.85L1405.68 1110L1402 1130H1462L1457.18 1106H2072V703L2037.47 720.314L2019.46 709.567L1996.94 734.643L1961.92 709.567L1933.24 726.606L1926.8 705.63L1929.75 707.481L1926.07 677.852L1929.75 678.593L1923.86 660.444L1926.8 661.185L1920.55 640.444H1922.75L1916.13 624.148H1919.07L1912.45 608.593H1913.92L1909.5 596ZM1852.24 700.595L1851.59 702.046L1851.41 700.595H1852.24ZM1851.76 697.991L1851.25 699.312L1851.07 697.852L1851.76 697.991ZM1752.2 778.282L1750.07 777.852L1750.63 782.344L1752.2 778.282ZM1796.63 745.201L1796.9 744.112H1795.95L1796.63 745.201ZM1447.88 1000.7L1446.62 1004.35L1446.32 1001.94L1447.88 1000.7ZM1447.8 992.402L1446.22 1001.1L1445.07 991.852L1447.8 992.402ZM1717.07 819.799L1716.8 819.63L1716.99 820.221L1717.07 819.799ZM1650.31 781.87L1650.56 783.89L1652.33 781.87H1650.31ZM1616.24 813.02L1617.41 807.407L1614.83 808.519L1614.94 807.935H1613.56L1616.24 813.02Z" fill="url(#paint0_linear)"/>
<path fill-rule="evenodd" clip-rule="evenodd" d="M-202 638L-6.6709 796.713L-4.01227 782H-6.58896L-1.43558 761.63L-5.48466 762.37L1.8773 742.37L-2.17178 745.333L5.92638 713.111L1.8773 716.074L8.50307 692L12.9202 704.593H11.4478L18.0736 720.148H15.1288L21.7546 736.444H19.546L25.8037 757.185L22.8589 756.444L28.7485 774.593L25.0675 773.852L28.7485 803.481L25.8037 801.63L30.9272 818.322L33.5614 819.622L48.0278 799.632H46.55L51.7222 791.093H48.0278L61.3278 775.87H57.6333L67.6083 763.618H64.2833L76.1056 748.396H73.15L82.3861 738L87.5583 745.797H84.2333L89.4055 756.935H87.5583L94.2083 769.559H91.2528L99.3806 791.093H96.425L108.247 812.627H103.814L112.681 830.448H108.247L113.614 840.668L116.988 822H114.411L119.564 801.63L115.515 802.37L122.877 782.37L118.828 785.333L126.926 753.111L122.877 756.074L129.503 732L133.92 744.593H132.448L139.074 760.148H136.129L142.755 776.444H140.546L146.804 797.185L143.859 796.444L149.748 814.593L146.067 813.852L149.748 843.481L146.804 841.63L151.614 857.303L152.834 847.074L149.521 848.556L155.411 820.407L152.834 821.519L157.988 793H155.411L160.564 772.63L156.515 773.37L163.877 753.37L159.828 756.333L167.926 724.111L163.877 727.074L170.503 703L174.92 715.593H173.448L180.074 731.148H177.129L183.755 747.444H181.546L187.804 768.185L184.859 767.444L190.748 785.593L187.067 784.852L190.748 814.481L187.804 812.63L195.534 837.815L191.853 835.593L197.374 868.556L193.693 867.074L196.199 876.74L202.805 859.733H200.945L206.152 843.422H203.549L210.244 828.595H208.756L215.451 811.172H212.848L218.055 798.569L215.451 800.052L219.543 790.784H218.055L222.518 783L230.329 792.267H228.098L236.652 802.276L233.677 803.759L242.976 814.879H239.628L250.415 827.112H245.951L259.713 849.353H257.11L268.64 871.966H265.293L278.311 896.06H274.22L283.91 914.142L287.411 897.407L284.834 898.519L289.988 870H287.411L292.564 849.63L288.515 850.37L295.877 830.37L291.828 833.333L299.926 801.111L295.877 804.074L302.503 780L306.92 792.593H305.448L312.074 808.148H309.129L315.755 824.444H313.546L319.804 845.185L316.859 844.444L322.748 862.593L319.068 861.852L322.748 891.481L319.804 889.63L322.951 899.884L326.028 895.632H324.55L329.722 887.093H326.028L339.328 871.87H335.633L345.608 859.618H342.283L354.106 844.396H351.15L360.386 834L365.558 841.797H362.233L367.406 852.935H365.558L372.208 865.559H369.253L377.381 887.093H374.425L386.247 908.627H381.814L390.681 926.448H386.247L389.726 933.072L395.451 918.172H392.848L398.055 905.569L395.451 907.052L399.543 897.784H398.055L402.518 890L410.329 899.267H408.098L416.652 909.276L413.677 910.759L422.976 921.879H419.628L430.415 934.112H425.951L439.713 956.353H437.11L448.64 978.966H445.293L458.311 1003.06H454.219L463.572 1020.51L466.244 1014.59H464.756L471.451 997.172H468.848L474.055 984.569L471.451 986.052L475.543 976.784H474.055L478.518 969L486.329 978.267H484.098L492.652 988.276L489.677 989.759L498.976 1000.88H495.628L506.415 1013.11H501.951L515.713 1035.35H513.11L524.64 1057.97H521.293L534.311 1082.06H530.219L547.701 1114.68H544.726L557 1141H435L443.927 1116.53H441.323L449.774 1092H449.5L448.018 1093.18L448.234 1092L-202 1092V638ZM152.678 875.489L152.834 874.852H152.571L152.678 875.489ZM112.681 843.814H113.046L112.822 845.054L112.681 843.814ZM113.704 852.788L113.369 849.857L114.411 849.407L113.704 852.788ZM35.588 820.622L34.4332 820.053H35.8361L35.588 820.622Z" fill="url(#paint1_linear)"/>
</g>
<defs>
<linearGradient id="paint0_linear" x1="1737" y1="596" x2="1737" y2="1130" gradientUnits="userSpaceOnUse">
<stop stop-color="#532D4A"/>
<stop offset="1" stop-color="#2A2342"/>
</linearGradient>
<linearGradient id="paint1_linear" x1="177.5" y1="638" x2="177.5" y2="1141" gradientUnits="userSpaceOnUse">
<stop stop-color="#532D4A"/>
<stop offset="1" stop-color="#2A2342"/>
</linearGradient>
</defs>
</svg>
