<svg width="26" height="19" viewBox="0 0 26 19" fill="none" xmlns="http://www.w3.org/2000/svg">
<path d="M15.4375 0V1.30105L15.5139 1.47024L16.3516 3.61905H9.29256L9.03906 4.01533L6.82988 7.49233C6.32811 7.32125 5.80601 7.23553 5.28125 7.2381C3.8811 7.24001 2.5388 7.86022 1.54874 8.9627C0.558688 10.0652 0.00172008 11.5599 0 13.119C0 16.3635 2.36763 19 5.28125 19C8.05513 19 10.3244 16.6006 10.5373 13.5714H13.3299L13.5842 13.1751L17.5451 6.67262L18.0781 8.02976C17.2767 8.54679 16.6111 9.28886 16.1477 10.1819C15.6844 11.0749 15.4395 12.0877 15.4375 13.119C15.4375 16.349 17.8181 19 20.7188 19C23.6194 19 26 16.349 26 13.119C26 9.88905 23.6194 7.2381 20.7188 7.2381C20.3288 7.2381 19.9444 7.28786 19.5764 7.37924L17.3924 1.80952H19.9062C20.1378 1.80952 20.3125 2.00405 20.3125 2.2619C20.3125 2.51976 20.1378 2.71429 19.9062 2.71429V4.52381C21.0169 4.52381 21.9375 3.49871 21.9375 2.2619C21.9375 1.0251 21.0169 0 19.9062 0H15.4375ZM6.5 0.904762V2.71429H11.375L10.5625 0.904762H6.5ZM10.9436 5.42857H16.3516L13.0764 10.801L10.9436 5.42857ZM9.52169 6.33333L11.6545 11.7619H4.875V13.5714H8.88712C8.68075 15.5999 7.1565 17.1905 5.28125 17.1905C3.26625 17.1905 1.625 15.3629 1.625 13.119C1.625 10.8752 3.26625 9.04762 5.28125 9.04762C5.88342 9.04797 6.47627 9.21319 7.00759 9.52874C7.53891 9.84429 7.9924 10.3005 8.32812 10.8571H10.1562C9.77156 9.82012 9.12849 8.92728 8.30294 8.284L9.52169 6.33333ZM20.7188 9.04762C22.7338 9.04762 24.375 10.8752 24.375 13.119C24.375 15.3629 22.7338 17.1905 20.7188 17.1905C18.7037 17.1905 17.0625 15.3629 17.0625 13.119C17.0625 11.695 17.7385 10.4545 18.7387 9.72619L20.3881 13.9388L21.8611 13.2041L20.2621 9.10371C20.4141 9.08291 20.5627 9.04762 20.7188 9.04762V9.04762Z" fill="#0B1D26"/>
</svg>
