<svg width="26" height="19" viewBox="0 0 26 19" fill="none" xmlns="http://www.w3.org/2000/svg">
<path d="M22.1 6.78571H21.45L17.0308 1.01871C16.7872 0.700873 16.4782 0.444298 16.1267 0.267965C15.7753 0.091631 15.3903 5.0897e-05 15.0004 0H6.31028C5.24712 0 4.29122 0.675603 3.89634 1.70618L1.95 6.88156C0.830375 7.18437 0 8.23658 0 9.5V14.25C0 14.6249 0.290875 14.9286 0.65 14.9286H2.6C2.6 17.1772 4.34606 19 6.5 19C8.65394 19 10.4 17.1772 10.4 14.9286H15.6C15.6 17.1772 17.3461 19 19.5 19C21.6539 19 23.4 17.1772 23.4 14.9286H25.35C25.7091 14.9286 26 14.6249 26 14.25V10.8571C26 8.60853 24.2539 6.78571 22.1 6.78571ZM6.5 16.9643C5.42466 16.9643 4.55 16.0512 4.55 14.9286C4.55 13.806 5.42466 12.8929 6.5 12.8929C7.57534 12.8929 8.45 13.806 8.45 14.9286C8.45 16.0512 7.57534 16.9643 6.5 16.9643ZM9.425 6.78571H4.75028L6.31028 2.71429H9.425V6.78571ZM11.375 6.78571V2.71429H15.0004L18.1204 6.78571H11.375ZM19.5 16.9643C18.4247 16.9643 17.55 16.0512 17.55 14.9286C17.55 13.806 18.4247 12.8929 19.5 12.8929C20.5753 12.8929 21.45 13.806 21.45 14.9286C21.45 16.0512 20.5753 16.9643 19.5 16.9643Z" fill="black"/>
</svg>
