<svg width="30" height="19" viewBox="0 0 30 19" fill="none" xmlns="http://www.w3.org/2000/svg">
<path d="M24.0386 6.33323C23.3403 6.32828 22.6748 6.44703 22.0515 6.67463L20.5096 3.95827H24.3713C24.9946 3.95827 25.4961 3.42885 25.4961 2.77079V1.18748C25.4961 0.529418 24.9946 0 24.3713 0H22.2483C21.9296 0 21.625 0.143487 21.4141 0.390879L19.6567 2.45413L18.5882 0.573949C18.382 0.217705 18.0164 0 17.6227 0H13.8735C13.4611 0 13.1237 0.356244 13.1237 0.791654V1.58331C13.1237 2.01872 13.4611 2.37496 13.8735 2.37496H16.9854L17.8852 3.95827H10.682C9.85253 2.81532 8.57781 1.97913 6.00023 1.97913H3.39923C2.76655 1.97913 2.23698 2.5234 2.25104 3.19135C2.26041 3.83457 2.76186 4.3541 3.3758 4.3541H6.00023C7.14842 4.3541 7.81391 4.89341 8.24038 5.58116L7.7108 6.59547C7.10156 6.4025 6.45014 6.31344 5.77528 6.33818C2.62127 6.45693 0.0765015 9.18318 0.00151753 12.518C-0.0734664 16.0854 2.64002 18.9997 6.00023 18.9997C8.79339 18.9997 11.1413 16.981 11.8115 14.2498H15.7575C16.3996 14.2498 16.9104 13.6857 16.8823 13.0079C16.7839 10.6774 17.7024 8.37174 19.5161 6.82307L20.1019 7.85222C18.8084 9.02485 17.9883 10.7665 18.0024 12.711C18.0258 16.1547 20.683 18.97 23.9448 18.9997C27.3004 19.0343 30.0279 16.1547 29.9998 12.612C29.967 9.16834 27.3004 6.35797 24.0386 6.33323ZM6.00023 16.6247C3.93349 16.6247 2.25104 14.8485 2.25104 12.6665C2.25104 10.4845 3.93349 8.70819 6.00023 8.70819C6.19707 8.70819 6.3939 8.72304 6.58605 8.75767L4.64115 12.4883C4.22874 13.28 4.77237 14.2498 5.62531 14.2498H9.43544C8.85431 15.6451 7.53272 16.6247 6.00023 16.6247ZM27.7409 12.8842C27.6378 14.893 26.1006 16.5159 24.2026 16.6198C22.0421 16.7435 20.2472 14.9227 20.2472 12.6665C20.2472 11.6076 20.6408 10.6477 21.2829 9.9402L23.598 14.0172C23.8089 14.3933 24.2729 14.512 24.6291 14.2893L25.2711 13.8836C25.6273 13.661 25.7398 13.1711 25.5289 12.7951L23.2512 8.79231C23.4949 8.73788 23.7433 8.71314 23.9964 8.71314C26.1334 8.70819 27.8534 10.6032 27.7409 12.8842Z" fill="#0B1D26"/>
</svg>
