<svg width="22" height="19" viewBox="0 0 22 19" fill="none" xmlns="http://www.w3.org/2000/svg">
<path d="M17.0712 13.8284L19.4778 11.2303C20.0587 10.6032 19.8196 9.53177 19.0366 9.26009L17.6 8.7616V3.5625C17.6 2.90667 17.1075 2.375 16.5 2.375H14.3V0.890625C14.3 0.39874 13.9306 0 13.475 0H8.525C8.06936 0 7.7 0.39874 7.7 0.890625V2.375H5.5C4.89249 2.375 4.4 2.90667 4.4 3.5625V8.7616L2.9634 9.26009C2.18127 9.53147 1.94061 10.6024 2.52216 11.2303L4.92883 13.8284C4.32534 15.4482 2.94205 16.625 0.825 16.625C0.369359 16.625 0 17.0237 0 17.5156V18.1094C0 18.6013 0.369359 19 0.825 19C2.92267 19 4.52028 18.2352 5.74949 16.7959C6.24515 18.0883 7.42572 19 8.8 19H13.2C14.5743 19 15.7549 18.0883 16.2505 16.7959C17.4795 18.235 19.077 19 21.175 19C21.6306 19 22 18.6013 22 18.1094V17.5156C22 17.0237 21.6306 16.625 21.175 16.625C19.0844 16.625 17.6845 15.4746 17.0712 13.8284ZM6.6 4.75H15.4V7.99822L11.3366 6.58825C11.1177 6.51229 10.8823 6.51229 10.6634 6.58825L6.6 7.99822V4.75Z" fill="#0B1D26"/>
</svg>
