<svg width="14" height="19" viewBox="0 0 14 19" fill="none" xmlns="http://www.w3.org/2000/svg">
<path d="M10.8281 0H3.16837C2.97237 0 1.94425 0.0617501 0.978249 1.28345C0.027125 2.4852 0 3.6689 0 3.8V14.25C0 14.7539 0.184374 15.2372 0.512562 15.5935C0.840751 15.9498 1.28587 16.15 1.75 16.15H2.625L0.874999 19H2.93387L3.5175 18.05H10.5175L11.1099 19H13.125L11.375 16.15H12.25C12.7141 16.15 13.1592 15.9498 13.4874 15.5935C13.8156 15.2372 14 14.7539 14 14.25V3.8C14.0009 3.6214 13.972 2.4377 13.0121 1.26825C12.0006 0.0351501 10.9454 0 10.8281 0ZM5.24999 1.9H8.74999V3.8H5.24999V1.9ZM3.0625 14.25C2.71428 14.2499 2.38038 14.0996 2.13424 13.8322C1.8881 13.5647 1.74988 13.2021 1.75 12.824C1.75011 12.446 1.88855 12.0835 2.13486 11.8162C2.38116 11.549 2.71516 11.3989 3.06337 11.399C3.41158 11.3992 3.74549 11.5495 3.99163 11.8169C4.23777 12.0843 4.37599 12.4469 4.37587 12.825C4.37575 13.2031 4.23732 13.5656 3.99101 13.8328C3.74471 14.1001 3.41071 14.2501 3.0625 14.25ZM10.9375 14.25C10.5893 14.2499 10.2554 14.0996 10.0092 13.8322C9.76309 13.5647 9.62487 13.2021 9.62499 12.824C9.6251 12.446 9.76354 12.0835 10.0098 11.8162C10.2562 11.549 10.5901 11.3989 10.9384 11.399C11.2866 11.3992 11.6205 11.5495 11.8666 11.8169C12.1128 12.0843 12.251 12.4469 12.2509 12.825C12.2507 13.2031 12.1123 13.5656 11.866 13.8328C11.6197 14.1001 11.2857 14.2501 10.9375 14.25ZM12.25 9.5H1.75V5.7H12.25V9.5Z" fill="black"/>
</svg>
