<svg width="1920" height="1080" viewBox="0 0 1920 1080" fill="none" xmlns="http://www.w3.org/2000/svg">
<path fill-rule="evenodd" clip-rule="evenodd" d="M180.082 241L100.505 488.242L144.144 522.855L95.2518 641.063C50.0737 610.362 14.8475 557.837 0 528.66V1080H1920V463.316C1881.26 485.097 1791.71 546.629 1743.5 618.508C1729.47 639.421 1708.21 664.76 1682.65 691.485L1670.34 659.324L1699.08 634.833L1659.35 534.421L1683.86 511.563L1629.76 348.291L1577.36 511.563L1606.1 534.421L1564.68 634.833L1594.26 659.324L1552 778.512H1589.2C1519.37 836.782 1443.82 885.794 1394.8 892.136C1391.35 892.581 1387.92 893.07 1384.48 893.601V814.51H1413L1389.67 736.825L1400.04 725.548L1389.67 665.405L1400.04 655.381L1375.41 588.972L1357.26 655.381L1366.33 665.405L1357.26 725.548L1366.33 736.825L1343 814.51H1371.52V895.807C1307.49 907.696 1245.29 933.8 1183.57 966.382L1191 957.243L1163 858.651L1135 957.243L1146 970.775L1138.48 991.263C1132.08 994.93 1125.68 998.646 1119.28 1002.4C1028.88 1055.5 852.377 1002.4 718.924 949.312C709.692 945.639 700.212 942.513 690.555 939.844H697L691 909.88L702 896.348L674 797.756L646 896.348L657 909.88L649.216 931.083C613.435 925.476 576.635 924.082 542.001 922.77H541.999C514.132 921.714 487.667 920.711 464.263 917.61V876.718L492 875.083L475.118 829.653L492 818.054L452.206 688.531L410 818.054L426.882 829.653L410 879.916L444.969 877.855V914.384C409.122 906.924 383.086 891.933 374.529 859.464C358.29 797.843 306.32 742.678 248.571 706.148L285.33 674.909L225.005 522.855L262.227 488.242L180.082 241Z" fill="url(#paint0_linear)"/>
<defs>
<linearGradient id="paint0_linear" x1="960" y1="241" x2="960" y2="1080" gradientUnits="userSpaceOnUse">
<stop stop-color="#532D4A"/>
<stop offset="1" stop-color="#2A2342"/>
</linearGradient>
</defs>
</svg>
