<svg width="1920" height="1080" viewBox="0 0 1920 1080" fill="none" xmlns="http://www.w3.org/2000/svg">
<path d="M1514.56 752.65L1530.04 727L1548.27 752.65L1533.69 746.238V758.147L1548.27 782.881L1533.69 775.552V788.378L1551 819.524L1533.69 809.448V858H1526.4L1528.22 809.448L1510 819.524L1528.22 788.378V775.552L1514.56 782.881L1528.22 758.147V746.238L1514.56 752.65Z" fill="url(#paint0_linear)"/>
<path d="M1492.54 750L1479 801.822L1484.41 806.462L1479 826.572L1505.3 824.639L1499.88 806.462L1505.3 801.822L1492.54 750Z" fill="#2E2443"/>
<rect x="1490.21" y="820.385" width="6.18766" height="23.2037" fill="#2E2443"/>
<rect x="1216" y="896" width="96" height="27" fill="#592F4A"/>
<path d="M1007.56 869.65L1023.04 844L1041.27 869.65L1026.69 863.238V875.147L1041.27 899.881L1026.69 892.552V905.378L1044 936.524L1026.69 926.448V975H1019.4L1021.22 926.448L1003 936.524L1021.22 905.378V892.552L1007.56 899.881L1021.22 875.147V863.238L1007.56 869.65Z" fill="url(#paint1_linear)"/>
<path d="M1070.65 798L1048 884.706L1057.06 892.471L1048 926.118L1092 922.882L1082.94 892.471L1092 884.706L1070.65 798Z" fill="#2E2443"/>
<rect x="1066.77" y="915.766" width="10.3529" height="38.8235" fill="#2E2443"/>
<path d="M605.296 757L588 823.218L594.918 829.148L588 854.845L621.603 852.374L614.685 829.148L621.603 823.218L605.296 757Z" fill="#2E2443"/>
<rect x="602.332" y="846.938" width="7.90667" height="29.65" fill="#2E2443"/>
<path d="M955.333 907H1050.67L1058 923H948L955.333 907Z" fill="#2E2443"/>
<rect x="955" y="923" width="80.6667" height="48.4" fill="#4F2941"/>
<rect x="1034.93" y="923" width="16.1333" height="48.4" fill="#2E2443"/>
<rect x="971.746" y="939.334" width="16.1333" height="16.1333" fill="#F9DFCE"/>
<rect x="999.98" y="939.334" width="16.1333" height="16.1333" fill="#F9DFCE"/>
<path d="M1216.33 833H1311.67L1319 849H1209L1216.33 833Z" fill="#2E2443"/>
<rect x="1216" y="849" width="80.6667" height="48.4" fill="#4F2941"/>
<rect x="1295.93" y="849" width="16.1333" height="48.4" fill="#2E2443"/>
<rect x="1232.75" y="865.334" width="16.1333" height="16.1333" fill="#F9DFCE"/>
<rect x="1260.98" y="865.334" width="16.1333" height="16.1333" fill="#F9DFCE"/>
<path d="M845.333 891H940.667L948 907H838L845.333 891Z" fill="#2E2443"/>
<rect x="845" y="907" width="80.6667" height="48.4" fill="#4F2941"/>
<rect x="924.934" y="907" width="16.1333" height="48.4" fill="#2E2443"/>
<rect x="861.746" y="923.334" width="16.1333" height="16.1333" fill="#F9DFCE"/>
<rect x="889.98" y="923.334" width="16.1333" height="16.1333" fill="#F9DFCE"/>
<path d="M658.333 822H753.667L761 838H651L658.333 822Z" fill="#2E2443"/>
<rect x="658" y="838" width="80.6667" height="48.4" fill="#4F2941"/>
<rect x="737.934" y="838" width="16.1333" height="48.4" fill="#2E2443"/>
<rect x="674.746" y="854.334" width="16.1333" height="16.1333" fill="#F9DFCE"/>
<rect x="702.98" y="854.334" width="16.1333" height="16.1333" fill="#F9DFCE"/>
<path d="M426.333 811H521.667L529 827H419L426.333 811Z" fill="#2E2443"/>
<rect x="426" y="827" width="80.6667" height="48.4" fill="#4F2941"/>
<rect x="505.934" y="827" width="16.1333" height="48.4" fill="#2E2443"/>
<rect x="442.746" y="843.334" width="16.1333" height="16.1333" fill="#F9DFCE"/>
<rect x="470.98" y="843.334" width="16.1333" height="16.1333" fill="#F9DFCE"/>
<path fill-rule="evenodd" clip-rule="evenodd" d="M460.541 867.062C449.397 866.775 432.79 864.586 412.264 860.973L396.5 781L381.877 855.184C272.543 833.047 95.2414 785.373 0 758.42V1080H1920V728C1801.8 767.111 1552.43 841.422 1500.54 825.778C1447.71 809.851 1389.15 840.043 1351.71 865.883L1340.5 809L1325.49 885.145C1306.15 896.438 1260.1 904.455 1210.54 913.084C1185.41 917.457 1159.39 921.987 1135.49 927.18L1118.5 841L1099.76 936.058C1085.79 940.111 1073.49 944.584 1063.78 949.63C1001.08 982.222 918.919 956.148 804.324 904C799.049 901.599 793.71 899.346 788.315 897.232L772.5 817L758.681 887.105C698.574 869.356 633.879 865.955 575.757 865.954L563.5 805L551.207 866.131C540.8 866.27 530.675 866.472 520.903 866.667H520.903C498.669 867.111 478.267 867.518 460.541 867.062Z" fill="#683249"/>
<path fill-rule="evenodd" clip-rule="evenodd" d="M460.541 867.062C449.397 866.775 432.79 864.586 412.264 860.973L396.5 781L381.877 855.184C272.543 833.047 95.2414 785.373 0 758.42V1080H1920V728C1801.8 767.111 1552.43 841.422 1500.54 825.778C1447.71 809.851 1389.15 840.043 1351.71 865.883L1340.5 809L1325.49 885.145C1306.15 896.438 1260.1 904.455 1210.54 913.084C1185.41 917.457 1159.39 921.987 1135.49 927.18L1118.5 841L1099.76 936.058C1085.79 940.111 1073.49 944.584 1063.78 949.63C1001.08 982.222 918.919 956.148 804.324 904C799.049 901.599 793.71 899.346 788.315 897.232L772.5 817L758.681 887.105C698.574 869.356 633.879 865.955 575.757 865.954L563.5 805L551.207 866.131C540.8 866.27 530.675 866.472 520.903 866.667H520.903C498.669 867.111 478.267 867.518 460.541 867.062Z" fill="url(#paint2_linear)"/>
<defs>
<linearGradient id="paint0_linear" x1="1530.5" y1="727" x2="1530.5" y2="858" gradientUnits="userSpaceOnUse">
<stop stop-color="#532D4A"/>
<stop offset="0.245098" stop-color="#2A2342"/>
</linearGradient>
<linearGradient id="paint1_linear" x1="1023.5" y1="844" x2="1023.5" y2="975" gradientUnits="userSpaceOnUse">
<stop stop-color="#532D4A"/>
<stop offset="0.245098" stop-color="#2A2342"/>
</linearGradient>
<linearGradient id="paint2_linear" x1="960" y1="728" x2="960" y2="1080" gradientUnits="userSpaceOnUse">
<stop stop-color="#7C3649"/>
<stop offset="1" stop-color="#562E4A"/>
</linearGradient>
</defs>
</svg>
