<svg width="1920" height="1080" viewBox="0 0 1920 1080" fill="none" xmlns="http://www.w3.org/2000/svg">
<mask id="mask0" mask-type="alpha" maskUnits="userSpaceOnUse" x="0" y="474" width="1920" height="606">
<rect y="474" width="1920" height="606" fill="#C4C4C4"/>
</mask>
<g mask="url(#mask0)">
<path fill-rule="evenodd" clip-rule="evenodd" d="M1127.2 474L1118 509.21L1121.68 512.363L1118 526.027L1125.62 525.467V533.574C1088.5 540.027 1047.29 549.102 1010.87 557.122C972.345 565.605 939.174 572.909 921.861 574.687C894.678 577.479 854.033 571.565 811.4 565.362C779.739 560.755 746.981 555.989 717.824 554.51V545.157L723.868 544.713L720.189 532.363L723.868 529.21L715.197 494L706 529.21L709.679 532.363L706 546.027L713.62 545.466V554.319C711.085 554.218 708.579 554.143 706.107 554.097C691.839 553.834 652.562 556.875 598.453 561.964L596.189 554.363L599.868 551.21L591.197 516L582 551.21L585.679 554.363L583.243 563.411C522.226 569.276 445.132 577.375 364.618 586.147V581.631L368 581.382L365.941 574.471L368 572.706L363.147 553L358 572.706L360.059 574.471L358 582.118L362.265 581.804V586.404C359.863 586.665 357.457 586.928 355.049 587.191L353.941 583.471L356 581.706L351.147 562L346 581.706L348.059 583.471L346.815 588.091C293.97 593.877 240.064 599.9 188.618 605.725V600.631L192 600.382L189.941 593.471L192 591.706L187.147 572L182 591.706L184.059 593.471L182 601.118L186.265 600.804V605.991C150.427 610.051 115.813 614.012 83.6182 617.725V613.631L87 613.382L84.9412 606.471L87 604.706L82.1471 585L77 604.706L79.0588 606.471L77 614.118L81.2653 613.804V617.996C51.8022 621.396 24.4049 624.584 0 627.447V935H1920V590.129C1882.34 585.923 1824.82 579.359 1769.94 572.823V567.357L1774 567.059L1771.53 558.765L1774 556.647L1768.18 533L1762 556.647L1764.47 558.765L1762 567.941L1767.12 567.565V572.487C1745.41 569.898 1724.18 567.32 1704.82 564.901V555.157L1710.87 554.713L1707.19 542.363L1710.87 539.21L1702.2 504L1693 539.21L1696.68 542.363L1693 556.027L1700.62 555.466V564.374C1666.96 560.148 1639.45 556.45 1625.79 554.097C1573.48 545.088 1453.62 554.097 1407.85 563.106C1388.14 566.986 1361.16 562.034 1331.94 554.521V548.357L1336 548.059L1333.53 539.765L1336 537.647L1330.18 514L1324 537.647L1326.47 539.765L1324 548.941L1329.12 548.565V553.789C1325.27 552.782 1321.38 551.735 1317.47 550.661L1316.19 546.363L1319.87 543.21L1311.2 508L1302 543.21L1305.68 546.363L1305.43 547.305C1302.4 546.452 1299.37 545.592 1296.33 544.732L1296.26 544.712C1268.39 536.811 1240.34 528.858 1216.07 525.787C1196.81 523.35 1165.39 526.811 1129.82 532.852V525.157L1135.87 524.713L1132.19 512.363L1135.87 509.21L1127.2 474Z" fill="#683249"/>
<path fill-rule="evenodd" clip-rule="evenodd" d="M1127.2 474L1118 509.21L1121.68 512.363L1118 526.027L1125.62 525.467V533.574C1088.5 540.027 1047.29 549.102 1010.87 557.122C972.345 565.605 939.174 572.909 921.861 574.687C894.678 577.479 854.033 571.565 811.4 565.362C779.739 560.755 746.981 555.989 717.824 554.51V545.157L723.868 544.713L720.189 532.363L723.868 529.21L715.197 494L706 529.21L709.679 532.363L706 546.027L713.62 545.466V554.319C711.085 554.218 708.579 554.143 706.107 554.097C691.839 553.834 652.562 556.875 598.453 561.964L596.189 554.363L599.868 551.21L591.197 516L582 551.21L585.679 554.363L583.243 563.411C522.226 569.276 445.132 577.375 364.618 586.147V581.631L368 581.382L365.941 574.471L368 572.706L363.147 553L358 572.706L360.059 574.471L358 582.118L362.265 581.804V586.404C359.863 586.665 357.457 586.928 355.049 587.191L353.941 583.471L356 581.706L351.147 562L346 581.706L348.059 583.471L346.815 588.091C293.97 593.877 240.064 599.9 188.618 605.725V600.631L192 600.382L189.941 593.471L192 591.706L187.147 572L182 591.706L184.059 593.471L182 601.118L186.265 600.804V605.991C150.427 610.051 115.813 614.012 83.6182 617.725V613.631L87 613.382L84.9412 606.471L87 604.706L82.1471 585L77 604.706L79.0588 606.471L77 614.118L81.2653 613.804V617.996C51.8022 621.396 24.4049 624.584 0 627.447V935H1920V590.129C1882.34 585.923 1824.82 579.359 1769.94 572.823V567.357L1774 567.059L1771.53 558.765L1774 556.647L1768.18 533L1762 556.647L1764.47 558.765L1762 567.941L1767.12 567.565V572.487C1745.41 569.898 1724.18 567.32 1704.82 564.901V555.157L1710.87 554.713L1707.19 542.363L1710.87 539.21L1702.2 504L1693 539.21L1696.68 542.363L1693 556.027L1700.62 555.466V564.374C1666.96 560.148 1639.45 556.45 1625.79 554.097C1573.48 545.088 1453.62 554.097 1407.85 563.106C1388.14 566.986 1361.16 562.034 1331.94 554.521V548.357L1336 548.059L1333.53 539.765L1336 537.647L1330.18 514L1324 537.647L1326.47 539.765L1324 548.941L1329.12 548.565V553.789C1325.27 552.782 1321.38 551.735 1317.47 550.661L1316.19 546.363L1319.87 543.21L1311.2 508L1302 543.21L1305.68 546.363L1305.43 547.305C1302.4 546.452 1299.37 545.592 1296.33 544.732L1296.26 544.712C1268.39 536.811 1240.34 528.858 1216.07 525.787C1196.81 523.35 1165.39 526.811 1129.82 532.852V525.157L1135.87 524.713L1132.19 512.363L1135.87 509.21L1127.2 474Z" fill="url(#paint0_linear)"/>
</g>
<path d="M300.234 579H342.275L345.509 586.056H297L300.234 579Z" fill="#2E2443"/>
<rect x="300.086" y="586.056" width="35.5735" height="21.3441" fill="#4F2941"/>
<rect x="335.336" y="586.056" width="7.11471" height="21.3441" fill="#2E2443"/>
<rect x="307.473" y="593.259" width="7.11471" height="7.11471" fill="#F9DFCE"/>
<rect x="319.926" y="593.259" width="7.11471" height="7.11471" fill="#F9DFCE"/>
<path d="M104.234 600H146.275L149.509 607.056H101L104.234 600Z" fill="#2E2443"/>
<rect x="104.086" y="607.056" width="35.5735" height="21.3441" fill="#4F2941"/>
<rect x="139.336" y="607.056" width="7.11471" height="21.3441" fill="#2E2443"/>
<rect x="111.473" y="614.259" width="7.11471" height="7.11471" fill="#F9DFCE"/>
<rect x="123.926" y="614.259" width="7.11471" height="7.11471" fill="#F9DFCE"/>
<path d="M265.234 603H307.275L310.509 610.056H262L265.234 603Z" fill="#2E2443"/>
<rect x="265.086" y="610.056" width="35.5735" height="21.3441" fill="#4F2941"/>
<rect x="300.336" y="610.056" width="7.11471" height="21.3441" fill="#2E2443"/>
<rect x="272.473" y="617.259" width="7.11471" height="7.11471" fill="#F9DFCE"/>
<rect x="284.926" y="617.259" width="7.11471" height="7.11471" fill="#F9DFCE"/>
<path d="M585.234 551H627.275L630.509 558.056H582L585.234 551Z" fill="#2E2443"/>
<rect x="585.086" y="558.056" width="35.5735" height="21.3441" fill="#4F2941"/>
<rect x="620.336" y="558.056" width="7.11471" height="21.3441" fill="#2E2443"/>
<rect x="592.473" y="565.259" width="7.11471" height="7.11471" fill="#F9DFCE"/>
<rect x="604.926" y="565.259" width="7.11471" height="7.11471" fill="#F9DFCE"/>
<path d="M643.234 539H685.275L688.509 546.056H640L643.234 539Z" fill="#2E2443"/>
<rect x="643.086" y="546.056" width="35.5735" height="21.3441" fill="#4F2941"/>
<rect x="678.336" y="546.056" width="7.11471" height="21.3441" fill="#2E2443"/>
<rect x="650.473" y="553.259" width="7.11471" height="7.11471" fill="#F9DFCE"/>
<rect x="662.926" y="553.259" width="7.11471" height="7.11471" fill="#F9DFCE"/>
<path d="M1143.23 535H1185.28L1188.51 542.056H1140L1143.23 535Z" fill="#2E2443"/>
<rect x="1143.09" y="542.056" width="35.5735" height="21.3441" fill="#4F2941"/>
<rect x="1178.34" y="542.056" width="7.11471" height="21.3441" fill="#2E2443"/>
<rect x="1150.47" y="549.259" width="7.11471" height="7.11471" fill="#F9DFCE"/>
<rect x="1162.93" y="549.259" width="7.11471" height="7.11471" fill="#F9DFCE"/>
<path d="M1215.23 543H1257.28L1260.51 550.056H1212L1215.23 543Z" fill="#2E2443"/>
<rect x="1215.09" y="550.056" width="35.5735" height="21.3441" fill="#4F2941"/>
<rect x="1250.34" y="550.056" width="7.11471" height="21.3441" fill="#2E2443"/>
<rect x="1222.47" y="557.259" width="7.11471" height="7.11471" fill="#F9DFCE"/>
<rect x="1234.93" y="557.259" width="7.11471" height="7.11471" fill="#F9DFCE"/>
<path d="M1486.23 535H1528.28L1531.51 542.056H1483L1486.23 535Z" fill="#2E2443"/>
<rect x="1486.09" y="542.056" width="35.5735" height="21.3441" fill="#4F2941"/>
<rect x="1521.34" y="542.056" width="7.11471" height="21.3441" fill="#2E2443"/>
<rect x="1493.47" y="549.259" width="7.11471" height="7.11471" fill="#F9DFCE"/>
<rect x="1505.93" y="549.259" width="7.11471" height="7.11471" fill="#F9DFCE"/>
<path d="M1450.23 553H1492.28L1495.51 560.056H1447L1450.23 553Z" fill="#2E2443"/>
<rect x="1450.09" y="560.056" width="35.5735" height="21.3441" fill="#4F2941"/>
<rect x="1485.34" y="560.056" width="7.11471" height="21.3441" fill="#2E2443"/>
<rect x="1457.47" y="567.259" width="7.11471" height="7.11471" fill="#F9DFCE"/>
<rect x="1469.93" y="567.259" width="7.11471" height="7.11471" fill="#F9DFCE"/>
<path d="M1543.23 539H1585.28L1588.51 546.056H1540L1543.23 539Z" fill="#2E2443"/>
<rect x="1543.09" y="546.056" width="35.5735" height="21.3441" fill="#4F2941"/>
<rect x="1578.34" y="546.056" width="7.11471" height="21.3441" fill="#2E2443"/>
<rect x="1550.47" y="553.259" width="7.11471" height="7.11471" fill="#F9DFCE"/>
<rect x="1562.93" y="553.259" width="7.11471" height="7.11471" fill="#F9DFCE"/>
<rect x="1281" y="594" width="60" height="50" fill="#4F2941"/>
<path d="M1291 586.5H1331L1336 594H1286L1291 586.5Z" fill="#4F2941"/>
<rect x="1341" y="594" width="15" height="50" fill="#2E2443"/>
<path d="M1330.5 586.5H1346L1351 594H1335.5L1330.5 586.5Z" fill="#2E2443"/>
<rect x="1462" y="594" width="60" height="50" fill="#4F2941"/>
<path d="M1472 586.5H1512L1517 594H1467L1472 586.5Z" fill="#4F2941"/>
<rect x="1522" y="594" width="15" height="50" fill="#2E2443"/>
<path d="M1511.5 586.5H1527L1532 594H1516.5L1511.5 586.5Z" fill="#2E2443"/>
<rect x="1378" y="589" width="17" height="55" fill="#4F2941"/>
<rect x="1395" y="589" width="9" height="55" fill="#2E2443"/>
<path d="M1416 589H1431V644H1416V589Z" fill="#4F2941"/>
<rect x="1431" y="589" width="10" height="55" fill="#2E2443"/>
<rect x="1369" y="576" width="83" height="13" fill="#2E2443"/>
<rect x="1369" y="579" width="80" height="10" fill="#4F2941"/>
<rect x="1364" y="569" width="90" height="7.5" fill="#4F2941"/>
<defs>
<linearGradient id="paint0_linear" x1="960" y1="474" x2="960" y2="935" gradientUnits="userSpaceOnUse">
<stop stop-color="#7C3649"/>
<stop offset="1" stop-color="#562E4A"/>
</linearGradient>
</defs>
</svg>
