<svg width="1920" height="1080" viewBox="0 0 1920 1080" fill="none" xmlns="http://www.w3.org/2000/svg">
<mask id="mask0" mask-type="alpha" maskUnits="userSpaceOnUse" x="0" y="374" width="1920" height="706">
<rect y="374" width="1920" height="706" fill="#C4C4C4"/>
</mask>
<g mask="url(#mask0)">
<rect x="714.547" y="565" width="4.18182" height="25.0909" fill="#2E2443"/>
<rect x="702" y="585.908" width="16.7273" height="177.727" fill="#72424F"/>
<rect x="718.727" y="585.908" width="6.27273" height="177.727" fill="#643945"/>
<rect x="387" y="479" width="35.5" height="213" fill="#72424F"/>
<rect x="422.5" y="479" width="56.8" height="213" fill="#643945"/>
<rect x="397.648" y="486.1" width="14.2" height="42.6" fill="#F9DFCE"/>
<rect x="433.148" y="486.1" width="14.2" height="42.6" fill="#F9DFCE"/>
<rect x="454.449" y="486.1" width="14.2" height="42.6" fill="#F9DFCE"/>
<rect x="397.648" y="535.801" width="14.2" height="142" fill="#F9DFCE"/>
<rect x="433.148" y="535.801" width="14.2" height="142" fill="#F9DFCE"/>
<rect x="454.449" y="535.801" width="14.2" height="142" fill="#F9DFCE"/>
<rect x="1060" y="581" width="99.75" height="178.5" fill="#583741"/>
<rect x="1060" y="596.75" width="99.75" height="15.75" fill="#643945"/>
<rect x="1060" y="628.25" width="99.75" height="15.75" fill="#643945"/>
<rect x="1060" y="659.75" width="99.75" height="15.75" fill="#643945"/>
<rect x="1060" y="691.25" width="99.75" height="15.75" fill="#643945"/>
<rect x="1060" y="722.75" width="99.75" height="15.75" fill="#643945"/>
<rect x="1159.75" y="581" width="68.25" height="178.5" fill="#643945"/>
<rect x="1159.75" y="596.75" width="68.25" height="15.75" fill="#7A4E5A"/>
<rect x="1159.75" y="628.25" width="68.25" height="15.75" fill="#7A4E5A"/>
<rect x="1159.75" y="659.75" width="68.25" height="15.75" fill="#7A4E5A"/>
<rect x="1159.75" y="691.25" width="68.25" height="15.75" fill="#7A4E5A"/>
<rect x="1159.75" y="722.75" width="68.25" height="15.75" fill="#7A4E5A"/>
<rect x="576" y="576.887" width="41.4684" height="225.114" fill="#643945"/>
<rect x="617.469" y="576.887" width="8.88608" height="225.114" fill="#72424F"/>
<rect x="626.355" y="576.887" width="8.88608" height="225.114" fill="#7A4E5A"/>
<rect x="617.469" y="568" width="8.88608" height="8.88608" fill="#72424F"/>
<rect x="587.848" y="568" width="29.6203" height="8.88608" fill="#643945"/>
<rect x="581.926" y="582.811" width="29.6203" height="23.6962" fill="#F9DFCE"/>
<rect x="581.926" y="612.43" width="29.6203" height="23.6962" fill="#F9DFCE"/>
<rect x="581.926" y="642.051" width="29.6203" height="23.6962" fill="#F9DFCE"/>
<rect x="581.926" y="671.67" width="29.6203" height="23.6962" fill="#F9DFCE"/>
<rect x="581.926" y="701.291" width="29.6203" height="23.6962" fill="#F9DFCE"/>
<rect x="581.926" y="730.912" width="29.6203" height="23.6962" fill="#F9DFCE"/>
<rect x="581.926" y="760.531" width="29.6203" height="23.6962" fill="#F9DFCE"/>
<rect x="503.535" y="537.184" width="58.1169" height="215.816" fill="#72424F"/>
<rect x="445.418" y="537.184" width="58.1169" height="215.816" fill="#643945"/>
<rect x="480.285" y="546.773" width="11.6234" height="14.3877" fill="#F9DFCE"/>
<rect x="460.918" y="546.773" width="11.6234" height="14.3877" fill="#F9DFCE"/>
<rect x="480.285" y="575.553" width="11.6234" height="14.3877" fill="#F9DFCE"/>
<rect x="460.918" y="575.553" width="11.6234" height="14.3877" fill="#F9DFCE"/>
<rect x="480.285" y="604.326" width="11.6234" height="14.3877" fill="#F9DFCE"/>
<rect x="460.918" y="604.326" width="11.6234" height="14.3877" fill="#F9DFCE"/>
<rect x="480.285" y="633.102" width="11.6234" height="14.3877" fill="#F9DFCE"/>
<rect x="460.918" y="633.102" width="11.6234" height="14.3877" fill="#F9DFCE"/>
<rect x="480.285" y="661.877" width="11.6234" height="14.3877" fill="#F9DFCE"/>
<rect x="460.918" y="661.877" width="11.6234" height="14.3877" fill="#F9DFCE"/>
<rect x="480.285" y="690.652" width="11.6234" height="14.3877" fill="#F9DFCE"/>
<rect x="460.918" y="690.652" width="11.6234" height="14.3877" fill="#F9DFCE"/>
<rect x="480.285" y="719.428" width="11.6234" height="14.3877" fill="#F9DFCE"/>
<rect x="460.918" y="719.428" width="11.6234" height="14.3877" fill="#F9DFCE"/>
<rect x="538.402" y="546.773" width="11.6234" height="14.3877" fill="#F9DFCE"/>
<rect x="519.035" y="546.773" width="11.6234" height="14.3877" fill="#F9DFCE"/>
<rect x="538.402" y="575.553" width="11.6234" height="14.3877" fill="#F9DFCE"/>
<rect x="519.035" y="575.553" width="11.6234" height="14.3877" fill="#F9DFCE"/>
<rect x="538.402" y="604.326" width="11.6234" height="14.3877" fill="#F9DFCE"/>
<rect x="519.035" y="604.326" width="11.6234" height="14.3877" fill="#F9DFCE"/>
<rect x="538.402" y="633.102" width="11.6234" height="14.3877" fill="#F9DFCE"/>
<rect x="519.035" y="633.102" width="11.6234" height="14.3877" fill="#F9DFCE"/>
<rect x="538.402" y="661.877" width="11.6234" height="14.3877" fill="#F9DFCE"/>
<rect x="519.035" y="661.877" width="11.6234" height="14.3877" fill="#F9DFCE"/>
<rect x="538.402" y="690.652" width="11.6234" height="14.3877" fill="#F9DFCE"/>
<rect x="519.035" y="690.652" width="11.6234" height="14.3877" fill="#F9DFCE"/>
<rect x="538.402" y="719.428" width="11.6234" height="14.3877" fill="#F9DFCE"/>
<rect x="519.035" y="719.428" width="11.6234" height="14.3877" fill="#F9DFCE"/>
<rect x="468.668" y="518" width="34.8702" height="19.1837" fill="#4F2941"/>
<rect x="503.535" y="518" width="34.8702" height="19.1837" fill="#2E2443"/>
<rect width="39.176" height="280.762" transform="matrix(-1 0 0 1 835.766 537.795)" fill="#643945"/>
<rect width="19.588" height="280.762" transform="matrix(-1 0 0 1 796.586 537.795)" fill="#7A4E5A"/>
<rect width="19.588" height="32.6467" transform="matrix(-1 0 0 1 825.969 547.588)" fill="#F9DFCE"/>
<rect width="19.588" height="9.79401" transform="matrix(-1 0 0 1 825.969 590.029)" fill="#F9DFCE"/>
<rect width="19.588" height="29.382" transform="matrix(-1 0 0 1 825.969 612.881)" fill="#F9DFCE"/>
<rect width="19.588" height="156.704" transform="matrix(-1 0 0 1 825.969 655.322)" fill="#F9DFCE"/>
<rect width="29.382" height="9.79401" transform="matrix(-1 0 0 1 825.969 528)" fill="#583741"/>
<rect width="13.0587" height="9.79401" transform="matrix(-1 0 0 1 796.586 528)" fill="#72424F"/>
<rect x="987" y="547.795" width="39.176" height="280.762" fill="#643945"/>
<rect x="1026.18" y="547.795" width="19.588" height="280.762" fill="#7A4E5A"/>
<rect x="996.797" y="557.588" width="19.588" height="32.6467" fill="#F9DFCE"/>
<rect x="996.797" y="600.029" width="19.588" height="9.79401" fill="#F9DFCE"/>
<rect x="996.797" y="622.881" width="19.588" height="29.382" fill="#F9DFCE"/>
<rect x="996.797" y="665.322" width="19.588" height="156.704" fill="#F9DFCE"/>
<rect x="996.797" y="538" width="29.382" height="9.79401" fill="#583741"/>
<rect x="1026.18" y="538" width="13.0587" height="9.79401" fill="#72424F"/>
<rect x="585" y="726.1" width="53.82" height="37.44" fill="#72424F"/>
<rect x="592.02" y="733.119" width="7.02" height="23.4" fill="#F9DFCE"/>
<rect x="608.398" y="733.119" width="7.02" height="23.4" fill="#F9DFCE"/>
<rect x="624.781" y="733.119" width="7.02" height="23.4" fill="#F9DFCE"/>
<rect x="638.82" y="726.1" width="63.18" height="37.44" fill="#643945"/>
<rect x="610.738" y="698.02" width="53.82" height="28.08" fill="#72424F"/>
<rect x="664.559" y="698.02" width="37.44" height="28.08" fill="#643945"/>
<rect x="648.18" y="691" width="53.82" height="7.02" fill="#643945"/>
<rect x="594.359" y="691" width="53.82" height="7.02" fill="#72424F"/>
<rect x="617.762" y="705.039" width="7.02" height="11.7" fill="#F9DFCE"/>
<rect x="634.141" y="705.039" width="7.02" height="11.7" fill="#F9DFCE"/>
<rect x="650.52" y="705.039" width="7.02" height="11.7" fill="#F9DFCE"/>
<rect x="671.578" y="705.039" width="7.02" height="11.7" fill="#F9DFCE"/>
<rect x="687.961" y="705.039" width="7.02" height="11.7" fill="#F9DFCE"/>
<path fill-rule="evenodd" clip-rule="evenodd" d="M871.503 566.068H865.289V700.706H871.503V644.78H894.286V640.637H871.503V595.068H894.289V700.707H900.503V566.069H894.289V590.925H871.503V566.068Z" fill="url(#paint0_linear)"/>
<path fill-rule="evenodd" clip-rule="evenodd" d="M857 553.641V562.847C863.197 566.471 876.543 573.518 882.889 574.286V574.354C883.056 574.354 883.23 574.348 883.411 574.336C883.59 574.348 883.762 574.354 883.928 574.354V574.286C890.274 573.519 903.62 566.471 909.817 562.847V553.641H883.928V553.641H857Z" fill="#7A4E5A"/>
<path fill-rule="evenodd" clip-rule="evenodd" d="M909.82 549.498V543.054C903.623 540.517 890.277 535.584 883.931 535.046V534.998C883.764 534.998 883.59 535.003 883.408 535.011C883.23 535.003 883.058 534.999 882.893 534.999V535.046C876.547 535.583 863.201 540.517 857.004 543.053V549.498H882.893V549.498H909.82Z" fill="#7A4E5A"/>
<rect x="881.855" y="483.215" width="4.1427" height="53.8551" fill="#7A4E5A"/>
<circle cx="883.928" cy="481.143" r="4.1427" fill="#F9DFCE"/>
<path fill-rule="evenodd" clip-rule="evenodd" d="M958.265 521.578H955.738V567.731L940.578 575.894V740.104H956.999L956.999 740.105H973.42V575.894L958.265 567.734V521.578Z" fill="#7A4E5A"/>
<rect x="933" y="582.211" width="15.1579" height="159.158" fill="#643945"/>
<rect x="955.738" y="582.211" width="25.2632" height="159.158" fill="#643945"/>
<circle cx="957" cy="517.789" r="3.78947" fill="#F9DFCE"/>
<rect width="41.4684" height="225.114" transform="matrix(-1 0 0 1 787.242 552.887)" fill="#643945"/>
<rect width="8.88608" height="225.114" transform="matrix(-1 0 0 1 745.773 552.887)" fill="#72424F"/>
<rect width="8.88608" height="225.114" transform="matrix(-1 0 0 1 736.887 552.887)" fill="#7A4E5A"/>
<rect width="8.88608" height="8.88608" transform="matrix(-1 0 0 1 745.773 544)" fill="#72424F"/>
<rect width="29.6203" height="8.88608" transform="matrix(-1 0 0 1 775.395 544)" fill="#643945"/>
<rect width="29.6203" height="23.6962" transform="matrix(-1 0 0 1 781.316 558.811)" fill="#F9DFCE"/>
<rect width="29.6203" height="23.6962" transform="matrix(-1 0 0 1 781.316 588.43)" fill="#F9DFCE"/>
<rect width="29.6203" height="23.6962" transform="matrix(-1 0 0 1 781.316 618.051)" fill="#F9DFCE"/>
<rect width="29.6203" height="23.6962" transform="matrix(-1 0 0 1 781.316 647.67)" fill="#F9DFCE"/>
<rect width="29.6203" height="23.6962" transform="matrix(-1 0 0 1 781.316 677.291)" fill="#F9DFCE"/>
<rect width="29.6203" height="23.6962" transform="matrix(-1 0 0 1 781.316 706.912)" fill="#F9DFCE"/>
<rect width="29.6203" height="23.6962" transform="matrix(-1 0 0 1 781.316 736.531)" fill="#F9DFCE"/>
<path d="M1068 707H1400V734H1376V761H1092V734H1068V707Z" fill="#4F2941"/>
<rect x="1068" y="709" width="120" height="24" fill="#7A4E5A"/>
<rect x="1092" y="737" width="96" height="24" fill="#7A4E5A"/>
<rect width="120" height="24" transform="matrix(-1 0 0 1 1384 709)" fill="#7A4E5A"/>
<rect width="96" height="24" transform="matrix(-1 0 0 1 1360 737)" fill="#7A4E5A"/>
<path d="M1164 679H1295L1321 708H1130.5L1164 679Z" fill="#4F2941"/>
<path d="M1133.2 705L1119.2 697.099C1119.2 697.099 1152.69 672.727 1177.6 671.099C1194.86 669.971 1221.2 678.899 1221.2 678.899L1203.4 701.099V705H1133.2Z" fill="#7A4E5A"/>
<path d="M1317.6 705L1331.6 697.099C1331.6 697.099 1298.11 672.727 1273.2 671.099C1255.94 669.971 1229.6 678.899 1229.6 678.899L1247.4 701.099V705H1317.6Z" fill="#7A4E5A"/>
<path d="M1225.44 689.801L1234 700.601H1216.8L1225.44 689.801Z" fill="#7A4E5A"/>
<path d="M1250 737H1202L1198 761H1254L1250 737Z" fill="#7A4E5A"/>
<path d="M1242 713H1210L1206 733H1246L1242 713Z" fill="#7A4E5A"/>
<rect x="1368" y="737" width="8" height="24" fill="#4F2941"/>
<rect x="1392" y="709" width="8" height="24" fill="#4F2941"/>
<rect x="1192" y="709" width="8" height="24" fill="#4F2941"/>
<path d="M1192 737H1198.4L1194.4 761H1192V737Z" fill="#4F2941"/>
<rect x="1343" y="761" width="33" height="11" fill="#592F4A"/>
<rect x="792" y="671.461" width="213" height="76.68" fill="#7A4E5A"/>
<path d="M852.352 690.631H858.387V726.841H852.352V690.631Z" fill="#4F2941"/>
<path d="M876.488 690.631H882.523V726.841H876.488V690.631Z" fill="#4F2941"/>
<path d="M900.629 690.631H906.664V726.841H900.629V690.631Z" fill="#4F2941"/>
<path d="M924.77 690.631H930.805V726.841H924.77V690.631Z" fill="#4F2941"/>
<rect x="792" y="690.631" width="42.245" height="36.21" fill="#4F2941"/>
<rect x="954.945" y="690.631" width="42.245" height="36.21" fill="#4F2941"/>
<rect x="792" y="732.875" width="42.245" height="12.07" fill="#4F2941"/>
<rect x="954.945" y="732.875" width="42.245" height="12.07" fill="#4F2941"/>
<path d="M846.316 732.875H942.876L948.911 744.945H840.281L846.316 732.875Z" fill="#4F2941"/>
<rect x="792" y="672.525" width="42.245" height="12.07" fill="#4F2941"/>
<rect x="840.281" y="678.561" width="102.595" height="6.035" fill="#4F2941"/>
<rect x="954.945" y="672.525" width="42.245" height="12.07" fill="#4F2941"/>
<path d="M897.259 653L924.417 671.46H870.102L891.402 653H897.259Z" fill="#7A4E5A"/>
<path d="M891.579 653L918.737 671.46H864.422L891.579 653Z" fill="#4F2941"/>
<path d="M377.026 650.042C326.465 647.379 104.608 773.188 0 836.425V1116H1920V699.966C1785.61 729.921 1491.78 797.342 1399.14 778.181C1362 770.5 1346 745 1235.5 756C1127.08 766.793 1062.5 752 1019.5 747C956.218 739.642 880.234 712.235 742 756C612.5 797 440.227 653.37 377.026 650.042Z" fill="url(#paint1_linear)"/>
<path d="M881 484V478L930.5 451V516L881 484Z" fill="url(#paint2_linear)"/>
<path d="M879.5 484V478L830 451V516L879.5 484Z" fill="url(#paint3_linear)"/>
</g>
<defs>
<linearGradient id="paint0_linear" x1="882.896" y1="566.068" x2="882.896" y2="700.707" gradientUnits="userSpaceOnUse">
<stop stop-color="#643945"/>
<stop offset="0.307292" stop-color="#7A4E5A"/>
</linearGradient>
<linearGradient id="paint1_linear" x1="960" y1="650" x2="960" y2="1116" gradientUnits="userSpaceOnUse">
<stop stop-color="#A25254"/>
<stop offset="0.3125" stop-color="#994E53"/>
<stop offset="0.447917" stop-color="#914953"/>
<stop offset="0.552083" stop-color="#8C4752"/>
<stop offset="1" stop-color="#703850"/>
</linearGradient>
<linearGradient id="paint2_linear" x1="883" y1="481.5" x2="926.5" y2="481.5" gradientUnits="userSpaceOnUse">
<stop stop-color="#F9DFCE"/>
<stop offset="1" stop-color="#F9DFCE" stop-opacity="0"/>
</linearGradient>
<linearGradient id="paint3_linear" x1="877.5" y1="481.5" x2="834" y2="481.5" gradientUnits="userSpaceOnUse">
<stop stop-color="#F9DFCE"/>
<stop offset="1" stop-color="#F9DFCE" stop-opacity="0"/>
</linearGradient>
</defs>
</svg>
