<svg width="1920" height="1080" viewBox="0 0 1920 1080" fill="none" xmlns="http://www.w3.org/2000/svg">
<mask id="mask0" mask-type="alpha" maskUnits="userSpaceOnUse" x="0" y="0" width="1920" height="1080">
<rect width="1920" height="1080" fill="#C4C4C4"/>
</mask>
<g mask="url(#mask0)">
<path d="M459 208.094C449.4 206.494 445 213.761 444 217.594H688C682.4 201.594 667.667 202.594 661 205.094C657 191.894 642.667 188.927 636 189.094C630.4 169.094 615 170.427 608 173.594C601.333 163.76 578.6 144.494 541 146.094C503.4 147.694 486 182.761 482 200.094C468.8 193.694 461.167 202.761 459 208.094Z" fill="#BF635E"/>
<path d="M145.861 119.489C135.355 117.577 131.576 123.7 131 127H300C295.576 114.163 284.563 116.644 279.609 119.489C276.292 113.48 269.472 112.206 266.476 112.319C262.329 105.605 248.782 91.4253 227.769 88.4209C206.756 85.4165 191.365 99.232 186.297 106.515C164.178 94.4978 150.123 110.157 145.861 119.489Z" fill="#A45A68"/>
<path d="M1162.87 153.967C1170.99 152.208 1175.67 155.923 1177 158H1018C1022.64 150.375 1032.73 150.424 1037.2 151.401C1047.34 126.473 1070.64 132.461 1081.02 138.57C1084.88 133.683 1097.17 124.64 1115.43 127.573C1133.68 130.505 1143.56 144.68 1146.21 151.401C1152.3 149.348 1159.86 152.257 1162.87 153.967Z" fill="#A55B69"/>
<path d="M1647 249.269C1638.6 248.069 1632.17 252.769 1630 255.269H1849.5C1843.9 233.269 1825.17 235.769 1816.5 239.769C1809.3 229.769 1797.83 232.268 1793 234.768C1774.01 180.302 1738.04 185.263 1709.05 189.261L1709 189.269C1685.8 192.469 1669 220.935 1663.5 234.768C1649.1 231.568 1646.5 243.102 1647 249.269Z" fill="#BF635E"/>
</g>
</svg>
