<svg width="3840" height="1080" viewBox="0 0 3840 1080" fill="none" xmlns="http://www.w3.org/2000/svg">
<mask id="mask0" style="mask-type:alpha" maskUnits="userSpaceOnUse" x="0" y="0" width="3840" height="1080">
<rect width="3840" height="1080" fill="#C4C4C4"/>
</mask>
<g mask="url(#mask0)">
<rect width="3840" height="950" fill="url(#paint0_radial)"/>
<path d="M68.7512 -12.9821C68.9024 -13.1443 69.1961 -13.2471 69.5525 -13.2627L244.554 -20.918C245.019 -20.9384 245.518 -20.8074 245.834 -20.582L346.322 51.1742C346.638 51.3996 346.713 51.6788 346.516 51.8906L272.275 131.496C272.123 131.658 271.83 131.761 271.473 131.776L96.4722 139.432C96.0068 139.452 95.5079 139.321 95.1922 139.096L-5.29626 67.3395C-5.61192 67.1141 -5.68741 66.8349 -5.48995 66.6232L68.7512 -12.9821Z" fill="white" fill-opacity="0.02"/>
<path d="M3196.75 -50.9821C3196.9 -51.1443 3197.2 -51.2471 3197.55 -51.2627L3372.55 -58.918C3373.02 -58.9384 3373.52 -58.8074 3373.83 -58.582L3474.32 13.1742C3474.64 13.3996 3474.71 13.6788 3474.52 13.8906L3400.27 93.4959C3400.12 93.658 3399.83 93.7608 3399.47 93.7764L3224.47 101.432C3224.01 101.452 3223.51 101.321 3223.19 101.096L3122.7 29.3395C3122.39 29.1141 3122.31 28.8349 3122.51 28.6232L3196.75 -50.9821Z" fill="white" fill-opacity="0.02"/>
<path d="M496.024 136.488C496.175 136.326 496.469 136.223 496.825 136.208L629.716 130.394C630.182 130.374 630.681 130.505 630.996 130.73L707.24 185.174C707.555 185.399 707.631 185.678 707.433 185.89L651.056 246.34C650.905 246.502 650.612 246.605 650.255 246.621L517.364 252.434C516.898 252.454 516.399 252.323 516.084 252.098L439.841 197.655C439.525 197.429 439.449 197.15 439.647 196.938L496.024 136.488Z" fill="white" fill-opacity="0.02"/>
<path d="M1494.19 63.4065C1494.67 63.4949 1495.03 63.7132 1495.12 63.9648L1512.63 114.945C1512.7 115.163 1512.56 115.373 1512.24 115.504L1432.51 148.651C1432.2 148.781 1431.76 148.814 1431.34 148.737L1334.29 130.829C1333.81 130.74 1333.45 130.522 1333.36 130.27L1315.85 79.2904C1315.78 79.0725 1315.92 78.862 1316.24 78.7315L1395.97 45.5842C1396.28 45.4537 1396.72 45.4211 1397.14 45.4977L1494.19 63.4065Z" fill="white" fill-opacity="0.02"/>
<path d="M2657.77 -18.6303C2657.92 -18.7924 2658.22 -18.8952 2658.57 -18.9108L2761.85 -23.4285C2762.31 -23.4489 2762.81 -23.3179 2763.13 -23.0925L2822.32 19.1742C2822.64 19.3997 2822.71 19.6788 2822.51 19.8906L2778.7 66.8688C2778.55 67.031 2778.26 67.1338 2777.9 67.1494L2674.62 71.6671C2674.16 71.6874 2673.66 71.5565 2673.34 71.3311L2614.15 29.0643C2613.84 28.8389 2613.76 28.5597 2613.96 28.348L2657.77 -18.6303Z" fill="white" fill-opacity="0.02"/>
<path d="M3709.77 127.37C3709.92 127.208 3710.22 127.105 3710.57 127.089L3813.85 122.571C3814.31 122.551 3814.81 122.682 3815.13 122.907L3874.32 165.174C3874.64 165.4 3874.71 165.679 3874.51 165.891L3830.7 212.869C3830.55 213.031 3830.26 213.134 3829.9 213.149L3726.62 217.667C3726.16 217.687 3725.66 217.556 3725.34 217.331L3666.15 175.064C3665.84 174.839 3665.76 174.56 3665.96 174.348L3709.77 127.37Z" fill="white" fill-opacity="0.02"/>
<path d="M989.214 -20.9299C989.366 -21.092 989.659 -21.1948 990.016 -21.2104L1060.99 -24.3153C1061.46 -24.3356 1061.96 -24.2047 1062.27 -23.9793L1102.87 5.0085C1103.18 5.2339 1103.26 5.51309 1103.06 5.72483L1072.95 38.0113C1072.8 38.1734 1072.51 38.2762 1072.15 38.2918L1001.17 41.3967C1000.71 41.417 1000.21 41.2861 999.892 41.0607L959.297 12.0729C958.982 11.8475 958.906 11.5683 959.104 11.3566L989.214 -20.9299Z" fill="white" fill-opacity="0.02"/>
<path d="M2795.72 88.0801C2795.9 88.0278 2796.1 88.0278 2796.28 88.0801L2807.4 91.2914C2807.83 91.4149 2808.12 91.8067 2808.12 92.2522V97.7478C2808.12 98.1933 2807.83 98.5851 2807.4 98.7086L2796.28 101.92C2796.1 101.972 2795.9 101.972 2795.72 101.92L2784.6 98.7086C2784.17 98.5851 2783.88 98.1933 2783.88 97.7478V92.2522C2783.88 91.8067 2784.17 91.4149 2784.6 91.2914L2795.72 88.0801Z" fill="white" fill-opacity="0.19"/>
<path d="M567.723 237.08C567.904 237.028 568.096 237.028 568.277 237.08L579.402 240.291C579.83 240.415 580.124 240.807 580.124 241.252V246.748C580.124 247.193 579.83 247.585 579.402 247.709L568.277 250.92C568.096 250.972 567.904 250.972 567.723 250.92L556.598 247.709C556.17 247.585 555.876 247.193 555.876 246.748V241.252C555.876 240.807 556.17 240.415 556.598 240.291L567.723 237.08Z" fill="white" fill-opacity="0.19"/>
<path d="M1739.72 194.08C1739.9 194.028 1740.1 194.028 1740.28 194.08L1751.4 197.291C1751.83 197.415 1752.12 197.807 1752.12 198.252V203.748C1752.12 204.193 1751.83 204.585 1751.4 204.709L1740.28 207.92C1740.1 207.972 1739.9 207.972 1739.72 207.92L1728.6 204.709C1728.17 204.585 1727.88 204.193 1727.88 203.748V198.252C1727.88 197.807 1728.17 197.415 1728.6 197.291L1739.72 194.08Z" fill="white" fill-opacity="0.19"/>
<path d="M3281.72 201.08C3281.9 201.028 3282.1 201.028 3282.28 201.08L3293.4 204.291C3293.83 204.415 3294.12 204.807 3294.12 205.252V210.748C3294.12 211.193 3293.83 211.585 3293.4 211.709L3282.28 214.92C3282.1 214.972 3281.9 214.972 3281.72 214.92L3270.6 211.709C3270.17 211.585 3269.88 211.193 3269.88 210.748V205.252C3269.88 204.807 3270.17 204.415 3270.6 204.291L3281.72 201.08Z" fill="white" fill-opacity="0.19"/>
<path d="M1288 102L1291.82 109.091L1306 111L1291.82 112.909L1288 120L1284.18 112.909L1270 111L1284.18 109.091L1288 102Z" fill="white" fill-opacity="0.17"/>
<path d="M3220 41L3223.82 48.0908L3238 50L3223.82 51.9092L3220 59L3216.18 51.9092L3202 50L3216.18 48.0908L3220 41Z" fill="white" fill-opacity="0.17"/>
<path d="M156 84L162.364 95.818L186 99L162.364 102.182L156 114L149.636 102.182L126 99L149.636 95.818L156 84Z" fill="white" fill-opacity="0.17"/>
<path d="M2712 324L2718.36 335.818L2742 339L2718.36 342.182L2712 354L2705.64 342.182L2682 339L2705.64 335.818L2712 324Z" fill="white" fill-opacity="0.17"/>
<path d="M3658 114L3664.36 125.818L3688 129L3664.36 132.182L3658 144L3651.64 132.182L3628 129L3651.64 125.818L3658 114Z" fill="white" fill-opacity="0.17"/>
<path d="M1930 39L1934.24 46.8787L1950 49L1934.24 51.1213L1930 59L1925.76 51.1213L1910 49L1925.76 46.8787L1930 39Z" fill="white" fill-opacity="0.17"/>
<path d="M1951 129L1953.33 133.333L1962 134.5L1953.33 135.667L1951 140L1948.67 135.667L1940 134.5L1948.67 133.333L1951 129Z" fill="white" fill-opacity="0.17"/>
<path d="M1345 238L1346.48 240.758L1352 241.5L1346.48 242.242L1345 245L1343.52 242.242L1338 241.5L1343.52 240.758L1345 238Z" fill="white" fill-opacity="0.17"/>
<path d="M933 114L934.485 116.758L940 117.5L934.485 118.242L933 121L931.515 118.242L926 117.5L931.515 116.758L933 114Z" fill="white" fill-opacity="0.17"/>
<path d="M1089 192L1091.33 196.727L1100 198L1091.33 199.273L1089 204L1086.67 199.273L1078 198L1086.67 196.727L1089 192Z" fill="white" fill-opacity="0.17"/>
<path d="M1077 59L1078.48 61.7575L1084 62.5L1078.48 63.2425L1077 66L1075.52 63.2425L1070 62.5L1075.52 61.7575L1077 59Z" fill="white" fill-opacity="0.17"/>
<path d="M738 59L740.546 64.1211L750 65.5L740.546 66.8789L738 72L735.454 66.8789L726 65.5L735.454 64.1211L738 59Z" fill="white" fill-opacity="0.17"/>
<path d="M769 163L770.485 165.758L776 166.5L770.485 167.242L769 170L767.515 167.242L762 166.5L767.515 165.758L769 163Z" fill="white" fill-opacity="0.17"/>
<path d="M2625 332L2626.48 334.758L2632 335.5L2626.48 336.242L2625 339L2623.52 336.242L2618 335.5L2623.52 334.758L2625 332Z" fill="white" fill-opacity="0.17"/>
</g>
<mask id="mask1" style="mask-type:alpha" maskUnits="userSpaceOnUse" x="960" y="0" width="1920" height="1080">
<rect x="960" width="1920" height="1080" fill="#C4C4C4"/>
</mask>
<g mask="url(#mask1)">
<circle cx="2048.5" cy="198.5" r="331.5" fill="url(#paint1_radial)"/>
<path d="M2136.66 229.121C2129.33 231.349 2121.55 232.547 2113.5 232.547C2069.59 232.547 2034 196.953 2034 153.047C2034 141.256 2036.57 130.063 2041.17 120C2026.33 133.275 2017 152.569 2017 174.047C2017 214.088 2049.46 246.547 2089.5 246.547C2107.5 246.547 2123.98 239.987 2136.66 229.121Z" fill="#FFBFC4"/>
</g>
<defs>
<radialGradient id="paint0_radial" cx="0" cy="0" r="1" gradientUnits="userSpaceOnUse" gradientTransform="translate(1920 -1014.59) rotate(90) scale(1964.59 7941.1)">
<stop offset="0.332553" stop-color="#2D325A"/>
<stop offset="0.411507" stop-color="#2F345C"/>
<stop offset="0.521197" stop-color="#32375F"/>
<stop offset="0.587832" stop-color="#3A4572"/>
<stop offset="0.663009" stop-color="#6E4F6E"/>
<stop offset="0.736477" stop-color="#90566F"/>
<stop offset="0.791612" stop-color="#AA5C6A"/>
<stop offset="0.845441" stop-color="#BD625E"/>
<stop offset="0.905482" stop-color="#D86B4A"/>
<stop offset="1" stop-color="#E6713B"/>
</radialGradient>
<radialGradient id="paint1_radial" cx="0" cy="0" r="1" gradientUnits="userSpaceOnUse" gradientTransform="translate(2048.5 198.5) rotate(90) scale(331.5)">
<stop stop-color="#99586D"/>
<stop offset="0.0625" stop-color="#9C596D" stop-opacity="0.75"/>
<stop offset="0.359375" stop-color="#A05A6C" stop-opacity="0.445833"/>
<stop offset="0.609375" stop-color="#A35A6B" stop-opacity="0.206606"/>
<stop offset="1" stop-color="#A55B6B" stop-opacity="0"/>
</radialGradient>
</defs>
</svg>
