<svg width="3840" height="1080" viewBox="0 0 3840 1080" fill="none" xmlns="http://www.w3.org/2000/svg">
<mask id="mask0" style="mask-type:alpha" maskUnits="userSpaceOnUse" x="0" y="0" width="3840" height="1080">
<rect width="3840" height="1080" fill="#C4C4C4"/>
</mask>
<g mask="url(#mask0)">
<path d="M0 745.996V1078H3840V797.996H3340V793.996H3336V789.996H3332V785.996H3328V781.996H3324V777.996H3320V773.996H3316V769.996H3312V765.996H3308V761.996H3304V757.996H3300V753.996H3296V749.996H3292V745.996H0Z" fill="#7F4051"/>
<rect x="1445.99" y="729.996" width="792" height="16" fill="#7F4051"/>
<path d="M2171.42 692.607C2171.42 708.863 2165.14 722.041 2157.39 722.041C2149.65 722.041 2141.73 708.863 2141.73 692.607C2141.73 676.35 2149.65 663.172 2157.39 663.172C2165.14 663.172 2171.42 676.35 2171.42 692.607Z" fill="#0B053E"/>
<path d="M2171.42 692.607C2171.42 708.863 2165.14 722.041 2157.39 722.041C2149.65 722.041 2141.73 708.863 2141.73 692.607C2141.73 676.35 2149.65 663.172 2157.39 663.172C2165.14 663.172 2171.42 676.35 2171.42 692.607Z" fill="url(#paint0_linear)"/>
<path d="M2138.48 690.763C2138.35 690.252 2138.52 689.719 2138.94 689.34L2144.46 684.342C2145.39 683.504 2147.01 683.79 2147.49 684.875L2152.15 695.592C2152.51 696.412 2152.02 697.327 2151.07 697.626L2142.96 700.176C2141.92 700.502 2140.79 699.963 2140.56 699.031L2138.48 690.763Z" fill="#0B053E"/>
<path d="M2138.48 690.763C2138.35 690.252 2138.52 689.719 2138.94 689.34L2144.46 684.342C2145.39 683.504 2147.01 683.79 2147.49 684.875L2152.15 695.592C2152.51 696.412 2152.02 697.327 2151.07 697.626L2142.96 700.176C2141.92 700.502 2140.79 699.963 2140.56 699.031L2138.48 690.763Z" fill="url(#paint1_linear)"/>
<path d="M2139.27 675.134C2139.21 674.553 2139.54 673.994 2140.1 673.681L2147.35 669.685C2148.47 669.068 2149.95 669.659 2150.14 670.795L2152.84 687.558C2152.96 688.342 2152.4 689.085 2151.51 689.294L2142.94 691.319C2141.84 691.579 2140.73 690.91 2140.64 689.927L2139.27 675.134Z" fill="#0B053E"/>
<path d="M2139.27 675.134C2139.21 674.553 2139.54 673.994 2140.1 673.681L2147.35 669.685C2148.47 669.068 2149.95 669.659 2150.14 670.795L2152.84 687.558C2152.96 688.342 2152.4 689.085 2151.51 689.294L2142.94 691.319C2141.84 691.579 2140.73 690.91 2140.64 689.927L2139.27 675.134Z" fill="url(#paint2_linear)"/>
<path d="M2138.42 704.385C2137.9 703.85 2137.85 703.082 2138.3 702.5L2142.5 697.037C2143.24 696.075 2144.89 696.107 2145.58 697.097L2153.95 709.114C2154.45 709.831 2154.21 710.761 2153.41 711.23L2149.46 713.536C2148.69 713.986 2147.65 713.861 2147.05 713.245L2138.42 704.385Z" fill="#0B053E"/>
<path d="M2138.42 704.385C2137.9 703.85 2137.85 703.082 2138.3 702.5L2142.5 697.037C2143.24 696.075 2144.89 696.107 2145.58 697.097L2153.95 709.114C2154.45 709.831 2154.21 710.761 2153.41 711.23L2149.46 713.536C2148.69 713.986 2147.65 713.861 2147.05 713.245L2138.42 704.385Z" fill="url(#paint3_linear)"/>
<path d="M2143.45 714.559C2142.66 714.064 2142.46 713.114 2143 712.408L2145.05 709.747C2145.71 708.885 2147.14 708.802 2147.93 709.579L2155.28 716.789C2155.87 717.367 2155.89 718.229 2155.32 718.826L2154.56 719.637C2153.95 720.281 2152.86 720.404 2152.08 719.919L2143.45 714.559Z" fill="#0B053E"/>
<path d="M2143.45 714.559C2142.66 714.064 2142.46 713.114 2143 712.408L2145.05 709.747C2145.71 708.885 2147.14 708.802 2147.93 709.579L2155.28 716.789C2155.87 717.367 2155.89 718.229 2155.32 718.826L2154.56 719.637C2153.95 720.281 2152.86 720.404 2152.08 719.919L2143.45 714.559Z" fill="url(#paint4_linear)"/>
<path d="M2177.93 689.486C2178.16 688.744 2177.75 687.957 2176.94 687.627L2169.77 684.691C2168.8 684.293 2167.65 684.706 2167.29 685.581L2163.11 695.804C2162.78 696.604 2163.25 697.49 2164.16 697.806L2172.27 700.615C2173.28 700.962 2174.4 700.482 2174.69 699.582L2177.93 689.486Z" fill="#0B053E"/>
<path d="M2177.93 689.486C2178.16 688.744 2177.75 687.957 2176.94 687.627L2169.77 684.691C2168.8 684.293 2167.65 684.706 2167.29 685.581L2163.11 695.804C2162.78 696.604 2163.25 697.49 2164.16 697.806L2172.27 700.615C2173.28 700.962 2174.4 700.482 2174.69 699.582L2177.93 689.486Z" fill="url(#paint5_linear)"/>
<path d="M2176.78 676.744C2176.83 676.197 2176.56 675.662 2176.05 675.332L2168.01 670.122C2166.9 669.403 2165.31 669.973 2165.12 671.159L2162.5 687.612C2162.37 688.44 2163.01 689.216 2163.95 689.38L2173.26 691.003C2174.32 691.187 2175.33 690.538 2175.42 689.608L2176.78 676.744Z" fill="#0B053E"/>
<path d="M2176.78 676.744C2176.83 676.197 2176.56 675.662 2176.05 675.332L2168.01 670.122C2166.9 669.403 2165.31 669.973 2165.12 671.159L2162.5 687.612C2162.37 688.44 2163.01 689.216 2163.95 689.38L2173.26 691.003C2174.32 691.187 2175.33 690.538 2175.42 689.608L2176.78 676.744Z" fill="url(#paint6_linear)"/>
<path d="M2168.44 667.049L2157.11 659.709L2153.84 680.272L2164.34 682.417L2168.44 675.135L2168.44 667.049Z" fill="#0B053E"/>
<path d="M2168.44 667.049L2157.11 659.709L2153.84 680.272L2164.34 682.417L2168.44 675.135L2168.44 667.049Z" fill="url(#paint7_linear)"/>
<path d="M2168.51 667.78C2168.47 667.316 2168.19 666.892 2167.75 666.622L2163.05 663.715C2162.8 663.565 2162.6 663.366 2162.47 663.134L2159.97 658.803C2159.15 657.398 2156.73 657.763 2156.53 659.321L2154.02 678.878C2153.92 679.673 2154.52 680.41 2155.42 680.594L2163.05 682.153C2163.82 682.31 2164.62 682.018 2165.02 681.429L2168.94 675.723C2169.13 675.443 2169.22 675.117 2169.18 674.79L2168.51 667.78Z" fill="#0B053E"/>
<path d="M2168.51 667.78C2168.47 667.316 2168.19 666.892 2167.75 666.622L2163.05 663.715C2162.8 663.565 2162.6 663.366 2162.47 663.134L2159.97 658.803C2159.15 657.398 2156.73 657.763 2156.53 659.321L2154.02 678.878C2153.92 679.673 2154.52 680.41 2155.42 680.594L2163.05 682.153C2163.82 682.31 2164.62 682.018 2165.02 681.429L2168.94 675.723C2169.13 675.443 2169.22 675.117 2169.18 674.79L2168.51 667.78Z" fill="url(#paint8_linear)"/>
<path d="M2145.97 667.747C2145.97 667.243 2146.25 666.77 2146.72 666.475L2151.92 663.246C2152.16 663.094 2152.36 662.891 2152.49 662.657L2154.47 659.119C2155.26 657.699 2157.72 658.068 2157.92 659.638L2160.44 678.853C2160.54 679.646 2159.94 680.378 2159.04 680.554L2151.52 682.027C2150.69 682.19 2149.84 681.836 2149.47 681.176L2146.17 675.335C2146.05 675.121 2145.99 674.886 2145.99 674.648L2145.97 667.747Z" fill="#0B053E"/>
<path d="M2145.97 667.747C2145.97 667.243 2146.25 666.77 2146.72 666.475L2151.92 663.246C2152.16 663.094 2152.36 662.891 2152.49 662.657L2154.47 659.119C2155.26 657.699 2157.72 658.068 2157.92 659.638L2160.44 678.853C2160.54 679.646 2159.94 680.378 2159.04 680.554L2151.52 682.027C2150.69 682.19 2149.84 681.836 2149.47 681.176L2146.17 675.335C2146.05 675.121 2145.99 674.886 2145.99 674.648L2145.97 667.747Z" fill="url(#paint9_linear)"/>
<path d="M2176.72 704.537C2177.24 704.004 2177.28 703.24 2176.84 702.658L2172.71 697.226C2171.97 696.253 2170.32 696.279 2169.64 697.274L2161.38 709.274C2160.89 709.991 2161.13 710.92 2161.93 711.393L2165.8 713.68C2166.57 714.137 2167.61 714.014 2168.21 713.393L2176.72 704.537Z" fill="#0B053E"/>
<path d="M2176.72 704.537C2177.24 704.004 2177.28 703.24 2176.84 702.658L2172.71 697.226C2171.97 696.253 2170.32 696.279 2169.64 697.274L2161.38 709.274C2160.89 709.991 2161.13 710.92 2161.93 711.393L2165.8 713.68C2166.57 714.137 2167.61 714.014 2168.21 713.393L2176.72 704.537Z" fill="url(#paint10_linear)"/>
<path d="M2171.76 714.712C2172.54 714.218 2172.74 713.274 2172.2 712.568L2170.2 709.932C2169.53 709.06 2168.1 708.971 2167.31 709.754L2160.07 716.952C2159.49 717.528 2159.48 718.386 2160.03 718.984L2160.77 719.774C2161.38 720.427 2162.47 720.555 2163.25 720.064L2171.76 714.712Z" fill="#0B053E"/>
<path d="M2171.76 714.712C2172.54 714.218 2172.74 713.274 2172.2 712.568L2170.2 709.932C2169.53 709.06 2168.1 708.971 2167.31 709.754L2160.07 716.952C2159.49 717.528 2159.48 718.386 2160.03 718.984L2160.77 719.774C2161.38 720.427 2162.47 720.555 2163.25 720.064L2171.76 714.712Z" fill="url(#paint11_linear)"/>
<path d="M2157.07 654.178C2157.2 653.936 2157.59 653.935 2157.73 654.176L2165.44 668.259C2165.53 668.408 2165.46 668.586 2165.29 668.668L2156.56 672.942C2156.41 673.014 2156.23 672.988 2156.11 672.878L2150.27 667.262C2150.17 667.168 2150.15 667.033 2150.21 666.918L2157.07 654.178Z" fill="#0B053E"/>
<path d="M2157.07 654.178C2157.2 653.936 2157.59 653.935 2157.73 654.176L2165.44 668.259C2165.53 668.408 2165.46 668.586 2165.29 668.668L2156.56 672.942C2156.41 673.014 2156.23 672.988 2156.11 672.878L2150.27 667.262C2150.17 667.168 2150.15 667.033 2150.21 666.918L2157.07 654.178Z" fill="url(#paint12_linear)"/>
<path d="M2156.07 719.68H2158.62V731.643L2156.11 733.996L2156.07 719.68Z" fill="#0B053E"/>
<path d="M2156.07 719.68H2158.62V731.643L2156.11 733.996L2156.07 719.68Z" fill="url(#paint13_linear)"/>
<path d="M2091.42 692.607C2091.42 708.863 2085.14 722.041 2077.39 722.041C2069.65 722.041 2061.73 708.863 2061.73 692.607C2061.73 676.35 2069.65 663.172 2077.39 663.172C2085.14 663.172 2091.42 676.35 2091.42 692.607Z" fill="#0B053E"/>
<path d="M2091.42 692.607C2091.42 708.863 2085.14 722.041 2077.39 722.041C2069.65 722.041 2061.73 708.863 2061.73 692.607C2061.73 676.35 2069.65 663.172 2077.39 663.172C2085.14 663.172 2091.42 676.35 2091.42 692.607Z" fill="url(#paint14_linear)"/>
<path d="M2058.48 690.763C2058.35 690.252 2058.52 689.719 2058.94 689.34L2064.46 684.342C2065.39 683.504 2067.01 683.79 2067.49 684.875L2072.15 695.592C2072.51 696.412 2072.02 697.327 2071.07 697.626L2062.96 700.176C2061.92 700.502 2060.79 699.963 2060.56 699.031L2058.48 690.763Z" fill="#0B053E"/>
<path d="M2058.48 690.763C2058.35 690.252 2058.52 689.719 2058.94 689.34L2064.46 684.342C2065.39 683.504 2067.01 683.79 2067.49 684.875L2072.15 695.592C2072.51 696.412 2072.02 697.327 2071.07 697.626L2062.96 700.176C2061.92 700.502 2060.79 699.963 2060.56 699.031L2058.48 690.763Z" fill="url(#paint15_linear)"/>
<path d="M2059.27 675.134C2059.21 674.553 2059.54 673.994 2060.1 673.681L2067.35 669.685C2068.47 669.068 2069.95 669.659 2070.14 670.795L2072.84 687.558C2072.96 688.342 2072.4 689.085 2071.51 689.294L2062.94 691.319C2061.84 691.579 2060.73 690.91 2060.64 689.927L2059.27 675.134Z" fill="#0B053E"/>
<path d="M2059.27 675.134C2059.21 674.553 2059.54 673.994 2060.1 673.681L2067.35 669.685C2068.47 669.068 2069.95 669.659 2070.14 670.795L2072.84 687.558C2072.96 688.342 2072.4 689.085 2071.51 689.294L2062.94 691.319C2061.84 691.579 2060.73 690.91 2060.64 689.927L2059.27 675.134Z" fill="url(#paint16_linear)"/>
<path d="M2058.42 704.385C2057.9 703.85 2057.85 703.082 2058.3 702.5L2062.5 697.037C2063.24 696.075 2064.89 696.107 2065.58 697.097L2073.95 709.114C2074.45 709.831 2074.21 710.761 2073.41 711.23L2069.46 713.536C2068.69 713.986 2067.65 713.861 2067.05 713.245L2058.42 704.385Z" fill="#0B053E"/>
<path d="M2058.42 704.385C2057.9 703.85 2057.85 703.082 2058.3 702.5L2062.5 697.037C2063.24 696.075 2064.89 696.107 2065.58 697.097L2073.95 709.114C2074.45 709.831 2074.21 710.761 2073.41 711.23L2069.46 713.536C2068.69 713.986 2067.65 713.861 2067.05 713.245L2058.42 704.385Z" fill="url(#paint17_linear)"/>
<path d="M2063.45 714.559C2062.66 714.064 2062.46 713.114 2063 712.408L2065.05 709.747C2065.71 708.885 2067.14 708.802 2067.93 709.579L2075.28 716.789C2075.87 717.367 2075.89 718.229 2075.32 718.826L2074.56 719.637C2073.95 720.281 2072.86 720.404 2072.08 719.919L2063.45 714.559Z" fill="#0B053E"/>
<path d="M2063.45 714.559C2062.66 714.064 2062.46 713.114 2063 712.408L2065.05 709.747C2065.71 708.885 2067.14 708.802 2067.93 709.579L2075.28 716.789C2075.87 717.367 2075.89 718.229 2075.32 718.826L2074.56 719.637C2073.95 720.281 2072.86 720.404 2072.08 719.919L2063.45 714.559Z" fill="url(#paint18_linear)"/>
<path d="M2097.93 689.486C2098.16 688.744 2097.75 687.957 2096.94 687.627L2089.77 684.691C2088.8 684.293 2087.65 684.706 2087.29 685.581L2083.11 695.804C2082.78 696.604 2083.25 697.49 2084.16 697.806L2092.27 700.615C2093.28 700.962 2094.4 700.482 2094.69 699.582L2097.93 689.486Z" fill="#0B053E"/>
<path d="M2097.93 689.486C2098.16 688.744 2097.75 687.957 2096.94 687.627L2089.77 684.691C2088.8 684.293 2087.65 684.706 2087.29 685.581L2083.11 695.804C2082.78 696.604 2083.25 697.49 2084.16 697.806L2092.27 700.615C2093.28 700.962 2094.4 700.482 2094.69 699.582L2097.93 689.486Z" fill="url(#paint19_linear)"/>
<path d="M2096.78 676.744C2096.83 676.197 2096.56 675.662 2096.05 675.332L2088.01 670.122C2086.9 669.403 2085.31 669.973 2085.12 671.159L2082.5 687.612C2082.37 688.44 2083.01 689.216 2083.95 689.38L2093.26 691.003C2094.32 691.187 2095.33 690.538 2095.42 689.608L2096.78 676.744Z" fill="#0B053E"/>
<path d="M2096.78 676.744C2096.83 676.197 2096.56 675.662 2096.05 675.332L2088.01 670.122C2086.9 669.403 2085.31 669.973 2085.12 671.159L2082.5 687.612C2082.37 688.44 2083.01 689.216 2083.95 689.38L2093.26 691.003C2094.32 691.187 2095.33 690.538 2095.42 689.608L2096.78 676.744Z" fill="url(#paint20_linear)"/>
<path d="M2088.44 667.049L2077.11 659.709L2073.84 680.272L2084.34 682.417L2088.44 675.135L2088.44 667.049Z" fill="#0B053E"/>
<path d="M2088.44 667.049L2077.11 659.709L2073.84 680.272L2084.34 682.417L2088.44 675.135L2088.44 667.049Z" fill="url(#paint21_linear)"/>
<path d="M2088.51 667.78C2088.47 667.316 2088.19 666.892 2087.75 666.622L2083.05 663.715C2082.8 663.565 2082.6 663.366 2082.47 663.134L2079.97 658.803C2079.15 657.398 2076.73 657.763 2076.53 659.321L2074.02 678.878C2073.92 679.673 2074.52 680.41 2075.42 680.594L2083.05 682.153C2083.82 682.31 2084.62 682.018 2085.02 681.429L2088.94 675.723C2089.13 675.443 2089.22 675.117 2089.18 674.79L2088.51 667.78Z" fill="#0B053E"/>
<path d="M2088.51 667.78C2088.47 667.316 2088.19 666.892 2087.75 666.622L2083.05 663.715C2082.8 663.565 2082.6 663.366 2082.47 663.134L2079.97 658.803C2079.15 657.398 2076.73 657.763 2076.53 659.321L2074.02 678.878C2073.92 679.673 2074.52 680.41 2075.42 680.594L2083.05 682.153C2083.82 682.31 2084.62 682.018 2085.02 681.429L2088.94 675.723C2089.13 675.443 2089.22 675.117 2089.18 674.79L2088.51 667.78Z" fill="url(#paint22_linear)"/>
<path d="M2065.97 667.747C2065.97 667.243 2066.25 666.77 2066.72 666.475L2071.92 663.246C2072.16 663.094 2072.36 662.891 2072.49 662.657L2074.47 659.119C2075.26 657.699 2077.72 658.068 2077.92 659.638L2080.44 678.853C2080.54 679.646 2079.94 680.378 2079.04 680.554L2071.52 682.027C2070.69 682.19 2069.84 681.836 2069.47 681.176L2066.17 675.335C2066.05 675.121 2065.99 674.886 2065.99 674.648L2065.97 667.747Z" fill="#0B053E"/>
<path d="M2065.97 667.747C2065.97 667.243 2066.25 666.77 2066.72 666.475L2071.92 663.246C2072.16 663.094 2072.36 662.891 2072.49 662.657L2074.47 659.119C2075.26 657.699 2077.72 658.068 2077.92 659.638L2080.44 678.853C2080.54 679.646 2079.94 680.378 2079.04 680.554L2071.52 682.027C2070.69 682.19 2069.84 681.836 2069.47 681.176L2066.17 675.335C2066.05 675.121 2065.99 674.886 2065.99 674.648L2065.97 667.747Z" fill="url(#paint23_linear)"/>
<path d="M2096.72 704.537C2097.24 704.004 2097.28 703.24 2096.84 702.658L2092.71 697.226C2091.97 696.253 2090.32 696.279 2089.64 697.274L2081.38 709.274C2080.89 709.991 2081.13 710.92 2081.93 711.393L2085.8 713.68C2086.57 714.137 2087.61 714.014 2088.21 713.393L2096.72 704.537Z" fill="#0B053E"/>
<path d="M2096.72 704.537C2097.24 704.004 2097.28 703.24 2096.84 702.658L2092.71 697.226C2091.97 696.253 2090.32 696.279 2089.64 697.274L2081.38 709.274C2080.89 709.991 2081.13 710.92 2081.93 711.393L2085.8 713.68C2086.57 714.137 2087.61 714.014 2088.21 713.393L2096.72 704.537Z" fill="url(#paint24_linear)"/>
<path d="M2091.76 714.712C2092.54 714.218 2092.74 713.274 2092.2 712.568L2090.2 709.932C2089.53 709.06 2088.1 708.971 2087.31 709.754L2080.07 716.952C2079.49 717.528 2079.48 718.386 2080.03 718.984L2080.77 719.774C2081.38 720.427 2082.47 720.555 2083.25 720.064L2091.76 714.712Z" fill="#0B053E"/>
<path d="M2091.76 714.712C2092.54 714.218 2092.74 713.274 2092.2 712.568L2090.2 709.932C2089.53 709.06 2088.1 708.971 2087.31 709.754L2080.07 716.952C2079.49 717.528 2079.48 718.386 2080.03 718.984L2080.77 719.774C2081.38 720.427 2082.47 720.555 2083.25 720.064L2091.76 714.712Z" fill="url(#paint25_linear)"/>
<path d="M2077.07 654.178C2077.2 653.936 2077.59 653.935 2077.73 654.176L2085.44 668.259C2085.53 668.408 2085.46 668.586 2085.29 668.668L2076.56 672.942C2076.41 673.014 2076.23 672.988 2076.11 672.878L2070.27 667.262C2070.17 667.168 2070.15 667.033 2070.21 666.918L2077.07 654.178Z" fill="#0B053E"/>
<path d="M2077.07 654.178C2077.2 653.936 2077.59 653.935 2077.73 654.176L2085.44 668.259C2085.53 668.408 2085.46 668.586 2085.29 668.668L2076.56 672.942C2076.41 673.014 2076.23 672.988 2076.11 672.878L2070.27 667.262C2070.17 667.168 2070.15 667.033 2070.21 666.918L2077.07 654.178Z" fill="url(#paint26_linear)"/>
<path d="M2076.07 719.68H2078.62V731.643L2076.11 733.996L2076.07 719.68Z" fill="#0B053E"/>
<path d="M2076.07 719.68H2078.62V731.643L2076.11 733.996L2076.07 719.68Z" fill="url(#paint27_linear)"/>
<path d="M2011.42 692.607C2011.42 708.863 2005.14 722.041 1997.39 722.041C1989.65 722.041 1981.73 708.863 1981.73 692.607C1981.73 676.35 1989.65 663.172 1997.39 663.172C2005.14 663.172 2011.42 676.35 2011.42 692.607Z" fill="#0B053E"/>
<path d="M2011.42 692.607C2011.42 708.863 2005.14 722.041 1997.39 722.041C1989.65 722.041 1981.73 708.863 1981.73 692.607C1981.73 676.35 1989.65 663.172 1997.39 663.172C2005.14 663.172 2011.42 676.35 2011.42 692.607Z" fill="url(#paint28_linear)"/>
<path d="M1978.48 690.763C1978.35 690.252 1978.52 689.719 1978.94 689.34L1984.46 684.342C1985.39 683.504 1987.01 683.79 1987.49 684.875L1992.15 695.592C1992.51 696.412 1992.02 697.327 1991.07 697.626L1982.96 700.176C1981.92 700.502 1980.79 699.963 1980.56 699.031L1978.48 690.763Z" fill="#0B053E"/>
<path d="M1978.48 690.763C1978.35 690.252 1978.52 689.719 1978.94 689.34L1984.46 684.342C1985.39 683.504 1987.01 683.79 1987.49 684.875L1992.15 695.592C1992.51 696.412 1992.02 697.327 1991.07 697.626L1982.96 700.176C1981.92 700.502 1980.79 699.963 1980.56 699.031L1978.48 690.763Z" fill="url(#paint29_linear)"/>
<path d="M1979.27 675.134C1979.21 674.553 1979.54 673.994 1980.1 673.681L1987.35 669.685C1988.47 669.068 1989.95 669.659 1990.14 670.795L1992.84 687.558C1992.96 688.342 1992.4 689.085 1991.51 689.294L1982.94 691.319C1981.84 691.579 1980.73 690.91 1980.64 689.927L1979.27 675.134Z" fill="#0B053E"/>
<path d="M1979.27 675.134C1979.21 674.553 1979.54 673.994 1980.1 673.681L1987.35 669.685C1988.47 669.068 1989.95 669.659 1990.14 670.795L1992.84 687.558C1992.96 688.342 1992.4 689.085 1991.51 689.294L1982.94 691.319C1981.84 691.579 1980.73 690.91 1980.64 689.927L1979.27 675.134Z" fill="url(#paint30_linear)"/>
<path d="M1978.42 704.385C1977.9 703.85 1977.85 703.082 1978.3 702.5L1982.5 697.037C1983.24 696.075 1984.89 696.107 1985.58 697.097L1993.95 709.114C1994.45 709.831 1994.21 710.761 1993.41 711.23L1989.46 713.536C1988.69 713.986 1987.65 713.861 1987.05 713.245L1978.42 704.385Z" fill="#0B053E"/>
<path d="M1978.42 704.385C1977.9 703.85 1977.85 703.082 1978.3 702.5L1982.5 697.037C1983.24 696.075 1984.89 696.107 1985.58 697.097L1993.95 709.114C1994.45 709.831 1994.21 710.761 1993.41 711.23L1989.46 713.536C1988.69 713.986 1987.65 713.861 1987.05 713.245L1978.42 704.385Z" fill="url(#paint31_linear)"/>
<path d="M1983.45 714.559C1982.66 714.064 1982.46 713.114 1983 712.408L1985.05 709.747C1985.71 708.885 1987.14 708.802 1987.93 709.579L1995.28 716.789C1995.87 717.367 1995.89 718.229 1995.32 718.826L1994.56 719.637C1993.95 720.281 1992.86 720.404 1992.08 719.919L1983.45 714.559Z" fill="#0B053E"/>
<path d="M1983.45 714.559C1982.66 714.064 1982.46 713.114 1983 712.408L1985.05 709.747C1985.71 708.885 1987.14 708.802 1987.93 709.579L1995.28 716.789C1995.87 717.367 1995.89 718.229 1995.32 718.826L1994.56 719.637C1993.95 720.281 1992.86 720.404 1992.08 719.919L1983.45 714.559Z" fill="url(#paint32_linear)"/>
<path d="M2017.93 689.486C2018.16 688.744 2017.75 687.957 2016.94 687.627L2009.77 684.691C2008.8 684.293 2007.65 684.706 2007.29 685.581L2003.11 695.804C2002.78 696.604 2003.25 697.49 2004.16 697.806L2012.27 700.615C2013.28 700.962 2014.4 700.482 2014.69 699.582L2017.93 689.486Z" fill="#0B053E"/>
<path d="M2017.93 689.486C2018.16 688.744 2017.75 687.957 2016.94 687.627L2009.77 684.691C2008.8 684.293 2007.65 684.706 2007.29 685.581L2003.11 695.804C2002.78 696.604 2003.25 697.49 2004.16 697.806L2012.27 700.615C2013.28 700.962 2014.4 700.482 2014.69 699.582L2017.93 689.486Z" fill="url(#paint33_linear)"/>
<path d="M2016.78 676.744C2016.83 676.197 2016.56 675.662 2016.05 675.332L2008.01 670.122C2006.9 669.403 2005.31 669.973 2005.12 671.159L2002.5 687.612C2002.37 688.44 2003.01 689.216 2003.95 689.38L2013.26 691.003C2014.32 691.187 2015.33 690.538 2015.42 689.608L2016.78 676.744Z" fill="#0B053E"/>
<path d="M2016.78 676.744C2016.83 676.197 2016.56 675.662 2016.05 675.332L2008.01 670.122C2006.9 669.403 2005.31 669.973 2005.12 671.159L2002.5 687.612C2002.37 688.44 2003.01 689.216 2003.95 689.38L2013.26 691.003C2014.32 691.187 2015.33 690.538 2015.42 689.608L2016.78 676.744Z" fill="url(#paint34_linear)"/>
<path d="M2008.44 667.049L1997.11 659.709L1993.84 680.272L2004.34 682.417L2008.44 675.135L2008.44 667.049Z" fill="#0B053E"/>
<path d="M2008.44 667.049L1997.11 659.709L1993.84 680.272L2004.34 682.417L2008.44 675.135L2008.44 667.049Z" fill="url(#paint35_linear)"/>
<path d="M2008.51 667.78C2008.47 667.316 2008.19 666.892 2007.75 666.622L2003.05 663.715C2002.8 663.565 2002.6 663.366 2002.47 663.134L1999.97 658.803C1999.15 657.398 1996.73 657.763 1996.53 659.321L1994.02 678.878C1993.92 679.673 1994.52 680.41 1995.42 680.594L2003.05 682.153C2003.82 682.31 2004.62 682.018 2005.02 681.429L2008.94 675.723C2009.13 675.443 2009.22 675.117 2009.18 674.79L2008.51 667.78Z" fill="#0B053E"/>
<path d="M2008.51 667.78C2008.47 667.316 2008.19 666.892 2007.75 666.622L2003.05 663.715C2002.8 663.565 2002.6 663.366 2002.47 663.134L1999.97 658.803C1999.15 657.398 1996.73 657.763 1996.53 659.321L1994.02 678.878C1993.92 679.673 1994.52 680.41 1995.42 680.594L2003.05 682.153C2003.82 682.31 2004.62 682.018 2005.02 681.429L2008.94 675.723C2009.13 675.443 2009.22 675.117 2009.18 674.79L2008.51 667.78Z" fill="url(#paint36_linear)"/>
<path d="M1985.97 667.747C1985.97 667.243 1986.25 666.77 1986.72 666.475L1991.92 663.246C1992.16 663.094 1992.36 662.891 1992.49 662.657L1994.47 659.119C1995.26 657.699 1997.72 658.068 1997.92 659.638L2000.44 678.853C2000.54 679.646 1999.94 680.378 1999.04 680.554L1991.52 682.027C1990.69 682.19 1989.84 681.836 1989.47 681.176L1986.17 675.335C1986.05 675.121 1985.99 674.886 1985.99 674.648L1985.97 667.747Z" fill="#0B053E"/>
<path d="M1985.97 667.747C1985.97 667.243 1986.25 666.77 1986.72 666.475L1991.92 663.246C1992.16 663.094 1992.36 662.891 1992.49 662.657L1994.47 659.119C1995.26 657.699 1997.72 658.068 1997.92 659.638L2000.44 678.853C2000.54 679.646 1999.94 680.378 1999.04 680.554L1991.52 682.027C1990.69 682.19 1989.84 681.836 1989.47 681.176L1986.17 675.335C1986.05 675.121 1985.99 674.886 1985.99 674.648L1985.97 667.747Z" fill="url(#paint37_linear)"/>
<path d="M2016.72 704.537C2017.24 704.004 2017.28 703.24 2016.84 702.658L2012.71 697.226C2011.97 696.253 2010.32 696.279 2009.64 697.274L2001.38 709.274C2000.89 709.991 2001.13 710.92 2001.93 711.393L2005.8 713.68C2006.57 714.137 2007.61 714.014 2008.21 713.393L2016.72 704.537Z" fill="#0B053E"/>
<path d="M2016.72 704.537C2017.24 704.004 2017.28 703.24 2016.84 702.658L2012.71 697.226C2011.97 696.253 2010.32 696.279 2009.64 697.274L2001.38 709.274C2000.89 709.991 2001.13 710.92 2001.93 711.393L2005.8 713.68C2006.57 714.137 2007.61 714.014 2008.21 713.393L2016.72 704.537Z" fill="url(#paint38_linear)"/>
<path d="M2011.76 714.712C2012.54 714.218 2012.74 713.274 2012.2 712.568L2010.2 709.932C2009.53 709.06 2008.1 708.971 2007.31 709.754L2000.07 716.952C1999.49 717.528 1999.48 718.386 2000.03 718.984L2000.77 719.774C2001.38 720.427 2002.47 720.555 2003.25 720.064L2011.76 714.712Z" fill="#0B053E"/>
<path d="M2011.76 714.712C2012.54 714.218 2012.74 713.274 2012.2 712.568L2010.2 709.932C2009.53 709.06 2008.1 708.971 2007.31 709.754L2000.07 716.952C1999.49 717.528 1999.48 718.386 2000.03 718.984L2000.77 719.774C2001.38 720.427 2002.47 720.555 2003.25 720.064L2011.76 714.712Z" fill="url(#paint39_linear)"/>
<path d="M1997.07 654.178C1997.2 653.936 1997.59 653.935 1997.73 654.176L2005.44 668.259C2005.53 668.408 2005.46 668.586 2005.29 668.668L1996.56 672.942C1996.41 673.014 1996.23 672.988 1996.11 672.878L1990.27 667.262C1990.17 667.168 1990.15 667.033 1990.21 666.918L1997.07 654.178Z" fill="#0B053E"/>
<path d="M1997.07 654.178C1997.2 653.936 1997.59 653.935 1997.73 654.176L2005.44 668.259C2005.53 668.408 2005.46 668.586 2005.29 668.668L1996.56 672.942C1996.41 673.014 1996.23 672.988 1996.11 672.878L1990.27 667.262C1990.17 667.168 1990.15 667.033 1990.21 666.918L1997.07 654.178Z" fill="url(#paint40_linear)"/>
<path d="M1996.07 719.68H1998.62V731.643L1996.11 733.996L1996.07 719.68Z" fill="#0B053E"/>
<path d="M1996.07 719.68H1998.62V731.643L1996.11 733.996L1996.07 719.68Z" fill="url(#paint41_linear)"/>
<path d="M1931.42 692.607C1931.42 708.863 1925.14 722.041 1917.39 722.041C1909.65 722.041 1901.73 708.863 1901.73 692.607C1901.73 676.35 1909.65 663.172 1917.39 663.172C1925.14 663.172 1931.42 676.35 1931.42 692.607Z" fill="#0B053E"/>
<path d="M1931.42 692.607C1931.42 708.863 1925.14 722.041 1917.39 722.041C1909.65 722.041 1901.73 708.863 1901.73 692.607C1901.73 676.35 1909.65 663.172 1917.39 663.172C1925.14 663.172 1931.42 676.35 1931.42 692.607Z" fill="url(#paint42_linear)"/>
<path d="M1898.48 690.763C1898.35 690.252 1898.52 689.719 1898.94 689.34L1904.46 684.342C1905.39 683.504 1907.01 683.79 1907.49 684.875L1912.15 695.592C1912.51 696.412 1912.02 697.327 1911.07 697.626L1902.96 700.176C1901.92 700.502 1900.79 699.963 1900.56 699.031L1898.48 690.763Z" fill="#0B053E"/>
<path d="M1898.48 690.763C1898.35 690.252 1898.52 689.719 1898.94 689.34L1904.46 684.342C1905.39 683.504 1907.01 683.79 1907.49 684.875L1912.15 695.592C1912.51 696.412 1912.02 697.327 1911.07 697.626L1902.96 700.176C1901.92 700.502 1900.79 699.963 1900.56 699.031L1898.48 690.763Z" fill="url(#paint43_linear)"/>
<path d="M1899.27 675.134C1899.21 674.553 1899.54 673.994 1900.1 673.681L1907.35 669.685C1908.47 669.068 1909.95 669.659 1910.14 670.795L1912.84 687.558C1912.96 688.342 1912.4 689.085 1911.51 689.294L1902.94 691.319C1901.84 691.579 1900.73 690.91 1900.64 689.927L1899.27 675.134Z" fill="#0B053E"/>
<path d="M1899.27 675.134C1899.21 674.553 1899.54 673.994 1900.1 673.681L1907.35 669.685C1908.47 669.068 1909.95 669.659 1910.14 670.795L1912.84 687.558C1912.96 688.342 1912.4 689.085 1911.51 689.294L1902.94 691.319C1901.84 691.579 1900.73 690.91 1900.64 689.927L1899.27 675.134Z" fill="url(#paint44_linear)"/>
<path d="M1898.42 704.385C1897.9 703.85 1897.85 703.082 1898.3 702.5L1902.5 697.037C1903.24 696.075 1904.89 696.107 1905.58 697.097L1913.95 709.114C1914.45 709.831 1914.21 710.761 1913.41 711.23L1909.46 713.536C1908.69 713.986 1907.65 713.861 1907.05 713.245L1898.42 704.385Z" fill="#0B053E"/>
<path d="M1898.42 704.385C1897.9 703.85 1897.85 703.082 1898.3 702.5L1902.5 697.037C1903.24 696.075 1904.89 696.107 1905.58 697.097L1913.95 709.114C1914.45 709.831 1914.21 710.761 1913.41 711.23L1909.46 713.536C1908.69 713.986 1907.65 713.861 1907.05 713.245L1898.42 704.385Z" fill="url(#paint45_linear)"/>
<path d="M1903.45 714.559C1902.66 714.064 1902.46 713.114 1903 712.408L1905.05 709.747C1905.71 708.885 1907.14 708.802 1907.93 709.579L1915.28 716.789C1915.87 717.367 1915.89 718.229 1915.32 718.826L1914.56 719.637C1913.95 720.281 1912.86 720.404 1912.08 719.919L1903.45 714.559Z" fill="#0B053E"/>
<path d="M1903.45 714.559C1902.66 714.064 1902.46 713.114 1903 712.408L1905.05 709.747C1905.71 708.885 1907.14 708.802 1907.93 709.579L1915.28 716.789C1915.87 717.367 1915.89 718.229 1915.32 718.826L1914.56 719.637C1913.95 720.281 1912.86 720.404 1912.08 719.919L1903.45 714.559Z" fill="url(#paint46_linear)"/>
<path d="M1937.93 689.486C1938.16 688.744 1937.75 687.957 1936.94 687.627L1929.77 684.691C1928.8 684.293 1927.65 684.706 1927.29 685.581L1923.11 695.804C1922.78 696.604 1923.25 697.49 1924.16 697.806L1932.27 700.615C1933.28 700.962 1934.4 700.482 1934.69 699.582L1937.93 689.486Z" fill="#0B053E"/>
<path d="M1937.93 689.486C1938.16 688.744 1937.75 687.957 1936.94 687.627L1929.77 684.691C1928.8 684.293 1927.65 684.706 1927.29 685.581L1923.11 695.804C1922.78 696.604 1923.25 697.49 1924.16 697.806L1932.27 700.615C1933.28 700.962 1934.4 700.482 1934.69 699.582L1937.93 689.486Z" fill="url(#paint47_linear)"/>
<path d="M1936.78 676.744C1936.83 676.197 1936.56 675.662 1936.05 675.332L1928.01 670.122C1926.9 669.403 1925.31 669.973 1925.12 671.159L1922.5 687.612C1922.37 688.44 1923.01 689.216 1923.95 689.38L1933.26 691.003C1934.32 691.187 1935.33 690.538 1935.42 689.608L1936.78 676.744Z" fill="#0B053E"/>
<path d="M1936.78 676.744C1936.83 676.197 1936.56 675.662 1936.05 675.332L1928.01 670.122C1926.9 669.403 1925.31 669.973 1925.12 671.159L1922.5 687.612C1922.37 688.44 1923.01 689.216 1923.95 689.38L1933.26 691.003C1934.32 691.187 1935.33 690.538 1935.42 689.608L1936.78 676.744Z" fill="url(#paint48_linear)"/>
<path d="M1928.44 667.049L1917.11 659.709L1913.84 680.272L1924.34 682.417L1928.44 675.135L1928.44 667.049Z" fill="#0B053E"/>
<path d="M1928.44 667.049L1917.11 659.709L1913.84 680.272L1924.34 682.417L1928.44 675.135L1928.44 667.049Z" fill="url(#paint49_linear)"/>
<path d="M1928.51 667.78C1928.47 667.316 1928.19 666.892 1927.75 666.622L1923.05 663.715C1922.8 663.565 1922.6 663.366 1922.47 663.134L1919.97 658.803C1919.15 657.398 1916.73 657.763 1916.53 659.321L1914.02 678.878C1913.92 679.673 1914.52 680.41 1915.42 680.594L1923.05 682.153C1923.82 682.31 1924.62 682.018 1925.02 681.429L1928.94 675.723C1929.13 675.443 1929.22 675.117 1929.18 674.79L1928.51 667.78Z" fill="#0B053E"/>
<path d="M1928.51 667.78C1928.47 667.316 1928.19 666.892 1927.75 666.622L1923.05 663.715C1922.8 663.565 1922.6 663.366 1922.47 663.134L1919.97 658.803C1919.15 657.398 1916.73 657.763 1916.53 659.321L1914.02 678.878C1913.92 679.673 1914.52 680.41 1915.42 680.594L1923.05 682.153C1923.82 682.31 1924.62 682.018 1925.02 681.429L1928.94 675.723C1929.13 675.443 1929.22 675.117 1929.18 674.79L1928.51 667.78Z" fill="url(#paint50_linear)"/>
<path d="M1905.97 667.747C1905.97 667.243 1906.25 666.77 1906.72 666.475L1911.92 663.246C1912.16 663.094 1912.36 662.891 1912.49 662.657L1914.47 659.119C1915.26 657.699 1917.72 658.068 1917.92 659.638L1920.44 678.853C1920.54 679.646 1919.94 680.378 1919.04 680.554L1911.52 682.027C1910.69 682.19 1909.84 681.836 1909.47 681.176L1906.17 675.335C1906.05 675.121 1905.99 674.886 1905.99 674.648L1905.97 667.747Z" fill="#0B053E"/>
<path d="M1905.97 667.747C1905.97 667.243 1906.25 666.77 1906.72 666.475L1911.92 663.246C1912.16 663.094 1912.36 662.891 1912.49 662.657L1914.47 659.119C1915.26 657.699 1917.72 658.068 1917.92 659.638L1920.44 678.853C1920.54 679.646 1919.94 680.378 1919.04 680.554L1911.52 682.027C1910.69 682.19 1909.84 681.836 1909.47 681.176L1906.17 675.335C1906.05 675.121 1905.99 674.886 1905.99 674.648L1905.97 667.747Z" fill="url(#paint51_linear)"/>
<path d="M1936.72 704.537C1937.24 704.004 1937.28 703.24 1936.84 702.658L1932.71 697.226C1931.97 696.253 1930.32 696.279 1929.64 697.274L1921.38 709.274C1920.89 709.991 1921.13 710.92 1921.93 711.393L1925.8 713.68C1926.57 714.137 1927.61 714.014 1928.21 713.393L1936.72 704.537Z" fill="#0B053E"/>
<path d="M1936.72 704.537C1937.24 704.004 1937.28 703.24 1936.84 702.658L1932.71 697.226C1931.97 696.253 1930.32 696.279 1929.64 697.274L1921.38 709.274C1920.89 709.991 1921.13 710.92 1921.93 711.393L1925.8 713.68C1926.57 714.137 1927.61 714.014 1928.21 713.393L1936.72 704.537Z" fill="url(#paint52_linear)"/>
<path d="M1931.76 714.712C1932.54 714.218 1932.74 713.274 1932.2 712.568L1930.2 709.932C1929.53 709.06 1928.1 708.971 1927.31 709.754L1920.07 716.952C1919.49 717.528 1919.48 718.386 1920.03 718.984L1920.77 719.774C1921.38 720.427 1922.47 720.555 1923.25 720.064L1931.76 714.712Z" fill="#0B053E"/>
<path d="M1931.76 714.712C1932.54 714.218 1932.74 713.274 1932.2 712.568L1930.2 709.932C1929.53 709.06 1928.1 708.971 1927.31 709.754L1920.07 716.952C1919.49 717.528 1919.48 718.386 1920.03 718.984L1920.77 719.774C1921.38 720.427 1922.47 720.555 1923.25 720.064L1931.76 714.712Z" fill="url(#paint53_linear)"/>
<path d="M1917.07 654.178C1917.2 653.936 1917.59 653.935 1917.73 654.176L1925.44 668.259C1925.53 668.408 1925.46 668.586 1925.29 668.668L1916.56 672.942C1916.41 673.014 1916.23 672.988 1916.11 672.878L1910.27 667.262C1910.17 667.168 1910.15 667.033 1910.21 666.918L1917.07 654.178Z" fill="#0B053E"/>
<path d="M1917.07 654.178C1917.2 653.936 1917.59 653.935 1917.73 654.176L1925.44 668.259C1925.53 668.408 1925.46 668.586 1925.29 668.668L1916.56 672.942C1916.41 673.014 1916.23 672.988 1916.11 672.878L1910.27 667.262C1910.17 667.168 1910.15 667.033 1910.21 666.918L1917.07 654.178Z" fill="url(#paint54_linear)"/>
<path d="M1916.07 719.68H1918.62V731.643L1916.11 733.996L1916.07 719.68Z" fill="#0B053E"/>
<path d="M1916.07 719.68H1918.62V731.643L1916.11 733.996L1916.07 719.68Z" fill="url(#paint55_linear)"/>
<path d="M1771.42 692.607C1771.42 708.863 1765.14 722.041 1757.39 722.041C1749.65 722.041 1741.73 708.863 1741.73 692.607C1741.73 676.35 1749.65 663.172 1757.39 663.172C1765.14 663.172 1771.42 676.35 1771.42 692.607Z" fill="#0B053E"/>
<path d="M1771.42 692.607C1771.42 708.863 1765.14 722.041 1757.39 722.041C1749.65 722.041 1741.73 708.863 1741.73 692.607C1741.73 676.35 1749.65 663.172 1757.39 663.172C1765.14 663.172 1771.42 676.35 1771.42 692.607Z" fill="url(#paint56_linear)"/>
<path d="M1738.48 690.763C1738.35 690.252 1738.52 689.719 1738.94 689.34L1744.46 684.342C1745.39 683.504 1747.01 683.79 1747.49 684.875L1752.15 695.592C1752.51 696.412 1752.02 697.327 1751.07 697.626L1742.96 700.176C1741.92 700.502 1740.79 699.963 1740.56 699.031L1738.48 690.763Z" fill="#0B053E"/>
<path d="M1738.48 690.763C1738.35 690.252 1738.52 689.719 1738.94 689.34L1744.46 684.342C1745.39 683.504 1747.01 683.79 1747.49 684.875L1752.15 695.592C1752.51 696.412 1752.02 697.327 1751.07 697.626L1742.96 700.176C1741.92 700.502 1740.79 699.963 1740.56 699.031L1738.48 690.763Z" fill="url(#paint57_linear)"/>
<path d="M1739.27 675.134C1739.21 674.553 1739.54 673.994 1740.1 673.681L1747.35 669.685C1748.47 669.068 1749.95 669.659 1750.14 670.795L1752.84 687.558C1752.96 688.342 1752.4 689.085 1751.51 689.294L1742.94 691.319C1741.84 691.579 1740.73 690.91 1740.64 689.927L1739.27 675.134Z" fill="#0B053E"/>
<path d="M1739.27 675.134C1739.21 674.553 1739.54 673.994 1740.1 673.681L1747.35 669.685C1748.47 669.068 1749.95 669.659 1750.14 670.795L1752.84 687.558C1752.96 688.342 1752.4 689.085 1751.51 689.294L1742.94 691.319C1741.84 691.579 1740.73 690.91 1740.64 689.927L1739.27 675.134Z" fill="url(#paint58_linear)"/>
<path d="M1738.42 704.385C1737.9 703.85 1737.85 703.082 1738.3 702.5L1742.5 697.037C1743.24 696.075 1744.89 696.107 1745.58 697.097L1753.95 709.114C1754.45 709.831 1754.21 710.761 1753.41 711.23L1749.46 713.536C1748.69 713.986 1747.65 713.861 1747.05 713.245L1738.42 704.385Z" fill="#0B053E"/>
<path d="M1738.42 704.385C1737.9 703.85 1737.85 703.082 1738.3 702.5L1742.5 697.037C1743.24 696.075 1744.89 696.107 1745.58 697.097L1753.95 709.114C1754.45 709.831 1754.21 710.761 1753.41 711.23L1749.46 713.536C1748.69 713.986 1747.65 713.861 1747.05 713.245L1738.42 704.385Z" fill="url(#paint59_linear)"/>
<path d="M1743.45 714.559C1742.66 714.064 1742.46 713.114 1743 712.408L1745.05 709.747C1745.71 708.885 1747.14 708.802 1747.93 709.579L1755.28 716.789C1755.87 717.367 1755.89 718.229 1755.32 718.826L1754.56 719.637C1753.95 720.281 1752.86 720.404 1752.08 719.919L1743.45 714.559Z" fill="#0B053E"/>
<path d="M1743.45 714.559C1742.66 714.064 1742.46 713.114 1743 712.408L1745.05 709.747C1745.71 708.885 1747.14 708.802 1747.93 709.579L1755.28 716.789C1755.87 717.367 1755.89 718.229 1755.32 718.826L1754.56 719.637C1753.95 720.281 1752.86 720.404 1752.08 719.919L1743.45 714.559Z" fill="url(#paint60_linear)"/>
<path d="M1777.93 689.486C1778.16 688.744 1777.75 687.957 1776.94 687.627L1769.77 684.691C1768.8 684.293 1767.65 684.706 1767.29 685.581L1763.11 695.804C1762.78 696.604 1763.25 697.49 1764.16 697.806L1772.27 700.615C1773.28 700.962 1774.4 700.482 1774.69 699.582L1777.93 689.486Z" fill="#0B053E"/>
<path d="M1777.93 689.486C1778.16 688.744 1777.75 687.957 1776.94 687.627L1769.77 684.691C1768.8 684.293 1767.65 684.706 1767.29 685.581L1763.11 695.804C1762.78 696.604 1763.25 697.49 1764.16 697.806L1772.27 700.615C1773.28 700.962 1774.4 700.482 1774.69 699.582L1777.93 689.486Z" fill="url(#paint61_linear)"/>
<path d="M1776.78 676.744C1776.83 676.197 1776.56 675.662 1776.05 675.332L1768.01 670.122C1766.9 669.403 1765.31 669.973 1765.12 671.159L1762.5 687.612C1762.37 688.44 1763.01 689.216 1763.95 689.38L1773.26 691.003C1774.32 691.187 1775.33 690.538 1775.42 689.608L1776.78 676.744Z" fill="#0B053E"/>
<path d="M1776.78 676.744C1776.83 676.197 1776.56 675.662 1776.05 675.332L1768.01 670.122C1766.9 669.403 1765.31 669.973 1765.12 671.159L1762.5 687.612C1762.37 688.44 1763.01 689.216 1763.95 689.38L1773.26 691.003C1774.32 691.187 1775.33 690.538 1775.42 689.608L1776.78 676.744Z" fill="url(#paint62_linear)"/>
<path d="M1768.44 667.049L1757.11 659.709L1753.84 680.272L1764.34 682.417L1768.44 675.135L1768.44 667.049Z" fill="#0B053E"/>
<path d="M1768.44 667.049L1757.11 659.709L1753.84 680.272L1764.34 682.417L1768.44 675.135L1768.44 667.049Z" fill="url(#paint63_linear)"/>
<path d="M1768.51 667.78C1768.47 667.316 1768.19 666.892 1767.75 666.622L1763.05 663.715C1762.8 663.565 1762.6 663.366 1762.47 663.134L1759.97 658.803C1759.15 657.398 1756.73 657.763 1756.53 659.321L1754.02 678.878C1753.92 679.673 1754.52 680.41 1755.42 680.594L1763.05 682.153C1763.82 682.31 1764.62 682.018 1765.02 681.429L1768.94 675.723C1769.13 675.443 1769.22 675.117 1769.18 674.79L1768.51 667.78Z" fill="#0B053E"/>
<path d="M1768.51 667.78C1768.47 667.316 1768.19 666.892 1767.75 666.622L1763.05 663.715C1762.8 663.565 1762.6 663.366 1762.47 663.134L1759.97 658.803C1759.15 657.398 1756.73 657.763 1756.53 659.321L1754.02 678.878C1753.92 679.673 1754.52 680.41 1755.42 680.594L1763.05 682.153C1763.82 682.31 1764.62 682.018 1765.02 681.429L1768.94 675.723C1769.13 675.443 1769.22 675.117 1769.18 674.79L1768.51 667.78Z" fill="url(#paint64_linear)"/>
<path d="M1745.97 667.747C1745.97 667.243 1746.25 666.77 1746.72 666.475L1751.92 663.246C1752.16 663.094 1752.36 662.891 1752.49 662.657L1754.47 659.119C1755.26 657.699 1757.72 658.068 1757.92 659.638L1760.44 678.853C1760.54 679.646 1759.94 680.378 1759.04 680.554L1751.52 682.027C1750.69 682.19 1749.84 681.836 1749.47 681.176L1746.17 675.335C1746.05 675.121 1745.99 674.886 1745.99 674.648L1745.97 667.747Z" fill="#0B053E"/>
<path d="M1745.97 667.747C1745.97 667.243 1746.25 666.77 1746.72 666.475L1751.92 663.246C1752.16 663.094 1752.36 662.891 1752.49 662.657L1754.47 659.119C1755.26 657.699 1757.72 658.068 1757.92 659.638L1760.44 678.853C1760.54 679.646 1759.94 680.378 1759.04 680.554L1751.52 682.027C1750.69 682.19 1749.84 681.836 1749.47 681.176L1746.17 675.335C1746.05 675.121 1745.99 674.886 1745.99 674.648L1745.97 667.747Z" fill="url(#paint65_linear)"/>
<path d="M1776.72 704.537C1777.24 704.004 1777.28 703.24 1776.84 702.658L1772.71 697.226C1771.97 696.253 1770.32 696.279 1769.64 697.274L1761.38 709.274C1760.89 709.991 1761.13 710.92 1761.93 711.393L1765.8 713.68C1766.57 714.137 1767.61 714.014 1768.21 713.393L1776.72 704.537Z" fill="#0B053E"/>
<path d="M1776.72 704.537C1777.24 704.004 1777.28 703.24 1776.84 702.658L1772.71 697.226C1771.97 696.253 1770.32 696.279 1769.64 697.274L1761.38 709.274C1760.89 709.991 1761.13 710.92 1761.93 711.393L1765.8 713.68C1766.57 714.137 1767.61 714.014 1768.21 713.393L1776.72 704.537Z" fill="url(#paint66_linear)"/>
<path d="M1771.76 714.712C1772.54 714.218 1772.74 713.274 1772.2 712.568L1770.2 709.932C1769.53 709.06 1768.1 708.971 1767.31 709.754L1760.07 716.952C1759.49 717.528 1759.48 718.386 1760.03 718.984L1760.77 719.774C1761.38 720.427 1762.47 720.555 1763.25 720.064L1771.76 714.712Z" fill="#0B053E"/>
<path d="M1771.76 714.712C1772.54 714.218 1772.74 713.274 1772.2 712.568L1770.2 709.932C1769.53 709.06 1768.1 708.971 1767.31 709.754L1760.07 716.952C1759.49 717.528 1759.48 718.386 1760.03 718.984L1760.77 719.774C1761.38 720.427 1762.47 720.555 1763.25 720.064L1771.76 714.712Z" fill="url(#paint67_linear)"/>
<path d="M1757.07 654.178C1757.2 653.936 1757.59 653.935 1757.73 654.176L1765.44 668.259C1765.53 668.408 1765.46 668.586 1765.29 668.668L1756.56 672.942C1756.41 673.014 1756.23 672.988 1756.11 672.878L1750.27 667.262C1750.17 667.168 1750.15 667.033 1750.21 666.918L1757.07 654.178Z" fill="#0B053E"/>
<path d="M1757.07 654.178C1757.2 653.936 1757.59 653.935 1757.73 654.176L1765.44 668.259C1765.53 668.408 1765.46 668.586 1765.29 668.668L1756.56 672.942C1756.41 673.014 1756.23 672.988 1756.11 672.878L1750.27 667.262C1750.17 667.168 1750.15 667.033 1750.21 666.918L1757.07 654.178Z" fill="url(#paint68_linear)"/>
<path d="M1756.07 719.68H1758.62V731.643L1756.11 733.996L1756.07 719.68Z" fill="#0B053E"/>
<path d="M1756.07 719.68H1758.62V731.643L1756.11 733.996L1756.07 719.68Z" fill="url(#paint69_linear)"/>
<path d="M1691.42 692.607C1691.42 708.863 1685.14 722.041 1677.39 722.041C1669.65 722.041 1661.73 708.863 1661.73 692.607C1661.73 676.35 1669.65 663.172 1677.39 663.172C1685.14 663.172 1691.42 676.35 1691.42 692.607Z" fill="#0B053E"/>
<path d="M1691.42 692.607C1691.42 708.863 1685.14 722.041 1677.39 722.041C1669.65 722.041 1661.73 708.863 1661.73 692.607C1661.73 676.35 1669.65 663.172 1677.39 663.172C1685.14 663.172 1691.42 676.35 1691.42 692.607Z" fill="url(#paint70_linear)"/>
<path d="M1658.48 690.763C1658.35 690.252 1658.52 689.719 1658.94 689.34L1664.46 684.342C1665.39 683.504 1667.01 683.79 1667.49 684.875L1672.15 695.592C1672.51 696.412 1672.02 697.327 1671.07 697.626L1662.96 700.176C1661.92 700.502 1660.79 699.963 1660.56 699.031L1658.48 690.763Z" fill="#0B053E"/>
<path d="M1658.48 690.763C1658.35 690.252 1658.52 689.719 1658.94 689.34L1664.46 684.342C1665.39 683.504 1667.01 683.79 1667.49 684.875L1672.15 695.592C1672.51 696.412 1672.02 697.327 1671.07 697.626L1662.96 700.176C1661.92 700.502 1660.79 699.963 1660.56 699.031L1658.48 690.763Z" fill="url(#paint71_linear)"/>
<path d="M1659.27 675.134C1659.21 674.553 1659.54 673.994 1660.1 673.681L1667.35 669.685C1668.47 669.068 1669.95 669.659 1670.14 670.795L1672.84 687.558C1672.96 688.342 1672.4 689.085 1671.51 689.294L1662.94 691.319C1661.84 691.579 1660.73 690.91 1660.64 689.927L1659.27 675.134Z" fill="#0B053E"/>
<path d="M1659.27 675.134C1659.21 674.553 1659.54 673.994 1660.1 673.681L1667.35 669.685C1668.47 669.068 1669.95 669.659 1670.14 670.795L1672.84 687.558C1672.96 688.342 1672.4 689.085 1671.51 689.294L1662.94 691.319C1661.84 691.579 1660.73 690.91 1660.64 689.927L1659.27 675.134Z" fill="url(#paint72_linear)"/>
<path d="M1658.42 704.385C1657.9 703.85 1657.85 703.082 1658.3 702.5L1662.5 697.037C1663.24 696.075 1664.89 696.107 1665.58 697.097L1673.95 709.114C1674.45 709.831 1674.21 710.761 1673.41 711.23L1669.46 713.536C1668.69 713.986 1667.65 713.861 1667.05 713.245L1658.42 704.385Z" fill="#0B053E"/>
<path d="M1658.42 704.385C1657.9 703.85 1657.85 703.082 1658.3 702.5L1662.5 697.037C1663.24 696.075 1664.89 696.107 1665.58 697.097L1673.95 709.114C1674.45 709.831 1674.21 710.761 1673.41 711.23L1669.46 713.536C1668.69 713.986 1667.65 713.861 1667.05 713.245L1658.42 704.385Z" fill="url(#paint73_linear)"/>
<path d="M1663.45 714.559C1662.66 714.064 1662.46 713.114 1663 712.408L1665.05 709.747C1665.71 708.885 1667.14 708.802 1667.93 709.579L1675.28 716.789C1675.87 717.367 1675.89 718.229 1675.32 718.826L1674.56 719.637C1673.95 720.281 1672.86 720.404 1672.08 719.919L1663.45 714.559Z" fill="#0B053E"/>
<path d="M1663.45 714.559C1662.66 714.064 1662.46 713.114 1663 712.408L1665.05 709.747C1665.71 708.885 1667.14 708.802 1667.93 709.579L1675.28 716.789C1675.87 717.367 1675.89 718.229 1675.32 718.826L1674.56 719.637C1673.95 720.281 1672.86 720.404 1672.08 719.919L1663.45 714.559Z" fill="url(#paint74_linear)"/>
<path d="M1697.93 689.486C1698.16 688.744 1697.75 687.957 1696.94 687.627L1689.77 684.691C1688.8 684.293 1687.65 684.706 1687.29 685.581L1683.11 695.804C1682.78 696.604 1683.25 697.49 1684.16 697.806L1692.27 700.615C1693.28 700.962 1694.4 700.482 1694.69 699.582L1697.93 689.486Z" fill="#0B053E"/>
<path d="M1697.93 689.486C1698.16 688.744 1697.75 687.957 1696.94 687.627L1689.77 684.691C1688.8 684.293 1687.65 684.706 1687.29 685.581L1683.11 695.804C1682.78 696.604 1683.25 697.49 1684.16 697.806L1692.27 700.615C1693.28 700.962 1694.4 700.482 1694.69 699.582L1697.93 689.486Z" fill="url(#paint75_linear)"/>
<path d="M1696.78 676.744C1696.83 676.197 1696.56 675.662 1696.05 675.332L1688.01 670.122C1686.9 669.403 1685.31 669.973 1685.12 671.159L1682.5 687.612C1682.37 688.44 1683.01 689.216 1683.95 689.38L1693.26 691.003C1694.32 691.187 1695.33 690.538 1695.42 689.608L1696.78 676.744Z" fill="#0B053E"/>
<path d="M1696.78 676.744C1696.83 676.197 1696.56 675.662 1696.05 675.332L1688.01 670.122C1686.9 669.403 1685.31 669.973 1685.12 671.159L1682.5 687.612C1682.37 688.44 1683.01 689.216 1683.95 689.38L1693.26 691.003C1694.32 691.187 1695.33 690.538 1695.42 689.608L1696.78 676.744Z" fill="url(#paint76_linear)"/>
<path d="M1688.44 667.049L1677.11 659.709L1673.84 680.272L1684.34 682.417L1688.44 675.135L1688.44 667.049Z" fill="#0B053E"/>
<path d="M1688.44 667.049L1677.11 659.709L1673.84 680.272L1684.34 682.417L1688.44 675.135L1688.44 667.049Z" fill="url(#paint77_linear)"/>
<path d="M1688.51 667.78C1688.47 667.316 1688.19 666.892 1687.75 666.622L1683.05 663.715C1682.8 663.565 1682.6 663.366 1682.47 663.134L1679.97 658.803C1679.15 657.398 1676.73 657.763 1676.53 659.321L1674.02 678.878C1673.92 679.673 1674.52 680.41 1675.42 680.594L1683.05 682.153C1683.82 682.31 1684.62 682.018 1685.02 681.429L1688.94 675.723C1689.13 675.443 1689.22 675.117 1689.18 674.79L1688.51 667.78Z" fill="#0B053E"/>
<path d="M1688.51 667.78C1688.47 667.316 1688.19 666.892 1687.75 666.622L1683.05 663.715C1682.8 663.565 1682.6 663.366 1682.47 663.134L1679.97 658.803C1679.15 657.398 1676.73 657.763 1676.53 659.321L1674.02 678.878C1673.92 679.673 1674.52 680.41 1675.42 680.594L1683.05 682.153C1683.82 682.31 1684.62 682.018 1685.02 681.429L1688.94 675.723C1689.13 675.443 1689.22 675.117 1689.18 674.79L1688.51 667.78Z" fill="url(#paint78_linear)"/>
<path d="M1665.97 667.747C1665.97 667.243 1666.25 666.77 1666.72 666.475L1671.92 663.246C1672.16 663.094 1672.36 662.891 1672.49 662.657L1674.47 659.119C1675.26 657.699 1677.72 658.068 1677.92 659.638L1680.44 678.853C1680.54 679.646 1679.94 680.378 1679.04 680.554L1671.52 682.027C1670.69 682.19 1669.84 681.836 1669.47 681.176L1666.17 675.335C1666.05 675.121 1665.99 674.886 1665.99 674.648L1665.97 667.747Z" fill="#0B053E"/>
<path d="M1665.97 667.747C1665.97 667.243 1666.25 666.77 1666.72 666.475L1671.92 663.246C1672.16 663.094 1672.36 662.891 1672.49 662.657L1674.47 659.119C1675.26 657.699 1677.72 658.068 1677.92 659.638L1680.44 678.853C1680.54 679.646 1679.94 680.378 1679.04 680.554L1671.52 682.027C1670.69 682.19 1669.84 681.836 1669.47 681.176L1666.17 675.335C1666.05 675.121 1665.99 674.886 1665.99 674.648L1665.97 667.747Z" fill="url(#paint79_linear)"/>
<path d="M1696.72 704.537C1697.24 704.004 1697.28 703.24 1696.84 702.658L1692.71 697.226C1691.97 696.253 1690.32 696.279 1689.64 697.274L1681.38 709.274C1680.89 709.991 1681.13 710.92 1681.93 711.393L1685.8 713.68C1686.57 714.137 1687.61 714.014 1688.21 713.393L1696.72 704.537Z" fill="#0B053E"/>
<path d="M1696.72 704.537C1697.24 704.004 1697.28 703.24 1696.84 702.658L1692.71 697.226C1691.97 696.253 1690.32 696.279 1689.64 697.274L1681.38 709.274C1680.89 709.991 1681.13 710.92 1681.93 711.393L1685.8 713.68C1686.57 714.137 1687.61 714.014 1688.21 713.393L1696.72 704.537Z" fill="url(#paint80_linear)"/>
<path d="M1691.76 714.712C1692.54 714.218 1692.74 713.274 1692.2 712.568L1690.2 709.932C1689.53 709.06 1688.1 708.971 1687.31 709.754L1680.07 716.952C1679.49 717.528 1679.48 718.386 1680.03 718.984L1680.77 719.774C1681.38 720.427 1682.47 720.555 1683.25 720.064L1691.76 714.712Z" fill="#0B053E"/>
<path d="M1691.76 714.712C1692.54 714.218 1692.74 713.274 1692.2 712.568L1690.2 709.932C1689.53 709.06 1688.1 708.971 1687.31 709.754L1680.07 716.952C1679.49 717.528 1679.48 718.386 1680.03 718.984L1680.77 719.774C1681.38 720.427 1682.47 720.555 1683.25 720.064L1691.76 714.712Z" fill="url(#paint81_linear)"/>
<path d="M1677.07 654.178C1677.2 653.936 1677.59 653.935 1677.73 654.176L1685.44 668.259C1685.53 668.408 1685.46 668.586 1685.29 668.668L1676.56 672.942C1676.41 673.014 1676.23 672.988 1676.11 672.878L1670.27 667.262C1670.17 667.168 1670.15 667.033 1670.21 666.918L1677.07 654.178Z" fill="#0B053E"/>
<path d="M1677.07 654.178C1677.2 653.936 1677.59 653.935 1677.73 654.176L1685.44 668.259C1685.53 668.408 1685.46 668.586 1685.29 668.668L1676.56 672.942C1676.41 673.014 1676.23 672.988 1676.11 672.878L1670.27 667.262C1670.17 667.168 1670.15 667.033 1670.21 666.918L1677.07 654.178Z" fill="url(#paint82_linear)"/>
<path d="M1676.07 719.68H1678.62V731.643L1676.11 733.996L1676.07 719.68Z" fill="#0B053E"/>
<path d="M1676.07 719.68H1678.62V731.643L1676.11 733.996L1676.07 719.68Z" fill="url(#paint83_linear)"/>
<path d="M1611.42 692.607C1611.42 708.863 1605.14 722.041 1597.39 722.041C1589.65 722.041 1581.73 708.863 1581.73 692.607C1581.73 676.35 1589.65 663.172 1597.39 663.172C1605.14 663.172 1611.42 676.35 1611.42 692.607Z" fill="#0B053E"/>
<path d="M1611.42 692.607C1611.42 708.863 1605.14 722.041 1597.39 722.041C1589.65 722.041 1581.73 708.863 1581.73 692.607C1581.73 676.35 1589.65 663.172 1597.39 663.172C1605.14 663.172 1611.42 676.35 1611.42 692.607Z" fill="url(#paint84_linear)"/>
<path d="M1578.48 690.763C1578.35 690.252 1578.52 689.719 1578.94 689.34L1584.46 684.342C1585.39 683.504 1587.01 683.79 1587.49 684.875L1592.15 695.592C1592.51 696.412 1592.02 697.327 1591.07 697.626L1582.96 700.176C1581.92 700.502 1580.79 699.963 1580.56 699.031L1578.48 690.763Z" fill="#0B053E"/>
<path d="M1578.48 690.763C1578.35 690.252 1578.52 689.719 1578.94 689.34L1584.46 684.342C1585.39 683.504 1587.01 683.79 1587.49 684.875L1592.15 695.592C1592.51 696.412 1592.02 697.327 1591.07 697.626L1582.96 700.176C1581.92 700.502 1580.79 699.963 1580.56 699.031L1578.48 690.763Z" fill="url(#paint85_linear)"/>
<path d="M1579.27 675.134C1579.21 674.553 1579.54 673.994 1580.1 673.681L1587.35 669.685C1588.47 669.068 1589.95 669.659 1590.14 670.795L1592.84 687.558C1592.96 688.342 1592.4 689.085 1591.51 689.294L1582.94 691.319C1581.84 691.579 1580.73 690.91 1580.64 689.927L1579.27 675.134Z" fill="#0B053E"/>
<path d="M1579.27 675.134C1579.21 674.553 1579.54 673.994 1580.1 673.681L1587.35 669.685C1588.47 669.068 1589.95 669.659 1590.14 670.795L1592.84 687.558C1592.96 688.342 1592.4 689.085 1591.51 689.294L1582.94 691.319C1581.84 691.579 1580.73 690.91 1580.64 689.927L1579.27 675.134Z" fill="url(#paint86_linear)"/>
<path d="M1578.42 704.385C1577.9 703.85 1577.85 703.082 1578.3 702.5L1582.5 697.037C1583.24 696.075 1584.89 696.107 1585.58 697.097L1593.95 709.114C1594.45 709.831 1594.21 710.761 1593.41 711.23L1589.46 713.536C1588.69 713.986 1587.65 713.861 1587.05 713.245L1578.42 704.385Z" fill="#0B053E"/>
<path d="M1578.42 704.385C1577.9 703.85 1577.85 703.082 1578.3 702.5L1582.5 697.037C1583.24 696.075 1584.89 696.107 1585.58 697.097L1593.95 709.114C1594.45 709.831 1594.21 710.761 1593.41 711.23L1589.46 713.536C1588.69 713.986 1587.65 713.861 1587.05 713.245L1578.42 704.385Z" fill="url(#paint87_linear)"/>
<path d="M1583.45 714.559C1582.66 714.064 1582.46 713.114 1583 712.408L1585.05 709.747C1585.71 708.885 1587.14 708.802 1587.93 709.579L1595.28 716.789C1595.87 717.367 1595.89 718.229 1595.32 718.826L1594.56 719.637C1593.95 720.281 1592.86 720.404 1592.08 719.919L1583.45 714.559Z" fill="#0B053E"/>
<path d="M1583.45 714.559C1582.66 714.064 1582.46 713.114 1583 712.408L1585.05 709.747C1585.71 708.885 1587.14 708.802 1587.93 709.579L1595.28 716.789C1595.87 717.367 1595.89 718.229 1595.32 718.826L1594.56 719.637C1593.95 720.281 1592.86 720.404 1592.08 719.919L1583.45 714.559Z" fill="url(#paint88_linear)"/>
<path d="M1617.93 689.486C1618.16 688.744 1617.75 687.957 1616.94 687.627L1609.77 684.691C1608.8 684.293 1607.65 684.706 1607.29 685.581L1603.11 695.804C1602.78 696.604 1603.25 697.49 1604.16 697.806L1612.27 700.615C1613.28 700.962 1614.4 700.482 1614.69 699.582L1617.93 689.486Z" fill="#0B053E"/>
<path d="M1617.93 689.486C1618.16 688.744 1617.75 687.957 1616.94 687.627L1609.77 684.691C1608.8 684.293 1607.65 684.706 1607.29 685.581L1603.11 695.804C1602.78 696.604 1603.25 697.49 1604.16 697.806L1612.27 700.615C1613.28 700.962 1614.4 700.482 1614.69 699.582L1617.93 689.486Z" fill="url(#paint89_linear)"/>
<path d="M1616.78 676.744C1616.83 676.197 1616.56 675.662 1616.05 675.332L1608.01 670.122C1606.9 669.403 1605.31 669.973 1605.12 671.159L1602.5 687.612C1602.37 688.44 1603.01 689.216 1603.95 689.38L1613.26 691.003C1614.32 691.187 1615.33 690.538 1615.42 689.608L1616.78 676.744Z" fill="#0B053E"/>
<path d="M1616.78 676.744C1616.83 676.197 1616.56 675.662 1616.05 675.332L1608.01 670.122C1606.9 669.403 1605.31 669.973 1605.12 671.159L1602.5 687.612C1602.37 688.44 1603.01 689.216 1603.95 689.38L1613.26 691.003C1614.32 691.187 1615.33 690.538 1615.42 689.608L1616.78 676.744Z" fill="url(#paint90_linear)"/>
<path d="M1608.44 667.049L1597.11 659.709L1593.84 680.272L1604.34 682.417L1608.44 675.135L1608.44 667.049Z" fill="#0B053E"/>
<path d="M1608.44 667.049L1597.11 659.709L1593.84 680.272L1604.34 682.417L1608.44 675.135L1608.44 667.049Z" fill="url(#paint91_linear)"/>
<path d="M1608.51 667.78C1608.47 667.316 1608.19 666.892 1607.75 666.622L1603.05 663.715C1602.8 663.565 1602.6 663.366 1602.47 663.134L1599.97 658.803C1599.15 657.398 1596.73 657.763 1596.53 659.321L1594.02 678.878C1593.92 679.673 1594.52 680.41 1595.42 680.594L1603.05 682.153C1603.82 682.31 1604.62 682.018 1605.02 681.429L1608.94 675.723C1609.13 675.443 1609.22 675.117 1609.18 674.79L1608.51 667.78Z" fill="#0B053E"/>
<path d="M1608.51 667.78C1608.47 667.316 1608.19 666.892 1607.75 666.622L1603.05 663.715C1602.8 663.565 1602.6 663.366 1602.47 663.134L1599.97 658.803C1599.15 657.398 1596.73 657.763 1596.53 659.321L1594.02 678.878C1593.92 679.673 1594.52 680.41 1595.42 680.594L1603.05 682.153C1603.82 682.31 1604.62 682.018 1605.02 681.429L1608.94 675.723C1609.13 675.443 1609.22 675.117 1609.18 674.79L1608.51 667.78Z" fill="url(#paint92_linear)"/>
<path d="M1585.97 667.747C1585.97 667.243 1586.25 666.77 1586.72 666.475L1591.92 663.246C1592.16 663.094 1592.36 662.891 1592.49 662.657L1594.47 659.119C1595.26 657.699 1597.72 658.068 1597.92 659.638L1600.44 678.853C1600.54 679.646 1599.94 680.378 1599.04 680.554L1591.52 682.027C1590.69 682.19 1589.84 681.836 1589.47 681.176L1586.17 675.335C1586.05 675.121 1585.99 674.886 1585.99 674.648L1585.97 667.747Z" fill="#0B053E"/>
<path d="M1585.97 667.747C1585.97 667.243 1586.25 666.77 1586.72 666.475L1591.92 663.246C1592.16 663.094 1592.36 662.891 1592.49 662.657L1594.47 659.119C1595.26 657.699 1597.72 658.068 1597.92 659.638L1600.44 678.853C1600.54 679.646 1599.94 680.378 1599.04 680.554L1591.52 682.027C1590.69 682.19 1589.84 681.836 1589.47 681.176L1586.17 675.335C1586.05 675.121 1585.99 674.886 1585.99 674.648L1585.97 667.747Z" fill="url(#paint93_linear)"/>
<path d="M1616.72 704.537C1617.24 704.004 1617.28 703.24 1616.84 702.658L1612.71 697.226C1611.97 696.253 1610.32 696.279 1609.64 697.274L1601.38 709.274C1600.89 709.991 1601.13 710.92 1601.93 711.393L1605.8 713.68C1606.57 714.137 1607.61 714.014 1608.21 713.393L1616.72 704.537Z" fill="#0B053E"/>
<path d="M1616.72 704.537C1617.24 704.004 1617.28 703.24 1616.84 702.658L1612.71 697.226C1611.97 696.253 1610.32 696.279 1609.64 697.274L1601.38 709.274C1600.89 709.991 1601.13 710.92 1601.93 711.393L1605.8 713.68C1606.57 714.137 1607.61 714.014 1608.21 713.393L1616.72 704.537Z" fill="url(#paint94_linear)"/>
<path d="M1611.76 714.712C1612.54 714.218 1612.74 713.274 1612.2 712.568L1610.2 709.932C1609.53 709.06 1608.1 708.971 1607.31 709.754L1600.07 716.952C1599.49 717.528 1599.48 718.386 1600.03 718.984L1600.77 719.774C1601.38 720.427 1602.47 720.555 1603.25 720.064L1611.76 714.712Z" fill="#0B053E"/>
<path d="M1611.76 714.712C1612.54 714.218 1612.74 713.274 1612.2 712.568L1610.2 709.932C1609.53 709.06 1608.1 708.971 1607.31 709.754L1600.07 716.952C1599.49 717.528 1599.48 718.386 1600.03 718.984L1600.77 719.774C1601.38 720.427 1602.47 720.555 1603.25 720.064L1611.76 714.712Z" fill="url(#paint95_linear)"/>
<path d="M1597.07 654.178C1597.2 653.936 1597.59 653.935 1597.73 654.176L1605.44 668.259C1605.53 668.408 1605.46 668.586 1605.29 668.668L1596.56 672.942C1596.41 673.014 1596.23 672.988 1596.11 672.878L1590.27 667.262C1590.17 667.168 1590.15 667.033 1590.21 666.918L1597.07 654.178Z" fill="#0B053E"/>
<path d="M1597.07 654.178C1597.2 653.936 1597.59 653.935 1597.73 654.176L1605.44 668.259C1605.53 668.408 1605.46 668.586 1605.29 668.668L1596.56 672.942C1596.41 673.014 1596.23 672.988 1596.11 672.878L1590.27 667.262C1590.17 667.168 1590.15 667.033 1590.21 666.918L1597.07 654.178Z" fill="url(#paint96_linear)"/>
<path d="M1596.07 719.68H1598.62V731.643L1596.11 733.996L1596.07 719.68Z" fill="#0B053E"/>
<path d="M1596.07 719.68H1598.62V731.643L1596.11 733.996L1596.07 719.68Z" fill="url(#paint97_linear)"/>
<path d="M1531.42 692.607C1531.42 708.863 1525.14 722.041 1517.39 722.041C1509.65 722.041 1501.73 708.863 1501.73 692.607C1501.73 676.35 1509.65 663.172 1517.39 663.172C1525.14 663.172 1531.42 676.35 1531.42 692.607Z" fill="#0B053E"/>
<path d="M1531.42 692.607C1531.42 708.863 1525.14 722.041 1517.39 722.041C1509.65 722.041 1501.73 708.863 1501.73 692.607C1501.73 676.35 1509.65 663.172 1517.39 663.172C1525.14 663.172 1531.42 676.35 1531.42 692.607Z" fill="url(#paint98_linear)"/>
<path d="M1498.48 690.763C1498.35 690.252 1498.52 689.719 1498.94 689.34L1504.46 684.342C1505.39 683.504 1507.01 683.79 1507.49 684.875L1512.15 695.592C1512.51 696.412 1512.02 697.327 1511.07 697.626L1502.96 700.176C1501.92 700.502 1500.79 699.963 1500.56 699.031L1498.48 690.763Z" fill="#0B053E"/>
<path d="M1498.48 690.763C1498.35 690.252 1498.52 689.719 1498.94 689.34L1504.46 684.342C1505.39 683.504 1507.01 683.79 1507.49 684.875L1512.15 695.592C1512.51 696.412 1512.02 697.327 1511.07 697.626L1502.96 700.176C1501.92 700.502 1500.79 699.963 1500.56 699.031L1498.48 690.763Z" fill="url(#paint99_linear)"/>
<path d="M1499.27 675.134C1499.21 674.553 1499.54 673.994 1500.1 673.681L1507.35 669.685C1508.47 669.068 1509.95 669.659 1510.14 670.795L1512.84 687.558C1512.96 688.342 1512.4 689.085 1511.51 689.294L1502.94 691.319C1501.84 691.579 1500.73 690.91 1500.64 689.927L1499.27 675.134Z" fill="#0B053E"/>
<path d="M1499.27 675.134C1499.21 674.553 1499.54 673.994 1500.1 673.681L1507.35 669.685C1508.47 669.068 1509.95 669.659 1510.14 670.795L1512.84 687.558C1512.96 688.342 1512.4 689.085 1511.51 689.294L1502.94 691.319C1501.84 691.579 1500.73 690.91 1500.64 689.927L1499.27 675.134Z" fill="url(#paint100_linear)"/>
<path d="M1498.42 704.385C1497.9 703.85 1497.85 703.082 1498.3 702.5L1502.5 697.037C1503.24 696.075 1504.89 696.107 1505.58 697.097L1513.95 709.114C1514.45 709.831 1514.21 710.761 1513.41 711.23L1509.46 713.536C1508.69 713.986 1507.65 713.861 1507.05 713.245L1498.42 704.385Z" fill="#0B053E"/>
<path d="M1498.42 704.385C1497.9 703.85 1497.85 703.082 1498.3 702.5L1502.5 697.037C1503.24 696.075 1504.89 696.107 1505.58 697.097L1513.95 709.114C1514.45 709.831 1514.21 710.761 1513.41 711.23L1509.46 713.536C1508.69 713.986 1507.65 713.861 1507.05 713.245L1498.42 704.385Z" fill="url(#paint101_linear)"/>
<path d="M1503.45 714.559C1502.66 714.064 1502.46 713.114 1503 712.408L1505.05 709.747C1505.71 708.885 1507.14 708.802 1507.93 709.579L1515.28 716.789C1515.87 717.367 1515.89 718.229 1515.32 718.826L1514.56 719.637C1513.95 720.281 1512.86 720.404 1512.08 719.919L1503.45 714.559Z" fill="#0B053E"/>
<path d="M1503.45 714.559C1502.66 714.064 1502.46 713.114 1503 712.408L1505.05 709.747C1505.71 708.885 1507.14 708.802 1507.93 709.579L1515.28 716.789C1515.87 717.367 1515.89 718.229 1515.32 718.826L1514.56 719.637C1513.95 720.281 1512.86 720.404 1512.08 719.919L1503.45 714.559Z" fill="url(#paint102_linear)"/>
<path d="M1537.93 689.486C1538.16 688.744 1537.75 687.957 1536.94 687.627L1529.77 684.691C1528.8 684.293 1527.65 684.706 1527.29 685.581L1523.11 695.804C1522.78 696.604 1523.25 697.49 1524.16 697.806L1532.27 700.615C1533.28 700.962 1534.4 700.482 1534.69 699.582L1537.93 689.486Z" fill="#0B053E"/>
<path d="M1537.93 689.486C1538.16 688.744 1537.75 687.957 1536.94 687.627L1529.77 684.691C1528.8 684.293 1527.65 684.706 1527.29 685.581L1523.11 695.804C1522.78 696.604 1523.25 697.49 1524.16 697.806L1532.27 700.615C1533.28 700.962 1534.4 700.482 1534.69 699.582L1537.93 689.486Z" fill="url(#paint103_linear)"/>
<path d="M1536.78 676.744C1536.83 676.197 1536.56 675.662 1536.05 675.332L1528.01 670.122C1526.9 669.403 1525.31 669.973 1525.12 671.159L1522.5 687.612C1522.37 688.44 1523.01 689.216 1523.95 689.38L1533.26 691.003C1534.32 691.187 1535.33 690.538 1535.42 689.608L1536.78 676.744Z" fill="#0B053E"/>
<path d="M1536.78 676.744C1536.83 676.197 1536.56 675.662 1536.05 675.332L1528.01 670.122C1526.9 669.403 1525.31 669.973 1525.12 671.159L1522.5 687.612C1522.37 688.44 1523.01 689.216 1523.95 689.38L1533.26 691.003C1534.32 691.187 1535.33 690.538 1535.42 689.608L1536.78 676.744Z" fill="url(#paint104_linear)"/>
<path d="M1528.44 667.049L1517.11 659.709L1513.84 680.272L1524.34 682.417L1528.44 675.135L1528.44 667.049Z" fill="#0B053E"/>
<path d="M1528.44 667.049L1517.11 659.709L1513.84 680.272L1524.34 682.417L1528.44 675.135L1528.44 667.049Z" fill="url(#paint105_linear)"/>
<path d="M1528.51 667.78C1528.47 667.316 1528.19 666.892 1527.75 666.622L1523.05 663.715C1522.8 663.565 1522.6 663.366 1522.47 663.134L1519.97 658.803C1519.15 657.398 1516.73 657.763 1516.53 659.321L1514.02 678.878C1513.92 679.673 1514.52 680.41 1515.42 680.594L1523.05 682.153C1523.82 682.31 1524.62 682.018 1525.02 681.429L1528.94 675.723C1529.13 675.443 1529.22 675.117 1529.18 674.79L1528.51 667.78Z" fill="#0B053E"/>
<path d="M1528.51 667.78C1528.47 667.316 1528.19 666.892 1527.75 666.622L1523.05 663.715C1522.8 663.565 1522.6 663.366 1522.47 663.134L1519.97 658.803C1519.15 657.398 1516.73 657.763 1516.53 659.321L1514.02 678.878C1513.92 679.673 1514.52 680.41 1515.42 680.594L1523.05 682.153C1523.82 682.31 1524.62 682.018 1525.02 681.429L1528.94 675.723C1529.13 675.443 1529.22 675.117 1529.18 674.79L1528.51 667.78Z" fill="url(#paint106_linear)"/>
<path d="M1505.97 667.747C1505.97 667.243 1506.25 666.77 1506.72 666.475L1511.92 663.246C1512.16 663.094 1512.36 662.891 1512.49 662.657L1514.47 659.119C1515.26 657.699 1517.72 658.068 1517.92 659.638L1520.44 678.853C1520.54 679.646 1519.94 680.378 1519.04 680.554L1511.52 682.027C1510.69 682.19 1509.84 681.836 1509.47 681.176L1506.17 675.335C1506.05 675.121 1505.99 674.886 1505.99 674.648L1505.97 667.747Z" fill="#0B053E"/>
<path d="M1505.97 667.747C1505.97 667.243 1506.25 666.77 1506.72 666.475L1511.92 663.246C1512.16 663.094 1512.36 662.891 1512.49 662.657L1514.47 659.119C1515.26 657.699 1517.72 658.068 1517.92 659.638L1520.44 678.853C1520.54 679.646 1519.94 680.378 1519.04 680.554L1511.52 682.027C1510.69 682.19 1509.84 681.836 1509.47 681.176L1506.17 675.335C1506.05 675.121 1505.99 674.886 1505.99 674.648L1505.97 667.747Z" fill="url(#paint107_linear)"/>
<path d="M1536.72 704.537C1537.24 704.004 1537.28 703.24 1536.84 702.658L1532.71 697.226C1531.97 696.253 1530.32 696.279 1529.64 697.274L1521.38 709.274C1520.89 709.991 1521.13 710.92 1521.93 711.393L1525.8 713.68C1526.57 714.137 1527.61 714.014 1528.21 713.393L1536.72 704.537Z" fill="#0B053E"/>
<path d="M1536.72 704.537C1537.24 704.004 1537.28 703.24 1536.84 702.658L1532.71 697.226C1531.97 696.253 1530.32 696.279 1529.64 697.274L1521.38 709.274C1520.89 709.991 1521.13 710.92 1521.93 711.393L1525.8 713.68C1526.57 714.137 1527.61 714.014 1528.21 713.393L1536.72 704.537Z" fill="url(#paint108_linear)"/>
<path d="M1531.76 714.712C1532.54 714.218 1532.74 713.274 1532.2 712.568L1530.2 709.932C1529.53 709.06 1528.1 708.971 1527.31 709.754L1520.07 716.952C1519.49 717.528 1519.48 718.386 1520.03 718.984L1520.77 719.774C1521.38 720.427 1522.47 720.555 1523.25 720.064L1531.76 714.712Z" fill="#0B053E"/>
<path d="M1531.76 714.712C1532.54 714.218 1532.74 713.274 1532.2 712.568L1530.2 709.932C1529.53 709.06 1528.1 708.971 1527.31 709.754L1520.07 716.952C1519.49 717.528 1519.48 718.386 1520.03 718.984L1520.77 719.774C1521.38 720.427 1522.47 720.555 1523.25 720.064L1531.76 714.712Z" fill="url(#paint109_linear)"/>
<path d="M1517.07 654.178C1517.2 653.936 1517.59 653.935 1517.73 654.176L1525.44 668.259C1525.53 668.408 1525.46 668.586 1525.29 668.668L1516.56 672.942C1516.41 673.014 1516.23 672.988 1516.11 672.878L1510.27 667.262C1510.17 667.168 1510.15 667.033 1510.21 666.918L1517.07 654.178Z" fill="#0B053E"/>
<path d="M1517.07 654.178C1517.2 653.936 1517.59 653.935 1517.73 654.176L1525.44 668.259C1525.53 668.408 1525.46 668.586 1525.29 668.668L1516.56 672.942C1516.41 673.014 1516.23 672.988 1516.11 672.878L1510.27 667.262C1510.17 667.168 1510.15 667.033 1510.21 666.918L1517.07 654.178Z" fill="url(#paint110_linear)"/>
<path d="M1516.07 719.68H1518.62V731.643L1516.11 733.996L1516.07 719.68Z" fill="#0B053E"/>
<path d="M1516.07 719.68H1518.62V731.643L1516.11 733.996L1516.07 719.68Z" fill="url(#paint111_linear)"/>
<rect x="1801.99" y="711.996" width="78" height="18" fill="#7F4051"/>
<path d="M1805.98 692.992C1805.98 691.335 1807.33 689.992 1808.98 689.992H1872.98C1874.64 689.992 1875.98 691.335 1875.98 692.992V711.992H1805.98V692.992Z" fill="#F9F9F9" fill-opacity="0.44"/>
<path d="M1817.65 679.492C1817.65 676.731 1819.89 674.492 1822.65 674.492H1859.73C1862.49 674.492 1864.73 676.731 1864.73 679.492V693.242H1817.65V679.492Z" fill="#F9F9F9" fill-opacity="0.44"/>
<path d="M1821.98 666.992C1821.98 664.231 1824.22 661.992 1826.98 661.992H1854.98C1857.75 661.992 1859.98 664.231 1859.98 666.992V675.992H1821.98V666.992Z" fill="#F9F9F9" fill-opacity="0.44"/>
<path d="M1812.23 690.328H1870.57C1870.57 690.328 1868.06 696.902 1864.53 699.078C1856.4 704.078 1850.51 704.113 1841.19 704.078C1832.03 704.044 1825.98 704.078 1818.28 699.078C1814.79 696.818 1812.23 690.328 1812.23 690.328Z" fill="#7F4051"/>
<path d="M1823.9 675.742H1858.48C1858.48 675.742 1857 679.725 1854.9 681.043C1850.08 684.073 1846.59 684.094 1841.07 684.073C1835.64 684.052 1832.05 684.073 1827.48 681.043C1825.41 679.674 1823.9 675.742 1823.9 675.742Z" fill="#7F4051"/>
<path d="M1829.32 663.66H1853.07C1853.07 663.66 1852.05 666.448 1850.61 667.371C1847.3 669.492 1844.9 669.506 1841.11 669.492C1837.38 669.477 1834.92 669.492 1831.78 667.371C1830.36 666.413 1829.32 663.66 1829.32 663.66Z" fill="#7F4051"/>
<rect x="1839.32" y="669.492" width="4.16668" height="42.5001" fill="#7F4051"/>
<rect x="2632.72" y="628.258" width="502.174" height="30.4348" fill="#F9DFCE"/>
<rect x="2564.24" y="666.301" width="641.033" height="79.8913" fill="#F9DFCE"/>
<path fill-rule="evenodd" clip-rule="evenodd" d="M2832.38 749.996V747.608H2549.05V675.96L2530 671.183V666.406L2594.29 652.077H2606.19V635.359L2591.9 628.194V625.806L2672.86 606.699H2827.62V594.758H2844.29V587.593H2827.62V582.816L2851.43 575.652H2834.76V570.875L2858.57 561.322H2844.29V554.157L2880 535.051L2915.71 554.157V561.322H2901.43L2925.24 570.875V575.652H2908.57L2932.38 582.816V587.593H2915.71V594.758H2932.38V606.699H3087.14L3168.1 625.806V628.194L3153.81 635.359V652.077H3165.71L3230 666.406V671.183L3210.95 675.96V747.608H2927.62V749.996H2832.38ZM2841.9 735.667V704.619H2920.48V735.667H2841.9ZM2963.33 673.571V686.707H2980V673.571H2963.33ZM2963.33 732.084V703.425C2963.33 703.425 2964.52 698.648 2971.67 698.648C2978.81 698.648 2980 703.425 2980 703.425V732.084H2963.33ZM2782.38 671.183V684.319H2799.05V671.183H2782.38ZM2799.05 729.696H2782.38V701.037C2782.38 701.037 2783.57 696.26 2790.71 696.26C2797.86 696.26 2799.05 701.037 2799.05 701.037V729.696ZM2746.67 671.183V684.319H2763.33V671.183H2746.67ZM2763.33 729.696H2746.67V701.037C2746.67 701.037 2747.86 696.26 2755 696.26C2762.14 696.26 2763.33 701.037 2763.33 701.037V729.696ZM2710.95 671.183V684.319H2727.62V671.183H2710.95ZM2727.62 729.696H2710.95V701.037C2710.95 701.037 2712.14 696.26 2719.29 696.26C2726.43 696.26 2727.62 701.037 2727.62 701.037V729.696ZM2675.24 671.183V684.319H2691.9V671.183H2675.24ZM2691.9 729.696H2675.24V701.037C2675.24 701.037 2676.43 696.26 2683.57 696.26C2690.71 696.26 2691.9 701.037 2691.9 701.037V729.696ZM2639.52 671.183V684.319H2656.19V671.183H2639.52ZM2656.19 729.696H2639.52V701.037C2639.52 701.037 2640.71 696.26 2647.86 696.26C2655 696.26 2656.19 701.037 2656.19 701.037V729.696ZM2603.81 671.183V684.319H2620.48V671.183H2603.81ZM2620.48 729.696H2603.81V701.037C2603.81 701.037 2605 696.26 2612.14 696.26C2619.29 696.26 2620.48 701.037 2620.48 701.037V729.696ZM2568.1 671.183V684.319H2584.76V671.183H2568.1ZM2851.43 650.883V637.747H2868.1V650.883H2851.43ZM2815.71 637.747V650.883H2832.38V637.747H2815.71ZM2780 650.883V637.747H2796.67V650.883H2780ZM2744.29 637.747V650.883H2760.95V637.747H2744.29ZM2708.57 650.883V637.747H2725.24V650.883H2708.57ZM2672.86 637.747V650.883H2689.52V637.747H2672.86ZM2637.14 650.883V637.747H2653.81V650.883H2637.14ZM3106.19 637.747V650.883H3122.86V637.747H3106.19ZM3070.48 650.883V637.747H3087.14V650.883H3070.48ZM3034.76 637.747V650.883H3051.43V637.747H3034.76ZM2999.05 650.883V637.747H3015.71V650.883H2999.05ZM2963.33 637.747V650.883H2980V637.747H2963.33ZM2927.62 650.883V637.747H2944.29V650.883H2927.62ZM2891.9 637.747V650.883H2908.57V637.747H2891.9ZM2584.76 729.696H2568.1V701.037C2568.1 701.037 2569.29 696.26 2576.43 696.26C2583.57 696.26 2584.76 701.037 2584.76 701.037V729.696ZM2999.05 673.571V686.707H3015.71V673.571H2999.05ZM2999.05 732.084V703.425C2999.05 703.425 3000.24 698.648 3007.38 698.648C3014.52 698.648 3015.71 703.425 3015.71 703.425V732.084H2999.05ZM3034.76 673.571V686.707H3051.43V673.571H3034.76ZM3034.76 732.084V703.425C3034.76 703.425 3035.95 698.648 3043.1 698.648C3050.24 698.648 3051.43 703.425 3051.43 703.425V732.084H3034.76ZM3070.48 673.571V686.707H3087.14V673.571H3070.48ZM3070.48 732.084V703.425C3070.48 703.425 3071.67 698.648 3078.81 698.648C3085.95 698.648 3087.14 703.425 3087.14 703.425V732.084H3070.48ZM3106.19 673.571V686.707H3122.86V673.571H3106.19ZM3106.19 732.084V703.425C3106.19 703.425 3107.38 698.648 3114.52 698.648C3121.67 698.648 3122.86 703.425 3122.86 703.425V732.084H3106.19ZM3141.9 673.571V686.707H3158.57V673.571H3141.9ZM3141.9 732.084V703.425C3141.9 703.425 3143.1 698.648 3150.24 698.648C3157.38 698.648 3158.57 703.425 3158.57 703.425V732.084H3141.9ZM3177.62 673.571V686.707H3194.29V673.571H3177.62ZM3177.62 732.084V703.425C3177.62 703.425 3178.81 698.648 3185.95 698.648C3193.1 698.648 3194.29 703.425 3194.29 703.425V732.084H3177.62ZM2922.86 745.22V740.443H2837.14V745.22H2922.86Z" fill="#6B3249"/>
<path d="M3435.53 711.391L3443.89 699.996L3452.25 711.391H3449.21L3459.09 725.446H3456.81L3465.54 738.74H3463.26L3471.24 752.035H3467.82L3478.46 767.419H3474.85L3483.78 782.802H3404.01L3412.93 767.419H3410.09L3420.34 752.035H3416.54L3424.52 738.74H3422.24L3430.98 725.446H3428.7L3438.57 711.391H3435.53Z" fill="#7F4051"/>
<rect x="3439.71" y="782.801" width="9.11628" height="15.1938" fill="#7F4051"/>
<path d="M3545.3 711.391L3553.66 699.996L3562.01 711.391H3558.97L3568.85 725.446H3566.57L3575.31 738.74H3573.03L3581.01 752.035H3577.59L3588.22 767.419H3584.61L3593.54 782.802H3513.77L3522.7 767.419H3519.85L3530.11 752.035H3526.31L3534.29 738.74H3532.01L3540.74 725.446H3538.46L3548.34 711.391H3545.3Z" fill="#7F4051"/>
<rect x="3549.48" y="782.801" width="9.11628" height="15.1938" fill="#7F4051"/>
<path d="M3655.07 711.391L3663.42 699.996L3671.78 711.391H3668.74L3678.62 725.446H3676.34L3685.07 738.74H3682.79L3690.77 752.035H3687.35L3697.99 767.419H3694.38L3703.31 782.802H3623.54L3632.47 767.419H3629.62L3639.87 752.035H3636.07L3644.05 738.74H3641.77L3650.51 725.446H3648.23L3658.1 711.391H3655.07Z" fill="#7F4051"/>
<rect x="3659.24" y="782.801" width="9.11628" height="15.1938" fill="#7F4051"/>
<path d="M3764.83 711.391L3773.19 699.996L3781.54 711.391H3778.51L3788.38 725.446H3786.1L3794.84 738.74H3792.56L3800.54 752.035H3797.12L3807.75 767.419H3804.15L3813.07 782.802H3733.3L3742.23 767.419H3739.38L3749.64 752.035H3745.84L3753.82 738.74H3751.54L3760.27 725.446H3757.99L3767.87 711.391H3764.83Z" fill="#7F4051"/>
<rect x="3769.01" y="782.801" width="9.11628" height="15.1938" fill="#7F4051"/>
<rect x="2342.55" y="455.508" width="36.4138" height="290.483" fill="#6B3249"/>
<rect x="2378.96" y="455.508" width="6.62069" height="290.483" fill="#7F4051"/>
<rect x="2335.92" y="455.508" width="6.62069" height="290.483" fill="#7F4051"/>
<rect x="2337.58" y="402.543" width="45.5172" height="43.8621" fill="#6B3249"/>
<rect x="2331.78" y="402.543" width="5.7931" height="43.8621" fill="#7F4051"/>
<rect x="2383.09" y="402.543" width="5.7931" height="43.8621" fill="#7F4051"/>
<rect x="2331.79" y="446.406" width="57.1035" height="4.96552" fill="#4F2941"/>
<rect x="2331.79" y="397.578" width="57.1035" height="4.96552" fill="#4F2941"/>
<path d="M2331.79 451.371H2388.89L2385.58 455.509H2335.93L2331.79 451.371Z" fill="#4F2941"/>
<path d="M2395.1 397.578H2325.99L2360.75 361.992L2395.1 397.578Z" fill="#602A40"/>
<circle cx="2360.76" cy="424.889" r="14.069" fill="#EFEEEE"/>
<rect x="2360.74" y="411.648" width="0.827586" height="2.48276" fill="#602A40"/>
<rect x="2360.74" y="435.648" width="0.827586" height="2.48276" fill="#602A40"/>
<rect x="2373.98" y="424.891" width="0.827586" height="2.48276" transform="rotate(90 2373.98 424.891)" fill="#602A40"/>
<rect x="2349.98" y="424.891" width="0.827586" height="2.48276" transform="rotate(90 2349.98 424.891)" fill="#602A40"/>
<path d="M2361.16 415.371V425.716H2368.2" stroke="#4F2941"/>
<path d="M2353.3 522.132C2353.3 517.79 2356.82 514.27 2361.17 514.27V514.27C2365.51 514.27 2369.03 517.79 2369.03 522.132V549.856H2353.3V522.132Z" fill="#F9DFCE"/>
<rect width="8" height="88" transform="matrix(-1 0 0 1 264.008 657.996)" fill="#7F4051"/>
<rect width="20" height="5.86667" transform="matrix(-1 0 0 1 256.008 657.996)" fill="#7F4051"/>
<path d="M222.008 745.996L242.008 657.996H236.008L216.008 745.996H222.008Z" fill="#7F4051"/>
<rect x="802" y="657.996" width="8" height="88" fill="#7F4051"/>
<rect x="810" y="657.996" width="20" height="5.86667" fill="#7F4051"/>
<path d="M844 745.996L824 657.996H830L850 745.996H844Z" fill="#7F4051"/>
<rect x="1046" y="643.988" width="72" height="80" fill="#F9DFCE"/>
<rect x="1124" y="623.988" width="110" height="124" fill="#F9DFCE"/>
<rect x="1238" y="643.988" width="72" height="80" fill="#F9DFCE"/>
<path fill-rule="evenodd" clip-rule="evenodd" d="M1038.9 747.377V641.223L1032 636.608V629.684H1117.16V620.454L1105.65 613.531V604.3H1140.17L1178.15 571.992L1213.83 604.3H1250.65V613.531L1239.14 620.454V629.684H1322V636.608L1315.1 641.223V747.377H1236.84V751.992H1119.46V747.377H1038.9ZM1149.38 728.915V680.454H1206.92V728.915H1149.38ZM1124.06 627.377V671.223H1147.08V627.377H1124.06ZM1158.59 671.223V627.377H1197.71V671.223H1158.59ZM1232.24 627.377H1209.22V671.223H1232.24V627.377ZM1211.52 733.531V738.146H1144.78V733.531H1211.52ZM1216.13 747.377V742.761H1140.17V747.377H1216.13ZM1050.41 689.684H1066.52V721.992H1050.41V689.684ZM1091.84 689.684H1075.73V721.992H1091.84V689.684ZM1101.05 689.684H1117.16V721.992H1101.05V689.684ZM1255.25 689.684H1239.14V721.992H1255.25V689.684ZM1264.46 689.684H1280.57V721.992H1264.46V689.684ZM1305.89 689.684H1289.78V721.992H1305.89V689.684ZM1239.14 645.838H1255.25V678.146H1239.14V645.838ZM1280.57 645.838H1264.46V678.146H1280.57V645.838ZM1289.78 645.838H1305.89V678.146H1289.78V645.838ZM1066.52 645.838H1050.41V678.146H1066.52V645.838ZM1075.73 645.838H1091.84V678.146H1075.73V645.838ZM1117.16 645.838H1101.05V678.146H1117.16V645.838Z" fill="#6B3249"/>
</g>
<defs>
<linearGradient id="paint0_linear" x1="2157.99" y1="653.996" x2="2157.99" y2="731.643" gradientUnits="userSpaceOnUse">
<stop stop-color="#092158"/>
<stop offset="1" stop-color="#0B053E"/>
</linearGradient>
<linearGradient id="paint1_linear" x1="2157.99" y1="653.996" x2="2157.99" y2="731.643" gradientUnits="userSpaceOnUse">
<stop stop-color="#092158"/>
<stop offset="1" stop-color="#0B053E"/>
</linearGradient>
<linearGradient id="paint2_linear" x1="2157.99" y1="653.996" x2="2157.99" y2="731.643" gradientUnits="userSpaceOnUse">
<stop stop-color="#092158"/>
<stop offset="1" stop-color="#0B053E"/>
</linearGradient>
<linearGradient id="paint3_linear" x1="2157.99" y1="653.996" x2="2157.99" y2="731.643" gradientUnits="userSpaceOnUse">
<stop stop-color="#092158"/>
<stop offset="1" stop-color="#0B053E"/>
</linearGradient>
<linearGradient id="paint4_linear" x1="2157.99" y1="653.996" x2="2157.99" y2="731.643" gradientUnits="userSpaceOnUse">
<stop stop-color="#092158"/>
<stop offset="1" stop-color="#0B053E"/>
</linearGradient>
<linearGradient id="paint5_linear" x1="2157.99" y1="653.996" x2="2157.99" y2="731.643" gradientUnits="userSpaceOnUse">
<stop stop-color="#092158"/>
<stop offset="1" stop-color="#0B053E"/>
</linearGradient>
<linearGradient id="paint6_linear" x1="2157.99" y1="653.996" x2="2157.99" y2="731.643" gradientUnits="userSpaceOnUse">
<stop stop-color="#092158"/>
<stop offset="1" stop-color="#0B053E"/>
</linearGradient>
<linearGradient id="paint7_linear" x1="2157.99" y1="653.996" x2="2157.99" y2="731.643" gradientUnits="userSpaceOnUse">
<stop stop-color="#092158"/>
<stop offset="1" stop-color="#0B053E"/>
</linearGradient>
<linearGradient id="paint8_linear" x1="2157.99" y1="653.996" x2="2157.99" y2="731.643" gradientUnits="userSpaceOnUse">
<stop stop-color="#092158"/>
<stop offset="1" stop-color="#0B053E"/>
</linearGradient>
<linearGradient id="paint9_linear" x1="2157.99" y1="653.996" x2="2157.99" y2="731.643" gradientUnits="userSpaceOnUse">
<stop stop-color="#092158"/>
<stop offset="1" stop-color="#0B053E"/>
</linearGradient>
<linearGradient id="paint10_linear" x1="2157.99" y1="653.996" x2="2157.99" y2="731.643" gradientUnits="userSpaceOnUse">
<stop stop-color="#092158"/>
<stop offset="1" stop-color="#0B053E"/>
</linearGradient>
<linearGradient id="paint11_linear" x1="2157.99" y1="653.996" x2="2157.99" y2="731.643" gradientUnits="userSpaceOnUse">
<stop stop-color="#092158"/>
<stop offset="1" stop-color="#0B053E"/>
</linearGradient>
<linearGradient id="paint12_linear" x1="2157.99" y1="653.996" x2="2157.99" y2="731.643" gradientUnits="userSpaceOnUse">
<stop stop-color="#092158"/>
<stop offset="1" stop-color="#0B053E"/>
</linearGradient>
<linearGradient id="paint13_linear" x1="2157.99" y1="653.996" x2="2157.99" y2="731.643" gradientUnits="userSpaceOnUse">
<stop stop-color="#092158"/>
<stop offset="1" stop-color="#0B053E"/>
</linearGradient>
<linearGradient id="paint14_linear" x1="2077.99" y1="653.996" x2="2077.99" y2="731.643" gradientUnits="userSpaceOnUse">
<stop stop-color="#092158"/>
<stop offset="1" stop-color="#0B053E"/>
</linearGradient>
<linearGradient id="paint15_linear" x1="2077.99" y1="653.996" x2="2077.99" y2="731.643" gradientUnits="userSpaceOnUse">
<stop stop-color="#092158"/>
<stop offset="1" stop-color="#0B053E"/>
</linearGradient>
<linearGradient id="paint16_linear" x1="2077.99" y1="653.996" x2="2077.99" y2="731.643" gradientUnits="userSpaceOnUse">
<stop stop-color="#092158"/>
<stop offset="1" stop-color="#0B053E"/>
</linearGradient>
<linearGradient id="paint17_linear" x1="2077.99" y1="653.996" x2="2077.99" y2="731.643" gradientUnits="userSpaceOnUse">
<stop stop-color="#092158"/>
<stop offset="1" stop-color="#0B053E"/>
</linearGradient>
<linearGradient id="paint18_linear" x1="2077.99" y1="653.996" x2="2077.99" y2="731.643" gradientUnits="userSpaceOnUse">
<stop stop-color="#092158"/>
<stop offset="1" stop-color="#0B053E"/>
</linearGradient>
<linearGradient id="paint19_linear" x1="2077.99" y1="653.996" x2="2077.99" y2="731.643" gradientUnits="userSpaceOnUse">
<stop stop-color="#092158"/>
<stop offset="1" stop-color="#0B053E"/>
</linearGradient>
<linearGradient id="paint20_linear" x1="2077.99" y1="653.996" x2="2077.99" y2="731.643" gradientUnits="userSpaceOnUse">
<stop stop-color="#092158"/>
<stop offset="1" stop-color="#0B053E"/>
</linearGradient>
<linearGradient id="paint21_linear" x1="2077.99" y1="653.996" x2="2077.99" y2="731.643" gradientUnits="userSpaceOnUse">
<stop stop-color="#092158"/>
<stop offset="1" stop-color="#0B053E"/>
</linearGradient>
<linearGradient id="paint22_linear" x1="2077.99" y1="653.996" x2="2077.99" y2="731.643" gradientUnits="userSpaceOnUse">
<stop stop-color="#092158"/>
<stop offset="1" stop-color="#0B053E"/>
</linearGradient>
<linearGradient id="paint23_linear" x1="2077.99" y1="653.996" x2="2077.99" y2="731.643" gradientUnits="userSpaceOnUse">
<stop stop-color="#092158"/>
<stop offset="1" stop-color="#0B053E"/>
</linearGradient>
<linearGradient id="paint24_linear" x1="2077.99" y1="653.996" x2="2077.99" y2="731.643" gradientUnits="userSpaceOnUse">
<stop stop-color="#092158"/>
<stop offset="1" stop-color="#0B053E"/>
</linearGradient>
<linearGradient id="paint25_linear" x1="2077.99" y1="653.996" x2="2077.99" y2="731.643" gradientUnits="userSpaceOnUse">
<stop stop-color="#092158"/>
<stop offset="1" stop-color="#0B053E"/>
</linearGradient>
<linearGradient id="paint26_linear" x1="2077.99" y1="653.996" x2="2077.99" y2="731.643" gradientUnits="userSpaceOnUse">
<stop stop-color="#092158"/>
<stop offset="1" stop-color="#0B053E"/>
</linearGradient>
<linearGradient id="paint27_linear" x1="2077.99" y1="653.996" x2="2077.99" y2="731.643" gradientUnits="userSpaceOnUse">
<stop stop-color="#092158"/>
<stop offset="1" stop-color="#0B053E"/>
</linearGradient>
<linearGradient id="paint28_linear" x1="1997.99" y1="653.996" x2="1997.99" y2="731.643" gradientUnits="userSpaceOnUse">
<stop stop-color="#092158"/>
<stop offset="1" stop-color="#0B053E"/>
</linearGradient>
<linearGradient id="paint29_linear" x1="1997.99" y1="653.996" x2="1997.99" y2="731.643" gradientUnits="userSpaceOnUse">
<stop stop-color="#092158"/>
<stop offset="1" stop-color="#0B053E"/>
</linearGradient>
<linearGradient id="paint30_linear" x1="1997.99" y1="653.996" x2="1997.99" y2="731.643" gradientUnits="userSpaceOnUse">
<stop stop-color="#092158"/>
<stop offset="1" stop-color="#0B053E"/>
</linearGradient>
<linearGradient id="paint31_linear" x1="1997.99" y1="653.996" x2="1997.99" y2="731.643" gradientUnits="userSpaceOnUse">
<stop stop-color="#092158"/>
<stop offset="1" stop-color="#0B053E"/>
</linearGradient>
<linearGradient id="paint32_linear" x1="1997.99" y1="653.996" x2="1997.99" y2="731.643" gradientUnits="userSpaceOnUse">
<stop stop-color="#092158"/>
<stop offset="1" stop-color="#0B053E"/>
</linearGradient>
<linearGradient id="paint33_linear" x1="1997.99" y1="653.996" x2="1997.99" y2="731.643" gradientUnits="userSpaceOnUse">
<stop stop-color="#092158"/>
<stop offset="1" stop-color="#0B053E"/>
</linearGradient>
<linearGradient id="paint34_linear" x1="1997.99" y1="653.996" x2="1997.99" y2="731.643" gradientUnits="userSpaceOnUse">
<stop stop-color="#092158"/>
<stop offset="1" stop-color="#0B053E"/>
</linearGradient>
<linearGradient id="paint35_linear" x1="1997.99" y1="653.996" x2="1997.99" y2="731.643" gradientUnits="userSpaceOnUse">
<stop stop-color="#092158"/>
<stop offset="1" stop-color="#0B053E"/>
</linearGradient>
<linearGradient id="paint36_linear" x1="1997.99" y1="653.996" x2="1997.99" y2="731.643" gradientUnits="userSpaceOnUse">
<stop stop-color="#092158"/>
<stop offset="1" stop-color="#0B053E"/>
</linearGradient>
<linearGradient id="paint37_linear" x1="1997.99" y1="653.996" x2="1997.99" y2="731.643" gradientUnits="userSpaceOnUse">
<stop stop-color="#092158"/>
<stop offset="1" stop-color="#0B053E"/>
</linearGradient>
<linearGradient id="paint38_linear" x1="1997.99" y1="653.996" x2="1997.99" y2="731.643" gradientUnits="userSpaceOnUse">
<stop stop-color="#092158"/>
<stop offset="1" stop-color="#0B053E"/>
</linearGradient>
<linearGradient id="paint39_linear" x1="1997.99" y1="653.996" x2="1997.99" y2="731.643" gradientUnits="userSpaceOnUse">
<stop stop-color="#092158"/>
<stop offset="1" stop-color="#0B053E"/>
</linearGradient>
<linearGradient id="paint40_linear" x1="1997.99" y1="653.996" x2="1997.99" y2="731.643" gradientUnits="userSpaceOnUse">
<stop stop-color="#092158"/>
<stop offset="1" stop-color="#0B053E"/>
</linearGradient>
<linearGradient id="paint41_linear" x1="1997.99" y1="653.996" x2="1997.99" y2="731.643" gradientUnits="userSpaceOnUse">
<stop stop-color="#092158"/>
<stop offset="1" stop-color="#0B053E"/>
</linearGradient>
<linearGradient id="paint42_linear" x1="1917.99" y1="653.996" x2="1917.99" y2="731.643" gradientUnits="userSpaceOnUse">
<stop stop-color="#092158"/>
<stop offset="1" stop-color="#0B053E"/>
</linearGradient>
<linearGradient id="paint43_linear" x1="1917.99" y1="653.996" x2="1917.99" y2="731.643" gradientUnits="userSpaceOnUse">
<stop stop-color="#092158"/>
<stop offset="1" stop-color="#0B053E"/>
</linearGradient>
<linearGradient id="paint44_linear" x1="1917.99" y1="653.996" x2="1917.99" y2="731.643" gradientUnits="userSpaceOnUse">
<stop stop-color="#092158"/>
<stop offset="1" stop-color="#0B053E"/>
</linearGradient>
<linearGradient id="paint45_linear" x1="1917.99" y1="653.996" x2="1917.99" y2="731.643" gradientUnits="userSpaceOnUse">
<stop stop-color="#092158"/>
<stop offset="1" stop-color="#0B053E"/>
</linearGradient>
<linearGradient id="paint46_linear" x1="1917.99" y1="653.996" x2="1917.99" y2="731.643" gradientUnits="userSpaceOnUse">
<stop stop-color="#092158"/>
<stop offset="1" stop-color="#0B053E"/>
</linearGradient>
<linearGradient id="paint47_linear" x1="1917.99" y1="653.996" x2="1917.99" y2="731.643" gradientUnits="userSpaceOnUse">
<stop stop-color="#092158"/>
<stop offset="1" stop-color="#0B053E"/>
</linearGradient>
<linearGradient id="paint48_linear" x1="1917.99" y1="653.996" x2="1917.99" y2="731.643" gradientUnits="userSpaceOnUse">
<stop stop-color="#092158"/>
<stop offset="1" stop-color="#0B053E"/>
</linearGradient>
<linearGradient id="paint49_linear" x1="1917.99" y1="653.996" x2="1917.99" y2="731.643" gradientUnits="userSpaceOnUse">
<stop stop-color="#092158"/>
<stop offset="1" stop-color="#0B053E"/>
</linearGradient>
<linearGradient id="paint50_linear" x1="1917.99" y1="653.996" x2="1917.99" y2="731.643" gradientUnits="userSpaceOnUse">
<stop stop-color="#092158"/>
<stop offset="1" stop-color="#0B053E"/>
</linearGradient>
<linearGradient id="paint51_linear" x1="1917.99" y1="653.996" x2="1917.99" y2="731.643" gradientUnits="userSpaceOnUse">
<stop stop-color="#092158"/>
<stop offset="1" stop-color="#0B053E"/>
</linearGradient>
<linearGradient id="paint52_linear" x1="1917.99" y1="653.996" x2="1917.99" y2="731.643" gradientUnits="userSpaceOnUse">
<stop stop-color="#092158"/>
<stop offset="1" stop-color="#0B053E"/>
</linearGradient>
<linearGradient id="paint53_linear" x1="1917.99" y1="653.996" x2="1917.99" y2="731.643" gradientUnits="userSpaceOnUse">
<stop stop-color="#092158"/>
<stop offset="1" stop-color="#0B053E"/>
</linearGradient>
<linearGradient id="paint54_linear" x1="1917.99" y1="653.996" x2="1917.99" y2="731.643" gradientUnits="userSpaceOnUse">
<stop stop-color="#092158"/>
<stop offset="1" stop-color="#0B053E"/>
</linearGradient>
<linearGradient id="paint55_linear" x1="1917.99" y1="653.996" x2="1917.99" y2="731.643" gradientUnits="userSpaceOnUse">
<stop stop-color="#092158"/>
<stop offset="1" stop-color="#0B053E"/>
</linearGradient>
<linearGradient id="paint56_linear" x1="1757.99" y1="653.996" x2="1757.99" y2="731.643" gradientUnits="userSpaceOnUse">
<stop stop-color="#092158"/>
<stop offset="1" stop-color="#0B053E"/>
</linearGradient>
<linearGradient id="paint57_linear" x1="1757.99" y1="653.996" x2="1757.99" y2="731.643" gradientUnits="userSpaceOnUse">
<stop stop-color="#092158"/>
<stop offset="1" stop-color="#0B053E"/>
</linearGradient>
<linearGradient id="paint58_linear" x1="1757.99" y1="653.996" x2="1757.99" y2="731.643" gradientUnits="userSpaceOnUse">
<stop stop-color="#092158"/>
<stop offset="1" stop-color="#0B053E"/>
</linearGradient>
<linearGradient id="paint59_linear" x1="1757.99" y1="653.996" x2="1757.99" y2="731.643" gradientUnits="userSpaceOnUse">
<stop stop-color="#092158"/>
<stop offset="1" stop-color="#0B053E"/>
</linearGradient>
<linearGradient id="paint60_linear" x1="1757.99" y1="653.996" x2="1757.99" y2="731.643" gradientUnits="userSpaceOnUse">
<stop stop-color="#092158"/>
<stop offset="1" stop-color="#0B053E"/>
</linearGradient>
<linearGradient id="paint61_linear" x1="1757.99" y1="653.996" x2="1757.99" y2="731.643" gradientUnits="userSpaceOnUse">
<stop stop-color="#092158"/>
<stop offset="1" stop-color="#0B053E"/>
</linearGradient>
<linearGradient id="paint62_linear" x1="1757.99" y1="653.996" x2="1757.99" y2="731.643" gradientUnits="userSpaceOnUse">
<stop stop-color="#092158"/>
<stop offset="1" stop-color="#0B053E"/>
</linearGradient>
<linearGradient id="paint63_linear" x1="1757.99" y1="653.996" x2="1757.99" y2="731.643" gradientUnits="userSpaceOnUse">
<stop stop-color="#092158"/>
<stop offset="1" stop-color="#0B053E"/>
</linearGradient>
<linearGradient id="paint64_linear" x1="1757.99" y1="653.996" x2="1757.99" y2="731.643" gradientUnits="userSpaceOnUse">
<stop stop-color="#092158"/>
<stop offset="1" stop-color="#0B053E"/>
</linearGradient>
<linearGradient id="paint65_linear" x1="1757.99" y1="653.996" x2="1757.99" y2="731.643" gradientUnits="userSpaceOnUse">
<stop stop-color="#092158"/>
<stop offset="1" stop-color="#0B053E"/>
</linearGradient>
<linearGradient id="paint66_linear" x1="1757.99" y1="653.996" x2="1757.99" y2="731.643" gradientUnits="userSpaceOnUse">
<stop stop-color="#092158"/>
<stop offset="1" stop-color="#0B053E"/>
</linearGradient>
<linearGradient id="paint67_linear" x1="1757.99" y1="653.996" x2="1757.99" y2="731.643" gradientUnits="userSpaceOnUse">
<stop stop-color="#092158"/>
<stop offset="1" stop-color="#0B053E"/>
</linearGradient>
<linearGradient id="paint68_linear" x1="1757.99" y1="653.996" x2="1757.99" y2="731.643" gradientUnits="userSpaceOnUse">
<stop stop-color="#092158"/>
<stop offset="1" stop-color="#0B053E"/>
</linearGradient>
<linearGradient id="paint69_linear" x1="1757.99" y1="653.996" x2="1757.99" y2="731.643" gradientUnits="userSpaceOnUse">
<stop stop-color="#092158"/>
<stop offset="1" stop-color="#0B053E"/>
</linearGradient>
<linearGradient id="paint70_linear" x1="1677.99" y1="653.996" x2="1677.99" y2="731.643" gradientUnits="userSpaceOnUse">
<stop stop-color="#092158"/>
<stop offset="1" stop-color="#0B053E"/>
</linearGradient>
<linearGradient id="paint71_linear" x1="1677.99" y1="653.996" x2="1677.99" y2="731.643" gradientUnits="userSpaceOnUse">
<stop stop-color="#092158"/>
<stop offset="1" stop-color="#0B053E"/>
</linearGradient>
<linearGradient id="paint72_linear" x1="1677.99" y1="653.996" x2="1677.99" y2="731.643" gradientUnits="userSpaceOnUse">
<stop stop-color="#092158"/>
<stop offset="1" stop-color="#0B053E"/>
</linearGradient>
<linearGradient id="paint73_linear" x1="1677.99" y1="653.996" x2="1677.99" y2="731.643" gradientUnits="userSpaceOnUse">
<stop stop-color="#092158"/>
<stop offset="1" stop-color="#0B053E"/>
</linearGradient>
<linearGradient id="paint74_linear" x1="1677.99" y1="653.996" x2="1677.99" y2="731.643" gradientUnits="userSpaceOnUse">
<stop stop-color="#092158"/>
<stop offset="1" stop-color="#0B053E"/>
</linearGradient>
<linearGradient id="paint75_linear" x1="1677.99" y1="653.996" x2="1677.99" y2="731.643" gradientUnits="userSpaceOnUse">
<stop stop-color="#092158"/>
<stop offset="1" stop-color="#0B053E"/>
</linearGradient>
<linearGradient id="paint76_linear" x1="1677.99" y1="653.996" x2="1677.99" y2="731.643" gradientUnits="userSpaceOnUse">
<stop stop-color="#092158"/>
<stop offset="1" stop-color="#0B053E"/>
</linearGradient>
<linearGradient id="paint77_linear" x1="1677.99" y1="653.996" x2="1677.99" y2="731.643" gradientUnits="userSpaceOnUse">
<stop stop-color="#092158"/>
<stop offset="1" stop-color="#0B053E"/>
</linearGradient>
<linearGradient id="paint78_linear" x1="1677.99" y1="653.996" x2="1677.99" y2="731.643" gradientUnits="userSpaceOnUse">
<stop stop-color="#092158"/>
<stop offset="1" stop-color="#0B053E"/>
</linearGradient>
<linearGradient id="paint79_linear" x1="1677.99" y1="653.996" x2="1677.99" y2="731.643" gradientUnits="userSpaceOnUse">
<stop stop-color="#092158"/>
<stop offset="1" stop-color="#0B053E"/>
</linearGradient>
<linearGradient id="paint80_linear" x1="1677.99" y1="653.996" x2="1677.99" y2="731.643" gradientUnits="userSpaceOnUse">
<stop stop-color="#092158"/>
<stop offset="1" stop-color="#0B053E"/>
</linearGradient>
<linearGradient id="paint81_linear" x1="1677.99" y1="653.996" x2="1677.99" y2="731.643" gradientUnits="userSpaceOnUse">
<stop stop-color="#092158"/>
<stop offset="1" stop-color="#0B053E"/>
</linearGradient>
<linearGradient id="paint82_linear" x1="1677.99" y1="653.996" x2="1677.99" y2="731.643" gradientUnits="userSpaceOnUse">
<stop stop-color="#092158"/>
<stop offset="1" stop-color="#0B053E"/>
</linearGradient>
<linearGradient id="paint83_linear" x1="1677.99" y1="653.996" x2="1677.99" y2="731.643" gradientUnits="userSpaceOnUse">
<stop stop-color="#092158"/>
<stop offset="1" stop-color="#0B053E"/>
</linearGradient>
<linearGradient id="paint84_linear" x1="1597.99" y1="653.996" x2="1597.99" y2="731.643" gradientUnits="userSpaceOnUse">
<stop stop-color="#092158"/>
<stop offset="1" stop-color="#0B053E"/>
</linearGradient>
<linearGradient id="paint85_linear" x1="1597.99" y1="653.996" x2="1597.99" y2="731.643" gradientUnits="userSpaceOnUse">
<stop stop-color="#092158"/>
<stop offset="1" stop-color="#0B053E"/>
</linearGradient>
<linearGradient id="paint86_linear" x1="1597.99" y1="653.996" x2="1597.99" y2="731.643" gradientUnits="userSpaceOnUse">
<stop stop-color="#092158"/>
<stop offset="1" stop-color="#0B053E"/>
</linearGradient>
<linearGradient id="paint87_linear" x1="1597.99" y1="653.996" x2="1597.99" y2="731.643" gradientUnits="userSpaceOnUse">
<stop stop-color="#092158"/>
<stop offset="1" stop-color="#0B053E"/>
</linearGradient>
<linearGradient id="paint88_linear" x1="1597.99" y1="653.996" x2="1597.99" y2="731.643" gradientUnits="userSpaceOnUse">
<stop stop-color="#092158"/>
<stop offset="1" stop-color="#0B053E"/>
</linearGradient>
<linearGradient id="paint89_linear" x1="1597.99" y1="653.996" x2="1597.99" y2="731.643" gradientUnits="userSpaceOnUse">
<stop stop-color="#092158"/>
<stop offset="1" stop-color="#0B053E"/>
</linearGradient>
<linearGradient id="paint90_linear" x1="1597.99" y1="653.996" x2="1597.99" y2="731.643" gradientUnits="userSpaceOnUse">
<stop stop-color="#092158"/>
<stop offset="1" stop-color="#0B053E"/>
</linearGradient>
<linearGradient id="paint91_linear" x1="1597.99" y1="653.996" x2="1597.99" y2="731.643" gradientUnits="userSpaceOnUse">
<stop stop-color="#092158"/>
<stop offset="1" stop-color="#0B053E"/>
</linearGradient>
<linearGradient id="paint92_linear" x1="1597.99" y1="653.996" x2="1597.99" y2="731.643" gradientUnits="userSpaceOnUse">
<stop stop-color="#092158"/>
<stop offset="1" stop-color="#0B053E"/>
</linearGradient>
<linearGradient id="paint93_linear" x1="1597.99" y1="653.996" x2="1597.99" y2="731.643" gradientUnits="userSpaceOnUse">
<stop stop-color="#092158"/>
<stop offset="1" stop-color="#0B053E"/>
</linearGradient>
<linearGradient id="paint94_linear" x1="1597.99" y1="653.996" x2="1597.99" y2="731.643" gradientUnits="userSpaceOnUse">
<stop stop-color="#092158"/>
<stop offset="1" stop-color="#0B053E"/>
</linearGradient>
<linearGradient id="paint95_linear" x1="1597.99" y1="653.996" x2="1597.99" y2="731.643" gradientUnits="userSpaceOnUse">
<stop stop-color="#092158"/>
<stop offset="1" stop-color="#0B053E"/>
</linearGradient>
<linearGradient id="paint96_linear" x1="1597.99" y1="653.996" x2="1597.99" y2="731.643" gradientUnits="userSpaceOnUse">
<stop stop-color="#092158"/>
<stop offset="1" stop-color="#0B053E"/>
</linearGradient>
<linearGradient id="paint97_linear" x1="1597.99" y1="653.996" x2="1597.99" y2="731.643" gradientUnits="userSpaceOnUse">
<stop stop-color="#092158"/>
<stop offset="1" stop-color="#0B053E"/>
</linearGradient>
<linearGradient id="paint98_linear" x1="1517.99" y1="653.996" x2="1517.99" y2="731.643" gradientUnits="userSpaceOnUse">
<stop stop-color="#092158"/>
<stop offset="1" stop-color="#0B053E"/>
</linearGradient>
<linearGradient id="paint99_linear" x1="1517.99" y1="653.996" x2="1517.99" y2="731.643" gradientUnits="userSpaceOnUse">
<stop stop-color="#092158"/>
<stop offset="1" stop-color="#0B053E"/>
</linearGradient>
<linearGradient id="paint100_linear" x1="1517.99" y1="653.996" x2="1517.99" y2="731.643" gradientUnits="userSpaceOnUse">
<stop stop-color="#092158"/>
<stop offset="1" stop-color="#0B053E"/>
</linearGradient>
<linearGradient id="paint101_linear" x1="1517.99" y1="653.996" x2="1517.99" y2="731.643" gradientUnits="userSpaceOnUse">
<stop stop-color="#092158"/>
<stop offset="1" stop-color="#0B053E"/>
</linearGradient>
<linearGradient id="paint102_linear" x1="1517.99" y1="653.996" x2="1517.99" y2="731.643" gradientUnits="userSpaceOnUse">
<stop stop-color="#092158"/>
<stop offset="1" stop-color="#0B053E"/>
</linearGradient>
<linearGradient id="paint103_linear" x1="1517.99" y1="653.996" x2="1517.99" y2="731.643" gradientUnits="userSpaceOnUse">
<stop stop-color="#092158"/>
<stop offset="1" stop-color="#0B053E"/>
</linearGradient>
<linearGradient id="paint104_linear" x1="1517.99" y1="653.996" x2="1517.99" y2="731.643" gradientUnits="userSpaceOnUse">
<stop stop-color="#092158"/>
<stop offset="1" stop-color="#0B053E"/>
</linearGradient>
<linearGradient id="paint105_linear" x1="1517.99" y1="653.996" x2="1517.99" y2="731.643" gradientUnits="userSpaceOnUse">
<stop stop-color="#092158"/>
<stop offset="1" stop-color="#0B053E"/>
</linearGradient>
<linearGradient id="paint106_linear" x1="1517.99" y1="653.996" x2="1517.99" y2="731.643" gradientUnits="userSpaceOnUse">
<stop stop-color="#092158"/>
<stop offset="1" stop-color="#0B053E"/>
</linearGradient>
<linearGradient id="paint107_linear" x1="1517.99" y1="653.996" x2="1517.99" y2="731.643" gradientUnits="userSpaceOnUse">
<stop stop-color="#092158"/>
<stop offset="1" stop-color="#0B053E"/>
</linearGradient>
<linearGradient id="paint108_linear" x1="1517.99" y1="653.996" x2="1517.99" y2="731.643" gradientUnits="userSpaceOnUse">
<stop stop-color="#092158"/>
<stop offset="1" stop-color="#0B053E"/>
</linearGradient>
<linearGradient id="paint109_linear" x1="1517.99" y1="653.996" x2="1517.99" y2="731.643" gradientUnits="userSpaceOnUse">
<stop stop-color="#092158"/>
<stop offset="1" stop-color="#0B053E"/>
</linearGradient>
<linearGradient id="paint110_linear" x1="1517.99" y1="653.996" x2="1517.99" y2="731.643" gradientUnits="userSpaceOnUse">
<stop stop-color="#092158"/>
<stop offset="1" stop-color="#0B053E"/>
</linearGradient>
<linearGradient id="paint111_linear" x1="1517.99" y1="653.996" x2="1517.99" y2="731.643" gradientUnits="userSpaceOnUse">
<stop stop-color="#092158"/>
<stop offset="1" stop-color="#0B053E"/>
</linearGradient>
</defs>
</svg>
