<svg width="2880" height="1080" viewBox="0 0 2880 1080" fill="none" xmlns="http://www.w3.org/2000/svg">
<mask id="mask0" style="mask-type:alpha" maskUnits="userSpaceOnUse" x="0" y="0" width="2880" height="1080">
<rect width="2880" height="1080" fill="#C4C4C4"/>
</mask>
<g mask="url(#mask0)">
<rect x="-0.015625" y="748.5" width="2880" height="331.5" fill="#562E4A"/>
<rect x="1333.49" y="669" width="198" height="79.5" fill="#562E4A"/>
<path d="M1325.99 658.5H1538.99L1531.49 670.5H1333.49L1325.99 658.5Z" fill="#562E4A"/>
<path d="M1345.49 738H1346.99V739.5H1358.99V738H1360.49V748.5H1345.49V738Z" fill="#4F2941"/>
<path d="M1363.49 738H1364.99V739.5H1376.99V738H1378.49V748.5H1363.49V738Z" fill="#4F2941"/>
<path d="M1381.49 738H1382.99V739.5H1394.99V738H1396.49V748.5H1381.49V738Z" fill="#4F2941"/>
<path d="M1399.49 738H1400.99V739.5H1412.99V738H1414.49V748.5H1399.49V738Z" fill="#4F2941"/>
<path d="M1417.49 738H1418.99V739.5H1430.99V738H1432.49V748.5H1417.49V738Z" fill="#4F2941"/>
<path d="M1435.49 738H1436.99V739.5H1448.99V738H1450.49V748.5H1435.49V738Z" fill="#4F2941"/>
<path d="M1453.49 738H1454.99V739.5H1466.99V738H1468.49V748.5H1453.49V738Z" fill="#4F2941"/>
<path d="M1471.49 738H1472.99V739.5H1484.99V738H1486.49V748.5H1471.49V738Z" fill="#4F2941"/>
<path d="M1489.49 738H1490.99V739.5H1502.99V738H1504.49V748.5H1489.49V738Z" fill="#4F2941"/>
<path d="M1507.49 738H1508.99V739.5H1520.99V738H1522.49V748.5H1507.49V738Z" fill="#4F2941"/>
<rect x="1430.99" y="658.5" width="6" height="3" fill="#C4C4C4"/>
<rect x="682.492" y="736.5" width="594" height="12" fill="#562E4A"/>
<path d="M1226.56 708.458C1226.56 720.65 1221.85 730.534 1216.04 730.534C1210.23 730.534 1204.3 720.65 1204.3 708.458C1204.3 696.266 1210.23 686.382 1216.04 686.382C1221.85 686.382 1226.56 696.266 1226.56 708.458Z" fill="#562E4A"/>
<path d="M1226.56 708.458C1226.56 720.65 1221.85 730.534 1216.04 730.534C1210.23 730.534 1204.3 720.65 1204.3 708.458C1204.3 696.266 1210.23 686.382 1216.04 686.382C1221.85 686.382 1226.56 696.266 1226.56 708.458Z" fill="url(#paint0_linear)"/>
<path d="M1201.85 707.075C1201.76 706.692 1201.89 706.292 1202.2 706.008L1206.35 702.26C1207.04 701.631 1208.26 701.846 1208.61 702.659L1212.11 710.697C1212.38 711.312 1212.02 711.998 1211.3 712.222L1205.22 714.135C1204.44 714.379 1203.59 713.975 1203.42 713.277L1201.85 707.075Z" fill="#562E4A"/>
<path d="M1201.85 707.075C1201.76 706.692 1201.89 706.292 1202.2 706.008L1206.35 702.26C1207.04 701.631 1208.26 701.846 1208.61 702.659L1212.11 710.697C1212.38 711.312 1212.02 711.998 1211.3 712.222L1205.22 714.135C1204.44 714.379 1203.59 713.975 1203.42 713.277L1201.85 707.075Z" fill="url(#paint1_linear)"/>
<path d="M1202.45 695.353C1202.41 694.918 1202.65 694.499 1203.08 694.264L1208.51 691.267C1209.35 690.804 1210.46 691.247 1210.6 692.099L1212.63 704.672C1212.72 705.26 1212.3 705.817 1211.63 705.973L1205.2 707.492C1204.38 707.687 1203.55 707.185 1203.48 706.448L1202.45 695.353Z" fill="#562E4A"/>
<path d="M1202.45 695.353C1202.41 694.918 1202.65 694.499 1203.08 694.264L1208.51 691.267C1209.35 690.804 1210.46 691.247 1210.6 692.099L1212.63 704.672C1212.72 705.26 1212.3 705.817 1211.63 705.973L1205.2 707.492C1204.38 707.687 1203.55 707.185 1203.48 706.448L1202.45 695.353Z" fill="url(#paint2_linear)"/>
<path d="M1201.81 717.292C1201.42 716.89 1201.38 716.314 1201.72 715.878L1204.88 711.78C1205.43 711.059 1206.67 711.083 1207.18 711.826L1213.46 720.838C1213.84 721.376 1213.66 722.074 1213.06 722.425L1210.09 724.155C1209.52 724.493 1208.73 724.399 1208.28 723.937L1201.81 717.292Z" fill="#562E4A"/>
<path d="M1201.81 717.292C1201.42 716.89 1201.38 716.314 1201.72 715.878L1204.88 711.78C1205.43 711.059 1206.67 711.083 1207.18 711.826L1213.46 720.838C1213.84 721.376 1213.66 722.074 1213.06 722.425L1210.09 724.155C1209.52 724.493 1208.73 724.399 1208.28 723.937L1201.81 717.292Z" fill="url(#paint3_linear)"/>
<path d="M1205.59 724.922C1204.99 724.551 1204.84 723.838 1205.25 723.309L1206.78 721.313C1207.28 720.667 1208.35 720.604 1208.95 721.187L1214.46 726.595C1214.9 727.028 1214.91 727.675 1214.49 728.122L1213.91 728.731C1213.46 729.213 1212.65 729.306 1212.06 728.942L1205.59 724.922Z" fill="#562E4A"/>
<path d="M1205.59 724.922C1204.99 724.551 1204.84 723.838 1205.25 723.309L1206.78 721.313C1207.28 720.667 1208.35 720.604 1208.95 721.187L1214.46 726.595C1214.9 727.028 1214.91 727.675 1214.49 728.122L1213.91 728.731C1213.46 729.213 1212.65 729.306 1212.06 728.942L1205.59 724.922Z" fill="url(#paint4_linear)"/>
<path d="M1231.44 706.118C1231.62 705.561 1231.31 704.971 1230.7 704.723L1225.32 702.521C1224.6 702.223 1223.73 702.532 1223.47 703.189L1220.33 710.856C1220.08 711.456 1220.43 712.12 1221.12 712.357L1227.2 714.464C1227.96 714.725 1228.8 714.364 1229.01 713.689L1231.44 706.118Z" fill="#562E4A"/>
<path d="M1231.44 706.118C1231.62 705.561 1231.31 704.971 1230.7 704.723L1225.32 702.521C1224.6 702.223 1223.73 702.532 1223.47 703.189L1220.33 710.856C1220.08 711.456 1220.43 712.12 1221.12 712.357L1227.2 714.464C1227.96 714.725 1228.8 714.364 1229.01 713.689L1231.44 706.118Z" fill="url(#paint5_linear)"/>
<path d="M1230.58 696.561C1230.62 696.151 1230.42 695.75 1230.04 695.502L1224 691.594C1223.17 691.055 1221.98 691.483 1221.84 692.372L1219.87 704.712C1219.78 705.333 1220.25 705.915 1220.96 706.038L1227.95 707.255C1228.74 707.393 1229.49 706.907 1229.57 706.209L1230.58 696.561Z" fill="#562E4A"/>
<path d="M1230.58 696.561C1230.62 696.151 1230.42 695.75 1230.04 695.502L1224 691.594C1223.17 691.055 1221.98 691.483 1221.84 692.372L1219.87 704.712C1219.78 705.333 1220.25 705.915 1220.96 706.038L1227.95 707.255C1228.74 707.393 1229.49 706.907 1229.57 706.209L1230.58 696.561Z" fill="url(#paint6_linear)"/>
<path d="M1224.33 689.289L1215.83 683.785L1213.38 699.207L1221.26 700.816L1224.33 695.354L1224.33 689.289Z" fill="#562E4A"/>
<path d="M1224.33 689.289L1215.83 683.785L1213.38 699.207L1221.26 700.816L1224.33 695.354L1224.33 689.289Z" fill="url(#paint7_linear)"/>
<path d="M1224.38 689.838C1224.35 689.49 1224.14 689.172 1223.81 688.969L1220.28 686.79C1220.1 686.677 1219.95 686.527 1219.85 686.354L1217.97 683.105C1217.36 682.052 1215.55 682.325 1215.4 683.494L1213.51 698.161C1213.43 698.757 1213.89 699.311 1214.56 699.449L1220.28 700.617C1220.86 700.736 1221.46 700.516 1221.77 700.075L1224.7 695.796C1224.84 695.585 1224.91 695.34 1224.89 695.096L1224.38 689.838Z" fill="#562E4A"/>
<path d="M1224.38 689.838C1224.35 689.49 1224.14 689.172 1223.81 688.969L1220.28 686.79C1220.1 686.677 1219.95 686.527 1219.85 686.354L1217.97 683.105C1217.36 682.052 1215.55 682.325 1215.4 683.494L1213.51 698.161C1213.43 698.757 1213.89 699.311 1214.56 699.449L1220.28 700.617C1220.86 700.736 1221.46 700.516 1221.77 700.075L1224.7 695.796C1224.84 695.585 1224.91 695.34 1224.89 695.096L1224.38 689.838Z" fill="url(#paint8_linear)"/>
<path d="M1207.48 689.813C1207.47 689.435 1207.68 689.08 1208.04 688.859L1211.94 686.438C1212.12 686.323 1212.27 686.171 1212.37 685.995L1213.85 683.342C1214.44 682.277 1216.29 682.554 1216.44 683.731L1218.33 698.142C1218.4 698.737 1217.95 699.286 1217.28 699.419L1211.64 700.523C1211.02 700.645 1210.38 700.38 1210.1 699.885L1207.63 695.504C1207.54 695.343 1207.49 695.167 1207.49 694.989L1207.48 689.813Z" fill="#562E4A"/>
<path d="M1207.48 689.813C1207.47 689.435 1207.68 689.08 1208.04 688.859L1211.94 686.438C1212.12 686.323 1212.27 686.171 1212.37 685.995L1213.85 683.342C1214.44 682.277 1216.29 682.554 1216.44 683.731L1218.33 698.142C1218.4 698.737 1217.95 699.286 1217.28 699.419L1211.64 700.523C1211.02 700.645 1210.38 700.38 1210.1 699.885L1207.63 695.504C1207.54 695.343 1207.49 695.167 1207.49 694.989L1207.48 689.813Z" fill="url(#paint9_linear)"/>
<path d="M1230.54 717.406C1230.93 717.006 1230.96 716.433 1230.63 715.996L1227.53 711.922C1226.98 711.193 1225.74 711.212 1225.23 711.959L1219.04 720.959C1218.67 721.496 1218.85 722.193 1219.45 722.547L1222.35 724.263C1222.93 724.606 1223.71 724.513 1224.16 724.048L1230.54 717.406Z" fill="#562E4A"/>
<path d="M1230.54 717.406C1230.93 717.006 1230.96 716.433 1230.63 715.996L1227.53 711.922C1226.98 711.193 1225.74 711.212 1225.23 711.959L1219.04 720.959C1218.67 721.496 1218.85 722.193 1219.45 722.547L1222.35 724.263C1222.93 724.606 1223.71 724.513 1224.16 724.048L1230.54 717.406Z" fill="url(#paint10_linear)"/>
<path d="M1226.82 725.037C1227.41 724.667 1227.55 723.958 1227.15 723.429L1225.65 721.452C1225.15 720.798 1224.07 720.731 1223.48 721.318L1218.05 726.717C1217.62 727.149 1217.61 727.792 1218.02 728.241L1218.58 728.833C1219.03 729.323 1219.85 729.419 1220.44 729.051L1226.82 725.037Z" fill="#562E4A"/>
<path d="M1226.82 725.037C1227.41 724.667 1227.55 723.958 1227.15 723.429L1225.65 721.452C1225.15 720.798 1224.07 720.731 1223.48 721.318L1218.05 726.717C1217.62 727.149 1217.61 727.792 1218.02 728.241L1218.58 728.833C1219.03 729.323 1219.85 729.419 1220.44 729.051L1226.82 725.037Z" fill="url(#paint11_linear)"/>
<path d="M1215.8 679.637C1215.89 679.455 1216.19 679.454 1216.29 679.635L1222.08 690.197C1222.14 690.309 1222.09 690.443 1221.97 690.504L1215.42 693.709C1215.31 693.764 1215.17 693.744 1215.08 693.661L1210.7 689.449C1210.63 689.379 1210.61 689.277 1210.65 689.192L1215.8 679.637Z" fill="#562E4A"/>
<path d="M1215.8 679.637C1215.89 679.455 1216.19 679.454 1216.29 679.635L1222.08 690.197C1222.14 690.309 1222.09 690.443 1221.97 690.504L1215.42 693.709C1215.31 693.764 1215.17 693.744 1215.08 693.661L1210.7 689.449C1210.63 689.379 1210.61 689.277 1210.65 689.192L1215.8 679.637Z" fill="url(#paint12_linear)"/>
<path d="M1215.05 728.763H1216.97V737.735L1215.08 739.5L1215.05 728.763Z" fill="#562E4A"/>
<path d="M1215.05 728.763H1216.97V737.735L1215.08 739.5L1215.05 728.763Z" fill="url(#paint13_linear)"/>
<path d="M1166.56 708.458C1166.56 720.65 1161.85 730.534 1156.04 730.534C1150.23 730.534 1144.3 720.65 1144.3 708.458C1144.3 696.266 1150.23 686.382 1156.04 686.382C1161.85 686.382 1166.56 696.266 1166.56 708.458Z" fill="#562E4A"/>
<path d="M1166.56 708.458C1166.56 720.65 1161.85 730.534 1156.04 730.534C1150.23 730.534 1144.3 720.65 1144.3 708.458C1144.3 696.266 1150.23 686.382 1156.04 686.382C1161.85 686.382 1166.56 696.266 1166.56 708.458Z" fill="url(#paint14_linear)"/>
<path d="M1141.85 707.075C1141.76 706.692 1141.89 706.292 1142.2 706.008L1146.35 702.26C1147.04 701.631 1148.26 701.846 1148.61 702.659L1152.11 710.697C1152.38 711.312 1152.02 711.998 1151.3 712.222L1145.22 714.135C1144.44 714.379 1143.59 713.975 1143.42 713.277L1141.85 707.075Z" fill="#562E4A"/>
<path d="M1141.85 707.075C1141.76 706.692 1141.89 706.292 1142.2 706.008L1146.35 702.26C1147.04 701.631 1148.26 701.846 1148.61 702.659L1152.11 710.697C1152.38 711.312 1152.02 711.998 1151.3 712.222L1145.22 714.135C1144.44 714.379 1143.59 713.975 1143.42 713.277L1141.85 707.075Z" fill="url(#paint15_linear)"/>
<path d="M1142.45 695.353C1142.41 694.918 1142.65 694.499 1143.08 694.264L1148.51 691.267C1149.35 690.804 1150.46 691.247 1150.6 692.099L1152.63 704.672C1152.72 705.26 1152.3 705.817 1151.63 705.973L1145.2 707.492C1144.38 707.687 1143.55 707.185 1143.48 706.448L1142.45 695.353Z" fill="#562E4A"/>
<path d="M1142.45 695.353C1142.41 694.918 1142.65 694.499 1143.08 694.264L1148.51 691.267C1149.35 690.804 1150.46 691.247 1150.6 692.099L1152.63 704.672C1152.72 705.26 1152.3 705.817 1151.63 705.973L1145.2 707.492C1144.38 707.687 1143.55 707.185 1143.48 706.448L1142.45 695.353Z" fill="url(#paint16_linear)"/>
<path d="M1141.81 717.292C1141.42 716.89 1141.38 716.314 1141.72 715.878L1144.88 711.78C1145.43 711.059 1146.67 711.083 1147.18 711.826L1153.46 720.838C1153.84 721.376 1153.66 722.074 1153.06 722.425L1150.09 724.155C1149.52 724.493 1148.73 724.399 1148.28 723.937L1141.81 717.292Z" fill="#562E4A"/>
<path d="M1141.81 717.292C1141.42 716.89 1141.38 716.314 1141.72 715.878L1144.88 711.78C1145.43 711.059 1146.67 711.083 1147.18 711.826L1153.46 720.838C1153.84 721.376 1153.66 722.074 1153.06 722.425L1150.09 724.155C1149.52 724.493 1148.73 724.399 1148.28 723.937L1141.81 717.292Z" fill="url(#paint17_linear)"/>
<path d="M1145.59 724.922C1144.99 724.551 1144.84 723.838 1145.25 723.309L1146.78 721.313C1147.28 720.667 1148.35 720.604 1148.95 721.187L1154.46 726.595C1154.9 727.028 1154.91 727.675 1154.49 728.122L1153.91 728.731C1153.46 729.213 1152.65 729.306 1152.06 728.942L1145.59 724.922Z" fill="#562E4A"/>
<path d="M1145.59 724.922C1144.99 724.551 1144.84 723.838 1145.25 723.309L1146.78 721.313C1147.28 720.667 1148.35 720.604 1148.95 721.187L1154.46 726.595C1154.9 727.028 1154.91 727.675 1154.49 728.122L1153.91 728.731C1153.46 729.213 1152.65 729.306 1152.06 728.942L1145.59 724.922Z" fill="url(#paint18_linear)"/>
<path d="M1171.44 706.118C1171.62 705.561 1171.31 704.971 1170.7 704.723L1165.32 702.521C1164.6 702.223 1163.73 702.532 1163.47 703.189L1160.33 710.856C1160.08 711.456 1160.43 712.12 1161.12 712.357L1167.2 714.464C1167.96 714.725 1168.8 714.364 1169.01 713.689L1171.44 706.118Z" fill="#562E4A"/>
<path d="M1171.44 706.118C1171.62 705.561 1171.31 704.971 1170.7 704.723L1165.32 702.521C1164.6 702.223 1163.73 702.532 1163.47 703.189L1160.33 710.856C1160.08 711.456 1160.43 712.12 1161.12 712.357L1167.2 714.464C1167.96 714.725 1168.8 714.364 1169.01 713.689L1171.44 706.118Z" fill="url(#paint19_linear)"/>
<path d="M1170.58 696.561C1170.62 696.151 1170.42 695.75 1170.04 695.502L1164 691.594C1163.17 691.055 1161.98 691.483 1161.84 692.372L1159.87 704.712C1159.78 705.333 1160.25 705.915 1160.96 706.038L1167.95 707.255C1168.74 707.393 1169.49 706.907 1169.57 706.209L1170.58 696.561Z" fill="#562E4A"/>
<path d="M1170.58 696.561C1170.62 696.151 1170.42 695.75 1170.04 695.502L1164 691.594C1163.17 691.055 1161.98 691.483 1161.84 692.372L1159.87 704.712C1159.78 705.333 1160.25 705.915 1160.96 706.038L1167.95 707.255C1168.74 707.393 1169.49 706.907 1169.57 706.209L1170.58 696.561Z" fill="url(#paint20_linear)"/>
<path d="M1164.33 689.289L1155.83 683.785L1153.38 699.207L1161.26 700.816L1164.33 695.354L1164.33 689.289Z" fill="#562E4A"/>
<path d="M1164.33 689.289L1155.83 683.785L1153.38 699.207L1161.26 700.816L1164.33 695.354L1164.33 689.289Z" fill="url(#paint21_linear)"/>
<path d="M1164.38 689.838C1164.35 689.49 1164.14 689.172 1163.81 688.969L1160.28 686.79C1160.1 686.677 1159.95 686.527 1159.85 686.354L1157.97 683.105C1157.36 682.052 1155.55 682.325 1155.4 683.494L1153.51 698.161C1153.43 698.757 1153.89 699.311 1154.56 699.449L1160.28 700.617C1160.86 700.736 1161.46 700.516 1161.77 700.075L1164.7 695.796C1164.84 695.585 1164.91 695.34 1164.89 695.096L1164.38 689.838Z" fill="#562E4A"/>
<path d="M1164.38 689.838C1164.35 689.49 1164.14 689.172 1163.81 688.969L1160.28 686.79C1160.1 686.677 1159.95 686.527 1159.85 686.354L1157.97 683.105C1157.36 682.052 1155.55 682.325 1155.4 683.494L1153.51 698.161C1153.43 698.757 1153.89 699.311 1154.56 699.449L1160.28 700.617C1160.86 700.736 1161.46 700.516 1161.77 700.075L1164.7 695.796C1164.84 695.585 1164.91 695.34 1164.89 695.096L1164.38 689.838Z" fill="url(#paint22_linear)"/>
<path d="M1147.48 689.813C1147.47 689.435 1147.68 689.08 1148.04 688.859L1151.94 686.438C1152.12 686.323 1152.27 686.171 1152.37 685.995L1153.85 683.342C1154.44 682.277 1156.29 682.554 1156.44 683.731L1158.33 698.142C1158.4 698.737 1157.95 699.286 1157.28 699.419L1151.64 700.523C1151.02 700.645 1150.38 700.38 1150.1 699.885L1147.63 695.504C1147.54 695.343 1147.49 695.167 1147.49 694.989L1147.48 689.813Z" fill="#562E4A"/>
<path d="M1147.48 689.813C1147.47 689.435 1147.68 689.08 1148.04 688.859L1151.94 686.438C1152.12 686.323 1152.27 686.171 1152.37 685.995L1153.85 683.342C1154.44 682.277 1156.29 682.554 1156.44 683.731L1158.33 698.142C1158.4 698.737 1157.95 699.286 1157.28 699.419L1151.64 700.523C1151.02 700.645 1150.38 700.38 1150.1 699.885L1147.63 695.504C1147.54 695.343 1147.49 695.167 1147.49 694.989L1147.48 689.813Z" fill="url(#paint23_linear)"/>
<path d="M1170.54 717.406C1170.93 717.006 1170.96 716.433 1170.63 715.996L1167.53 711.922C1166.98 711.193 1165.74 711.212 1165.23 711.959L1159.04 720.959C1158.67 721.496 1158.85 722.193 1159.45 722.547L1162.35 724.263C1162.93 724.606 1163.71 724.513 1164.16 724.048L1170.54 717.406Z" fill="#562E4A"/>
<path d="M1170.54 717.406C1170.93 717.006 1170.96 716.433 1170.63 715.996L1167.53 711.922C1166.98 711.193 1165.74 711.212 1165.23 711.959L1159.04 720.959C1158.67 721.496 1158.85 722.193 1159.45 722.547L1162.35 724.263C1162.93 724.606 1163.71 724.513 1164.16 724.048L1170.54 717.406Z" fill="url(#paint24_linear)"/>
<path d="M1166.82 725.037C1167.41 724.667 1167.55 723.958 1167.15 723.429L1165.65 721.452C1165.15 720.798 1164.07 720.731 1163.48 721.318L1158.05 726.717C1157.62 727.149 1157.61 727.792 1158.02 728.241L1158.58 728.833C1159.03 729.323 1159.85 729.419 1160.44 729.051L1166.82 725.037Z" fill="#562E4A"/>
<path d="M1166.82 725.037C1167.41 724.667 1167.55 723.958 1167.15 723.429L1165.65 721.452C1165.15 720.798 1164.07 720.731 1163.48 721.318L1158.05 726.717C1157.62 727.149 1157.61 727.792 1158.02 728.241L1158.58 728.833C1159.03 729.323 1159.85 729.419 1160.44 729.051L1166.82 725.037Z" fill="url(#paint25_linear)"/>
<path d="M1155.8 679.637C1155.89 679.455 1156.19 679.454 1156.29 679.635L1162.08 690.197C1162.14 690.309 1162.09 690.443 1161.97 690.504L1155.42 693.709C1155.31 693.764 1155.17 693.744 1155.08 693.661L1150.7 689.449C1150.63 689.379 1150.61 689.277 1150.65 689.192L1155.8 679.637Z" fill="#562E4A"/>
<path d="M1155.8 679.637C1155.89 679.455 1156.19 679.454 1156.29 679.635L1162.08 690.197C1162.14 690.309 1162.09 690.443 1161.97 690.504L1155.42 693.709C1155.31 693.764 1155.17 693.744 1155.08 693.661L1150.7 689.449C1150.63 689.379 1150.61 689.277 1150.65 689.192L1155.8 679.637Z" fill="url(#paint26_linear)"/>
<path d="M1155.05 728.763H1156.97V737.735L1155.08 739.5L1155.05 728.763Z" fill="#562E4A"/>
<path d="M1155.05 728.763H1156.97V737.735L1155.08 739.5L1155.05 728.763Z" fill="url(#paint27_linear)"/>
<path d="M1106.56 708.458C1106.56 720.65 1101.85 730.534 1096.04 730.534C1090.23 730.534 1084.3 720.65 1084.3 708.458C1084.3 696.266 1090.23 686.382 1096.04 686.382C1101.85 686.382 1106.56 696.266 1106.56 708.458Z" fill="#562E4A"/>
<path d="M1106.56 708.458C1106.56 720.65 1101.85 730.534 1096.04 730.534C1090.23 730.534 1084.3 720.65 1084.3 708.458C1084.3 696.266 1090.23 686.382 1096.04 686.382C1101.85 686.382 1106.56 696.266 1106.56 708.458Z" fill="url(#paint28_linear)"/>
<path d="M1081.85 707.075C1081.76 706.692 1081.89 706.292 1082.2 706.008L1086.35 702.26C1087.04 701.631 1088.26 701.846 1088.61 702.659L1092.11 710.697C1092.38 711.312 1092.02 711.998 1091.3 712.222L1085.22 714.135C1084.44 714.379 1083.59 713.975 1083.42 713.277L1081.85 707.075Z" fill="#562E4A"/>
<path d="M1081.85 707.075C1081.76 706.692 1081.89 706.292 1082.2 706.008L1086.35 702.26C1087.04 701.631 1088.26 701.846 1088.61 702.659L1092.11 710.697C1092.38 711.312 1092.02 711.998 1091.3 712.222L1085.22 714.135C1084.44 714.379 1083.59 713.975 1083.42 713.277L1081.85 707.075Z" fill="url(#paint29_linear)"/>
<path d="M1082.45 695.353C1082.41 694.918 1082.65 694.499 1083.08 694.264L1088.51 691.267C1089.35 690.804 1090.46 691.247 1090.6 692.099L1092.63 704.672C1092.72 705.26 1092.3 705.817 1091.63 705.973L1085.2 707.492C1084.38 707.687 1083.55 707.185 1083.48 706.448L1082.45 695.353Z" fill="#562E4A"/>
<path d="M1082.45 695.353C1082.41 694.918 1082.65 694.499 1083.08 694.264L1088.51 691.267C1089.35 690.804 1090.46 691.247 1090.6 692.099L1092.63 704.672C1092.72 705.26 1092.3 705.817 1091.63 705.973L1085.2 707.492C1084.38 707.687 1083.55 707.185 1083.48 706.448L1082.45 695.353Z" fill="url(#paint30_linear)"/>
<path d="M1081.81 717.292C1081.42 716.89 1081.38 716.314 1081.72 715.878L1084.88 711.78C1085.43 711.059 1086.67 711.083 1087.18 711.826L1093.46 720.838C1093.84 721.376 1093.66 722.074 1093.06 722.425L1090.09 724.155C1089.52 724.493 1088.73 724.399 1088.28 723.937L1081.81 717.292Z" fill="#562E4A"/>
<path d="M1081.81 717.292C1081.42 716.89 1081.38 716.314 1081.72 715.878L1084.88 711.78C1085.43 711.059 1086.67 711.083 1087.18 711.826L1093.46 720.838C1093.84 721.376 1093.66 722.074 1093.06 722.425L1090.09 724.155C1089.52 724.493 1088.73 724.399 1088.28 723.937L1081.81 717.292Z" fill="url(#paint31_linear)"/>
<path d="M1085.59 724.922C1084.99 724.551 1084.84 723.838 1085.25 723.309L1086.78 721.313C1087.28 720.667 1088.35 720.604 1088.95 721.187L1094.46 726.595C1094.9 727.028 1094.91 727.675 1094.49 728.122L1093.91 728.731C1093.46 729.213 1092.65 729.306 1092.06 728.942L1085.59 724.922Z" fill="#562E4A"/>
<path d="M1085.59 724.922C1084.99 724.551 1084.84 723.838 1085.25 723.309L1086.78 721.313C1087.28 720.667 1088.35 720.604 1088.95 721.187L1094.46 726.595C1094.9 727.028 1094.91 727.675 1094.49 728.122L1093.91 728.731C1093.46 729.213 1092.65 729.306 1092.06 728.942L1085.59 724.922Z" fill="url(#paint32_linear)"/>
<path d="M1111.44 706.118C1111.62 705.561 1111.31 704.971 1110.7 704.723L1105.32 702.521C1104.6 702.223 1103.73 702.532 1103.47 703.189L1100.33 710.856C1100.08 711.456 1100.43 712.12 1101.12 712.357L1107.2 714.464C1107.96 714.725 1108.8 714.364 1109.01 713.689L1111.44 706.118Z" fill="#562E4A"/>
<path d="M1111.44 706.118C1111.62 705.561 1111.31 704.971 1110.7 704.723L1105.32 702.521C1104.6 702.223 1103.73 702.532 1103.47 703.189L1100.33 710.856C1100.08 711.456 1100.43 712.12 1101.12 712.357L1107.2 714.464C1107.96 714.725 1108.8 714.364 1109.01 713.689L1111.44 706.118Z" fill="url(#paint33_linear)"/>
<path d="M1110.58 696.561C1110.62 696.151 1110.42 695.75 1110.04 695.502L1104 691.594C1103.17 691.055 1101.98 691.483 1101.84 692.372L1099.87 704.712C1099.78 705.333 1100.25 705.915 1100.96 706.038L1107.95 707.255C1108.74 707.393 1109.49 706.907 1109.57 706.209L1110.58 696.561Z" fill="#562E4A"/>
<path d="M1110.58 696.561C1110.62 696.151 1110.42 695.75 1110.04 695.502L1104 691.594C1103.17 691.055 1101.98 691.483 1101.84 692.372L1099.87 704.712C1099.78 705.333 1100.25 705.915 1100.96 706.038L1107.95 707.255C1108.74 707.393 1109.49 706.907 1109.57 706.209L1110.58 696.561Z" fill="url(#paint34_linear)"/>
<path d="M1104.33 689.289L1095.83 683.785L1093.38 699.207L1101.26 700.816L1104.33 695.354L1104.33 689.289Z" fill="#562E4A"/>
<path d="M1104.33 689.289L1095.83 683.785L1093.38 699.207L1101.26 700.816L1104.33 695.354L1104.33 689.289Z" fill="url(#paint35_linear)"/>
<path d="M1104.38 689.838C1104.35 689.49 1104.14 689.172 1103.81 688.969L1100.28 686.79C1100.1 686.677 1099.95 686.527 1099.85 686.354L1097.97 683.105C1097.36 682.052 1095.55 682.325 1095.4 683.494L1093.51 698.161C1093.43 698.757 1093.89 699.311 1094.56 699.449L1100.28 700.617C1100.86 700.736 1101.46 700.516 1101.77 700.075L1104.7 695.796C1104.84 695.585 1104.91 695.34 1104.89 695.096L1104.38 689.838Z" fill="#562E4A"/>
<path d="M1104.38 689.838C1104.35 689.49 1104.14 689.172 1103.81 688.969L1100.28 686.79C1100.1 686.677 1099.95 686.527 1099.85 686.354L1097.97 683.105C1097.36 682.052 1095.55 682.325 1095.4 683.494L1093.51 698.161C1093.43 698.757 1093.89 699.311 1094.56 699.449L1100.28 700.617C1100.86 700.736 1101.46 700.516 1101.77 700.075L1104.7 695.796C1104.84 695.585 1104.91 695.34 1104.89 695.096L1104.38 689.838Z" fill="url(#paint36_linear)"/>
<path d="M1087.48 689.813C1087.47 689.435 1087.68 689.08 1088.04 688.859L1091.94 686.438C1092.12 686.323 1092.27 686.171 1092.37 685.995L1093.85 683.342C1094.44 682.277 1096.29 682.554 1096.44 683.731L1098.33 698.142C1098.4 698.737 1097.95 699.286 1097.28 699.419L1091.64 700.523C1091.02 700.645 1090.38 700.38 1090.1 699.885L1087.63 695.504C1087.54 695.343 1087.49 695.167 1087.49 694.989L1087.48 689.813Z" fill="#562E4A"/>
<path d="M1087.48 689.813C1087.47 689.435 1087.68 689.08 1088.04 688.859L1091.94 686.438C1092.12 686.323 1092.27 686.171 1092.37 685.995L1093.85 683.342C1094.44 682.277 1096.29 682.554 1096.44 683.731L1098.33 698.142C1098.4 698.737 1097.95 699.286 1097.28 699.419L1091.64 700.523C1091.02 700.645 1090.38 700.38 1090.1 699.885L1087.63 695.504C1087.54 695.343 1087.49 695.167 1087.49 694.989L1087.48 689.813Z" fill="url(#paint37_linear)"/>
<path d="M1110.54 717.406C1110.93 717.006 1110.96 716.433 1110.63 715.996L1107.53 711.922C1106.98 711.193 1105.74 711.212 1105.23 711.959L1099.04 720.959C1098.67 721.496 1098.85 722.193 1099.45 722.547L1102.35 724.263C1102.93 724.606 1103.71 724.513 1104.16 724.048L1110.54 717.406Z" fill="#562E4A"/>
<path d="M1110.54 717.406C1110.93 717.006 1110.96 716.433 1110.63 715.996L1107.53 711.922C1106.98 711.193 1105.74 711.212 1105.23 711.959L1099.04 720.959C1098.67 721.496 1098.85 722.193 1099.45 722.547L1102.35 724.263C1102.93 724.606 1103.71 724.513 1104.16 724.048L1110.54 717.406Z" fill="url(#paint38_linear)"/>
<path d="M1106.82 725.037C1107.41 724.667 1107.55 723.958 1107.15 723.429L1105.65 721.452C1105.15 720.798 1104.07 720.731 1103.48 721.318L1098.05 726.717C1097.62 727.149 1097.61 727.792 1098.02 728.241L1098.58 728.833C1099.03 729.323 1099.85 729.419 1100.44 729.051L1106.82 725.037Z" fill="#562E4A"/>
<path d="M1106.82 725.037C1107.41 724.667 1107.55 723.958 1107.15 723.429L1105.65 721.452C1105.15 720.798 1104.07 720.731 1103.48 721.318L1098.05 726.717C1097.62 727.149 1097.61 727.792 1098.02 728.241L1098.58 728.833C1099.03 729.323 1099.85 729.419 1100.44 729.051L1106.82 725.037Z" fill="url(#paint39_linear)"/>
<path d="M1095.8 679.637C1095.89 679.455 1096.19 679.454 1096.29 679.635L1102.08 690.197C1102.14 690.309 1102.09 690.443 1101.97 690.504L1095.42 693.709C1095.31 693.764 1095.17 693.744 1095.08 693.661L1090.7 689.449C1090.63 689.379 1090.61 689.277 1090.65 689.192L1095.8 679.637Z" fill="#562E4A"/>
<path d="M1095.8 679.637C1095.89 679.455 1096.19 679.454 1096.29 679.635L1102.08 690.197C1102.14 690.309 1102.09 690.443 1101.97 690.504L1095.42 693.709C1095.31 693.764 1095.17 693.744 1095.08 693.661L1090.7 689.449C1090.63 689.379 1090.61 689.277 1090.65 689.192L1095.8 679.637Z" fill="url(#paint40_linear)"/>
<path d="M1095.05 728.763H1096.97V737.735L1095.08 739.5L1095.05 728.763Z" fill="#562E4A"/>
<path d="M1095.05 728.763H1096.97V737.735L1095.08 739.5L1095.05 728.763Z" fill="url(#paint41_linear)"/>
<path d="M1046.56 708.458C1046.56 720.65 1041.85 730.534 1036.04 730.534C1030.23 730.534 1024.3 720.65 1024.3 708.458C1024.3 696.266 1030.23 686.382 1036.04 686.382C1041.85 686.382 1046.56 696.266 1046.56 708.458Z" fill="#562E4A"/>
<path d="M1046.56 708.458C1046.56 720.65 1041.85 730.534 1036.04 730.534C1030.23 730.534 1024.3 720.65 1024.3 708.458C1024.3 696.266 1030.23 686.382 1036.04 686.382C1041.85 686.382 1046.56 696.266 1046.56 708.458Z" fill="url(#paint42_linear)"/>
<path d="M1021.85 707.075C1021.76 706.692 1021.89 706.292 1022.2 706.008L1026.35 702.26C1027.04 701.631 1028.26 701.846 1028.61 702.659L1032.11 710.697C1032.38 711.312 1032.02 711.998 1031.3 712.222L1025.22 714.135C1024.44 714.379 1023.59 713.975 1023.42 713.277L1021.85 707.075Z" fill="#562E4A"/>
<path d="M1021.85 707.075C1021.76 706.692 1021.89 706.292 1022.2 706.008L1026.35 702.26C1027.04 701.631 1028.26 701.846 1028.61 702.659L1032.11 710.697C1032.38 711.312 1032.02 711.998 1031.3 712.222L1025.22 714.135C1024.44 714.379 1023.59 713.975 1023.42 713.277L1021.85 707.075Z" fill="url(#paint43_linear)"/>
<path d="M1022.45 695.353C1022.41 694.918 1022.65 694.499 1023.08 694.264L1028.51 691.267C1029.35 690.804 1030.46 691.247 1030.6 692.099L1032.63 704.672C1032.72 705.26 1032.3 705.817 1031.63 705.973L1025.2 707.492C1024.38 707.687 1023.55 707.185 1023.48 706.448L1022.45 695.353Z" fill="#562E4A"/>
<path d="M1022.45 695.353C1022.41 694.918 1022.65 694.499 1023.08 694.264L1028.51 691.267C1029.35 690.804 1030.46 691.247 1030.6 692.099L1032.63 704.672C1032.72 705.26 1032.3 705.817 1031.63 705.973L1025.2 707.492C1024.38 707.687 1023.55 707.185 1023.48 706.448L1022.45 695.353Z" fill="url(#paint44_linear)"/>
<path d="M1021.81 717.292C1021.42 716.89 1021.38 716.314 1021.72 715.878L1024.88 711.78C1025.43 711.059 1026.67 711.083 1027.18 711.826L1033.46 720.838C1033.84 721.376 1033.66 722.074 1033.06 722.425L1030.09 724.155C1029.52 724.493 1028.73 724.399 1028.28 723.937L1021.81 717.292Z" fill="#562E4A"/>
<path d="M1021.81 717.292C1021.42 716.89 1021.38 716.314 1021.72 715.878L1024.88 711.78C1025.43 711.059 1026.67 711.083 1027.18 711.826L1033.46 720.838C1033.84 721.376 1033.66 722.074 1033.06 722.425L1030.09 724.155C1029.52 724.493 1028.73 724.399 1028.28 723.937L1021.81 717.292Z" fill="url(#paint45_linear)"/>
<path d="M1025.59 724.922C1024.99 724.551 1024.84 723.838 1025.25 723.309L1026.78 721.313C1027.28 720.667 1028.35 720.604 1028.95 721.187L1034.46 726.595C1034.9 727.028 1034.91 727.675 1034.49 728.122L1033.91 728.731C1033.46 729.213 1032.65 729.306 1032.06 728.942L1025.59 724.922Z" fill="#562E4A"/>
<path d="M1025.59 724.922C1024.99 724.551 1024.84 723.838 1025.25 723.309L1026.78 721.313C1027.28 720.667 1028.35 720.604 1028.95 721.187L1034.46 726.595C1034.9 727.028 1034.91 727.675 1034.49 728.122L1033.91 728.731C1033.46 729.213 1032.65 729.306 1032.06 728.942L1025.59 724.922Z" fill="url(#paint46_linear)"/>
<path d="M1051.44 706.118C1051.62 705.561 1051.31 704.971 1050.7 704.723L1045.32 702.521C1044.6 702.223 1043.73 702.532 1043.47 703.189L1040.33 710.856C1040.08 711.456 1040.43 712.12 1041.12 712.357L1047.2 714.464C1047.96 714.725 1048.8 714.364 1049.01 713.689L1051.44 706.118Z" fill="#562E4A"/>
<path d="M1051.44 706.118C1051.62 705.561 1051.31 704.971 1050.7 704.723L1045.32 702.521C1044.6 702.223 1043.73 702.532 1043.47 703.189L1040.33 710.856C1040.08 711.456 1040.43 712.12 1041.12 712.357L1047.2 714.464C1047.96 714.725 1048.8 714.364 1049.01 713.689L1051.44 706.118Z" fill="url(#paint47_linear)"/>
<path d="M1050.58 696.561C1050.62 696.151 1050.42 695.75 1050.04 695.502L1044 691.594C1043.17 691.055 1041.98 691.483 1041.84 692.372L1039.87 704.712C1039.78 705.333 1040.25 705.915 1040.96 706.038L1047.95 707.255C1048.74 707.393 1049.49 706.907 1049.57 706.209L1050.58 696.561Z" fill="#562E4A"/>
<path d="M1050.58 696.561C1050.62 696.151 1050.42 695.75 1050.04 695.502L1044 691.594C1043.17 691.055 1041.98 691.483 1041.84 692.372L1039.87 704.712C1039.78 705.333 1040.25 705.915 1040.96 706.038L1047.95 707.255C1048.74 707.393 1049.49 706.907 1049.57 706.209L1050.58 696.561Z" fill="url(#paint48_linear)"/>
<path d="M1044.33 689.289L1035.83 683.785L1033.38 699.207L1041.26 700.816L1044.33 695.354L1044.33 689.289Z" fill="#562E4A"/>
<path d="M1044.33 689.289L1035.83 683.785L1033.38 699.207L1041.26 700.816L1044.33 695.354L1044.33 689.289Z" fill="url(#paint49_linear)"/>
<path d="M1044.38 689.838C1044.35 689.49 1044.14 689.172 1043.81 688.969L1040.28 686.79C1040.1 686.677 1039.95 686.527 1039.85 686.354L1037.97 683.105C1037.36 682.052 1035.55 682.325 1035.4 683.494L1033.51 698.161C1033.43 698.757 1033.89 699.311 1034.56 699.449L1040.28 700.617C1040.86 700.736 1041.46 700.516 1041.77 700.075L1044.7 695.796C1044.84 695.585 1044.91 695.34 1044.89 695.096L1044.38 689.838Z" fill="#562E4A"/>
<path d="M1044.38 689.838C1044.35 689.49 1044.14 689.172 1043.81 688.969L1040.28 686.79C1040.1 686.677 1039.95 686.527 1039.85 686.354L1037.97 683.105C1037.36 682.052 1035.55 682.325 1035.4 683.494L1033.51 698.161C1033.43 698.757 1033.89 699.311 1034.56 699.449L1040.28 700.617C1040.86 700.736 1041.46 700.516 1041.77 700.075L1044.7 695.796C1044.84 695.585 1044.91 695.34 1044.89 695.096L1044.38 689.838Z" fill="url(#paint50_linear)"/>
<path d="M1027.48 689.813C1027.47 689.435 1027.68 689.08 1028.04 688.859L1031.94 686.438C1032.12 686.323 1032.27 686.171 1032.37 685.995L1033.85 683.342C1034.44 682.277 1036.29 682.554 1036.44 683.731L1038.33 698.142C1038.4 698.737 1037.95 699.286 1037.28 699.419L1031.64 700.523C1031.02 700.645 1030.38 700.38 1030.1 699.885L1027.63 695.504C1027.54 695.343 1027.49 695.167 1027.49 694.989L1027.48 689.813Z" fill="#562E4A"/>
<path d="M1027.48 689.813C1027.47 689.435 1027.68 689.08 1028.04 688.859L1031.94 686.438C1032.12 686.323 1032.27 686.171 1032.37 685.995L1033.85 683.342C1034.44 682.277 1036.29 682.554 1036.44 683.731L1038.33 698.142C1038.4 698.737 1037.95 699.286 1037.28 699.419L1031.64 700.523C1031.02 700.645 1030.38 700.38 1030.1 699.885L1027.63 695.504C1027.54 695.343 1027.49 695.167 1027.49 694.989L1027.48 689.813Z" fill="url(#paint51_linear)"/>
<path d="M1050.54 717.406C1050.93 717.006 1050.96 716.433 1050.63 715.996L1047.53 711.922C1046.98 711.193 1045.74 711.212 1045.23 711.959L1039.04 720.959C1038.67 721.496 1038.85 722.193 1039.45 722.547L1042.35 724.263C1042.93 724.606 1043.71 724.513 1044.16 724.048L1050.54 717.406Z" fill="#562E4A"/>
<path d="M1050.54 717.406C1050.93 717.006 1050.96 716.433 1050.63 715.996L1047.53 711.922C1046.98 711.193 1045.74 711.212 1045.23 711.959L1039.04 720.959C1038.67 721.496 1038.85 722.193 1039.45 722.547L1042.35 724.263C1042.93 724.606 1043.71 724.513 1044.16 724.048L1050.54 717.406Z" fill="url(#paint52_linear)"/>
<path d="M1046.82 725.037C1047.41 724.667 1047.55 723.958 1047.15 723.429L1045.65 721.452C1045.15 720.798 1044.07 720.731 1043.48 721.318L1038.05 726.717C1037.62 727.149 1037.61 727.792 1038.02 728.241L1038.58 728.833C1039.03 729.323 1039.85 729.419 1040.44 729.051L1046.82 725.037Z" fill="#562E4A"/>
<path d="M1046.82 725.037C1047.41 724.667 1047.55 723.958 1047.15 723.429L1045.65 721.452C1045.15 720.798 1044.07 720.731 1043.48 721.318L1038.05 726.717C1037.62 727.149 1037.61 727.792 1038.02 728.241L1038.58 728.833C1039.03 729.323 1039.85 729.419 1040.44 729.051L1046.82 725.037Z" fill="url(#paint53_linear)"/>
<path d="M1035.8 679.637C1035.89 679.455 1036.19 679.454 1036.29 679.635L1042.08 690.197C1042.14 690.309 1042.09 690.443 1041.97 690.504L1035.42 693.709C1035.31 693.764 1035.17 693.744 1035.08 693.661L1030.7 689.449C1030.63 689.379 1030.61 689.277 1030.65 689.192L1035.8 679.637Z" fill="#562E4A"/>
<path d="M1035.8 679.637C1035.89 679.455 1036.19 679.454 1036.29 679.635L1042.08 690.197C1042.14 690.309 1042.09 690.443 1041.97 690.504L1035.42 693.709C1035.31 693.764 1035.17 693.744 1035.08 693.661L1030.7 689.449C1030.63 689.379 1030.61 689.277 1030.65 689.192L1035.8 679.637Z" fill="url(#paint54_linear)"/>
<path d="M1035.05 728.763H1036.97V737.735L1035.08 739.5L1035.05 728.763Z" fill="#562E4A"/>
<path d="M1035.05 728.763H1036.97V737.735L1035.08 739.5L1035.05 728.763Z" fill="url(#paint55_linear)"/>
<path d="M926.561 708.458C926.561 720.65 921.852 730.534 916.043 730.534C910.234 730.534 904.295 720.65 904.295 708.458C904.295 696.266 910.234 686.382 916.043 686.382C921.852 686.382 926.561 696.266 926.561 708.458Z" fill="#562E4A"/>
<path d="M926.561 708.458C926.561 720.65 921.852 730.534 916.043 730.534C910.234 730.534 904.295 720.65 904.295 708.458C904.295 696.266 910.234 686.382 916.043 686.382C921.852 686.382 926.561 696.266 926.561 708.458Z" fill="url(#paint56_linear)"/>
<path d="M901.854 707.075C901.758 706.692 901.888 706.292 902.201 706.008L906.346 702.26C907.041 701.631 908.258 701.846 908.612 702.659L912.113 710.697C912.381 711.312 912.016 711.998 911.301 712.222L905.218 714.135C904.441 714.379 903.592 713.975 903.416 713.277L901.854 707.075Z" fill="#562E4A"/>
<path d="M901.854 707.075C901.758 706.692 901.888 706.292 902.201 706.008L906.346 702.26C907.041 701.631 908.258 701.846 908.612 702.659L912.113 710.697C912.381 711.312 912.016 711.998 911.301 712.222L905.218 714.135C904.441 714.379 903.592 713.975 903.416 713.277L901.854 707.075Z" fill="url(#paint57_linear)"/>
<path d="M902.449 695.353C902.408 694.918 902.649 694.499 903.076 694.264L908.512 691.267C909.351 690.804 910.462 691.247 910.599 692.099L912.627 704.672C912.722 705.26 912.297 705.817 911.634 705.973L905.202 707.492C904.376 707.687 903.549 707.185 903.48 706.448L902.449 695.353Z" fill="#562E4A"/>
<path d="M902.449 695.353C902.408 694.918 902.649 694.499 903.076 694.264L908.512 691.267C909.351 690.804 910.462 691.247 910.599 692.099L912.627 704.672C912.722 705.26 912.297 705.817 911.634 705.973L905.202 707.492C904.376 707.687 903.549 707.185 903.48 706.448L902.449 695.353Z" fill="url(#paint58_linear)"/>
<path d="M901.813 717.292C901.422 716.89 901.385 716.314 901.721 715.878L904.876 711.78C905.431 711.059 906.667 711.083 907.184 711.826L913.462 720.838C913.837 721.376 913.658 722.074 913.056 722.425L910.095 724.155C909.516 724.493 908.735 724.399 908.285 723.937L901.813 717.292Z" fill="#562E4A"/>
<path d="M901.813 717.292C901.422 716.89 901.385 716.314 901.721 715.878L904.876 711.78C905.431 711.059 906.667 711.083 907.184 711.826L913.462 720.838C913.837 721.376 913.658 722.074 913.056 722.425L910.095 724.155C909.516 724.493 908.735 724.399 908.285 723.937L901.813 717.292Z" fill="url(#paint59_linear)"/>
<path d="M905.587 724.922C904.99 724.551 904.839 723.838 905.247 723.309L906.784 721.313C907.282 720.667 908.353 720.604 908.946 721.187L914.457 726.595C914.899 727.028 914.913 727.675 914.49 728.122L913.914 728.731C913.458 729.213 912.645 729.306 912.06 728.942L905.587 724.922Z" fill="#562E4A"/>
<path d="M905.587 724.922C904.99 724.551 904.839 723.838 905.247 723.309L906.784 721.313C907.282 720.667 908.353 720.604 908.946 721.187L914.457 726.595C914.899 727.028 914.913 727.675 914.49 728.122L913.914 728.731C913.458 729.213 912.645 729.306 912.06 728.942L905.587 724.922Z" fill="url(#paint60_linear)"/>
<path d="M931.442 706.118C931.621 705.561 931.308 704.971 930.704 704.723L925.324 702.521C924.595 702.223 923.734 702.532 923.465 703.189L920.33 710.856C920.085 711.456 920.433 712.12 921.117 712.357L927.204 714.464C927.956 714.725 928.798 714.364 929.014 713.689L931.442 706.118Z" fill="#562E4A"/>
<path d="M931.442 706.118C931.621 705.561 931.308 704.971 930.704 704.723L925.324 702.521C924.595 702.223 923.734 702.532 923.465 703.189L920.33 710.856C920.085 711.456 920.433 712.12 921.117 712.357L927.204 714.464C927.956 714.725 928.798 714.364 929.014 713.689L931.442 706.118Z" fill="url(#paint61_linear)"/>
<path d="M930.58 696.561C930.623 696.151 930.417 695.75 930.035 695.502L924.004 691.594C923.172 691.055 921.981 691.483 921.839 692.372L919.875 704.712C919.776 705.333 920.254 705.915 920.964 706.038L927.946 707.255C928.739 707.393 929.493 706.907 929.567 706.209L930.58 696.561Z" fill="#562E4A"/>
<path d="M930.58 696.561C930.623 696.151 930.417 695.75 930.035 695.502L924.004 691.594C923.172 691.055 921.981 691.483 921.839 692.372L919.875 704.712C919.776 705.333 920.254 705.915 920.964 706.038L927.946 707.255C928.739 707.393 929.493 706.907 929.567 706.209L930.58 696.561Z" fill="url(#paint62_linear)"/>
<path d="M924.328 689.289L915.832 683.785L913.377 699.207L921.257 700.816L924.328 695.354L924.328 689.289Z" fill="#562E4A"/>
<path d="M924.328 689.289L915.832 683.785L913.377 699.207L921.257 700.816L924.328 695.354L924.328 689.289Z" fill="url(#paint63_linear)"/>
<path d="M924.381 689.838C924.347 689.49 924.138 689.172 923.81 688.969L920.282 686.79C920.1 686.677 919.952 686.527 919.851 686.354L917.972 683.105C917.362 682.052 915.547 682.325 915.397 683.494L913.512 698.161C913.435 698.757 913.886 699.311 914.561 699.449L920.285 700.617C920.864 700.736 921.462 700.516 921.765 700.075L924.7 695.796C924.844 695.585 924.909 695.34 924.886 695.096L924.381 689.838Z" fill="#562E4A"/>
<path d="M924.381 689.838C924.347 689.49 924.138 689.172 923.81 688.969L920.282 686.79C920.1 686.677 919.952 686.527 919.851 686.354L917.972 683.105C917.362 682.052 915.547 682.325 915.397 683.494L913.512 698.161C913.435 698.757 913.886 699.311 914.561 699.449L920.285 700.617C920.864 700.736 921.462 700.516 921.765 700.075L924.7 695.796C924.844 695.585 924.909 695.34 924.886 695.096L924.381 689.838Z" fill="url(#paint64_linear)"/>
<path d="M907.476 689.813C907.475 689.435 907.685 689.08 908.04 688.859L911.938 686.438C912.122 686.323 912.269 686.171 912.368 685.995L913.848 683.342C914.442 682.277 916.286 682.554 916.44 683.731L918.327 698.142C918.405 698.737 917.953 699.286 917.277 699.419L911.637 700.523C911.016 700.645 910.378 700.38 910.098 699.885L907.626 695.504C907.535 695.343 907.488 695.167 907.487 694.989L907.476 689.813Z" fill="#562E4A"/>
<path d="M907.476 689.813C907.475 689.435 907.685 689.08 908.04 688.859L911.938 686.438C912.122 686.323 912.269 686.171 912.368 685.995L913.848 683.342C914.442 682.277 916.286 682.554 916.44 683.731L918.327 698.142C918.405 698.737 917.953 699.286 917.277 699.419L911.637 700.523C911.016 700.645 910.378 700.38 910.098 699.885L907.626 695.504C907.535 695.343 907.488 695.167 907.487 694.989L907.476 689.813Z" fill="url(#paint65_linear)"/>
<path d="M930.542 717.406C930.926 717.006 930.962 716.433 930.629 715.996L927.532 711.922C926.978 711.193 925.739 711.212 925.226 711.959L919.037 720.959C918.667 721.496 918.847 722.193 919.445 722.547L922.346 724.263C922.926 724.606 923.708 724.513 924.156 724.048L930.542 717.406Z" fill="#562E4A"/>
<path d="M930.542 717.406C930.926 717.006 930.962 716.433 930.629 715.996L927.532 711.922C926.978 711.193 925.739 711.212 925.226 711.959L919.037 720.959C918.667 721.496 918.847 722.193 919.445 722.547L922.346 724.263C922.926 724.606 923.708 724.513 924.156 724.048L930.542 717.406Z" fill="url(#paint66_linear)"/>
<path d="M926.818 725.037C927.406 724.667 927.552 723.958 927.149 723.429L925.647 721.452C925.149 720.798 924.073 720.731 923.483 721.318L918.052 726.717C917.617 727.149 917.605 727.792 918.024 728.241L918.577 728.833C919.035 729.323 919.852 729.419 920.437 729.051L926.818 725.037Z" fill="#562E4A"/>
<path d="M926.818 725.037C927.406 724.667 927.552 723.958 927.149 723.429L925.647 721.452C925.149 720.798 924.073 720.731 923.483 721.318L918.052 726.717C917.617 727.149 917.605 727.792 918.024 728.241L918.577 728.833C919.035 729.323 919.852 729.419 920.437 729.051L926.818 725.037Z" fill="url(#paint67_linear)"/>
<path d="M915.797 679.637C915.895 679.455 916.193 679.454 916.292 679.635L922.081 690.197C922.142 690.309 922.093 690.443 921.969 690.504L915.419 693.709C915.307 693.764 915.167 693.744 915.081 693.661L910.699 689.449C910.626 689.379 910.609 689.277 910.655 689.192L915.797 679.637Z" fill="#562E4A"/>
<path d="M915.797 679.637C915.895 679.455 916.193 679.454 916.292 679.635L922.081 690.197C922.142 690.309 922.093 690.443 921.969 690.504L915.419 693.709C915.307 693.764 915.167 693.744 915.081 693.661L910.699 689.449C910.626 689.379 910.609 689.277 910.655 689.192L915.797 679.637Z" fill="url(#paint68_linear)"/>
<path d="M915.054 728.763H916.966V737.735L915.081 739.5L915.054 728.763Z" fill="#562E4A"/>
<path d="M915.054 728.763H916.966V737.735L915.081 739.5L915.054 728.763Z" fill="url(#paint69_linear)"/>
<path d="M866.561 708.458C866.561 720.65 861.852 730.534 856.043 730.534C850.234 730.534 844.295 720.65 844.295 708.458C844.295 696.266 850.234 686.382 856.043 686.382C861.852 686.382 866.561 696.266 866.561 708.458Z" fill="#562E4A"/>
<path d="M866.561 708.458C866.561 720.65 861.852 730.534 856.043 730.534C850.234 730.534 844.295 720.65 844.295 708.458C844.295 696.266 850.234 686.382 856.043 686.382C861.852 686.382 866.561 696.266 866.561 708.458Z" fill="url(#paint70_linear)"/>
<path d="M841.854 707.075C841.758 706.692 841.888 706.292 842.201 706.008L846.346 702.26C847.041 701.631 848.258 701.846 848.612 702.659L852.113 710.697C852.381 711.312 852.016 711.998 851.301 712.222L845.218 714.135C844.441 714.379 843.592 713.975 843.416 713.277L841.854 707.075Z" fill="#562E4A"/>
<path d="M841.854 707.075C841.758 706.692 841.888 706.292 842.201 706.008L846.346 702.26C847.041 701.631 848.258 701.846 848.612 702.659L852.113 710.697C852.381 711.312 852.016 711.998 851.301 712.222L845.218 714.135C844.441 714.379 843.592 713.975 843.416 713.277L841.854 707.075Z" fill="url(#paint71_linear)"/>
<path d="M842.449 695.353C842.408 694.918 842.649 694.499 843.076 694.264L848.512 691.267C849.351 690.804 850.462 691.247 850.599 692.099L852.627 704.672C852.722 705.26 852.297 705.817 851.634 705.973L845.202 707.492C844.376 707.687 843.549 707.185 843.48 706.448L842.449 695.353Z" fill="#562E4A"/>
<path d="M842.449 695.353C842.408 694.918 842.649 694.499 843.076 694.264L848.512 691.267C849.351 690.804 850.462 691.247 850.599 692.099L852.627 704.672C852.722 705.26 852.297 705.817 851.634 705.973L845.202 707.492C844.376 707.687 843.549 707.185 843.48 706.448L842.449 695.353Z" fill="url(#paint72_linear)"/>
<path d="M841.813 717.292C841.422 716.89 841.385 716.314 841.721 715.878L844.876 711.78C845.431 711.059 846.667 711.083 847.184 711.826L853.462 720.838C853.837 721.376 853.658 722.074 853.056 722.425L850.095 724.155C849.516 724.493 848.735 724.399 848.285 723.937L841.813 717.292Z" fill="#562E4A"/>
<path d="M841.813 717.292C841.422 716.89 841.385 716.314 841.721 715.878L844.876 711.78C845.431 711.059 846.667 711.083 847.184 711.826L853.462 720.838C853.837 721.376 853.658 722.074 853.056 722.425L850.095 724.155C849.516 724.493 848.735 724.399 848.285 723.937L841.813 717.292Z" fill="url(#paint73_linear)"/>
<path d="M845.587 724.922C844.99 724.551 844.839 723.838 845.247 723.309L846.784 721.313C847.282 720.667 848.353 720.604 848.946 721.187L854.457 726.595C854.899 727.028 854.913 727.675 854.49 728.122L853.914 728.731C853.458 729.213 852.645 729.306 852.06 728.942L845.587 724.922Z" fill="#562E4A"/>
<path d="M845.587 724.922C844.99 724.551 844.839 723.838 845.247 723.309L846.784 721.313C847.282 720.667 848.353 720.604 848.946 721.187L854.457 726.595C854.899 727.028 854.913 727.675 854.49 728.122L853.914 728.731C853.458 729.213 852.645 729.306 852.06 728.942L845.587 724.922Z" fill="url(#paint74_linear)"/>
<path d="M871.442 706.118C871.621 705.561 871.308 704.971 870.704 704.723L865.324 702.521C864.595 702.223 863.734 702.532 863.465 703.189L860.33 710.856C860.085 711.456 860.433 712.12 861.117 712.357L867.204 714.464C867.956 714.725 868.798 714.364 869.014 713.689L871.442 706.118Z" fill="#562E4A"/>
<path d="M871.442 706.118C871.621 705.561 871.308 704.971 870.704 704.723L865.324 702.521C864.595 702.223 863.734 702.532 863.465 703.189L860.33 710.856C860.085 711.456 860.433 712.12 861.117 712.357L867.204 714.464C867.956 714.725 868.798 714.364 869.014 713.689L871.442 706.118Z" fill="url(#paint75_linear)"/>
<path d="M870.58 696.561C870.623 696.151 870.417 695.75 870.035 695.502L864.004 691.594C863.172 691.055 861.981 691.483 861.839 692.372L859.875 704.712C859.776 705.333 860.254 705.915 860.964 706.038L867.946 707.255C868.739 707.393 869.493 706.907 869.567 706.209L870.58 696.561Z" fill="#562E4A"/>
<path d="M870.58 696.561C870.623 696.151 870.417 695.75 870.035 695.502L864.004 691.594C863.172 691.055 861.981 691.483 861.839 692.372L859.875 704.712C859.776 705.333 860.254 705.915 860.964 706.038L867.946 707.255C868.739 707.393 869.493 706.907 869.567 706.209L870.58 696.561Z" fill="url(#paint76_linear)"/>
<path d="M864.328 689.289L855.832 683.785L853.377 699.207L861.257 700.816L864.328 695.354L864.328 689.289Z" fill="#562E4A"/>
<path d="M864.328 689.289L855.832 683.785L853.377 699.207L861.257 700.816L864.328 695.354L864.328 689.289Z" fill="url(#paint77_linear)"/>
<path d="M864.381 689.838C864.347 689.49 864.138 689.172 863.81 688.969L860.282 686.79C860.1 686.677 859.952 686.527 859.851 686.354L857.972 683.105C857.362 682.052 855.547 682.325 855.397 683.494L853.512 698.161C853.435 698.757 853.886 699.311 854.561 699.449L860.285 700.617C860.864 700.736 861.462 700.516 861.765 700.075L864.7 695.796C864.844 695.585 864.909 695.34 864.886 695.096L864.381 689.838Z" fill="#562E4A"/>
<path d="M864.381 689.838C864.347 689.49 864.138 689.172 863.81 688.969L860.282 686.79C860.1 686.677 859.952 686.527 859.851 686.354L857.972 683.105C857.362 682.052 855.547 682.325 855.397 683.494L853.512 698.161C853.435 698.757 853.886 699.311 854.561 699.449L860.285 700.617C860.864 700.736 861.462 700.516 861.765 700.075L864.7 695.796C864.844 695.585 864.909 695.34 864.886 695.096L864.381 689.838Z" fill="url(#paint78_linear)"/>
<path d="M847.476 689.813C847.475 689.435 847.685 689.08 848.04 688.859L851.938 686.438C852.122 686.323 852.269 686.171 852.368 685.995L853.848 683.342C854.442 682.277 856.286 682.554 856.44 683.731L858.327 698.142C858.405 698.737 857.953 699.286 857.277 699.419L851.637 700.523C851.016 700.645 850.378 700.38 850.098 699.885L847.626 695.504C847.535 695.343 847.488 695.167 847.487 694.989L847.476 689.813Z" fill="#562E4A"/>
<path d="M847.476 689.813C847.475 689.435 847.685 689.08 848.04 688.859L851.938 686.438C852.122 686.323 852.269 686.171 852.368 685.995L853.848 683.342C854.442 682.277 856.286 682.554 856.44 683.731L858.327 698.142C858.405 698.737 857.953 699.286 857.277 699.419L851.637 700.523C851.016 700.645 850.378 700.38 850.098 699.885L847.626 695.504C847.535 695.343 847.488 695.167 847.487 694.989L847.476 689.813Z" fill="url(#paint79_linear)"/>
<path d="M870.542 717.406C870.926 717.006 870.962 716.433 870.629 715.996L867.532 711.922C866.978 711.193 865.739 711.212 865.226 711.959L859.037 720.959C858.667 721.496 858.847 722.193 859.445 722.547L862.346 724.263C862.926 724.606 863.708 724.513 864.156 724.048L870.542 717.406Z" fill="#562E4A"/>
<path d="M870.542 717.406C870.926 717.006 870.962 716.433 870.629 715.996L867.532 711.922C866.978 711.193 865.739 711.212 865.226 711.959L859.037 720.959C858.667 721.496 858.847 722.193 859.445 722.547L862.346 724.263C862.926 724.606 863.708 724.513 864.156 724.048L870.542 717.406Z" fill="url(#paint80_linear)"/>
<path d="M866.818 725.037C867.406 724.667 867.552 723.958 867.149 723.429L865.647 721.452C865.149 720.798 864.073 720.731 863.483 721.318L858.052 726.717C857.617 727.149 857.605 727.792 858.024 728.241L858.577 728.833C859.035 729.323 859.852 729.419 860.437 729.051L866.818 725.037Z" fill="#562E4A"/>
<path d="M866.818 725.037C867.406 724.667 867.552 723.958 867.149 723.429L865.647 721.452C865.149 720.798 864.073 720.731 863.483 721.318L858.052 726.717C857.617 727.149 857.605 727.792 858.024 728.241L858.577 728.833C859.035 729.323 859.852 729.419 860.437 729.051L866.818 725.037Z" fill="url(#paint81_linear)"/>
<path d="M855.797 679.637C855.895 679.455 856.193 679.454 856.292 679.635L862.081 690.197C862.142 690.309 862.093 690.443 861.969 690.504L855.419 693.709C855.307 693.764 855.167 693.744 855.081 693.661L850.699 689.449C850.626 689.379 850.609 689.277 850.655 689.192L855.797 679.637Z" fill="#562E4A"/>
<path d="M855.797 679.637C855.895 679.455 856.193 679.454 856.292 679.635L862.081 690.197C862.142 690.309 862.093 690.443 861.969 690.504L855.419 693.709C855.307 693.764 855.167 693.744 855.081 693.661L850.699 689.449C850.626 689.379 850.609 689.277 850.655 689.192L855.797 679.637Z" fill="url(#paint82_linear)"/>
<path d="M855.054 728.763H856.966V737.735L855.081 739.5L855.054 728.763Z" fill="#562E4A"/>
<path d="M855.054 728.763H856.966V737.735L855.081 739.5L855.054 728.763Z" fill="url(#paint83_linear)"/>
<path d="M806.561 708.458C806.561 720.65 801.852 730.534 796.043 730.534C790.234 730.534 784.295 720.65 784.295 708.458C784.295 696.266 790.234 686.382 796.043 686.382C801.852 686.382 806.561 696.266 806.561 708.458Z" fill="#562E4A"/>
<path d="M806.561 708.458C806.561 720.65 801.852 730.534 796.043 730.534C790.234 730.534 784.295 720.65 784.295 708.458C784.295 696.266 790.234 686.382 796.043 686.382C801.852 686.382 806.561 696.266 806.561 708.458Z" fill="url(#paint84_linear)"/>
<path d="M781.854 707.075C781.758 706.692 781.888 706.292 782.201 706.008L786.346 702.26C787.041 701.631 788.258 701.846 788.612 702.659L792.113 710.697C792.381 711.312 792.016 711.998 791.301 712.222L785.218 714.135C784.441 714.379 783.592 713.975 783.416 713.277L781.854 707.075Z" fill="#562E4A"/>
<path d="M781.854 707.075C781.758 706.692 781.888 706.292 782.201 706.008L786.346 702.26C787.041 701.631 788.258 701.846 788.612 702.659L792.113 710.697C792.381 711.312 792.016 711.998 791.301 712.222L785.218 714.135C784.441 714.379 783.592 713.975 783.416 713.277L781.854 707.075Z" fill="url(#paint85_linear)"/>
<path d="M782.449 695.353C782.408 694.918 782.649 694.499 783.076 694.264L788.512 691.267C789.351 690.804 790.462 691.247 790.599 692.099L792.627 704.672C792.722 705.26 792.297 705.817 791.634 705.973L785.202 707.492C784.376 707.687 783.549 707.185 783.48 706.448L782.449 695.353Z" fill="#562E4A"/>
<path d="M782.449 695.353C782.408 694.918 782.649 694.499 783.076 694.264L788.512 691.267C789.351 690.804 790.462 691.247 790.599 692.099L792.627 704.672C792.722 705.26 792.297 705.817 791.634 705.973L785.202 707.492C784.376 707.687 783.549 707.185 783.48 706.448L782.449 695.353Z" fill="url(#paint86_linear)"/>
<path d="M781.813 717.292C781.422 716.89 781.385 716.314 781.721 715.878L784.876 711.78C785.431 711.059 786.667 711.083 787.184 711.826L793.462 720.838C793.837 721.376 793.658 722.074 793.056 722.425L790.095 724.155C789.516 724.493 788.735 724.399 788.285 723.937L781.813 717.292Z" fill="#562E4A"/>
<path d="M781.813 717.292C781.422 716.89 781.385 716.314 781.721 715.878L784.876 711.78C785.431 711.059 786.667 711.083 787.184 711.826L793.462 720.838C793.837 721.376 793.658 722.074 793.056 722.425L790.095 724.155C789.516 724.493 788.735 724.399 788.285 723.937L781.813 717.292Z" fill="url(#paint87_linear)"/>
<path d="M785.587 724.922C784.99 724.551 784.839 723.838 785.247 723.309L786.784 721.313C787.282 720.667 788.353 720.604 788.946 721.187L794.457 726.595C794.899 727.028 794.913 727.675 794.49 728.122L793.914 728.731C793.458 729.213 792.645 729.306 792.06 728.942L785.587 724.922Z" fill="#562E4A"/>
<path d="M785.587 724.922C784.99 724.551 784.839 723.838 785.247 723.309L786.784 721.313C787.282 720.667 788.353 720.604 788.946 721.187L794.457 726.595C794.899 727.028 794.913 727.675 794.49 728.122L793.914 728.731C793.458 729.213 792.645 729.306 792.06 728.942L785.587 724.922Z" fill="url(#paint88_linear)"/>
<path d="M811.442 706.118C811.621 705.561 811.308 704.971 810.704 704.723L805.324 702.521C804.595 702.223 803.734 702.532 803.465 703.189L800.33 710.856C800.085 711.456 800.433 712.12 801.117 712.357L807.204 714.464C807.956 714.725 808.798 714.364 809.014 713.689L811.442 706.118Z" fill="#562E4A"/>
<path d="M811.442 706.118C811.621 705.561 811.308 704.971 810.704 704.723L805.324 702.521C804.595 702.223 803.734 702.532 803.465 703.189L800.33 710.856C800.085 711.456 800.433 712.12 801.117 712.357L807.204 714.464C807.956 714.725 808.798 714.364 809.014 713.689L811.442 706.118Z" fill="url(#paint89_linear)"/>
<path d="M810.58 696.561C810.623 696.151 810.417 695.75 810.035 695.502L804.004 691.594C803.172 691.055 801.981 691.483 801.839 692.372L799.875 704.712C799.776 705.333 800.254 705.915 800.964 706.038L807.946 707.255C808.739 707.393 809.493 706.907 809.567 706.209L810.58 696.561Z" fill="#562E4A"/>
<path d="M810.58 696.561C810.623 696.151 810.417 695.75 810.035 695.502L804.004 691.594C803.172 691.055 801.981 691.483 801.839 692.372L799.875 704.712C799.776 705.333 800.254 705.915 800.964 706.038L807.946 707.255C808.739 707.393 809.493 706.907 809.567 706.209L810.58 696.561Z" fill="url(#paint90_linear)"/>
<path d="M804.328 689.289L795.832 683.785L793.377 699.207L801.257 700.816L804.328 695.354L804.328 689.289Z" fill="#562E4A"/>
<path d="M804.328 689.289L795.832 683.785L793.377 699.207L801.257 700.816L804.328 695.354L804.328 689.289Z" fill="url(#paint91_linear)"/>
<path d="M804.381 689.838C804.347 689.49 804.138 689.172 803.81 688.969L800.282 686.79C800.1 686.677 799.952 686.527 799.851 686.354L797.972 683.105C797.362 682.052 795.547 682.325 795.397 683.494L793.512 698.161C793.435 698.757 793.886 699.311 794.561 699.449L800.285 700.617C800.864 700.736 801.462 700.516 801.765 700.075L804.7 695.796C804.844 695.585 804.909 695.34 804.886 695.096L804.381 689.838Z" fill="#562E4A"/>
<path d="M804.381 689.838C804.347 689.49 804.138 689.172 803.81 688.969L800.282 686.79C800.1 686.677 799.952 686.527 799.851 686.354L797.972 683.105C797.362 682.052 795.547 682.325 795.397 683.494L793.512 698.161C793.435 698.757 793.886 699.311 794.561 699.449L800.285 700.617C800.864 700.736 801.462 700.516 801.765 700.075L804.7 695.796C804.844 695.585 804.909 695.34 804.886 695.096L804.381 689.838Z" fill="url(#paint92_linear)"/>
<path d="M787.476 689.813C787.475 689.435 787.685 689.08 788.04 688.859L791.938 686.438C792.122 686.323 792.269 686.171 792.368 685.995L793.848 683.342C794.442 682.277 796.286 682.554 796.44 683.731L798.327 698.142C798.405 698.737 797.953 699.286 797.277 699.419L791.637 700.523C791.016 700.645 790.378 700.38 790.098 699.885L787.626 695.504C787.535 695.343 787.488 695.167 787.487 694.989L787.476 689.813Z" fill="#562E4A"/>
<path d="M787.476 689.813C787.475 689.435 787.685 689.08 788.04 688.859L791.938 686.438C792.122 686.323 792.269 686.171 792.368 685.995L793.848 683.342C794.442 682.277 796.286 682.554 796.44 683.731L798.327 698.142C798.405 698.737 797.953 699.286 797.277 699.419L791.637 700.523C791.016 700.645 790.378 700.38 790.098 699.885L787.626 695.504C787.535 695.343 787.488 695.167 787.487 694.989L787.476 689.813Z" fill="url(#paint93_linear)"/>
<path d="M810.542 717.406C810.926 717.006 810.962 716.433 810.629 715.996L807.532 711.922C806.978 711.193 805.739 711.212 805.226 711.959L799.037 720.959C798.667 721.496 798.847 722.193 799.445 722.547L802.346 724.263C802.926 724.606 803.708 724.513 804.156 724.048L810.542 717.406Z" fill="#562E4A"/>
<path d="M810.542 717.406C810.926 717.006 810.962 716.433 810.629 715.996L807.532 711.922C806.978 711.193 805.739 711.212 805.226 711.959L799.037 720.959C798.667 721.496 798.847 722.193 799.445 722.547L802.346 724.263C802.926 724.606 803.708 724.513 804.156 724.048L810.542 717.406Z" fill="url(#paint94_linear)"/>
<path d="M806.818 725.037C807.406 724.667 807.552 723.958 807.149 723.429L805.647 721.452C805.149 720.798 804.073 720.731 803.483 721.318L798.052 726.717C797.617 727.149 797.605 727.792 798.024 728.241L798.577 728.833C799.035 729.323 799.852 729.419 800.437 729.051L806.818 725.037Z" fill="#562E4A"/>
<path d="M806.818 725.037C807.406 724.667 807.552 723.958 807.149 723.429L805.647 721.452C805.149 720.798 804.073 720.731 803.483 721.318L798.052 726.717C797.617 727.149 797.605 727.792 798.024 728.241L798.577 728.833C799.035 729.323 799.852 729.419 800.437 729.051L806.818 725.037Z" fill="url(#paint95_linear)"/>
<path d="M795.797 679.637C795.895 679.455 796.193 679.454 796.292 679.635L802.081 690.197C802.142 690.309 802.093 690.443 801.969 690.504L795.419 693.709C795.307 693.764 795.167 693.744 795.081 693.661L790.699 689.449C790.626 689.379 790.609 689.277 790.655 689.192L795.797 679.637Z" fill="#562E4A"/>
<path d="M795.797 679.637C795.895 679.455 796.193 679.454 796.292 679.635L802.081 690.197C802.142 690.309 802.093 690.443 801.969 690.504L795.419 693.709C795.307 693.764 795.167 693.744 795.081 693.661L790.699 689.449C790.626 689.379 790.609 689.277 790.655 689.192L795.797 679.637Z" fill="url(#paint96_linear)"/>
<path d="M795.054 728.763H796.966V737.735L795.081 739.5L795.054 728.763Z" fill="#562E4A"/>
<path d="M795.054 728.763H796.966V737.735L795.081 739.5L795.054 728.763Z" fill="url(#paint97_linear)"/>
<path d="M746.561 708.458C746.561 720.65 741.852 730.534 736.043 730.534C730.234 730.534 724.295 720.65 724.295 708.458C724.295 696.266 730.234 686.382 736.043 686.382C741.852 686.382 746.561 696.266 746.561 708.458Z" fill="#562E4A"/>
<path d="M746.561 708.458C746.561 720.65 741.852 730.534 736.043 730.534C730.234 730.534 724.295 720.65 724.295 708.458C724.295 696.266 730.234 686.382 736.043 686.382C741.852 686.382 746.561 696.266 746.561 708.458Z" fill="url(#paint98_linear)"/>
<path d="M721.854 707.075C721.758 706.692 721.888 706.292 722.201 706.008L726.346 702.26C727.041 701.631 728.258 701.846 728.612 702.659L732.113 710.697C732.381 711.312 732.016 711.998 731.301 712.222L725.218 714.135C724.441 714.379 723.592 713.975 723.416 713.277L721.854 707.075Z" fill="#562E4A"/>
<path d="M721.854 707.075C721.758 706.692 721.888 706.292 722.201 706.008L726.346 702.26C727.041 701.631 728.258 701.846 728.612 702.659L732.113 710.697C732.381 711.312 732.016 711.998 731.301 712.222L725.218 714.135C724.441 714.379 723.592 713.975 723.416 713.277L721.854 707.075Z" fill="url(#paint99_linear)"/>
<path d="M722.449 695.353C722.408 694.918 722.649 694.499 723.076 694.264L728.512 691.267C729.351 690.804 730.462 691.247 730.599 692.099L732.627 704.672C732.722 705.26 732.297 705.817 731.634 705.973L725.202 707.492C724.376 707.687 723.549 707.185 723.48 706.448L722.449 695.353Z" fill="#562E4A"/>
<path d="M722.449 695.353C722.408 694.918 722.649 694.499 723.076 694.264L728.512 691.267C729.351 690.804 730.462 691.247 730.599 692.099L732.627 704.672C732.722 705.26 732.297 705.817 731.634 705.973L725.202 707.492C724.376 707.687 723.549 707.185 723.48 706.448L722.449 695.353Z" fill="url(#paint100_linear)"/>
<path d="M721.813 717.292C721.422 716.89 721.385 716.314 721.721 715.878L724.876 711.78C725.431 711.059 726.667 711.083 727.184 711.826L733.462 720.838C733.837 721.376 733.658 722.074 733.056 722.425L730.095 724.155C729.516 724.493 728.735 724.399 728.285 723.937L721.813 717.292Z" fill="#562E4A"/>
<path d="M721.813 717.292C721.422 716.89 721.385 716.314 721.721 715.878L724.876 711.78C725.431 711.059 726.667 711.083 727.184 711.826L733.462 720.838C733.837 721.376 733.658 722.074 733.056 722.425L730.095 724.155C729.516 724.493 728.735 724.399 728.285 723.937L721.813 717.292Z" fill="url(#paint101_linear)"/>
<path d="M725.587 724.922C724.99 724.551 724.839 723.838 725.247 723.309L726.784 721.313C727.282 720.667 728.353 720.604 728.946 721.187L734.457 726.595C734.899 727.028 734.913 727.675 734.49 728.122L733.914 728.731C733.458 729.213 732.645 729.306 732.06 728.942L725.587 724.922Z" fill="#562E4A"/>
<path d="M725.587 724.922C724.99 724.551 724.839 723.838 725.247 723.309L726.784 721.313C727.282 720.667 728.353 720.604 728.946 721.187L734.457 726.595C734.899 727.028 734.913 727.675 734.49 728.122L733.914 728.731C733.458 729.213 732.645 729.306 732.06 728.942L725.587 724.922Z" fill="url(#paint102_linear)"/>
<path d="M751.442 706.118C751.621 705.561 751.308 704.971 750.704 704.723L745.324 702.521C744.595 702.223 743.734 702.532 743.465 703.189L740.33 710.856C740.085 711.456 740.433 712.12 741.117 712.357L747.204 714.464C747.956 714.725 748.798 714.364 749.014 713.689L751.442 706.118Z" fill="#562E4A"/>
<path d="M751.442 706.118C751.621 705.561 751.308 704.971 750.704 704.723L745.324 702.521C744.595 702.223 743.734 702.532 743.465 703.189L740.33 710.856C740.085 711.456 740.433 712.12 741.117 712.357L747.204 714.464C747.956 714.725 748.798 714.364 749.014 713.689L751.442 706.118Z" fill="url(#paint103_linear)"/>
<path d="M750.58 696.561C750.623 696.151 750.417 695.75 750.035 695.502L744.004 691.594C743.172 691.055 741.981 691.483 741.839 692.372L739.875 704.712C739.776 705.333 740.254 705.915 740.964 706.038L747.946 707.255C748.739 707.393 749.493 706.907 749.567 706.209L750.58 696.561Z" fill="#562E4A"/>
<path d="M750.58 696.561C750.623 696.151 750.417 695.75 750.035 695.502L744.004 691.594C743.172 691.055 741.981 691.483 741.839 692.372L739.875 704.712C739.776 705.333 740.254 705.915 740.964 706.038L747.946 707.255C748.739 707.393 749.493 706.907 749.567 706.209L750.58 696.561Z" fill="url(#paint104_linear)"/>
<path d="M744.328 689.289L735.832 683.785L733.377 699.207L741.257 700.816L744.328 695.354L744.328 689.289Z" fill="#562E4A"/>
<path d="M744.328 689.289L735.832 683.785L733.377 699.207L741.257 700.816L744.328 695.354L744.328 689.289Z" fill="url(#paint105_linear)"/>
<path d="M744.381 689.838C744.347 689.49 744.138 689.172 743.81 688.969L740.282 686.79C740.1 686.677 739.952 686.527 739.851 686.354L737.972 683.105C737.362 682.052 735.547 682.325 735.397 683.494L733.512 698.161C733.435 698.757 733.886 699.311 734.561 699.449L740.285 700.617C740.864 700.736 741.462 700.516 741.765 700.075L744.7 695.796C744.844 695.585 744.909 695.34 744.886 695.096L744.381 689.838Z" fill="#562E4A"/>
<path d="M744.381 689.838C744.347 689.49 744.138 689.172 743.81 688.969L740.282 686.79C740.1 686.677 739.952 686.527 739.851 686.354L737.972 683.105C737.362 682.052 735.547 682.325 735.397 683.494L733.512 698.161C733.435 698.757 733.886 699.311 734.561 699.449L740.285 700.617C740.864 700.736 741.462 700.516 741.765 700.075L744.7 695.796C744.844 695.585 744.909 695.34 744.886 695.096L744.381 689.838Z" fill="url(#paint106_linear)"/>
<path d="M727.476 689.813C727.475 689.435 727.685 689.08 728.04 688.859L731.938 686.438C732.122 686.323 732.269 686.171 732.368 685.995L733.848 683.342C734.442 682.277 736.286 682.554 736.44 683.731L738.327 698.142C738.405 698.737 737.953 699.286 737.277 699.419L731.637 700.523C731.016 700.645 730.378 700.38 730.098 699.885L727.626 695.504C727.535 695.343 727.488 695.167 727.487 694.989L727.476 689.813Z" fill="#562E4A"/>
<path d="M727.476 689.813C727.475 689.435 727.685 689.08 728.04 688.859L731.938 686.438C732.122 686.323 732.269 686.171 732.368 685.995L733.848 683.342C734.442 682.277 736.286 682.554 736.44 683.731L738.327 698.142C738.405 698.737 737.953 699.286 737.277 699.419L731.637 700.523C731.016 700.645 730.378 700.38 730.098 699.885L727.626 695.504C727.535 695.343 727.488 695.167 727.487 694.989L727.476 689.813Z" fill="url(#paint107_linear)"/>
<path d="M750.542 717.406C750.926 717.006 750.962 716.433 750.629 715.996L747.532 711.922C746.978 711.193 745.739 711.212 745.226 711.959L739.037 720.959C738.667 721.496 738.847 722.193 739.445 722.547L742.346 724.263C742.926 724.606 743.708 724.513 744.156 724.048L750.542 717.406Z" fill="#562E4A"/>
<path d="M750.542 717.406C750.926 717.006 750.962 716.433 750.629 715.996L747.532 711.922C746.978 711.193 745.739 711.212 745.226 711.959L739.037 720.959C738.667 721.496 738.847 722.193 739.445 722.547L742.346 724.263C742.926 724.606 743.708 724.513 744.156 724.048L750.542 717.406Z" fill="url(#paint108_linear)"/>
<path d="M746.818 725.037C747.406 724.667 747.552 723.958 747.149 723.429L745.647 721.452C745.149 720.798 744.073 720.731 743.483 721.318L738.052 726.717C737.617 727.149 737.605 727.792 738.024 728.241L738.577 728.833C739.035 729.323 739.852 729.419 740.437 729.051L746.818 725.037Z" fill="#562E4A"/>
<path d="M746.818 725.037C747.406 724.667 747.552 723.958 747.149 723.429L745.647 721.452C745.149 720.798 744.073 720.731 743.483 721.318L738.052 726.717C737.617 727.149 737.605 727.792 738.024 728.241L738.577 728.833C739.035 729.323 739.852 729.419 740.437 729.051L746.818 725.037Z" fill="url(#paint109_linear)"/>
<path d="M735.797 679.637C735.895 679.455 736.193 679.454 736.292 679.635L742.081 690.197C742.142 690.309 742.093 690.443 741.969 690.504L735.419 693.709C735.307 693.764 735.167 693.744 735.081 693.661L730.699 689.449C730.626 689.379 730.609 689.277 730.655 689.192L735.797 679.637Z" fill="#562E4A"/>
<path d="M735.797 679.637C735.895 679.455 736.193 679.454 736.292 679.635L742.081 690.197C742.142 690.309 742.093 690.443 741.969 690.504L735.419 693.709C735.307 693.764 735.167 693.744 735.081 693.661L730.699 689.449C730.626 689.379 730.609 689.277 730.655 689.192L735.797 679.637Z" fill="url(#paint110_linear)"/>
<path d="M735.054 728.763H736.966V737.735L735.081 739.5L735.054 728.763Z" fill="#562E4A"/>
<path d="M735.054 728.763H736.966V737.735L735.081 739.5L735.054 728.763Z" fill="url(#paint111_linear)"/>
<rect x="949.492" y="723" width="58.5" height="13.5" fill="#562E4A"/>
<path d="M952.492 709.5C952.492 707.843 953.835 706.5 955.492 706.5H1001.99C1003.65 706.5 1004.99 707.843 1004.99 709.5V723H952.492V709.5Z" fill="white" fill-opacity="0.15"/>
<path d="M961.242 699.875C961.242 697.114 963.481 694.875 966.242 694.875H991.555C994.316 694.875 996.555 697.114 996.555 699.875V708.938H961.242V699.875Z" fill="white" fill-opacity="0.15"/>
<path d="M965.992 690.5C965.992 687.739 968.231 685.5 970.992 685.5H986.492C989.254 685.5 991.492 687.739 991.492 690.5V696H965.992V690.5Z" fill="white" fill-opacity="0.15"/>
<path d="M957.18 706.754H1000.93C1000.93 706.754 999.051 711.684 996.399 713.316C990.305 717.066 985.888 717.092 978.899 717.066C972.028 717.041 967.492 717.066 961.711 713.316C959.098 711.622 957.18 706.754 957.18 706.754Z" fill="#562E4A"/>
<path d="M965.93 695.812H991.867C991.867 695.812 990.753 698.8 989.181 699.788C985.568 702.06 982.949 702.076 978.806 702.06C974.733 702.045 972.044 702.06 968.616 699.788C967.067 698.762 965.93 695.812 965.93 695.812Z" fill="#562E4A"/>
<path d="M969.992 686.752H987.805C987.805 686.752 987.04 688.843 985.96 689.535C983.479 691.126 981.68 691.137 978.835 691.126C976.038 691.115 974.191 691.126 971.837 689.535C970.773 688.816 969.992 686.752 969.992 686.752Z" fill="#562E4A"/>
<rect x="977.492" y="691.125" width="3.12501" height="31.8751" fill="#562E4A"/>
<rect x="2215.65" y="492.416" width="130.342" height="164.228" fill="#4F2941"/>
<rect x="2107.5" y="656.645" width="238.498" height="75.1552" fill="#562E4A"/>
<rect x="2584.5" y="656.645" width="238.498" height="75.1552" fill="#562E4A"/>
<rect x="2345.99" y="575.922" width="238.498" height="155.877" fill="#562E4A"/>
<rect x="2107.5" y="731.797" width="715.495" height="16.7012" fill="#4F2941"/>
<rect x="2287.75" y="598.191" width="33.2788" height="36.1858" fill="#F9DFCE"/>
<rect x="2370.95" y="603.758" width="61.0112" height="30.6188" fill="#F9DFCE"/>
<rect x="2595.59" y="681.697" width="47.145" height="30.6188" fill="#F9DFCE"/>
<rect x="2132.45" y="681.697" width="47.145" height="30.6188" fill="#F9DFCE"/>
<rect x="2420.87" y="692.83" width="85.9703" height="50.1035" fill="#F9DFCE"/>
<rect x="2445.83" y="692.83" width="38.8253" height="50.1035" fill="#0B0A0A"/>
<rect x="2434.73" y="603.758" width="61.0112" height="30.6188" fill="#F9DFCE"/>
<rect x="2645.5" y="681.697" width="49.9183" height="30.6188" fill="#F9DFCE"/>
<rect x="2182.37" y="681.697" width="49.9183" height="30.6188" fill="#F9DFCE"/>
<rect x="2498.52" y="603.758" width="61.0112" height="30.6188" fill="#F9DFCE"/>
<rect x="2698.2" y="681.697" width="47.145" height="30.6188" fill="#F9DFCE"/>
<rect x="2235.06" y="681.697" width="47.145" height="30.6188" fill="#F9DFCE"/>
<rect x="2748.11" y="681.697" width="47.145" height="30.6188" fill="#F9DFCE"/>
<rect x="2284.98" y="681.697" width="47.145" height="30.6188" fill="#F9DFCE"/>
<rect x="2240.61" y="598.191" width="33.2788" height="36.1858" fill="#F9DFCE"/>
<rect x="2240.61" y="514.684" width="33.2788" height="36.1858" fill="#F9DFCE"/>
<rect x="2287.75" y="514.684" width="33.2788" height="36.1858" fill="#F9DFCE"/>
<rect x="2235.06" y="478.5" width="74.8774" height="11.1341" fill="#F9DFCE"/>
<rect x="2484.65" y="562.004" width="74.8774" height="11.1341" fill="#F9DFCE"/>
<rect x="2734.23" y="645.51" width="74.8774" height="11.1341" fill="#F9DFCE"/>
<rect x="1697.99" y="658.5" width="6" height="88.5" fill="#562E4A"/>
<path d="M1606.49 618.004L1703.99 658.504H1697.99L1600.49 618.004H1606.49Z" fill="#562E4A"/>
<path d="M1677.04 720V721.849L1677.16 722.089L1678.46 725.143H1667.47L1667.07 725.706L1663.63 730.647C1662.85 730.404 1662.04 730.282 1661.22 730.286C1659.04 730.288 1656.95 731.17 1655.4 732.736C1653.86 734.303 1652.99 736.427 1652.99 738.643C1652.99 743.253 1656.68 747 1661.22 747C1665.54 747 1669.07 743.59 1669.41 739.286H1673.76L1674.15 738.723L1680.32 729.482L1681.15 731.411C1679.9 732.145 1678.87 733.2 1678.15 734.469C1677.42 735.738 1677.04 737.177 1677.04 738.643C1677.04 743.233 1680.75 747 1685.27 747C1689.78 747 1693.49 743.233 1693.49 738.643C1693.49 734.053 1689.78 730.286 1685.27 730.286C1684.66 730.286 1684.06 730.356 1683.49 730.486L1680.08 722.571H1684C1684.36 722.571 1684.63 722.848 1684.63 723.214C1684.63 723.581 1684.36 723.857 1684 723.857V726.429C1685.73 726.429 1687.16 724.972 1687.16 723.214C1687.16 721.457 1685.73 720 1684 720H1677.04ZM1663.12 721.286V723.857H1670.71L1669.45 721.286H1663.12ZM1670.04 727.714H1678.46L1673.36 735.349L1670.04 727.714ZM1667.82 729L1671.15 736.714H1660.59V739.286H1666.84C1666.51 742.168 1664.14 744.429 1661.22 744.429C1658.08 744.429 1655.52 741.831 1655.52 738.643C1655.52 735.454 1658.08 732.857 1661.22 732.857C1662.16 732.858 1663.08 733.092 1663.91 733.541C1664.74 733.989 1665.44 734.638 1665.96 735.429H1668.81C1668.21 733.955 1667.21 732.686 1665.93 731.772L1667.82 729ZM1685.27 732.857C1688.4 732.857 1690.96 735.454 1690.96 738.643C1690.96 741.831 1688.4 744.429 1685.27 744.429C1682.13 744.429 1679.57 741.831 1679.57 738.643C1679.57 736.619 1680.62 734.856 1682.18 733.821L1684.75 739.808L1687.05 738.764L1684.55 732.937C1684.79 732.907 1685.02 732.857 1685.27 732.857V732.857Z" fill="#0A184F"/>
<rect x="1714.49" y="745.504" width="360" height="3" fill="#562E4A"/>
<path d="M2087.76 613.32C2084.86 618.798 2065.88 617.751 2056.75 616.542V637.082C2059.65 633.86 2078.63 635.74 2087.76 637.082V613.32Z" fill="#7D5163"/>
<rect x="2054.5" y="616.141" width="2.41649" height="126.463" fill="#0A134B"/>
<ellipse cx="2055.32" cy="613.722" rx="2.81924" ry="3.22199" fill="#0A134B"/>
<rect x="2045.99" y="742.5" width="22.5" height="1.5" fill="#562E4A"/>
<rect x="2039.99" y="744" width="34.5" height="1.5" fill="#562E4A"/>
<path d="M13.7207 653.058L22.9301 640.5L32.1394 653.058H28.7905L39.6742 668.547H37.1626L46.7905 683.198H44.2789L53.0696 697.849H49.3021L61.0231 714.802H57.0463L66.8835 731.756H-21.0234L-11.1862 714.802H-14.3258L-3.02344 697.849H-7.20948L1.58121 683.198H-0.930412L8.69749 668.547H6.18587L17.0696 653.058H13.7207Z" fill="#562E4A"/>
<rect x="18.3203" y="731.758" width="10.0465" height="16.7442" fill="#562E4A"/>
<path d="M131.635 653.058L140.844 640.5L150.053 653.058H146.705L157.588 668.547H155.077L164.705 683.198H162.193L170.984 697.849H167.216L178.937 714.802H174.96L184.798 731.756H96.8906L106.728 714.802H103.588L114.891 697.849H110.705L119.495 683.198H116.984L126.612 668.547H124.1L134.984 653.058H131.635Z" fill="#562E4A"/>
<rect x="136.234" y="731.758" width="10.0465" height="16.7442" fill="#562E4A"/>
<path d="M249.545 653.058L258.754 640.5L267.964 653.058H264.615L275.498 668.547H272.987L282.615 683.198H280.103L288.894 697.849H285.126L296.847 714.802H292.871L302.708 731.756H214.801L224.638 714.802H221.498L232.801 697.849H228.615L237.405 683.198H234.894L244.522 668.547H242.01L252.894 653.058H249.545Z" fill="#562E4A"/>
<rect x="254.148" y="731.758" width="10.0465" height="16.7442" fill="#562E4A"/>
<path d="M367.729 653.058L376.938 640.5L386.147 653.058H382.798L393.682 668.547H391.17L400.798 683.198H398.287L407.077 697.849H403.31L415.031 714.802H411.054L420.891 731.756H332.984L342.822 714.802H339.682L350.984 697.849H346.798L355.589 683.198H353.077L362.705 668.547H360.194L371.077 653.058H367.729Z" fill="#562E4A"/>
<rect x="372.328" y="731.758" width="10.0465" height="16.7442" fill="#562E4A"/>
</g>
<defs>
<linearGradient id="paint0_linear" x1="1216.49" y1="679.5" x2="1216.49" y2="737.735" gradientUnits="userSpaceOnUse">
<stop stop-color="#092158"/>
<stop offset="1" stop-color="#0B053E"/>
</linearGradient>
<linearGradient id="paint1_linear" x1="1216.49" y1="679.5" x2="1216.49" y2="737.735" gradientUnits="userSpaceOnUse">
<stop stop-color="#092158"/>
<stop offset="1" stop-color="#0B053E"/>
</linearGradient>
<linearGradient id="paint2_linear" x1="1216.49" y1="679.5" x2="1216.49" y2="737.735" gradientUnits="userSpaceOnUse">
<stop stop-color="#092158"/>
<stop offset="1" stop-color="#0B053E"/>
</linearGradient>
<linearGradient id="paint3_linear" x1="1216.49" y1="679.5" x2="1216.49" y2="737.735" gradientUnits="userSpaceOnUse">
<stop stop-color="#092158"/>
<stop offset="1" stop-color="#0B053E"/>
</linearGradient>
<linearGradient id="paint4_linear" x1="1216.49" y1="679.5" x2="1216.49" y2="737.735" gradientUnits="userSpaceOnUse">
<stop stop-color="#092158"/>
<stop offset="1" stop-color="#0B053E"/>
</linearGradient>
<linearGradient id="paint5_linear" x1="1216.49" y1="679.5" x2="1216.49" y2="737.735" gradientUnits="userSpaceOnUse">
<stop stop-color="#092158"/>
<stop offset="1" stop-color="#0B053E"/>
</linearGradient>
<linearGradient id="paint6_linear" x1="1216.49" y1="679.5" x2="1216.49" y2="737.735" gradientUnits="userSpaceOnUse">
<stop stop-color="#092158"/>
<stop offset="1" stop-color="#0B053E"/>
</linearGradient>
<linearGradient id="paint7_linear" x1="1216.49" y1="679.5" x2="1216.49" y2="737.735" gradientUnits="userSpaceOnUse">
<stop stop-color="#092158"/>
<stop offset="1" stop-color="#0B053E"/>
</linearGradient>
<linearGradient id="paint8_linear" x1="1216.49" y1="679.5" x2="1216.49" y2="737.735" gradientUnits="userSpaceOnUse">
<stop stop-color="#092158"/>
<stop offset="1" stop-color="#0B053E"/>
</linearGradient>
<linearGradient id="paint9_linear" x1="1216.49" y1="679.5" x2="1216.49" y2="737.735" gradientUnits="userSpaceOnUse">
<stop stop-color="#092158"/>
<stop offset="1" stop-color="#0B053E"/>
</linearGradient>
<linearGradient id="paint10_linear" x1="1216.49" y1="679.5" x2="1216.49" y2="737.735" gradientUnits="userSpaceOnUse">
<stop stop-color="#092158"/>
<stop offset="1" stop-color="#0B053E"/>
</linearGradient>
<linearGradient id="paint11_linear" x1="1216.49" y1="679.5" x2="1216.49" y2="737.735" gradientUnits="userSpaceOnUse">
<stop stop-color="#092158"/>
<stop offset="1" stop-color="#0B053E"/>
</linearGradient>
<linearGradient id="paint12_linear" x1="1216.49" y1="679.5" x2="1216.49" y2="737.735" gradientUnits="userSpaceOnUse">
<stop stop-color="#092158"/>
<stop offset="1" stop-color="#0B053E"/>
</linearGradient>
<linearGradient id="paint13_linear" x1="1216.49" y1="679.5" x2="1216.49" y2="737.735" gradientUnits="userSpaceOnUse">
<stop stop-color="#092158"/>
<stop offset="1" stop-color="#0B053E"/>
</linearGradient>
<linearGradient id="paint14_linear" x1="1156.49" y1="679.5" x2="1156.49" y2="737.735" gradientUnits="userSpaceOnUse">
<stop stop-color="#092158"/>
<stop offset="1" stop-color="#0B053E"/>
</linearGradient>
<linearGradient id="paint15_linear" x1="1156.49" y1="679.5" x2="1156.49" y2="737.735" gradientUnits="userSpaceOnUse">
<stop stop-color="#092158"/>
<stop offset="1" stop-color="#0B053E"/>
</linearGradient>
<linearGradient id="paint16_linear" x1="1156.49" y1="679.5" x2="1156.49" y2="737.735" gradientUnits="userSpaceOnUse">
<stop stop-color="#092158"/>
<stop offset="1" stop-color="#0B053E"/>
</linearGradient>
<linearGradient id="paint17_linear" x1="1156.49" y1="679.5" x2="1156.49" y2="737.735" gradientUnits="userSpaceOnUse">
<stop stop-color="#092158"/>
<stop offset="1" stop-color="#0B053E"/>
</linearGradient>
<linearGradient id="paint18_linear" x1="1156.49" y1="679.5" x2="1156.49" y2="737.735" gradientUnits="userSpaceOnUse">
<stop stop-color="#092158"/>
<stop offset="1" stop-color="#0B053E"/>
</linearGradient>
<linearGradient id="paint19_linear" x1="1156.49" y1="679.5" x2="1156.49" y2="737.735" gradientUnits="userSpaceOnUse">
<stop stop-color="#092158"/>
<stop offset="1" stop-color="#0B053E"/>
</linearGradient>
<linearGradient id="paint20_linear" x1="1156.49" y1="679.5" x2="1156.49" y2="737.735" gradientUnits="userSpaceOnUse">
<stop stop-color="#092158"/>
<stop offset="1" stop-color="#0B053E"/>
</linearGradient>
<linearGradient id="paint21_linear" x1="1156.49" y1="679.5" x2="1156.49" y2="737.735" gradientUnits="userSpaceOnUse">
<stop stop-color="#092158"/>
<stop offset="1" stop-color="#0B053E"/>
</linearGradient>
<linearGradient id="paint22_linear" x1="1156.49" y1="679.5" x2="1156.49" y2="737.735" gradientUnits="userSpaceOnUse">
<stop stop-color="#092158"/>
<stop offset="1" stop-color="#0B053E"/>
</linearGradient>
<linearGradient id="paint23_linear" x1="1156.49" y1="679.5" x2="1156.49" y2="737.735" gradientUnits="userSpaceOnUse">
<stop stop-color="#092158"/>
<stop offset="1" stop-color="#0B053E"/>
</linearGradient>
<linearGradient id="paint24_linear" x1="1156.49" y1="679.5" x2="1156.49" y2="737.735" gradientUnits="userSpaceOnUse">
<stop stop-color="#092158"/>
<stop offset="1" stop-color="#0B053E"/>
</linearGradient>
<linearGradient id="paint25_linear" x1="1156.49" y1="679.5" x2="1156.49" y2="737.735" gradientUnits="userSpaceOnUse">
<stop stop-color="#092158"/>
<stop offset="1" stop-color="#0B053E"/>
</linearGradient>
<linearGradient id="paint26_linear" x1="1156.49" y1="679.5" x2="1156.49" y2="737.735" gradientUnits="userSpaceOnUse">
<stop stop-color="#092158"/>
<stop offset="1" stop-color="#0B053E"/>
</linearGradient>
<linearGradient id="paint27_linear" x1="1156.49" y1="679.5" x2="1156.49" y2="737.735" gradientUnits="userSpaceOnUse">
<stop stop-color="#092158"/>
<stop offset="1" stop-color="#0B053E"/>
</linearGradient>
<linearGradient id="paint28_linear" x1="1096.49" y1="679.5" x2="1096.49" y2="737.735" gradientUnits="userSpaceOnUse">
<stop stop-color="#092158"/>
<stop offset="1" stop-color="#0B053E"/>
</linearGradient>
<linearGradient id="paint29_linear" x1="1096.49" y1="679.5" x2="1096.49" y2="737.735" gradientUnits="userSpaceOnUse">
<stop stop-color="#092158"/>
<stop offset="1" stop-color="#0B053E"/>
</linearGradient>
<linearGradient id="paint30_linear" x1="1096.49" y1="679.5" x2="1096.49" y2="737.735" gradientUnits="userSpaceOnUse">
<stop stop-color="#092158"/>
<stop offset="1" stop-color="#0B053E"/>
</linearGradient>
<linearGradient id="paint31_linear" x1="1096.49" y1="679.5" x2="1096.49" y2="737.735" gradientUnits="userSpaceOnUse">
<stop stop-color="#092158"/>
<stop offset="1" stop-color="#0B053E"/>
</linearGradient>
<linearGradient id="paint32_linear" x1="1096.49" y1="679.5" x2="1096.49" y2="737.735" gradientUnits="userSpaceOnUse">
<stop stop-color="#092158"/>
<stop offset="1" stop-color="#0B053E"/>
</linearGradient>
<linearGradient id="paint33_linear" x1="1096.49" y1="679.5" x2="1096.49" y2="737.735" gradientUnits="userSpaceOnUse">
<stop stop-color="#092158"/>
<stop offset="1" stop-color="#0B053E"/>
</linearGradient>
<linearGradient id="paint34_linear" x1="1096.49" y1="679.5" x2="1096.49" y2="737.735" gradientUnits="userSpaceOnUse">
<stop stop-color="#092158"/>
<stop offset="1" stop-color="#0B053E"/>
</linearGradient>
<linearGradient id="paint35_linear" x1="1096.49" y1="679.5" x2="1096.49" y2="737.735" gradientUnits="userSpaceOnUse">
<stop stop-color="#092158"/>
<stop offset="1" stop-color="#0B053E"/>
</linearGradient>
<linearGradient id="paint36_linear" x1="1096.49" y1="679.5" x2="1096.49" y2="737.735" gradientUnits="userSpaceOnUse">
<stop stop-color="#092158"/>
<stop offset="1" stop-color="#0B053E"/>
</linearGradient>
<linearGradient id="paint37_linear" x1="1096.49" y1="679.5" x2="1096.49" y2="737.735" gradientUnits="userSpaceOnUse">
<stop stop-color="#092158"/>
<stop offset="1" stop-color="#0B053E"/>
</linearGradient>
<linearGradient id="paint38_linear" x1="1096.49" y1="679.5" x2="1096.49" y2="737.735" gradientUnits="userSpaceOnUse">
<stop stop-color="#092158"/>
<stop offset="1" stop-color="#0B053E"/>
</linearGradient>
<linearGradient id="paint39_linear" x1="1096.49" y1="679.5" x2="1096.49" y2="737.735" gradientUnits="userSpaceOnUse">
<stop stop-color="#092158"/>
<stop offset="1" stop-color="#0B053E"/>
</linearGradient>
<linearGradient id="paint40_linear" x1="1096.49" y1="679.5" x2="1096.49" y2="737.735" gradientUnits="userSpaceOnUse">
<stop stop-color="#092158"/>
<stop offset="1" stop-color="#0B053E"/>
</linearGradient>
<linearGradient id="paint41_linear" x1="1096.49" y1="679.5" x2="1096.49" y2="737.735" gradientUnits="userSpaceOnUse">
<stop stop-color="#092158"/>
<stop offset="1" stop-color="#0B053E"/>
</linearGradient>
<linearGradient id="paint42_linear" x1="1036.49" y1="679.5" x2="1036.49" y2="737.735" gradientUnits="userSpaceOnUse">
<stop stop-color="#092158"/>
<stop offset="1" stop-color="#0B053E"/>
</linearGradient>
<linearGradient id="paint43_linear" x1="1036.49" y1="679.5" x2="1036.49" y2="737.735" gradientUnits="userSpaceOnUse">
<stop stop-color="#092158"/>
<stop offset="1" stop-color="#0B053E"/>
</linearGradient>
<linearGradient id="paint44_linear" x1="1036.49" y1="679.5" x2="1036.49" y2="737.735" gradientUnits="userSpaceOnUse">
<stop stop-color="#092158"/>
<stop offset="1" stop-color="#0B053E"/>
</linearGradient>
<linearGradient id="paint45_linear" x1="1036.49" y1="679.5" x2="1036.49" y2="737.735" gradientUnits="userSpaceOnUse">
<stop stop-color="#092158"/>
<stop offset="1" stop-color="#0B053E"/>
</linearGradient>
<linearGradient id="paint46_linear" x1="1036.49" y1="679.5" x2="1036.49" y2="737.735" gradientUnits="userSpaceOnUse">
<stop stop-color="#092158"/>
<stop offset="1" stop-color="#0B053E"/>
</linearGradient>
<linearGradient id="paint47_linear" x1="1036.49" y1="679.5" x2="1036.49" y2="737.735" gradientUnits="userSpaceOnUse">
<stop stop-color="#092158"/>
<stop offset="1" stop-color="#0B053E"/>
</linearGradient>
<linearGradient id="paint48_linear" x1="1036.49" y1="679.5" x2="1036.49" y2="737.735" gradientUnits="userSpaceOnUse">
<stop stop-color="#092158"/>
<stop offset="1" stop-color="#0B053E"/>
</linearGradient>
<linearGradient id="paint49_linear" x1="1036.49" y1="679.5" x2="1036.49" y2="737.735" gradientUnits="userSpaceOnUse">
<stop stop-color="#092158"/>
<stop offset="1" stop-color="#0B053E"/>
</linearGradient>
<linearGradient id="paint50_linear" x1="1036.49" y1="679.5" x2="1036.49" y2="737.735" gradientUnits="userSpaceOnUse">
<stop stop-color="#092158"/>
<stop offset="1" stop-color="#0B053E"/>
</linearGradient>
<linearGradient id="paint51_linear" x1="1036.49" y1="679.5" x2="1036.49" y2="737.735" gradientUnits="userSpaceOnUse">
<stop stop-color="#092158"/>
<stop offset="1" stop-color="#0B053E"/>
</linearGradient>
<linearGradient id="paint52_linear" x1="1036.49" y1="679.5" x2="1036.49" y2="737.735" gradientUnits="userSpaceOnUse">
<stop stop-color="#092158"/>
<stop offset="1" stop-color="#0B053E"/>
</linearGradient>
<linearGradient id="paint53_linear" x1="1036.49" y1="679.5" x2="1036.49" y2="737.735" gradientUnits="userSpaceOnUse">
<stop stop-color="#092158"/>
<stop offset="1" stop-color="#0B053E"/>
</linearGradient>
<linearGradient id="paint54_linear" x1="1036.49" y1="679.5" x2="1036.49" y2="737.735" gradientUnits="userSpaceOnUse">
<stop stop-color="#092158"/>
<stop offset="1" stop-color="#0B053E"/>
</linearGradient>
<linearGradient id="paint55_linear" x1="1036.49" y1="679.5" x2="1036.49" y2="737.735" gradientUnits="userSpaceOnUse">
<stop stop-color="#092158"/>
<stop offset="1" stop-color="#0B053E"/>
</linearGradient>
<linearGradient id="paint56_linear" x1="916.492" y1="679.5" x2="916.492" y2="737.735" gradientUnits="userSpaceOnUse">
<stop stop-color="#092158"/>
<stop offset="1" stop-color="#0B053E"/>
</linearGradient>
<linearGradient id="paint57_linear" x1="916.492" y1="679.5" x2="916.492" y2="737.735" gradientUnits="userSpaceOnUse">
<stop stop-color="#092158"/>
<stop offset="1" stop-color="#0B053E"/>
</linearGradient>
<linearGradient id="paint58_linear" x1="916.492" y1="679.5" x2="916.492" y2="737.735" gradientUnits="userSpaceOnUse">
<stop stop-color="#092158"/>
<stop offset="1" stop-color="#0B053E"/>
</linearGradient>
<linearGradient id="paint59_linear" x1="916.492" y1="679.5" x2="916.492" y2="737.735" gradientUnits="userSpaceOnUse">
<stop stop-color="#092158"/>
<stop offset="1" stop-color="#0B053E"/>
</linearGradient>
<linearGradient id="paint60_linear" x1="916.492" y1="679.5" x2="916.492" y2="737.735" gradientUnits="userSpaceOnUse">
<stop stop-color="#092158"/>
<stop offset="1" stop-color="#0B053E"/>
</linearGradient>
<linearGradient id="paint61_linear" x1="916.492" y1="679.5" x2="916.492" y2="737.735" gradientUnits="userSpaceOnUse">
<stop stop-color="#092158"/>
<stop offset="1" stop-color="#0B053E"/>
</linearGradient>
<linearGradient id="paint62_linear" x1="916.492" y1="679.5" x2="916.492" y2="737.735" gradientUnits="userSpaceOnUse">
<stop stop-color="#092158"/>
<stop offset="1" stop-color="#0B053E"/>
</linearGradient>
<linearGradient id="paint63_linear" x1="916.492" y1="679.5" x2="916.492" y2="737.735" gradientUnits="userSpaceOnUse">
<stop stop-color="#092158"/>
<stop offset="1" stop-color="#0B053E"/>
</linearGradient>
<linearGradient id="paint64_linear" x1="916.492" y1="679.5" x2="916.492" y2="737.735" gradientUnits="userSpaceOnUse">
<stop stop-color="#092158"/>
<stop offset="1" stop-color="#0B053E"/>
</linearGradient>
<linearGradient id="paint65_linear" x1="916.492" y1="679.5" x2="916.492" y2="737.735" gradientUnits="userSpaceOnUse">
<stop stop-color="#092158"/>
<stop offset="1" stop-color="#0B053E"/>
</linearGradient>
<linearGradient id="paint66_linear" x1="916.492" y1="679.5" x2="916.492" y2="737.735" gradientUnits="userSpaceOnUse">
<stop stop-color="#092158"/>
<stop offset="1" stop-color="#0B053E"/>
</linearGradient>
<linearGradient id="paint67_linear" x1="916.492" y1="679.5" x2="916.492" y2="737.735" gradientUnits="userSpaceOnUse">
<stop stop-color="#092158"/>
<stop offset="1" stop-color="#0B053E"/>
</linearGradient>
<linearGradient id="paint68_linear" x1="916.492" y1="679.5" x2="916.492" y2="737.735" gradientUnits="userSpaceOnUse">
<stop stop-color="#092158"/>
<stop offset="1" stop-color="#0B053E"/>
</linearGradient>
<linearGradient id="paint69_linear" x1="916.492" y1="679.5" x2="916.492" y2="737.735" gradientUnits="userSpaceOnUse">
<stop stop-color="#092158"/>
<stop offset="1" stop-color="#0B053E"/>
</linearGradient>
<linearGradient id="paint70_linear" x1="856.492" y1="679.5" x2="856.492" y2="737.735" gradientUnits="userSpaceOnUse">
<stop stop-color="#092158"/>
<stop offset="1" stop-color="#0B053E"/>
</linearGradient>
<linearGradient id="paint71_linear" x1="856.492" y1="679.5" x2="856.492" y2="737.735" gradientUnits="userSpaceOnUse">
<stop stop-color="#092158"/>
<stop offset="1" stop-color="#0B053E"/>
</linearGradient>
<linearGradient id="paint72_linear" x1="856.492" y1="679.5" x2="856.492" y2="737.735" gradientUnits="userSpaceOnUse">
<stop stop-color="#092158"/>
<stop offset="1" stop-color="#0B053E"/>
</linearGradient>
<linearGradient id="paint73_linear" x1="856.492" y1="679.5" x2="856.492" y2="737.735" gradientUnits="userSpaceOnUse">
<stop stop-color="#092158"/>
<stop offset="1" stop-color="#0B053E"/>
</linearGradient>
<linearGradient id="paint74_linear" x1="856.492" y1="679.5" x2="856.492" y2="737.735" gradientUnits="userSpaceOnUse">
<stop stop-color="#092158"/>
<stop offset="1" stop-color="#0B053E"/>
</linearGradient>
<linearGradient id="paint75_linear" x1="856.492" y1="679.5" x2="856.492" y2="737.735" gradientUnits="userSpaceOnUse">
<stop stop-color="#092158"/>
<stop offset="1" stop-color="#0B053E"/>
</linearGradient>
<linearGradient id="paint76_linear" x1="856.492" y1="679.5" x2="856.492" y2="737.735" gradientUnits="userSpaceOnUse">
<stop stop-color="#092158"/>
<stop offset="1" stop-color="#0B053E"/>
</linearGradient>
<linearGradient id="paint77_linear" x1="856.492" y1="679.5" x2="856.492" y2="737.735" gradientUnits="userSpaceOnUse">
<stop stop-color="#092158"/>
<stop offset="1" stop-color="#0B053E"/>
</linearGradient>
<linearGradient id="paint78_linear" x1="856.492" y1="679.5" x2="856.492" y2="737.735" gradientUnits="userSpaceOnUse">
<stop stop-color="#092158"/>
<stop offset="1" stop-color="#0B053E"/>
</linearGradient>
<linearGradient id="paint79_linear" x1="856.492" y1="679.5" x2="856.492" y2="737.735" gradientUnits="userSpaceOnUse">
<stop stop-color="#092158"/>
<stop offset="1" stop-color="#0B053E"/>
</linearGradient>
<linearGradient id="paint80_linear" x1="856.492" y1="679.5" x2="856.492" y2="737.735" gradientUnits="userSpaceOnUse">
<stop stop-color="#092158"/>
<stop offset="1" stop-color="#0B053E"/>
</linearGradient>
<linearGradient id="paint81_linear" x1="856.492" y1="679.5" x2="856.492" y2="737.735" gradientUnits="userSpaceOnUse">
<stop stop-color="#092158"/>
<stop offset="1" stop-color="#0B053E"/>
</linearGradient>
<linearGradient id="paint82_linear" x1="856.492" y1="679.5" x2="856.492" y2="737.735" gradientUnits="userSpaceOnUse">
<stop stop-color="#092158"/>
<stop offset="1" stop-color="#0B053E"/>
</linearGradient>
<linearGradient id="paint83_linear" x1="856.492" y1="679.5" x2="856.492" y2="737.735" gradientUnits="userSpaceOnUse">
<stop stop-color="#092158"/>
<stop offset="1" stop-color="#0B053E"/>
</linearGradient>
<linearGradient id="paint84_linear" x1="796.492" y1="679.5" x2="796.492" y2="737.735" gradientUnits="userSpaceOnUse">
<stop stop-color="#092158"/>
<stop offset="1" stop-color="#0B053E"/>
</linearGradient>
<linearGradient id="paint85_linear" x1="796.492" y1="679.5" x2="796.492" y2="737.735" gradientUnits="userSpaceOnUse">
<stop stop-color="#092158"/>
<stop offset="1" stop-color="#0B053E"/>
</linearGradient>
<linearGradient id="paint86_linear" x1="796.492" y1="679.5" x2="796.492" y2="737.735" gradientUnits="userSpaceOnUse">
<stop stop-color="#092158"/>
<stop offset="1" stop-color="#0B053E"/>
</linearGradient>
<linearGradient id="paint87_linear" x1="796.492" y1="679.5" x2="796.492" y2="737.735" gradientUnits="userSpaceOnUse">
<stop stop-color="#092158"/>
<stop offset="1" stop-color="#0B053E"/>
</linearGradient>
<linearGradient id="paint88_linear" x1="796.492" y1="679.5" x2="796.492" y2="737.735" gradientUnits="userSpaceOnUse">
<stop stop-color="#092158"/>
<stop offset="1" stop-color="#0B053E"/>
</linearGradient>
<linearGradient id="paint89_linear" x1="796.492" y1="679.5" x2="796.492" y2="737.735" gradientUnits="userSpaceOnUse">
<stop stop-color="#092158"/>
<stop offset="1" stop-color="#0B053E"/>
</linearGradient>
<linearGradient id="paint90_linear" x1="796.492" y1="679.5" x2="796.492" y2="737.735" gradientUnits="userSpaceOnUse">
<stop stop-color="#092158"/>
<stop offset="1" stop-color="#0B053E"/>
</linearGradient>
<linearGradient id="paint91_linear" x1="796.492" y1="679.5" x2="796.492" y2="737.735" gradientUnits="userSpaceOnUse">
<stop stop-color="#092158"/>
<stop offset="1" stop-color="#0B053E"/>
</linearGradient>
<linearGradient id="paint92_linear" x1="796.492" y1="679.5" x2="796.492" y2="737.735" gradientUnits="userSpaceOnUse">
<stop stop-color="#092158"/>
<stop offset="1" stop-color="#0B053E"/>
</linearGradient>
<linearGradient id="paint93_linear" x1="796.492" y1="679.5" x2="796.492" y2="737.735" gradientUnits="userSpaceOnUse">
<stop stop-color="#092158"/>
<stop offset="1" stop-color="#0B053E"/>
</linearGradient>
<linearGradient id="paint94_linear" x1="796.492" y1="679.5" x2="796.492" y2="737.735" gradientUnits="userSpaceOnUse">
<stop stop-color="#092158"/>
<stop offset="1" stop-color="#0B053E"/>
</linearGradient>
<linearGradient id="paint95_linear" x1="796.492" y1="679.5" x2="796.492" y2="737.735" gradientUnits="userSpaceOnUse">
<stop stop-color="#092158"/>
<stop offset="1" stop-color="#0B053E"/>
</linearGradient>
<linearGradient id="paint96_linear" x1="796.492" y1="679.5" x2="796.492" y2="737.735" gradientUnits="userSpaceOnUse">
<stop stop-color="#092158"/>
<stop offset="1" stop-color="#0B053E"/>
</linearGradient>
<linearGradient id="paint97_linear" x1="796.492" y1="679.5" x2="796.492" y2="737.735" gradientUnits="userSpaceOnUse">
<stop stop-color="#092158"/>
<stop offset="1" stop-color="#0B053E"/>
</linearGradient>
<linearGradient id="paint98_linear" x1="736.492" y1="679.5" x2="736.492" y2="737.735" gradientUnits="userSpaceOnUse">
<stop stop-color="#092158"/>
<stop offset="1" stop-color="#0B053E"/>
</linearGradient>
<linearGradient id="paint99_linear" x1="736.492" y1="679.5" x2="736.492" y2="737.735" gradientUnits="userSpaceOnUse">
<stop stop-color="#092158"/>
<stop offset="1" stop-color="#0B053E"/>
</linearGradient>
<linearGradient id="paint100_linear" x1="736.492" y1="679.5" x2="736.492" y2="737.735" gradientUnits="userSpaceOnUse">
<stop stop-color="#092158"/>
<stop offset="1" stop-color="#0B053E"/>
</linearGradient>
<linearGradient id="paint101_linear" x1="736.492" y1="679.5" x2="736.492" y2="737.735" gradientUnits="userSpaceOnUse">
<stop stop-color="#092158"/>
<stop offset="1" stop-color="#0B053E"/>
</linearGradient>
<linearGradient id="paint102_linear" x1="736.492" y1="679.5" x2="736.492" y2="737.735" gradientUnits="userSpaceOnUse">
<stop stop-color="#092158"/>
<stop offset="1" stop-color="#0B053E"/>
</linearGradient>
<linearGradient id="paint103_linear" x1="736.492" y1="679.5" x2="736.492" y2="737.735" gradientUnits="userSpaceOnUse">
<stop stop-color="#092158"/>
<stop offset="1" stop-color="#0B053E"/>
</linearGradient>
<linearGradient id="paint104_linear" x1="736.492" y1="679.5" x2="736.492" y2="737.735" gradientUnits="userSpaceOnUse">
<stop stop-color="#092158"/>
<stop offset="1" stop-color="#0B053E"/>
</linearGradient>
<linearGradient id="paint105_linear" x1="736.492" y1="679.5" x2="736.492" y2="737.735" gradientUnits="userSpaceOnUse">
<stop stop-color="#092158"/>
<stop offset="1" stop-color="#0B053E"/>
</linearGradient>
<linearGradient id="paint106_linear" x1="736.492" y1="679.5" x2="736.492" y2="737.735" gradientUnits="userSpaceOnUse">
<stop stop-color="#092158"/>
<stop offset="1" stop-color="#0B053E"/>
</linearGradient>
<linearGradient id="paint107_linear" x1="736.492" y1="679.5" x2="736.492" y2="737.735" gradientUnits="userSpaceOnUse">
<stop stop-color="#092158"/>
<stop offset="1" stop-color="#0B053E"/>
</linearGradient>
<linearGradient id="paint108_linear" x1="736.492" y1="679.5" x2="736.492" y2="737.735" gradientUnits="userSpaceOnUse">
<stop stop-color="#092158"/>
<stop offset="1" stop-color="#0B053E"/>
</linearGradient>
<linearGradient id="paint109_linear" x1="736.492" y1="679.5" x2="736.492" y2="737.735" gradientUnits="userSpaceOnUse">
<stop stop-color="#092158"/>
<stop offset="1" stop-color="#0B053E"/>
</linearGradient>
<linearGradient id="paint110_linear" x1="736.492" y1="679.5" x2="736.492" y2="737.735" gradientUnits="userSpaceOnUse">
<stop stop-color="#092158"/>
<stop offset="1" stop-color="#0B053E"/>
</linearGradient>
<linearGradient id="paint111_linear" x1="736.492" y1="679.5" x2="736.492" y2="737.735" gradientUnits="userSpaceOnUse">
<stop stop-color="#092158"/>
<stop offset="1" stop-color="#0B053E"/>
</linearGradient>
</defs>
</svg>
